<svg width="49" height="136" viewBox="0 0 49 136" fill="none" xmlns="http://www.w3.org/2000/svg">
<path d="M22.1069 135.029C22.7308 135.651 23.5769 136 24.4591 136C25.3413 136 26.1874 135.651 26.8113 135.029L47.9843 113.919C48.3021 113.613 48.5555 113.247 48.7299 112.842C48.9043 112.437 48.996 112.002 48.9999 111.562C49.0037 111.121 48.9195 110.684 48.7522 110.277C48.585 109.869 48.3379 109.499 48.0255 109.187C47.7132 108.876 47.3417 108.63 46.9328 108.463C46.5239 108.296 46.0858 108.212 45.6441 108.216C45.2023 108.22 44.7658 108.311 44.3599 108.485C43.954 108.659 43.5868 108.912 43.2799 109.228L24.4591 127.993L5.6383 109.228C5.01082 108.624 4.17041 108.29 3.29809 108.297C2.42576 108.305 1.5913 108.654 0.974452 109.269C0.3576 109.884 0.00770466 110.716 0.000124822 111.586C-0.00745502 112.455 0.327884 113.293 0.933924 113.919L22.1069 135.029ZM21.1321 -1.21814e-06L21.1321 132.684L27.7861 132.684L27.7861 -9.27288e-07L21.1321 -1.21814e-06Z" fill="#D33A5C"/>
</svg>
