<svg width="63" height="31" viewBox="0 0 63 31" fill="none" xmlns="http://www.w3.org/2000/svg">
<path d="M3.82415 5.88315H20.297C22.062 5.88315 23.2386 4.70652 23.2386 2.94157C23.2386 1.17663 22.062 0 20.297 0H3.82415C2.0592 0 0.882568 1.17663 0.882568 2.94157C0.882568 4.70652 2.0592 5.88315 3.82415 5.88315Z" fill="#00A099"/>
<path d="M58.5375 22.356C57.9492 22.356 57.3609 22.356 57.0667 22.6501L52.9485 18.5319L57.9492 13.5312H59.42C61.1849 13.5312 62.3615 12.3546 62.3615 10.5896C62.3615 8.82467 61.1849 7.64804 59.42 7.64804H3.82406C2.05911 7.64804 0.882475 8.82467 0.882475 10.5896C0.882475 12.3546 2.05911 13.5312 3.82406 13.5312H4.70653L9.70722 18.5319L5.58901 22.6501C4.70653 22.356 4.41237 22.356 3.82406 22.356C1.76495 22.356 0 24.1209 0 26.18C0 28.2391 1.76495 30.0041 3.82406 30.0041C5.88317 30.0041 7.64811 28.2391 7.64811 26.18C7.64811 25.5917 7.64811 25.0034 7.35396 24.7092L11.4722 20.591L15.5904 24.7092C15.2962 25.2976 15.2962 25.5917 15.2962 26.18C15.2962 28.2391 17.0612 30.0041 19.1203 30.0041C21.1794 30.0041 22.9443 28.2391 22.9443 26.18C22.9443 24.1209 21.1794 22.356 19.1203 22.356C18.532 22.356 17.9437 22.356 17.6495 22.6501L13.5313 18.5319L18.532 13.5312H43.5354L48.5361 18.5319L44.4179 22.6501C43.8296 22.356 43.5354 22.356 42.9471 22.356C40.888 22.356 39.123 24.1209 39.123 26.18C39.123 28.2391 40.888 30.0041 42.9471 30.0041C45.0062 30.0041 46.7712 28.2391 46.7712 26.18C46.7712 25.5917 46.7712 25.0034 46.477 24.7092L50.5952 20.591L54.7134 24.7092C54.4193 25.2976 54.4193 25.5917 54.4193 26.18C54.4193 28.2391 56.1842 30.0041 58.2433 30.0041C60.3024 30.0041 62.0674 28.2391 62.0674 26.18C62.6557 24.1209 60.5966 22.356 58.5375 22.356ZM11.4722 16.1786L8.53059 13.2371H14.1196L11.4722 16.1786ZM47.9478 13.2371H53.5368L50.5952 16.1786L47.9478 13.2371Z" fill="#00A099"/>
</svg>
