<svg width="23" height="23" viewBox="0 0 23 23" fill="none" xmlns="http://www.w3.org/2000/svg">
<path d="M11.5 0C5.152 0 0 5.152 0 11.5C0 17.848 5.152 23 11.5 23H17.25V20.7H11.5C6.509 20.7 2.3 16.491 2.3 11.5C2.3 6.509 6.509 2.3 11.5 2.3C16.491 2.3 20.7 6.509 20.7 11.5V13.1445C20.7 14.053 19.8835 14.95 18.975 14.95C18.0665 14.95 17.25 14.053 17.25 13.1445V11.5C17.25 8.326 14.674 5.75 11.5 5.75C8.326 5.75 5.75 8.326 5.75 11.5C5.75 14.674 8.326 17.25 11.5 17.25C13.087 17.25 14.536 16.606 15.571 15.5595C16.3185 16.583 17.6065 17.25 18.975 17.25C21.2405 17.25 23 15.41 23 13.1445V11.5C23 5.152 17.848 0 11.5 0ZM11.5 14.95C9.591 14.95 8.05 13.409 8.05 11.5C8.05 9.591 9.591 8.05 11.5 8.05C13.409 8.05 14.95 9.591 14.95 11.5C14.95 13.409 13.409 14.95 11.5 14.95Z" fill="#00A099"/>
</svg>
