<svg width="96" height="94" viewBox="0 0 96 94" fill="none" xmlns="http://www.w3.org/2000/svg">
<path d="M29.0924 4.98949C29.0924 4.56444 29.0924 3.7143 28.6673 3.28925C24.842 4.98945 21.4416 7.1147 18.0413 9.665C18.8913 10.0901 20.1665 10.0901 21.4416 10.0901C25.692 10.5151 29.0924 7.96484 29.0924 4.98949Z" fill="black"/>
<path d="M34.1924 4.13928C35.4675 4.13928 35.8926 4.56436 36.7427 5.8395C37.5927 7.11463 38.8679 8.38973 40.9931 8.38973C43.1183 8.38973 44.3935 7.11463 45.2435 5.8395C46.0936 4.56436 46.5186 4.13928 47.7938 4.13928C49.0689 4.13928 49.494 4.56436 50.3441 5.8395C50.7691 6.26454 51.1941 7.11461 52.0442 7.53965C53.3194 9.23983 55.8696 10.515 59.27 10.515C63.5204 10.515 66.9208 8.38974 66.9208 5.41443C66.9208 4.56434 66.4957 3.71425 66.0707 3.2892C63.0954 2.01407 60.1201 1.16399 56.7197 0.313904C54.1695 0.738949 52.4693 2.4391 51.6192 4.13928C50.7691 3.28919 49.494 2.43913 47.7938 2.43913C45.6686 2.43913 44.3934 3.71429 43.5433 4.98942C42.6932 6.26456 42.2682 6.68958 40.9931 6.68958C39.718 6.68958 39.2929 6.26456 38.4428 4.98942C37.5927 3.71429 36.3176 2.43913 34.1924 2.43913C33.7673 2.43913 33.3423 2.86416 33.3423 3.2892C33.3423 3.71425 33.7673 4.13928 34.1924 4.13928Z" fill="black"/>
<path d="M13.3655 16.0405C14.6407 16.0405 15.0657 16.4656 15.9158 17.7407C16.7658 19.0159 18.041 20.291 20.1662 20.291C22.2914 20.291 23.5666 19.0159 24.4166 17.7407C25.2667 16.4656 25.6918 16.0405 26.9669 16.0405C28.2421 16.0405 28.6671 16.4656 29.5172 17.7407C29.9422 18.1658 30.3673 19.0159 31.2174 19.4409C32.4925 21.1411 35.0428 22.4162 38.4431 22.4162C42.6936 22.4162 46.0939 20.291 46.0939 17.3157C46.0939 14.3404 42.6936 12.2151 38.4431 12.2151C35.0428 12.2151 32.0675 13.9153 31.2174 16.0405C30.3673 15.1904 29.0921 14.3404 27.3919 14.3404C25.2667 14.3404 23.9916 15.6155 23.1415 16.8906C22.2914 18.1657 21.8664 18.5908 20.5913 18.5908C19.3161 18.5908 18.8911 18.1657 18.041 16.8906C17.1909 16.0405 15.9158 14.7654 14.2156 14.3404C13.7906 14.7654 13.3655 15.1905 12.9405 15.6155C12.5154 15.6155 12.9405 16.0405 13.3655 16.0405Z" fill="black"/>
<path d="M60.545 16.4657C59.6949 17.7408 59.2699 18.1658 57.9948 18.1658C56.7197 18.1658 56.2946 17.7408 55.4445 16.4657C54.5944 15.1905 53.3193 13.9154 51.1941 13.9154C50.769 13.9154 50.344 14.3404 50.344 14.7655C50.344 15.1905 50.769 15.6156 51.1941 15.6156C52.4692 15.6156 52.8943 16.0406 53.7444 17.3158C54.5945 18.5909 55.8696 19.866 57.9948 19.866C60.12 19.866 61.3952 18.5909 62.2453 17.3158C63.0953 16.0406 63.5203 15.6156 64.7955 15.6156C66.0706 15.6156 66.4957 16.0406 67.3458 17.3158C67.7708 17.7408 68.1958 18.5909 69.0459 19.0159C70.3211 20.7161 72.8713 21.9913 76.2717 21.9913C80.5221 21.9913 83.9225 19.866 83.9225 16.8907C83.9225 13.9154 80.5221 11.7902 76.2717 11.7902C72.8713 11.7902 69.896 13.4904 69.0459 15.6156C68.1958 14.7655 67.3458 13.9154 65.2206 13.9154C62.6703 13.9154 61.3951 15.1905 60.545 16.4657Z" fill="black"/>
<path d="M7.84018 29.6419C8.69027 28.3667 9.11528 27.9417 10.3904 27.9417C11.6655 27.9417 12.0906 28.3667 12.9407 29.6419C13.3657 30.0669 13.7908 30.917 14.6409 31.3421C15.916 33.0423 18.4663 34.3174 21.8667 34.3174C26.1171 34.3174 29.5174 32.1922 29.5174 29.2169C29.5174 26.2415 26.1171 24.1163 21.8667 24.1163C18.4663 24.1163 15.4909 25.8165 14.6409 27.9417C13.7908 27.0916 12.9407 26.2416 10.8155 26.2416C8.69026 26.2416 7.41513 27.5167 6.56504 28.7918C5.71495 29.6419 5.28988 30.492 4.01475 30.492C3.5897 31.3421 3.58972 31.7671 3.16467 32.6172H3.58974C5.71496 31.7671 6.9901 30.492 7.84018 29.6419Z" fill="black"/>
<path d="M37.1676 29.6419C38.0176 30.917 39.2928 32.1922 41.418 32.1922C43.5432 32.1922 44.8183 30.917 45.6684 29.6419C46.5185 28.3667 46.9436 27.9417 48.2187 27.9417C49.4939 27.9417 49.9189 28.3667 50.7689 29.6419C51.194 30.0669 51.6191 30.917 52.4692 31.3421C53.7443 33.0423 56.2945 34.3174 59.6949 34.3174C63.9453 34.3174 67.3457 32.1922 67.3457 29.2169C67.3457 26.2415 63.9453 24.1163 59.6949 24.1163C56.2945 24.1163 53.3193 25.8165 52.4692 27.9417C51.6191 27.0916 50.3439 26.2416 48.6437 26.2416C46.5185 26.2416 45.2434 27.5167 44.3933 28.7918C43.5432 30.0669 43.1182 30.492 41.8431 30.492C40.5679 30.492 40.1429 30.0669 39.2928 28.7918C38.4427 27.5167 37.1676 26.2416 35.0423 26.2416C34.6173 26.2416 34.1923 26.6666 34.1923 27.0916C34.1923 27.5167 34.6173 27.9417 35.0423 27.9417C35.4674 27.9417 36.3175 28.3667 37.1676 29.6419Z" fill="black"/>
<path d="M81.3727 28.3669C80.5226 29.642 80.0976 30.067 78.8224 30.067C77.5473 30.067 77.1222 29.642 76.2721 28.3669C75.4221 27.0917 74.1469 25.8166 72.0217 25.8166C71.5967 25.8166 71.1716 26.2416 71.1716 26.6667C71.1716 27.0917 71.5967 27.5167 72.0217 27.5167C73.2968 27.5167 73.7219 27.9418 74.572 29.217C75.4221 30.4921 76.6972 31.7672 78.8224 31.7672C80.9477 31.7672 82.2228 30.4921 83.0729 29.217C83.923 27.9418 84.348 27.5167 85.6232 27.5167C86.8983 27.5167 87.3233 27.9418 88.1734 29.217C88.5984 29.642 89.0235 30.4921 89.8736 30.9171C90.7237 32.1922 91.9988 33.0424 93.699 33.4674C92.8489 30.9171 91.9988 28.3669 90.7237 25.8166C90.2986 26.2416 89.8736 27.0917 89.4485 27.5167C88.5984 26.6667 87.7484 25.8166 85.6232 25.8166C83.4979 25.8166 82.2228 27.0917 81.3727 28.3669Z" fill="black"/>
<path d="M8.26477 41.1183C8.26477 38.568 5.2895 36.4427 1.8892 36.0177C1.03912 39.418 0.614136 42.8184 0.614136 46.2188C4.86452 46.2188 8.26477 43.6685 8.26477 41.1183Z" fill="black"/>
<path d="M30.7923 39.8429C29.9422 38.9928 28.6671 38.1427 26.967 38.1427C24.8417 38.1427 23.5666 39.4179 22.7165 40.693C21.8664 41.9681 21.4413 42.3931 20.1662 42.3931C18.8911 42.3931 18.4661 41.9681 17.616 40.693C16.7659 39.4179 15.4907 38.1427 13.3655 38.1427C12.9405 38.1427 12.5154 38.5678 12.5154 38.9928C12.5154 39.4179 12.9405 39.8429 13.3655 39.8429C14.6407 39.8429 15.0657 40.2679 15.9158 41.5431C16.7658 42.8182 18.041 44.0933 20.1662 44.0933C22.2914 44.0933 23.5666 42.8182 24.4167 41.5431C25.2668 40.2679 25.6918 39.8429 26.967 39.8429C28.2421 39.8429 28.6671 40.2679 29.5172 41.5431C29.9422 41.9681 30.3673 42.8182 31.2174 43.2433C32.4925 44.9434 35.0428 46.2186 38.4432 46.2186C42.6936 46.2186 46.094 43.6683 46.094 41.1181C46.094 38.1428 42.6936 36.0175 38.4432 36.0175C34.6178 35.5924 31.6424 37.2927 30.7923 39.8429Z" fill="black"/>
<path d="M83.4974 41.1183C83.4974 38.143 80.0971 36.0177 75.8466 36.0177C72.4463 36.0177 69.471 37.7179 68.6209 39.8431C67.7708 38.993 66.9207 38.1429 64.7955 38.1429C62.6702 38.1429 61.3951 39.4181 60.545 40.6932C59.6949 41.9683 59.2699 42.3933 57.9948 42.3933C56.7197 42.3933 56.2946 41.9683 55.4445 40.6932C54.5944 39.4181 53.3193 38.1429 51.1941 38.1429C50.769 38.1429 50.344 38.568 50.344 38.993C50.344 39.4181 50.769 39.8431 51.1941 39.8431C52.4692 39.8431 52.8943 40.2681 53.7444 41.5433C54.5944 42.8184 55.8696 44.0935 57.9948 44.0935C60.12 44.0935 61.3952 42.8184 62.2452 41.5433C63.0953 40.2681 63.5203 39.8431 64.7955 39.8431C66.0706 39.8431 66.4957 40.2681 67.3458 41.5433C67.7708 41.9683 68.1958 42.8184 69.0459 43.2435C70.321 44.9436 72.8713 46.2188 76.2716 46.2188C80.097 46.2188 83.4974 43.6685 83.4974 41.1183Z" fill="black"/>
<path d="M92.8487 40.268C91.9986 38.9929 90.7235 37.7178 88.5982 37.7178C88.1732 37.7178 87.7482 38.1428 87.7482 38.5678C87.7482 38.9929 88.1732 39.4179 88.5982 39.4179C89.8734 39.4179 90.2984 39.843 91.1485 41.1181C91.9985 41.9682 93.2737 43.2433 94.9739 43.6683C94.9739 42.8183 94.9739 42.3932 94.9739 41.5431C94.1238 41.5431 93.6987 41.1181 92.8487 40.268Z" fill="black"/>
<path d="M12.9403 53.4445C13.3653 53.8696 13.7903 54.7196 14.6404 55.1447C15.9156 56.8449 18.4659 58.1201 21.8662 58.1201C26.1167 58.1201 29.517 55.9948 29.517 53.0195C29.517 50.0442 26.1167 47.9189 21.8662 47.9189C18.4659 47.9189 15.4905 49.6192 14.6404 51.7444C13.7903 50.8943 12.9403 50.0442 10.8151 50.0442C8.68984 50.0442 7.41471 51.3193 6.56462 52.5945C5.71454 53.8696 5.28947 54.2946 4.01434 54.2946C2.7392 54.2946 2.3142 53.8696 1.46411 52.5945C1.46411 53.8696 1.88912 54.7197 1.88912 55.9948C2.31416 56.4199 3.16425 56.8449 4.01434 56.8449C6.13955 56.8449 7.41469 55.5697 8.26477 54.2946C9.11486 53.0195 9.53993 52.5945 10.8151 52.5945C11.6652 51.7444 12.0902 52.1694 12.9403 53.4445Z" fill="black"/>
<path d="M47.7942 51.7444C49.0693 51.7444 49.4944 52.1694 50.3445 53.4445C50.7695 53.8696 51.1945 54.7196 52.0446 55.1447C53.3197 56.8449 55.87 58.1201 59.2703 58.1201C63.5208 58.1201 66.9211 55.9948 66.9211 53.0195C66.9211 50.0442 63.5208 47.9189 59.2703 47.9189C55.87 47.9189 52.8947 49.6192 52.0446 51.7444C51.1945 50.8943 49.9194 50.0442 48.2192 50.0442C46.094 50.0442 44.8189 51.3193 43.9688 52.5945C43.1187 53.8696 42.6936 54.2946 41.4185 54.2946C40.1434 54.2946 39.7184 53.8696 38.8683 52.5945C38.0182 51.3193 36.7431 50.0442 34.6178 50.0442C34.1928 50.0442 33.7677 50.4692 33.7677 50.8942C33.7677 51.3193 34.1928 51.7444 34.6178 51.7444C35.893 51.7444 36.318 52.1694 37.1681 53.4445C38.0182 54.7197 39.2933 55.9948 41.4185 55.9948C43.5437 55.9948 44.8189 54.7197 45.6689 53.4445C46.094 52.1694 46.9441 51.7444 47.7942 51.7444Z" fill="black"/>
<path d="M89.4485 51.3192C88.5984 50.4691 87.7484 49.619 85.6232 49.619C83.4979 49.619 82.2228 50.8941 81.3727 52.1692C80.5226 53.4444 80.0976 53.8694 78.8224 53.8694C77.5473 53.8694 77.1222 53.4444 76.2721 52.1692C75.4221 50.8941 74.1469 49.619 72.0217 49.619C71.5967 49.619 71.1716 50.044 71.1716 50.4691C71.1716 50.8941 71.5967 51.3192 72.0217 51.3192C73.2968 51.3192 73.7219 51.7442 74.572 53.0193C75.4221 54.2944 76.6972 55.5696 78.8224 55.5696C80.9476 55.5696 82.2228 54.2944 83.0729 53.0193C83.923 51.7442 84.348 51.3192 85.6232 51.3192C86.8983 51.3192 87.3233 51.7442 88.1734 53.0193C88.5984 53.4444 89.0235 54.2945 89.8736 54.7195C90.7237 55.9947 92.4239 56.8447 94.124 57.6948C94.9741 54.2945 95.3991 50.8941 95.3991 47.4938C92.4238 47.9188 90.2986 49.619 89.4485 51.3192Z" fill="black"/>
<path d="M2.31396 59.8201C3.16405 62.7954 4.43919 65.7707 5.71431 68.746C7.41448 67.8959 8.26453 66.6208 8.26453 64.9206C8.26453 62.3704 5.7143 60.2452 2.31396 59.8201Z" fill="black"/>
<path d="M22.7165 64.0706C21.8664 65.3458 21.4413 65.7708 20.1662 65.7708C18.8911 65.7708 18.4661 65.3458 17.616 64.0706C16.7659 62.7955 15.4907 61.5204 13.3655 61.5204C12.9405 61.5204 12.5154 61.9454 12.5154 62.3705C12.5154 62.7955 12.9405 63.2206 13.3655 63.2206C14.6407 63.2206 15.0657 63.6456 15.9158 64.9207C16.7658 66.1958 18.041 67.471 20.1662 67.471C22.2914 67.471 23.5666 66.1958 24.4167 64.9207C25.2668 63.6456 25.6918 63.2206 26.967 63.2206C28.2421 63.2206 28.6671 63.6456 29.5172 64.9207C29.9422 65.3457 30.3673 66.1959 31.2174 66.6209C32.4925 68.3211 35.0428 69.5962 38.4432 69.5962C42.6936 69.5962 46.094 67.471 46.094 64.4957C46.094 61.5204 42.6936 59.3951 38.4432 59.3951C35.0428 59.3951 32.0675 61.0953 31.2174 63.2206C30.3673 62.3705 29.0921 61.5204 27.392 61.5204C24.8417 61.5204 23.5666 62.7955 22.7165 64.0706Z" fill="black"/>
<path d="M51.1941 63.6455C52.4692 63.6455 52.8943 64.0706 53.7444 65.3457C54.5945 66.6208 55.8696 67.8959 57.9948 67.8959C60.1201 67.8959 61.3952 66.6208 62.2453 65.3457C63.0954 64.0706 63.5204 63.6455 64.7955 63.6455C66.0707 63.6455 66.4957 64.0706 67.3458 65.3457C67.7709 65.7707 68.1959 66.6208 69.046 67.0458C70.3211 68.746 72.8714 70.0211 76.2717 70.0211C80.5222 70.0211 83.9225 67.8959 83.9225 64.9206C83.9225 61.9453 80.5222 59.8201 76.2717 59.8201C72.8714 59.8201 69.8961 61.5203 69.046 63.6455C68.1959 62.7954 67.3458 61.9453 65.2206 61.9453C63.0954 61.9453 61.8202 63.2205 60.9701 64.4956C60.1201 65.7707 59.695 66.1958 58.4198 66.1958C57.1447 66.1958 56.7197 65.7707 55.8696 64.4956C55.0195 63.2205 53.7444 61.9453 51.6192 61.9453C51.1941 61.9453 50.769 62.3704 50.769 62.7954C49.9189 63.2205 50.344 63.6455 51.1941 63.6455Z" fill="black"/>
<path d="M88.5982 61.5204C88.1732 61.5204 87.7482 61.9455 87.7482 62.3705C87.7482 62.7955 88.1732 63.2205 88.5982 63.2205C89.8734 63.2205 90.2984 63.6456 91.1484 64.9206C91.1484 64.9206 91.1485 64.9207 91.5735 65.3457C91.9986 64.4956 91.9985 64.0706 92.4236 63.2205C91.5735 62.3705 90.7234 61.5204 88.5982 61.5204Z" fill="black"/>
<path d="M29.0918 76.3969C29.0918 73.4216 25.6914 71.2964 21.441 71.2964C18.0407 71.2964 15.0654 72.9966 14.2153 75.1218C13.3652 74.2717 12.5151 73.4216 10.3898 73.4216C9.9648 73.4216 9.11474 73.4216 8.6897 73.8467C9.11474 74.2717 9.5398 75.1218 9.96484 75.5468C9.96484 75.5468 9.9648 75.5468 10.3898 75.5468C11.665 75.5468 12.09 75.9719 12.9401 77.247C13.3652 77.6721 13.7902 78.5221 14.6403 78.9472C15.9154 80.6474 18.4657 81.9225 21.8661 81.9225C25.6915 81.9225 29.0918 79.3722 29.0918 76.3969Z" fill="black"/>
<path d="M52.0446 78.5221C53.3197 80.2223 55.87 81.4974 59.2703 81.4974C63.5208 81.4974 66.9211 79.3722 66.9211 76.3969C66.9211 73.4216 63.5208 71.2964 59.2703 71.2964C55.87 71.2964 52.8947 72.9966 52.0446 75.1218C51.1945 74.2717 49.9194 73.4216 48.2192 73.4216C46.094 73.4216 44.8189 74.6967 43.9688 75.9719C43.1187 77.247 42.6936 77.672 41.4185 77.672C40.1434 77.672 39.7184 77.247 38.8683 75.9719C38.0182 74.6967 36.7431 73.4216 34.6178 73.4216C34.1928 73.4216 33.7677 73.8466 33.7677 74.2717C33.7677 74.6967 34.1928 75.1218 34.6178 75.1218C35.893 75.1218 36.318 75.5468 37.1681 76.8219C38.0182 78.0971 39.2933 79.3722 41.4185 79.3722C43.5437 79.3722 44.8189 78.0971 45.6689 76.8219C46.519 75.5468 46.9441 75.1218 48.2192 75.1218C49.4944 75.1218 49.9194 75.5468 50.7695 76.8219C51.1945 77.672 51.6196 78.097 52.0446 78.5221Z" fill="black"/>
<path d="M81.3728 75.9717C80.5227 77.2468 80.0976 77.6718 78.8225 77.6718C77.5473 77.6718 77.1223 77.2468 76.2722 75.9717C75.4221 74.6965 74.1469 73.4213 72.0217 73.4213C71.5967 73.4213 71.1716 73.8464 71.1716 74.2714C71.1716 74.6965 71.5967 75.1216 72.0217 75.1216C73.2968 75.1216 73.7219 75.5466 74.572 76.8218C75.4221 78.0969 76.6972 79.3721 78.8225 79.3721C80.9477 79.3721 82.2228 78.0969 83.0729 76.8218C83.923 75.5466 84.3481 75.1216 85.6232 75.1216C85.6232 75.1216 85.6232 75.1216 86.0482 75.1216C86.4733 74.6965 86.8983 73.8464 87.3234 73.4213C86.8983 73.4213 86.4733 72.9963 85.6232 72.9963C83.498 73.4214 82.2228 74.6965 81.3728 75.9717Z" fill="black"/>
<path d="M38.0181 83.1976C34.6178 83.1976 31.6425 84.8977 30.7924 87.0229C29.9423 86.1728 28.6672 85.3228 26.967 85.3228C25.2669 85.3228 23.9917 86.1729 23.1416 87.448C23.5666 87.873 24.4168 88.2981 24.8418 88.2981C25.2669 87.873 26.1169 87.448 26.967 87.448C28.2422 87.448 28.6672 87.873 29.5173 89.1481C29.9423 89.5732 30.3674 90.4233 31.2175 90.8483C31.2175 91.2734 31.6425 91.2734 32.0675 91.6984C34.6178 92.5485 37.168 93.3986 40.1433 93.8236C43.5437 93.3986 46.094 91.2734 46.094 88.7231C46.094 85.7478 42.2686 83.1976 38.0181 83.1976Z" fill="black"/>
<path d="M68.6209 87.448C67.7708 86.5979 66.9207 85.7479 64.7955 85.7479C62.6702 85.7479 61.3951 87.0229 60.545 88.2981C59.6949 89.5732 59.2699 89.9983 57.9948 89.9983C56.7197 89.9983 56.2946 89.5732 55.4445 88.2981C54.5944 87.0229 53.3193 85.7479 51.1941 85.7479C50.769 85.7479 50.344 86.1729 50.344 86.5979C50.344 87.023 50.769 87.448 51.1941 87.448C52.4692 87.448 52.8943 87.873 53.7444 89.1481C54.5944 90.4233 55.8696 91.6984 57.9948 91.6984C60.12 91.6984 61.3951 90.4233 62.2452 89.1481C63.0953 87.873 63.5203 87.448 64.7955 87.448C66.0706 87.448 66.4957 87.873 67.3457 89.1481C67.3457 89.5732 67.7708 89.5732 68.1958 89.9983C71.5962 88.2981 74.9965 86.1729 78.3969 83.6226C77.5468 83.6226 77.1217 83.1976 76.2716 83.1976C72.4462 83.1976 69.471 84.8977 68.6209 87.448Z" fill="black"/>
</svg>
