<svg width="47" height="47" viewBox="0 0 47 47" fill="none" xmlns="http://www.w3.org/2000/svg">
<path d="M23.7814 0.229187C11.0301 0.229187 0.829102 10.4302 0.829102 23.1816C0.829102 35.9329 11.0301 46.1339 23.7814 46.1339C36.5327 46.1339 46.7338 35.9329 46.7338 23.1816C46.7338 10.4302 36.5327 0.229187 23.7814 0.229187ZM38.658 38.0581C38.2329 38.4831 37.8079 38.9082 36.9578 38.9082C36.5328 38.9082 35.6826 38.4831 35.2576 38.0581L9.32997 12.1304C8.47989 11.2803 8.47989 9.58015 9.32997 8.73007C10.1801 7.87998 11.8802 7.87998 12.7303 8.73007L38.658 34.6577C39.508 35.5078 39.508 37.208 38.658 38.0581Z" fill="black"/>
</svg>
