<svg width="71" height="72" viewBox="0 0 71 72" fill="none" xmlns="http://www.w3.org/2000/svg">
<path d="M35.3194 0.478027C15.7674 0.478027 0.0407715 16.2046 0.0407715 35.7567C0.0407715 55.3087 15.7674 71.0353 35.3194 71.0353C54.8715 71.0353 70.5981 55.3087 70.5981 35.7567C70.5981 16.2046 54.8715 0.478027 35.3194 0.478027ZM35.3194 64.6597C19.5928 64.6597 6.41643 51.9083 6.41643 35.7567C6.41643 28.956 8.9667 22.5803 12.7921 17.9048L25.9685 31.0812H11.517V40.4322H35.3194L53.1713 58.284C48.4958 62.1094 42.1201 64.6597 35.3194 64.6597ZM57.8468 53.6085L44.6704 40.4322H49.3459V31.0812H35.3194L17.4676 13.2294C22.5681 9.40395 28.5187 6.85369 35.3194 6.85369C51.0461 6.85369 64.2224 19.605 64.2224 35.7567C64.2224 42.5574 61.6722 48.9331 57.8468 53.6085Z" fill="black"/>
<path d="M59.1222 31.0813H51.4714V40.4323H59.1222V31.0813Z" fill="black"/>
<path d="M47.6458 21.7303C44.2455 22.1553 41.2702 21.7303 39.995 20.0301C39.1449 19.18 39.1449 17.9049 39.57 16.6297C39.995 14.9296 39.57 13.6545 39.1449 12.8044C37.4448 10.2541 33.6194 9.82904 33.1943 9.82904C32.7693 9.82904 31.9192 10.2541 31.9192 10.6791C31.9192 11.1042 32.3442 11.9543 32.7693 11.9543C33.6194 11.9543 36.1696 12.8043 37.0197 14.0795C37.4448 14.5045 37.4448 15.3546 37.0197 16.2047C36.1696 18.3299 36.5947 20.0301 37.8698 21.7303C39.57 23.8555 43.3954 24.7056 47.6458 24.2805C52.7463 23.4305 54.0215 28.956 54.0215 28.956C54.0215 29.3811 54.4465 29.8061 54.8716 29.8061C54.8716 29.8061 54.8716 29.8061 55.2966 29.8061C55.7217 29.8061 56.1467 28.956 56.1467 28.531C56.1467 25.5557 53.5964 20.8802 47.6458 21.7303Z" fill="black"/>
</svg>
