<svg width="52" height="84" viewBox="0 0 52 84" fill="none" xmlns="http://www.w3.org/2000/svg">
<path d="M16.017 5.27698H35.569C37.2692 5.27698 38.9694 4.00185 38.9694 2.72675C38.9694 1.45164 37.2692 0.176514 35.569 0.176514H16.017C14.3168 0.176514 12.6167 1.45164 12.6167 2.72675C13.0417 4.00185 14.3168 5.27698 16.017 5.27698Z" fill="black"/>
<path d="M25.3682 55.8572C24.9432 55.8572 24.5181 56.7073 24.5181 57.9824C24.5181 59.2575 24.5181 60.1075 24.9431 60.1075C25.3682 60.1075 25.7932 59.2575 25.7932 57.9824C25.7932 56.7073 25.7933 55.8572 25.3682 55.8572Z" fill="black"/>
<path d="M36.4197 53.732C36.4197 52.4569 34.7195 51.1818 32.1692 50.7567C27.9188 50.3317 27.0687 51.6068 27.0687 52.8819C27.0687 54.157 29.194 55.8572 31.7442 55.8572C34.2945 55.8572 36.4197 55.0071 36.4197 53.732Z" fill="black"/>
<path d="M26.6438 55.8572C26.2187 55.8572 26.2188 56.7073 26.2188 57.9824C26.2188 59.2576 26.6438 60.1077 27.0688 60.1077C27.4939 60.1077 27.4939 59.2576 27.4939 57.9824C27.4939 56.7073 27.0688 55.4321 26.6438 55.8572Z" fill="black"/>
<path d="M48.7458 29.0794L44.0703 26.5292C42.3701 25.6791 41.095 23.5538 41.095 21.8536V15.478C41.095 13.7778 41.9451 12.0776 42.7952 12.0776C43.6453 12.0776 44.4954 10.8025 44.4954 9.5274C44.4954 8.25227 43.2202 6.97711 41.095 6.97711H10.9169C9.2167 6.97711 7.51651 8.25227 7.51651 9.5274C7.51651 10.8025 8.36663 12.0776 9.21672 12.0776C10.0668 12.0776 10.9169 13.7778 10.9169 15.478V21.8536C10.9169 23.5538 9.64175 25.6791 7.94158 26.5292L3.26607 29.0794C1.56589 29.9295 0.290771 32.0547 0.290771 33.7549V80.0846C0.290771 81.7848 1.56592 83.485 3.69114 83.485H48.3208C50.0209 83.485 51.7211 82.2098 51.7211 80.0846V33.7549C51.7211 32.0547 50.446 29.9295 48.7458 29.0794ZM9.21672 36.7302C10.0668 35.8801 11.3419 35.8801 12.192 36.7302C11.3419 35.8801 11.3419 34.605 12.192 33.7549C13.0421 32.9048 14.3172 32.9048 15.1673 33.7549C16.0174 34.605 16.0174 35.8801 15.1673 36.7302C15.1673 36.7302 15.1674 36.7302 14.7423 37.1552L17.7176 40.1305C16.8675 40.5556 15.5924 41.4057 14.7423 42.2558L12.192 39.7055C11.3419 40.5556 10.0668 40.5556 9.21672 39.7055C8.36663 38.8554 8.36663 37.5803 9.21672 36.7302ZM18.1426 61.8077L14.7423 65.2081C15.5924 66.0582 15.5924 67.3333 14.7423 68.1834C13.8922 69.0335 12.617 69.0335 11.7669 68.1834C10.9169 67.3333 10.9169 66.0582 11.7669 65.2081C10.9169 66.0582 9.64174 66.0582 8.79165 65.2081C7.94156 64.358 7.94156 63.0829 8.79165 62.2328C9.64174 61.3827 10.9169 61.3827 11.7669 62.2328C11.7669 62.2328 11.767 62.2328 12.192 62.6579L16.0174 58.8324C16.8675 59.6825 17.7176 60.1076 18.9927 60.5326C18.5677 60.9577 18.1426 61.3827 18.1426 61.8077ZM32.5941 63.5079V62.2328C32.5941 62.2328 32.5941 61.8077 32.1691 61.8077C32.1691 61.8077 31.7441 61.8078 31.7441 62.2328V63.5079H30.4689V62.2328C30.4689 62.2328 30.4689 61.8077 30.0439 61.8077C30.0439 61.8077 29.6189 61.8078 29.6189 62.2328V63.5079H28.3437V62.2328C28.3437 62.2328 28.3437 61.8077 27.9186 61.8077C27.4936 61.8077 27.4936 61.8078 27.4936 62.2328V63.5079H27.0686V62.2328C27.0686 62.2328 27.0685 61.8077 26.6435 61.8077C26.6435 61.8077 26.2185 61.8078 26.2185 62.2328V63.5079H24.9433V62.2328C24.9433 62.2328 24.9433 61.8077 24.5183 61.8077C24.5183 61.8077 24.0933 61.8078 24.0933 62.2328V63.5079H22.8181V62.2328C22.8181 62.2328 22.8181 61.8077 22.393 61.8077C22.393 61.8077 21.968 61.8078 21.968 62.2328V63.5079H20.6929V62.2328C20.6929 62.2328 20.6929 61.8077 20.2678 61.8077C20.2678 61.8077 19.8428 61.8078 19.8428 62.2328V63.5079H18.5677V62.2328C18.5677 62.2328 18.5677 61.8077 18.1426 61.8077C18.1426 61.8077 17.7176 61.8078 17.7176 62.2328V63.5079H18.5677C18.5677 62.2328 18.9927 61.3827 19.4178 60.5326C14.7423 58.4074 11.7669 54.582 11.7669 50.3316C11.7669 43.9559 18.1426 38.8554 25.7934 38.8554C33.4442 38.8554 39.8199 43.9559 39.8199 50.3316C39.8199 54.582 36.8446 58.8325 32.1691 60.5326C32.5941 61.3827 33.0191 62.6579 33.0191 63.5079H32.5941ZM42.7952 65.2081C41.9451 66.0582 40.67 66.0582 39.8199 65.2081C40.67 66.0582 40.67 67.3333 39.8199 68.1834C38.9698 69.0335 37.6947 69.0335 36.8446 68.1834C35.9945 67.3333 35.9945 66.0582 36.8446 65.2081L33.4442 61.8077C33.4442 61.3827 33.4442 61.3827 33.0191 60.9577C33.8692 60.5326 35.1444 59.6825 35.9945 59.2575L39.8199 63.0829C39.8199 63.0829 39.8199 63.0829 40.245 62.6579C41.095 61.8078 42.3702 61.8078 43.2202 62.6579C43.6453 63.0829 43.6453 64.358 42.7952 65.2081ZM42.7952 39.7055C41.9451 40.5556 40.67 40.5556 39.8199 39.7055L37.2696 42.2558C36.4195 41.4057 35.5694 40.5556 34.2943 40.1305L37.2696 37.1552C37.2696 37.1552 37.2696 37.1552 36.8446 36.7302C35.9945 35.8801 35.9945 34.605 36.8446 33.7549C37.6947 32.9048 38.9698 32.9048 39.8199 33.7549C40.67 34.605 40.67 35.8801 39.8199 36.7302C40.67 35.8801 41.9451 35.8801 42.7952 36.7302C43.6453 37.5803 43.6453 38.8554 42.7952 39.7055Z" fill="black"/>
<path d="M19.8431 51.1818C17.2928 51.6069 15.5927 52.882 15.5927 54.1571C15.5927 55.4323 17.7178 56.2823 20.2681 56.2823C22.8184 56.2823 24.9437 54.5821 24.9437 53.307C24.9437 52.0319 24.0936 50.3317 19.8431 51.1818Z" fill="black"/>
</svg>
