<svg width="49" height="84" viewBox="0 0 49 84" fill="none" xmlns="http://www.w3.org/2000/svg">
<path d="M45.0948 0.139282C43.3946 0.139282 41.6944 1.41436 41.6944 3.53957C41.6944 9.49015 35.3188 13.7406 27.668 17.141C30.2182 18.4161 32.7684 19.2661 35.3187 20.9663C42.5445 17.1409 48.4951 11.6154 48.4951 3.53957C48.4951 1.8394 46.795 0.139282 45.0948 0.139282Z" fill="black"/>
<path d="M25.9681 19.6912C16.1922 15.4408 7.26616 11.1904 7.26616 3.96463C7.26616 2.26446 5.99108 0.56427 3.86587 0.56427C1.74065 0.56427 0.465576 1.83941 0.465576 3.96463C0.465576 15.4408 12.3667 20.9664 22.9928 25.6419C32.7688 29.8923 41.6947 34.1427 41.6947 41.3685C41.6947 47.3191 35.3191 51.5695 27.6683 54.9699C30.2185 56.245 32.7688 57.0951 35.319 58.3702C42.5447 54.5448 48.4954 49.0192 48.4954 40.9434C48.4954 29.8923 36.5942 24.3667 25.9681 19.6912Z" fill="black"/>
<path d="M21.2927 65.596C18.7425 64.3209 16.1921 63.4708 13.6418 62.1957C6.41609 66.0211 0.465576 71.5467 0.465576 79.6225C0.465576 81.3226 2.1657 83.0228 3.86588 83.0228C5.56606 83.0228 7.26618 81.7477 7.26618 79.6225C7.26618 73.2468 13.6419 68.9964 21.2927 65.596Z" fill="black"/>
<path d="M25.9681 57.0952C16.1922 52.8447 7.26616 48.5943 7.26616 41.3686C7.26616 35.418 13.6419 31.1675 21.2926 27.7672C18.7424 26.4921 16.1921 25.642 13.6418 24.3668C6.41607 28.1922 0.465576 33.7177 0.465576 41.7936C0.465576 53.2697 12.3667 58.7954 22.9928 63.8959C32.7688 68.1463 41.6947 72.3967 41.6947 79.6225C41.6947 81.3226 42.9699 83.0228 45.0951 83.0228C46.7952 83.0228 48.4954 81.7477 48.4954 79.6225C48.4954 67.7213 36.5942 62.1957 25.9681 57.0952Z" fill="black"/>
<path d="M39.9941 41.3685C39.9941 40.5184 39.1441 39.6683 38.294 39.6683H11.0912C10.2411 39.6683 9.39087 40.5184 9.39087 41.3685C9.39087 42.2186 10.2411 43.0686 11.0912 43.0686H38.294C39.1441 43.4937 39.9941 42.6436 39.9941 41.3685Z" fill="black"/>
<path d="M11.0916 5.66479H38.2945C39.1446 5.66479 39.9946 4.81474 39.9946 3.96466C39.9946 3.11458 39.1446 2.26453 38.2945 2.26453H11.0916C10.2415 2.26453 9.39132 3.11458 9.39132 3.96466C8.96627 4.81474 9.81647 5.66479 11.0916 5.66479Z" fill="black"/>
<path d="M38.294 77.4973H11.0912C10.2411 77.4973 9.39087 78.3474 9.39087 79.1974C9.39087 80.0475 10.2411 80.8976 11.0912 80.8976H38.294C39.1441 80.8976 39.9941 80.0475 39.9941 79.1974C39.9941 78.3474 39.1441 77.4973 38.294 77.4973Z" fill="black"/>
<path d="M31.9187 32.8677H17.0422C16.1921 32.8677 15.342 33.7177 15.342 34.5678C15.342 35.4179 16.1921 36.2681 17.0422 36.2681H31.9187C32.7688 36.2681 33.6189 35.4179 33.6189 34.5678C33.6189 33.7177 32.7688 32.8677 31.9187 32.8677Z" fill="black"/>
<path d="M17.0422 7.78992C16.1921 7.78992 15.342 8.64008 15.342 9.49021C15.342 10.3403 16.1921 11.1904 17.0422 11.1904H31.9187C32.7688 11.1904 33.6189 10.3403 33.6189 9.49021C33.6189 8.64008 32.7688 7.78992 31.9187 7.78992H17.0422Z" fill="black"/>
<path d="M17.0422 46.0439C16.1921 46.0439 15.342 46.8941 15.342 47.7442C15.342 48.5943 16.1921 49.4443 17.0422 49.4443H31.9187C32.7688 49.4443 33.6189 48.5943 33.6189 47.7442C33.6189 46.8941 32.7688 46.0439 31.9187 46.0439H17.0422Z" fill="black"/>
<path d="M15.342 72.3967C15.342 73.2468 16.1921 74.0969 17.0422 74.0969H31.9187C32.7688 74.0969 33.6189 73.2468 33.6189 72.3967C33.6189 71.5466 32.7688 70.6965 31.9187 70.6965H17.0422C16.1921 70.6965 15.342 71.5466 15.342 72.3967Z" fill="black"/>
</svg>
