<svg width="52" height="84" viewBox="0 0 52 84" fill="none" xmlns="http://www.w3.org/2000/svg">
<path d="M16.4549 5.27698H36.007C37.7072 5.27698 39.4073 4.00185 39.4073 2.72675C39.4073 1.45164 38.1322 0.176514 36.007 0.176514H16.4549C14.7548 0.176514 13.0546 1.45164 13.0546 2.72675C13.0546 4.00185 14.3297 5.27698 16.4549 5.27698Z" fill="black"/>
<path d="M24.9558 54.157C23.2556 58.4074 23.2556 58.4074 24.9558 60.1076C26.656 61.8078 26.231 57.1323 26.231 54.582C25.8059 51.6067 25.8059 52.0318 24.9558 54.157Z" fill="black"/>
<path d="M26.6562 54.582C26.6562 57.1323 26.2312 61.8078 27.9314 60.1076C29.6316 58.4074 29.6316 58.4074 27.9314 54.157C26.6562 52.0318 26.2312 51.6067 26.6562 54.582Z" fill="black"/>
<path d="M23.2556 47.7815C21.9805 46.5063 21.5554 46.5063 18.5801 47.3564C15.6048 48.2065 14.7547 48.6316 15.1798 52.032C15.6048 54.5823 16.88 55.0073 19.8553 54.5822C22.4055 54.1572 24.1057 52.457 24.1057 50.7568C24.1057 49.0566 24.5308 49.0566 23.2556 47.7815Z" fill="black"/>
<path d="M48.7583 29.0794L44.0828 26.5292C42.3826 25.6791 41.1075 23.5538 41.1075 21.8536V15.478C41.1075 13.7778 41.9575 12.0776 42.8076 12.0776C43.6577 12.0776 44.5078 10.8025 44.5078 9.5274C44.5078 8.25227 42.8077 6.97711 41.1075 6.97711H10.9293C9.22915 6.97711 7.52896 8.25227 7.52896 9.5274C7.52896 10.8025 8.37909 12.0776 9.22917 12.0776C10.0793 12.0776 10.9293 13.7778 10.9293 15.478V21.8536C10.9293 23.5538 9.65421 25.6791 7.95403 26.5292L3.27852 29.0794C1.57834 29.9295 0.303223 32.0547 0.303223 33.7549V80.0846C0.303223 81.7848 2.00341 83.485 3.70359 83.485H48.3332C50.0334 83.485 51.7336 82.2098 51.7336 80.0846V33.7549C51.7336 32.0547 50.4585 29.9295 48.7583 29.0794ZM37.282 66.4832C37.7071 69.0335 37.7071 69.4586 33.4567 72.0088C29.2062 74.9841 29.6313 74.9841 28.3562 74.9841C27.081 74.9841 26.2309 74.9841 26.2309 74.9841C26.2309 74.9841 24.9558 74.9841 24.1057 74.9841C22.8306 74.9841 23.2556 74.5591 19.0052 72.0088C14.7548 69.0335 14.7547 69.0335 15.1798 66.4832C15.6048 63.933 14.7547 61.3827 14.3297 60.1076C14.3297 60.1076 14.7547 60.5326 16.0298 60.5326C17.305 60.5326 17.7301 60.1076 17.7301 60.1076C17.7301 60.1076 17.73 60.9577 18.5801 62.6579C19.0052 63.933 19.4302 64.358 19.8553 64.7831C19.8553 64.7831 19.8553 65.2081 19.8553 65.6332C19.8553 66.0582 19.8552 66.4832 20.2803 66.4832C20.2803 66.4832 20.2803 66.4832 20.7054 66.4832C20.7054 66.9083 21.1304 67.3333 21.1304 67.3333H21.5554C21.5554 67.7584 21.9805 68.1834 21.9805 68.1834H22.4055C22.4055 68.6084 22.8306 68.6085 23.2556 69.0335H23.6806C23.6806 69.4586 24.1057 69.4585 24.5307 69.4585H24.9558C24.9558 69.8836 25.3808 69.8836 25.8059 69.8836C26.2309 69.8836 26.2309 69.8836 26.2309 69.4585L26.6559 69.8836C27.081 69.8836 27.081 69.4585 27.5061 69.4585H27.9311C28.3561 69.4585 28.3561 69.0335 28.7812 69.0335C28.7812 69.0335 28.7812 69.0335 29.2062 69.0335C29.6313 69.0335 29.6313 68.6084 30.0563 68.1834H30.4814C30.9064 68.1834 30.9064 67.7584 30.9064 67.3333H31.3315C31.7565 67.3333 31.7565 66.9083 31.7565 66.4832C31.7565 66.4832 31.7565 66.4832 32.1815 66.4832C32.6066 66.4832 32.6066 66.0582 32.6066 65.6332C32.6066 65.2081 32.6066 65.2081 32.6066 64.7831C33.0316 64.358 33.4567 63.933 33.8817 62.6579C34.3068 60.9577 34.7318 60.1076 34.7318 60.1076C34.7318 60.1076 35.1568 60.5326 36.432 60.5326C37.7071 60.5326 38.1322 60.1076 38.1322 60.1076C37.7071 61.3827 36.857 63.933 37.282 66.4832ZM21.9805 65.2081C21.9805 66.0582 21.9805 66.4832 21.5554 66.0582C21.1304 66.0582 21.1304 65.6332 21.1304 64.7831C21.1304 63.933 21.1304 63.5079 21.5554 63.5079C21.9805 63.933 21.9805 64.358 21.9805 65.2081ZM21.9805 67.3333C21.9805 68.1834 21.9805 68.1834 21.5554 68.1834C21.1304 68.1834 21.1304 67.7584 21.1304 67.3333C21.1304 66.9083 21.1304 66.4832 21.5554 66.4832C21.9805 66.4832 21.9805 66.4832 21.9805 67.3333ZM21.1304 64.7831C21.1304 65.6332 21.1304 65.6332 20.7054 65.6332C20.2803 65.6332 20.2803 65.2081 20.2803 64.7831C20.2803 63.933 20.2803 63.9329 20.7054 63.9329C21.1304 63.5079 21.1304 63.933 21.1304 64.7831ZM21.1304 66.4832C21.1304 66.9083 21.1304 67.3333 20.7054 67.3333C20.2803 67.3333 20.2803 66.9083 20.2803 66.4832C20.2803 66.0582 20.2803 65.6332 20.7054 65.6332C21.1304 66.0582 21.1304 66.0582 21.1304 66.4832ZM20.2803 64.358C20.2803 65.2081 20.2803 65.2081 19.8553 65.2081C19.4302 65.2081 19.4302 64.7831 19.4302 64.358C19.4302 63.933 19.4302 63.5079 19.8553 63.5079C20.7054 63.5079 20.2803 63.933 20.2803 64.358ZM20.2803 66.0582C20.2803 66.4832 20.2803 66.4832 19.8553 66.4832C19.4302 66.4832 19.4302 66.0582 19.4302 65.6332C19.4302 65.2081 19.4302 64.7831 19.8553 64.7831C20.2803 65.2081 20.2803 65.2081 20.2803 66.0582ZM19.8553 64.358C19.8553 64.7831 19.8552 65.2081 19.4302 64.7831C19.0052 64.358 19.4302 64.358 19.4302 63.9329C19.4302 63.5079 19.4302 63.0829 19.8553 63.0829C19.8553 63.0829 19.8553 63.5079 19.8553 64.358ZM22.4055 66.4832C21.9805 66.0582 21.9805 66.0582 21.9805 65.2081C21.9805 64.358 21.9805 63.9329 22.8306 63.9329C23.2556 63.9329 23.2556 64.358 23.2556 65.2081C23.2556 66.4832 23.2556 66.9083 22.4055 66.4832ZM22.8306 68.6085C22.4055 68.6085 22.4055 68.1834 21.9805 67.3333C21.9805 66.4832 21.9805 66.4832 22.4055 66.4832C22.8305 66.4832 22.8306 66.4832 22.8306 67.3333C23.2556 68.1834 23.2556 68.6085 22.8306 68.6085ZM23.6806 67.3333C24.1057 67.3333 24.5307 67.3333 24.5307 68.1834C24.5307 69.0335 24.5308 69.0335 24.1057 69.0335C23.6807 69.0335 23.6806 68.6084 23.6806 68.1834C23.2556 67.3333 23.2556 66.9083 23.6806 67.3333ZM23.2556 65.6332C23.2556 64.7831 23.2556 63.9329 23.6806 63.9329C24.1057 63.9329 24.1057 64.7831 24.1057 65.6332C24.1057 66.4832 24.1057 67.3333 23.2556 66.9083C23.2556 66.4833 23.2556 66.4832 23.2556 65.6332ZM26.2309 66.4832C26.2309 67.3333 26.2309 67.3333 25.3809 67.3333C24.5308 67.3333 24.5307 67.3333 24.5307 66.4832C24.5307 65.6331 24.5308 64.7831 25.3809 64.7831C26.2309 64.358 26.2309 65.6331 26.2309 66.4832ZM26.2309 68.1834C26.2309 69.0335 25.8059 69.4586 25.3809 69.0335C24.9558 69.0335 24.5307 68.6085 24.5307 67.7584C24.5307 66.9083 24.5307 66.9083 24.9558 66.9083C26.2309 67.3333 26.2309 67.3333 26.2309 68.1834ZM27.081 67.3333C27.5061 67.3333 27.5061 67.3333 27.5061 68.1834C27.5061 69.0335 27.506 69.4585 26.6559 69.4585C26.2309 69.4585 25.8059 69.4585 25.8059 68.6085C26.2309 67.3333 26.2309 67.3333 27.081 67.3333ZM27.081 64.358C27.9311 64.358 27.9311 65.2081 27.9311 66.0582C27.9311 66.9083 27.9311 66.9083 27.081 66.9083C26.2309 66.9083 26.2309 66.9083 26.2309 66.0582C26.2309 65.6331 26.2309 64.358 27.081 64.358ZM28.3562 67.3333C28.7812 67.3333 28.7812 67.3333 28.7812 68.1834C28.7812 69.0335 28.7812 69.0335 28.3562 69.0335C27.9311 69.0335 27.9311 69.0335 27.9311 68.1834C27.9311 67.3333 27.9311 67.3333 28.3562 67.3333ZM28.3562 63.9329C28.7812 63.9329 28.7812 64.7831 28.7812 65.6332C28.7812 66.4832 29.2062 66.9083 28.3562 66.9083C27.5061 67.3333 27.5061 66.4832 27.5061 65.6332C27.9311 64.7831 27.9311 63.9329 28.3562 63.9329ZM29.6313 66.4832C29.2063 66.9083 28.7812 66.4832 28.7812 65.2081C28.7812 63.933 28.7812 63.9329 29.2062 63.9329C29.6313 63.9329 29.6313 64.358 30.0563 65.2081C30.0563 66.0582 30.4814 66.0582 29.6313 66.4832ZM30.0563 67.3333C30.0563 68.1834 30.0563 68.1834 29.2062 68.6085C28.7812 68.6085 28.7812 68.6085 28.7812 67.7584C28.7812 66.9083 28.7812 66.9083 29.2062 66.9083C30.0563 66.4833 30.0563 66.4832 30.0563 67.3333ZM32.6066 64.7831C32.1816 65.2081 32.1815 64.7831 32.1815 64.358C32.1815 63.933 32.1815 63.5079 32.1815 63.5079C32.1815 63.5079 32.6066 63.5079 32.6066 64.358C33.0316 64.358 33.0316 64.358 32.6066 64.7831ZM32.6066 65.6332C32.6066 66.0582 32.6066 66.4832 32.1815 66.4832C31.7565 66.4832 31.7565 66.4832 31.7565 66.0582C31.7565 65.6331 31.7565 65.6331 32.1815 65.2081C33.0316 64.783 33.0316 65.2081 32.6066 65.6332ZM32.1815 65.2081C31.7565 65.2081 31.7565 65.2081 31.7565 64.358C31.7565 63.933 31.7565 63.5079 31.7565 63.5079C32.1816 63.5079 32.1815 63.933 32.1815 64.358C32.6066 64.7831 32.6066 64.783 32.1815 65.2081ZM32.1815 66.4832C32.1815 66.9083 31.7565 67.3333 31.7565 67.3333C31.3315 67.3333 31.3315 67.3333 31.3315 66.4832C31.3315 66.0582 31.3315 65.6332 31.7565 65.6332C32.1816 65.6332 32.1815 65.6331 32.1815 66.4832ZM31.3315 65.6332C30.9064 65.6332 30.9064 65.6332 30.9064 64.7831C30.9064 63.933 30.9064 63.933 30.9064 63.5079C31.3314 63.5079 31.3315 63.933 31.3315 64.358C31.7565 65.2081 31.7565 65.2081 31.3315 65.6332ZM30.9064 66.9083C30.9064 67.3333 30.4814 67.7584 30.4814 67.7584C30.0563 67.7584 30.0563 67.7584 30.0563 66.9083C30.0563 66.0582 30.0563 66.0582 30.4814 66.0582C31.3315 66.0582 31.3314 66.4833 30.9064 66.9083ZM30.4814 66.0582C30.0563 66.0582 30.0563 65.6331 30.0563 65.2081C30.0563 64.358 30.0563 63.9329 30.0563 63.9329C30.4814 63.9329 30.4814 63.933 30.4814 65.2081C31.3315 65.6331 30.9064 66.0582 30.4814 66.0582ZM38.9823 35.8801C38.1322 34.605 37.2821 34.1799 36.857 34.1799C37.2821 34.1799 38.1322 34.605 38.9823 35.8801C39.4073 37.5803 38.5572 40.1305 37.7071 43.1058C36.857 46.0811 37.7071 46.9312 38.5572 49.0564C39.4073 50.7566 38.9822 52.0317 39.4073 53.3069C39.4073 53.3069 39.4073 53.7319 39.8323 54.157C41.5325 55.8572 39.4073 57.5573 37.7071 59.2575C36.0069 60.9577 34.3068 58.4074 32.6066 60.1076C31.3315 61.3827 31.7565 62.2328 32.1815 62.6579C32.1815 62.6579 32.1816 62.6579 31.7565 62.6579C31.7565 62.6579 31.3315 62.6578 31.3315 63.0829C31.3315 63.0829 31.3314 63.0829 30.9064 63.0829C30.4813 63.0829 30.4814 63.0829 30.4814 63.5079C30.4814 63.5079 30.4814 63.5079 30.0563 63.5079C30.0563 63.5079 29.6313 63.5079 29.6313 63.9329L29.2062 63.5079C28.7812 63.5079 28.7812 63.9329 28.7812 63.9329C28.7812 63.5079 28.3562 63.5079 28.3562 63.5079H27.9311V63.9329C27.9311 63.5079 27.5061 63.5079 27.081 63.5079H26.6559C26.6559 63.5079 26.656 63.9329 26.2309 63.9329C26.2309 63.9329 26.2309 63.5079 25.8059 63.5079H25.3809C24.9558 63.5079 24.9558 63.5079 24.5307 63.9329V63.5079H24.1057C23.6807 63.5079 23.6806 63.5079 23.6806 63.9329C23.6806 63.5079 23.6807 63.5079 23.2556 63.5079C22.8306 63.5079 22.8306 63.5079 22.8306 63.9329C22.8306 63.9329 22.8305 63.5079 22.4055 63.5079H21.9805C21.9805 63.5079 21.9805 63.0829 21.5554 63.0829H21.1304C21.1304 63.0829 21.1304 62.6579 20.7054 62.6579C20.7054 62.6579 20.7053 62.6579 20.2803 62.6579C20.7053 62.2328 21.1304 60.9577 19.8553 60.1076C18.5801 58.8324 16.88 61.3827 14.7548 59.2575C13.0546 57.5573 10.9294 55.4321 12.6295 54.157C12.6295 53.7319 13.0545 53.7319 13.0545 53.3069C13.4796 52.0317 13.0545 50.7566 13.9046 49.0564C14.7547 46.9312 15.6048 46.0811 14.7548 43.1058C13.9047 40.1305 13.4796 37.5803 13.9046 35.8801C14.7547 34.1799 15.1798 34.1799 15.6048 33.7549C15.1798 33.7549 14.3297 34.1799 13.4796 35.455C12.6295 36.7302 13.4796 40.1305 13.9046 42.6808C14.3297 45.231 14.7547 46.5062 13.0545 48.6314C12.6295 49.4815 12.2045 49.9065 12.2045 50.3316C11.3544 48.6314 10.5043 46.5062 10.5043 42.2558C10.0793 33.7549 18.5801 26.9542 26.6559 26.9542C34.7318 26.9542 43.2327 33.7549 42.8076 42.2558C42.8076 46.5062 41.5325 48.6314 41.1075 50.3316C41.1075 49.9065 40.6824 49.0565 40.2574 48.6314C38.5572 46.0811 38.9822 45.231 39.4073 42.6808C38.9822 40.5555 39.8323 37.5803 38.9823 35.8801Z" fill="black"/>
<path d="M33.4564 47.3564C30.4811 46.5063 30.056 46.5063 28.7809 47.7815C27.5057 49.0566 27.9308 49.0566 27.9308 50.7568C27.9308 52.457 29.2059 53.7321 32.1812 54.5822C34.7315 55.0073 36.4317 55.0073 36.8567 52.032C37.2818 48.6316 36.4317 48.6315 33.4564 47.3564Z" fill="black"/>
</svg>
