<svg width="88" height="77" viewBox="0 0 88 77" fill="none" xmlns="http://www.w3.org/2000/svg">
<path d="M67.2835 36.5062C56.2323 36.5062 47.3064 45.4322 47.3064 56.4833C47.3064 67.5344 56.2323 76.4603 67.2835 76.4603C78.3346 76.4603 87.2605 67.5344 87.2605 56.4833C87.2605 45.4322 78.3346 36.5062 67.2835 36.5062ZM73.2341 51.3828C70.6838 51.3828 68.5586 49.2575 68.5586 46.7073C68.5586 44.157 70.6838 42.0318 73.2341 42.0318C75.7843 42.0318 77.9096 44.157 77.9096 46.7073C77.9096 49.2575 75.7843 51.3828 73.2341 51.3828Z" fill="black"/>
<path d="M15.8534 25.03C7.77751 25.03 0.976807 31.8307 0.976807 39.9066C0.976807 47.9824 7.35247 54.7831 15.8534 54.7831C23.9292 54.7831 30.7299 47.9824 30.7299 39.9066C30.3048 31.4057 23.9292 25.03 15.8534 25.03ZM21.3789 36.5062C19.6787 36.5062 18.4036 35.2311 18.4036 33.5309C18.4036 31.8307 19.6787 30.5556 21.3789 30.5556C23.0791 30.5556 24.3542 31.8307 24.3542 33.5309C24.3542 35.2311 23.0791 36.5062 21.3789 36.5062Z" fill="black"/>
<path d="M52.4069 19.5043C57.5074 19.5043 61.7578 15.2539 61.7578 10.1534C61.7578 5.05287 57.5074 0.802429 52.4069 0.802429C47.3063 0.802429 43.0559 5.05287 43.0559 10.1534C43.0559 15.2539 47.3063 19.5043 52.4069 19.5043ZM55.3822 2.92765C56.6573 2.92765 57.9324 3.77774 57.9324 5.47792C57.9324 7.17809 57.0824 8.02817 55.3822 8.02817C54.1071 8.02817 52.8319 7.17809 52.8319 5.47792C52.8319 3.77774 54.1071 2.92765 55.3822 2.92765Z" fill="black"/>
<path d="M31.1545 43.7318L30.3044 46.2821L46.0311 52.6577L48.1563 46.2821L31.1545 43.7318Z" fill="black"/>
<path d="M43.9065 16.104L43.0564 14.8289L25.6296 27.1551L29.03 30.9805L43.9065 16.104Z" fill="black"/>
<path d="M54.9573 19.9295L57.5075 37.3563L64.7333 35.2311L56.6575 19.5045L54.9573 19.9295Z" fill="black"/>
</svg>
