<svg width="55" height="93" viewBox="0 0 55 93" fill="none" xmlns="http://www.w3.org/2000/svg">
<path d="M30.2438 2.11279H37.0445C37.4695 2.11279 37.4695 1.68771 37.4695 1.68771V0.837614C37.4695 0.412559 37.0445 0.412598 37.0445 0.412598H30.2438C29.8188 0.412598 29.8188 0.837614 29.8188 0.837614V1.68771C29.3937 2.11277 29.8188 2.11279 30.2438 2.11279Z" fill="black"/>
<path d="M25.1435 30.1655C28.5439 30.1655 31.0941 27.6153 31.0941 24.215C31.0941 20.8147 28.5439 18.2644 25.1435 18.2644C21.7432 18.2644 19.1929 20.8147 19.1929 24.215C19.1929 27.6153 21.7432 30.1655 25.1435 30.1655ZM25.1435 22.5148C25.9936 22.5148 26.8437 23.365 26.8437 24.215C26.8437 25.0651 25.9936 25.9152 25.1435 25.9152C24.2934 25.9152 23.4433 25.0651 23.4433 24.215C23.4433 23.365 23.8684 22.5148 25.1435 22.5148Z" fill="black"/>
<path d="M25.9937 25.4902C25.5686 25.4902 25.1436 25.0651 25.1436 24.64C24.7185 24.215 24.2934 23.79 24.2934 23.79C23.8683 24.2151 23.8683 25.0651 24.2934 25.4902C24.7185 25.9152 25.1435 25.9152 25.9937 25.4902Z" fill="black"/>
<path d="M25.9931 25.0649C26.4181 24.6399 26.4181 23.7899 25.568 23.3649C25.143 22.9399 24.293 22.9399 23.8679 23.3649C24.293 23.3649 24.718 23.79 24.718 24.215C25.5681 24.64 25.9931 24.6399 25.9931 25.0649Z" fill="black"/>
<path d="M20.4677 40.3667C22.5929 40.3667 24.2931 38.6665 24.2931 36.5413C24.2931 34.416 22.5929 32.7158 20.4677 32.7158C18.3425 32.7158 16.6423 34.416 16.6423 36.5413C16.6423 38.6665 18.3425 40.3667 20.4677 40.3667ZM20.4677 34.8411C21.3178 34.8411 22.1679 35.6912 22.1679 36.5413C22.1679 37.3914 21.3178 38.2414 20.4677 38.2414C19.6176 38.2414 18.7676 37.3914 18.7676 36.5413C18.7676 35.6912 19.6176 34.8411 20.4677 34.8411Z" fill="black"/>
<path d="M21.3177 37.3913C20.8927 37.3913 20.4677 36.9664 20.4677 36.5414C20.0426 36.1164 19.6176 35.6913 19.6176 35.6913C19.1926 36.1163 19.1926 36.9663 19.6176 37.3913C20.0427 37.8163 20.4677 37.8163 21.3177 37.3913Z" fill="black"/>
<path d="M21.3176 37.3914C21.7427 36.9663 21.7427 36.1162 21.3176 35.6911C20.8926 35.266 20.0425 35.266 19.6174 35.6911C20.0425 35.6911 20.4675 36.1162 20.4675 36.5413C20.8926 36.5413 21.3176 36.9663 21.3176 37.3914Z" fill="black"/>
<path d="M19.1923 73.0952C19.1923 71.82 17.9172 70.5448 16.6421 70.5448C15.3669 70.5448 14.0918 71.82 14.0918 73.0952C14.0918 74.3703 15.3669 75.6454 16.6421 75.6454C18.3422 75.6454 19.1923 74.7954 19.1923 73.0952Z" fill="black"/>
<path d="M17.9177 70.545C18.3428 69.2698 18.7678 68.4197 19.1929 67.9946H18.7679C18.3428 68.4197 17.9177 69.2698 17.9177 70.545Z" fill="black"/>
<path d="M15.3675 70.9698C14.9424 69.6948 14.0923 68.8447 14.0923 68.4197C14.0923 68.4197 13.6672 68.4197 13.6672 68.8447C13.6672 68.8447 14.5174 69.6948 15.3675 70.9698Z" fill="black"/>
<path d="M17.9177 70.5448C18.7678 69.2697 19.1929 68.4196 19.6179 67.9945C19.6179 67.9945 19.1929 67.9945 19.1929 67.5695C18.7678 68.4195 18.3428 69.6947 17.9177 70.5448Z" fill="black"/>
<path d="M18.3423 70.9698C19.1924 70.1198 19.6174 69.2698 20.0424 68.8447C20.0424 68.8447 19.6174 68.8447 19.6174 68.4197C19.1924 68.8447 18.7673 69.6948 18.3423 70.9698Z" fill="black"/>
<path d="M18.7676 71.3948C19.6177 70.5447 20.4678 70.1197 21.3179 69.6946C21.3179 69.6946 21.3179 69.2695 20.8929 69.2695C20.4678 69.6946 19.6177 70.5447 18.7676 71.3948Z" fill="black"/>
<path d="M17.0676 70.5448C17.4927 69.2697 17.4927 68.4195 17.9177 67.5695H17.4927C17.4927 67.9945 17.0676 69.2697 17.0676 70.5448Z" fill="black"/>
<path d="M18.3423 70.9698C19.1924 70.1198 20.0424 69.2698 20.4675 68.8447C20.4675 68.8447 20.0424 68.8447 20.0424 68.4197C19.6174 69.2697 19.1924 70.1198 18.3423 70.9698Z" fill="black"/>
<path d="M15.7921 70.545C15.3671 69.2698 14.9421 68.4197 14.9421 67.9946H14.5171C14.5171 68.4197 15.3671 69.2698 15.7921 70.545Z" fill="black"/>
<path d="M17.0671 70.5448C17.0671 69.2697 17.4921 68.4195 17.4921 67.5695H17.0671C16.642 67.9945 16.642 69.2697 17.0671 70.5448Z" fill="black"/>
<path d="M19.1929 71.8201C20.468 71.395 21.3182 70.545 21.7432 70.545C21.7432 70.545 21.7432 70.12 21.3181 70.12C20.8931 70.12 20.043 70.97 19.1929 71.8201Z" fill="black"/>
<path d="M15.3675 70.545C14.9424 69.2698 14.5174 68.4197 14.0923 67.9946C14.0923 67.9946 13.6672 67.9947 13.6672 68.4197C14.0923 68.8448 14.9424 69.6949 15.3675 70.545Z" fill="black"/>
<path d="M16.2172 70.5448C15.7921 69.2697 15.7921 68.4195 15.7921 67.5695H15.3671C15.3671 68.4195 15.3671 69.2697 16.2172 70.5448C15.7921 70.5448 15.7921 70.5448 16.2172 70.5448Z" fill="black"/>
<path d="M16.6421 70.5448C16.6421 69.2697 16.6421 68.4195 16.6421 67.5695H16.217C16.217 67.9945 16.2171 69.2697 16.6421 70.5448Z" fill="black"/>
<path d="M16.2172 70.5448C16.2172 69.2697 16.2171 68.4195 15.7921 67.5695H15.3671C15.7921 68.4195 15.7921 69.2697 16.2172 70.5448Z" fill="black"/>
<path d="M17.4923 70.545C17.9173 69.2698 18.3423 68.4197 18.3423 67.9946H17.9173C17.9173 68.4197 17.4923 69.2698 17.4923 70.545Z" fill="black"/>
<path d="M14.0924 74.3704C12.8172 74.7954 11.9671 75.2205 11.542 75.2205V75.6455C11.9671 75.2204 12.8172 74.7954 14.0924 74.3704Z" fill="black"/>
<path d="M14.0919 73.9452C12.8167 74.3702 11.9667 74.3702 11.1166 74.3702V74.7953C11.9667 74.7953 12.8167 74.3702 14.0919 73.9452Z" fill="black"/>
<path d="M14.0924 72.2449C12.8172 71.8199 11.9671 71.395 11.542 70.97V71.3949C11.9671 71.3949 12.8172 71.8199 14.0924 72.2449Z" fill="black"/>
<path d="M14.0924 72.2449C12.8172 71.8199 11.9671 71.3948 11.542 71.3948V71.8199C11.9671 72.2449 12.8172 72.2449 14.0924 72.2449C14.0924 72.67 14.0924 72.67 14.0924 72.2449Z" fill="black"/>
<path d="M19.6174 73.9452C20.8926 74.3702 21.7426 74.7953 22.1677 74.7953V74.3702C21.7426 74.3702 20.8926 74.3702 19.6174 73.9452Z" fill="black"/>
<path d="M18.7676 75.2205C19.6177 76.0705 20.0428 76.9205 20.4678 77.3455L20.8929 76.9204C20.4679 76.4954 19.6177 76.0705 18.7676 75.2205Z" fill="black"/>
<path d="M14.5171 75.2205C13.667 76.0705 12.8169 76.9204 12.3918 76.9204L12.8169 77.3455C13.2419 76.9205 14.092 76.0705 14.5171 75.2205Z" fill="black"/>
<path d="M19.6174 72.6702C20.8926 72.2451 21.7426 72.2451 22.5927 72.2451V71.8199C21.7426 71.8199 20.4675 72.2451 19.6174 72.6702Z" fill="black"/>
<path d="M19.1929 71.8201C20.468 71.395 21.3182 70.9701 21.7432 70.545C21.7432 70.545 21.7432 70.12 21.3181 70.12C21.3181 70.545 20.468 71.395 19.1929 71.8201Z" fill="black"/>
<path d="M19.6174 73.0952C20.8926 73.0952 21.7426 73.0952 22.5927 73.0952V72.6702C21.7426 72.6702 20.8926 73.0952 19.6174 73.0952Z" fill="black"/>
<path d="M19.6174 72.6702C20.8926 72.6702 21.7426 72.6701 22.5927 72.2451V71.8199C21.7426 72.245 20.8926 72.6702 19.6174 72.6702Z" fill="black"/>
<path d="M19.1929 72.2449C20.468 71.8199 21.3182 71.3949 21.7432 71.3949V70.97C21.3182 71.395 20.468 71.8199 19.1929 72.2449Z" fill="black"/>
<path d="M14.9426 71.3948C14.0925 70.5447 13.2424 69.6946 13.2424 69.2695L12.8174 69.6946C12.8174 69.6946 13.6675 70.5447 14.9426 71.3948C14.5175 71.3948 14.9426 71.3948 14.9426 71.3948Z" fill="black"/>
<path d="M18.7676 71.3948C19.6177 70.5447 20.4679 69.6946 20.8929 69.6946L20.4678 69.2695C20.0428 69.6946 19.6177 70.1196 18.7676 71.3948Z" fill="black"/>
<path d="M19.1929 74.3704C20.468 74.7954 21.3182 75.2204 21.7432 75.6455V75.2205C21.7432 74.7955 20.468 74.3704 19.1929 74.3704Z" fill="black"/>
<path d="M17.9177 75.6453C18.3428 76.9204 18.7678 77.7705 19.1929 78.1956C19.1929 78.1956 19.6179 78.1955 19.6179 77.7705C19.1929 77.7705 18.7678 76.9204 17.9177 75.6453Z" fill="black"/>
<path d="M17.0676 76.0704C17.0676 77.3456 17.0677 78.1957 17.4927 79.0458H17.9177C17.4927 78.1957 17.4927 77.3456 17.0676 76.0704Z" fill="black"/>
<path d="M17.4923 76.0704C17.9173 77.3455 18.3423 78.1956 18.3423 78.6206H18.7674C18.7674 77.7705 18.3424 76.9204 17.4923 76.0704C17.9173 75.6453 17.9173 75.6453 17.4923 76.0704Z" fill="black"/>
<path d="M17.4923 76.0704C17.9173 77.3456 17.9173 78.1957 17.9173 79.0458H18.3423C18.3423 78.1957 17.9173 76.9205 17.4923 76.0704Z" fill="black"/>
<path d="M16.2172 76.0704C15.7921 77.3456 15.7921 78.1957 15.3671 79.0458H15.7921C16.2171 78.1957 16.2172 77.3456 16.2172 76.0704Z" fill="black"/>
<path d="M16.6421 76.0704C16.6421 77.3456 16.217 78.1957 16.217 79.0458H16.6421C16.6421 78.1957 16.6421 77.3456 16.6421 76.0704Z" fill="black"/>
<path d="M15.7926 76.0704C15.3675 77.3456 14.9425 78.1957 14.9425 78.6207H15.3676C15.7926 78.1957 15.7926 77.3456 15.7926 76.0704Z" fill="black"/>
<path d="M16.6423 76.0704C16.6423 77.3456 16.6423 78.1957 16.6423 79.0458H17.0673C17.0673 78.1957 17.0673 77.3456 16.6423 76.0704C17.0673 76.0704 17.0673 76.0704 16.6423 76.0704Z" fill="black"/>
<path d="M18.3423 75.6453C18.7673 76.9204 19.6174 77.7705 19.6174 78.1956C19.6174 78.1956 20.0424 78.1955 20.0424 77.7705C19.6174 77.3454 19.1924 76.4954 18.3423 75.6453Z" fill="black"/>
<path d="M19.6174 73.52C20.8926 73.945 21.7426 73.9451 22.5927 74.3701V73.9451C21.7426 73.9451 20.8926 73.945 19.6174 73.52Z" fill="black"/>
<path d="M19.6174 73.52C20.8926 73.52 21.7426 73.9452 22.5927 73.9452V73.52C21.7426 73.0949 20.8926 73.52 19.6174 73.52Z" fill="black"/>
<path d="M19.1929 74.3704C20.468 75.2205 21.3182 75.6455 21.7432 75.6455C21.7432 75.6455 21.7432 75.2205 22.1682 75.2205C21.3181 75.2205 20.468 74.7954 19.1929 74.3704Z" fill="black"/>
<path d="M18.3423 75.2205C19.1924 76.0705 19.6174 76.9205 20.0424 77.7705C20.0424 77.7705 20.4675 77.7706 20.4675 77.3456C20.0424 76.9206 19.1924 76.4955 18.3423 75.2205Z" fill="black"/>
<path d="M18.7676 74.7953C19.6177 75.6454 20.4678 76.4955 20.8929 76.9205C20.8929 76.9205 20.8928 76.4955 21.3179 76.4955C20.8928 76.0704 20.0427 75.6454 18.7676 74.7953Z" fill="black"/>
<path d="M19.1929 74.7953C20.043 75.6454 20.8931 76.0704 21.3181 76.4955C21.3181 76.4955 21.3182 76.0704 21.7432 76.0704C20.8931 75.6453 20.043 75.2203 19.1929 74.7953Z" fill="black"/>
<path d="M14.0919 72.6702C12.8167 72.2451 11.9667 72.245 11.1166 71.8199V72.2451C11.5416 72.6701 12.8167 72.6702 14.0919 72.6702Z" fill="black"/>
<path d="M14.9426 70.9698C14.0925 70.1198 13.6675 69.2697 13.2424 68.4197C13.2424 68.4197 12.8174 68.4197 12.8174 68.8447C13.2424 69.2698 14.0925 70.1198 14.9426 70.9698Z" fill="black"/>
<path d="M14.0919 73.0952C12.8167 73.0952 11.9667 72.6702 11.1166 72.6702V73.0952C11.5416 73.0952 12.8167 73.0952 14.0919 73.0952Z" fill="black"/>
<path d="M14.0919 73.52C12.8167 73.52 11.9667 73.52 11.1166 73.9451V74.3701C11.5416 74.3701 12.8167 73.945 14.0919 73.52Z" fill="black"/>
<path d="M14.0919 73.52C12.8167 73.52 11.9667 73.52 11.1166 73.52V73.9451C11.5416 73.52 12.8167 73.52 14.0919 73.52Z" fill="black"/>
<path d="M14.5168 71.3948C13.6668 70.5447 12.8167 69.6946 12.3916 69.2695C12.3916 69.2695 12.3916 69.6946 11.9666 69.6946C12.8166 70.1197 13.6668 70.5447 14.5168 71.3948Z" fill="black"/>
<path d="M14.5168 71.8201C13.6668 70.97 12.8167 70.545 12.3916 70.12C12.3916 70.12 12.3916 70.545 11.9666 70.545C12.3916 70.545 13.2417 70.97 14.5168 71.8201Z" fill="black"/>
<path d="M14.0919 71.8199C12.8167 70.9698 11.9666 70.5448 11.5416 70.5448C11.5416 70.5448 11.5416 70.9699 11.1166 70.9699C11.9667 70.9699 13.2418 71.3949 14.0919 71.8199Z" fill="black"/>
<path d="M14.942 75.6453C14.0919 76.4954 13.6669 77.3454 13.2418 77.7705C13.2418 77.7705 13.6668 77.7705 13.6668 78.1956C14.0919 77.7705 14.5169 76.4954 14.942 75.6453C15.367 75.6453 15.367 75.6453 14.942 75.6453Z" fill="black"/>
<path d="M15.7921 75.6453C15.3671 76.9204 14.9421 77.7705 14.5171 78.1956H14.9421C14.9421 78.1956 15.3671 76.9204 15.7921 75.6453Z" fill="black"/>
<path d="M15.3669 75.6453C14.5168 76.9204 14.0918 77.7705 14.0918 78.1955C14.0918 78.1955 14.5168 78.1956 14.5168 78.6206C14.5168 77.7705 14.9419 76.9204 15.3669 75.6453Z" fill="black"/>
<path d="M14.9426 75.2205C14.0925 76.0705 13.2424 76.9206 12.8174 77.3456C12.8174 77.3456 13.2424 77.3455 13.2424 77.7705C13.6675 77.3455 14.0925 76.4955 14.9426 75.2205Z" fill="black"/>
<path d="M14.5168 74.7953C13.2417 75.2203 12.3916 76.0704 11.9666 76.0704C11.9666 76.0704 11.9666 76.4955 12.3916 76.4955C12.3916 76.0704 13.2417 75.6454 14.5168 74.7953Z" fill="black"/>
<path d="M14.5168 74.7953C13.6668 75.6454 12.8166 76.0704 11.9666 76.4955C11.9666 76.4955 11.9666 76.9205 12.3916 76.9205C12.8167 76.4955 13.6668 76.0704 14.5168 74.7953Z" fill="black"/>
<path d="M14.0924 74.3704C12.8172 74.7954 11.9671 75.2204 11.542 75.6455C11.542 75.6455 11.542 76.0706 11.9671 76.0706C12.3921 75.6455 13.2423 75.2205 14.0924 74.3704Z" fill="black"/>
<path d="M31.0937 24.2149C31.0937 26.3402 29.8186 28.4653 28.1184 29.3154V42.4919C28.1184 42.917 28.5434 42.917 28.5434 42.917H38.3194C38.7444 42.917 38.7444 42.4919 38.7444 42.4919V20.8145C38.7444 20.3894 38.3194 20.3894 38.3194 20.3894H29.8185C30.6686 21.6645 31.0937 22.9398 31.0937 24.2149Z" fill="black"/>
<path d="M36.1944 19.9647C36.6195 19.9647 36.6195 19.5396 36.6195 19.5396V2.96291C36.6195 2.53787 36.1944 2.53784 36.1944 2.53784H31.094C30.669 2.53784 30.6689 2.96291 30.6689 2.96291V19.5396C30.6689 19.9647 31.094 19.9647 31.094 19.9647H36.1944Z" fill="black"/>
<path d="M16.217 60.3439V62.044C16.217 62.4691 16.6421 62.4691 16.6421 62.4691H52.3458C52.7708 62.4691 52.7709 62.044 52.7709 62.044V60.3439C52.7709 59.9188 52.3458 59.9188 52.3458 59.9188H16.6421C16.6421 59.9188 16.217 59.9188 16.217 60.3439Z" fill="black"/>
<path d="M39.1695 66.7195C39.5946 66.7195 39.5946 66.2944 39.5946 66.2944V63.7442C39.5946 63.3191 39.1695 63.3191 39.1695 63.3191H26.4182C25.9931 63.3191 25.9932 63.7442 25.9932 63.7442V66.2944C25.9932 66.7195 26.4182 66.7195 26.4182 66.7195H39.1695Z" fill="black"/>
<path d="M41.7196 67.9945C41.7196 67.5695 41.2945 67.5695 41.2945 67.5695H25.143C24.7179 67.5695 24.7179 67.9945 24.7179 67.9945V69.2696C24.7179 69.6947 25.143 69.6947 25.143 69.6947H41.2945C41.7196 69.6947 41.7196 69.2696 41.7196 69.2696V67.9945Z" fill="black"/>
<path d="M28.9683 48.0175L29.3933 49.2927C29.3933 49.7177 29.8184 49.7178 30.2434 49.7178L46.8201 44.1921C47.2452 44.1921 47.2452 43.7672 47.2452 43.3421L46.8201 42.0669C46.8201 41.6419 46.3951 41.6418 45.97 41.6418L29.3933 47.1675C28.9683 47.1675 28.9683 47.5925 28.9683 48.0175Z" fill="black"/>
<path d="M36.1945 43.7668H31.094C30.669 43.7668 30.6689 44.1919 30.6689 44.1919V46.7422L37.0446 44.617V44.1919C36.6195 43.7669 36.6195 43.7668 36.1945 43.7668Z" fill="black"/>
<path d="M38.3195 49.2927C37.8945 49.2927 37.8945 49.7178 37.8945 49.7178C37.8945 49.7178 38.3195 50.1429 38.3195 49.7178L40.4447 48.8677C40.8697 48.8677 40.8698 48.4426 40.8698 48.4426C40.8698 48.4426 40.4447 48.0175 40.0197 48.4426L38.3195 49.2927Z" fill="black"/>
<path d="M42.1451 47.5926L46.8205 44.1922C47.2455 44.1922 46.8205 43.7672 46.8205 44.1922L30.2438 49.7178C29.8188 49.7178 29.8188 49.7178 30.2438 49.7178H35.7694C36.1944 49.7178 36.6194 49.7178 37.0445 49.7178L41.2949 48.4426C41.72 48.0175 42.1451 47.5926 42.1451 47.5926Z" fill="black"/>
<path d="M54.0463 87.1217H5.59133C5.16629 87.1217 5.16626 87.5468 5.16626 87.5468V91.7972C5.16626 92.2223 5.59133 92.2223 5.59133 92.2223H54.4714C54.8965 92.2223 54.8965 91.7972 54.8965 91.7972V87.5468C54.8965 87.1217 54.4714 87.1217 54.0463 87.1217Z" fill="black"/>
<path d="M31.094 55.6683H35.7695C36.1945 55.6683 36.1945 55.2433 36.1945 55.2433V53.1181C36.1945 52.693 35.7695 52.693 35.7695 52.693H31.094C30.669 52.693 30.6689 53.1181 30.6689 53.1181V55.2433L31.094 55.6683Z" fill="black"/>
<path d="M35.7695 57.3687H31.094C30.669 57.3687 30.6689 57.3687 30.6689 57.7937L31.094 58.2188H35.7695C36.1945 58.2188 36.1945 58.2187 36.1945 57.7937C36.1945 57.3687 36.1945 57.3687 35.7695 57.3687Z" fill="black"/>
<path d="M37.0446 56.5184C37.0446 56.0933 36.6196 55.6683 36.6196 55.6683H31.094C30.669 55.6683 30.6689 56.0934 30.6689 56.0934C30.6689 56.5185 31.094 56.5184 31.094 56.5184H36.6196C36.6196 56.9434 37.0446 56.9434 37.0446 56.5184Z" fill="black"/>
<path d="M29.8191 51.4179C29.8191 51.843 30.2442 51.843 30.2442 51.843H36.6199C37.0449 51.843 37.0449 51.4179 37.0449 51.4179V50.5677C37.0449 50.1426 36.6199 50.1426 36.6199 50.1426H30.2442C29.8191 50.1426 29.8191 50.5677 29.8191 50.5677V51.4179ZM36.6199 50.1426C37.0449 50.1426 37.0449 50.1426 36.6199 50.1426L37.0449 51.4179V50.1426H36.6199ZM36.1948 50.1426C36.1948 50.1426 36.6198 50.1426 36.1948 50.1426L36.6199 51.4179V50.1426H36.1948ZM35.3447 50.1426C35.3447 50.1426 35.7697 50.1426 35.3447 50.1426C35.7697 50.1426 35.7697 50.1426 35.3447 50.1426L35.7698 51.4179V50.1426H35.3447ZM34.9196 50.1426C35.3447 50.1426 35.3447 50.1426 34.9196 50.1426L35.3447 51.4179V50.1426H34.9196ZM34.4946 50.1426C34.9197 50.1426 34.9197 50.1426 34.4946 50.1426L34.9196 51.4179V50.1426H34.4946ZM34.0696 50.1426C34.0696 50.1426 34.4946 50.1426 34.0696 50.1426L34.4946 51.4179V50.1426H34.0696ZM33.2195 50.1426C33.2195 50.1426 33.6445 50.1426 33.2195 50.1426C33.6445 50.1426 33.6445 50.1426 33.2195 50.1426L33.6445 51.4179V50.1426H33.2195ZM32.7944 50.1426C33.2194 50.1426 33.2194 50.1426 32.7944 50.1426L33.2195 51.4179V50.1426H32.7944ZM32.3694 50.1426C32.3694 50.1426 32.7944 50.1426 32.3694 50.1426L32.7944 51.4179V50.1426H32.3694ZM31.9443 50.1426L32.3694 51.4179V50.1426H31.9443ZM31.0942 50.1426C31.5193 50.1426 31.5193 50.1426 31.0942 50.1426L31.5193 51.4179V50.1426H31.0942ZM30.6692 50.1426C31.0942 50.1426 31.0942 50.1426 30.6692 50.1426L31.0942 51.4179V50.1426H30.6692ZM30.2442 50.1426C30.2442 50.1426 30.6692 50.1426 30.2442 50.1426L30.6692 51.4179V50.1426H30.2442Z" fill="black"/>
<path d="M47.6708 46.7424L44.2704 49.2926C43.8454 49.2926 43.8454 49.7176 44.2704 50.1426L45.5455 51.8428C45.5455 52.2679 45.9706 52.2679 46.3957 51.8428L49.796 49.2926C50.2211 49.2926 50.2211 48.8675 49.796 48.4425L48.5209 46.7424C48.0959 46.3173 47.6708 46.3173 47.6708 46.7424Z" fill="black"/>
<path d="M50.6462 50.5677L47.2459 53.118C46.8208 53.118 46.8208 53.5431 46.8208 53.5431H47.2459L50.6462 50.9928C51.0712 50.9928 51.0712 50.5677 51.0712 50.5677C51.0712 50.5677 51.0712 50.5677 50.6462 50.5677Z" fill="black"/>
<path d="M45.5454 53.118C45.9705 53.5431 45.9705 53.5431 46.3956 53.5431L50.6461 50.1427C51.0711 50.1427 51.0711 49.7177 50.6461 49.2927C50.6461 48.8676 50.221 48.8676 49.7959 49.2927L45.5454 52.693V53.118Z" fill="black"/>
<path d="M41.7196 48.8676L42.1447 49.7177C42.1447 50.1428 42.5697 50.1428 42.9948 49.7177L48.0953 45.8922C48.5203 45.8922 48.5203 45.4673 48.0953 45.0422L47.6702 44.1921C47.6702 43.767 47.2452 43.767 46.8201 44.1921L41.7196 48.0174C41.7196 48.4425 41.7196 48.4425 41.7196 48.8676ZM47.2452 44.1921L48.0953 45.4673C48.0953 45.4673 48.0953 45.4672 48.0953 45.8922C48.0953 45.8922 48.0953 45.8922 47.6702 45.8922L47.2452 44.1921C47.2452 44.6171 47.2452 44.1921 47.2452 44.1921ZM46.8201 44.6171L47.6702 45.8922C47.6702 45.8922 47.6702 45.8922 47.6702 46.3173C47.6702 46.3173 47.6702 46.3173 47.2452 46.3173L46.8201 44.6171ZM46.3951 45.0422L47.2452 46.3173C47.2452 46.3173 47.2452 46.3173 47.2452 46.7424C47.2452 46.7424 47.2452 46.7424 46.8201 46.7424L46.3951 45.0422ZM45.9701 45.4673C45.9701 45.0422 45.9701 45.0422 45.9701 45.4673L46.8201 46.7424C46.8201 46.7424 46.8201 46.7424 46.8201 47.1674C46.8201 47.1674 46.8202 47.1674 46.3951 47.1674L45.9701 45.4673ZM45.545 45.4673L46.3951 46.7424C46.3951 46.7424 46.3951 46.7424 46.3951 47.1674C46.3951 47.1674 46.3951 47.1674 45.9701 47.1674L45.545 45.4673C45.545 45.8923 45.545 45.8923 45.545 45.4673ZM45.12 45.8922L45.9701 47.1674C45.9701 47.1674 45.9701 47.1675 45.9701 47.5925C45.9701 47.5925 45.97 47.5925 45.545 47.5925L45.12 45.8922C45.12 46.3173 45.12 45.8922 45.12 45.8922ZM44.6949 46.3173L45.545 47.5925C45.545 47.5925 45.545 47.5924 45.545 48.0174C45.545 48.0174 45.545 48.0174 45.12 48.0174L44.6949 46.3173ZM44.2699 46.7424L45.12 48.0174C45.12 48.0174 45.12 48.0175 45.12 48.4425C45.12 48.4425 45.12 48.4425 44.6949 48.4425L44.2699 46.7424C43.8449 46.7424 44.2699 46.7424 44.2699 46.7424ZM43.8448 46.7424L44.6949 48.0174C44.6949 48.0174 44.6949 48.0175 44.6949 48.4425C44.6949 48.4425 44.6949 48.4425 44.2699 48.4425L43.8448 46.7424C43.4198 47.1674 43.8448 47.1674 43.8448 46.7424ZM43.4198 47.1674L44.2699 48.4425C44.2699 48.4425 44.2699 48.4425 44.2699 48.8676C44.2699 48.8676 44.2699 48.8676 43.8448 48.8676L43.4198 47.1674C42.9947 47.5925 42.9947 47.1674 43.4198 47.1674ZM42.9948 47.5925L43.8448 48.8676C43.8448 48.8676 43.8448 48.8676 43.8448 49.2926C43.8448 49.2926 43.8448 49.2926 43.4198 49.2926L42.9948 47.5925C42.5697 47.5925 42.5697 47.5925 42.9948 47.5925ZM42.5697 48.0174L43.4198 49.2926C43.4198 49.2926 43.4198 49.2927 43.4198 49.7177C43.4198 49.7177 43.4198 49.7177 42.9948 49.7177L42.5697 48.0174C42.1446 48.0174 42.1446 48.0174 42.5697 48.0174ZM42.1447 48.4425L42.9948 49.2926C42.9948 49.2926 42.9948 49.2927 42.9948 49.7177C42.9948 49.7177 42.9947 49.7177 42.5697 49.7177L42.1447 48.4425C41.7196 48.4425 41.7196 48.4425 42.1447 48.4425C42.1447 48.0175 42.1447 48.0175 42.1447 48.4425Z" fill="black"/>
<path d="M25.5686 86.6965H41.2952V79.0458H25.5686V86.6965ZM40.4452 79.4708C40.4452 79.4708 40.8702 79.4708 40.4452 79.4708C40.8702 79.4708 40.8702 79.4708 40.4452 79.4708L40.8702 85.8465V79.4708H40.4452ZM40.0201 79.4708C40.0201 79.4708 40.4452 79.4708 40.0201 79.4708L40.4452 85.8465V79.4708H40.0201ZM39.17 79.4708C39.5951 79.4708 39.5951 79.4708 39.17 79.4708L39.5951 85.8465V79.4708H39.17ZM38.3199 79.4708C38.745 79.4708 38.745 79.4708 38.3199 79.4708L38.745 85.8465V79.4708H38.3199ZM37.8949 79.4708C37.8949 79.4708 38.32 79.4708 37.8949 79.4708L38.3199 85.8465V79.4708H37.8949ZM37.0448 79.4708C37.4698 79.4708 37.4698 79.4708 37.0448 79.4708L37.4699 85.8465V79.4708H37.0448ZM36.1947 79.4708C36.6198 79.4708 36.6198 79.4708 36.1947 79.4708L36.6198 85.8465V79.4708H36.1947ZM35.3446 79.4708C35.3446 79.4708 35.7697 79.4708 35.3446 79.4708C35.7697 79.4708 35.7697 79.4708 35.3446 79.4708L35.7697 85.8465V79.4708H35.3446ZM34.9196 79.4708C34.9196 79.4708 35.3446 79.4708 34.9196 79.4708L35.3446 85.8465V79.4708H34.9196ZM34.0695 79.4708C34.4945 79.4708 34.4945 79.4708 34.0695 79.4708L34.4946 85.8465V79.4708H34.0695ZM33.2194 79.4708C33.2194 79.4708 33.6445 79.4708 33.2194 79.4708C33.6445 79.4708 33.6445 79.4708 33.2194 79.4708L33.6445 85.8465V79.4708H33.2194ZM32.7943 79.4708C32.7943 79.4708 33.2194 79.4708 32.7943 79.4708L33.2194 85.8465V79.4708H32.7943ZM31.9443 79.4708C32.3693 79.4708 32.3693 79.4708 31.9443 79.4708L32.3693 85.8465V79.4708H31.9443ZM31.0942 79.4708C31.5192 79.4708 31.5192 79.4708 31.0942 79.4708L31.5193 85.8465V79.4708H31.0942ZM30.2441 79.4708C30.2441 79.4708 30.6692 79.4708 30.2441 79.4708C30.6692 79.4708 30.6692 79.4708 30.2441 79.4708L30.6691 85.8465V79.4708H30.2441ZM29.819 79.4708C29.819 79.4708 30.2441 79.4708 29.819 79.4708L30.2441 85.8465V79.4708H29.819ZM28.969 79.4708C29.394 79.4708 29.394 79.4708 28.969 79.4708L29.394 85.8465V79.4708H28.969ZM28.1189 79.4708C28.1189 79.4708 28.5439 79.4708 28.1189 79.4708C28.5439 79.4708 28.5439 79.4708 28.1189 79.4708L28.5439 85.8465V79.4708H28.1189ZM27.6938 79.4708C27.6938 79.4708 28.1189 79.4708 27.6938 79.4708L28.1189 85.8465V79.4708H27.6938ZM26.8437 79.4708C27.2688 79.4708 27.2688 79.4708 26.8437 79.4708L27.2688 85.8465V79.4708H26.8437ZM25.9937 79.4708C26.4187 79.4708 26.4187 79.4708 25.9937 79.4708L26.4187 85.8465V79.4708H25.9937Z" fill="black"/>
<path d="M33.6445 77.3455C30.6692 77.3455 27.6938 77.7705 27.6938 78.6206H40.0201C39.1701 77.7705 36.6198 77.3455 33.6445 77.3455Z" fill="black"/>
<path d="M23.4431 58.6436C23.018 58.6436 23.0181 58.6436 23.0181 59.0686C23.0181 59.4936 23.4431 59.4937 23.4431 59.4937H24.2932C24.7182 59.4937 24.7183 59.4936 24.7183 59.0686C24.7183 58.6436 24.2932 58.6436 24.2932 58.6436H23.4431Z" fill="black"/>
<path d="M25.1429 56.5183H23.0177C22.5927 56.5183 22.5927 56.9434 22.5927 56.9434V58.2186C22.5927 58.6437 23.0177 58.6436 23.0177 58.6436H25.1429C25.568 58.6436 25.5679 58.2186 25.5679 58.2186V56.9434C25.5679 56.5183 25.568 56.5183 25.1429 56.5183ZM23.0177 58.2186C22.5927 58.2186 22.5927 58.2186 23.0177 58.2186L22.5927 56.5183V58.2186H23.0177ZM23.4427 58.2186C23.0177 58.2186 23.0177 58.2186 23.4427 58.2186L23.0177 56.5183V58.2186H23.4427ZM23.8678 58.2186C23.4427 58.2186 23.4427 58.2186 23.8678 58.2186L23.4427 56.5183V58.2186H23.8678ZM24.2928 58.2186C23.8678 58.2186 23.8678 58.2186 24.2928 58.2186L23.8678 56.5183V58.2186H24.2928ZM24.7179 58.2186C24.2928 58.2186 24.2928 58.2186 24.7179 58.2186L24.2928 56.5183V58.2186H24.7179ZM25.1429 58.2186C24.7179 58.2186 24.7179 58.2186 25.1429 58.2186L24.7179 56.5183V58.2186H25.1429ZM25.5679 58.2186C25.1429 58.2186 25.1429 58.2186 25.5679 58.2186L25.1429 56.5183V58.2186H25.5679Z" fill="black"/>
<path d="M26.8435 57.7936L25.1433 58.6436C25.1433 58.6436 25.1433 58.6436 25.1433 59.0687C25.1433 59.0687 25.1433 59.0687 25.5683 59.0687L26.8435 57.7936C27.2685 58.2186 29.8187 58.6436 32.7941 59.0687C33.2191 59.0687 33.6442 59.0687 33.6442 59.0687C34.4943 59.0687 34.9193 59.4938 35.3443 59.4938C36.1944 59.4938 36.6195 59.0687 37.4696 58.6436C37.4696 58.6436 37.8946 58.2187 38.3196 58.2187C38.3196 58.2187 38.3196 58.2186 38.3196 57.7936C38.3196 57.7936 38.3197 57.7936 37.8946 57.7936C37.4696 57.7936 37.4695 58.2187 37.0445 58.2187C35.3443 59.0688 35.3443 59.0687 33.2191 58.6436C32.7941 58.6436 32.7941 58.6436 32.369 58.6436C29.3937 58.2186 26.8435 57.7936 26.8435 57.7936Z" fill="black"/>
<path d="M23.8682 86.6963V62.8939C23.8682 62.8939 18.3426 62.8939 17.0675 62.8939C15.7923 62.8939 15.7923 62.4689 15.7923 61.6188C15.7923 61.1937 15.7923 61.1937 15.7923 61.1937C15.7923 61.1937 11.1169 59.4935 10.2668 52.6929C9.41672 45.8922 13.2421 42.0668 17.0675 42.0668C20.8929 42.0668 27.2686 42.0668 27.2686 42.0668V29.7406C26.4185 30.1656 25.5683 30.5907 24.2932 30.5907C20.8928 30.5907 17.9175 27.6154 17.9175 24.2151C17.9175 23.365 17.9176 22.5149 18.3426 22.0898C14.5172 24.2151 9.84174 27.6153 5.5913 35.2661C-4.60975 52.2678 0.490801 69.2695 16.6425 86.6963H23.8682ZM20.4678 32.2908C22.593 32.2908 24.7183 33.991 24.7183 36.5413C24.7183 38.6665 23.0181 40.7917 20.4678 40.7917C18.3426 40.7917 16.2174 39.0915 16.2174 36.5413C16.2174 34.4161 17.9176 32.2908 20.4678 32.2908ZM10.6918 73.095C10.6918 69.6946 13.2421 67.1443 16.6425 67.1443C20.0428 67.1443 22.593 69.6946 22.593 73.095C22.593 76.4953 20.0428 79.0456 16.6425 79.0456C13.2421 79.4706 10.6918 76.4953 10.6918 73.095Z" fill="black"/>
<path d="M11.1172 79.8958C9.84205 83.721 10.2671 86.6963 10.2671 86.6963H16.6428C16.6428 86.6963 15.7927 85.8462 14.0925 84.1461C12.8174 82.0209 11.1172 79.8958 11.1172 79.8958Z" fill="black"/>
</svg>
