<svg width="37" height="94" viewBox="0 0 37 94" fill="none" xmlns="http://www.w3.org/2000/svg">
<path d="M4.24196 17.4285L7.64226 17.0035C7.21722 12.753 10.1926 8.50258 14.443 8.07754L14.0179 4.67719C8.06731 5.10223 3.39187 11.0529 4.24196 17.4285Z" fill="black"/>
<path d="M18.6934 0.00183105C8.49229 0.00183105 0.416504 6.80254 0.416504 15.3034V46.7566V78.6349C0.416504 87.1358 8.49229 93.9366 18.6934 93.9366C28.8944 93.9366 36.9703 87.1358 36.9703 78.6349V46.7566V15.3034C36.9703 6.80254 28.8944 0.00183105 18.6934 0.00183105ZM23.7939 89.261L23.3689 85.8607C27.6193 85.4357 30.5946 81.1852 30.1696 76.9348L33.5699 76.5097C34.42 82.8854 30.1696 88.411 23.7939 89.261ZM35.6951 46.7566C35.6951 50.582 27.6193 53.9824 18.2683 53.9824C8.91731 53.9824 0.841574 50.5821 0.841574 46.3316V14.8784C0.841574 6.80252 8.49227 0.426869 18.2683 0.426869C27.6193 0.426869 35.6951 6.80252 35.6951 14.8784V46.7566Z" fill="black"/>
</svg>
