<svg width="32" height="108" viewBox="0 0 32 108" fill="none" xmlns="http://www.w3.org/2000/svg">
<path d="M8.60487 32.4039V74.0582H0.954077C0.529034 74.0582 0.104004 74.4833 0.104004 74.9083C0.104004 75.3334 0.529034 75.7584 0.954077 75.7584H9.45494V105.511H2.65429C2.22925 105.511 1.80415 105.937 1.80415 106.362C1.80415 106.787 2.22925 107.212 2.65429 107.212H29.432C29.857 107.212 30.2821 106.787 30.2821 106.362C30.2821 105.937 29.857 105.511 29.432 105.511H22.6313V75.7584H31.1322C31.5572 75.7584 31.9822 75.3334 31.9822 74.9083C31.9822 74.4833 31.5572 74.0582 31.1322 74.0582H23.4814V32.4039C23.4814 31.9789 23.0563 31.5538 22.6313 31.5538H21.3562C20.9311 28.5785 20.5061 25.6032 20.5061 22.6279C19.656 22.6279 18.3809 22.6279 17.5308 22.6279V1.37571L16.2557 0.100586V22.6279C15.4056 22.6279 14.1305 22.6279 13.2804 22.6279C12.8553 25.6032 12.4302 28.5785 12.4302 31.5538H10.305C9.02988 31.1288 8.60487 31.5538 8.60487 32.4039ZM17.1057 104.661C17.1057 105.086 16.6807 105.511 16.2557 105.511C15.8306 105.511 15.4056 105.086 15.4056 104.661V77.4586C15.4056 77.0335 15.8306 76.6085 16.2557 76.6085C16.6807 76.6085 17.1057 77.0335 17.1057 77.4586V104.661ZM22.2062 73.6332H20.9311V53.2311H22.2062V73.6332ZM10.7301 33.254H21.7812V51.1059H10.7301V33.254ZM10.7301 53.2311H12.0052V73.6332H10.7301V53.2311Z" fill="black"/>
</svg>
