<svg width="25" height="84" viewBox="0 0 25 84" fill="none" xmlns="http://www.w3.org/2000/svg">
<path d="M22.4198 79.9983H13.9189V64.6967H17.7443C21.1447 64.6967 23.6949 62.1465 23.6949 58.7461V25.1676C23.6949 21.7673 21.1447 19.217 17.7443 19.217H13.9189V3.49038L10.5185 0.0900269V19.642H6.69316C3.29281 19.642 0.742575 22.1923 0.742575 25.5927V59.1711C0.742575 62.5715 3.29281 65.1218 6.69316 65.1218H10.5185V80.4234H2.01765C1.16757 80.4234 0.317505 81.2734 0.317505 82.1235C0.317505 82.9736 1.16757 83.8237 2.01765 83.8237H22.8448C23.6949 83.8237 24.545 82.9736 24.545 82.1235C24.1199 80.8484 23.2698 79.9983 22.4198 79.9983ZM13.9189 42.5944H20.2945V59.1711C20.2945 60.4463 19.0195 61.7214 17.7443 61.7214H13.9189V42.5944ZM10.0935 61.2964H6.26809C4.99296 61.2964 3.71787 60.0212 3.71787 58.7461V42.1694H10.0935V61.2964Z" fill="black"/>
</svg>
