<svg width="68" height="61" viewBox="0 0 68 61" fill="none" xmlns="http://www.w3.org/2000/svg">
<path d="M59.1834 16.5926H50.2575C50.2575 7.24162 42.6067 0.0158691 33.6808 0.0158691C24.3298 0.0158691 17.1041 7.66667 17.1041 16.5926H8.17811C3.92767 16.5926 0.102295 19.9929 0.102295 24.6684V52.7213C0.102295 56.9718 3.50262 60.7972 8.17811 60.7972H59.6085C63.859 60.7972 67.6843 57.3968 67.6843 52.7213V24.6684C67.2593 19.9929 63.4339 16.5926 59.1834 16.5926ZM33.2558 4.26631C40.0565 4.26631 45.157 9.79188 45.157 16.1675H21.3545C21.3545 9.79188 26.8801 4.26631 33.2558 4.26631ZM46.8572 42.9453C46.8572 43.3704 46.4321 43.7954 46.0071 43.7954H38.7814C38.3563 43.7954 37.9312 44.2205 37.9312 44.6455V51.8712C37.9312 52.2963 37.5062 52.7213 37.0811 52.7213H30.2805C29.8554 52.7213 29.4303 52.2963 29.4303 51.8712V44.6455C29.4303 44.2205 29.0053 43.7954 28.5803 43.7954H21.3545C20.9295 43.7954 20.5044 43.3704 20.5044 42.9453V36.1446C20.5044 35.7196 20.9295 35.2945 21.3545 35.2945H28.5803C29.0053 35.2945 29.4303 34.8695 29.4303 34.4444V27.2187C29.4303 26.7937 29.8554 26.3686 30.2805 26.3686H37.0811C37.5062 26.3686 37.9312 26.7937 37.9312 27.2187V34.0194C37.9312 34.4444 38.3563 34.8695 38.7814 34.8695H46.0071C46.4321 34.8695 46.8572 35.2945 46.8572 35.7196V42.9453Z" fill="black"/>
</svg>
