<svg width="40" height="91" viewBox="0 0 40 91" fill="none" xmlns="http://www.w3.org/2000/svg">
<path d="M31.7072 27.2294C31.7072 24.254 31.7071 22.9789 32.5572 22.9789C33.4073 22.9789 33.4073 22.5538 33.4073 20.4286C33.4073 18.3034 33.4073 17.8784 32.5572 17.8784C31.7071 17.8784 31.2821 17.0283 32.5572 17.0283C33.8324 17.0283 33.8323 17.0283 33.4073 14.478C33.4073 11.9278 32.9823 4.70199 32.9823 2.57677C32.9823 0.451551 31.7072 0.876622 29.5819 0.876622C27.4567 0.876622 20.231 0.876622 20.231 0.876622C20.231 0.876622 13.0053 0.876622 10.88 0.876622C8.75482 0.876622 7.47968 0.451551 7.47968 2.57677C7.47968 4.70199 7.05461 11.9278 7.05461 14.478C7.05461 17.0283 7.0546 17.0283 7.90468 17.0283C9.17982 17.0283 8.75477 17.8784 7.90468 17.8784C7.0546 17.8784 7.05461 18.3034 7.05461 20.4286C7.05461 22.5538 7.0546 22.9789 7.90468 22.9789C8.75477 22.9789 8.75482 24.254 8.75482 27.2294C8.75482 30.2047 0.678955 30.2047 0.678955 41.2558C0.678955 52.732 0.678955 73.1341 0.678955 79.9348C0.678955 87.1606 2.80416 90.1359 7.90468 90.1359C13.0052 90.1359 20.231 90.1359 20.231 90.1359C20.231 90.1359 27.4567 90.1359 32.5572 90.1359C37.6578 90.1359 39.783 86.7355 39.783 79.9348C39.783 72.7091 39.783 52.307 39.783 41.2558C39.783 30.2047 31.7072 30.2047 31.7072 27.2294ZM30.8571 2.1517C31.2821 2.1517 31.2821 2.57677 31.2821 2.57677C31.7071 6.82722 31.7072 11.0777 32.1322 15.3281C32.1322 15.7531 31.7072 15.7532 31.7072 15.7532C31.2821 15.7532 31.2821 15.3281 31.2821 15.3281C30.857 11.0777 30.8571 6.82722 30.432 2.57677C30.432 2.57677 30.432 2.1517 30.8571 2.1517ZM28.7319 2.1517C29.1569 2.1517 29.1569 2.57677 29.1569 2.57677C29.5819 6.82722 29.582 11.0777 30.007 15.3281C30.007 15.7531 29.5819 15.7532 29.5819 15.7532C29.1569 15.7532 29.1569 15.3281 29.1569 15.3281C29.1569 11.0777 28.7319 6.82722 28.7319 2.57677C28.3068 2.57677 28.3068 2.1517 28.7319 2.1517ZM26.6066 2.1517C27.0317 2.1517 27.0317 2.57677 27.0317 2.57677C27.0317 6.82722 27.4567 11.0777 27.4567 15.3281C27.4567 15.7531 27.0317 15.7532 27.0317 15.7532C26.6066 15.7532 26.6066 15.3281 26.6066 15.3281C26.6066 11.0777 26.1816 6.82722 26.1816 2.57677C26.1816 2.57677 26.1816 2.1517 26.6066 2.1517ZM24.4814 2.1517C24.9065 2.1517 24.9064 2.57677 24.9064 2.57677C24.9064 6.82722 25.3315 11.0777 25.3315 15.3281C25.3315 15.7531 24.9064 15.7532 24.9064 15.7532C24.4814 15.7532 24.4814 15.3281 24.4814 15.3281C24.4814 11.0777 24.4814 6.82722 24.0564 2.57677C24.0564 2.57677 24.0564 2.1517 24.4814 2.1517ZM22.3562 2.1517C22.7813 2.1517 22.7812 2.57677 22.7812 2.57677C22.7812 6.82722 22.7812 11.0777 22.7812 15.3281C22.7812 15.7531 22.3562 15.7532 22.3562 15.7532C21.9312 15.7532 21.9311 15.3281 21.9311 15.3281C21.9311 11.0777 21.9311 6.82722 21.9311 2.57677C21.9311 2.57677 21.9312 2.1517 22.3562 2.1517ZM19.8059 2.57677C19.8059 2.15173 20.231 2.1517 20.231 2.1517C20.656 2.1517 20.656 2.57677 20.656 2.57677C20.656 6.82722 20.656 11.0777 20.656 15.3281C20.656 15.7531 20.231 15.7532 20.231 15.7532L19.8059 15.3281C19.3809 11.0777 19.3809 6.82722 19.8059 2.57677ZM17.2557 2.57677C17.2557 2.15173 17.6807 2.1517 17.6807 2.1517C18.1057 2.1517 18.1058 2.57677 18.1058 2.57677C18.1058 6.82722 18.1058 11.0777 18.1058 15.3281C18.1058 15.7531 17.6807 15.7532 17.6807 15.7532C17.2557 15.7532 17.2557 15.3281 17.2557 15.3281C17.2557 11.0777 17.2557 6.82722 17.2557 2.57677ZM15.1305 2.57677C15.1305 2.15173 15.5555 2.1517 15.5555 2.1517C15.9805 2.1517 15.9806 2.57677 15.9806 2.57677C15.9806 6.82722 15.9805 11.0777 15.5555 15.3281C15.5555 15.7531 15.1305 15.7532 15.1305 15.7532C14.7054 15.7532 14.7054 15.3281 14.7054 15.3281C15.1305 11.0777 15.1305 6.82722 15.1305 2.57677ZM13.0053 2.57677C13.0053 2.15173 13.4303 2.1517 13.4303 2.1517C13.8553 2.1517 13.8553 2.57677 13.8553 2.57677C13.8553 6.82722 13.4303 11.0777 13.4303 15.3281C13.4303 15.7531 13.0053 15.7532 13.0053 15.7532C12.5802 15.7532 12.5802 15.3281 12.5802 15.3281C12.5802 11.0777 13.0053 6.82722 13.0053 2.57677ZM10.88 2.57677C10.88 2.15173 11.305 2.1517 11.305 2.1517C11.7301 2.1517 11.7301 2.57677 11.7301 2.57677C11.7301 6.82722 11.305 11.0777 11.305 15.3281C11.305 15.7531 10.88 15.7532 10.88 15.7532C10.455 15.7532 10.455 15.3281 10.455 15.3281C10.455 11.0777 10.88 6.82722 10.88 2.57677ZM8.32975 15.7532C7.90471 15.7532 7.90468 15.3281 7.90468 15.3281C8.32973 11.0777 8.32978 6.82722 8.75482 2.57677C8.75482 2.15173 9.17983 2.1517 9.17983 2.1517C9.60487 2.1517 9.6049 2.57677 9.6049 2.57677C9.17985 6.82722 9.17987 11.0777 8.75482 15.3281C9.17987 15.7531 8.7548 15.7532 8.32975 15.7532ZM37.6577 79.9348C37.6577 87.5856 35.1075 88.0107 32.5572 88.0107H7.90468C4.92938 88.0107 2.80417 87.5856 2.80417 79.9348V41.2558C2.80417 34.8802 5.77947 32.7549 7.90468 31.4798C9.17982 30.6297 10.88 29.3546 10.88 27.2294V26.3793C10.88 25.1041 10.88 23.829 10.455 22.9789H29.5819C29.1569 23.829 29.1569 25.1041 29.1569 26.3793V27.2294C29.1569 29.3546 30.8571 30.6297 32.1322 31.4798C34.2574 33.18 37.2327 34.8802 37.2327 41.2558V79.9348H37.6577Z" fill="black"/>
<path d="M13.0054 59.9576C13.0054 59.9576 11.7302 60.8077 10.8801 64.2081C10.03 67.6085 11.3051 70.5838 11.3051 70.5838C11.3051 64.6332 14.7056 60.8077 14.7056 60.8077L13.0054 59.9576Z" fill="black"/>
<path d="M4.07947 41.2559V79.9349C4.07947 86.7356 5.77962 86.7356 7.90483 86.7356H32.5574C34.6826 86.7356 36.3828 86.7356 36.3828 79.9349V41.2559C36.3828 39.1306 35.9577 37.4304 35.5327 36.1553H4.92954C4.5045 37.4304 4.07947 39.1306 4.07947 41.2559ZM20.2311 40.4057C22.7814 51.4569 31.7073 60.3828 31.7073 67.1835C31.7073 73.5592 26.6068 79.0848 20.2311 79.0848C13.8555 79.0848 8.75497 73.9842 8.75497 67.1835C8.75497 60.8079 17.6809 51.4569 20.2311 40.4057Z" fill="black"/>
</svg>
