<svg width="42" height="93" viewBox="0 0 42 93" fill="none" xmlns="http://www.w3.org/2000/svg">
<path d="M31.6705 27.8043C31.6705 24.829 31.6705 23.5538 32.5206 23.5538C33.3707 23.5538 33.3707 23.1288 33.3707 21.0036C33.3707 18.8784 33.3707 18.4533 32.5206 18.4533C31.6705 18.4533 31.2455 17.1782 32.5206 17.1782C33.7957 17.1782 33.7958 17.1782 33.7958 14.6279C33.7958 12.0777 33.3707 4.85189 33.3707 2.72667C33.3707 0.601444 32.0956 1.02645 29.9704 1.02645C27.8451 1.02645 20.1944 1.02645 20.1944 1.02645C20.1944 1.02645 12.9686 1.02645 10.4183 1.02645C8.29312 1.02645 7.01798 0.601444 7.01798 2.72667C7.01798 4.85189 6.59294 12.0777 6.59294 14.6279C6.59294 17.1782 6.59296 17.1782 7.86809 17.1782C9.14322 17.1782 8.71817 18.4533 7.86809 18.4533C7.018 18.4533 7.01798 18.8784 7.01798 21.0036C7.01798 23.1288 7.018 23.5538 7.86809 23.5538C8.71817 23.5538 8.71816 24.829 8.71816 27.8043C8.71816 30.7796 0.217285 30.7796 0.217285 42.2558C0.217285 53.732 0.217285 74.5591 0.217285 81.7849C0.217285 89.0107 2.34252 92.411 7.86809 92.411C13.3937 92.411 20.6194 92.411 20.6194 92.411C20.6194 92.411 27.8451 92.411 33.3707 92.411C38.8963 92.411 41.0215 89.0107 41.0215 81.7849C41.0215 74.5591 41.0215 53.732 41.0215 42.2558C39.7464 30.7796 31.6705 30.7796 31.6705 27.8043ZM30.8205 2.3016C31.2455 2.3016 31.2455 2.72667 31.2455 2.72667C31.6705 6.97711 31.6705 11.2276 32.0956 15.478C32.0956 15.903 31.6705 15.903 31.6705 15.903C31.2455 15.903 31.2455 15.478 31.2455 15.478C30.8205 11.2276 30.8204 6.97711 30.3954 2.72667C29.9703 2.30162 30.3954 2.3016 30.8205 2.3016ZM28.6952 2.3016C29.1203 2.3016 29.1203 2.72667 29.1203 2.72667C29.5453 6.97711 29.5453 11.2276 29.9704 15.478C29.9704 15.903 29.5453 15.903 29.5453 15.903C29.1203 15.903 29.1203 15.478 29.1203 15.478C29.1203 11.2276 28.6952 6.97711 28.6952 2.72667C27.8452 2.30162 28.2702 2.3016 28.6952 2.3016ZM26.145 2.3016C26.57 2.3016 26.57 2.72667 26.57 2.72667C26.57 6.97711 26.9951 11.2276 26.9951 15.478C26.9951 15.903 26.57 15.903 26.57 15.903C26.145 15.903 26.145 15.478 26.145 15.478C26.145 11.2276 25.7199 6.97711 25.7199 2.72667C25.7199 2.30162 26.145 2.3016 26.145 2.3016ZM24.0197 2.3016C24.4448 2.3016 24.4448 2.72667 24.4448 2.72667C24.4448 6.97711 24.8698 11.2276 24.8698 15.478C24.8698 15.903 24.4448 15.903 24.4448 15.903C24.0198 15.903 24.0197 15.478 24.0197 15.478C24.0197 11.2276 24.0197 6.97711 23.5947 2.72667C23.5947 2.30162 23.5947 2.3016 24.0197 2.3016ZM21.8945 2.3016C22.3196 2.3016 22.3196 2.72667 22.3196 2.72667C22.3196 6.97711 22.3196 11.2276 22.3196 15.478C22.3196 15.903 21.8945 15.903 21.8945 15.903C21.4695 15.903 21.4695 15.478 21.4695 15.478C21.4695 11.2276 21.4695 6.97711 21.4695 2.72667C21.4695 2.30162 21.4695 2.3016 21.8945 2.3016ZM19.3443 2.72667C19.3443 2.30162 19.7693 2.3016 19.7693 2.3016C20.1943 2.3016 20.1944 2.72667 20.1944 2.72667C20.1944 6.97711 20.1944 11.2276 20.1944 15.478C20.1944 15.903 19.7693 15.903 19.7693 15.903C19.3442 15.903 19.3443 15.478 19.3443 15.478C18.9192 11.2276 18.9192 6.97711 19.3443 2.72667ZM16.794 2.72667C16.794 2.30162 17.219 2.3016 17.219 2.3016C17.6441 2.3016 17.6441 2.72667 17.6441 2.72667C17.6441 6.97711 17.6441 11.2276 17.6441 15.478C17.6441 15.903 17.219 15.903 17.219 15.903C16.794 15.903 16.794 15.478 16.794 15.478C16.794 11.2276 16.794 6.97711 16.794 2.72667ZM14.6688 2.72667C14.6688 2.30162 15.0938 2.3016 15.0938 2.3016C15.5189 2.3016 15.5189 2.72667 15.5189 2.72667C15.5189 6.97711 15.5189 11.2276 15.0938 15.478C15.0938 15.903 14.6688 15.903 14.6688 15.903C14.2437 15.903 14.2437 15.478 14.2437 15.478C14.6688 11.2276 14.6688 6.97711 14.6688 2.72667ZM12.5436 2.72667C12.5436 2.30162 12.9686 2.3016 12.9686 2.3016C13.3936 2.3016 13.3936 2.72667 13.3936 2.72667C13.3936 6.97711 12.9686 11.2276 12.9686 15.478C12.9686 15.903 12.5436 15.903 12.5436 15.903C12.1185 15.903 12.1185 15.478 12.1185 15.478C12.1185 11.2276 12.1185 6.97711 12.5436 2.72667ZM10.4183 2.72667C10.4183 2.30162 10.8434 2.3016 10.8434 2.3016C11.2684 2.3016 11.2684 2.72667 11.2684 2.72667C11.2684 6.97711 10.8434 11.2276 10.8434 15.478C10.8434 15.903 10.4183 15.903 10.4183 15.903C9.9933 15.903 9.99331 15.478 9.99331 15.478C9.99331 11.2276 9.9933 6.97711 10.4183 2.72667ZM7.86809 16.3281C7.44304 16.3281 7.44305 15.903 7.44305 15.903C7.86809 11.6526 7.86808 7.40212 8.29312 3.15167C8.29312 2.72663 8.71816 2.72667 8.71816 2.72667L9.1432 3.15167C8.71815 7.40212 8.71817 11.6526 8.29312 15.903C8.29312 15.903 8.29313 16.3281 7.86809 16.3281ZM37.6212 81.7849C37.6212 89.4357 35.0709 90.2858 32.5206 90.2858H7.01798C4.04267 90.2858 1.91747 89.8607 1.91747 81.7849V42.2558C1.91747 35.8801 4.89276 33.7549 7.01798 32.0547C8.29311 31.2046 9.99331 29.9295 9.99331 27.8043V26.9542C9.99331 25.254 9.99331 24.4039 9.56827 23.5538H29.5453C29.1203 24.4039 29.1203 25.6791 29.1203 26.9542V27.8043C29.1203 29.9295 30.8204 31.2046 32.0956 32.0547C34.2208 33.7549 37.1961 35.8801 37.1961 42.2558V81.7849H37.6212Z" fill="black"/>
<path d="M3.19238 42.2559V81.785C3.19238 88.5857 4.89253 88.5857 7.01775 88.5857H32.5204C34.6456 88.5857 36.3458 88.5857 36.3458 81.785V42.2559C36.3458 40.1306 35.9207 38.4304 35.4957 37.1553H4.04246C3.61741 38.4304 3.19238 40.1306 3.19238 42.2559ZM6.59271 44.8061C6.59271 43.1059 7.86786 41.8308 9.56804 41.8308H29.5451C31.2452 41.8308 32.5204 43.1059 32.5204 44.8061V67.3335C32.5204 69.0336 31.2452 70.3088 29.5451 70.3088H9.56804C7.86786 70.3088 6.59271 69.0336 6.59271 67.3335V44.8061Z" fill="black"/>
</svg>
