<svg width="32" height="95" viewBox="0 0 32 95" fill="none" xmlns="http://www.w3.org/2000/svg">
<path d="M28.5327 54.7319H28.1076C26.4075 54.7319 26.4074 54.3068 26.4074 53.0317C26.4074 51.7566 26.4074 51.3315 26.4074 51.3315H16.2064H6.00532C6.00532 51.3315 6.00532 51.7566 6.00532 53.0317C6.00532 54.3068 6.00531 54.7319 4.30513 54.7319H3.88009C2.60496 54.7319 1.32983 54.7319 1.32983 58.5573C1.32983 62.3827 1.32983 84.0599 1.32983 88.3104C1.32983 92.5608 1.75488 94.261 5.58028 94.261C8.98063 94.261 12.806 94.261 16.2064 94.261C20.0318 94.261 23.4321 94.261 26.8325 94.261C30.2329 94.261 31.0829 92.9859 31.0829 88.3104C31.0829 84.0599 31.0829 62.3827 31.0829 58.5573C30.6579 55.1569 29.8078 54.7319 28.5327 54.7319ZM28.9577 88.3104C28.9577 92.1358 28.9577 92.1358 26.8325 92.1358H16.2064H5.58028C3.45506 92.1358 3.45506 92.1358 3.45506 88.3104V58.5573C3.45506 57.2822 3.45506 56.8571 3.45506 56.8571C3.45506 56.8571 3.45505 56.8571 3.88009 56.8571H4.30513H4.73017C7.70548 56.8571 8.13054 55.1569 8.13054 53.4568H16.6314H25.1323C25.1323 55.1569 25.5573 56.8571 28.5327 56.8571H28.9577H29.3827H29.8078C29.8078 57.2822 29.8078 57.7072 29.8078 58.5573V88.3104H28.9577Z" fill="black"/>
<path d="M4.72961 61.9576C4.72961 70.0335 4.72961 87.8853 4.72961 87.8853C4.72961 88.3104 4.72961 89.5855 4.72961 90.0106C4.72961 90.0106 26.8319 90.0106 27.2569 90.0106C27.2569 89.1605 27.2569 88.3104 27.2569 87.8853C27.2569 87.8853 27.2569 70.0335 27.2569 61.9576H4.72961Z" fill="black"/>
<path d="M27.2573 46.231C24.282 46.231 23.857 45.806 23.857 44.1058C23.4319 42.4056 21.7317 22.0034 21.3067 18.6031C20.8816 15.2027 18.3314 13.9276 18.3314 9.67712C18.3314 5.42667 18.3314 0.751221 15.7811 0.751221C17.4813 0.751221 17.4813 5.42667 17.4813 9.67712C17.4813 13.9276 19.6065 15.2027 20.0315 18.6031C20.4566 22.0034 21.7317 42.4056 22.1568 44.1058C22.1568 45.806 22.5818 46.231 25.1321 46.231C27.6823 46.231 27.6824 46.656 27.6824 48.3562C27.6824 49.2063 27.6824 49.6313 27.6824 50.0564H24.7071C24.7071 49.6313 24.7071 49.2063 24.7071 48.3562C24.7071 46.231 24.7071 46.231 22.5818 46.231C20.8817 46.231 20.4566 45.806 20.4566 44.1058C20.4566 42.4056 19.1814 22.0034 18.7564 18.6031C18.7564 15.2027 17.0562 13.9276 17.0562 9.67712C17.0562 5.42667 17.0562 0.751221 15.7811 0.751221C13.2308 0.751221 13.6559 5.42667 13.2308 9.67712C13.2308 13.9276 10.2555 15.2027 10.2555 18.6031C9.83049 22.0034 8.13032 42.4056 7.70528 44.1058C7.28023 45.806 7.28022 46.231 4.30491 46.231C1.3296 46.231 0.904541 46.656 0.904541 48.3562C0.904541 50.4814 0.904541 50.4814 0.904541 50.4814H15.7811H30.6577C30.6577 50.4814 30.6577 50.0564 30.6577 48.3562C30.6577 46.656 30.6576 46.231 27.2573 46.231Z" fill="black"/>
</svg>
