<svg width="63" height="82" viewBox="0 0 63 82" fill="none" xmlns="http://www.w3.org/2000/svg">
<path d="M31.993 51.8324C19.2417 49.2821 3.09004 40.3562 3.09004 24.6295C3.09004 14.0034 9.04066 8.90285 12.866 7.20267C18.3916 4.22736 25.6173 3.80229 30.2928 6.7776C32.843 8.47778 34.1182 9.75294 35.3934 11.4531C34.9683 12.7283 34.9683 14.8535 35.8184 16.9787C37.0935 20.3791 39.6438 22.5043 41.769 22.0792C43.8942 21.2291 44.3192 17.8288 43.4692 14.4284C42.6191 11.8782 40.9189 10.178 39.6438 9.75297C38.3687 7.62774 36.2434 5.50252 33.2681 3.3773C27.3175 -0.448104 18.8167 -0.0230982 12.016 3.8023C4.36519 8.05275 0.114746 15.7036 0.114746 25.0545C0.114746 43.3315 18.8167 53.9576 33.2681 56.5079V51.8324H31.993Z" fill="black"/>
<path d="M34.1187 48.4321V60.7584C35.3939 60.3334 37.094 60.3333 38.3692 59.9083C39.6443 59.9083 40.9194 59.4833 42.1945 59.4833V48.4321C53.6707 46.3069 62.5967 36.5309 62.5967 24.2046H13.2915C13.7165 36.5309 22.6425 46.7319 34.1187 48.4321Z" fill="black"/>
<path d="M48.5696 73.0846H42.619V68.4091C41.7689 68.4091 40.9188 68.8341 39.6437 68.8341C37.5184 69.2592 35.8183 69.2592 34.1181 69.6842V73.0846H28.1674C26.0422 73.0846 24.342 74.7847 24.342 76.91V77.335C24.342 79.4602 26.0422 81.1604 28.1674 81.1604H48.5696C50.6948 81.1604 52.82 79.4602 52.82 76.91C52.395 75.2098 50.6948 73.0846 48.5696 73.0846Z" fill="black"/>
<path d="M44.3192 52.6824V56.9329C47.7195 57.3579 49.4197 58.6331 49.8448 59.0581C49.4197 59.4831 47.2945 61.1833 37.9435 62.4585C27.7425 63.7336 21.3669 66.7089 18.3915 70.9593C16.2663 74.3597 17.1164 77.335 17.1164 77.7601C17.5414 78.6102 18.3915 79.0352 19.2416 79.0352H19.6666C20.5167 78.6101 21.3668 77.7601 20.9418 76.4849C20.9418 76.4849 20.5167 74.7847 21.7918 73.0846C23.492 70.9593 27.7425 67.559 38.3686 66.2838C48.9947 65.0087 54.0952 62.4585 54.0952 58.6331C54.0952 55.6578 49.4197 53.5325 44.3192 52.6824Z" fill="black"/>
</svg>
