<svg width="96" height="43" viewBox="0 0 96 43" fill="none" xmlns="http://www.w3.org/2000/svg">
<path d="M93.7863 19.6685C92.9362 18.8184 73.3842 0.541504 48.3066 0.541504C23.654 0.541504 3.67697 18.8184 2.82688 19.6685L0.70166 21.3687L2.82688 23.0688C3.67697 23.9189 23.229 42.1958 48.3066 42.1958C72.9592 42.1958 92.9362 23.9189 93.7863 23.0688L95.9115 21.3687L93.7863 19.6685ZM37.2555 35.8201C24.0791 32.8448 13.0279 24.769 8.7775 21.3687C13.0279 17.9683 24.0791 9.89247 37.2555 6.91716C33.005 10.3175 30.0297 15.4181 30.0297 21.3687C30.0297 27.3193 32.58 32.4198 37.2555 35.8201ZM48.3066 29.0195C44.0562 29.0195 41.0808 25.6191 41.0808 21.7937C41.0808 17.5433 44.4812 14.568 48.3066 14.568C52.557 14.568 55.5323 17.9683 55.5323 21.7937C55.5323 25.6191 52.132 29.0195 48.3066 29.0195ZM59.3578 35.8201C63.6082 32.4198 66.5835 27.3193 66.5835 21.3687C66.5835 15.4181 63.6082 10.3175 59.3578 6.91716C72.5341 9.89247 83.5853 17.9683 87.8357 21.3687C83.5853 25.1941 72.9592 32.8448 59.3578 35.8201Z" fill="black"/>
</svg>
