<svg width="52" height="85" viewBox="0 0 52 85" fill="none" xmlns="http://www.w3.org/2000/svg">
<path d="M16.0049 6.00171H35.5569C37.257 6.00171 38.9572 4.72653 38.9572 3.45138C38.9572 2.17623 37.6821 0.901123 35.5569 0.901123H16.0049C14.3047 0.901123 12.6045 2.17623 12.6045 3.45138C12.6045 5.15158 14.3047 6.00171 16.0049 6.00171Z" fill="black"/>
<path d="M48.7336 29.8041L44.0581 27.2538C42.3579 26.4037 41.0828 24.2785 41.0828 22.5783V16.2027C41.0828 14.5025 41.9329 12.8023 42.783 12.8023C43.6331 12.8023 44.4832 11.5272 44.4832 10.2521C44.4832 8.97694 42.783 7.70178 41.0828 7.70178H10.9047C9.20449 7.70178 7.50433 8.97694 7.50433 10.2521C7.50433 11.5272 8.35443 12.8023 9.20452 12.8023C10.0546 12.8023 10.9047 14.0774 10.9047 16.2027V22.5783C10.9047 24.2785 9.62955 26.4037 7.92937 27.2538L3.25389 29.8041C1.55372 30.6541 0.278564 32.7794 0.278564 34.4796V80.8093C0.278564 82.5095 1.55371 84.2097 3.67893 84.2097H48.3086C50.0087 84.2097 51.7089 82.9346 51.7089 80.8093V34.4796C51.7089 32.7794 50.0088 30.6541 48.7336 29.8041ZM47.4585 80.3843H3.67893V34.9046C3.67893 34.4796 4.10396 33.6295 4.52901 33.6295L9.20452 31.0792C12.1798 29.379 14.305 25.9787 14.305 23.0034V16.6277C14.305 14.9276 13.88 13.2274 13.0299 11.9522H38.1075C37.2574 13.2274 36.8324 14.5025 36.8324 16.6277V23.0034C36.8324 26.4037 38.9576 29.8041 41.9329 31.0792L46.6084 33.6295C47.0335 33.6295 47.4585 34.4796 47.4585 34.9046V80.3843Z" fill="black"/>
<path d="M20.2559 23.8535H31.3071C33.0072 23.8535 33.8574 22.5784 33.8574 21.3032V17.4779C33.8574 15.7777 32.5822 14.9276 31.3071 14.9276H20.2559C18.5558 14.9276 17.7057 16.2028 17.7057 17.4779V21.3032C17.7057 22.5784 18.9808 23.8535 20.2559 23.8535Z" fill="black"/>
<path d="M38.9579 41.2805C38.9579 39.5803 37.6827 38.7302 36.4076 38.7302H15.5805C13.8803 38.7302 13.0302 40.0053 13.0302 41.2805V45.9559H7.07959V77.4092H45.3336V45.9559H39.3829V41.2805H38.9579ZM35.1325 62.1076H16.4305V42.5555H35.1325V62.1076Z" fill="black"/>
</svg>
