<svg width="43" height="80" viewBox="0 0 43 80" fill="none" xmlns="http://www.w3.org/2000/svg">
<path d="M31.9335 55.9824C31.9335 54.7073 30.2333 53.4321 27.683 53.0071C23.4326 52.582 22.5825 53.8572 22.5825 55.1323C22.5825 56.4075 24.7077 58.1077 27.258 58.1077C29.8083 58.5327 31.9335 57.2576 31.9335 55.9824Z" fill="black"/>
<path d="M20.4573 58.1075C20.0322 58.1075 19.6072 58.9576 19.6072 60.2328C19.6072 61.5079 19.6072 62.358 20.0322 62.358C20.4573 62.358 20.8823 61.5079 20.8823 60.2328C21.3073 58.9576 20.8823 58.1075 20.4573 58.1075Z" fill="black"/>
<path d="M14.9316 53.432C12.3813 53.8571 10.6812 55.1323 10.6812 56.4074C10.6812 57.6826 12.8064 58.5327 15.3566 58.5327C17.9069 58.5327 20.0321 56.8324 20.0321 55.5573C20.0321 54.2821 19.6071 53.007 14.9316 53.432Z" fill="black"/>
<path d="M21.7322 58.1077C21.3071 58.1077 21.3071 58.9578 21.3071 60.2329C21.3071 61.5081 21.7322 62.3582 22.1572 62.3582C22.5823 62.3582 22.5823 61.5081 22.5823 60.2329C22.5823 58.9578 22.1572 57.6826 21.7322 58.1077Z" fill="black"/>
<path d="M35.7586 30.0547C31.9332 29.2046 28.9579 26.6544 28.9579 24.5292C28.9579 22.404 30.6581 20.7037 32.3583 20.7037C34.0585 20.7037 35.7586 18.1535 35.7586 14.7531C35.7586 11.3528 32.3583 8.80249 28.1078 8.80249H14.5064C10.256 8.80249 6.85563 11.3528 6.85563 14.7531C6.85563 18.1535 8.55581 20.7037 10.256 20.7037C11.9562 20.7037 13.6563 22.404 13.6563 24.5292C13.6563 26.6544 10.681 29.2046 6.85563 30.0547C3.03024 30.9048 0.0549316 35.1553 0.0549316 39.4057V72.1341C0.0549316 76.3846 3.45528 79.7849 7.70572 79.7849H35.3336C39.584 79.7849 42.9844 76.3846 42.9844 72.1341V39.4057C42.5593 35.1553 39.584 30.9048 35.7586 30.0547ZM4.30537 39.4057C5.15546 38.5556 6.43059 38.5556 6.85563 39.4057C6.00555 38.5556 6.00555 37.2804 6.85563 36.4304C7.70572 35.5803 8.98086 35.5803 9.4059 36.4304C10.256 37.2804 10.256 38.5556 9.4059 39.4057C9.4059 39.4057 9.4059 39.4057 8.98085 39.8307L11.9562 42.806C11.1061 43.2311 9.83094 44.0812 8.98085 44.9312L6.43059 42.381C5.5805 43.2311 4.30537 43.2311 3.88033 42.381C3.88033 41.5309 3.88033 40.2558 4.30537 39.4057ZM13.6563 63.6332L10.256 67.0336C11.1061 67.8837 11.1061 69.1588 10.256 69.5838C9.4059 70.4339 8.13077 70.4339 7.70572 69.5838C6.85563 68.7337 6.85563 67.4586 7.70572 67.0336C6.85563 67.8837 5.5805 67.8837 5.15546 67.0336C4.30537 66.1835 4.30537 64.9083 5.15546 64.4833C6.00555 63.6332 7.28068 63.6332 7.70572 64.4833C7.70572 64.4833 7.70572 64.4833 8.13077 64.9084L11.5311 61.508C12.3812 62.3581 13.2313 62.7831 14.0814 63.2082C13.6563 63.2082 13.6563 63.6332 13.6563 63.6332ZM27.6828 65.7584V64.4833C27.6828 64.4833 27.6828 64.0582 27.2577 64.0582C27.2577 64.0582 26.8327 64.0583 26.8327 64.4833V65.7584H25.5576V64.4833C25.5576 64.4833 25.5576 64.0582 25.1325 64.0582C25.1325 64.0582 24.7075 64.0583 24.7075 64.4833V65.7584H23.4324V64.4833C23.4324 64.4833 23.4324 64.0582 23.0073 64.0582C23.0073 64.0582 22.5823 64.0583 22.5823 64.4833V65.7584H21.3071V64.4833C21.3071 64.4833 21.3071 64.0582 20.8821 64.0582C20.457 64.0582 20.457 64.0583 20.457 64.4833V65.7584H19.1819V64.4833C19.1819 64.4833 19.1819 64.0582 18.7569 64.0582C18.7569 64.0582 18.3318 64.0583 18.3318 64.4833V65.7584H18.7569V64.4833C18.7569 64.4833 18.7569 64.0582 18.3318 64.0582C17.9068 64.0582 17.9068 64.0583 17.9068 64.4833V65.7584H16.6316V64.4833C16.6316 64.4833 16.6316 64.0582 16.2066 64.0582C16.2066 64.0582 15.7816 64.0583 15.7816 64.4833V65.7584H14.5064V64.4833C14.5064 64.4833 14.5064 64.0582 14.0814 64.0582C14.0814 64.0582 13.6563 64.0583 13.6563 64.4833V65.7584H12.8063C12.8063 64.4833 13.2313 63.6332 13.6563 62.7831C9.4059 60.6579 6.43059 56.8325 6.43059 52.5821C6.43059 46.2064 12.8063 41.1059 20.457 41.1059C28.1078 41.1059 34.4835 46.2064 34.4835 52.5821C34.4835 56.8325 31.5082 60.6579 26.8327 62.7831C27.2577 63.6332 27.6828 64.9084 27.6828 65.7584ZM37.8839 67.4586C37.0338 68.3087 35.7586 68.3087 34.9085 67.4586C35.7586 68.3087 35.7586 69.5838 34.9085 70.0089C34.0585 70.859 32.7833 70.859 32.3583 70.0089C31.5082 69.1588 31.5082 67.8836 32.3583 67.4586L28.9579 64.0582C28.9579 63.6332 28.9579 63.6332 28.5329 63.2082C29.383 62.7831 30.6581 61.933 31.0831 61.508L34.4835 64.9084C34.4835 64.9084 34.4835 64.9083 34.9085 64.4833C35.7586 63.6332 37.0338 63.6332 37.8839 64.4833C38.7339 65.3334 38.7339 66.6085 37.8839 67.4586ZM37.8839 41.9559C37.0338 42.806 35.7586 42.806 34.9085 41.9559L32.3583 44.5062C31.5082 43.6562 30.6581 42.8061 29.383 42.381L32.3583 39.4057C32.3583 39.4057 32.3583 39.4057 31.9332 38.9807C31.0831 38.1306 31.0831 36.8554 31.9332 36.0054C32.7833 35.1553 34.0585 35.1553 34.4835 36.0054C35.3336 36.8554 35.3336 38.1306 34.4835 38.9807C35.3336 38.1306 36.6087 38.1306 37.4588 38.9807C38.7339 40.2558 38.7339 41.5309 37.8839 41.9559Z" fill="black"/>
<path d="M28.9578 6.67737C28.9578 6.67737 28.9578 6.25232 28.9578 6.67737V0.301636H13.6562V6.25236V6.67737H28.9578Z" fill="black"/>
</svg>
