<svg width="63" height="64" viewBox="0 0 63 64" fill="none" xmlns="http://www.w3.org/2000/svg">
<path d="M59.2961 4.11642C55.0456 -0.134022 47.8199 -0.134022 43.1444 4.11642L31.2432 16.0177L19.342 4.11642C15.0915 -0.134022 7.86575 -0.134022 3.19027 4.11642C-1.06017 8.36686 -1.06017 15.5926 3.19027 20.2681L15.0915 32.1693L3.19027 44.0706C-1.06017 48.321 -1.06017 55.5468 3.19027 60.2223C7.44071 64.4727 14.6665 64.4727 19.342 60.2223L31.2432 48.321L43.1444 60.2223C47.3949 64.4727 54.6206 64.4727 59.2961 60.2223C63.5465 55.9718 63.5465 48.746 59.2961 44.0706L47.3949 32.1693L59.2961 20.2681C63.5465 15.5926 63.5465 8.36686 59.2961 4.11642ZM29.9681 16.8677L16.7917 30.0441C16.3666 30.4692 15.9416 30.4692 15.5166 30.0441C15.0915 29.6191 15.0915 29.194 15.5166 28.769L28.6929 15.5926C29.118 15.1676 29.543 15.1676 29.9681 15.5926C30.3931 16.0177 30.3931 16.8677 29.9681 16.8677ZM46.9698 34.2945L33.7934 47.4709C33.3684 47.896 32.9434 47.896 32.5183 47.4709C32.0933 47.0459 32.0933 46.6208 32.5183 46.1958L45.6947 33.0194C46.1197 32.5944 46.5448 32.5944 46.9698 33.0194C47.3949 33.4445 47.3949 33.8695 46.9698 34.2945Z" fill="black"/>
</svg>
