<svg width="57" height="79" viewBox="0 0 57 79" fill="none" xmlns="http://www.w3.org/2000/svg">
<path d="M38.0831 0.739043C35.1078 1.58913 31.7075 2.43922 28.3071 2.86426C24.9068 2.43922 21.5064 1.58913 18.5311 0.739043C13.0055 -0.53609 5.77977 0.313947 2.37942 8.38979C-1.02093 16.8907 1.10429 27.5169 2.80446 35.5927C4.50464 44.0936 6.20481 53.8695 6.20481 61.5203C6.20481 69.1711 8.75508 78.9471 14.2807 78.9471C19.8062 78.9471 20.6563 70.4462 22.7815 59.3951C24.9068 47.9189 28.3071 47.919 28.3071 47.919C28.3071 47.919 31.7075 47.9189 33.8327 59.3951C35.9579 70.8713 36.808 78.9471 42.3336 78.9471C47.8591 78.9471 50.4094 69.1711 50.4094 61.5203C50.4094 53.8695 52.1096 44.0936 53.8098 35.5927C55.5099 27.0918 57.6352 16.8907 54.2348 8.38979C50.4094 -0.111097 43.1837 -0.53609 38.0831 0.739043Z" fill="black"/>
</svg>
