<svg width="41" height="93" viewBox="0 0 41 93" fill="none" xmlns="http://www.w3.org/2000/svg">
<path d="M31.6947 27.6667C31.6947 24.6914 31.6947 23.4163 32.5448 23.4163C33.3949 23.4163 33.3949 22.9913 33.3949 20.8661C33.3949 18.7408 33.3949 18.3158 32.5448 18.3158C31.6947 18.3158 31.2697 17.0406 32.5448 17.0406C33.8199 17.0406 33.8199 17.0407 33.8199 14.4904C33.8199 11.9401 33.3949 4.71438 33.3949 2.58916C33.3949 0.463942 32.1198 0.889012 29.9946 0.889012C27.8694 0.889012 20.2185 0.889012 20.2185 0.889012C20.2185 0.889012 12.9928 0.889012 10.4425 0.889012C8.31731 0.889012 7.04216 0.463942 7.04216 2.58916C7.04216 4.71438 6.61716 11.9401 6.61716 14.4904C6.61716 17.0407 6.61711 17.0406 7.89224 17.0406C9.16737 17.0406 8.74232 18.3158 7.89224 18.3158C7.04215 18.3158 7.04216 18.7408 7.04216 20.8661C7.04216 22.9913 7.04215 23.4163 7.89224 23.4163C8.74232 23.4163 8.74238 24.6914 8.74238 27.6667C8.74238 30.642 0.666504 30.6421 0.666504 42.1182C0.666504 53.5944 0.666504 74.4216 0.666504 81.6473C0.666504 88.8731 2.79171 92.2734 7.89224 92.2734C12.9928 92.2734 20.6436 92.2734 20.6436 92.2734C20.6436 92.2734 27.8693 92.2734 33.3949 92.2734C38.9204 92.2734 40.6207 88.8731 40.6207 81.6473C40.6207 74.4216 40.6207 53.5944 40.6207 42.1182C39.7706 30.6421 31.6947 30.642 31.6947 27.6667ZM30.8446 2.16409C31.2697 2.16409 31.2696 2.58916 31.2696 2.58916C31.6947 6.8396 31.6947 11.09 32.1198 15.3405C32.1198 15.7655 31.6947 15.7655 31.6947 15.7655C31.2697 15.7655 31.2696 15.3405 31.2696 15.3405C30.8446 11.09 30.8446 6.8396 30.4196 2.58916C30.4196 2.58916 30.4196 2.16409 30.8446 2.16409ZM28.7194 2.16409C29.1445 2.16409 29.1444 2.58916 29.1444 2.58916C29.5695 6.8396 29.5695 11.09 29.9946 15.3405C29.9946 15.7655 29.5695 15.7655 29.5695 15.7655C29.1445 15.7655 29.1444 15.3405 29.1444 15.3405C29.1444 11.09 28.7194 6.8396 28.7194 2.58916C28.2944 2.58916 28.2944 2.16409 28.7194 2.16409ZM26.5942 2.16409C27.0192 2.16409 27.0192 2.58916 27.0192 2.58916C27.0192 6.8396 27.4443 11.09 27.4443 15.3405C27.4443 15.7655 27.0192 15.7655 27.0192 15.7655C26.5942 15.7655 26.5942 15.3405 26.5942 15.3405C26.5942 11.09 26.1691 6.8396 26.1691 2.58916C26.1691 2.58916 26.1692 2.16409 26.5942 2.16409ZM24.469 2.16409C24.894 2.16409 24.894 2.58916 24.894 2.58916C24.894 6.8396 25.3191 11.09 25.3191 15.3405C25.3191 15.7655 24.894 15.7655 24.894 15.7655C24.4689 15.7655 24.469 15.3405 24.469 15.3405C24.469 11.09 24.469 6.8396 24.0439 2.58916C23.6189 2.58916 24.0439 2.16409 24.469 2.16409ZM22.3438 2.16409C22.7688 2.16409 22.7688 2.58916 22.7688 2.58916C22.7688 6.8396 22.7688 11.09 22.7688 15.3405C22.7688 15.7655 22.3438 15.7655 22.3438 15.7655C21.9187 15.7655 21.9187 15.3405 21.9187 15.3405C21.9187 11.09 21.9187 6.8396 21.9187 2.58916C21.4937 2.58916 21.9187 2.16409 22.3438 2.16409ZM19.3685 2.58916C19.3685 2.16412 19.7935 2.16409 19.7935 2.16409C20.2185 2.16409 20.2185 2.58916 20.2185 2.58916C20.2185 6.8396 20.2185 11.09 20.2185 15.3405C20.2185 15.7655 19.7935 15.7655 19.7935 15.7655C19.3684 15.7655 19.3685 15.3405 19.3685 15.3405C19.3685 11.5151 19.3685 7.26464 19.3685 2.58916ZM17.2433 2.58916C17.2433 2.16412 17.6683 2.16409 17.6683 2.16409C18.0933 2.16409 18.0933 2.58916 18.0933 2.58916C18.0933 6.8396 18.0933 11.09 18.0933 15.3405C18.0933 15.7655 17.6683 15.7655 17.6683 15.7655C17.2432 15.7655 17.2433 15.3405 17.2433 15.3405C17.2433 11.5151 17.2433 7.26464 17.2433 2.58916ZM15.118 2.58916C15.118 2.16412 15.543 2.16409 15.543 2.16409C15.9681 2.16409 15.9681 2.58916 15.9681 2.58916C15.9681 6.8396 15.9681 11.09 15.543 15.3405C15.543 15.7655 15.118 15.7655 15.118 15.7655C14.693 15.7655 14.693 15.3405 14.693 15.3405C14.693 11.5151 15.118 7.26464 15.118 2.58916ZM12.9928 2.58916C12.9928 2.16412 13.4178 2.16409 13.4178 2.16409C13.8429 2.16409 13.8429 2.58916 13.8429 2.58916C13.8429 6.8396 13.4178 11.09 13.4178 15.3405C13.4178 15.7655 12.9928 15.7655 12.9928 15.7655C12.5678 15.7655 12.5677 15.3405 12.5677 15.3405C12.5677 11.5151 12.5678 7.26464 12.9928 2.58916ZM10.8676 2.58916C10.8676 2.16412 11.2926 2.16409 11.2926 2.16409C11.7176 2.16409 11.7177 2.58916 11.7177 2.58916C11.7177 6.8396 11.2926 11.09 11.2926 15.3405C11.2926 15.7655 10.8676 15.7655 10.8676 15.7655C10.4426 15.7655 10.4425 15.3405 10.4425 15.3405C10.0175 11.5151 10.4426 7.26464 10.8676 2.58916ZM8.31731 16.1905C7.89226 16.1905 7.89224 15.7655 7.89224 15.7655C8.31728 11.5151 8.31733 7.26467 8.74238 3.01423C8.74238 2.58919 9.16738 2.58916 9.16738 2.58916C9.59243 2.58916 9.59245 3.01423 9.59245 3.01423C9.16741 7.26467 9.16742 11.5151 8.74238 15.7655L8.31731 16.1905ZM32.9699 68.0459C32.9699 69.7461 31.6947 71.0212 29.9946 71.0212H10.0175C8.31728 71.0212 7.04216 69.7461 7.04216 68.0459V46.3687C7.04216 44.6685 8.31728 43.3934 10.0175 43.3934H29.9946C31.6947 43.3934 32.9699 44.6685 32.9699 46.3687V68.0459Z" fill="black"/>
</svg>
