<svg width="77" height="81" viewBox="0 0 77 81" fill="none" xmlns="http://www.w3.org/2000/svg">
<path d="M28.3176 22.155C21.9419 15.7794 11.3159 15.7794 4.94019 22.155C-1.43547 28.5307 -1.43547 39.1568 4.94019 45.5325L35.1183 75.7106C41.494 82.0863 52.1201 82.0863 58.4957 75.7106C64.8714 69.335 64.8714 58.7089 58.4957 52.3332L28.3176 22.155ZM21.0918 56.1586L7.49045 42.5572C2.38992 37.4566 2.38992 29.3808 7.49045 24.7053C12.591 19.6048 20.6668 19.6048 25.3423 24.7053L38.9437 38.3067L21.0918 56.1586Z" fill="black"/>
<path d="M57.6453 0.477875C47.0192 0.477875 38.5183 8.97877 38.5183 19.6049C38.5183 30.231 47.0192 38.7319 57.6453 38.7319C68.2714 38.7319 76.7723 30.231 76.7723 19.6049C77.1973 9.40381 68.2714 0.477875 57.6453 0.477875ZM69.9716 32.3562C69.5465 32.7813 69.1215 32.7813 68.6964 32.7813C68.2714 32.7813 67.8463 32.7813 67.4213 32.3562L45.7441 10.679C44.894 9.82887 44.894 8.55374 45.7441 8.12869C46.5942 7.2786 47.8693 7.2786 48.2943 8.12869L69.9716 29.806C70.8216 30.231 70.8216 31.5061 69.9716 32.3562Z" fill="black"/>
</svg>
