<svg width="60" height="74" viewBox="0 0 60 74" fill="none" xmlns="http://www.w3.org/2000/svg">
<path d="M58.7852 30.5554H48.5842L40.0833 44.5819L37.533 40.3314L34.1327 34.8059C32.0075 31.4055 30.3073 29.2803 29.0322 28.0052C27.757 26.7301 26.0568 25.4549 24.3567 24.6048C28.1821 24.1798 31.1574 22.9046 32.8576 20.7794C34.5577 18.6542 35.8329 16.1039 35.8329 12.7036C35.8329 10.1533 35.4078 8.02806 34.1327 5.90284C32.8576 3.77762 31.1574 2.50249 29.0322 1.6524C26.9069 0.802312 23.5066 0.377319 18.8311 0.377319H0.554199V43.3067H9.05508V25.4549H10.7553C12.8805 25.4549 14.1556 25.4549 15.0057 25.88C15.8558 26.305 16.7059 26.73 17.556 27.5801C18.4061 28.4302 19.6812 30.5554 22.2314 33.5307L33.7076 51.3826L19.6812 73.9099H29.8822L39.6583 59.0334L49.0092 73.9099H59.6353L44.7588 51.8076L58.7852 30.5554ZM15.8558 18.2292H9.48012V7.17799H16.2808C19.6812 7.17799 21.8064 7.17799 22.6565 7.17799C23.9316 7.60303 25.2068 8.02811 26.0568 8.8782C26.9069 9.72829 27.332 11.0034 27.332 12.2785C27.332 13.5536 26.9069 14.8288 26.4819 15.6789C26.0568 16.529 25.2068 16.954 23.9316 17.3791C22.6565 17.8041 19.6812 18.2292 15.8558 18.2292Z" fill="black"/>
</svg>
