<svg width="85" height="77" viewBox="0 0 85 77" fill="none" xmlns="http://www.w3.org/2000/svg">
<path d="M73.684 25.8555C70.2836 23.7302 66.4582 22.0301 63.0579 19.9048C60.5076 18.6297 57.9573 17.7796 55.4071 17.7796C53.2818 14.3793 50.7316 11.404 47.3313 9.27874C43.9309 7.15352 40.1055 5.45336 36.7052 3.32814C32.8798 1.20292 28.6293 0.352835 23.9538 1.20292C10.7775 2.9031 0.151367 16.0794 0.151367 30.5309C0.151367 39.8819 4.40183 47.1077 11.2025 50.9331L21.8286 56.8837C21.8286 56.8837 21.8286 56.8837 21.4036 56.8837C23.9538 58.1588 26.5041 59.0089 29.4794 59.434C31.6046 62.8343 34.1549 65.8096 37.5552 67.9348L48.1813 73.8854C48.1813 73.8854 48.1814 73.8854 47.7563 73.8854C50.7316 75.5856 54.1319 76.4357 57.5323 76.4357C58.3824 76.4357 59.6575 76.4357 60.5076 76.0107C73.684 74.3105 84.3101 61.1341 84.3101 46.6826C84.7351 36.9066 80.4847 29.2558 73.684 25.8555ZM26.0791 47.1077C26.0791 50.083 26.5041 52.6333 27.3542 55.1835C24.3789 54.3334 21.4036 53.0583 19.2783 50.9331C15.878 47.5327 13.7528 42.4322 13.7528 36.4816C13.7528 30.1059 16.3031 23.7303 20.1285 19.0548L31.1796 30.1059C28.2043 35.2064 26.0791 40.732 26.0791 47.1077ZM33.7299 27.5556L22.6787 16.5045C26.0791 13.5292 30.3295 11.404 34.5799 10.5539C35.43 10.5539 36.2801 10.5539 37.1302 10.5539C41.8057 10.5539 45.6311 12.2541 49.0314 15.2294C49.8815 16.0794 50.3065 16.9295 51.1566 17.7796C50.7316 17.7796 50.7316 17.7796 50.3065 17.7796C43.5058 18.6297 37.9803 22.4551 33.7299 27.5556ZM60.5076 71.7602C59.6575 71.7602 58.8074 71.7602 57.9573 71.7602C53.2819 71.7602 49.4565 70.0601 46.0561 67.0848C42.6558 63.6844 40.5305 58.5838 40.5305 52.6332C40.5305 46.2576 43.0808 39.8819 46.9062 35.2065L74.9591 63.2593C71.1337 67.9348 66.0332 70.9101 60.5076 71.7602ZM49.4565 33.0812C52.8568 30.1059 57.1073 27.9807 61.3577 27.1306C62.2078 27.1306 63.0578 27.1306 63.9079 27.1306C68.5834 27.1306 72.4088 28.8308 75.8092 31.8061C79.2095 35.2064 81.3348 40.3069 81.3348 46.2576C81.3348 51.3581 79.6346 56.4587 77.0843 60.7091L49.4565 33.0812Z" fill="black"/>
</svg>
