<svg width="74" height="54" viewBox="0 0 74 54" fill="none" xmlns="http://www.w3.org/2000/svg">
<path d="M71.3105 0.291077C70.0354 0.291077 68.7602 1.56623 68.7602 2.84137V31.3193H5.8537V2.84137C5.8537 1.56623 4.57857 0.291077 3.30344 0.291077C2.02831 0.291077 0.753174 1.56623 0.753174 2.84137V51.2963C0.753174 52.5715 2.02831 53.8466 3.30344 53.8466C4.57857 53.8466 5.8537 52.5715 5.8537 51.2963V36.4198H68.3352V51.2963C68.3352 52.5715 69.6103 53.8466 70.8855 53.8466C72.1606 53.8466 73.4357 52.5715 73.4357 51.2963V2.84137C73.8608 1.14119 72.5856 0.291077 71.3105 0.291077Z" fill="black"/>
<path d="M14.3542 23.6686C17.3295 23.6686 19.8798 21.1183 19.8798 18.143C19.8798 15.1677 17.3295 12.6174 14.3542 12.6174C11.3789 12.6174 8.82861 15.1677 8.82861 18.143C9.25366 21.1183 11.3789 23.6686 14.3542 23.6686Z" fill="black"/>
<path d="M14.7797 30.0442C19.0301 30.0442 22.4305 28.7691 22.4305 27.0689C22.4305 25.3687 19.0301 24.0936 14.7797 24.0936C10.5293 24.0936 7.12891 25.3687 7.12891 27.0689C7.12891 28.7691 10.5293 30.0442 14.7797 30.0442Z" fill="black"/>
<path d="M65.3597 14.7427H23.7053V28.769H65.3597V14.7427Z" fill="black"/>
</svg>
