<svg width="79" height="81" viewBox="0 0 79 81" fill="none" xmlns="http://www.w3.org/2000/svg">
<path d="M76.3105 10.6296C72.06 2.55373 62.709 2.12869 55.0583 5.95409C49.9577 8.50435 46.1323 12.3297 43.5821 17.0052C43.5821 16.5802 43.157 16.1551 43.157 15.7301C41.0318 11.9047 38.9066 8.50435 35.5062 5.95409C27.8554 0.00346792 16.3793 -2.12175 8.30342 4.25391C1.07767 10.2045 -1.89766 20.4056 3.20287 28.9065C4.90304 31.4567 6.17819 33.5819 8.30342 35.2821C10.0036 36.9823 12.1288 38.2574 13.829 39.9576C17.6544 43.358 21.4798 47.1834 24.4551 51.4338C27.8554 55.2592 30.4057 59.9347 32.5309 65.0352C34.6561 70.1357 35.5062 75.6613 35.0812 80.7618C35.0812 80.7618 35.5062 81.1869 35.5062 80.7618C36.7813 76.9365 37.6314 73.1111 37.2064 68.8606C36.7813 63.335 35.5062 57.8095 32.9559 53.134C30.4057 48.0335 27.0054 43.783 23.18 39.5326C21.4798 37.4073 19.3546 35.2821 17.2293 33.582C15.5292 31.8818 13.4039 30.6066 11.7037 28.9065C8.72844 25.9312 6.60322 23.3809 7.45331 19.1305C7.87835 15.3051 10.4286 11.4797 13.4039 9.35444C17.2293 6.80417 21.9048 6.37913 26.1553 8.07931C30.4057 9.77948 32.956 13.1798 35.0812 17.0052C36.3563 19.1305 37.2064 21.2557 38.0565 23.3809C38.4815 24.656 38.9066 25.5061 39.3316 26.7812C39.7567 28.4814 40.6067 29.3315 41.8819 30.1816C43.582 31.0317 46.1323 30.6066 46.5574 28.0564C46.5574 27.6313 46.5574 27.6313 46.5574 27.2063C46.5574 25.9312 46.9824 24.656 47.4075 23.3809C49.5327 16.1551 55.9083 9.77948 63.9842 9.77948C72.9101 9.77948 71.6349 22.5308 69.5097 28.4814C67.8096 33.1569 65.6843 37.4074 63.1341 41.2327C60.5838 45.4832 57.1835 49.7336 53.7831 53.559C50.8078 57.8095 47.4075 61.6349 44.8572 66.3103C42.3069 70.9858 40.6068 75.6613 38.9066 80.3368C38.9066 80.3368 39.3316 80.7618 39.3316 80.3368C42.732 73.5361 46.5574 67.1604 52.0829 62.0599C59.3087 54.8342 67.3845 48.0335 71.6349 38.6825C76.7355 30.1816 80.9859 19.1305 76.3105 10.6296Z" fill="black"/>
</svg>
