<svg width="47" height="87" viewBox="0 0 47 87" fill="none" xmlns="http://www.w3.org/2000/svg">
<path d="M41.4585 24.6667C40.6084 24.6667 40.6084 24.6667 40.6084 22.1164C40.6084 19.5662 41.0335 19.5661 42.3086 19.5661C43.5837 19.5661 44.0088 17.4409 41.8835 17.4409C39.3333 17.4409 23.1816 17.4409 23.1816 17.4409C23.1816 17.4409 7.02996 17.4409 4.4797 17.4409C1.92944 17.4409 2.77953 19.5661 4.05466 19.5661C5.32979 19.5661 5.75481 19.5662 5.75481 22.1164C5.75481 24.6667 5.75482 24.6667 4.90474 24.6667C4.05465 24.6667 0.654297 24.2417 0.654297 29.7672C0.654297 34.8678 0.654297 72.2717 0.654297 77.3722C0.654297 82.4727 0.654297 86.7231 4.90474 86.7231C9.15518 86.7231 23.6067 86.7231 23.6067 86.7231C23.6067 86.7231 38.0582 86.7231 42.3086 86.7231C46.5591 86.7231 46.5591 82.4727 46.5591 77.3722C46.5591 72.2717 46.5591 34.8678 46.5591 29.7672C45.2839 24.2417 42.3086 24.6667 41.4585 24.6667ZM36.783 62.9206C36.783 64.6208 35.5079 65.896 33.8077 65.896H11.2804C9.58022 65.896 8.3051 64.6208 8.3051 62.9206V37.8431C8.3051 36.1429 9.58022 34.8678 11.2804 34.8678H33.8077C35.5079 34.8678 36.783 36.1429 36.783 37.8431V62.9206Z" fill="black"/>
<path d="M4.47921 16.5909H40.608C41.4581 16.5909 42.3082 15.7409 42.3082 14.4657V2.13943C42.3082 1.28934 41.4581 0.439209 40.608 0.439209H4.47921C3.62912 0.439209 2.77902 1.28934 2.77902 2.13943V14.4657C2.35398 15.7409 3.20407 16.5909 4.47921 16.5909ZM40.1829 1.71436C40.1829 1.28931 40.608 1.28931 40.1829 1.71436C41.033 1.28931 41.033 1.28931 41.033 1.71436V14.4657C41.033 14.8908 41.033 14.8908 40.608 14.8908C40.1829 14.8908 40.1829 14.8908 40.1829 14.4657V1.71436ZM38.9078 1.71436C38.9078 1.28931 38.9078 1.28931 38.9078 1.71436C39.7579 1.28931 39.7579 1.28931 39.7579 1.71436V14.4657C39.7579 14.8908 39.7579 14.8908 39.3328 14.8908C38.9078 14.8908 38.9078 14.8908 38.9078 14.4657V1.71436ZM37.2076 1.71436C37.2076 1.28931 37.6327 1.28931 37.2076 1.71436C38.0577 1.28931 38.0577 1.28931 38.0577 1.71436V14.4657C38.0577 14.8908 38.0577 14.8908 37.6327 14.8908C37.2076 14.8908 37.2076 14.8908 37.2076 14.4657V1.71436ZM35.9325 1.71436C35.9325 1.28931 35.9325 1.28931 35.9325 1.71436C36.7826 1.28931 36.7826 1.28931 36.7826 1.71436V14.4657C36.7826 14.8908 36.7826 14.8908 36.3575 14.8908C35.9325 14.8908 35.9325 14.8908 35.9325 14.4657V1.71436ZM34.2323 1.71436C34.2323 1.28931 34.6574 1.28931 34.2323 1.71436C35.0824 1.28931 35.0824 1.28931 35.0824 1.71436V14.4657C35.0824 14.8908 35.0824 14.8908 34.6574 14.8908C34.2323 14.8908 34.2323 14.8908 34.2323 14.4657V1.71436ZM32.9572 1.71436C32.9572 1.28931 32.9572 1.28929 33.3822 1.28929C33.8073 1.28929 33.8073 1.28931 33.8073 1.71436V14.4657C33.8073 14.8908 33.8073 14.8908 33.3822 14.8908C32.9572 14.8908 32.9572 14.8908 32.9572 14.4657V1.71436ZM31.257 1.71436C31.257 1.28931 31.257 1.28929 31.6821 1.28929C32.1071 1.28929 32.1071 1.28931 32.1071 1.71436V14.4657C32.1071 14.8908 32.1071 14.8908 31.6821 14.8908C31.257 14.8908 31.257 14.8908 31.257 14.4657V1.71436ZM29.5568 1.71436C29.5568 1.28931 29.9819 1.28931 29.5568 1.71436C30.4069 1.28931 30.4069 1.28931 30.4069 1.71436V14.4657C30.4069 14.8908 30.4069 14.8908 29.9819 14.8908C29.5568 14.8908 29.5568 14.8908 29.5568 14.4657V1.71436ZM28.2817 1.71436C28.2817 1.28931 28.2817 1.28931 28.2817 1.71436C29.1318 1.28931 29.1318 1.28931 29.1318 1.71436V14.4657C29.1318 14.8908 29.1318 14.8908 28.7067 14.8908C28.2817 14.8908 28.2817 14.8908 28.2817 14.4657V1.71436ZM26.5815 1.71436C26.5815 1.28931 27.0065 1.28931 26.5815 1.71436C27.4316 1.28931 27.4316 1.28931 27.4316 1.71436V14.4657C27.4316 14.8908 27.4316 14.8908 27.0065 14.8908C26.5815 14.8908 26.5815 14.8908 26.5815 14.4657V1.71436ZM25.3064 1.71436C25.3064 1.28931 25.3064 1.28931 25.3064 1.71436C26.1565 1.28931 26.1565 1.28931 26.1565 1.71436V14.4657C26.1565 14.8908 26.1565 14.8908 25.7314 14.8908C25.3064 14.8908 25.3064 14.8908 25.3064 14.4657V1.71436ZM23.6062 1.71436C23.6062 1.28931 24.0313 1.28931 23.6062 1.71436C24.4563 1.28931 24.4563 1.28931 24.4563 1.71436V14.4657C24.4563 14.8908 24.4563 14.8908 24.0312 14.8908C23.6062 14.8908 23.6062 14.8908 23.6062 14.4657V1.71436ZM22.3311 1.71436C22.3311 1.28931 22.3311 1.28931 22.3311 1.71436C23.1812 1.28931 23.1812 1.28931 23.1812 1.71436V14.4657C23.1812 14.8908 23.1811 14.8908 22.7561 14.8908C22.3311 14.8908 22.3311 14.8908 22.3311 14.4657V1.71436ZM20.6309 1.71436C20.6309 1.28931 20.6309 1.28929 21.0559 1.28929C21.481 1.28929 21.481 1.28931 21.481 1.71436V14.4657C21.481 14.8908 21.481 14.8908 21.0559 14.8908C20.6309 14.8908 20.6309 14.8908 20.6309 14.4657V1.71436ZM18.9307 1.71436C18.9307 1.28931 19.3558 1.28931 18.9307 1.71436C19.7808 1.28931 19.7808 1.28931 19.7808 1.71436V14.4657C19.7808 14.8908 19.7808 14.8908 19.3558 14.8908C18.9307 14.8908 18.9307 14.8908 18.9307 14.4657V1.71436ZM17.6556 1.71436C17.6556 1.28931 17.6556 1.28931 17.6556 1.71436C18.5057 1.28931 18.5057 1.28931 18.5057 1.71436V14.4657C18.5057 14.8908 18.5057 14.8908 18.0806 14.8908C17.6556 14.8908 17.6556 14.8908 17.6556 14.4657V1.71436ZM15.9554 1.71436C15.9554 1.28931 16.3804 1.28931 15.9554 1.71436C16.8055 1.28931 16.8055 1.28931 16.8055 1.71436V14.4657C16.8055 14.8908 16.8055 14.8908 16.3804 14.8908C15.9554 14.8908 15.9554 14.8908 15.9554 14.4657V1.71436ZM14.6803 1.71436C14.6803 1.28931 14.6803 1.28929 15.1053 1.28929C15.5304 1.28929 15.5304 1.28931 15.5304 1.71436V14.4657C15.5304 14.8908 15.5304 14.8908 15.1053 14.8908C14.6803 14.8908 14.6803 14.8908 14.6803 14.4657V1.71436ZM12.9801 1.71436C12.9801 1.28931 13.4051 1.28931 12.9801 1.71436C13.8302 1.28931 13.8302 1.28931 13.8302 1.71436V14.4657C13.8302 14.8908 13.8302 14.8908 13.4051 14.8908C12.9801 14.8908 12.9801 14.8908 12.9801 14.4657V1.71436ZM11.2799 1.71436C11.2799 1.28931 11.2799 1.28929 11.705 1.28929C12.13 1.28929 12.13 1.28931 12.13 1.71436V14.4657C12.13 14.8908 12.13 14.8908 11.705 14.8908C11.2799 14.8908 11.2799 14.8908 11.2799 14.4657V1.71436ZM10.0048 1.71436C10.0048 1.28931 10.0048 1.28931 10.0048 1.71436C10.8549 1.28931 10.8549 1.28931 10.8549 1.71436V14.4657C10.8549 14.8908 10.8549 14.8908 10.4298 14.8908C10.0048 14.8908 10.0048 14.8908 10.0048 14.4657V1.71436ZM8.30461 1.71436C8.30461 1.28931 8.72966 1.28931 8.30461 1.71436C9.1547 1.28931 9.15469 1.28931 9.15469 1.71436V14.4657C9.15469 14.8908 9.1547 14.8908 8.72965 14.8908C8.30461 14.8908 8.30461 14.8908 8.30461 14.4657V1.71436ZM7.02947 1.71436C7.02947 1.28931 7.02947 1.28931 7.02947 1.71436C7.87956 1.28931 7.87954 1.28931 7.87954 1.71436V14.4657C7.87954 14.8908 7.87955 14.8908 7.45451 14.8908C7.02946 14.8908 7.02947 14.8908 7.02947 14.4657V1.71436ZM5.32928 1.71436C5.32928 1.28931 5.75433 1.28931 5.32928 1.71436C6.17937 1.28931 6.17939 1.28931 6.17939 1.71436V14.4657C6.17939 14.8908 6.17937 14.8908 5.75432 14.8908C5.32928 14.8908 5.32928 14.8908 5.32928 14.4657V1.71436ZM4.05417 1.71436C4.05417 1.28931 4.05417 1.28931 4.05417 1.71436C4.90426 1.28931 4.90425 1.28931 4.90425 1.71436V14.4657C4.90425 14.8908 4.90425 14.8908 4.47921 14.8908C4.05416 14.8908 4.05417 14.8908 4.05417 14.4657V1.71436Z" fill="black"/>
</svg>
