<svg width="87" height="88" viewBox="0 0 87 88" fill="none" xmlns="http://www.w3.org/2000/svg">
<path d="M83.1849 49.695L72.5588 43.7443L83.1849 37.7937C85.7351 36.0935 87.0103 32.6932 85.3101 30.1429L76.3842 14.4163C75.5341 12.7161 73.4088 11.441 71.2836 11.441C70.4335 11.441 69.1584 11.866 68.3083 12.2911L57.6822 18.2417V5.91542C57.6822 2.94011 55.1319 0.389832 52.1566 0.389832H34.3048C31.3295 0.389832 28.7792 2.94011 28.7792 5.91542V18.2417L18.1531 12.2911C17.303 11.866 16.4529 11.441 15.1778 11.441C13.0526 11.441 11.3524 12.7161 10.0773 14.4163L1.15134 30.1429C-0.548837 32.6932 0.726295 36.5186 3.27656 37.7937L13.9027 43.7443L3.27656 49.695C2.00143 50.5451 1.15138 51.8202 0.726334 53.0953C0.30129 54.3704 0.726295 56.0706 1.15134 57.3457L10.0773 73.0724C10.9274 74.7726 13.0526 76.0477 15.1778 76.0477C16.0279 76.0477 17.303 75.6227 18.1531 75.1976L28.7792 69.247V81.5733C28.7792 84.5486 31.3295 87.0988 34.3048 87.0988H52.1566C55.1319 87.0988 57.6822 84.5486 57.6822 81.5733V69.247L68.3083 75.1976C69.1584 75.6227 70.0085 76.0477 71.2836 76.0477C73.4088 76.0477 75.1091 74.7726 76.3842 73.0724L85.3101 57.3457C86.5852 54.7955 85.7351 51.3951 83.1849 49.695ZM83.1849 56.4957L73.8339 71.7972C73.4089 72.6473 72.1337 73.4974 70.8586 73.4974C70.4336 73.4974 69.5834 73.4974 69.1584 73.0724L54.7069 64.9965V81.5733C54.7069 83.2734 53.4318 84.9736 51.3066 84.9736H33.4547C31.7545 84.9736 30.0544 83.6985 30.0544 81.5733V64.9965L15.6029 73.0724C15.1778 73.4974 14.7528 73.4974 13.9027 73.4974C12.6275 73.4974 11.7775 73.0724 10.9274 71.7972L2.00148 56.0706C1.57643 55.2205 1.57641 54.3704 1.57641 53.5203C2.00145 52.6702 2.42647 51.8202 3.27656 51.3951L17.7281 43.3193L3.27656 35.2435C2.42647 34.8184 2.00145 33.9683 1.57641 33.1182C1.15136 32.2682 1.57643 31.4181 2.00148 30.568L10.9274 14.8413C11.3524 13.9912 12.6275 13.1412 13.9027 13.1412C14.3277 13.1412 15.1778 13.1412 15.6029 13.5662L30.0544 21.642V5.06534C30.0544 3.36517 31.3295 1.66498 33.4547 1.66498H51.3066C53.0067 1.66498 54.7069 2.94012 54.7069 5.06534V21.642L69.1584 13.5662C69.5834 13.1412 70.0085 13.1412 70.8586 13.1412C72.1337 13.1412 72.9838 13.5662 73.8339 14.8413L82.7599 30.568C83.6099 32.2682 83.1849 33.9683 81.4847 34.8184L67.0332 42.8942L81.4847 50.9701C83.1849 53.0953 84.035 54.7955 83.1849 56.4957Z" fill="black"/>
<path d="M38.555 38.6438C38.9801 38.6438 39.4052 38.6438 39.4052 38.6438C39.4052 38.6438 39.4052 38.2188 38.9801 38.2188C38.5551 38.2188 38.13 38.2188 38.13 38.2188C38.13 38.2188 38.555 38.6438 38.555 38.6438Z" fill="black"/>
<path d="M47.056 38.2188C46.6309 38.2188 46.631 38.6438 46.631 38.6438C46.631 38.6438 47.056 38.6438 47.481 38.6438C47.906 38.6438 47.906 38.2188 47.906 38.2188C47.906 38.2188 47.481 38.2188 47.056 38.2188Z" fill="black"/>
<path d="M81.0601 53.5204L66.1835 45.0195C65.3334 44.5945 65.3334 43.7444 66.1835 43.3194L81.0601 34.8185C81.9102 34.3934 82.3352 33.1183 81.9101 32.2682L72.9843 16.5416C72.5592 15.6915 71.284 15.2664 70.434 15.6915L55.5574 24.1924C54.7073 24.6174 53.8573 24.1923 53.8573 23.3423V5.91545C53.8573 5.06537 53.0071 4.21527 52.157 4.21527H34.3052C33.4551 4.21527 32.605 5.06537 32.605 5.91545V23.3423C32.605 24.1923 31.7549 24.6174 30.9048 24.1924L16.0283 15.6915C15.1782 15.2664 14.3281 15.6915 13.478 16.5416L4.55208 32.2682C4.12704 33.1183 4.55211 33.9684 4.97715 34.8185L19.8537 43.3194C20.7038 43.7444 20.7038 44.5945 19.8537 45.0195L4.97715 53.5204C4.12706 53.9454 3.70203 55.2206 4.12708 56.0707L13.053 71.7973C13.478 72.6474 14.7532 73.0724 15.6033 72.6474L30.4798 64.1465C31.3299 63.7215 32.18 64.1465 32.18 64.9966V82.4234C32.18 83.2735 33.0301 84.1236 33.8802 84.1236H51.732C52.5821 84.1236 53.4322 83.2735 53.4322 82.4234V64.9966C53.4322 64.1465 54.2823 63.7215 55.1324 64.1465L70.009 72.6474C70.859 73.0724 71.7091 72.6474 72.5592 71.7973L81.4851 56.0707C82.3352 54.7956 81.9102 53.9454 81.0601 53.5204ZM43.2311 18.2417C45.3564 18.2417 46.6315 19.9419 46.6315 21.6421C46.6315 23.3423 45.7814 24.6174 44.0812 25.0424C44.0812 27.1677 44.0812 30.143 44.0812 35.2435C44.0812 37.7938 44.0812 40.344 44.0812 43.3194C43.6562 43.3194 42.381 43.3194 41.5309 43.3194C41.5309 40.7691 41.5309 37.3687 41.5309 35.2435C41.5309 30.568 41.5309 27.1677 41.5309 25.0424C40.2558 24.6174 38.9807 23.3423 38.9807 21.6421C39.4058 19.9419 41.1059 18.2417 43.2311 18.2417ZM26.6544 32.6933C26.6544 31.4181 25.8043 31.4181 24.1041 31.4181C22.404 31.4181 22.829 29.2929 22.4039 29.2929C21.9789 29.2929 19.0036 29.7179 18.1535 27.5927C17.3034 25.8925 18.1535 26.3176 24.5292 26.3176C30.4798 26.3176 33.4551 25.8925 35.5803 24.6174C37.2805 23.3423 38.9807 23.7673 38.9807 25.0424C38.9807 26.3176 39.8308 26.7426 40.6809 26.7426C41.5309 26.7426 41.5309 26.7426 41.5309 27.5927C41.5309 28.0177 41.5309 31.4181 41.5309 32.6933C41.5309 34.3934 41.5309 34.8185 40.6809 33.9684C39.8308 33.1183 39.8308 33.1183 37.2805 33.9684C34.3052 34.8185 33.4551 33.5433 33.4551 33.1183C33.4551 32.2682 32.605 31.8432 30.9048 33.1183C28.7796 34.8185 26.6544 33.9684 26.6544 32.6933ZM30.4798 39.919C30.9049 36.5186 36.0054 36.0936 38.1306 36.9437C40.2559 37.3687 39.8308 37.7938 40.6809 39.0689C41.5309 40.344 41.1059 41.1941 39.4057 41.6192C37.2805 41.6192 36.4304 41.1941 35.1553 40.344C33.8801 39.4939 33.4551 41.1941 34.3052 42.0442C35.1553 42.8943 36.8554 43.7444 39.4057 43.7444C37.7055 43.7444 35.5803 45.0195 34.7303 46.2947C32.18 45.0195 30.0548 42.4693 30.4798 39.919ZM44.0812 76.0477C43.6562 79.8731 43.6562 82.4234 42.8061 82.4234C42.381 82.4234 41.956 79.8731 41.956 76.4728C42.8061 76.4728 44.9313 75.6227 45.3564 75.1977C47.0565 76.4728 48.7567 77.3229 48.3317 77.3229C48.3317 77.3229 47.0565 76.8978 44.0812 76.0477ZM41.956 60.7462C41.956 59.8961 41.956 59.471 41.956 58.6209C42.381 58.1959 47.4816 56.4957 47.9066 56.0707C49.1817 56.9208 50.0318 57.7708 50.0318 59.046C50.0318 61.1712 47.0566 63.2964 44.5063 64.1465C41.956 64.9966 41.1059 65.4216 41.1059 66.2717C41.1059 66.6968 41.531 67.1218 41.956 67.5469C41.956 67.1218 41.956 66.2717 41.956 65.8467C42.381 65.8467 47.0565 64.1465 47.9066 63.7215C48.3316 64.1465 48.7567 65.4216 49.1817 66.2717C49.1817 67.9719 48.3317 69.6721 44.9313 70.5222C42.381 71.3722 41.1059 72.2224 42.3811 73.0724C42.3811 72.6474 42.3811 72.2223 42.3811 72.2223C43.2312 71.3723 46.2065 70.9472 47.4816 70.0971C47.9066 70.5222 47.9066 71.3723 47.9066 72.2223C47.4816 73.4975 47.0565 74.3476 43.2311 76.0477C39.4058 77.3229 38.1306 78.173 38.1306 77.7479C37.7056 77.3229 40.2558 76.0477 42.8061 74.7726C44.5063 73.9225 45.7814 72.6474 44.5063 72.2223C44.5063 72.6474 44.5063 72.6474 44.5063 73.0724C44.0812 73.9225 41.531 75.1977 41.1059 75.1977C39.8308 74.3476 38.9807 73.4975 38.9807 72.6474C38.5557 71.3722 39.4057 70.9472 41.5309 69.6721C44.0812 68.3969 45.3564 68.397 45.3564 67.1218C45.3564 66.6968 45.3564 66.2717 44.5063 66.2717C44.5063 66.6968 44.5063 67.1218 44.5063 67.5469C44.0812 68.3969 40.2558 69.247 39.4057 70.0971C38.1306 69.247 37.7056 67.9719 37.7056 66.6968C37.7056 64.9966 38.9807 63.7215 42.3811 62.4463C45.7814 61.1712 46.2064 60.3211 46.2064 59.471C46.2064 59.046 45.7814 59.046 44.9313 58.6209C44.9313 59.471 44.9313 59.8961 44.9313 60.7462C44.0812 61.1712 40.2558 62.4463 39.4057 63.2964C38.1306 62.4463 36.4304 62.0213 36.4304 59.471C36.4304 57.3458 38.5556 56.0707 41.956 54.3705C45.3564 53.0954 47.9066 51.8202 47.9066 49.695C47.9066 48.8449 47.0565 48.4199 46.2064 47.9948C48.3317 47.9948 50.0319 47.5698 51.732 47.1447C52.1571 47.5698 52.5821 48.4199 52.5821 49.27C53.0072 51.3952 52.5821 53.9454 48.3317 55.6456C44.5063 57.3458 41.5309 58.1959 41.5309 59.046C40.2558 59.471 40.6809 59.8961 41.956 60.7462ZM48.7567 47.1447C44.5063 47.9948 39.4057 47.9948 39.4057 49.695C39.4057 50.5451 40.2558 52.2453 41.1059 53.0954L41.5309 53.5204C41.5309 51.8202 41.5309 50.12 41.5309 48.8449C41.956 48.8449 42.8061 48.4199 44.0812 48.4199C44.0812 49.695 44.0812 50.9701 44.0812 52.2453C43.2311 52.6703 42.381 53.0953 41.5309 53.5204C41.1059 53.5204 38.5556 54.7955 37.7056 55.2206C34.7302 53.5204 34.3052 50.9701 34.7303 48.8449C35.1553 46.7197 36.8555 43.7444 42.3811 43.7444C47.9067 43.7444 50.4569 42.8943 51.307 41.6192C52.1571 40.344 51.732 38.6439 50.4569 39.919C49.1818 40.7691 48.3317 41.1941 46.2064 41.1941C44.5063 41.1941 44.0812 39.919 44.9313 38.6438C45.7814 37.3687 44.9313 36.9437 47.4816 36.5186C49.6068 36.0936 54.7074 36.5186 55.1324 39.494C56.4075 42.8943 53.0072 46.2946 48.7567 47.1447ZM64.0583 29.2929C63.6333 29.2929 64.0583 31.4181 62.3581 31.4181C60.658 31.4181 59.8079 30.9931 59.8079 32.6933C59.8079 33.9684 57.6827 34.8185 55.9825 33.9684C54.2823 33.1183 53.4322 33.5433 53.4322 33.9684C53.4322 34.8185 52.5821 36.0936 49.6068 34.8185C46.6315 33.9684 47.0565 33.9684 46.2064 34.8185C45.3564 35.6686 45.3564 34.8185 45.3564 33.5433C45.3564 31.8432 45.3564 28.8679 45.3564 28.4428C45.3564 27.1677 45.3564 27.5927 46.2064 27.5927C47.0565 27.5927 47.4816 27.1677 47.9066 25.8925C47.9066 24.6174 49.6068 24.1923 51.307 25.4675C53.0071 26.7426 55.9825 27.1677 62.3581 27.1677C68.7338 27.1677 69.5839 26.7426 68.7338 28.4428C67.0336 29.7179 64.4833 29.2929 64.0583 29.2929Z" fill="black"/>
</svg>
