<svg width="69" height="71" viewBox="0 0 69 71" fill="none" xmlns="http://www.w3.org/2000/svg">
<path d="M60.1955 12.2293L49.1443 6.2787L48.7194 6.70377L37.6682 0.753143L20.6665 3.3034V17.7549L9.19022 12.2293L0.689331 29.2311L11.7405 35.1818L0.689331 43.6826L9.19022 58.5592L20.2414 64.5098L20.6665 64.0848L31.7176 70.0354L48.7194 67.4852V53.0336L60.1955 58.5592L68.6964 41.5574L57.6452 35.6068L68.6964 27.1059L60.1955 12.2293ZM56.3702 38.1571L65.7212 42.4075L59.3455 55.1588L49.9945 50.4834L46.5942 48.7832V52.6086V64.9349L34.2678 66.635V55.1588V50.0583L30.4424 53.0336L21.0915 60.2594L15.1408 49.6332L24.9169 41.9825L28.3172 39.4322L24.4918 37.732L15.1408 33.4816L21.5165 20.7302L30.8675 25.4057L34.2678 27.1059V23.2805V10.9542L46.5942 9.25404V20.7302V25.8308L50.4196 22.8555L59.7705 15.6297L65.7212 26.2558L56.3702 33.4816L55.9451 33.9066L52.5448 36.4569L56.3702 38.1571Z" fill="black"/>
</svg>
