<svg width="83" height="75" viewBox="0 0 83 75" fill="none" xmlns="http://www.w3.org/2000/svg">
<path d="M41.7809 6.21512C41.7809 6.21512 -6.24908 -15.8872 1.40171 26.6172C1.82676 28.7424 2.25181 30.8676 3.1019 32.9928H10.7527L15.0031 23.6418C15.4282 22.7917 16.2783 22.3667 17.1284 22.3667C17.9785 22.3667 18.8286 23.2168 18.8286 24.0669L20.5287 33.843L27.3294 8.34034C27.7545 7.49025 28.6046 6.64008 29.4547 7.06513C30.3047 7.06513 31.1548 7.91519 31.1548 8.76528L34.5552 46.1692L40.0808 24.492C40.5058 23.6419 41.3559 23.2169 42.206 23.2169C43.0561 23.2169 43.9061 24.0669 43.9061 24.917L46.0314 36.3931L47.3065 33.4179C47.7315 32.5678 48.1566 32.1427 49.0067 32.1427H58.3577C59.2078 29.1674 61.758 27.4673 64.7333 27.4673C68.5587 27.4673 71.534 30.4425 71.534 34.2679C71.534 38.0933 68.5587 41.0686 64.7333 41.0686C61.758 41.0686 59.2078 38.9434 58.3577 36.3931H50.2818L47.3065 43.6189C46.8815 44.469 46.0314 44.894 45.1813 44.894C44.3312 44.894 43.4811 44.044 43.4811 43.1939L41.7809 33.843L35.8303 58.0704C35.4053 58.9205 34.9802 59.3456 34.1301 59.3456C33.28 59.3456 32.43 58.4954 32.43 57.6453L29.0296 19.3914L21.8038 43.6189C21.3788 44.469 20.9538 44.894 19.6786 44.894C18.8285 44.894 17.9784 44.044 17.9784 43.1939L15.8532 30.8676L13.728 35.5431C13.303 36.3932 12.8779 36.8182 12.0278 36.8182H4.80208C15.0031 58.4955 41.7809 74.2222 41.7809 74.2222C41.7809 74.2222 77.0596 53.82 82.1601 27.0422C89.8109 -15.8872 41.7809 6.21512 41.7809 6.21512Z" fill="black"/>
</svg>
