<svg width="19" height="112" viewBox="0 0 19 112" fill="none" xmlns="http://www.w3.org/2000/svg">
<path d="M1.80566 103.099C1.80566 107.774 5.63106 111.6 10.3065 111.6C14.982 111.6 18.8074 107.774 18.8074 103.099V39.7672C18.8074 36.3669 16.6822 33.3916 13.7069 32.1165V4.06356C13.7069 1.93834 12.0067 0.238159 9.8815 0.238159C7.75628 0.238159 6.0561 1.93834 6.0561 4.06356V32.1165C3.08079 33.3916 0.955566 36.3669 0.955566 39.7672V103.099H1.80566ZM3.93088 39.7672C3.93088 37.217 5.20601 35.0918 7.75628 33.8167L8.60636 33.3916V32.1165V10.0142H9.45645V40.6173H6.48114C6.0561 40.6173 6.0561 41.0424 6.0561 41.0424C6.0561 41.4674 6.48114 41.4674 6.48114 41.4674H9.45645V46.993H6.48114C6.0561 46.993 6.0561 47.418 6.0561 47.418C6.0561 47.8431 6.48114 47.8431 6.48114 47.8431H9.45645V53.7937H6.48114C6.0561 53.7937 6.0561 54.2187 6.0561 54.2187C6.0561 54.6438 6.48114 54.6438 6.48114 54.6438H9.45645V60.1694H6.48114C6.0561 60.1694 6.0561 60.5944 6.0561 60.5944C6.0561 61.0195 6.48114 61.0194 6.48114 61.0194H9.45645V66.545H6.48114C6.0561 66.545 6.0561 66.9701 6.0561 66.9701C6.0561 67.3951 6.48114 67.3951 6.48114 67.3951H9.45645V72.9207H6.48114C6.0561 72.9207 6.0561 73.3457 6.0561 73.3457C6.0561 73.7708 6.48114 73.7708 6.48114 73.7708H9.45645V79.2964H6.48114C6.0561 79.2964 6.0561 79.7214 6.0561 79.7214C6.0561 80.1464 6.48114 80.1464 6.48114 80.1464H9.45645V85.672H6.48114C6.0561 85.672 6.0561 86.0971 6.0561 86.0971C6.0561 86.5221 6.48114 86.5221 6.48114 86.5221H9.45645V92.0477H6.48114C6.0561 92.0477 6.0561 92.4727 6.0561 92.4727C6.0561 92.8978 6.48114 92.8978 6.48114 92.8978H9.45645V98.4233C8.18132 98.8484 6.90619 100.124 6.90619 101.824C6.90619 103.949 8.60637 105.224 10.3065 105.224C12.4318 105.224 13.7069 103.524 13.7069 101.824C13.7069 100.124 12.8568 98.8484 11.1566 98.4233V92.8978H14.1319C14.557 92.8978 14.557 92.4727 14.557 92.4727C14.557 92.0477 14.1319 92.0477 14.1319 92.0477H11.1566V86.5221H14.1319C14.557 86.5221 14.557 86.0971 14.557 86.0971C14.557 85.672 14.1319 85.672 14.1319 85.672H11.1566V80.1464H14.1319C14.557 80.1464 14.557 79.7214 14.557 79.7214C14.557 79.2963 14.1319 79.2964 14.1319 79.2964H11.1566V75.0459H14.1319C14.557 75.0459 14.557 74.6209 14.557 74.6209C14.557 74.1958 14.1319 74.1958 14.1319 74.1958H11.1566V68.6703H14.1319C14.557 68.6703 14.557 68.2452 14.557 68.2452C14.557 67.8202 14.1319 67.8202 14.1319 67.8202H11.1566V62.2946H14.1319C14.557 62.2946 14.557 61.8696 14.557 61.8696C14.557 61.4445 14.1319 61.4445 14.1319 61.4445H11.1566V55.9189H14.1319C14.557 55.9189 14.557 55.4939 14.557 55.4939C14.557 55.0688 14.1319 55.0689 14.1319 55.0689H11.1566V49.5433H14.1319C14.557 49.5433 14.557 49.1182 14.557 49.1182C14.557 48.6932 14.1319 48.6932 14.1319 48.6932H11.1566V43.1676H14.1319C14.557 43.1676 14.557 42.7426 14.557 42.7426C14.557 42.3175 14.1319 42.3175 14.1319 42.3175H11.1566V11.7143H12.0067V33.8167V35.0918L12.8568 35.5168C14.982 36.7919 16.6822 38.9172 16.6822 41.4674V104.799C16.6822 108.199 13.7069 111.175 10.3065 111.175C6.90619 111.175 3.93088 108.199 3.93088 104.799V39.7672Z" fill="black"/>
</svg>
