<svg width="44" height="81" viewBox="0 0 44 81" fill="none" xmlns="http://www.w3.org/2000/svg">
<path d="M36.695 30.5432C32.8696 29.6931 29.8943 27.1429 29.8943 25.0176C29.8943 22.8924 31.5944 21.1923 33.2946 21.1923C34.9948 21.1923 36.695 18.642 36.695 15.2416C36.695 11.8413 33.2946 9.29102 29.0442 9.29102H15.4428C11.1924 9.29102 7.79199 11.8413 7.79199 15.2416C7.79199 18.642 9.49218 21.1923 11.1924 21.1923C12.8925 21.1923 14.5927 22.8924 14.5927 25.0176C14.5927 27.1429 11.6174 29.6931 7.79199 30.5432C3.9666 31.3933 0.991333 35.6437 0.991333 39.8942V72.6226C0.991333 76.873 4.3917 80.2734 8.64213 80.2734H36.27C40.5204 80.2734 43.9207 76.873 43.9207 72.6226V39.8942C43.4957 36.0688 40.5204 31.8184 36.695 30.5432Z" fill="black"/>
<path d="M29.8942 7.16577V0.7901H14.5925V6.74073V7.16577H29.8942Z" fill="black"/>
</svg>
