<svg width="87" height="54" viewBox="0 0 87 54" fill="none" xmlns="http://www.w3.org/2000/svg">
<path d="M78.3473 8.6049C68.1462 -1.59616 51.1445 -1.59616 40.9434 8.6049C30.7423 18.806 30.7423 35.8077 40.9434 46.0088C51.1445 56.2098 68.1462 56.2098 78.3473 46.0088C88.9734 35.8077 88.9734 19.231 78.3473 8.6049ZM75.797 17.1058L49.4443 43.4585C48.1692 44.7337 45.6189 44.7337 43.9187 43.4585C42.6436 42.1834 42.6436 39.6331 43.9187 37.933L70.2714 11.5802C71.5466 10.3051 74.0968 10.3051 75.797 11.5802C77.0722 13.2804 77.0722 15.4056 75.797 17.1058Z" fill="black"/>
<path d="M32.0176 37.9329L9.91529 15.8306C8.64016 14.5554 8.64016 12.4302 9.91529 11.1551C11.1904 9.87995 13.3156 9.87995 14.1657 11.1551L29.8924 26.8817C29.8924 20.081 32.4427 12.8553 37.1182 7.32968C28.6173 0.103925 15.4409 0.103939 6.93999 8.60483C-1.56089 17.1057 -1.56089 31.1322 6.93999 40.0581C14.5908 47.7089 25.6419 48.559 34.5679 43.0334C33.7178 41.7583 32.8677 40.0581 32.0176 37.9329C32.0176 38.3579 32.0176 38.3579 32.0176 37.9329Z" fill="black"/>
</svg>
