<svg width="49" height="95" viewBox="0 0 49 95" fill="none" xmlns="http://www.w3.org/2000/svg">
<path d="M44.2703 37.0918C40.4449 35.3916 36.1945 37.5168 34.4943 41.3422C32.7941 45.1676 34.9194 49.418 38.7448 51.1182C39.5948 51.5432 40.0199 51.5432 40.87 51.5432C44.2703 59.194 40.445 68.5449 32.7942 71.9453C25.1434 75.3456 15.7923 71.5202 12.392 63.8695C11.9669 62.5943 10.2668 61.7443 8.56658 62.1693C7.29145 62.5944 6.44138 64.2945 6.86643 65.9947C8.99165 71.5202 13.2421 75.3457 18.3427 77.4709C23.4432 79.5961 29.3938 79.5961 34.4943 77.4709C45.1204 72.7954 50.221 60.8942 45.9706 49.8431C46.8206 48.993 47.6707 48.1429 48.0958 46.8677C50.221 43.0423 48.0957 38.792 44.2703 37.0918ZM44.6953 45.5927C43.8453 47.2928 42.1451 48.1429 40.0198 47.2928C38.3197 46.4427 37.4696 44.7425 38.3197 42.6173C39.1698 40.9171 40.87 40.067 42.9952 40.4921C44.6954 41.7672 45.5454 43.4674 44.6953 45.5927Z" fill="black"/>
<path d="M28.5429 80.0211C22.1672 80.0211 17.0667 85.1217 17.0667 91.4974H40.019C40.019 85.1217 34.9186 80.0211 28.5429 80.0211Z" fill="black"/>
<path d="M17.9171 38.7919L30.2434 45.1676C30.6684 45.5926 31.0934 45.1675 31.5184 44.7425L41.2945 25.1905C41.7196 24.7655 41.2945 24.3405 40.8695 23.9155L28.5432 17.5398C28.1182 17.1148 27.6931 17.5398 27.268 17.9649L17.4921 37.5167C17.4921 37.9418 17.4921 38.3669 17.9171 38.7919ZM19.6173 37.0918L28.5432 19.665C28.5432 19.24 28.9682 19.24 29.3932 19.24L31.0935 20.0901C31.5186 20.0901 31.5184 20.515 31.5184 20.515H31.0935H30.6684C30.2434 20.515 30.2433 20.5151 29.8183 20.9401L21.7425 37.5167C21.7425 37.9418 21.7425 37.9418 22.1676 38.3669C22.5926 38.3669 22.5926 38.7919 22.5926 38.7919H22.1676L20.4674 37.9418C19.6173 37.5168 19.1922 37.5168 19.6173 37.0918Z" fill="black"/>
<path d="M31.5182 17.1147L39.1692 20.94C39.5942 21.3651 40.0192 20.94 40.4443 20.515L47.6701 5.63844C48.0952 5.21339 47.6701 4.7884 47.2451 4.36336L39.5942 0.537992C39.1692 0.112948 38.7441 0.538018 38.319 0.963062L31.0933 15.8396C31.0933 16.2646 31.0932 16.6896 31.5182 17.1147ZM32.3684 15.8396L39.5942 1.81307C39.5942 1.81307 40.0192 1.38803 40.0192 1.81307L41.2944 2.66321L41.7195 3.08828H41.2944H40.8693L34.0685 16.2645V16.6896L34.4936 17.1147H34.0685L32.7934 16.2645C32.3684 16.2645 32.3684 16.2646 32.3684 15.8396Z" fill="black"/>
<path d="M20.0424 54.9436H20.4674L22.1676 51.5433V51.1182L17.4921 48.9929H17.067L15.3668 52.3933V52.8184L20.0424 54.9436Z" fill="black"/>
<path d="M35.7689 60.4693C35.7689 59.6192 35.344 59.1941 34.9189 59.1941H1.34038C0.915331 59.1941 0.490234 59.6192 0.490234 60.0442V60.4693C0.490234 60.8944 0.915331 61.3193 1.34038 61.3193H34.9189C35.769 60.8943 35.7689 60.8944 35.7689 60.4693Z" fill="black"/>
<path d="M42.5697 92.3475H14.0917C13.6667 92.3475 13.2416 92.7725 13.2416 93.1975V94.0477C13.2416 94.4727 13.6667 94.8977 14.0917 94.8977H42.5697C42.9947 94.8977 43.4198 94.4727 43.4198 94.0477V93.1975C43.4198 92.7725 42.9947 92.3475 42.5697 92.3475Z" fill="black"/>
<path d="M16.6417 46.8678L24.2926 50.6932C24.7177 51.1183 25.1427 50.6932 25.5677 50.2681L27.693 46.0176C28.118 45.5926 27.6929 45.1676 27.2679 44.7426L19.6171 40.9171C19.1921 40.4921 18.7671 40.9172 18.342 41.3422L16.2168 45.5927C16.2168 46.0178 16.2167 46.4427 16.6417 46.8678ZM26.4179 45.1676C26.8429 45.1676 26.8429 45.5927 26.4179 45.5927L24.7177 49.4181C24.7177 49.8432 24.2926 49.8432 24.2926 49.4181C23.8676 49.4181 23.8676 48.993 24.2926 48.993L25.9928 45.1676H26.4179ZM25.1427 44.7426C25.5677 44.7426 25.5677 45.1676 25.1427 45.1676L23.4425 48.993C23.4425 49.4181 23.0174 49.4181 23.0174 48.993C22.5924 48.993 22.5924 48.568 23.0174 48.568L24.7177 44.7426C24.7177 44.7426 25.1427 44.3175 25.1427 44.7426ZM23.8676 43.8924C24.2926 43.8924 24.2926 44.3175 23.8676 44.3175L22.1674 48.1429C22.1674 48.5679 21.7423 48.5679 21.7423 48.1429C21.3173 48.1429 21.3173 47.7179 21.7423 47.7179L23.4425 43.8924H23.8676ZM22.5925 43.0424C23.0175 43.0424 23.0175 43.4675 22.5925 43.4675L20.8922 47.2929C20.8922 47.7179 20.4673 47.7179 20.4673 47.2929C20.0422 47.2929 20.0422 46.8678 20.0422 46.8678L21.7423 43.0424C22.1674 43.0424 22.5925 43.0424 22.5925 43.0424ZM21.3173 42.6173C21.7423 42.6173 21.7423 43.0424 21.3173 43.0424L19.6171 46.8678C19.6171 47.2928 19.192 47.2929 19.192 47.2929C18.767 47.2929 18.767 46.8678 19.192 46.8678L20.8922 43.0424C20.8922 42.6173 20.8922 42.6173 21.3173 42.6173ZM17.4919 45.5927L19.192 41.7672C19.192 41.3421 19.6171 41.3421 19.6171 41.7672C20.0422 41.7672 20.0422 42.1922 19.6171 42.1922L17.917 46.0176C17.917 46.4427 17.4919 46.4427 17.4919 46.4427C17.4919 46.4427 17.4919 46.0178 17.4919 45.5927Z" fill="black"/>
</svg>
