<svg width="32" height="96" viewBox="0 0 32 96" fill="none" xmlns="http://www.w3.org/2000/svg">
<path d="M28.5451 55.1568H28.1201C26.4199 55.1568 26.4198 54.7318 26.4198 53.4567C26.4198 52.1815 26.4198 51.7565 26.4198 51.7565H16.2188H6.01773C6.01773 51.7565 6.01773 52.1815 6.01773 53.4567C6.01773 54.7318 6.01776 55.1568 4.31758 55.1568H3.89251C2.61738 55.1568 1.34229 55.1569 1.34229 58.9823C1.34229 62.8077 1.34229 84.9099 1.34229 89.1603C1.34229 93.4108 1.76733 95.111 5.59272 95.111C9.41812 95.111 12.8184 95.111 16.6438 95.111C20.4692 95.111 23.8696 95.111 27.695 95.111C31.5204 95.111 31.9454 93.8358 31.9454 89.1603C31.9454 84.9099 31.9454 62.8077 31.9454 58.9823C31.0953 55.1569 30.2452 55.1568 28.5451 55.1568ZM29.3951 89.1603C29.3951 93.4108 29.3951 93.4108 27.2699 93.4108H16.2188H5.16765C3.04243 93.4108 3.04243 93.4108 3.04243 89.1603V58.9823C3.04243 57.7071 3.04243 57.282 3.04243 57.282C3.04243 57.282 3.04246 57.282 3.4675 57.282H3.89251H4.31758C7.29289 57.282 8.14295 55.5819 8.14295 53.8817H16.6438H25.1447C25.1447 55.5819 25.5698 57.282 28.9701 57.282H29.3951H29.8202H30.2453C30.2453 57.7071 30.2453 58.1322 30.2453 58.9823V89.1603H29.3951Z" fill="black"/>
<path d="M27.6947 46.231C24.7194 46.231 24.2944 45.806 24.2944 44.1058C23.8693 42.4056 22.1692 21.5784 21.7441 18.1781C21.3191 14.7777 18.7688 13.5026 18.3438 9.25219C18.3438 5.00175 18.3438 0.326233 15.7935 0.326233C17.9187 0.326233 17.4937 5.00175 17.9187 9.25219C17.9187 13.5026 20.044 14.7777 20.469 18.1781C20.894 21.5784 22.1692 42.4056 22.5942 44.1058C22.5942 45.806 23.0192 46.231 25.5695 46.231C28.1198 46.231 28.1198 46.656 28.1198 48.7812C28.1198 49.6313 28.1198 50.0564 28.1198 50.4815H25.1444C25.1444 50.0564 25.1444 49.6313 25.1444 48.7812C25.1444 46.656 25.1444 46.231 23.0192 46.231C20.894 46.231 20.894 45.806 20.894 44.1058C20.894 42.4056 19.6189 21.5784 19.1939 18.1781C19.1939 14.7777 17.4937 13.5026 17.4937 9.25219C17.4937 5.00175 17.4937 0.326233 16.2186 0.326233C13.6683 0.326233 13.6683 5.00175 13.6683 9.25219C13.6683 13.5026 10.693 14.7777 10.2679 18.1781C9.84288 21.5784 7.71771 42.4056 7.71771 44.1058C7.29266 45.806 7.29265 46.231 4.31735 46.231C1.34205 46.231 0.916992 46.656 0.916992 48.7812C0.916992 50.9065 0.916992 51.3315 0.916992 51.3315H16.2186H31.5201C31.5201 51.3315 31.5201 50.9065 31.5201 48.7812C31.5201 46.656 31.0951 46.231 27.6947 46.231Z" fill="black"/>
<path d="M24.7196 62.3828V60.6826C24.7196 59.4075 23.8695 58.5574 22.5943 58.5574H9.418C8.14287 58.5574 7.29279 59.4075 7.29279 60.6826V62.3828H4.3175C4.3175 70.4587 4.3175 89.1605 4.3175 89.1605C4.3175 89.5856 4.3175 90.8607 4.3175 91.2858H27.2698C27.2698 90.4357 27.2698 89.5856 27.2698 89.1605C27.2698 89.1605 27.2698 70.8837 27.2698 62.3828H24.7196ZM23.8695 79.3846C23.8695 80.2347 23.4444 80.6597 22.5943 80.6597H9.418C8.56792 80.6597 8.14286 80.2347 8.14286 79.3846V61.1077C8.14286 60.2576 8.56792 59.8325 9.418 59.8325H22.5943C23.4444 59.8325 23.8695 60.2576 23.8695 61.1077V79.3846Z" fill="black"/>
</svg>
