<svg width="63" height="84" viewBox="0 0 63 84" fill="none" xmlns="http://www.w3.org/2000/svg">
<path d="M48.6701 13.3406H13.8165C6.1657 13.3406 0.215088 19.2912 0.215088 26.942V68.1712H62.6966V26.942C62.2715 19.7162 56.3209 13.3406 48.6701 13.3406ZM5.74068 26.942C5.74068 22.6915 9.14101 18.8662 13.8165 18.8662H48.6701C52.9206 18.8662 56.746 22.2665 56.746 26.942V40.5434H5.74068V26.942ZM9.56605 59.6703C7.01578 59.6703 4.8906 57.5451 4.8906 54.9949C4.8906 52.4446 7.01578 50.3194 9.56605 50.3194C12.1163 50.3194 14.2416 52.4446 14.2416 54.9949C13.8165 57.5451 12.1163 59.6703 9.56605 59.6703ZM36.7689 54.5698L40.5943 56.695C40.5943 56.695 41.0193 57.1201 40.5943 57.1201L38.4691 60.9455C38.4691 60.9455 38.044 61.3705 38.044 60.9455L34.2186 58.8203C34.2186 58.8203 33.7936 58.8203 33.7936 59.2453V63.4958C33.7936 63.9208 33.7936 63.9208 33.3686 63.9208H29.1181C28.6931 63.9208 28.693 63.9208 28.693 63.4958V59.2453C28.693 58.8203 28.6931 58.8203 28.268 58.8203L24.4426 60.9455H24.0176L21.8924 57.1201V56.695L25.7177 54.5698V54.1447L21.8924 52.0195C21.8924 52.0195 21.4673 51.5945 21.8924 51.5945L24.0176 47.7691C24.0176 47.7691 24.4426 47.344 24.4426 47.7691L28.268 49.8943H28.693V45.6439C28.693 45.2188 28.6931 45.2189 29.1181 45.2189H33.3686C33.7936 45.2189 33.7936 45.2188 33.7936 45.6439V49.8943C33.7936 50.3194 33.7936 50.3194 34.2186 49.8943L38.044 47.7691H38.4691L40.5943 51.5945V52.0195L36.7689 54.1447C36.7689 54.1447 36.7689 54.1448 36.7689 54.5698ZM52.9206 59.6703C50.3703 59.6703 48.2451 57.5451 48.2451 54.9949C48.2451 52.4446 50.3703 50.3194 52.9206 50.3194C55.4708 50.3194 57.5961 52.4446 57.5961 54.9949C57.5961 57.5451 55.4708 59.6703 52.9206 59.6703Z" fill="black"/>
<path d="M35.9186 4.83956C35.9186 2.2893 33.7934 0.164062 31.2431 0.164062C28.6929 0.164062 26.5676 2.2893 26.5676 4.83956V11.2152H35.9186V4.83956Z" fill="black"/>
<path d="M3.19031 79.2224C3.19031 81.7726 5.31554 83.8978 7.86579 83.8978C10.416 83.8978 12.5412 81.7726 12.5412 79.2224V69.8713H3.19031V79.2224Z" fill="black"/>
<path d="M49.5205 79.2224C49.5205 81.7726 51.6457 83.8978 54.196 83.8978C56.7462 83.8978 58.8715 81.7726 58.8715 79.2224V69.8713H49.5205V79.2224Z" fill="black"/>
</svg>
