<svg width="83" height="27" viewBox="0 0 83 27" fill="none" xmlns="http://www.w3.org/2000/svg">
<path d="M63.8835 0.317505C54.9576 0.317505 47.7319 4.56795 45.6067 10.0935C43.4815 7.9683 40.9312 5.41801 36.2557 5.41801C30.7301 5.41801 28.1799 8.8184 26.0546 11.3687C23.9294 13.9189 22.6543 15.6191 19.679 15.6191C16.7037 15.6191 15.4285 14.344 13.3033 11.3687C11.1781 8.8184 8.20279 5.41801 3.10226 5.41801C1.82713 5.41801 0.552002 6.69317 0.552002 7.9683C0.552002 9.24343 1.82713 10.5185 3.10226 10.5185C6.07757 10.5185 7.3527 11.7937 9.47792 14.769C11.6031 17.3192 14.5785 20.7196 19.679 20.7196C25.2046 20.7196 27.7548 17.3192 29.88 14.769C32.0053 12.2187 33.2804 10.5185 36.2557 10.5185C39.231 10.5185 40.5061 11.7937 42.6314 14.769C43.4815 16.0441 44.7566 17.3193 46.4568 18.5944C49.4321 23.2699 55.8077 26.2452 63.4585 26.2452C73.6596 26.2452 82.1604 20.7196 82.1604 13.4939C82.5855 5.8431 74.5096 0.317505 63.8835 0.317505Z" fill="black"/>
</svg>
