<svg width="76" height="68" viewBox="0 0 76 68" fill="none" xmlns="http://www.w3.org/2000/svg">
<path d="M68.5468 23.6049H4.36519C1.81492 23.6049 0.114746 25.7301 0.114746 27.8554C0.114746 29.9806 2.23997 32.1058 4.36519 32.1058H7.76556C9.89078 46.1322 21.792 57.1833 36.6685 57.1833C51.5451 57.1833 63.4463 46.1322 65.5715 32.1058H68.9719C71.5222 32.1058 73.2224 29.9806 73.2224 27.8554C73.2224 25.7301 70.6721 23.6049 68.5468 23.6049Z" fill="black"/>
<path d="M58.3454 58.8835H14.5659C12.0156 58.8835 10.3154 61.0088 10.3154 63.134C10.3154 65.6842 12.4407 67.3844 14.5659 67.3844H58.3454C60.8957 67.3844 62.5959 65.2592 62.5959 63.134C62.5959 60.5837 60.4707 58.8835 58.3454 58.8835Z" fill="black"/>
<path d="M74.4973 1.92759C72.7971 0.227423 70.2468 0.227423 68.5466 1.92759L49.8447 20.6295H62.171L74.9223 7.87823C76.1974 6.17806 76.1975 3.62777 74.4973 1.92759Z" fill="black"/>
</svg>
