<svg width="69" height="71" viewBox="0 0 69 71" fill="none" xmlns="http://www.w3.org/2000/svg">
<path d="M54.7217 34.8941L67.8981 27.2434C68.7482 26.8183 68.7482 25.9682 68.3231 25.1181L60.2473 11.5167C59.8222 10.6666 58.9722 10.6666 58.1221 11.0917L44.9457 18.7425C44.0956 19.1675 43.6706 18.7425 43.6706 17.8924V2.59081C43.6706 1.74072 42.8205 0.890625 41.9704 0.890625H26.2438C25.3937 0.890625 24.5436 1.74072 24.5436 2.59081V17.8924C24.5436 18.7425 24.1185 19.1675 23.2684 18.7425L10.5171 11.0917C9.66703 10.6666 8.81694 11.0917 8.3919 11.5167L0.316054 25.1181C-0.10899 25.9682 0.316063 26.8183 0.741108 27.2434L13.9175 34.8941C14.7676 35.3192 14.7676 36.1693 13.9175 36.5943L0.741108 44.2451C-0.108981 44.6702 -0.10899 45.5203 0.316054 46.3703L8.3919 59.9718C8.81694 60.8218 9.66703 60.8218 10.5171 60.3968L23.6935 52.746C24.5436 52.321 24.9686 52.746 24.9686 53.5961V68.8977C24.9686 69.7478 25.8187 70.5979 26.6688 70.5979H42.3954C43.2455 70.5979 44.0956 69.7478 44.0956 68.8977V53.5961C44.0956 52.746 44.5207 52.321 45.3707 52.746L58.5471 60.3968C59.3972 60.8218 60.2473 60.3968 60.6723 59.9718L68.3231 46.3703C68.7482 45.5203 68.3231 44.6702 67.8981 44.2451L54.7217 36.5943C53.8716 36.1693 53.8716 35.3192 54.7217 34.8941Z" fill="black"/>
</svg>
