<svg width="45" height="79" viewBox="0 0 45 79" fill="none" xmlns="http://www.w3.org/2000/svg">
<path d="M44.8835 22.7426C44.8835 10.4163 35.1075 0.640259 22.7812 0.640259C10.455 0.640259 0.678955 10.4163 0.678955 22.7426C0.678955 33.7937 9.17984 43.1447 19.806 44.4198V58.0212H8.7548C7.05463 58.0212 5.77947 59.2964 5.77947 60.9965C5.77947 62.6967 7.05463 63.9718 8.7548 63.9718H19.806V75.8731C19.806 77.5733 21.0811 78.8484 22.7812 78.8484C24.4814 78.8484 25.7565 77.5733 25.7565 75.8731V63.9718H36.8077C38.5079 63.9718 39.783 62.6967 39.783 60.9965C39.783 59.2964 38.5079 58.0212 36.8077 58.0212H25.7565V44.4198C36.8077 43.1447 44.8835 33.7937 44.8835 22.7426ZM22.7812 38.4692C13.8553 38.4692 6.62958 31.2435 6.62958 22.3175C6.62958 13.3916 13.8553 6.16585 22.7812 6.16585C31.7072 6.16585 38.9329 13.3916 38.9329 22.3175C38.9329 31.6685 31.7072 38.4692 22.7812 38.4692Z" fill="black"/>
</svg>
