<svg width="48" height="73" viewBox="0 0 48 73" fill="none" xmlns="http://www.w3.org/2000/svg">
<path d="M44.8709 0.940063H2.79147C1.51634 0.940063 0.241211 2.21522 0.241211 3.49035V13.2663C0.241211 14.5414 1.51634 15.8166 2.79147 15.8166H44.8709C46.146 15.8166 47.4211 14.5414 47.4211 13.2663V3.49035C47.4211 2.21522 46.146 0.940063 44.8709 0.940063ZM4.06662 14.1164C4.06662 14.5415 3.64155 14.9665 3.21651 14.9665C2.79146 14.9665 2.36643 14.5415 2.36643 14.1164V3.06528C2.36643 2.64024 2.79146 2.21521 3.21651 2.21521C3.64155 2.21521 4.06662 2.64024 4.06662 3.06528V14.1164ZM7.89199 14.1164C7.89199 14.5415 7.46696 14.9665 7.04192 14.9665C6.61687 14.9665 6.19184 14.5415 6.19184 14.1164V3.06528C6.19184 2.64024 6.61687 2.21521 7.04192 2.21521C7.46696 2.21521 7.89199 2.64024 7.89199 3.06528V14.1164ZM11.7174 14.1164C11.7174 14.5415 11.2924 14.9665 10.8673 14.9665C10.4423 14.9665 10.0172 14.5415 10.0172 14.1164V3.06528C10.0172 2.64024 10.4423 2.21521 10.8673 2.21521C11.2924 2.21521 11.7174 2.64024 11.7174 3.06528V14.1164ZM15.1178 14.1164C15.1178 14.5415 14.6927 14.9665 14.2677 14.9665C13.8426 14.9665 13.4176 14.5415 13.4176 14.1164V3.06528C13.4176 2.64024 13.8426 2.21521 14.2677 2.21521C14.6927 2.21521 15.1178 2.64024 15.1178 3.06528V14.1164ZM18.9432 14.1164C18.9432 14.5415 18.5181 14.9665 18.0931 14.9665C17.668 14.9665 17.243 14.5415 17.243 14.1164V3.06528C17.243 2.64024 17.668 2.21521 18.0931 2.21521C18.5181 2.21521 18.9432 2.64024 18.9432 3.06528V14.1164ZM22.7685 14.1164C22.7685 14.5415 22.3435 14.9665 21.9185 14.9665C21.4934 14.9665 21.0684 14.5415 21.0684 14.1164V3.06528C21.0684 2.64024 21.4934 2.21521 21.9185 2.21521C22.3435 2.21521 22.7685 2.64024 22.7685 3.06528V14.1164ZM26.1689 14.1164C26.1689 14.5415 25.7439 14.9665 25.3188 14.9665C24.8938 14.9665 24.4687 14.5415 24.4687 14.1164V3.06528C24.4687 2.64024 24.8938 2.21521 25.3188 2.21521C25.7439 2.21521 26.1689 2.64024 26.1689 3.06528V14.1164ZM29.9943 14.1164C29.9943 14.5415 29.5693 14.9665 29.1442 14.9665C28.7192 14.9665 28.2941 14.5415 28.2941 14.1164V3.06528C28.2941 2.64024 28.7192 2.21521 29.1442 2.21521C29.5693 2.21521 29.9943 2.64024 29.9943 3.06528V14.1164ZM33.8197 14.1164C33.8197 14.5415 33.3947 14.9665 32.9696 14.9665C32.5446 14.9665 32.1195 14.5415 32.1195 14.1164V3.06528C32.1195 2.64024 32.5446 2.21521 32.9696 2.21521C33.3947 2.21521 33.8197 2.64024 33.8197 3.06528V14.1164ZM37.2201 14.1164C37.2201 14.5415 36.795 14.9665 36.37 14.9665C35.9449 14.9665 35.5199 14.5415 35.5199 14.1164V3.06528C35.5199 2.64024 35.9449 2.21521 36.37 2.21521C36.795 2.21521 37.2201 2.64024 37.2201 3.06528V14.1164ZM41.0455 14.1164C41.0455 14.5415 40.6204 14.9665 40.1954 14.9665C39.7704 14.9665 39.3453 14.5415 39.3453 14.1164V3.06528C39.3453 2.64024 39.7704 2.21521 40.1954 2.21521C40.6204 2.21521 41.0455 2.64024 41.0455 3.06528V14.1164ZM44.4458 14.1164C44.4458 14.5415 44.0208 14.9665 43.5957 14.9665C43.1707 14.9665 42.7457 14.5415 42.7457 14.1164V3.06528C42.7457 2.64024 43.1707 2.21521 43.5957 2.21521C44.0208 2.21521 44.4458 2.64024 44.4458 3.06528V14.1164Z" fill="black"/>
<path d="M41.8958 17.9418H5.34201C4.06687 17.9418 2.79175 19.2169 2.79175 20.4921L4.06689 70.2223C4.06689 71.4974 5.34202 72.7725 6.61715 72.7725H39.7706C41.0457 72.7725 42.3209 71.4974 42.3209 70.2223L43.596 20.4921C44.4461 18.7919 43.1709 17.9418 41.8958 17.9418ZM35.5201 54.9207C35.5201 56.6208 34.245 57.896 32.5448 57.896H14.693C12.9928 57.896 11.7177 56.6208 11.7177 54.9207V27.7178C11.7177 26.0176 12.9928 24.7425 14.693 24.7425H32.5448C34.245 24.7425 35.5201 26.0176 35.5201 27.7178V54.9207Z" fill="black"/>
</svg>
