<svg width="75" height="72" viewBox="0 0 75 72" fill="none" xmlns="http://www.w3.org/2000/svg">
<path d="M68.7093 11.1041L51.2825 1.75314C48.7322 0.478012 46.1819 0.477993 43.2066 0.903037C35.9809 1.75313 29.1802 6.42862 28.7552 6.42862C28.3301 6.42862 21.5294 3.87835 14.3036 4.72844C7.50292 5.57853 0.702266 10.254 0.277222 23.4304C0.277222 44.6826 17.2789 56.5838 24.9297 60.8343L42.3565 70.1852C44.4818 71.4604 45.7569 71.8854 46.1819 71.8854C47.4571 71.0353 74.6599 51.9083 74.6599 24.7055C74.6599 17.0547 72.1096 13.2293 68.7093 11.1041ZM45.7569 67.6349C39.3813 64.6596 21.9544 53.6085 21.9544 33.2064C21.9544 21.3052 27.905 19.18 32.5805 18.3299C33.4306 18.3299 34.7057 18.3299 35.5558 18.3299C40.6563 18.3299 44.9068 19.605 45.3318 20.03L47.0321 20.4551L48.7322 19.605C49.5823 19.1799 55.5329 15.3546 61.9086 14.5045C62.7587 14.5045 63.1837 14.5045 64.0338 14.5045C66.159 14.5045 67.8592 14.9295 68.7093 16.2046C70.4094 17.9048 71.2596 21.3052 71.2596 25.5556C70.8345 46.3828 52.1326 62.9594 45.7569 67.6349Z" fill="black"/>
</svg>
