<svg width="57" height="80" viewBox="0 0 57 80" fill="none" xmlns="http://www.w3.org/2000/svg">
<path d="M41.921 0.313965C40.6458 0.313965 39.3707 0.313991 38.0956 0.739036C35.1203 1.58913 31.7199 2.43921 28.3196 2.86426C24.9192 2.43921 21.5189 1.58913 18.5435 0.739036C17.2684 0.313991 15.9933 0.313965 14.7182 0.313965C10.0427 0.313965 5.36718 2.01414 2.39187 8.81486C-1.00848 17.3158 1.11673 27.9418 2.81691 36.0177C4.51709 44.5186 6.21728 54.2946 6.21728 61.9454C6.21728 69.5963 8.76753 79.3723 14.2931 79.3723C19.8187 79.3723 20.6688 70.8714 22.794 59.8202C24.9192 48.7691 28.3196 48.3441 28.3196 48.3441C28.3196 48.3441 31.7199 48.344 33.8451 59.8202C35.9704 71.2964 36.8204 79.3723 42.346 79.3723C47.8716 79.3723 50.4218 69.5963 50.4218 61.9454C50.4218 54.2946 52.122 44.5186 53.8222 36.0177C55.5224 27.5168 57.6476 17.3158 54.2473 8.81486C51.697 2.01414 46.5965 0.313965 41.921 0.313965ZM50.4218 32.6174C50.4218 33.4675 49.9968 33.8925 49.9968 34.7426C48.2966 43.2435 46.5965 53.0196 46.5965 61.0954C46.5965 69.1713 44.0462 74.6968 42.346 74.6968C40.2208 74.6968 38.9457 66.621 38.0956 60.2453L37.6705 58.1201C35.5453 45.3687 30.8698 43.6686 28.3196 43.6686C25.7693 43.6686 21.0938 45.3687 18.9686 58.1201L18.5435 60.2453C17.6935 66.1959 15.9933 74.6968 14.2931 74.6968C13.018 74.6968 10.0427 69.1713 10.0427 61.0954C10.0427 53.0196 8.34249 43.2435 6.64231 34.7426C6.64231 33.8925 6.21728 33.4675 6.21728 32.6174C4.94214 24.9666 3.24196 16.4657 5.79222 9.665C7.4924 5.8396 10.4677 3.7144 14.2931 3.7144C15.1432 3.7144 16.4183 3.7143 17.2684 4.13934C18.1185 4.56439 19.3936 4.56444 20.2437 4.98948C22.3689 5.41453 24.4942 5.83952 27.0444 6.26456H27.8945H28.7446C30.8698 5.83952 33.4201 5.41453 35.5453 4.98948C36.8204 4.56444 37.6705 4.56439 38.5206 4.13934C39.7957 3.7143 40.6458 3.7144 41.4959 3.7144C45.7464 3.7144 48.2966 5.8396 49.9968 9.665C53.3972 16.4657 51.697 24.9666 50.4218 32.6174Z" fill="black"/>
</svg>
