<svg width="21" height="93" viewBox="0 0 21 93" fill="none" xmlns="http://www.w3.org/2000/svg">
<path d="M14.0688 89.5115C13.2187 89.5115 13.6437 90.7866 11.9436 91.2116C10.2434 91.6367 9.81836 91.2117 9.81836 92.0617C9.81836 93.3369 10.2434 92.9118 12.3686 92.9118C14.4938 92.4868 14.9188 89.5115 14.0688 89.5115Z" fill="black"/>
<path d="M14.0687 72.9347C14.0687 74.2099 14.9188 76.7601 12.7935 78.0353C10.6683 79.3104 7.69299 81.0106 7.69299 83.1358C7.69299 85.261 8.54313 86.1111 9.39322 85.261C9.81827 84.4109 8.11804 83.1358 11.9435 81.4356C15.7689 79.7354 17.044 78.8853 17.044 75.91C16.1939 73.3598 13.6436 71.6596 14.0687 72.9347Z" fill="black"/>
<path d="M14.4939 55.0829C13.6438 55.0829 14.0689 56.3581 14.0689 58.9083C14.0689 61.4586 14.4939 61.8837 11.5186 62.7337C8.54332 63.5838 4.7179 64.0089 4.7179 68.2593C4.7179 72.0847 7.69319 73.7849 7.69319 72.9348C7.69319 69.9595 8.96835 68.2593 12.3687 67.4092C15.7691 66.5591 17.8943 64.859 17.8943 61.0336C18.3193 56.7831 15.344 55.0829 14.4939 55.0829Z" fill="black"/>
<path d="M15.3435 35.1058C14.0684 35.1058 14.4935 38.0811 14.4935 41.0565C14.4935 44.0318 13.2184 43.6067 9.39297 44.4568C5.56759 45.3069 3.44238 47.4321 3.01733 51.6826C3.01733 56.358 7.26772 58.4833 7.69277 58.0582C8.11781 57.6332 7.69279 50.8325 12.3683 50.4074C16.6187 49.9824 20.019 47.4321 20.019 42.7566C20.019 38.0811 16.6187 35.1058 15.3435 35.1058Z" fill="black"/>
<path d="M13.2188 67.4091C10.2434 68.2592 8.96826 69.9594 8.96826 72.5097V72.9347C8.96826 75.0599 8.96826 77.1851 8.96826 79.3104C9.81836 78.8853 10.6684 78.0352 11.9436 77.6102C12.3686 77.1851 12.7937 76.7601 13.2188 76.3351C13.2188 75.485 13.2188 74.6349 13.2188 74.2098C13.2188 73.7848 13.2188 73.7848 13.2188 73.3597C13.2188 72.9347 13.2188 72.9347 13.2188 72.9347C13.2188 70.8095 13.2188 69.1093 13.2188 67.4091Z" fill="black"/>
<path d="M13.6431 31.7054C12.793 31.2804 11.5179 31.2804 10.6678 30.4303C9.39264 29.5802 8.54256 29.1552 8.54256 29.1552C8.11751 29.1552 8.11755 29.1552 8.11755 29.1552C8.11755 30.8553 8.11755 32.1305 8.11755 33.8306C8.11755 36.3809 8.5426 39.3562 8.11755 40.6313C8.11755 41.4814 8.11755 42.7566 8.11755 43.6067C8.5426 43.6067 8.54258 43.6067 8.96763 43.6067C9.81771 43.6067 10.2427 43.1816 10.6678 43.1816C12.3679 42.7566 13.2181 42.7566 13.2181 41.9065C13.2181 40.6313 13.2181 39.7813 13.2181 38.5061C13.2181 37.656 13.2181 37.231 13.2181 36.3809C13.6431 35.1058 13.6431 33.4056 13.6431 31.7054Z" fill="black"/>
<path d="M11.943 90.3616C12.3681 90.3616 12.7931 89.9366 12.7931 89.5115C12.7931 86.9613 12.7931 84.411 12.7931 81.8607C12.3681 82.2858 11.9431 82.2858 11.518 82.7108C9.39282 83.9859 9.39282 84.411 9.39282 84.836C9.39282 85.2611 9.39282 85.6861 9.39282 86.1112C9.39282 87.8113 9.39282 89.5115 9.39282 90.7867C9.81786 90.3616 10.6679 90.3616 11.093 89.9366C11.093 90.3616 11.518 90.3616 11.943 90.3616Z" fill="black"/>
<path d="M11.5183 61.8836C12.7935 61.4586 13.2185 61.4586 13.2185 61.0335C13.2185 57.6332 13.2185 54.6579 13.2185 51.2575C12.7935 51.2575 12.3684 51.2575 11.9434 51.2575C9.39307 51.2575 8.54297 54.6579 8.54297 57.2081C8.54297 57.6332 8.54297 57.6332 8.54297 58.0582C8.54297 59.3333 8.54297 61.0335 8.54297 62.3087C8.96802 62.3087 9.81815 61.8836 10.2432 61.8836C10.6682 62.3087 11.0933 61.8836 11.5183 61.8836Z" fill="black"/>
<path d="M8.11815 13.4286C8.11815 16.4039 8.11815 18.9541 8.11815 21.9294C8.96824 21.9294 10.2434 21.5044 11.0935 21.5044C11.9435 21.5044 12.7936 21.5044 13.2187 21.5044H13.6438C13.6438 18.5291 13.6438 15.9788 13.6438 13.0035C15.769 11.7284 17.0441 9.60317 17.0441 7.0529C17.0441 3.22751 14.0688 0.252197 10.2434 0.252197C6.41797 0.252197 3.44263 3.22751 3.44263 7.0529C4.29272 10.0282 5.99293 12.1534 8.11815 13.4286Z" fill="black"/>
<path d="M7.69273 41.4814C8.11778 41.0563 7.69277 34.6807 7.26773 31.2803C6.84268 27.88 8.9679 27.88 11.5182 29.5801C14.0684 31.2803 15.7686 30.8553 18.3188 31.2803C20.8691 31.7054 20.4441 30.0052 19.594 28.305C18.7439 26.6048 17.4688 23.2045 13.2183 22.3544C8.96788 21.5043 1.31708 22.7794 0.466996 30.4302C-0.383092 38.5061 7.26769 41.9064 7.69273 41.4814ZM15.7686 26.6048C16.1937 27.0299 16.6187 27.4549 16.6187 27.4549C16.6187 27.4549 15.7686 27.4549 15.3435 27.4549C14.9185 27.0299 14.4935 26.6048 14.4935 26.6048C14.4935 26.1798 14.9185 26.6048 15.7686 26.6048Z" fill="black"/>
</svg>
