<svg width="16" height="99" viewBox="0 0 16 99" fill="none" xmlns="http://www.w3.org/2000/svg">
<path d="M8.25583 0.289246C4.00536 0.289246 0.60498 3.68961 0.60498 7.94005V63.1958C0.60498 66.1711 2.30517 68.7213 4.85544 69.9965V94.649C4.85544 96.3492 6.1306 98.0494 8.25583 98.0494C9.95601 98.0494 11.6562 96.7742 11.6562 94.649V69.9965C14.2065 68.7213 15.9067 66.1711 15.9067 63.1958V7.94005C15.9067 3.68961 12.5063 0.289246 8.25583 0.289246ZM14.2065 63.1958C14.2065 65.321 12.9313 67.4462 10.8061 68.2963L9.95599 68.7213V69.9965V89.5485H9.10591V62.7707H11.6562C12.0813 62.7707 12.0812 62.7707 12.0812 62.3457C12.0812 61.9206 12.0813 61.9206 11.6562 61.9206H9.10591V56.8201H11.6562C12.0813 56.8201 12.0812 56.8201 12.0812 56.3951C12.0812 55.97 12.0813 55.97 11.6562 55.97H9.10591V50.8695H11.6562C12.0813 50.8695 12.0812 50.8695 12.0812 50.4445C12.0812 50.0194 12.0813 50.0194 11.6562 50.0194H9.10591V44.9189H11.6562C12.0813 44.9189 12.0812 44.9189 12.0812 44.4938C12.0812 44.0688 12.0813 44.0688 11.6562 44.0688H9.10591V38.9683H11.6562C12.0813 38.9683 12.0812 38.9683 12.0812 38.5432C12.0812 38.1182 12.0813 38.1182 11.6562 38.1182H9.10591V33.0176H11.6562C12.0813 33.0176 12.0812 33.0176 12.0812 32.5926C12.0812 32.1675 12.0813 32.1675 11.6562 32.1675H9.10591V27.067H11.6562C12.0813 27.067 12.0812 27.067 12.0812 26.642C12.0812 26.2169 12.0813 26.2169 11.6562 26.2169H9.10591V21.5414H11.6562C12.0813 21.5414 12.0812 21.5415 12.0812 21.1164C12.0812 20.6914 12.0813 20.6914 11.6562 20.6914H9.10591V15.5908H11.6562C12.0813 15.5908 12.0812 15.5908 12.0812 15.1658C12.0812 14.7407 12.0813 14.7408 11.6562 14.7408H9.10591V9.6402C10.381 9.21516 11.2311 7.94004 11.2311 6.66491C11.2311 4.96473 9.95601 3.68961 8.25583 3.68961C6.55564 3.68961 5.28052 4.96473 5.28052 6.66491C5.28052 7.94004 6.13061 9.21516 7.40575 9.6402V14.7408H4.85544C4.4304 14.7408 4.43037 14.7407 4.43037 15.1658C4.43037 15.5908 4.4304 15.5908 4.85544 15.5908H7.40575V20.6914H4.85544C4.4304 20.6914 4.43037 20.6914 4.43037 21.1164C4.43037 21.5415 4.4304 21.5414 4.85544 21.5414H7.40575V26.642H4.85544C4.4304 26.642 4.43037 26.642 4.43037 27.067C4.43037 27.4921 4.4304 27.4921 4.85544 27.4921H7.40575V32.5926H4.85544C4.4304 32.5926 4.43037 32.5926 4.43037 33.0176C4.43037 33.4427 4.4304 33.4427 4.85544 33.4427H7.40575V38.5432H4.85544C4.4304 38.5432 4.43037 38.5432 4.43037 38.9683C4.43037 39.3933 4.4304 39.3933 4.85544 39.3933H7.40575V44.4938H4.85544C4.4304 44.4938 4.43037 44.4938 4.43037 44.9189C4.43037 45.3439 4.4304 45.3439 4.85544 45.3439H7.40575V50.4445H4.85544C4.4304 50.4445 4.43037 50.4445 4.43037 50.8695C4.43037 51.2945 4.4304 51.2945 4.85544 51.2945H7.40575V56.3951H4.85544C4.4304 56.3951 4.43037 56.3951 4.43037 56.8201C4.43037 57.2452 4.4304 57.2452 4.85544 57.2452H7.40575V62.3457H4.85544C4.4304 62.3457 4.43037 62.3457 4.43037 62.7707C4.43037 63.1958 4.4304 63.1958 4.85544 63.1958H7.40575V89.9735H6.5556V70.4215V69.1464L5.70552 68.7213C3.58029 67.8712 2.30514 65.746 2.30514 63.6208V8.36509C2.30514 5.38978 4.85543 2.8395 7.83076 2.8395C10.8061 2.8395 13.3564 5.38978 13.3564 8.36509V63.1958H14.2065Z" fill="black"/>
</svg>
