<svg width="59" height="78" viewBox="0 0 59 78" fill="none" xmlns="http://www.w3.org/2000/svg">
<path d="M45.2947 47.2451L50.8202 13.2416C51.6703 11.9664 52.0955 10.2662 52.0955 8.56607C52.0955 3.89058 48.2701 0.0651855 43.5946 0.0651855C38.9191 0.0651855 35.0937 3.89058 35.0937 8.56607C35.0937 13.2416 38.494 16.6419 42.7444 17.067L41.0443 26.843H24.0425C21.9173 26.843 20.2171 28.5431 20.2171 30.6684C20.2171 32.7936 21.9173 34.4938 24.0425 34.4938H39.7691L38.9191 39.5943H20.2171L11.7163 64.2469L5.76554 62.5467C3.64032 62.1216 1.5152 62.9717 1.09016 65.097C0.665111 67.2222 1.5151 69.3474 3.64032 69.7724L16.3916 73.5978L25.3176 47.2451H45.2947Z" fill="black"/>
<path d="M49.1197 36.194L47.8446 44.6948C50.3949 47.2451 51.67 51.0705 51.67 54.8959C51.67 63.3968 44.8693 70.1975 36.3684 70.1975C30.8428 70.1975 25.7423 67.2222 23.192 62.1216L20.2168 70.6225C24.4672 74.873 30.4178 77.4232 36.3684 77.4232C48.6946 77.4232 58.8956 67.2222 58.8956 54.8959C59.3207 47.2451 55.4953 40.4444 49.1197 36.194Z" fill="black"/>
</svg>
