<svg width="30" height="88" viewBox="0 0 30 88" fill="none" xmlns="http://www.w3.org/2000/svg">
<path d="M8.7305 21.1534H19.7816C21.4818 21.1534 22.7568 19.8782 23.1819 18.178V17.753H4.90515V18.178C5.75523 19.8782 7.45537 21.1534 8.7305 21.1534Z" fill="black"/>
<path d="M4.47949 12.2275H24.4565L25.7316 3.72658C26.1567 2.0264 24.8815 0.751282 23.1814 0.751282H5.75463C4.05446 0.751282 3.20435 2.0264 3.20435 3.72658L4.47949 12.2275Z" fill="black"/>
<path d="M27.4321 13.5026H1.5044C0.654306 13.5026 0.229248 13.9276 0.229248 14.7777V73.0087C0.229248 81.0846 6.6049 87.4602 14.6808 87.4602C22.7566 87.4602 29.1323 81.0846 29.1323 73.0087V14.7777C28.7073 14.3527 28.2822 13.5026 27.4321 13.5026ZM26.157 73.0087C26.157 79.3844 21.0565 84.91 14.2557 84.91C7.88007 84.91 2.35447 79.8094 2.35447 73.0087V16.0528H25.732V73.0087H26.157Z" fill="black"/>
<path d="M14.2555 83.2098C19.7811 83.2098 24.4565 78.5344 24.4565 73.0088V47.5062H4.05432V73.0088C4.47937 78.9594 8.72987 83.2098 14.2555 83.2098Z" fill="black"/>
</svg>
