<svg width="59" height="95" viewBox="0 0 59 95" fill="none" xmlns="http://www.w3.org/2000/svg">
<path d="M47.5328 47.3686C47.5328 46.0934 46.6828 45.2433 45.4076 45.2433H13.5294C12.2543 45.2433 11.4042 46.0934 11.4042 47.3686C11.4042 48.6437 12.2543 49.4938 13.5294 49.4938H45.4076C46.6828 49.9188 47.5328 48.6437 47.5328 47.3686Z" fill="black"/>
<path d="M47.5328 2.73892C47.5328 1.46379 46.6828 0.613708 45.4076 0.613708H13.5294C12.2543 0.613708 11.4042 1.46379 11.4042 2.73892C11.4042 4.01405 12.2543 4.86414 13.5294 4.86414H45.4076C46.6828 5.28918 47.5328 4.01405 47.5328 2.73892Z" fill="black"/>
<path d="M11.4042 91.9982C11.4042 93.2733 12.2543 94.1234 13.5294 94.1234H45.4076C46.6828 94.1234 47.5328 93.2733 47.5328 91.9982C47.5328 90.7231 46.6828 89.873 45.4076 89.873H13.5294C12.2543 89.873 11.4042 90.7231 11.4042 91.9982Z" fill="black"/>
<path d="M20.755 41.843H38.1818C39.4569 41.843 40.307 40.9929 40.307 39.7178C40.307 38.4427 39.4569 37.5926 38.1818 37.5926H20.755C19.4799 37.5926 18.6298 38.4427 18.6298 39.7178C18.6298 40.9929 19.4799 41.843 20.755 41.843Z" fill="black"/>
<path d="M40.307 9.96472C40.307 8.68958 39.4569 7.83948 38.1818 7.83948H20.755C19.4799 7.83948 18.6298 8.68958 18.6298 9.96472C18.6298 11.2399 19.4799 12.09 20.755 12.09H38.1818C39.4569 12.09 40.307 10.8148 40.307 9.96472Z" fill="black"/>
<path d="M40.307 55.0193C40.307 53.7442 39.4569 52.8942 38.1818 52.8942H20.755C19.4799 52.8942 18.6298 53.7442 18.6298 55.0193C18.6298 56.2945 19.4799 57.1445 20.755 57.1445H38.1818C39.4569 57.1445 40.307 56.2945 40.307 55.0193Z" fill="black"/>
<path d="M18.6298 83.9223C18.6298 85.1974 19.4799 86.0475 20.755 86.0475H38.1818C39.4569 86.0475 40.307 85.1974 40.307 83.9223C40.307 82.6472 39.4569 81.7971 38.1818 81.7971H20.755C19.4799 81.7971 18.6298 82.6472 18.6298 83.9223Z" fill="black"/>
<path d="M25.856 75.8466C22.8806 74.5714 19.9053 73.2963 16.93 71.5961C8.85416 75.8466 2.4785 81.3722 1.20337 89.8731C3.32859 91.5732 5.87884 92.8483 8.42911 93.6984C8.85416 93.2734 8.85418 92.4233 8.85418 91.9983C8.85418 84.7725 16.505 80.097 25.856 75.8466Z" fill="black"/>
<path d="M27.9811 28.6665C39.4573 33.7671 50.0834 38.8676 50.0834 47.3685C50.0834 54.5943 42.4326 59.2698 33.5067 63.5202C36.482 64.7953 39.4573 66.0704 42.4326 67.7706C50.9335 63.0951 58.1593 57.1445 58.1593 47.3685C58.1593 33.7671 44.1328 27.3914 31.8065 21.4408C20.3303 16.3403 9.70416 11.2398 9.70416 2.73891C9.70416 1.88882 9.7042 1.46374 9.27916 1.0387C6.72889 2.31383 4.17857 3.589 2.05334 4.86413C2.90343 17.1904 16.0798 23.141 27.9811 28.6665Z" fill="black"/>
<path d="M33.0818 19.3157C36.0571 20.5909 39.0324 21.866 42.0077 23.5662C50.0835 19.3157 56.4591 13.7901 57.7343 5.28924C55.609 3.58906 53.0588 2.31396 50.5085 1.46387C50.0835 1.88891 50.0835 2.73897 50.0835 3.16402C49.6584 9.96473 42.4327 14.6402 33.0818 19.3157Z" fill="black"/>
<path d="M30.9562 66.0705C19.48 60.97 8.85389 55.8695 8.85389 47.3686C8.85389 40.1429 16.5047 35.4674 25.4306 31.2169C22.4553 29.9418 19.48 28.6667 16.5047 26.9665C8.00382 31.642 0.778076 37.5926 0.778076 47.3686C0.778076 60.97 14.8045 67.3457 27.1308 73.2963C38.607 78.3968 49.2331 83.4974 49.2331 91.9983C49.2331 92.8484 49.2331 93.2734 49.6582 93.6984C52.2084 92.4233 54.7587 91.1482 56.8839 89.8731C56.0338 77.5468 42.8574 71.5961 30.9562 66.0705Z" fill="black"/>
</svg>
