<svg width="38" height="79" viewBox="0 0 38 79" fill="none" xmlns="http://www.w3.org/2000/svg">
<path d="M34.9577 0.640198H3.5044C2.22926 0.640198 0.954102 1.91532 0.954102 3.19046C0.954102 4.46559 2.22926 5.74073 3.5044 5.74073H4.35448V65.2469C4.35448 72.4727 10.3051 78.4233 17.5308 78.4233H20.5062C27.732 78.4233 33.6826 72.4727 33.6826 65.2469V5.74073H34.5326C35.8078 5.74073 37.0829 4.46559 37.0829 3.19046C37.508 1.91532 36.2329 0.640198 34.9577 0.640198ZM9.45501 5.74073H29.0071V34.2187H9.45501V5.74073ZM29.4321 64.3968C29.4321 70.3474 24.7566 75.0229 18.806 75.0229C12.8554 75.0229 8.17986 70.3474 8.17986 64.3968V37.619C8.17986 37.194 8.60489 36.7689 9.02994 36.7689C9.45498 36.7689 9.88008 37.194 9.88008 37.619V64.3968C9.88008 69.4973 14.1305 73.7478 19.2311 73.7478C24.3316 73.7478 28.582 69.4973 28.582 64.3968V37.619C28.582 37.194 29.0071 36.7689 29.4321 36.7689C29.8572 36.7689 30.2822 37.194 30.2822 37.619V64.3968H29.4321Z" fill="black"/>
</svg>
