<svg width="66" height="83" viewBox="0 0 66 83" fill="none" xmlns="http://www.w3.org/2000/svg">
<path d="M31.9067 23.0548C31.0566 20.0795 30.6315 20.0795 30.6315 13.2788C30.6315 6.47807 30.6315 4.35286 31.4816 3.50277C32.3317 2.65268 33.1818 2.22763 33.1818 1.37755C33.1818 0.527458 31.4816 0.102417 22.9807 0.102417C14.4798 0.102417 12.7797 0.527458 12.7797 1.37755C12.7797 2.22763 13.6298 2.22763 14.4798 3.50277C15.3299 4.35286 15.3299 6.47807 15.3299 13.2788C15.3299 20.0795 14.9049 20.0795 14.0548 23.0548C13.2047 26.0301 12.3546 28.5804 7.67913 45.5821C3.00364 62.5839 0.0283203 69.8097 0.0283203 74.4851C0.0283203 77.8855 3.85371 82.986 11.5045 82.986C19.5804 82.986 22.9807 82.986 22.9807 82.986C22.9807 82.986 26.3811 82.986 34.4569 82.986C42.5328 82.986 45.9331 77.8855 45.9331 74.4851C45.9331 69.8097 42.9578 62.5839 38.2823 45.5821C33.6068 28.5804 32.3317 26.0301 31.9067 23.0548ZM10.6544 46.4322C13.2047 37.0813 14.9049 31.9807 15.755 29.0054C16.605 26.4551 17.0301 25.18 17.0301 23.9049C17.0301 23.4798 17.0301 23.0548 17.4551 23.0548C18.3052 20.5045 18.3052 19.2294 18.3052 13.2788C18.3052 8.17825 18.3052 5.62798 17.8802 3.9278C19.1553 3.9278 20.8555 3.9278 22.9807 3.9278C25.106 3.9278 26.8061 3.9278 28.0812 3.9278C27.6562 5.62798 27.6562 8.17825 27.6562 13.2788C27.6562 19.2294 28.0812 20.5045 28.5063 23.0548C28.5063 23.4799 28.5063 23.4798 28.9314 23.9049C29.3564 25.18 29.7814 26.4551 30.2065 29.0054C31.0566 31.9807 32.7568 37.0813 35.307 46.4322C35.7321 47.7074 36.1571 48.9825 36.1571 49.8326H34.882H10.2294H8.95425C9.80434 48.9825 10.2294 47.7074 10.6544 46.4322ZM42.5328 74.4851C42.5328 76.1853 40.4075 80.0107 34.0319 80.0107H22.5557H11.0795C4.7038 80.0107 2.57858 76.1853 2.57858 74.4851C2.57858 71.5098 3.85372 66.8343 6.40399 58.7585C7.25408 56.6333 7.67912 54.083 8.52921 51.1077H9.80436C8.95427 54.083 8.10418 56.6333 7.67913 58.7585C5.55391 65.9842 4.27877 70.6597 4.27877 73.21C4.27877 74.9102 6.40399 78.3105 12.3546 78.3105H22.9807H33.6068C39.5575 78.3105 41.6827 74.9102 41.6827 73.21C41.6827 70.6597 40.4075 65.9842 38.2823 58.7585C37.4322 56.6333 37.0072 53.658 36.1571 51.1077H37.4322C38.2823 53.658 39.1324 56.2082 39.5575 58.7585C41.2576 66.8343 42.5328 71.5098 42.5328 74.4851Z" fill="black"/>
<path d="M63.7852 6.0531H43.383C42.5329 6.0531 41.6829 6.9032 41.6829 7.75328C41.6829 8.60337 42.5329 9.45345 43.383 9.45345H43.8081V48.1325C43.8081 52.808 47.6335 56.6334 52.309 56.6334H54.4342C59.1097 56.6334 62.9351 52.808 62.9351 48.1325V9.02841H63.7852C64.6353 9.02841 65.4854 8.17832 65.4854 7.32823C65.0603 6.47814 64.6353 6.0531 63.7852 6.0531ZM47.2084 9.02841H59.9598V27.3053H47.2084V9.02841ZM60.3848 46.8574C60.3848 50.6828 57.4095 53.6581 53.5841 53.6581C49.7587 53.6581 46.7834 50.6828 46.7834 46.8574V29.4306C46.7834 29.0055 46.7834 29.0055 47.2084 29.0055C47.6335 29.0055 47.6335 29.0055 47.6335 29.4306V46.8574C47.6335 50.2577 50.1837 52.808 53.5841 52.808C56.9844 52.808 59.5347 50.2577 59.5347 46.8574V29.4306C59.5347 29.0055 59.5347 29.0055 59.9598 29.0055C60.3848 29.0055 60.3848 29.0055 60.3848 29.4306V46.8574Z" fill="black"/>
</svg>
