<svg width="95" height="38" viewBox="0 0 95 38" fill="none" xmlns="http://www.w3.org/2000/svg">
<path d="M77.085 4.71791L77.51 8.11827C81.7604 7.69322 86.0109 10.6685 86.436 14.919L89.8363 14.4939C88.9862 8.11827 83.4606 3.86782 77.085 4.71791Z" fill="black"/>
<path d="M79.2103 0.467407H47.757H15.8787C7.37785 0.467407 0.577148 8.54325 0.577148 18.7443C0.577148 28.9454 7.37785 37.0212 15.8787 37.0212H47.757H79.2103C87.7112 37.0212 94.5119 28.9454 94.5119 18.7443C94.5119 8.96829 87.7112 0.467407 79.2103 0.467407ZM5.25264 23.8448L8.65299 23.4198C9.07804 27.6702 13.3285 30.6456 17.5789 30.2205L18.0039 33.6209C11.6283 34.4709 5.67769 30.2205 5.25264 23.8448ZM79.2103 36.1711H47.757C43.9316 36.1711 40.5313 28.0953 40.5313 18.7443C40.5313 9.39333 43.9317 1.31748 48.1821 1.31748H79.6353C87.7112 1.31748 94.0868 8.96829 94.0868 18.7443C93.6618 28.5203 86.8611 36.1711 79.2103 36.1711Z" fill="black"/>
</svg>
