<svg width="40" height="91" viewBox="0 0 40 91" fill="none" xmlns="http://www.w3.org/2000/svg">
<path d="M31.2331 27.2294C31.2331 24.254 31.233 22.9789 32.0831 22.9789C32.9332 22.9789 32.9332 22.5538 32.9332 20.4286C32.9332 18.3034 32.9332 17.8784 32.0831 17.8784C31.233 17.8784 30.808 17.0283 32.0831 17.0283C33.3583 17.0283 33.3583 17.0283 32.9332 14.478C32.9332 11.9278 32.5082 4.70199 32.5082 2.57677C32.5082 0.451551 31.2331 0.876622 29.1078 0.876622C26.9826 0.876622 19.7568 0.876622 19.7568 0.876622C19.7568 0.876622 12.5311 0.876622 10.4059 0.876622C8.28068 0.876622 7.00553 0.451551 7.00553 2.57677C7.00553 4.70199 6.58049 11.9278 6.58049 14.478C6.58049 17.0283 6.58051 17.0283 7.4306 17.0283C8.70573 17.0283 8.28069 17.8784 7.4306 17.8784C6.58051 17.8784 6.58049 18.3034 6.58049 20.4286C6.58049 22.5538 6.58051 22.9789 7.4306 22.9789C8.28069 22.9789 8.28068 24.254 8.28068 27.2294C8.28068 30.2047 0.204834 30.2047 0.204834 41.2558C0.204834 52.732 0.204834 73.1341 0.204834 79.9348C0.204834 87.1606 2.33007 90.1359 7.4306 90.1359C12.5311 90.1359 19.7568 90.1359 19.7568 90.1359C19.7568 90.1359 26.9826 90.1359 32.0831 90.1359C37.1837 90.1359 39.3089 86.7355 39.3089 79.9348C39.3089 72.7091 39.3089 52.307 39.3089 41.2558C39.3089 30.2047 31.2331 30.2047 31.2331 27.2294ZM30.3829 2.1517C30.808 2.1517 30.808 2.57677 30.808 2.57677C31.2331 6.82722 31.233 11.0777 31.6581 15.3281C31.6581 15.7531 31.2331 15.7532 31.2331 15.7532C30.808 15.7532 30.808 15.3281 30.808 15.3281C30.383 11.0777 30.383 6.82722 29.9579 2.57677C29.9579 2.57677 29.9579 2.1517 30.3829 2.1517ZM28.2577 2.1517C28.6828 2.1517 28.6828 2.57677 28.6828 2.57677C29.1078 6.82722 29.1078 11.0777 29.5329 15.3281C29.5329 15.7531 29.1078 15.7532 29.1078 15.7532L28.6828 15.3281C28.6828 11.0777 28.2577 6.82722 28.2577 2.57677C27.4076 2.57677 27.8327 2.1517 28.2577 2.1517ZM26.1325 2.1517C26.5576 2.1517 26.5576 2.57677 26.5576 2.57677C26.5576 6.82722 26.9826 11.0777 26.9826 15.3281C26.9826 15.7531 26.5576 15.7532 26.5576 15.7532C26.1325 15.7532 26.1325 15.3281 26.1325 15.3281C26.1325 11.0777 25.7075 6.82722 25.7075 2.57677C25.2824 2.57677 25.7075 2.1517 26.1325 2.1517ZM24.0073 2.1517C24.4323 2.1517 24.4324 2.57677 24.4324 2.57677C24.4324 6.82722 24.8574 11.0777 24.8574 15.3281C24.8574 15.7531 24.4324 15.7532 24.4324 15.7532C24.0073 15.7532 24.0073 15.3281 24.0073 15.3281C24.0073 11.0777 24.0073 6.82722 23.5823 2.57677C23.1572 2.57677 23.5822 2.1517 24.0073 2.1517ZM21.8821 2.1517C22.3071 2.1517 22.3071 2.57677 22.3071 2.57677C22.3071 6.82722 22.3071 11.0777 22.3071 15.3281C22.3071 15.7531 21.8821 15.7532 21.8821 15.7532L21.457 15.3281C21.457 11.0777 21.457 6.82722 21.457 2.57677C21.032 2.57677 21.457 2.1517 21.8821 2.1517ZM18.9068 2.57677C18.9068 2.15173 19.3318 2.1517 19.3318 2.1517C19.7569 2.1517 19.7568 2.57677 19.7568 2.57677C19.7568 6.82722 19.7568 11.0777 19.7568 15.3281C19.7568 15.7531 19.3318 15.7532 19.3318 15.7532C18.9068 15.7532 18.9068 15.3281 18.9068 15.3281C18.9068 11.0777 18.9068 6.82722 18.9068 2.57677ZM16.7816 2.57677C16.7816 2.15173 17.2066 2.1517 17.2066 2.1517C17.6316 2.1517 17.6316 2.57677 17.6316 2.57677C17.6316 6.82722 17.6316 11.0777 17.6316 15.3281C17.6316 15.7531 17.2066 15.7532 17.2066 15.7532C16.7815 15.7532 16.7816 15.3281 16.7816 15.3281C16.7816 11.0777 16.7816 6.82722 16.7816 2.57677ZM14.6563 2.57677C14.6563 2.15173 15.0814 2.1517 15.0814 2.1517C15.5064 2.1517 15.5064 2.57677 15.5064 2.57677C15.5064 6.82722 15.5064 11.0777 15.0814 15.3281C15.0814 15.7531 14.6563 15.7532 14.6563 15.7532C14.2313 15.7532 14.2313 15.3281 14.2313 15.3281C14.6563 11.0777 14.6563 6.82722 14.6563 2.57677ZM12.5311 2.57677C12.5311 2.15173 12.9562 2.1517 12.9562 2.1517C13.3812 2.1517 13.3812 2.57677 13.3812 2.57677C13.3812 6.82722 12.9562 11.0777 12.9562 15.3281C12.9562 15.7531 12.5311 15.7532 12.5311 15.7532C12.1061 15.7532 12.1061 15.3281 12.1061 15.3281C12.1061 11.0777 12.5311 6.82722 12.5311 2.57677ZM10.4059 2.57677C10.4059 2.15173 10.8309 2.1517 10.8309 2.1517C11.256 2.1517 11.256 2.57677 11.256 2.57677C11.256 6.82722 10.8309 11.0777 10.8309 15.3281C10.8309 15.7531 10.4059 15.7532 10.4059 15.7532C9.98085 15.7532 9.98086 15.3281 9.98086 15.3281C9.98086 11.0777 9.98085 6.82722 10.4059 2.57677ZM7.85564 15.7532C7.43059 15.7532 7.4306 15.3281 7.4306 15.3281C7.85564 11.0777 7.85563 6.82722 8.28068 2.57677C8.28068 2.15173 8.70571 2.1517 8.70571 2.1517C9.13076 2.1517 9.13075 2.57677 9.13075 2.57677C8.70571 6.82722 8.70572 11.0777 8.28068 15.3281C8.70572 15.7531 8.28068 15.7532 7.85564 15.7532ZM37.1837 79.9348C37.1837 87.5856 34.6334 88.0107 32.0831 88.0107H7.4306C4.45529 88.0107 2.33005 87.5856 2.33005 79.9348V41.2558C2.33005 34.8802 5.30538 32.7549 7.4306 31.4798C8.70573 30.6297 10.4059 29.3546 10.4059 27.2294V26.3793C10.4059 25.1041 10.4059 23.829 9.98086 22.9789H29.1078C28.6828 23.829 28.6828 25.1041 28.6828 26.3793V27.2294C28.6828 29.3546 30.383 30.6297 31.6581 31.4798C33.7833 33.18 36.7586 34.8802 36.7586 41.2558V79.9348H37.1837Z" fill="black"/>
<path d="M3.60522 41.2559V79.9349C3.60522 86.7356 5.30541 86.7356 7.43063 86.7356H32.0832C34.2084 86.7356 35.9086 86.7356 35.9086 79.9349V41.2559C35.9086 39.1306 35.4835 37.4304 35.0585 36.1553H4.4553C3.60521 37.4304 3.60522 39.1306 3.60522 41.2559Z" fill="black"/>
</svg>
