<svg width="64" height="95" viewBox="0 0 64 95" fill="none" xmlns="http://www.w3.org/2000/svg">
<path d="M25.4173 71.9454C24.5672 71.9454 24.1421 72.7955 24.1421 74.4957C24.1421 75.7708 23.7171 76.6209 24.9923 77.046C26.2674 77.471 26.2674 77.046 26.2674 74.9208C26.2674 72.3705 26.2674 71.9454 25.4173 71.9454Z" fill="black"/>
<path d="M19.4669 70.6702C19.0419 70.6702 19.0419 71.0952 18.6168 71.9452C18.6168 72.7953 18.6168 73.2203 19.0418 73.6454C19.4669 74.0704 19.4669 73.6455 19.4669 72.7954C19.892 71.0952 19.892 70.6702 19.4669 70.6702Z" fill="black"/>
<path d="M24.9927 77.0458C24.1426 77.0458 24.1426 77.0457 24.1426 78.3208C24.1426 79.596 24.5676 80.446 25.4177 80.446C26.2677 80.446 26.2677 80.021 26.2677 78.3208C26.2677 77.4708 25.8427 77.4708 24.9927 77.0458Z" fill="black"/>
<path d="M30.5184 78.3209C31.7935 78.3209 31.7935 78.3209 31.7935 76.6208C31.7935 74.9206 32.2186 72.3704 30.5184 72.3704C28.8182 72.3704 29.2433 74.0705 29.2433 75.7706C29.2433 78.3209 28.8182 78.3209 30.5184 78.3209Z" fill="black"/>
<path d="M19.4672 74.0706C18.6171 73.6455 18.6171 74.4957 19.0421 75.3458C19.0421 76.1959 19.4672 77.046 19.8922 77.046C20.3172 77.046 20.3173 77.0459 20.3173 75.7708C20.3173 74.9207 20.3173 74.4956 19.4672 74.0706Z" fill="black"/>
<path d="M26.6928 79.5962C26.6928 80.8714 27.1178 81.2964 27.9679 81.2964C28.818 81.2964 29.243 81.2964 29.243 79.5962C29.243 77.896 29.243 78.3209 27.9679 77.8959C26.2678 77.8959 26.2678 78.321 26.6928 79.5962Z" fill="black"/>
<path d="M27.9679 72.3704C26.6928 72.3704 26.6928 73.6455 26.6928 75.3457C26.6928 77.0459 26.2677 77.4708 27.5428 77.8959C28.818 78.3209 28.818 77.0459 28.818 75.3457C28.818 73.6455 28.818 72.3704 27.9679 72.3704Z" fill="black"/>
<path d="M30.0935 78.3212C28.8184 78.3212 28.8184 78.3212 28.8184 79.5964C28.8184 81.2965 29.2434 81.7216 30.0935 81.7216C30.9437 81.7216 31.3687 81.2965 31.3687 79.5964C31.7938 78.7463 31.7938 78.3212 30.0935 78.3212Z" fill="black"/>
<path d="M23.7175 71.5203C22.8674 71.5203 22.8674 71.9453 22.4424 73.6455C22.0173 75.3457 22.4424 75.7707 23.2924 75.7707C24.1425 76.1958 24.1425 75.3457 24.1425 73.6455C23.7175 72.3704 24.1426 71.9453 23.7175 71.5203Z" fill="black"/>
<path d="M20.3172 70.6702C19.8922 70.6702 19.4671 71.5202 19.4671 72.3703C19.4671 73.6453 19.042 73.6453 19.8921 74.0703C20.7423 74.4954 20.3172 74.0704 20.3172 72.7953C20.7423 71.5202 21.1673 71.0952 20.3172 70.6702Z" fill="black"/>
<path d="M22.8674 76.1959C22.0174 75.7709 22.0173 76.6209 22.0173 77.896C22.0173 79.1712 22.4424 80.0212 22.8674 80.0212C23.2925 80.0212 23.7174 80.0213 23.2924 78.3211C23.7174 77.046 24.1425 76.6209 22.8674 76.1959Z" fill="black"/>
<path d="M52.1954 65.5696C50.0702 65.5696 49.2202 64.7196 49.2202 64.7196C49.2202 64.7196 49.2201 66.4197 47.945 69.8201C47.0949 71.9453 46.2448 73.6454 45.3947 74.0705C45.3947 74.4955 45.3947 74.9207 45.3947 75.3457C45.3947 76.1958 44.9697 77.0459 44.1196 77.0459H43.6946C43.6946 77.8959 43.2695 78.746 42.4194 78.746H41.9944C41.9944 79.5961 41.5694 80.0211 40.7193 80.0211C40.7193 80.0211 40.2942 80.0212 39.8692 79.5961C39.8692 80.4462 39.4441 80.8712 38.5941 80.8712H38.169C37.7439 80.8712 37.744 80.8712 37.744 80.4462C37.744 81.2962 37.3189 81.7214 36.4688 81.7214C36.0438 81.7214 35.6187 81.7213 35.1937 81.2963C35.1937 81.7213 34.7686 82.1463 33.9185 82.5714H33.4935C33.0685 82.5714 32.6434 82.5713 32.2184 82.1463C32.2184 82.1463 32.2184 82.1464 32.2184 81.7214C32.2184 81.7214 32.2184 81.7213 32.2184 82.1463C31.7934 82.5713 31.3683 82.5714 30.9433 82.5714C30.9433 82.5714 30.9432 82.5714 30.5182 82.5714C29.6681 82.5714 29.2431 82.1464 29.2431 81.2963C28.8181 81.7213 28.393 81.7214 27.968 81.7214C27.1179 81.7214 26.6928 81.2962 26.6928 80.4462L26.2677 80.8712H25.8427C24.9927 80.8712 24.5676 80.4462 24.5676 79.5961C24.5676 79.5961 24.1426 80.0211 23.7175 80.0211C22.8674 80.0211 22.8674 79.171 22.4424 78.746H22.0173C21.1672 78.746 21.1673 77.8959 20.7422 77.0459H20.3172C19.4671 77.0459 19.4671 76.1958 19.042 75.3457C19.042 74.4956 19.042 74.0705 19.042 74.0705C18.617 73.2204 17.3419 71.9453 16.4918 69.8201C15.2167 66.4197 15.2166 64.7196 15.2166 64.7196C15.2166 64.7196 14.3666 65.1446 12.2414 65.5696C10.1161 65.5696 9.26599 64.7196 9.26599 64.7196C10.1161 66.8448 11.3912 71.9453 10.5411 77.0459C9.69105 82.1464 9.69104 82.5714 17.7669 88.097C25.8427 93.6226 25.4177 94.0476 27.5429 94.0476C29.6681 94.0476 31.7933 94.0476 31.7933 94.0476C31.7933 94.0476 33.9185 94.0476 36.0438 94.0476C38.169 94.0476 37.744 93.6226 45.8198 88.097C53.8956 82.5714 53.8956 82.1464 53.0455 77.0459C52.1954 71.9453 53.8956 66.8448 54.3207 64.7196C55.1708 64.7196 54.3207 65.5696 52.1954 65.5696Z" fill="black"/>
<path d="M22.0169 71.0953C21.1668 71.0953 21.1668 71.5204 21.1668 72.7955C21.1668 74.0706 20.7418 74.4956 21.5919 74.9207C22.442 75.3457 22.442 74.9207 22.442 73.2205C22.442 71.9454 22.4419 71.5204 22.0169 71.0953Z" fill="black"/>
<path d="M21.1675 75.3457C20.3175 74.9207 20.3175 75.7707 20.3175 76.6208C20.3175 77.8959 20.7425 78.3209 21.1675 78.3209C21.5926 78.3209 21.5926 78.321 21.5926 77.0459C22.0176 75.7707 22.0176 75.7708 21.1675 75.3457Z" fill="black"/>
<path d="M39.869 74.0705C39.869 72.7954 39.444 71.5203 38.5939 71.5203C37.7438 71.5203 37.7438 72.3704 37.7438 74.4956C37.7438 76.6208 38.1688 77.0458 39.0189 76.6208C40.294 76.1958 39.869 75.7707 39.869 74.0705Z" fill="black"/>
<path d="M42.8443 75.3457C41.9942 75.7708 41.9943 76.1958 41.9943 77.0459C41.9943 78.321 41.9942 78.3209 42.4193 78.3209C42.8443 78.3209 43.2693 77.4709 43.2693 76.6208C43.6944 75.7707 43.6944 74.9207 42.8443 75.3457Z" fill="black"/>
<path d="M43.6946 70.6702C43.2696 70.6702 43.2695 71.5202 43.2695 72.7953C43.2695 74.4955 43.2696 74.4954 43.6946 74.0704C44.5447 73.6453 44.1196 73.6454 44.1196 72.3703C44.1196 71.5202 44.1196 70.6702 43.6946 70.6702Z" fill="black"/>
<path d="M33.4936 72.3704C31.7935 72.3704 32.2185 74.9206 32.2185 76.6208C32.2185 78.3209 32.2185 78.3209 33.4936 78.3209C35.1938 78.3209 34.7687 78.3209 34.7687 76.1957C34.7687 74.0705 35.1938 72.3704 33.4936 72.3704Z" fill="black"/>
<path d="M41.1445 76.1959C40.2944 76.6209 40.2944 77.046 40.2944 78.3211C40.2944 79.5962 40.2945 80.0212 40.7195 80.0212C41.1445 80.0212 41.5696 79.1712 41.5696 77.896C41.9946 76.6209 41.9946 75.7709 41.1445 76.1959Z" fill="black"/>
<path d="M40.2944 71.5203C39.4443 71.5203 39.8693 72.3704 39.8693 74.0705C39.8693 75.7706 39.8693 76.1957 40.7194 76.1957C41.5695 75.7706 41.5695 75.7706 41.5695 74.0705C41.5695 71.9453 41.1445 71.5203 40.2944 71.5203Z" fill="black"/>
<path d="M44.5449 74.0707C43.6948 74.4957 43.6948 74.4957 43.6948 75.7708C43.6948 76.6209 43.6949 77.046 44.1199 77.046C44.545 77.046 44.545 76.621 44.97 75.3459C44.97 74.4958 44.97 74.0707 44.5449 74.0707Z" fill="black"/>
<path d="M41.9942 71.0953C41.1441 71.0953 41.5691 71.9454 41.5691 73.2205C41.5691 74.9207 41.5691 74.9207 42.4192 74.9207C43.2693 74.4956 43.2693 74.4956 42.8443 72.7955C42.8443 71.5203 42.8443 71.0953 41.9942 71.0953Z" fill="black"/>
<path d="M45.3945 71.5202C45.3945 70.6701 44.9695 70.2451 44.5445 70.2451C44.1195 70.2451 44.1195 70.6701 44.1195 71.9453C44.1195 73.2205 44.1195 73.2205 44.5445 72.7955C45.3945 72.7955 45.3945 72.7954 45.3945 71.5202Z" fill="black"/>
<path d="M36.4688 77.8959C37.7439 77.4708 37.3188 76.6209 37.3188 75.3457C37.3188 73.6455 37.3188 72.3704 36.0437 72.3704C34.7686 72.3704 35.1936 74.0706 35.1936 75.3457C35.1936 77.0459 35.1936 78.3209 36.4688 77.8959Z" fill="black"/>
<path d="M33.4937 82.1464C34.3437 82.1464 34.7687 81.2963 34.7687 80.0212C34.7687 78.746 34.7688 78.7461 33.4937 78.7461C31.7935 78.7461 31.7935 79.1711 31.7935 80.4462C32.2185 81.7214 32.6436 82.5714 33.4937 82.1464Z" fill="black"/>
<path d="M36.4692 81.7216C37.3193 81.7216 37.3193 81.2964 37.7444 80.0213C37.7444 78.7462 38.1694 77.8961 36.8942 78.3211C35.6191 78.7462 35.6191 78.3211 35.6191 80.0213C35.1941 81.2964 35.6191 81.7216 36.4692 81.7216Z" fill="black"/>
<path d="M39.0192 77.0458C38.1692 77.0458 38.1692 77.4708 38.1692 78.7459C38.1692 80.4461 38.1692 80.8711 39.0192 80.8711C39.8693 80.8711 40.2944 80.021 40.2944 78.7459C39.8693 77.0458 39.8693 77.0458 39.0192 77.0458Z" fill="black"/>
<path d="M58.146 43.4674C58.9961 44.7425 59.4212 46.0176 59.8463 46.8677C61.1214 43.8924 63.2466 39.2169 63.6716 31.141C64.5217 14.5643 47.945 0.963013 32.2184 0.963013C16.0667 0.963013 -0.0850295 14.5643 0.765059 31.141C1.1901 39.2169 2.89032 43.8924 4.5905 46.8677C5.01554 46.0176 5.44056 44.7425 6.29065 43.4674C9.691 38.7919 9.266 37.0917 7.99087 31.5661C7.14078 26.0405 5.86562 20.0899 7.56579 17.1146C9.26597 14.1393 10.5411 13.7143 11.3912 13.2893C10.9661 13.7143 9.691 14.1393 8.41587 17.5397C7.14074 20.515 8.41588 25.1904 9.69102 31.141C10.9661 37.0916 9.69102 38.7919 7.56579 43.0423C5.86562 46.4427 7.14078 48.5679 5.86564 51.5432C5.86564 51.9682 5.44055 52.3932 5.0155 52.8183L4.5905 53.2434C1.61519 56.2187 5.01554 60.044 8.84094 63.4444C12.6663 67.2698 15.6417 61.7443 18.617 64.7196C20.7422 66.8448 19.8921 68.9699 19.467 69.82C19.467 69.82 19.467 69.82 19.8921 69.82C20.3171 69.82 20.3171 69.8201 20.3171 70.2451H20.7422C21.1672 70.2451 21.1672 70.6702 21.1672 71.0952L21.5923 70.6702C21.5923 70.6702 21.5922 70.6702 22.0173 70.6702C22.4423 70.6702 22.4424 71.0951 22.8674 71.5202L23.2924 71.0952C23.2924 71.0952 23.2924 71.0952 23.7175 71.0952C24.1425 71.0952 24.1425 71.5202 24.5676 71.5202C24.9926 71.0951 24.9926 71.0952 25.4176 71.0952C26.2677 71.0952 26.2677 71.5202 26.6928 72.3703C27.1178 71.9453 27.5429 71.5202 27.9679 71.5202C28.393 71.5202 28.393 71.5202 28.818 71.9453C28.818 71.9453 29.2431 72.3703 29.2431 72.7954C29.6681 72.3703 30.0931 71.9453 30.9432 71.9453C31.3683 71.9453 31.7933 71.9453 31.7933 72.3703C31.7933 72.3703 32.2184 72.7954 32.2184 73.2205C32.2184 72.7954 32.6434 72.7954 32.6434 72.3703C33.0684 71.9453 33.0685 71.9453 33.4935 71.9453C34.3436 71.9453 34.7686 72.3703 35.1937 72.7954C35.1937 72.3703 35.1937 71.9453 35.6187 71.9453C35.6187 71.5202 36.0438 71.5202 36.4688 71.5202C36.8939 71.5202 37.3189 71.9453 37.744 72.3703C37.744 71.5202 38.169 71.5203 39.0191 71.0952C39.4441 71.0952 39.8692 71.5202 39.8692 71.5202C39.8692 71.0951 40.2942 71.0952 40.7193 71.0952C40.7193 71.0952 40.7192 71.0952 41.1443 71.0952C41.5693 71.0952 41.5693 71.0951 41.5693 71.5202C41.5693 71.0951 41.9944 71.0952 42.4194 70.6702C42.4194 70.6702 42.4194 70.6702 42.8445 70.6702C43.2695 70.6702 43.2695 70.6702 43.2695 71.0952C43.2695 70.6702 43.6946 70.6702 43.6946 70.2451H44.1196L44.5446 69.82C44.5446 69.82 44.5447 69.82 44.9697 69.82C44.5447 68.9699 43.6946 66.8448 45.8198 64.7196C48.7951 61.7443 51.7704 67.2698 55.5958 63.4444C59.4212 59.619 62.8216 56.2187 59.8463 53.2434L59.4212 52.8183C58.9961 52.3932 58.9962 51.9682 58.5711 51.5432C57.296 48.9929 58.5711 46.4427 56.871 43.0423C55.1708 38.7919 53.4706 37.5167 54.7457 31.141C56.0209 25.1904 57.296 20.515 56.0208 17.5397C54.7457 14.5644 53.4706 14.1393 53.0455 13.2893C53.8956 13.7143 55.1708 14.1393 56.871 17.1146C58.5711 20.0899 57.296 26.4656 56.4459 31.5661C55.5958 37.0917 55.1707 38.7919 58.146 43.4674ZM20.3171 53.2434C14.7915 54.5185 11.8162 53.6684 11.3912 48.5678C10.5411 42.1922 12.2413 41.7671 17.7668 39.6419C23.2924 37.5167 24.1425 38.3668 26.6928 40.492C28.818 42.6173 28.3929 42.6172 28.3929 46.0176C27.9679 49.4179 25.4177 51.9682 20.3171 53.2434ZM29.2431 63.8694C25.8427 60.4691 26.2677 60.8941 29.6681 52.3932C31.3683 48.1428 31.7933 48.1428 31.7933 53.2434C31.3683 58.3439 32.2184 67.2698 29.2431 63.8694ZM34.7686 63.8694C31.3683 67.2698 32.6434 58.3439 32.6434 53.2434C32.6434 48.1428 33.0684 48.5678 34.7686 52.3932C38.169 60.8941 38.169 60.4691 34.7686 63.8694ZM53.0455 48.5678C52.6205 53.6684 49.2202 54.5185 44.1196 53.2434C38.5941 51.9682 36.0438 49.4179 36.0438 46.0176C36.0438 42.6172 35.6187 43.0423 37.744 40.492C39.8692 38.3668 41.1443 37.5167 46.6699 39.6419C52.1954 41.7671 53.8956 41.7671 53.0455 48.5678Z" fill="black"/>
</svg>
