<svg width="83" height="73" viewBox="0 0 83 73" fill="none" xmlns="http://www.w3.org/2000/svg">
<path d="M20.7035 51.2699C14.7529 51.2699 10.0774 55.9454 10.0774 61.896C10.0774 67.8466 14.7529 72.5221 20.7035 72.5221C26.6541 72.5221 31.3296 67.8466 31.3296 61.896C31.3296 55.9454 26.6541 51.2699 20.7035 51.2699ZM20.7035 67.4216C17.7282 67.4216 15.1779 64.8713 15.1779 61.896C15.1779 58.9207 17.7282 56.3705 20.7035 56.3705C23.6788 56.3705 26.2291 58.9207 26.2291 61.896C26.2291 64.8713 23.6788 67.4216 20.7035 67.4216Z" fill="black"/>
<path d="M61.9327 51.2699C55.9821 51.2699 51.3066 55.9454 51.3066 61.896C51.3066 67.8466 55.9821 72.5221 61.9327 72.5221C67.8833 72.5221 72.5587 67.8466 72.5587 61.896C72.5587 55.9454 67.8833 51.2699 61.9327 51.2699ZM61.9327 67.4216C58.9574 67.4216 56.4072 64.8713 56.4072 61.896C56.4072 58.9207 58.9574 56.3705 61.9327 56.3705C64.908 56.3705 67.4582 58.9207 67.4582 61.896C67.4582 64.8713 64.908 67.4216 61.9327 67.4216Z" fill="black"/>
<path d="M80.6349 33.4181L68.7337 31.2929C67.8836 31.2929 66.6084 30.4428 66.6084 29.1676L62.7831 13.016C62.7831 12.1659 61.933 10.8907 60.6578 10.8907H2.85178C2.0017 10.8907 0.726562 11.7408 0.726562 13.016V59.7708C0.726562 60.6209 1.57665 61.896 2.85178 61.896H7.5273C7.5273 55.0953 13.0528 49.5698 19.8536 49.5698C26.6543 49.5698 32.1798 55.0953 32.1798 61.896H48.3315C48.3315 55.0953 53.8571 49.5698 60.6578 49.5698C67.4585 49.5698 72.9841 55.0953 72.9841 61.896H78.9347C79.7848 61.896 81.0599 61.0459 81.0599 59.7708V34.6932C82.7601 34.2682 81.91 33.4181 80.6349 33.4181ZM34.7301 29.5927L38.5555 31.7179C38.5555 31.7179 38.9805 32.1429 38.5555 32.1429L36.4303 35.9684C36.4303 35.9684 36.0053 36.3934 36.0053 35.9684L32.1798 33.8431H31.7548V38.0936C31.7548 38.5186 31.7548 38.5186 31.3297 38.5186H27.0793C26.6543 38.5186 26.6543 38.5186 26.6543 38.0936V33.8431C26.6543 33.4181 26.6543 33.4181 26.2292 33.8431L22.4038 35.9684H21.9788L19.8536 32.1429V31.7179L23.6789 29.5927V29.1676L19.8536 27.0424C19.8536 27.0424 19.4285 26.6174 19.8536 26.6174L21.9788 22.792C21.9788 22.792 22.4038 22.3669 22.4038 22.792L26.2292 24.9172H26.6543V20.6668C26.6543 20.2417 26.6543 20.2418 27.0793 20.2418H31.3297C31.7548 20.2418 31.7548 20.2417 31.7548 20.6668V24.9172C31.7548 25.3422 31.7548 25.3422 32.1798 24.9172L36.0053 22.792H36.4303L38.5555 26.6174V27.0424L34.7301 29.1676C34.7301 29.1676 34.7301 29.1677 34.7301 29.5927ZM62.358 31.2929H55.1322C54.2822 31.2929 53.007 30.4428 53.007 29.1676V15.5663C53.007 14.7162 53.8571 13.441 55.1322 13.441H57.6825C58.5326 13.441 59.8077 14.2911 60.2328 15.1412L63.6331 28.7426C64.0582 30.4428 63.2081 31.2929 62.358 31.2929Z" fill="black"/>
<path d="M55.1322 4.51499C55.1322 2.38978 53.432 0.689636 51.3068 0.689636C49.1816 0.689636 47.4814 2.38978 47.4814 4.51499V9.61554H55.1322V4.51499Z" fill="black"/>
</svg>
