<svg width="29" height="95" viewBox="0 0 29 95" fill="none" xmlns="http://www.w3.org/2000/svg">
<path d="M27.8448 65.3332H21.0441V28.7795C21.0441 28.3544 20.619 27.9294 20.194 27.9294H18.4938C18.0688 25.3791 18.0688 22.8288 17.6438 20.2786C16.7937 20.2786 15.9436 20.2786 15.0935 20.2786V1.57664L13.8183 0.301514V20.2786C12.9682 20.2786 12.1182 20.2786 11.2681 20.2786C10.8431 22.8288 10.843 25.3791 10.418 27.9294H8.7178C8.29276 27.9294 7.86773 28.3544 7.86773 28.7795V65.3332H1.06699C0.64195 65.3332 0.216919 65.7583 0.216919 66.1833C0.216919 66.6084 0.64195 67.0334 1.06699 67.0334H8.7178V92.9611H2.34214C1.9171 92.9611 1.49206 93.3862 1.49206 93.8112C1.49206 94.2363 1.9171 94.6613 2.34214 94.6613H25.7196C26.1446 94.6613 26.5697 94.2363 26.5697 93.8112C26.5697 93.3862 26.1446 92.9611 25.7196 92.9611H19.769V67.0334H27.4197C27.8448 67.0334 28.2699 66.6084 28.2699 66.1833C28.6949 65.7583 28.2698 65.3332 27.8448 65.3332ZM10.418 65.3332H9.14287V47.0564H10.418V65.3332ZM15.0935 92.5361C15.0935 92.9611 14.6684 92.9611 14.6684 92.9611C14.2434 92.9611 14.2434 92.5361 14.2434 92.5361V68.7336C14.2434 68.3086 14.6684 68.3086 14.6684 68.3086C15.0934 68.3086 15.0935 68.7336 15.0935 68.7336V92.5361ZM19.3439 65.3332H18.0688V47.0564H19.3439V65.3332ZM19.3439 45.7812H9.56788V30.0546H19.3439V45.7812Z" fill="black"/>
</svg>
