<svg width="39" height="89" viewBox="0 0 39 89" fill="none" xmlns="http://www.w3.org/2000/svg">
<path d="M31.2577 26.0916C31.2577 23.1163 31.2577 21.8412 32.1078 21.8412C32.9579 21.8412 32.9579 21.4161 32.9579 19.716C32.9579 18.0158 32.9579 17.1657 32.1078 17.1657C31.2577 17.1657 30.8327 16.3156 32.1078 16.3156C33.3829 16.3156 33.3829 16.3156 32.9579 13.7654C32.9579 11.2151 32.5328 4.41434 32.5328 2.28911C32.5328 0.163893 31.2577 0.588963 29.1325 0.588963C27.0072 0.588963 19.7815 0.588963 19.7815 0.588963C19.7815 0.588963 12.5558 0.588963 10.4306 0.588963C8.30533 0.588963 7.03019 0.163893 7.03019 2.28911C7.03019 4.41434 6.60515 11.2151 6.60515 13.7654C6.60515 16.3156 6.60517 16.3156 7.45526 16.3156C8.73039 16.3156 8.30535 17.1657 7.45526 17.1657C6.60517 17.1657 6.60515 17.5907 6.60515 19.716C6.60515 21.4161 6.60517 21.8412 7.45526 21.8412C8.30535 21.8412 8.30533 23.1163 8.30533 26.0916C8.30533 29.0669 0.229492 29.0669 0.229492 40.1181C0.229492 51.1693 0.229492 71.1463 0.229492 77.947C0.229492 84.7477 2.35473 88.1481 7.45526 88.1481C12.5558 88.1481 19.3565 88.1481 19.3565 88.1481C19.3565 88.1481 26.1571 88.1481 31.2577 88.1481C36.3582 88.1481 38.4835 85.1728 38.4835 77.947C38.4835 71.1463 38.4835 51.1693 38.4835 40.1181C38.9085 29.0669 31.2577 29.0669 31.2577 26.0916ZM9.15541 14.6154C9.15541 15.0405 8.73037 15.0404 8.73037 15.0404C8.30533 15.0404 8.30533 14.6154 8.30533 14.6154C8.73038 10.365 8.73036 6.53956 9.15541 2.28911C9.15541 1.86407 9.58048 1.86411 9.58048 1.86411C10.0055 1.86411 10.0055 2.28911 10.0055 2.28911C9.58047 6.53956 9.15541 10.79 9.15541 14.6154ZM11.2806 14.6154C11.2806 15.0405 10.8556 15.0404 10.8556 15.0404C10.4305 15.0404 10.4306 14.6154 10.4306 14.6154C10.8556 10.365 10.8556 6.53956 11.2806 2.28911C11.2806 1.86407 11.7057 1.86411 11.7057 1.86411C12.1307 1.86411 12.1307 2.28911 12.1307 2.28911C11.7057 6.53956 11.7057 10.79 11.2806 14.6154ZM13.4058 14.6154C13.4058 15.0405 12.9808 15.0404 12.9808 15.0404C12.5558 15.0404 12.5558 14.6154 12.5558 14.6154C12.5558 10.365 12.9808 6.53956 12.9808 2.28911C12.9808 1.86407 13.4058 1.86411 13.4058 1.86411C13.8309 1.86411 13.8309 2.28911 13.8309 2.28911C13.8309 6.53956 13.8309 10.79 13.4058 14.6154ZM15.9561 14.6154C15.9561 15.0405 15.5311 15.0404 15.5311 15.0404C15.106 15.0404 15.106 14.6154 15.106 14.6154C15.106 10.365 15.5311 6.53956 15.5311 2.28911C15.5311 1.86407 15.9561 1.86411 15.9561 1.86411C16.3812 1.86411 16.3812 2.28911 16.3812 2.28911C15.9561 6.53956 15.9561 10.79 15.9561 14.6154ZM18.0814 14.6154C18.0814 15.0405 17.6563 15.0404 17.6563 15.0404C17.2312 15.0404 17.2312 14.6154 17.2312 14.6154C17.2312 10.365 17.2312 6.53956 17.2312 2.28911C17.2312 1.86407 17.6563 1.86411 17.6563 1.86411C18.0813 1.86411 18.0814 2.28911 18.0814 2.28911C18.0814 6.53956 18.0814 10.79 18.0814 14.6154ZM19.7815 15.4655C19.3565 15.4655 19.3565 15.0404 19.3565 15.0404C19.3565 10.79 19.3565 6.96463 19.3565 2.71418C19.3565 2.28914 19.7815 2.28911 19.7815 2.28911C20.2065 2.28911 20.2066 2.71418 20.2066 2.71418C20.2066 6.96463 20.2066 10.79 20.2066 15.0404C20.2066 15.0404 20.2065 15.4655 19.7815 15.4655ZM22.3318 15.4655C21.9067 15.4655 21.9067 15.0404 21.9067 15.0404C21.9067 10.79 21.9067 6.96463 21.9067 2.71418C21.9067 2.28914 22.3318 2.28911 22.3318 2.28911C22.7568 2.28911 22.7568 2.71418 22.7568 2.71418C22.7568 6.96463 22.7568 10.79 22.7568 15.0404L22.3318 15.4655ZM24.457 15.4655C24.032 15.4655 24.0319 15.0404 24.0319 15.0404C24.0319 10.79 24.032 6.96463 23.6069 2.71418C23.6069 2.28914 24.0319 2.28911 24.0319 2.28911C24.457 2.28911 24.457 2.71418 24.457 2.71418C24.457 6.96463 24.882 10.79 24.882 15.0404C24.882 15.0404 24.8821 15.4655 24.457 15.4655ZM26.5822 15.4655C26.1572 15.4655 26.1572 15.0404 26.1572 15.0404C26.1572 10.79 25.7322 6.96463 25.7322 2.71418C25.7322 2.28914 26.1572 2.28911 26.1572 2.28911C26.5822 2.28911 26.5822 2.71418 26.5822 2.71418C26.5822 6.96463 27.0072 10.79 27.0072 15.0404C27.4323 15.0404 27.0073 15.4655 26.5822 15.4655ZM29.1325 15.4655C28.7074 15.4655 28.7075 15.0404 28.7075 15.0404C28.7075 10.79 28.2824 6.96463 28.2824 2.71418C28.2824 2.28914 28.2824 2.28911 28.7075 2.28911C29.1325 2.28911 29.1325 2.71418 29.1325 2.71418C29.5575 6.96463 29.5576 10.79 29.9826 15.0404C29.5576 15.0404 29.1325 15.4655 29.1325 15.4655ZM30.8327 14.6154C30.4076 10.365 30.4076 6.53956 29.9826 2.28911C29.9826 1.86407 29.9826 1.86411 30.4076 1.86411C30.8326 1.86411 30.8327 2.28911 30.8327 2.28911C31.2577 6.53956 31.2577 10.365 31.6827 14.6154C31.6827 15.0405 31.2577 15.0404 31.2577 15.0404C30.8326 15.4655 30.8327 15.0405 30.8327 14.6154Z" fill="black"/>
</svg>
