<svg width="82" height="74" viewBox="0 0 82 74" fill="none" xmlns="http://www.w3.org/2000/svg">
<path d="M61.9454 11.5908H5.41453C2.86426 11.5908 0.739014 13.7159 0.739014 16.2662V59.6208C0.739014 62.171 2.86426 64.2962 5.41453 64.2962H11.3651C11.3651 58.3456 16.0406 53.6701 21.9912 53.6701C27.9419 53.6701 32.6173 58.3456 32.6173 64.2962H51.7443C51.7443 58.3456 56.4198 53.6701 62.3704 53.6701C68.3211 53.6701 72.9966 58.3456 72.9966 64.2962H76.8219C79.3722 64.2962 81.4974 62.171 81.4974 59.6208V31.5678C81.4974 20.5167 72.5715 11.5908 61.9454 11.5908ZM39.8431 34.1181L43.6685 36.2433C44.0936 36.2433 44.0936 36.6684 43.6685 37.0934L41.1182 41.3438C41.1182 41.7689 40.6931 41.7689 40.2681 41.3438L36.4427 39.2186C36.0177 39.2186 36.0176 39.2186 36.0176 39.6436V44.3191C36.0176 44.7442 36.0177 44.7442 35.5927 44.7442H30.9172C30.4921 44.7442 30.4921 44.7442 30.4921 44.3191V39.6436C30.4921 39.2186 30.4921 39.2186 30.067 39.2186L26.2417 41.3438C25.8166 41.3438 25.8166 41.3438 25.3915 41.3438L22.8414 37.0934C22.8414 36.6684 22.8414 36.6684 22.8414 36.2433L26.6667 34.1181C27.0918 34.1181 27.0918 33.693 26.6667 33.693L22.8414 31.5678C22.4163 31.5678 22.4163 31.1427 22.8414 31.1427L25.3915 26.8923C25.3915 26.4673 25.8166 26.4673 26.2417 26.8923L30.067 29.0175C30.4921 29.0175 30.4921 29.0176 30.4921 28.5925V23.917C30.4921 23.492 30.4921 23.492 30.9172 23.492H35.5927C36.0177 23.492 36.0176 23.492 36.0176 23.917V28.5925C36.0176 29.0176 36.0177 29.0175 36.4427 29.0175L40.2681 26.8923C40.6931 26.8923 40.6932 26.8923 41.1182 26.8923L43.6685 31.1427C43.6685 31.5678 43.6685 31.5678 43.6685 31.5678L39.8431 33.693C39.4181 34.1181 39.4181 34.1181 39.8431 34.1181ZM78.0971 37.9435H58.9701V14.9911H61.5203C70.4462 14.9911 78.0971 22.2168 78.0971 31.5678V37.9435Z" fill="black"/>
<path d="M21.9913 54.9453C16.8908 54.9453 12.6404 59.1957 12.6404 64.2963C12.6404 69.3968 16.8908 73.6472 21.9913 73.6472C27.0918 73.6472 31.3423 69.3968 31.3423 64.2963C31.3423 59.1957 27.0918 54.9453 21.9913 54.9453ZM21.9913 68.9718C19.4411 68.9718 17.3159 66.8465 17.3159 64.2963C17.3159 61.746 19.4411 59.6208 21.9913 59.6208C24.5416 59.6208 26.6668 61.746 26.6668 64.2963C26.6668 66.8465 24.5416 68.9718 21.9913 68.9718Z" fill="black"/>
<path d="M62.3706 54.9453C57.27 54.9453 53.0195 59.1957 53.0195 64.2963C53.0195 69.3968 57.27 73.6472 62.3706 73.6472C67.4712 73.6472 71.7217 69.3968 71.7217 64.2963C71.7217 59.1957 67.4712 54.9453 62.3706 54.9453ZM62.3706 68.9718C59.8203 68.9718 57.6951 66.8465 57.6951 64.2963C57.6951 61.746 59.8203 59.6208 62.3706 59.6208C64.9209 59.6208 67.0461 61.746 67.0461 64.2963C67.0461 66.8465 64.9209 68.9718 62.3706 68.9718Z" fill="black"/>
<path d="M60.6704 4.79007C60.6704 2.66486 58.9703 0.964722 56.845 0.964722C54.7198 0.964722 53.0195 2.66486 53.0195 4.79007V9.89056H60.6704V4.79007Z" fill="black"/>
</svg>
