<svg width="77" height="88" viewBox="0 0 77 88" fill="none" xmlns="http://www.w3.org/2000/svg">
<path d="M33.6069 38.7812L31.9067 15.8288C31.4817 7.32797 23.8309 0.527262 14.905 0.952306C6.40408 1.37735 -0.396628 9.02814 0.0284165 17.9541L3.00371 58.7583C3.42876 63.4337 5.55398 67.6842 9.37938 70.2345C9.80443 65.559 11.5046 60.8835 14.905 57.4832L33.6069 38.7812ZM5.55401 36.2309L4.27886 17.529C3.85382 10.7283 8.95434 5.20273 15.755 4.35264C22.5558 3.92759 28.0814 9.02814 28.9315 15.8288L30.2066 34.5308L5.55401 36.2309Z" fill="black"/>
<path d="M71.436 29.0052C65.0603 22.6295 54.4342 22.6295 48.0585 29.0052L17.4553 59.6084C11.0797 65.9841 11.0797 76.6102 17.4553 82.9858C23.831 89.3615 34.4571 89.3615 40.8328 82.9858L71.436 52.3826C77.8117 46.0069 77.8117 35.3809 71.436 29.0052ZM68.4607 49.8324L54.4342 63.8588L36.1573 45.5819L50.1838 31.5555C55.2843 26.4549 63.3601 26.4549 68.4607 31.5555C73.5612 36.656 73.5612 44.7318 68.4607 49.8324Z" fill="black"/>
</svg>
