<svg width="80" height="74" viewBox="0 0 80 74" fill="none" xmlns="http://www.w3.org/2000/svg">
<path d="M19.4043 39.0934C19.4043 39.9435 19.4043 40.3686 19.4043 41.2187C19.4043 49.7196 24.5048 56.9453 31.3055 59.9206C31.7305 59.4956 31.7305 58.6455 32.1556 57.7954C32.1556 57.3703 32.1556 57.3703 32.1556 56.9453C26.205 53.97 21.9546 48.0194 21.9546 40.7936C21.9546 40.3686 21.9546 39.9436 21.9546 39.5185C21.5295 39.5185 20.2544 39.5185 19.4043 39.0934Z" fill="black"/>
<path d="M30.0304 26.3423C33.0057 24.217 36.4061 22.9419 40.2315 22.9419C44.0569 22.9419 47.4572 24.217 50.4325 26.3423C51.2826 25.4922 51.7077 25.0671 52.5577 24.217C49.1574 21.6667 44.907 20.3916 40.2315 20.3916C35.556 20.3916 31.3055 21.6667 27.9052 24.217C28.7552 25.0671 29.1803 25.9172 30.0304 26.3423Z" fill="black"/>
<path d="M47.8822 57.3705C47.8822 57.7955 47.8822 57.7955 47.8822 58.2205C47.8822 59.0706 48.3072 59.4957 48.7323 60.3458C55.958 56.9454 60.6335 49.7197 60.6335 41.6439C60.6335 40.7938 60.6335 40.3688 60.6335 39.5187C59.7835 39.5187 58.5083 39.9437 57.6582 40.3687C57.6582 40.7938 57.6582 41.2188 57.6582 41.6439C58.0832 48.4446 53.8328 54.3952 47.8822 57.3705Z" fill="black"/>
<path d="M68.2842 31.4428C66.159 30.1677 64.0338 29.3176 61.4836 28.8926C62.3337 26.7673 62.7587 24.217 62.7587 22.0918C62.7587 11.8908 55.958 3.38986 46.607 0.414551C52.5576 2.96482 56.383 8.91546 56.383 15.7162C56.383 24.6421 49.1573 32.2929 39.8063 32.2929C30.8804 32.2929 23.2296 25.0671 23.2296 15.7162C23.2296 8.91546 27.48 2.96482 33.0056 0.414551C23.6547 3.38986 16.8539 11.8908 16.8539 22.0918C16.8539 24.6421 17.279 26.7673 18.1291 28.8926C16.0039 29.3176 13.4536 30.1677 11.3283 31.4428C2.40242 36.5433 -1.42298 46.7444 0.702243 56.0954C-0.147845 49.7197 2.82744 43.344 8.77806 39.9437C16.4288 35.2682 26.6299 38.2435 31.3054 45.8943C35.9809 53.5451 33.0056 63.7461 25.3548 68.4216C19.4042 71.822 12.6035 70.9719 7.50297 67.1465C14.7287 73.9472 25.3548 75.6474 34.2807 70.1218C36.4059 68.8467 38.5312 67.1465 39.8063 65.4463C41.5065 67.1465 43.2067 68.8467 45.3319 70.1218C54.2578 75.2224 65.309 73.5222 72.1097 67.1465C67.0091 70.9719 59.7834 71.822 53.8328 68.4216C46.182 63.7461 43.2067 53.9702 47.8822 45.8943C52.5577 38.2435 62.3336 35.2682 70.4095 39.9437C76.3601 43.344 79.3354 49.7197 78.4853 56.0954C81.4606 46.7444 77.2102 36.5433 68.2842 31.4428ZM40.2314 46.7444C37.2561 46.7444 34.7058 44.1941 34.7058 41.2188C34.7058 38.2435 37.2561 35.6932 40.2314 35.6932C43.2067 35.6932 45.7569 38.2435 45.7569 41.2188C45.7569 44.1941 43.2067 46.7444 40.2314 46.7444Z" fill="black"/>
</svg>
