<svg width="82" height="92" viewBox="0 0 82 92" fill="none" xmlns="http://www.w3.org/2000/svg">
<path d="M73.9221 51.7072C72.222 50.007 70.0967 47.8818 67.9715 46.1816C70.0967 44.4815 72.222 42.3562 73.9221 40.6561C80.2978 33.4303 82.423 27.4797 80.2978 23.6543C78.5976 21.104 75.6223 19.4039 70.5218 19.4039C66.2713 19.4039 60.3207 20.679 54.3701 22.8042C51.8198 10.0529 47.1443 0.701904 40.7687 0.701904C34.393 0.701904 29.7175 10.0529 27.1673 22.8042C20.7916 20.679 15.266 19.4039 11.0156 19.4039C5.06496 19.4039 2.51472 21.5291 1.23958 23.6543C-0.885636 27.4797 1.23958 33.4303 7.61525 40.6561C9.31542 42.3562 11.4407 44.4815 13.5659 46.1816C11.4407 47.8818 9.31542 50.007 7.61525 51.7072C1.23958 58.9329 -0.885636 64.8836 1.23958 68.709C2.93976 71.2592 5.91505 72.9594 11.0156 72.9594C15.266 72.9594 21.2167 71.6843 27.1673 69.5591C29.7175 82.3104 34.393 91.6613 40.7687 91.6613C47.1443 91.6613 51.8198 82.3104 54.3701 69.5591C60.7458 71.6843 66.2713 72.9594 70.5218 72.9594C75.1973 72.9594 78.5976 71.6843 80.2978 68.709C82.423 64.4585 80.2978 58.5079 73.9221 51.7072ZM11.0156 69.134C7.61523 69.134 5.06497 68.2839 4.21488 67.0088C2.93975 64.4585 5.06498 59.783 10.1655 53.8324C11.8657 52.1322 13.9909 50.007 16.1161 47.8818C19.0914 50.007 22.0667 52.5573 25.0421 54.6825C25.4671 58.5079 25.8922 62.3333 26.3172 65.7337C20.3666 67.8589 14.841 69.134 11.0156 69.134ZM25.0421 50.4321C22.9168 48.7319 20.7916 47.4567 19.0914 45.7566C20.7916 44.0564 22.9168 42.7813 25.0421 41.0811C25.0421 42.7813 25.0421 44.0564 25.0421 45.7566C25.0421 47.4567 25.0421 48.7319 25.0421 50.4321ZM25.0421 36.8307C21.6417 38.9559 18.6664 41.0811 16.1161 43.6314C13.9909 41.5061 11.8657 39.806 10.1655 37.6808C5.06498 32.1552 2.93975 27.0546 4.21488 24.5044C5.06497 23.2292 7.61523 22.3791 11.0156 22.3791C15.266 22.3791 20.7916 23.6543 26.7422 25.7795C25.8921 29.1799 25.4671 33.0053 25.0421 36.8307ZM52.6699 34.2804C51.3948 33.4303 50.1197 32.5802 48.8445 31.7301C47.5694 30.88 46.2943 30.03 45.0191 29.6049C47.5694 28.3298 49.6946 27.4797 52.2449 26.6296C51.8198 29.1799 52.2449 31.7301 52.6699 34.2804ZM40.7687 3.67722C44.5941 3.67722 48.8445 11.328 50.9697 23.2293C47.5694 24.5044 44.169 26.2046 40.7687 27.9047C37.3683 26.2046 33.968 24.5044 30.5676 23.2293C32.6929 11.328 36.9433 3.67722 40.7687 3.67722ZM29.7175 27.0547C31.8428 27.9047 34.393 28.7548 36.9433 30.03C35.6682 30.88 34.393 31.3051 33.1179 32.1552C31.8428 33.0053 30.5676 33.8553 29.2925 34.7054C29.2925 31.7301 29.2925 29.1799 29.7175 27.0547ZM28.8675 57.2328C30.1426 58.0829 31.4177 58.933 32.6929 59.783C33.968 60.6331 35.2431 61.4832 36.5182 61.9083C33.968 63.1834 31.8428 64.0335 29.2925 64.8836C29.2925 62.3333 29.2925 59.783 28.8675 57.2328ZM40.7687 87.8359C36.9433 87.8359 32.6929 80.1852 30.5676 68.2839C33.968 67.0088 37.3683 65.3086 40.7687 63.6084C44.169 65.3086 47.5694 67.0088 50.9697 68.2839C48.8445 80.6102 44.5941 87.8359 40.7687 87.8359ZM51.8199 64.8836C49.6946 64.0335 47.1443 63.1834 44.5941 61.9083C45.8692 61.0582 47.1444 60.6331 48.4195 59.783C49.6946 58.933 50.9698 58.0829 52.2449 57.2328C52.2449 59.783 51.8199 62.3333 51.8199 64.8836ZM52.6699 52.9823C50.5447 54.2575 48.8445 55.5326 46.7193 56.8077C44.5941 58.0829 42.4689 58.9329 40.7687 60.2081C38.6435 59.358 36.5183 58.0829 34.8181 56.8077C32.6929 55.5326 30.5676 54.2575 28.8675 52.9823C28.8675 50.8571 28.8675 48.3069 28.8675 46.1816C28.8675 43.6314 28.8675 41.5061 28.8675 39.3809C30.9927 38.1058 32.6929 36.8307 34.8181 35.5555C36.9433 34.2804 39.0685 33.4303 40.7687 32.1552C42.8939 33.0053 45.0191 34.2804 46.7193 35.5555C48.8445 36.8307 50.9697 38.1058 52.6699 39.3809C52.6699 41.5061 52.6699 44.0564 52.6699 46.1816C53.095 48.3069 53.095 50.4321 52.6699 52.9823ZM70.5218 22.3791C73.9221 22.3791 76.4724 23.2292 77.3225 24.5044C78.5976 27.0546 76.4724 31.7301 71.3719 37.6808C69.6717 39.3809 67.5465 41.5061 65.4212 43.6314C62.4459 41.5061 59.4706 38.9559 56.4953 36.8307C56.0703 33.0053 55.6452 29.1799 55.2202 25.7795C60.7458 23.6543 66.2713 22.3791 70.5218 22.3791ZM56.4953 41.0811C58.6206 42.7813 60.7458 44.0564 62.446 45.7566C60.7458 47.4567 58.6206 48.7319 56.4953 50.4321C56.4953 48.7319 56.4953 47.4567 56.4953 45.7566C56.4953 44.4814 56.4953 42.7813 56.4953 41.0811ZM77.3225 67.0088C76.4724 68.2839 73.9221 69.134 70.5218 69.134C66.2713 69.134 60.7458 67.8589 54.7951 65.7337C55.2202 62.3333 55.6452 58.5079 56.0703 54.6825C59.4706 52.5573 62.4459 50.4321 64.9962 47.8818C67.1214 50.007 69.2467 51.7072 70.9468 53.8324C76.4724 59.783 78.5976 64.4585 77.3225 67.0088Z" fill="black"/>
<path d="M40.7689 37.2556C36.0935 37.2556 32.2681 41.081 32.2681 45.7565C32.2681 50.432 36.0935 54.2574 40.7689 54.2574C45.4444 54.2574 49.2698 50.432 49.2698 45.7565C49.2698 41.081 45.4444 37.2556 40.7689 37.2556Z" fill="black"/>
</svg>
