<svg width="67" height="67" viewBox="0 0 67 67" fill="none" xmlns="http://www.w3.org/2000/svg">
<path d="M38.1697 3.84119C38.1697 5.54137 39.4448 6.81652 41.145 6.81652H56.0215L37.3196 25.5185C33.4942 22.5431 28.8187 20.843 23.7182 20.843C17.7676 20.843 11.817 23.3932 7.56651 27.6437C-1.35941 36.5696 -1.35941 51.0211 7.56651 59.522C11.817 63.7725 17.3425 66.3228 23.7182 66.3228C29.6688 66.3228 35.6194 63.7725 39.8699 59.522C44.1203 55.2716 46.6706 49.746 46.6706 43.3703C46.6706 38.2698 44.9704 33.5943 41.9951 29.7689L60.697 11.067V25.9435C60.697 27.6437 61.9721 28.9188 63.6723 28.9188C65.3725 28.9188 66.6476 27.6437 66.6476 25.9435V0.440857H41.145C39.4448 0.865901 38.1697 2.14102 38.1697 3.84119ZM35.6194 55.2716C32.6441 58.2469 28.3936 59.9471 24.1432 59.9471C19.8928 59.9471 15.6423 58.2469 12.667 55.2716C6.29137 48.8959 6.29137 38.2698 12.667 31.8941C15.6423 28.9188 19.8928 27.2186 24.1432 27.2186C28.3936 27.2186 32.6441 28.9188 35.6194 31.8941C38.5947 34.8694 40.2949 39.1199 40.2949 43.3703C40.2949 48.0458 38.5947 52.2963 35.6194 55.2716Z" fill="black"/>
</svg>
