<svg width="35" height="96" viewBox="0 0 35 96" fill="none" xmlns="http://www.w3.org/2000/svg">
<path d="M33.9822 70.6086H29.7318V32.7796C29.7318 30.2293 27.6065 28.1041 25.0563 28.1041H20.8059C20.8059 28.1041 20.8059 28.1041 20.8059 27.679V25.5538C20.8059 24.2787 19.9558 23.4286 18.6806 23.4286V1.75136L16.9805 0.0511475V23.4286C15.7054 23.4286 14.8553 24.2787 14.8553 25.5538V27.679C14.8553 27.679 14.8553 27.6791 14.8553 28.1041H10.6049C8.0546 28.1041 5.92936 30.2293 5.92936 32.7796V70.6086H1.67893C1.25389 70.6086 0.828857 71.0336 0.828857 71.4586C0.828857 71.8837 1.25389 72.3087 1.67893 72.3087H11.0299V93.986H6.77949C6.35445 93.986 5.92936 94.411 5.92936 94.8361C5.92936 95.2611 6.35445 95.6862 6.77949 95.6862H27.6066C28.0316 95.6862 28.4566 95.2611 28.4566 94.8361C28.4566 94.411 28.0316 93.986 27.6066 93.986H23.3561V72.3087H32.7071C33.1321 72.3087 33.5571 71.8837 33.5571 71.4586C35.2573 71.0336 34.8323 70.6086 33.9822 70.6086ZM17.4056 25.9789H19.5308V28.1041H17.4056V25.9789ZM12.305 70.6086H8.90471V50.6315H12.305V70.6086ZM17.4056 94.411H14.0052V72.7338H17.4056V94.411ZM17.4056 70.6086H14.0052V50.6315H17.4056V70.6086ZM22.9311 94.411H19.5308V72.7338H22.9311V94.411ZM22.9311 70.6086H19.5308V50.6315H22.9311V70.6086ZM28.0316 70.6086H24.6313V50.6315H28.0316V70.6086ZM28.0316 48.5063H8.47964V32.7796C8.47964 31.5044 9.75479 30.2293 11.0299 30.2293H25.4813C26.7565 30.2293 28.0316 31.5044 28.0316 32.7796V48.5063Z" fill="black"/>
<path d="M25.0562 30.6544H11.88C10.6049 30.6544 9.32971 31.9296 9.32971 33.2047V48.0812H27.6065V33.2047C27.6065 31.9296 26.3314 30.6544 25.0562 30.6544Z" fill="black"/>
</svg>
