<svg width="75" height="76" viewBox="0 0 75 76" fill="none" xmlns="http://www.w3.org/2000/svg">
<path d="M61.4587 19.4409L67.4093 13.4903C69.1095 15.1905 71.6598 15.1905 73.36 13.4903C75.0602 11.7901 75.0602 9.23989 73.36 7.53971C71.6598 5.83953 69.1095 5.83953 67.4093 7.53971C69.1095 5.83953 69.1095 3.28928 67.4093 1.5891C65.7091 -0.11108 63.1589 -0.11108 61.4587 1.5891C59.7585 3.28928 59.7585 5.83953 61.4587 7.53971L61.8838 7.96478L55.5081 14.3405C57.6333 16.0406 59.7585 17.7407 61.4587 19.4409Z" fill="black"/>
<path d="M66.984 61.9453L66.559 62.3703L58.9081 54.7196C57.2079 55.9947 55.0827 57.2698 52.9575 58.545C53.3826 58.97 53.3826 59.8201 53.3826 60.2451L61.0334 67.8959C59.3332 69.596 59.3332 72.1464 61.0334 73.8466C62.7335 75.5467 65.2838 75.5467 66.984 73.8466C68.6842 72.1464 68.6842 69.596 66.984 67.8959C68.6842 69.596 71.2345 69.596 72.9346 67.8959C74.6348 66.1957 74.6348 63.6454 72.9346 61.9453C71.2345 60.2451 68.6842 60.2451 66.984 61.9453Z" fill="black"/>
<path d="M7.05316 13.4903L13.0038 19.4409C14.704 17.7407 16.8292 16.0406 18.9544 14.7654L12.5787 8.38978C13.0038 8.38978 13.0038 7.96484 13.4288 7.96484C15.129 6.26467 15.129 3.71431 13.4288 2.01414C11.7286 0.313971 9.17841 0.313971 7.47823 2.01414C5.77805 3.71431 5.77805 6.26467 7.47823 7.96484C5.77805 6.26467 3.22775 6.26467 1.52757 7.96484C-0.172603 9.66501 -0.172603 12.2152 1.52757 13.9154C2.80271 15.1905 5.35298 15.1905 7.05316 13.4903Z" fill="black"/>
<path d="M7.90323 62.3703C7.90323 61.9453 7.47823 61.9453 7.47823 61.9453C5.77805 60.2451 3.22775 60.2451 1.52757 61.9453C-0.172603 63.6454 -0.172603 66.1957 1.52757 67.8959C3.22775 69.596 5.77805 69.596 7.47823 67.8959C5.77805 69.596 5.77805 72.1464 7.47823 73.8466C9.17841 75.5467 11.7286 75.5467 13.4288 73.8466C15.129 72.1464 15.129 69.596 13.4288 67.8959L21.0796 60.2451C21.0796 59.8201 21.5047 58.97 21.5047 58.545C19.3795 57.6949 17.2542 56.4198 15.554 54.7196L7.90323 62.3703Z" fill="black"/>
<path d="M66.9843 36.0176C66.9843 22.4162 53.3828 11.3651 37.2311 11.3651C20.6544 11.3651 7.47803 22.4162 7.47803 36.0176C7.47803 45.3686 13.8537 53.4445 23.2047 57.6949C22.3546 59.8201 21.5045 61.9453 21.5045 64.0706H23.2047V61.5203C23.2047 61.0952 23.6297 61.0953 23.6297 61.0953C24.0548 61.0953 24.0547 61.5203 24.0547 61.5203V64.0706H27.03V61.5203C27.03 61.0952 27.4551 61.0953 27.4551 61.0953C27.8801 61.0953 27.8802 61.5203 27.8802 61.5203V64.0706H30.8555V61.5203C30.8555 61.0952 31.2805 61.0953 31.2805 61.0953C31.7055 61.0953 31.7056 61.5203 31.7056 61.5203V64.0706H34.6808V61.5203C34.6808 61.0952 35.1059 61.0953 35.1059 61.0953C35.531 61.0953 35.5309 61.5203 35.5309 61.5203V64.0706H38.5063V61.5203C38.5063 61.0952 38.5062 61.0953 38.9313 61.0953C39.3563 61.0953 39.3564 61.5203 39.3564 61.5203V64.0706H42.3317V61.5203C42.3317 61.0952 42.7567 61.0953 42.7567 61.0953C43.1818 61.0953 43.1817 61.5203 43.1817 61.5203V64.0706H46.157V61.5203C46.157 61.0952 46.1571 61.0953 46.5821 61.0953C47.0072 61.0953 47.0072 61.5203 47.0072 61.5203V64.0706H49.9825V61.5203C49.9825 61.0952 49.9824 61.0953 50.4075 61.0953C50.8325 61.0953 50.8326 61.5203 50.8326 61.5203V64.0706H52.5327C52.5327 61.9453 52.1077 59.3951 50.8326 57.6949C60.6086 53.4445 66.9843 45.3686 66.9843 36.0176ZM24.9048 48.344C19.3792 48.344 14.7038 46.2187 14.7038 43.2434C14.7038 40.6932 18.5292 37.7179 24.0547 37.2928C33.4057 36.0177 34.6808 38.993 34.6808 41.5433C34.6808 44.5186 30.4304 48.344 24.9048 48.344ZM36.8061 52.1694C36.381 54.7196 35.956 56.8449 35.1059 56.8449C34.2558 56.8449 33.8308 54.7196 34.2558 52.1694C34.2558 49.6191 35.1059 47.4939 35.956 47.4939C36.381 47.4939 36.8061 49.6191 36.8061 52.1694ZM39.3564 56.8449C38.5063 56.8449 37.6561 54.7196 37.6561 52.1694C37.2311 49.6191 38.0812 47.4939 38.5063 47.4939C39.3564 47.4939 40.2064 49.6191 40.2064 52.1694C40.6315 54.2946 40.2065 56.4198 39.3564 56.8449ZM49.5574 48.344C44.0318 48.344 39.3564 44.5186 39.3564 41.9683C39.3564 39.4181 40.6315 36.4428 49.9825 37.7179C55.5081 38.568 59.3334 41.1182 59.3334 43.6685C59.7585 46.2188 55.083 48.344 49.5574 48.344Z" fill="black"/>
</svg>
