<svg width="62" height="82" viewBox="0 0 62 82" fill="none" xmlns="http://www.w3.org/2000/svg">
<path d="M37.9062 33.6667V4.76363H38.7563C39.6064 4.76363 40.4565 3.91356 40.4565 3.06348V2.21346C40.4565 1.36338 39.6064 0.513184 38.7563 0.513184H22.1796C21.3295 0.513184 20.4794 1.36338 20.4794 2.21346V3.06348C20.4794 3.91356 21.3295 4.76363 22.1796 4.76363H23.0297V33.6667L1.35244 74.8959C-0.772781 78.2963 0.927369 81.2716 5.17781 81.2716L57.0332 80.8467C61.2837 80.8467 62.9838 77.8714 60.4335 74.471L37.9062 33.6667ZM58.7334 78.2964C58.3083 78.7214 57.4582 79.1464 56.1831 79.1464L4.32773 79.5715C3.0526 79.5715 2.20255 79.1465 1.77751 78.7215C1.35247 78.2964 1.77747 77.0212 2.20251 76.1712L23.8798 34.9418L24.3048 34.5167V34.0918V5.1887V3.06348H22.1796H21.7546V2.63841H37.9062V3.06348H37.4812H35.356V5.1887V34.0918V34.5167L35.781 34.9418L57.8833 75.7461C58.7334 76.5962 59.1584 77.4463 58.7334 78.2964Z" fill="black"/>
<path d="M30.6806 43.4425C31.5307 43.4425 32.3809 42.5925 32.3809 41.7424C32.3809 40.8923 31.5307 40.0422 30.6806 40.0422C29.8305 40.0422 28.9805 40.8923 28.9805 41.7424C29.4055 42.5925 29.8305 43.4425 30.6806 43.4425Z" fill="black"/>
<path d="M28.1304 36.2168C28.9805 36.2168 29.4056 35.7917 29.4056 34.9416C29.4056 34.0915 28.9805 33.6665 28.1304 33.6665C27.2803 33.6665 26.8552 34.0915 26.8552 34.9416C27.2803 35.7917 27.7053 36.2168 28.1304 36.2168Z" fill="black"/>
<path d="M28.5552 51.5186C30.6804 51.5186 31.9555 49.8184 31.9555 48.1182C31.9555 45.993 30.2553 44.7179 28.5552 44.7179C26.43 44.7179 25.1549 46.418 25.1549 48.1182C24.7299 49.8184 26.43 51.5186 28.5552 51.5186Z" fill="black"/>
<path d="M31.5303 50.6685C31.5303 51.9436 32.8054 53.2188 34.0805 53.2188C35.3556 53.2188 36.6307 51.9436 36.6307 50.6685C36.6307 49.3933 35.3556 48.1182 34.0805 48.1182C32.8054 48.1182 31.5303 48.9683 31.5303 50.6685Z" fill="black"/>
<path d="M21.7544 53.6438C23.4546 53.6438 24.7297 52.3688 24.7297 50.6686C24.7297 48.9684 23.4546 47.6932 21.7544 47.6932C20.0542 47.6932 18.7791 48.9684 18.7791 50.6686C18.7791 52.3688 20.0542 53.6438 21.7544 53.6438Z" fill="black"/>
<path d="M57.4582 76.1712L43.8568 51.5184H42.5816C42.5816 52.7936 41.3065 54.0687 40.0314 54.0687C38.7563 54.0687 37.4811 52.7936 37.4811 51.5184C37.056 53.2186 35.7809 54.0687 34.0807 54.0687C32.3806 54.0687 31.1054 53.2186 30.6804 51.5184C29.8303 51.9435 28.9802 52.3686 28.1301 52.3686C27.28 52.3686 26.4299 51.9435 25.5798 51.5184C25.1548 53.2186 23.4546 54.4938 21.7545 54.4938C19.6293 54.4938 17.929 53.2187 17.929 51.0935H16.654L3.47756 76.1712C3.05252 77.0213 3.05249 77.8713 3.05249 77.8713C3.05249 77.8713 3.47757 78.2964 4.75271 78.2964L56.6081 77.8713C57.8832 77.8713 58.3082 77.4462 58.3082 77.4462C57.8832 77.4462 57.8832 77.0213 57.4582 76.1712Z" fill="black"/>
<path d="M40.4562 52.7937C41.3063 52.7937 42.1564 51.9436 42.1564 51.0935C42.1564 50.2434 41.3063 49.3932 40.4562 49.3932C39.6061 49.3932 38.7561 50.2434 38.7561 51.0935C38.7561 51.9436 39.1811 52.7937 40.4562 52.7937Z" fill="black"/>
</svg>
