<svg width="77" height="96" viewBox="0 0 77 96" fill="none" xmlns="http://www.w3.org/2000/svg">
<path d="M40.3807 45.0071C38.2554 45.0071 37.4053 45.4321 36.5552 45.8572C36.5552 47.9824 36.5552 50.5327 36.5552 53.0829C38.2554 52.2328 39.5306 51.8078 40.3807 50.9577C40.3807 49.2575 40.3807 46.7073 40.3807 45.0071Z" fill="black"/>
<path d="M36.5551 11.0035C36.5551 13.9789 36.5551 18.6543 36.5551 25.8801C36.5551 29.2804 36.5551 33.9559 36.5551 37.7813C38.2553 37.7813 39.5305 37.3563 40.3806 37.3563C40.3806 33.5309 40.3806 28.8554 40.3806 25.455C40.3806 18.2293 40.3806 13.5538 40.3806 10.5785C42.5058 9.72841 43.7809 8.02824 43.7809 5.47797C43.7809 2.50266 41.2306 0.377441 38.6804 0.377441C35.7051 0.377441 33.5799 2.92771 33.5799 5.47797C33.1548 8.45328 34.855 10.1535 36.5551 11.0035Z" fill="black"/>
<path d="M33.5802 38.2064C29.7548 37.7813 26.7795 36.5062 25.9294 35.2311C24.2292 33.5309 25.0794 30.9806 26.7796 32.2557C28.4797 33.5309 29.7549 34.381 33.1552 34.381C35.7055 34.381 36.1305 32.2557 34.8554 30.9806C33.5803 29.2804 34.4303 28.8554 31.455 28.0053C28.0547 27.1552 20.8289 28.0053 19.9788 32.6808C19.1287 36.5062 22.5291 40.3316 27.2046 42.4568C28.0547 40.3316 31.03 38.6314 33.5802 38.2064ZM31.455 30.5556C31.455 30.5556 31.8801 30.5556 32.7302 30.5556C33.1552 30.9806 33.5802 30.9806 33.5802 31.4057C33.5802 31.4057 33.1552 31.4057 32.3051 31.4057C31.455 30.9806 31.03 30.5556 31.455 30.5556Z" fill="black"/>
<path d="M41.6562 84.9613C41.2312 84.9613 37.8308 86.6615 36.9807 86.6615C37.4058 92.1871 37.8308 95.5874 38.2559 95.5874C39.106 95.5874 39.531 91.762 39.956 86.2364C44.2065 87.9366 45.9067 88.7867 46.3317 88.3617C46.7568 87.9366 44.6316 86.6615 41.6562 84.9613Z" fill="black"/>
<path d="M49.7323 43.732C47.182 44.157 44.6317 45.0071 41.6564 45.0071C42.9315 45.4322 44.2066 46.2823 44.2066 47.5574C44.2066 50.5327 40.3812 52.2329 35.7057 54.3581C31.0302 56.4833 27.6299 58.6085 27.6299 61.5838C27.6299 64.9842 29.7551 65.4093 31.8803 67.1094C33.5805 66.2593 39.5312 64.1341 40.3813 63.284C40.3813 62.0089 40.3813 61.1588 40.3813 59.8837C41.6564 60.3087 42.5065 60.7338 42.5065 61.1588C42.5065 62.4339 42.0814 63.7091 36.9809 65.8343C31.8803 67.9595 30.1801 69.2346 30.1801 71.7849C30.1801 73.4851 31.0302 75.1853 32.7304 76.8854C34.4306 75.6103 39.9562 73.9101 40.3813 73.06C40.3813 72.635 40.3813 71.7849 40.3813 70.9348C41.2313 71.3599 41.2313 71.7849 41.2313 72.21C41.2313 73.9101 39.5311 74.3352 35.7057 76.0353C32.3054 77.7355 31.4553 78.1606 31.8803 80.2858C32.3054 81.5609 33.1555 82.8361 35.2807 84.1112C36.1308 83.6861 39.5312 81.5609 40.3813 80.7108C40.3813 80.2858 40.3813 79.8608 40.3813 79.4357C42.5065 80.2858 39.9562 81.986 37.831 83.6861C34.0055 86.2364 30.6052 87.9366 31.0303 88.3616C31.4553 88.7867 33.1554 87.9366 38.681 85.8114C44.2066 83.6861 45.0567 82.411 45.4818 80.2858C45.4818 79.0107 45.4818 78.1606 44.6317 77.3105C42.9315 78.5856 38.6811 79.0107 36.9809 80.2858C36.9809 80.7108 36.9809 81.1359 36.9809 81.5609C34.8556 80.2858 36.9809 79.0107 40.3813 77.7355C45.9069 76.4604 47.182 73.9101 46.7569 71.3599C46.7569 70.0847 45.9068 68.8096 45.0567 67.5345C43.7816 68.3846 36.9809 70.5098 36.5558 70.9348C36.5558 71.3599 36.5558 72.635 36.5558 73.4851C35.7057 73.06 35.2807 72.635 35.2807 71.7849C35.2807 70.0847 36.5558 70.0847 40.3813 68.3846C44.2067 66.6844 48.8821 64.1341 48.4571 60.7338C48.4571 58.6085 47.182 57.3334 45.4818 56.0583C44.2067 56.4833 37.4059 59.4586 36.5558 59.8837C36.5558 61.1588 36.5558 62.0089 36.5558 63.284C34.8556 62.4339 34.4306 61.5839 34.4306 60.7338C34.4306 59.4586 38.6811 58.6085 44.6317 55.6332C50.5824 53.083 51.4324 49.2576 51.0074 45.8572C50.5824 45.4322 50.1573 44.5821 49.7323 43.732Z" fill="black"/>
<path d="M66.3087 13.5538C57.3828 13.5538 52.7074 13.1287 50.1571 11.0035C47.6069 9.30332 45.0566 9.72836 45.0566 11.8536C45.0566 13.9788 43.7815 14.8289 42.5063 14.8289C41.2312 14.8289 41.2312 14.4038 41.2312 16.104C41.2312 16.5291 41.2312 21.6296 41.2312 23.7548C41.2312 25.88 41.6563 27.1552 42.5063 25.88C43.7815 24.6049 43.3564 24.6049 47.6068 26.3051C51.8573 28.0053 53.1324 25.88 53.1324 24.6049C53.1324 23.3298 54.4075 22.9047 56.9578 24.1799C59.508 25.455 62.4834 24.6049 62.9084 22.4797C62.9084 20.3545 64.1835 20.7795 66.7338 20.7795C69.284 20.7795 68.434 17.8042 69.2841 17.8042C70.1341 17.8042 73.9595 18.2292 75.6597 15.679C76.9348 12.7037 75.2346 13.5538 66.3087 13.5538Z" fill="black"/>
<path d="M23.3791 24.18C23.3791 25.4551 24.6543 27.1553 28.9047 25.8801C33.1552 24.18 32.7301 24.605 34.0052 25.4551C35.2804 26.7302 35.2804 25.4551 35.2804 23.3299C35.2804 21.2047 35.2804 16.1041 35.2804 15.6791C35.2804 13.9789 35.2804 14.404 34.0052 14.404C32.7301 14.404 31.88 13.5539 31.455 11.4287C31.455 9.30343 28.9047 8.87839 26.3544 10.5786C23.8042 12.2787 19.1287 13.1288 10.2027 13.1288C1.27681 13.1288 -0.423352 12.2787 0.851781 14.829C2.12691 17.3793 6.37736 16.9542 7.22745 16.9542C8.07753 16.9542 7.22747 20.3546 9.77774 19.9295C12.328 19.9295 13.6031 19.5045 13.6031 21.6297C13.6031 23.7549 16.5784 24.605 19.5537 23.3299C22.529 22.4798 23.3791 22.9048 23.3791 24.18Z" fill="black"/>
<path d="M45.4816 28.4303C42.0813 29.2804 43.3564 29.7054 42.0813 31.4056C40.8061 33.1058 41.2312 34.806 43.7815 34.806C47.1819 34.806 48.0319 33.9559 50.1572 32.6808C51.8573 31.4056 52.7074 33.5308 51.0072 35.6561C49.3071 37.3562 45.4817 38.6314 37.4058 38.6314C29.33 39.0564 26.7797 42.8818 25.9296 46.2822C25.5045 49.2575 26.3547 52.6578 30.6051 55.6331C32.3053 54.783 35.7056 53.0829 36.1307 53.0829L35.2806 52.2328C33.5804 50.9577 32.3053 48.8324 32.7303 47.5573C32.7303 44.582 40.3811 45.007 46.7568 43.7319C53.1325 42.4568 57.8079 37.7813 56.9578 33.1058C56.1077 28.0053 48.882 27.5802 45.4816 28.4303ZM45.0566 30.9806C44.6315 31.4056 44.2065 31.4056 43.7815 30.9806C43.7815 30.9806 44.2065 30.5555 44.6316 30.1305C45.0566 29.7054 45.4817 29.7054 45.9067 30.1305C45.9067 30.5555 45.4816 30.9806 45.0566 30.9806Z" fill="black"/>
</svg>
