<svg width="47" height="87" viewBox="0 0 47 87" fill="none" xmlns="http://www.w3.org/2000/svg">
<path d="M41.471 24.6667C40.6209 24.6667 40.6209 24.6667 40.6209 22.1164C40.6209 19.5662 41.0459 19.5661 42.3211 19.5661C43.5962 19.5661 44.0212 17.4409 41.896 17.4409C39.3457 17.4409 23.1941 17.4409 23.1941 17.4409C23.1941 17.4409 7.04241 17.4409 4.49215 17.4409C1.94189 17.4409 2.79198 19.5661 4.06711 19.5661C5.34224 19.5661 5.76726 19.5662 5.76726 22.1164C5.76726 24.6667 5.76727 24.6667 4.91719 24.6667C4.0671 24.6667 0.666748 24.2417 0.666748 29.7672C0.666748 34.8678 0.666748 72.2717 0.666748 77.3722C0.666748 82.4727 0.666748 86.7231 4.91719 86.7231C9.16763 86.7231 23.6191 86.7231 23.6191 86.7231C23.6191 86.7231 38.0706 86.7231 42.3211 86.7231C46.5715 86.7231 46.5715 82.4727 46.5715 77.3722C46.5715 72.2717 46.5715 34.8678 46.5715 29.7672C45.2964 24.2417 42.321 24.6667 41.471 24.6667Z" fill="black"/>
<path d="M4.49217 16.5909H40.6209C41.471 16.5909 42.3211 15.7409 42.3211 14.4657V2.13943C42.3211 1.28934 41.471 0.439209 40.6209 0.439209H4.49217C3.64209 0.439209 2.79199 1.28934 2.79199 2.13943V14.4657C2.79199 15.7409 3.64209 16.5909 4.49217 16.5909ZM40.6209 1.71436C40.6209 1.28931 40.6209 1.28931 40.6209 1.71436C41.471 1.28931 41.471 1.28931 41.471 1.71436V14.4657C41.471 14.8908 41.471 14.8908 41.0459 14.8908C40.6209 14.8908 40.6209 14.8908 40.6209 14.4657V1.71436ZM38.9207 1.71436C38.9207 1.28931 38.9207 1.28929 39.3457 1.28929C39.7708 1.28929 39.7708 1.28931 39.7708 1.71436V14.4657C39.7708 14.8908 39.7708 14.8908 39.3457 14.8908C38.9207 14.8908 38.9207 14.8908 38.9207 14.4657V1.71436ZM37.6456 1.71436C37.6456 1.28931 37.6456 1.28931 37.6456 1.71436C38.4957 1.28931 38.4957 1.28931 38.4957 1.71436V14.4657C38.4957 14.8908 38.4957 14.8908 38.0706 14.8908C37.6456 14.8908 37.6456 14.8908 37.6456 14.4657V1.71436ZM35.9454 1.71436C35.9454 1.28931 35.9454 1.28931 35.9454 1.71436C36.7955 1.28931 36.7955 1.28931 36.7955 1.71436V14.4657C36.7955 14.8908 36.7955 14.8908 36.3705 14.8908C35.9454 14.8908 35.9454 14.8908 35.9454 14.4657V1.71436ZM34.2452 1.71436C34.2452 1.28931 34.6703 1.28931 34.2452 1.71436C35.0953 1.28931 35.0953 1.28931 35.0953 1.71436V14.4657C35.0953 14.8908 35.0953 14.8908 34.6703 14.8908C34.2452 14.8908 34.2452 14.8908 34.2452 14.4657V1.71436ZM32.9701 1.71436C32.9701 1.28931 32.9701 1.28929 33.3951 1.28929C33.8202 1.28929 33.8202 1.28931 33.8202 1.71436V14.4657C33.8202 14.8908 33.8202 14.8908 33.3951 14.8908C32.9701 14.8908 32.9701 14.8908 32.9701 14.4657V1.71436ZM31.2699 1.71436C31.2699 1.28931 31.695 1.28931 31.2699 1.71436C32.12 1.28931 32.12 1.28931 32.12 1.71436V14.4657C32.12 14.8908 32.12 14.8908 31.695 14.8908C31.2699 14.8908 31.2699 14.8908 31.2699 14.4657V1.71436ZM29.9948 1.71436C29.9948 1.28931 29.9948 1.28929 30.4198 1.28929C30.8449 1.28929 30.8449 1.28931 30.8449 1.71436V14.4657C30.8449 14.8908 30.8449 14.8908 30.4198 14.8908C29.9948 14.8908 29.9948 14.8908 29.9948 14.4657V1.71436ZM28.2946 1.71436C28.2946 1.28931 28.7197 1.28931 28.2946 1.71436C29.1447 1.28931 29.1447 1.28931 29.1447 1.71436V14.4657C29.1447 14.8908 29.1447 14.8908 28.7197 14.8908C28.2946 14.8908 28.2946 14.8908 28.2946 14.4657V1.71436ZM27.0195 1.71436C27.0195 1.28931 27.0195 1.28931 27.0195 1.71436C27.8696 1.28931 27.8696 1.28931 27.8696 1.71436V14.4657C27.8696 14.8908 27.8696 14.8908 27.4445 14.8908C27.0195 14.8908 27.0195 14.8908 27.0195 14.4657V1.71436ZM25.3193 1.71436C25.3193 1.28931 25.3193 1.28931 25.3193 1.71436C26.1694 1.28931 26.1694 1.28931 26.1694 1.71436V14.4657C26.1694 14.8908 26.1694 14.8908 25.7444 14.8908C25.3193 14.8908 25.3193 14.8908 25.3193 14.4657V1.71436ZM23.6191 1.71436C23.6191 1.28931 24.0442 1.28931 23.6191 1.71436C24.4692 1.28931 24.4692 1.28931 24.4692 1.71436V14.4657C24.4692 14.8908 24.4692 14.8908 24.0442 14.8908C23.6191 14.8908 23.6191 14.8908 23.6191 14.4657V1.71436ZM22.344 1.71436C22.344 1.28931 22.344 1.28931 22.344 1.71436C23.1941 1.28931 23.1941 1.28931 23.1941 1.71436V14.4657C23.1941 14.8908 23.1941 14.8908 22.769 14.8908C22.344 14.8908 22.344 14.8908 22.344 14.4657V1.71436ZM20.6438 1.71436C20.6438 1.28931 20.6438 1.28929 21.0689 1.28929C21.4939 1.28929 21.4939 1.28931 21.4939 1.71436V14.4657C21.4939 14.8908 21.4939 14.8908 21.0689 14.8908C20.6438 14.8908 20.6438 14.8908 20.6438 14.4657V1.71436ZM19.3687 1.71436C19.3687 1.28931 19.3687 1.28931 19.3687 1.71436C20.2188 1.28931 20.2188 1.28931 20.2188 1.71436V14.4657C20.2188 14.8908 20.2188 14.8908 19.7937 14.8908C19.3687 14.8908 19.3687 14.8908 19.3687 14.4657V1.71436ZM17.6685 1.71436C17.6685 1.28931 17.6685 1.28929 18.0936 1.28929C18.5186 1.28929 18.5186 1.28931 18.5186 1.71436V14.4657C18.5186 14.8908 18.5186 14.8908 18.0936 14.8908C17.6685 14.8908 17.6685 14.8908 17.6685 14.4657V1.71436ZM16.3934 1.71436C16.3934 1.28931 16.3934 1.28931 16.3934 1.71436C17.2435 1.28931 17.2435 1.28931 17.2435 1.71436V14.4657C17.2435 14.8908 17.2435 14.8908 16.8184 14.8908C16.3934 14.8908 16.3934 14.8908 16.3934 14.4657V1.71436ZM14.6932 1.71436C14.6932 1.28931 14.6932 1.28931 14.6932 1.71436C15.5433 1.28931 15.5433 1.28931 15.5433 1.71436V14.4657C15.5433 14.8908 15.5433 14.8908 15.1183 14.8908C14.6932 14.8908 14.6932 14.8908 14.6932 14.4657V1.71436ZM12.993 1.71436C12.993 1.28931 13.4181 1.28931 12.993 1.71436C13.8431 1.28931 13.8431 1.28931 13.8431 1.71436V14.4657C13.8431 14.8908 13.8431 14.8908 13.4181 14.8908C12.993 14.8908 12.993 14.8908 12.993 14.4657V1.71436ZM11.7179 1.71436C11.7179 1.28931 11.7179 1.28929 12.1429 1.28929C12.568 1.28929 12.568 1.28931 12.568 1.71436V14.4657C12.568 14.8908 12.568 14.8908 12.1429 14.8908C11.7179 14.8908 11.7179 14.8908 11.7179 14.4657V1.71436ZM10.0177 1.71436C10.0177 1.28931 10.4428 1.28931 10.0177 1.71436C10.8678 1.28931 10.8678 1.28931 10.8678 1.71436V14.4657C10.8678 14.8908 10.8678 14.8908 10.4428 14.8908C10.0177 14.8908 10.0177 14.8908 10.0177 14.4657V1.71436ZM8.74261 1.71436C8.74261 1.28931 8.74261 1.28929 9.16765 1.28929C9.59269 1.28929 9.59269 1.28931 9.59269 1.71436V14.4657C9.59269 14.8908 9.59269 14.8908 9.16765 14.8908C8.74261 14.8908 8.74261 14.8908 8.74261 14.4657V1.71436ZM7.04243 1.71436C7.04243 1.28931 7.46747 1.28931 7.04243 1.71436C7.89252 1.28931 7.8925 1.28931 7.8925 1.71436V14.4657C7.8925 14.8908 7.89251 14.8908 7.46747 14.8908C7.04242 14.8908 7.04243 14.8908 7.04243 14.4657V1.71436ZM5.76729 1.71436C5.76729 1.28931 5.76729 1.28931 5.76729 1.71436C6.61737 1.28931 6.61739 1.28931 6.61739 1.71436V14.4657C6.61739 14.8908 6.6174 14.8908 6.19236 14.8908C5.76731 14.8908 5.76729 14.8908 5.76729 14.4657V1.71436ZM4.06714 1.71436C4.06714 1.28931 4.06714 1.28931 4.06714 1.71436C4.91722 1.28931 4.91721 1.28931 4.91721 1.71436V14.4657C4.91721 14.8908 4.91722 14.8908 4.49217 14.8908C4.06713 14.8908 4.06714 14.8908 4.06714 14.4657V1.71436Z" fill="black"/>
</svg>
