<svg width="89" height="65" viewBox="0 0 89 65" fill="none" xmlns="http://www.w3.org/2000/svg">
<path d="M19.1907 14.9789H26.8416C28.1167 14.9789 28.9668 14.1288 28.9668 12.8537V12.4286H16.6404V12.8537C17.0654 13.7037 17.9155 14.9789 19.1907 14.9789Z" fill="black"/>
<path d="M29.392 8.60327L30.2422 3.07763C30.2422 1.80249 29.8172 0.952393 28.542 0.952393H16.6407C15.3656 0.952393 14.9406 1.80249 14.9406 3.07763L15.7907 8.60327H29.392Z" fill="black"/>
<path d="M23.0163 59.6086C28.5419 59.6086 32.7925 55.3582 32.7925 49.8326V10.7285C32.7925 10.3034 32.3674 9.87842 31.9423 9.87842H14.5154C14.0904 9.87842 13.6654 10.3034 13.6654 10.7285V49.8326C13.2404 55.3582 17.4908 59.6086 23.0163 59.6086ZM14.9405 11.5786H30.6672V49.8326C30.6672 54.083 27.2669 57.9085 22.5914 57.9085C18.3409 57.9085 14.5154 54.5081 14.5154 49.8326V11.5786H14.9405Z" fill="black"/>
<path d="M23.0164 56.6333C26.8418 56.6333 29.8171 53.658 29.8171 49.8326V25.1799H16.2158V49.8326C16.2158 53.658 19.191 56.6333 23.0164 56.6333Z" fill="black"/>
<path d="M40.8683 14.9789H48.519C49.7941 14.9789 50.6442 14.1288 50.6442 12.8537V12.4286H38.318V12.8537C38.743 13.7037 39.5931 14.9789 40.8683 14.9789Z" fill="black"/>
<path d="M51.0688 8.60327L51.9189 3.07763C51.9189 1.80249 51.4939 0.952393 50.2188 0.952393H38.3175C37.0423 0.952393 36.6173 1.80249 36.6173 3.07763L37.4675 8.60327H51.0688Z" fill="black"/>
<path d="M44.693 59.6086C50.2186 59.6086 54.4691 55.3582 54.4691 49.8326V10.7285C54.4691 10.3034 54.044 9.87842 53.619 9.87842H36.1922C35.7671 9.87842 35.3422 10.3034 35.3422 10.7285V49.8326C34.9171 55.3582 39.1675 59.6086 44.693 59.6086ZM36.6173 11.5786H52.3439V49.8326C52.3439 54.083 48.9435 57.9085 44.268 57.9085C40.0175 57.9085 36.1922 54.5081 36.1922 49.8326V11.5786H36.6173Z" fill="black"/>
<path d="M44.6932 56.6333C48.5186 56.6333 51.4939 53.658 51.4939 49.8326V32.4058H37.8926V49.8326C37.8926 53.658 40.8679 56.6333 44.6932 56.6333Z" fill="black"/>
<path d="M62.5449 14.9789H70.1957C71.4708 14.9789 72.3209 14.1288 72.3209 12.8537V12.4286H59.9946V12.8537C60.4197 13.7037 61.6948 14.9789 62.5449 14.9789Z" fill="black"/>
<path d="M73.1717 8.60327L74.0217 3.07763C74.0217 1.80249 73.5967 0.952393 72.3216 0.952393H60.4204C59.1452 0.952393 58.7202 1.80249 58.7202 3.07763L59.5702 8.60327H73.1717Z" fill="black"/>
<path d="M66.3707 59.6086C71.8963 59.6086 76.1467 55.3582 76.1467 49.8326V10.7285C76.1467 10.3034 75.7218 9.87842 75.2967 9.87842H57.8698C57.4448 9.87842 57.0197 10.3034 57.0197 10.7285V49.8326C56.5946 55.3582 60.8451 59.6086 66.3707 59.6086ZM58.2949 11.5786H74.0215V49.8326C74.0215 54.083 70.6212 57.9085 65.9457 57.9085C61.6952 57.9085 57.8698 54.5081 57.8698 49.8326V11.5786H58.2949Z" fill="black"/>
<path d="M66.3709 56.6333C70.1963 56.6333 73.1716 53.658 73.1716 49.8326V29.4304H59.5702V49.8326C59.5702 53.658 62.5455 56.6333 66.3709 56.6333Z" fill="black"/>
<path d="M86.7727 30.7055H83.3724C80.3971 30.7055 78.2718 33.2558 78.2718 36.6562V58.7585C78.2718 60.0336 76.9968 61.3087 75.7217 61.3087H13.2401C11.9649 61.3087 10.6898 60.0336 10.6898 58.7585V36.6562C10.6898 33.2558 8.56464 30.7055 5.58933 30.7055H2.61397C1.76388 30.7055 0.913818 31.5556 0.913818 32.4057C0.913818 33.2558 1.76388 34.1059 2.61397 34.1059H6.01427C6.86436 34.1059 7.71456 35.381 7.71456 36.6562V58.7585C7.71456 62.1589 10.2648 64.7091 13.6652 64.7091H76.1466C79.547 64.7091 82.0973 62.1589 82.0973 58.7585V36.6562C82.0973 35.381 82.9474 34.1059 83.7975 34.1059H87.1978C88.0479 34.1059 88.8979 33.2558 88.8979 32.4057C88.4729 31.5556 87.6228 30.7055 86.7727 30.7055Z" fill="black"/>
</svg>
