<svg width="43" height="80" viewBox="0 0 43 80" fill="none" xmlns="http://www.w3.org/2000/svg">
<path d="M20.4693 53.8571C19.1941 57.2575 18.7691 57.2576 20.4693 58.5327C21.7444 59.8079 21.3194 55.9824 21.3194 53.8571C21.3194 51.7319 20.8943 51.7319 20.4693 53.8571Z" fill="black"/>
<path d="M21.7445 53.8571C21.7445 55.9824 21.3195 59.8079 22.5946 58.5327C23.8697 57.2576 23.8697 57.2575 22.5946 53.8571C21.7445 51.7319 21.7445 51.7319 21.7445 53.8571Z" fill="black"/>
<path d="M18.7693 48.7567C17.9192 47.9066 17.4941 47.4816 14.9439 48.3316C12.3936 49.1817 11.9686 49.1818 12.3936 52.1571C12.8186 54.2823 14.0938 54.7073 16.219 54.2823C18.3442 53.8573 19.6194 52.5821 19.6194 51.3069C19.6194 49.6068 20.0444 49.6068 18.7693 48.7567Z" fill="black"/>
<path d="M27.695 48.3317C25.1448 47.4816 25.1448 47.9066 23.8696 48.7567C23.0195 49.6068 23.0195 49.6068 23.0195 50.882C23.0195 52.1571 24.2947 53.4322 26.4199 53.8573C28.5451 54.2823 29.8203 54.2823 30.2453 51.732C30.6703 49.1818 29.8202 49.1817 27.695 48.3317Z" fill="black"/>
<path d="M35.7711 30.0547C31.9457 29.2046 28.9704 26.6544 28.9704 24.5292C28.9704 22.404 30.6706 20.7037 32.3708 20.7037C34.0709 20.7037 35.7711 18.1535 35.7711 14.7531C35.7711 11.3528 32.3708 8.80249 28.1203 8.80249H14.5189C10.2684 8.80249 6.8681 11.3528 6.8681 14.7531C6.8681 18.1535 8.56827 20.7037 10.2684 20.7037C11.9686 20.7037 13.6688 22.404 13.6688 24.5292C13.6688 26.6544 10.6935 29.2046 6.8681 30.0547C3.0427 30.9048 0.0673828 35.1553 0.0673828 39.4057V72.1341C0.0673828 76.3846 3.46775 79.7849 7.71819 79.7849H35.3461C39.5965 79.7849 42.9969 76.3846 42.9969 72.1341V39.4057C42.5718 35.1553 39.5965 30.9048 35.7711 30.0547ZM30.6706 64.0582C31.0956 66.1835 31.0956 66.6085 27.6953 68.7337C24.2949 71.284 24.2949 71.284 23.4448 71.284C22.5947 71.284 21.7446 71.284 21.7446 71.284C21.7446 71.284 20.8946 71.284 20.0445 71.284C19.1944 71.284 19.1944 71.284 15.794 68.7337C12.3937 66.1835 12.3937 66.1835 12.8187 64.0582C13.2438 61.933 12.3937 59.8078 12.3937 58.5327C12.3937 58.5327 12.8187 58.9577 13.6688 58.9577C14.5189 58.9577 14.9439 58.5327 14.9439 58.5327C14.9439 58.5327 14.9439 59.3828 15.369 60.6579C15.794 61.508 16.2191 62.3581 16.2191 62.3581V62.7831C16.2191 63.2082 16.2191 63.6332 16.6441 63.6332C16.6441 64.0583 16.6441 64.4833 17.0692 64.4833C17.0692 64.4833 17.0692 64.4833 17.4942 64.4833C17.4942 64.9083 17.9192 64.9084 17.9192 64.9084C17.9192 64.9084 17.9193 64.9084 18.3443 64.9084C18.3443 65.3334 18.7693 65.3334 18.7693 65.3334C18.7693 65.3334 18.7693 65.3334 19.1944 65.3334C19.1944 65.7584 19.6194 65.7584 19.6194 65.7584H20.0445C20.0445 66.1835 20.4695 66.1835 20.4695 66.1835C20.8946 66.1835 20.8946 66.1835 20.8946 65.7584L21.3196 66.1835C21.7446 66.1835 21.7446 65.7584 21.7446 65.7584H22.1697C22.5947 65.7584 22.5947 65.7584 22.5947 65.3334C22.5947 65.3334 22.5947 65.3334 23.0198 65.3334C23.4448 65.3334 23.4448 64.9084 23.4448 64.9084C23.4448 64.9084 23.4448 64.9084 23.8699 64.9084C24.2949 64.9084 24.2949 64.4833 24.2949 64.4833C24.2949 64.4833 24.2949 64.4833 24.72 64.4833C25.145 64.4833 25.145 64.0583 25.145 63.6332C25.57 63.6332 25.57 63.2082 25.57 62.7831C25.57 62.3581 25.57 62.3581 25.57 62.3581C25.9951 61.933 26.4201 61.508 26.4201 60.6579C26.8452 59.3828 26.8452 58.5327 26.8452 58.5327C26.8452 58.5327 27.2702 58.9577 28.1203 58.9577C28.9704 58.9577 29.3954 58.5327 29.3954 58.5327C31.0956 59.8078 30.2455 61.933 30.6706 64.0582ZM17.9192 62.7831C17.9192 63.6332 17.9192 63.6332 17.4942 63.6332C17.0692 63.6332 17.0692 63.6332 17.0692 62.7831C17.0692 61.9331 17.0692 61.933 17.4942 61.933C17.9192 61.933 17.9192 62.3581 17.9192 62.7831ZM17.9192 64.4833C17.9192 64.9083 17.9192 65.3334 17.4942 65.3334C17.0692 65.3334 17.0692 64.9083 17.0692 64.4833C17.0692 64.0583 17.0692 63.6332 17.4942 63.6332C17.9192 64.0583 17.9192 64.0583 17.9192 64.4833ZM17.0692 62.7831C17.0692 63.6332 17.0692 63.6332 16.6441 63.6332C16.2191 63.6332 16.2191 63.2082 16.2191 62.7831C16.2191 62.3581 16.2191 61.933 16.6441 61.933C17.4942 61.933 17.0692 61.9331 17.0692 62.7831ZM17.0692 64.0582C17.0692 64.4833 17.0692 64.4833 16.6441 64.4833C16.2191 64.4833 16.2191 64.0583 16.2191 63.6332C16.2191 63.2082 16.2191 62.7831 16.6441 63.2082C17.0692 63.6332 17.0692 63.6332 17.0692 64.0582ZM16.6441 62.3581C16.6441 63.2082 16.6441 63.2082 16.2191 62.7831C15.794 62.7831 15.794 62.3581 16.2191 61.933C16.2191 61.508 16.2191 61.0829 16.6441 61.0829C16.6441 61.508 16.6441 61.933 16.6441 62.3581ZM16.2191 63.6332C16.2191 64.0583 16.2191 64.0582 16.2191 64.0582C16.2191 64.0582 15.794 63.6332 15.794 63.2082C15.794 62.7831 15.794 62.3581 16.2191 62.7831C16.6441 63.2082 16.2191 63.2082 16.2191 63.6332ZM16.2191 62.3581C16.2191 62.7831 16.2191 62.7831 16.2191 62.3581C15.794 62.3581 15.794 62.3581 16.2191 62.3581C15.794 61.508 15.794 61.508 16.2191 61.508C16.2191 61.508 16.2191 61.508 16.2191 62.3581ZM18.3443 64.0582C17.9193 64.0582 17.9192 63.6332 17.9192 62.7831C17.9192 62.3581 17.9193 61.508 18.3443 61.933C18.7693 61.933 18.7693 62.3581 18.7693 63.2082C18.7693 64.0582 18.7693 64.4833 18.3443 64.0582ZM18.7693 65.7584C18.3443 65.7584 18.3443 65.3334 18.3443 64.9084C18.3443 64.4833 18.3443 64.0583 18.7693 64.4833C19.1944 64.4833 19.1944 64.4833 19.1944 65.3334C18.7693 65.7584 19.1944 65.7584 18.7693 65.7584ZM19.6194 64.4833C20.0445 64.4833 20.0445 64.4833 20.0445 65.3334C20.0445 66.1835 20.0445 66.1835 19.6194 66.1835C19.1944 66.1835 19.1944 65.7584 19.1944 65.3334C19.1944 64.9083 18.7693 64.4833 19.6194 64.4833ZM19.1944 63.2082C19.1944 62.3581 19.1944 61.933 19.6194 61.933C20.0445 61.933 20.0445 62.7831 20.0445 63.2082C20.0445 64.0582 20.0445 64.4833 19.6194 64.0582C18.7693 64.0582 19.1944 64.0582 19.1944 63.2082ZM21.3196 64.0582C21.3196 64.9083 21.3196 64.9084 20.8946 64.9084C20.0445 64.9084 20.4695 64.9083 20.4695 64.0582C20.4695 63.2081 20.4695 62.3581 20.8946 62.3581C21.3196 62.3581 21.3196 63.2081 21.3196 64.0582ZM21.3196 65.7584C21.3196 66.6085 21.3196 66.6085 20.8946 66.6085C20.4695 66.6085 20.4695 66.1835 20.4695 65.7584C20.4695 65.3334 20.4695 65.3334 20.8946 65.3334C21.3196 64.9083 21.3196 64.9084 21.3196 65.7584ZM22.1697 64.9084C22.5947 64.9084 22.5947 64.9083 22.5947 65.3334C22.5947 66.1835 22.5947 66.1835 22.1697 66.1835C21.7446 66.1835 21.7446 66.1835 21.7446 65.3334C21.3196 64.9083 21.3196 64.9084 22.1697 64.9084ZM22.1697 62.3581C23.0198 62.3581 22.5947 63.2081 22.5947 64.0582C22.5947 64.9083 22.5947 64.9084 22.1697 64.9084C21.7446 64.9084 21.7446 64.9083 21.7446 64.0582C21.3196 63.2081 21.3196 62.3581 22.1697 62.3581ZM23.4448 64.4833C23.8699 64.4833 23.8699 64.4833 23.8699 65.3334C23.8699 65.7584 23.8699 66.1835 23.4448 66.1835C23.0198 66.1835 23.0198 66.1835 23.0198 65.3334C22.5947 64.9083 22.5947 64.9083 23.4448 64.4833ZM23.0198 61.933C23.4448 61.933 23.4448 62.3581 23.4448 63.2082C23.4448 64.0582 23.8699 64.0583 23.0198 64.4833C22.5947 64.9083 22.5947 64.0583 22.5947 63.6332C22.5947 62.7831 22.5947 61.933 23.0198 61.933ZM24.2949 64.0582C23.8699 64.0582 23.8699 64.0582 23.8699 63.2082C23.8699 62.3581 23.8699 61.933 24.2949 61.933C24.7199 61.933 24.72 62.3581 24.72 62.7831C24.72 63.6332 24.7199 64.0582 24.2949 64.0582ZM24.72 64.9084C24.72 65.3334 24.7199 65.7584 24.2949 65.7584C23.8699 65.7584 23.8699 65.7585 23.8699 64.9084C23.8699 64.4833 23.8699 64.0582 24.2949 64.0582C24.7199 64.0582 24.72 64.0583 24.72 64.9084ZM26.8452 62.7831C26.4201 61.9331 26.4201 61.508 26.8452 61.508C26.8452 61.508 27.2702 61.508 27.2702 61.933C27.2702 62.3581 27.2702 62.3581 26.8452 62.7831ZM26.8452 63.6332C26.8452 64.0583 26.8452 64.4833 26.4201 64.4833C26.4201 64.4833 25.9951 64.4833 25.9951 64.0582C25.9951 63.6332 25.9951 63.6332 26.4201 63.2082C26.8452 62.7831 26.8452 63.2082 26.8452 63.6332ZM26.4201 62.7831C25.9951 62.7831 25.9951 62.7831 25.9951 62.3581C25.9951 61.933 25.9951 61.508 25.9951 61.508C26.4201 61.508 26.4201 61.933 26.4201 62.3581C26.8452 62.7831 26.8452 62.7831 26.4201 62.7831ZM26.4201 64.0582C26.4201 64.4833 26.4201 64.9084 25.9951 64.9084C25.57 64.9084 25.57 64.9083 25.57 64.4833C25.57 64.0583 25.57 64.0583 25.9951 63.6332C26.4201 63.2082 26.4201 63.6332 26.4201 64.0582ZM25.9951 63.2082C25.57 63.2082 25.57 63.2082 25.57 62.3581C25.57 61.933 25.57 61.508 25.57 61.508C25.9951 61.508 25.9951 61.508 25.9951 62.3581C25.9951 63.2082 26.4201 63.2082 25.9951 63.2082ZM25.57 64.4833C25.57 64.9083 25.57 65.3334 25.145 65.3334C24.72 65.3334 24.72 65.3334 24.72 64.4833C24.72 64.0583 24.72 63.6332 25.145 63.6332C25.57 63.6332 25.57 64.0583 25.57 64.4833ZM25.145 63.6332C24.72 63.6332 24.72 63.6332 24.72 62.7831C24.72 61.9331 24.72 61.933 24.72 61.933C25.145 61.933 25.145 61.9331 25.145 62.7831C25.57 63.6332 25.57 63.6332 25.145 63.6332ZM31.9457 38.5556C31.0956 37.2804 30.6706 37.2805 30.2455 36.8554C30.6706 37.2805 31.0956 37.7055 31.9457 38.5556C32.3707 40.2558 31.5207 41.956 31.0956 44.5062C30.6706 47.0565 31.0956 47.9066 31.9457 49.6068C32.7958 51.3069 31.9457 52.157 32.7958 53.0071C32.7958 53.0071 32.7958 53.4321 33.2208 53.4321C34.496 54.7073 33.2208 56.4074 31.5207 57.6826C29.8205 59.3827 28.5454 56.8325 27.2702 58.1076C26.4201 58.9577 26.8452 59.8078 26.8452 60.2329C26.8452 60.2329 26.4201 60.2329 26.4201 60.6579C26.4201 60.6579 26.4201 60.6579 25.9951 60.6579C25.9951 60.6579 25.57 60.6579 25.57 61.0829C25.57 61.0829 25.57 61.0829 25.145 61.0829C25.145 61.0829 24.72 61.083 24.72 61.508L24.2949 61.0829C23.8699 61.0829 23.8699 61.083 23.8699 61.508L23.4448 61.0829H23.0198C23.0198 61.0829 23.0198 61.083 23.0198 61.508C23.0198 61.508 22.5947 61.0829 22.1697 61.0829H21.7446C21.7446 61.0829 21.7446 61.083 21.7446 61.508V61.0829H21.3196C20.8945 61.0829 20.8946 61.083 20.4695 61.508V61.0829C20.4695 61.0829 20.4695 61.0829 20.0445 61.0829C19.6194 61.0829 19.6194 61.083 19.6194 61.508C19.6194 61.083 19.6194 61.0829 19.1944 61.0829C19.1944 61.0829 18.7693 61.083 18.7693 61.508C18.7693 61.508 18.7693 61.508 18.3443 61.0829C18.3443 61.0829 18.3443 61.0829 17.9192 61.0829C17.9192 61.0829 17.9192 60.6579 17.4942 60.6579C17.4942 60.6579 17.4942 60.6579 17.0692 60.6579C17.0692 60.6579 17.0692 60.2329 16.6441 60.2329C17.0692 59.8078 17.0692 58.9577 16.2191 58.1076C14.9439 56.8325 13.6688 58.9577 11.9686 57.6826C10.2685 55.9824 8.99332 54.7073 10.2684 53.4321L10.6935 53.0071C11.1185 51.732 10.6935 50.8819 11.5436 49.6068C12.3937 47.9066 12.8187 47.0565 12.3937 44.5062C11.9686 41.956 11.1185 39.8307 11.9686 38.5556C12.3937 37.2804 13.2438 36.8554 13.2438 36.8554C12.8187 36.8554 12.3937 37.2804 11.5436 38.5556C10.6935 39.8307 11.5436 42.381 11.9686 44.9312C12.3937 47.0565 12.3937 47.9066 11.1185 50.0318C10.6935 50.4569 10.6935 50.8819 10.2684 51.3069C9.84341 50.0318 8.99331 48.3316 8.56827 44.5062C8.14322 37.2805 15.369 31.7549 22.1697 31.7549C28.9704 31.7549 36.1961 37.2805 35.7711 44.5062C35.7711 47.9066 34.921 50.0318 34.0709 51.3069C34.0709 50.8819 33.6459 50.4569 33.2208 50.0318C31.9457 47.9066 31.9457 47.4815 32.3708 44.9312C32.3708 42.381 32.7958 39.8307 31.9457 38.5556Z" fill="black"/>
<path d="M28.9703 6.67737C28.9703 6.67737 28.9703 6.25232 28.9703 6.67737V0.301636H13.6687V6.25236V6.67737H28.9703Z" fill="black"/>
</svg>
