<svg width="65" height="63" viewBox="0 0 65 63" fill="none" xmlns="http://www.w3.org/2000/svg">
<path d="M49.3579 0.241699C41.2821 0.241699 32.7812 4.06709 32.7812 4.06709C32.7812 4.06709 24.7053 0.241699 16.2045 0.241699C8.55366 0.241699 0.902832 3.64205 0.902832 17.6685C0.902832 45.7214 32.7812 62.7232 32.7812 62.7232C32.7812 62.7232 64.6595 46.1464 64.6595 17.6685C64.6595 3.64205 57.0087 0.241699 49.3579 0.241699ZM32.7812 52.5221C25.1304 47.4216 9.40372 35.0953 9.40372 17.6685C9.40372 13.8431 10.2538 11.2928 11.5289 10.0177C12.8041 9.16762 14.9293 8.74258 16.6295 8.74258C21.73 8.74258 27.6806 10.8678 29.3808 11.7179L32.7812 13.4181L36.1815 11.7179C37.8817 10.8678 43.8323 8.74258 48.9329 8.74258C50.633 8.74258 52.7582 9.16762 54.0334 10.0177C55.3085 11.2928 56.1586 13.8431 56.1586 17.6685C56.1586 34.6703 40.432 47.4216 32.7812 52.5221Z" fill="black"/>
</svg>
