<svg width="53" height="84" viewBox="0 0 53 84" fill="none" xmlns="http://www.w3.org/2000/svg">
<path d="M16.5559 5.27698H36.533C38.2331 5.27698 39.9333 4.00185 39.9333 2.72675C39.9333 1.45164 38.2331 0.176514 36.533 0.176514H16.9809C15.2808 0.176514 13.5806 1.45164 13.5806 2.72675C13.5806 4.00185 14.8557 5.27698 16.5559 5.27698Z" fill="black"/>
<path d="M49.2843 29.0794L44.6089 26.5292C42.9087 25.6791 41.6335 23.5538 41.6335 21.8536V15.478C41.6335 13.7778 42.4836 12.0776 43.3337 12.0776C44.1838 12.0776 45.0339 10.8025 45.0339 9.5274C45.0339 8.25227 43.7588 6.97711 41.6335 6.97711H11.4554C9.75527 6.97711 8.05511 8.25227 8.05511 9.5274C8.05511 10.8025 8.90517 12.0776 9.75526 12.0776C10.6053 12.0776 11.4554 13.7778 11.4554 15.478V21.8536C11.4554 23.5538 10.1803 25.6791 8.48015 26.5292L3.80467 29.0794C2.1045 29.9295 0.829346 32.0547 0.829346 33.7549V80.0846C0.829346 81.7848 2.52953 83.485 4.22971 83.485H48.8593C50.5595 83.485 52.2596 82.2098 52.2596 80.0846V33.7549C52.2596 32.0547 50.9845 29.9295 49.2843 29.0794ZM39.5083 58.4074C39.5083 60.1076 37.8082 61.8077 36.108 61.8077H16.556C14.8558 61.8077 13.1556 60.5326 13.1556 58.4074V40.1305C13.1556 38.4304 14.8558 36.7302 16.556 36.7302H36.533C38.2332 36.7302 39.9334 38.4304 39.9334 40.1305V58.4074H39.5083Z" fill="black"/>
</svg>
