<svg width="47" height="84" viewBox="0 0 47 84" fill="none" xmlns="http://www.w3.org/2000/svg">
<path d="M32.1566 23.5802C31.3065 20.6049 30.8816 20.6049 30.8816 13.8042C30.8816 7.00353 30.8815 4.87831 31.7316 4.02822C32.5817 3.17813 33.4318 2.75309 33.4318 1.903C33.4318 1.05291 31.7316 0.627869 23.2307 0.627869C14.7299 0.627869 13.0296 1.05291 13.0296 1.903C13.0296 2.75309 13.8798 2.75309 14.7299 4.02822C15.58 4.87831 15.5799 7.00353 15.5799 13.8042C15.5799 20.6049 15.1549 20.6049 14.3048 23.5802C13.4547 26.5556 12.6046 29.1058 7.92913 46.1076C3.25364 63.1094 0.27832 70.3351 0.27832 75.0106C0.27832 78.4109 4.10377 83.5115 11.7546 83.5115C19.8304 83.5115 23.2307 83.5115 23.2307 83.5115C23.2307 83.5115 26.6311 83.5115 34.7069 83.5115C42.7828 83.5115 46.1831 78.4109 46.1831 75.0106C46.1831 70.3351 43.2078 63.1094 38.5323 46.1076C33.8568 29.1058 32.5817 26.5556 32.1566 23.5802ZM10.9044 46.5326C13.4547 37.1817 15.1549 32.0811 16.005 29.1058C16.8551 26.5556 17.2801 25.2804 17.2801 24.0053C17.2801 23.5802 17.2801 23.1552 17.7052 23.1552C18.5552 20.6049 18.5552 19.3298 18.5552 13.3792C18.5552 8.27866 18.5553 5.7284 18.1302 4.02822C19.4054 4.02822 21.1055 4.02822 23.2307 4.02822C25.356 4.02822 27.0561 4.02822 28.3313 4.02822C27.9062 5.7284 27.9062 8.27866 27.9062 13.3792C27.9062 19.3298 28.3313 20.6049 28.7563 23.1552C28.7563 23.5803 28.7563 23.5802 29.1813 24.0053C29.6064 25.2804 30.0314 26.5556 30.4565 29.1058C31.3066 32.0811 33.0067 37.1817 35.557 46.5326C35.982 47.8078 36.4071 49.0829 36.4071 49.933H35.132H10.4794H9.20427C10.0544 49.0829 10.4794 47.8078 10.9044 46.5326ZM42.7827 74.5855C42.7827 76.2857 40.6575 80.1111 34.2819 80.1111H22.8057H11.3295C4.95383 80.1111 2.82861 76.2857 2.82861 74.5855C2.82861 71.6102 4.10372 66.9348 6.65398 58.8589C7.50407 56.7337 7.92912 54.1834 8.7792 51.2081H10.0543C9.20426 54.1834 8.35417 56.7337 7.92913 58.8589C5.80391 66.0847 4.52876 70.7601 4.52876 73.3104C4.52876 75.0106 6.65402 78.4109 12.6046 78.4109H23.2307H33.8568C39.8075 78.4109 41.9327 75.0106 41.9327 73.3104C41.9327 70.7601 40.6575 66.0847 38.5323 58.8589C37.6822 56.7337 37.2572 53.7584 36.4071 51.2081H37.6822C38.5323 53.7584 39.3824 56.3087 39.8074 58.8589C41.5076 66.9348 42.7827 72.0353 42.7827 74.5855Z" fill="black"/>
</svg>
