<svg width="49" height="73" viewBox="0 0 49 73" fill="none" xmlns="http://www.w3.org/2000/svg">
<path d="M42.6087 17.9418H6.47995C5.20481 17.9418 3.92969 19.2169 3.92969 20.4921L5.2048 70.2223C5.2048 71.4974 6.47993 72.7725 7.75506 72.7725H40.9085C42.1836 72.7725 43.4588 71.4974 43.4588 70.2223L44.7339 20.4921C45.159 18.7919 44.3089 17.9418 42.6087 17.9418Z" fill="black"/>
<path d="M45.5842 0.940063H3.50485C2.22972 0.940063 0.95459 2.21522 0.95459 3.49035V13.2663C0.95459 14.5414 2.22972 15.8166 3.50485 15.8166H45.5842C46.8593 15.8166 48.1345 14.5414 48.1345 13.2663V3.49035C48.1345 2.21522 46.8593 0.940063 45.5842 0.940063ZM5.20503 14.1164C5.20503 14.5415 4.78 14.9665 4.35495 14.9665C3.92991 14.9665 3.50485 14.5415 3.50485 14.1164V3.06528C3.50485 2.64024 3.92991 2.21521 4.35495 2.21521C4.78 2.21521 5.20503 2.64024 5.20503 3.06528V14.1164ZM9.03043 14.1164C9.03043 14.5415 8.6054 14.9665 8.18036 14.9665C7.75531 14.9665 7.33025 14.5415 7.33025 14.1164V3.06528C7.33025 2.64024 7.75531 2.21521 8.18036 2.21521C8.6054 2.21521 9.03043 2.64024 9.03043 3.06528V14.1164ZM12.4308 14.1164C12.4308 14.5415 12.0057 14.9665 11.5807 14.9665C11.1556 14.9665 10.7306 14.5415 10.7306 14.1164V3.06528C10.7306 2.64024 11.1556 2.21521 11.5807 2.21521C12.0057 2.21521 12.4308 2.64024 12.4308 3.06528V14.1164ZM16.2562 14.1164C16.2562 14.5415 15.8311 14.9665 15.4061 14.9665C14.981 14.9665 14.556 14.5415 14.556 14.1164V3.06528C14.556 2.64024 14.981 2.21521 15.4061 2.21521C15.8311 2.21521 16.2562 2.64024 16.2562 3.06528V14.1164ZM19.6565 14.1164C19.6565 14.5415 19.2315 14.9665 18.8065 14.9665C18.3814 14.9665 17.9563 14.5415 17.9563 14.1164V3.06528C17.9563 2.64024 18.3814 2.21521 18.8065 2.21521C19.2315 2.21521 19.6565 2.64024 19.6565 3.06528V14.1164ZM23.4819 14.1164C23.4819 14.5415 23.0569 14.9665 22.6318 14.9665C22.2068 14.9665 21.7817 14.5415 21.7817 14.1164V3.06528C21.7817 2.64024 22.2068 2.21521 22.6318 2.21521C23.0569 2.21521 23.4819 2.64024 23.4819 3.06528V14.1164ZM27.3073 14.1164C27.3073 14.5415 26.8823 14.9665 26.4572 14.9665C26.0322 14.9665 25.6071 14.5415 25.6071 14.1164V3.06528C25.6071 2.64024 26.0322 2.21521 26.4572 2.21521C26.8823 2.21521 27.3073 2.64024 27.3073 3.06528V14.1164ZM30.7077 14.1164C30.7077 14.5415 30.2826 14.9665 29.8576 14.9665C29.4325 14.9665 29.0075 14.5415 29.0075 14.1164V3.06528C29.0075 2.64024 29.4325 2.21521 29.8576 2.21521C30.2826 2.21521 30.7077 2.64024 30.7077 3.06528V14.1164ZM34.5331 14.1164C34.5331 14.5415 34.108 14.9665 33.683 14.9665C33.2579 14.9665 32.8329 14.5415 32.8329 14.1164V3.06528C32.8329 2.64024 33.2579 2.21521 33.683 2.21521C34.108 2.21521 34.5331 2.64024 34.5331 3.06528V14.1164ZM38.3585 14.1164C38.3585 14.5415 37.9334 14.9665 37.5084 14.9665C37.0833 14.9665 36.6583 14.5415 36.6583 14.1164V3.06528C36.6583 2.64024 37.0833 2.21521 37.5084 2.21521C37.9334 2.21521 38.3585 2.64024 38.3585 3.06528V14.1164ZM41.7588 14.1164C41.7588 14.5415 41.3338 14.9665 40.9087 14.9665C40.4837 14.9665 40.0587 14.5415 40.0587 14.1164V3.06528C40.0587 2.64024 40.4837 2.21521 40.9087 2.21521C41.3338 2.21521 41.7588 2.64024 41.7588 3.06528V14.1164ZM45.5842 14.1164C45.5842 14.5415 45.1592 14.9665 44.7341 14.9665C44.3091 14.9665 43.884 14.5415 43.884 14.1164V3.06528C43.884 2.64024 44.3091 2.21521 44.7341 2.21521C45.1592 2.21521 45.5842 2.64024 45.5842 3.06528V14.1164Z" fill="black"/>
</svg>
