<svg width="74" height="58" viewBox="0 0 74 58" fill="none" xmlns="http://www.w3.org/2000/svg">
<path d="M70.3349 27.4425H53.3331C52.483 27.4425 51.6329 27.8677 51.2079 28.7178L49.9328 31.693L47.3825 19.3667C47.3825 18.5166 46.5324 17.6666 45.2573 17.6666C44.4072 17.6666 43.5571 18.0916 43.1321 19.3667L37.1815 43.1692L33.3561 2.36495C33.3561 1.51486 32.506 0.664795 31.6559 0.664795C30.8058 0.664795 29.5307 1.08981 29.5307 2.36495L21.8799 29.9928L20.1797 19.3667C20.1797 18.5166 19.3296 17.6666 18.4795 17.6666C17.6294 17.6666 16.7794 18.0916 16.3543 18.9417L11.6788 29.1427H2.75291C1.47777 29.1427 0.627686 29.9928 0.627686 31.2679C0.627686 32.5431 1.47777 33.3931 2.75291 33.3931H13.379C14.2291 33.3931 15.0792 32.9682 15.5042 32.1181L17.6294 27.0175L19.7546 40.1939C19.7546 41.044 20.6047 41.894 21.8799 41.894C22.73 41.894 23.58 41.469 24.0051 40.1939L31.2309 14.2661L35.0563 55.9206C35.0563 56.7707 35.9063 57.6207 37.1815 57.6207C38.0316 57.6207 38.8817 56.7707 39.3067 55.9206L46.1074 29.5678L48.2326 39.7688C48.2326 40.6189 49.0827 41.4691 49.9328 41.4691C50.7829 41.4691 51.633 41.044 52.058 40.1939L55.4583 32.1181H71.185C72.4601 32.1181 73.3102 31.268 73.3102 29.9928C72.4601 28.2927 71.61 27.4425 70.3349 27.4425Z" fill="black"/>
</svg>
