<svg width="96" height="43" viewBox="0 0 96 43" fill="none" xmlns="http://www.w3.org/2000/svg">
<path d="M48.3187 12.8679C43.6433 12.8679 39.8179 16.6933 39.8179 21.3688C39.8179 26.0443 43.6433 29.8697 48.3187 29.8697C52.9942 29.8697 56.8196 26.0443 56.8196 21.3688C56.8196 16.6933 52.9942 12.8679 48.3187 12.8679Z" fill="black"/>
<path d="M93.7985 19.6685C92.9485 18.8184 73.3964 0.541504 48.3188 0.541504C23.6662 0.541504 3.68918 18.8184 2.83909 19.6685L0.713867 21.3687L2.83909 23.0688C3.68918 23.9189 23.2412 42.1958 48.3188 42.1958C72.9714 42.1958 92.9485 23.9189 93.7985 23.0688L95.9238 21.3687L93.7985 19.6685ZM8.7897 21.3687C13.0401 17.9683 24.0913 9.89247 37.2677 6.91716C33.0172 10.3175 30.0419 15.4181 30.0419 21.3687C30.0419 27.3193 33.0172 32.4198 37.2677 35.8201C24.0913 32.8448 13.0401 25.1941 8.7897 21.3687ZM32.1671 21.3687C32.1671 12.4428 39.3929 5.21701 48.3188 5.21701C57.2447 5.21701 64.4705 12.4428 64.4705 21.3687C64.4705 30.2946 57.2447 37.5204 48.3188 37.5204C39.3929 37.5204 32.1671 30.2946 32.1671 21.3687ZM59.795 35.8201C64.0455 32.4198 67.0208 27.3193 67.0208 21.3687C67.0208 15.4181 64.0455 10.3175 59.795 6.91716C72.9714 9.89247 84.0225 17.9683 88.273 21.3687C83.5975 25.1941 72.9714 32.8448 59.795 35.8201Z" fill="black"/>
</svg>
