<svg width="53" height="85" viewBox="0 0 53 85" fill="none" xmlns="http://www.w3.org/2000/svg">
<path d="M16.9931 6.00171H36.5451C38.2453 6.00171 39.9455 4.72653 39.9455 3.45138C39.9455 2.17623 38.2453 0.901123 36.5451 0.901123H16.9931C15.293 0.901123 13.5928 2.17623 13.5928 3.45138C13.5928 5.15158 14.8679 6.00171 16.9931 6.00171Z" fill="black"/>
<path d="M49.2966 29.8041L44.6211 27.2538C42.9209 26.4037 41.6458 24.2785 41.6458 22.5783V16.2027C41.6458 14.5025 42.4959 12.8023 43.346 12.8023C44.1961 12.8023 45.0461 11.5272 45.0461 10.2521C45.0461 8.97694 43.771 7.70178 41.6458 7.70178H11.4677C9.76748 7.70178 8.06732 8.97694 8.06732 10.2521C8.06732 11.5272 8.91738 12.8023 9.76747 12.8023C10.6176 12.8023 11.4677 14.0774 11.4677 16.2027V22.5783C11.4677 24.2785 10.1925 26.4037 8.49236 27.2538L3.81688 29.8041C2.1167 30.6541 0.841553 32.7794 0.841553 34.4796V80.8093C0.841553 82.5095 2.54174 84.2097 4.24192 84.2097H48.8716C50.5717 84.2097 52.2719 82.9346 52.2719 80.8093V34.4796C52.2719 32.7794 50.9968 30.6541 49.2966 29.8041ZM48.4465 80.3843H5.09199V34.9046C5.09199 34.4796 5.51706 33.6295 5.9421 33.6295L10.6176 31.0792C13.5929 29.379 15.7181 25.9787 15.7181 23.0034V16.6277C15.7181 14.9276 15.2931 13.2274 14.443 11.9522H39.5206C38.6705 13.2274 38.2454 14.5025 38.2454 16.6277V23.0034C38.2454 26.4037 40.3707 29.8041 43.346 31.0792L48.0214 33.6295C48.4465 33.6295 48.8716 34.4796 48.8716 34.9046V80.3843H48.4465Z" fill="black"/>
<path d="M45.8965 46.3809H7.64258V77.8342H45.8965V46.3809Z" fill="black"/>
<path d="M21.2437 23.8535H32.2949C33.995 23.8535 34.8451 22.5784 34.8451 21.3032V17.4779C34.8451 15.7777 33.57 14.9276 32.2949 14.9276H21.2437C19.5435 14.9276 18.6935 16.2028 18.6935 17.4779V21.3032C18.2684 22.5784 19.5435 23.8535 21.2437 23.8535Z" fill="black"/>
</svg>
