<svg width="79" height="79" viewBox="0 0 79 79" fill="none" xmlns="http://www.w3.org/2000/svg">
<path d="M74.1728 6.55382L72.4726 4.85365C66.097 -1.52202 56.321 -1.52202 49.9453 4.85365L39.3192 15.4797L15.5167 38.8572L4.89063 49.4833C-1.48503 55.8589 -1.48503 65.6349 4.89063 72.0106L6.59082 73.7108C12.9665 80.0865 22.7425 80.0865 29.1181 73.7108L39.7442 63.0847L63.5467 39.2822L74.1728 28.6561C80.1234 22.7055 80.1234 12.5044 74.1728 6.55382ZM37.194 19.3051C38.4691 18.03 40.1693 18.03 41.4444 19.3051C42.7195 20.5803 42.7195 22.2805 41.4444 23.5556C40.1693 24.8307 38.4691 24.8307 37.194 23.5556C35.9188 22.2805 35.9188 20.5803 37.194 19.3051ZM42.7196 29.5062C41.4444 28.2311 41.4444 26.5309 42.7196 25.2558C43.9947 23.9806 45.6949 23.9806 46.97 25.2558C48.2451 26.5309 48.2451 28.2311 46.97 29.5062C46.1199 30.7813 43.9947 30.7813 42.7196 29.5062ZM45.6949 36.732C44.4197 38.0071 42.7195 38.0071 41.4444 36.732C40.1693 35.4568 40.1693 33.7566 41.4444 32.4815C42.7195 31.2064 44.4197 31.2064 45.6949 32.4815C46.97 33.7566 46.97 35.4568 45.6949 36.732ZM35.4938 26.5309C36.7689 25.2558 38.4691 25.2558 39.7442 26.5309C41.0194 27.806 41.0194 29.5062 39.7442 30.7813C38.4691 32.0565 36.7689 32.0565 35.4938 30.7813C34.2187 29.5062 34.2187 27.806 35.4938 26.5309ZM38.4691 33.7566C39.7443 35.0318 39.7443 36.732 38.4691 38.0071C37.194 39.2822 35.4938 39.2822 34.2187 38.0071C32.9435 36.732 32.9435 35.0318 34.2187 33.7566C35.4938 32.4815 37.194 32.4815 38.4691 33.7566ZM32.9435 45.6579C31.6684 44.3827 31.6684 42.6826 32.9435 41.4074C34.2187 40.1323 35.9188 40.1323 37.194 41.4074C38.4691 42.6826 38.4691 44.3827 37.194 45.6579C35.9188 46.508 34.2187 46.508 32.9435 45.6579ZM35.9188 52.8836C34.6437 54.1588 32.9435 54.1588 31.6684 52.8836C30.3933 51.6085 30.3933 49.9083 31.6684 48.6332C32.9435 47.3581 34.6437 47.3581 35.9188 48.6332C37.194 49.4833 37.194 51.6085 35.9188 52.8836ZM28.2681 27.806C29.5432 26.5309 31.2434 26.5309 32.5185 27.806C33.7936 29.0812 33.7936 30.7813 32.5185 32.0565C31.2434 33.3316 29.5432 33.3316 28.2681 32.0565C26.9929 31.2064 26.9929 29.0812 28.2681 27.806ZM26.9929 35.0318C28.2681 33.7566 29.9682 33.7566 31.2434 35.0318C32.5185 36.3069 32.5185 38.0071 31.2434 39.2822C29.9682 40.5574 28.2681 40.5574 26.9929 39.2822C25.7178 38.4321 25.7178 36.3069 26.9929 35.0318ZM29.9682 42.6826C31.2434 43.9577 31.2434 45.6579 29.9682 46.933C28.6931 48.2081 26.9929 48.2081 25.7178 46.933C24.4427 45.6579 24.4427 43.9577 25.7178 42.6826C26.9929 41.4074 28.6931 41.4074 29.9682 42.6826ZM19.7672 36.732C21.0423 35.4568 22.7425 35.4568 24.0176 36.732C25.2927 38.0071 25.2927 39.7073 24.0176 40.9824C22.7425 42.2575 21.0423 42.2575 19.7672 40.9824C18.492 39.7073 18.492 37.582 19.7672 36.732ZM37.194 62.6596C36.7689 63.0847 36.3439 63.0847 36.3439 62.6596L15.9418 42.2575C15.5167 41.8325 15.5167 41.4074 15.9418 41.4074C16.3668 40.9824 16.7919 40.9824 16.7919 41.4074L37.194 61.8096C37.619 61.8096 37.619 62.2346 37.194 62.6596ZM41.8695 58.8342C40.5943 60.1094 38.8942 60.1094 37.619 58.8342C36.3439 57.5591 36.3439 55.8589 37.619 54.5838C38.8942 53.3087 40.5943 53.3087 41.8695 54.5838C43.1446 55.4339 43.1446 57.5591 41.8695 58.8342ZM43.1446 51.6085C41.8695 52.8836 40.1693 52.8836 38.8942 51.6085C37.619 50.3334 37.619 48.6332 38.8942 47.3581C40.1693 46.0829 41.8695 46.0829 43.1446 47.3581C44.4197 48.2081 44.4197 50.3334 43.1446 51.6085ZM40.1693 43.9577C38.8942 42.6826 38.8942 40.9824 40.1693 39.7073C41.4444 38.4321 43.1446 38.4321 44.4197 39.7073C45.6949 40.9824 45.6949 42.6826 44.4197 43.9577C43.1446 45.2328 41.4444 45.2328 40.1693 43.9577ZM50.3703 49.9083C49.0952 51.1835 47.395 51.1835 46.1199 49.9083C44.8448 48.6332 44.8448 46.933 46.1199 45.6579C47.395 44.3827 49.0952 44.3827 50.3703 45.6579C51.6455 46.933 51.6455 48.6332 50.3703 49.9083ZM51.6455 42.6826C50.3703 43.9577 48.6702 43.9577 47.395 42.6826C46.1199 41.4074 46.1199 39.7073 47.395 38.4321C48.6702 37.157 50.3703 37.157 51.6455 38.4321C52.9206 39.7073 52.9206 41.4074 51.6455 42.6826ZM48.6702 35.4568C47.395 34.1817 47.395 32.4815 48.6702 31.2064C49.9453 29.9312 51.6455 29.9312 52.9206 31.2064C54.1957 32.4815 54.1957 34.1817 52.9206 35.4568C52.0705 36.732 49.9453 36.732 48.6702 35.4568ZM58.8712 41.4074C57.5961 42.6826 55.8959 42.6826 54.6208 41.4074C53.3457 40.1323 53.3457 38.4321 54.6208 37.157C55.8959 35.8819 57.5961 35.8819 58.8712 37.157C60.1464 38.4321 60.1464 40.1323 58.8712 41.4074ZM63.1217 36.732C62.6966 37.157 62.2716 37.157 62.2716 36.732L41.8695 16.3298C41.4444 15.9048 41.4444 15.4797 41.8695 15.4797C42.2945 15.0547 42.7196 15.0547 42.7196 15.4797L63.1217 35.8819C63.1217 35.8819 63.1217 36.3069 63.1217 36.732Z" fill="black"/>
</svg>
