<svg width="88" height="78" viewBox="0 0 88 78" fill="none" xmlns="http://www.w3.org/2000/svg">
<path d="M76.972 35.8429C70.1713 32.0175 62.5206 32.0175 56.1449 35.4179C62.0955 31.5925 66.3459 24.7918 66.3459 17.141C66.3459 10.3403 63.3707 3.96468 58.2701 0.139282C61.6705 3.53963 63.3706 8.21508 63.3706 13.3156C63.3706 23.9417 54.8698 32.4426 44.2437 32.4426C33.6175 32.4426 25.1167 23.9417 25.1167 13.3156C25.1167 8.21508 27.2419 3.53963 30.2172 0.139282C25.1167 3.96468 22.1414 10.3403 22.1414 17.141C22.1414 24.7918 25.9667 31.5925 32.3424 35.4179C25.9667 32.0175 17.8909 32.0175 11.5153 35.8429C5.56465 39.2433 1.73925 45.1939 0.88916 51.5695C2.16429 46.8941 5.1396 43.0687 9.39004 40.5184C18.316 35.4179 30.2172 38.3932 35.3177 47.3191C40.4182 56.245 37.443 68.1463 28.517 73.2468C24.2666 75.7971 19.166 76.2221 14.4906 75.372C20.4412 77.4972 27.2419 77.4972 33.1925 74.0969C39.9932 70.2715 43.8186 63.0457 44.2437 55.82C44.6687 63.0457 48.4941 70.2715 55.2948 74.0969C61.2454 77.4972 68.0461 77.9223 73.9967 75.372C69.3213 76.6472 64.6458 75.7971 59.9703 73.2468C51.0443 68.1463 47.644 56.245 53.1695 47.3191C58.2701 38.3932 70.1713 34.9929 79.0973 40.5184C83.3477 43.0687 86.323 46.8941 87.5981 51.5695C86.7481 45.1939 82.9227 39.2433 76.972 35.8429ZM44.2437 46.469C41.6934 46.469 39.5681 44.3438 39.5681 41.7935C39.5681 39.2433 41.6934 37.1181 44.2437 37.1181C46.7939 37.1181 48.9191 39.2433 48.9191 41.7935C48.9191 44.3438 46.7939 46.469 44.2437 46.469Z" fill="black"/>
<path d="M22.1414 39.6683C22.1414 40.5184 22.1414 41.7936 22.1414 42.6437C22.1414 51.9947 27.6669 59.6454 35.7427 63.0458C35.7427 62.1957 36.1677 61.3456 36.1677 60.9206C29.367 57.9452 24.6916 50.7195 24.6916 42.6437C24.6916 41.7936 24.6916 41.3686 24.6916 40.5185C23.8415 40.0934 22.9914 39.6683 22.1414 39.6683Z" fill="black"/>
<path d="M44.244 22.6665C48.4945 22.6665 52.3198 23.9417 55.7202 26.0669C56.5703 25.6418 56.9953 25.2168 57.4203 24.7917C53.595 22.2415 49.3445 20.5413 44.244 20.5413C39.1435 20.5413 34.893 22.2415 31.0676 24.7917C31.4927 25.2168 32.3428 25.6418 32.7678 26.0669C36.1682 23.9417 39.9936 22.6665 44.244 22.6665Z" fill="black"/>
<path d="M52.7444 60.9206C52.7444 61.7706 52.7443 62.6207 53.1694 63.0458C61.2453 59.6454 66.7709 51.9947 66.7709 42.6437C66.7709 41.7936 66.7709 40.5184 66.7709 39.6683C65.9208 40.0934 65.4958 40.0934 64.6457 40.5185C64.6457 41.3686 64.6457 41.7936 64.6457 42.6437C64.2207 50.7195 59.5451 57.5202 52.7444 60.9206Z" fill="black"/>
</svg>
