<svg width="40" height="111" viewBox="0 0 40 111" fill="none" xmlns="http://www.w3.org/2000/svg">
<path d="M11.1923 31.8782C8.21701 31.8782 6.09186 34.0034 6.09186 36.9787V80.7583H1.41633C0.991282 80.7583 0.141113 81.1833 0.141113 82.0334C0.141113 82.4584 0.566237 83.3085 1.41633 83.3085H12.4675V108.386H7.79201C7.36697 108.386 6.5168 108.811 6.5168 109.661C6.5168 110.086 6.94192 110.936 7.79201 110.936H31.5946C32.0196 110.936 32.8697 110.511 32.8697 109.661C32.8697 109.236 32.4447 108.386 31.5946 108.386H26.9191V83.3085H37.9703C38.3953 83.3085 39.2454 82.8835 39.2454 82.0334C39.2454 81.6083 38.8204 80.7583 37.9703 80.7583H32.8697V36.9787C32.8697 34.0034 30.7444 31.8782 27.7691 31.8782H23.0937C23.0937 31.8782 23.0937 31.8782 23.0937 31.4531V29.3279C23.0937 28.0528 22.2436 27.2027 20.9685 27.2027V2.1251L18.8432 -0.00012207V27.2027C17.5681 27.2027 16.718 28.0528 16.718 29.3279V31.4531C16.718 31.4531 16.718 31.4532 16.718 31.8782H11.1923ZM12.4675 80.7583H8.64203V57.3809H12.4675V80.7583ZM18.4182 108.386H14.5928V83.3085H18.4182V108.386ZM18.4182 80.7583H14.5928V57.3809H18.4182V80.7583ZM24.7938 108.386H20.9685V83.3085H24.7938V108.386ZM24.7938 80.7583H20.9685V57.3809H24.7938V80.7583ZM30.7445 80.7583H26.9191V57.3809H30.7445V80.7583ZM18.4182 29.3279H20.9685V31.4531H18.8432V29.3279H18.4182ZM27.7691 34.0034C29.4693 34.0034 30.7445 35.2785 30.7445 36.9787V55.2556H8.21708V36.9787C8.21708 35.2785 9.49214 34.0034 11.1923 34.0034H27.7691Z" fill="black"/>
<path d="M9.0675 37.8289V54.8306H30.3197V37.8289C30.3197 36.1287 29.0446 34.8536 27.3445 34.8536H12.0429C10.3427 34.8536 9.0675 36.1287 9.0675 37.8289Z" fill="black"/>
</svg>
