<svg width="102" height="89" viewBox="0 0 102 89" fill="none" xmlns="http://www.w3.org/2000/svg">
<path d="M14.0655 50.2435C15.3407 50.2435 16.6158 49.3934 17.0408 48.5433L20.4412 40.8925L23.8415 61.2947C24.2666 62.5698 25.1167 63.845 26.8169 63.845C28.517 63.845 29.7922 62.9948 30.2172 61.2947L40.8433 21.7655L46.7939 85.0972C46.7939 86.7973 48.069 88.0724 49.7692 88.0724C49.7692 88.0724 49.7692 88.0724 50.1943 88.0724C51.4694 88.0724 52.7445 87.2223 53.1696 85.5221L63.3707 45.1429L66.3459 60.8696C66.771 62.1447 67.6211 63.4199 69.3213 63.4199C70.5964 63.4199 71.8715 62.5698 72.7216 61.2947L77.8222 48.5433H100.775C100.775 47.2682 101.2 45.568 101.2 44.2929C101.2 43.4428 101.2 43.0178 101.2 42.1677H75.6969C74.4218 42.1677 73.1467 43.0178 72.7216 44.2929L71.0214 48.9684L67.1961 29.8414C66.771 28.5663 65.4959 27.2911 64.2207 27.2911C62.9456 27.2911 61.2454 28.1413 61.2454 29.8414L52.3195 65.9702L46.7939 3.91371C46.7939 2.21354 45.5188 1.3634 43.8186 0.938354C42.1185 0.938354 40.8433 1.78844 40.4183 3.06357L28.9421 45.568L26.3918 29.4164C25.9668 28.1412 25.1167 26.8661 23.8415 26.8661C22.5664 26.8661 21.2913 27.2911 20.4412 28.5662L13.6405 43.8678H0.464111C0.464111 44.2929 0.464111 44.2929 0.464111 44.718C0.464111 46.4181 0.464105 48.5433 0.889149 50.2435H14.0655Z" fill="black"/>
</svg>
