<svg width="90" height="87" viewBox="0 0 90 87" fill="none" xmlns="http://www.w3.org/2000/svg">
<path d="M82.1114 38.0071C78.711 38.0071 75.7357 40.1323 74.8856 43.1076C74.4606 43.1076 66.3848 40.9824 60.0091 45.6579C55.7587 49.0582 53.2084 55.0089 53.2084 63.0847C53.2084 69.8854 51.9333 74.9859 49.383 78.3863C46.8327 81.7866 44.2825 82.6367 42.1573 82.6367C37.9068 82.6367 32.8063 78.8113 32.8063 73.2857C32.8063 68.1852 32.8063 64.3598 32.3812 61.8096C32.3812 61.3845 32.3812 61.3845 32.3812 60.9595C37.9068 60.5344 43.4324 57.9842 48.1079 53.7337C49.383 52.4586 49.808 50.7584 49.383 49.0582C55.3336 41.8325 59.5841 31.6314 59.5841 23.1305C59.5841 13.7796 54.9086 7.82896 45.5576 4.85365C45.1326 2.30339 43.0073 0.60321 40.4571 0.60321C37.4818 0.60321 34.9315 3.15348 34.9315 6.12878C34.9315 9.10409 37.4818 11.6544 40.4571 11.6544C42.1572 11.6544 43.8574 10.8043 44.7075 9.52914C51.9333 11.6544 54.9086 15.9048 54.9086 23.1305C54.9086 30.7813 51.5082 39.7073 45.9827 46.0829C44.7075 45.6579 43.0073 46.0829 41.7322 47.3581C39.1819 49.4833 35.7816 52.4586 31.1061 52.4586C30.6811 52.4586 30.256 52.4586 30.256 52.4586C29.831 52.4586 29.4059 52.4586 29.4059 52.4586C25.1555 52.4586 21.3301 49.9083 18.7798 47.3581C17.5047 46.0829 16.2296 46.0829 14.5294 46.0829C9.42886 39.7073 5.60346 30.7813 5.60346 23.1305C5.60346 15.9048 9.00382 11.6544 15.8045 9.52914C16.6546 10.8043 18.3548 11.6544 20.055 11.6544C23.0303 11.6544 25.5805 9.10409 25.5805 6.12878C25.5805 3.15348 23.0303 0.60321 20.055 0.60321C17.5047 0.60321 15.3795 2.30339 14.9544 4.85365C5.60346 7.40392 0.927979 13.3545 0.927979 23.1305C0.927979 31.6314 4.75338 41.8325 11.129 49.0582C10.704 50.7584 11.129 52.4586 12.4042 53.7337C17.5047 58.4092 23.4553 61.3845 29.4059 61.3845C29.4059 62.6596 29.831 65.6349 29.831 73.2857C29.831 80.0864 35.3566 86.0371 42.1573 86.0371C45.9827 86.0371 49.383 83.9118 51.9333 80.5115C54.9086 76.6861 56.1837 70.7355 56.1837 63.0847C56.1837 55.8589 57.8839 51.1835 61.7093 48.2081C66.8098 44.3827 73.6105 46.0829 73.6105 46.0829H74.0356C74.4606 49.9083 77.861 52.8836 81.6863 52.8836C85.9368 52.8836 89.3371 49.4833 89.3371 45.2328C89.7622 41.4074 86.3618 38.0071 82.1114 38.0071ZM82.1114 51.6085C78.711 51.6085 76.1608 49.0582 76.1608 45.6579C76.1608 42.2575 78.711 39.7073 82.1114 39.7073C85.5117 39.7073 88.062 42.2575 88.062 45.6579C88.062 49.0582 85.0867 51.6085 82.1114 51.6085Z" fill="black"/>
<path d="M82.1118 41.4073C79.5615 41.4073 77.8613 43.5326 77.8613 45.6578C77.8613 48.2081 79.9865 49.9082 82.1118 49.9082C84.662 49.9082 86.3622 47.783 86.3622 45.6578C86.3622 43.5326 84.237 41.4073 82.1118 41.4073Z" fill="black"/>
</svg>
