<svg width="86" height="86" viewBox="0 0 86 86" fill="none" xmlns="http://www.w3.org/2000/svg">
<path d="M47.0188 36.9065C46.5937 36.9065 46.5938 37.3315 46.5938 37.3315C46.5938 37.3315 47.0188 37.3315 47.4438 37.3315C47.8689 37.3315 47.8689 36.9065 47.8689 36.9065C47.4438 36.9065 47.0188 36.9065 47.0188 36.9065Z" fill="black"/>
<path d="M38.0935 37.3315C38.5186 37.3315 38.9436 37.3315 38.9436 37.3315C38.9436 37.3315 38.9436 36.9065 38.5186 36.9065C38.0935 36.9065 37.6685 36.9065 37.6685 36.9065C37.6685 36.9065 37.6685 37.3315 38.0935 37.3315Z" fill="black"/>
<path d="M83.9981 53.4833L67.8464 44.1323C66.9963 43.7073 66.9963 42.8572 67.8464 42.4321L83.9981 33.0812C84.8482 32.6561 85.2732 31.381 84.8482 30.5309L75.0722 13.5292C74.6471 12.6791 73.372 12.254 72.5219 12.6791L56.3702 22.03C55.5201 22.4551 54.67 22.03 54.67 21.1799V2.05296C54.67 1.20287 53.82 0.352783 52.9699 0.352783H33.4178C32.5677 0.352783 31.7177 1.20287 31.7177 2.05296V20.7549C31.7177 21.605 30.8676 22.03 30.0175 21.605L13.8658 12.254C13.0157 11.829 11.7406 12.254 11.3156 13.1041L1.53953 30.1059C1.11449 30.956 1.53952 32.2311 2.3896 32.6561L18.5413 42.0071C19.3914 42.4321 19.3914 43.2822 18.5413 43.7073L1.53953 53.4833C0.689441 53.9083 0.26441 55.1835 0.689454 56.0336L10.4654 73.0353C10.8905 73.8854 12.1656 74.3104 13.0157 73.8854L29.1674 64.5344C30.0175 64.1094 30.8676 64.5344 30.8676 65.3845V84.0865C30.8676 84.9366 31.7177 85.7866 32.5678 85.7866H52.1198C52.9699 85.7866 53.82 84.9366 53.82 84.0865V65.3845C53.82 64.5344 54.67 64.1094 55.5201 64.5344L71.6718 73.8854C72.5219 74.3104 73.797 73.8854 74.2221 73.0353L83.9981 56.0336C85.2732 55.1835 84.8482 53.9083 83.9981 53.4833ZM51.6947 22.8801C52.1198 22.8801 52.1198 23.3052 52.5448 23.3052C52.1198 22.8801 51.6947 22.8801 51.6947 22.8801C50.8447 22.4551 50.4196 22.4551 50.4196 22.03C50.8446 22.03 51.2697 22.4551 51.6947 22.8801ZM50.8446 23.3052C52.5448 24.5803 55.9452 25.0053 62.3209 25.0053C68.6965 25.0053 69.5466 24.5803 68.6965 26.2805C67.8464 27.9806 64.8711 27.5556 64.4461 27.9806C64.021 27.9806 64.4461 30.5309 62.7459 30.1059C61.0457 30.1059 60.1956 29.6808 59.7706 31.381C59.7706 32.6561 57.6454 33.5062 55.9452 32.6561C54.245 31.806 53.3949 32.2311 53.3949 33.0812C53.3949 33.9313 52.5448 35.2064 49.5695 34.3563C46.5942 33.5062 47.0192 33.5062 46.1692 34.3563C45.3191 35.2064 45.3191 34.3563 45.3191 33.0812C45.3191 31.381 45.3191 27.9806 45.3191 27.5556C45.3191 26.2805 45.3191 26.7055 46.1692 26.7055C47.0192 26.7055 47.8693 26.2805 47.8693 24.5803C47.0193 22.4551 48.7194 22.03 50.8446 23.3052ZM41.0686 60.284C41.0686 59.4339 41.0686 59.0089 41.0686 58.1588C41.4937 57.7337 46.5942 56.0336 47.4443 55.6085C48.7194 56.4586 49.5695 57.3087 49.5695 59.0089C49.5695 61.1341 46.5942 63.2593 44.0439 64.1094C41.4937 64.9595 40.6436 65.3845 40.6436 66.2346C40.6436 66.6597 41.0686 67.0847 41.4937 67.5097C41.4937 67.0847 41.4937 66.2346 41.4937 65.8096C41.9187 65.8096 46.5942 64.1094 47.4443 63.6843C47.8694 64.5344 48.7194 65.3845 48.7194 66.2346C48.7194 67.9348 47.8693 69.635 44.0439 70.4851C41.4937 71.3351 40.2186 72.1852 41.4937 73.0353C41.4937 72.6103 41.4937 72.1852 41.4937 72.1852C42.7688 71.3351 45.7441 70.9101 47.0192 70.06C47.4443 70.4851 47.4443 71.3351 47.4443 72.1852C47.0193 73.4604 46.5942 74.7355 42.7688 76.0106C38.9434 77.2858 37.6683 78.1358 37.2432 77.7108C36.8182 77.2858 39.3685 76.0106 41.9187 74.3105C43.6189 73.0353 45.3191 72.1852 43.6189 71.3351C43.6189 71.7602 43.6189 71.7602 43.6189 72.1852C43.1939 73.0353 40.6436 74.3104 40.2185 74.7355C38.9434 73.8854 38.0933 73.0353 37.6683 72.1852C37.2432 70.9101 38.0933 70.4851 40.2185 69.2099C42.7688 67.9348 44.0439 67.5097 44.0439 66.6597C44.0439 66.2346 43.6189 65.8096 43.1939 65.8096C43.1939 66.2346 43.1939 66.6597 43.1939 67.0847C42.7688 67.9348 38.9434 69.2099 37.6683 69.635C36.3931 68.7849 35.9681 67.5098 35.9681 66.2346C35.9681 64.5344 37.2432 63.2593 40.6436 61.9842C44.0439 60.709 44.469 59.4339 44.469 58.5838C44.469 58.1588 44.044 58.1588 43.1939 57.7337C43.1939 58.5838 43.1939 59.0089 43.1939 59.859C42.3438 60.284 38.5184 61.9842 37.2432 62.4092C35.5431 61.1341 34.2679 61.1341 34.2679 58.5838C34.2679 56.4586 36.3931 54.7584 39.7935 53.4833C43.1939 52.2082 45.7441 50.508 45.7441 48.8078C45.7441 47.9577 44.894 47.5327 44.0439 47.1076C46.1692 46.6826 47.8694 46.6826 49.5695 46.2575C49.9946 46.6826 50.4196 47.5327 50.4196 48.3828C50.8446 50.933 50.4196 53.0583 46.1692 55.1835C41.9187 57.3087 38.9434 57.7337 38.9434 58.5838C39.7935 59.0089 40.2186 59.4339 41.0686 60.284ZM47.0192 75.5856C46.5942 75.5856 46.5942 75.1605 46.1692 74.7355C47.4443 73.8854 47.8693 73.0353 48.2944 71.7602C48.2944 71.3351 48.2944 71.3351 48.2944 70.9101C48.7194 71.7602 48.7194 72.1852 48.2944 73.0353C48.2944 73.8854 47.8693 74.7355 47.0192 75.5856ZM48.2944 77.2858C47.8693 77.7108 47.0192 76.8607 44.0439 76.0106C43.6189 80.2611 43.1938 82.8113 42.7688 82.8113C42.3438 82.8113 41.9187 80.2611 41.9187 76.4357C42.7688 76.4357 44.894 75.1605 45.3191 75.1605C47.0193 76.0106 48.2944 77.2858 48.2944 77.2858ZM36.8182 73.0353C36.8182 72.1852 36.8182 71.7602 36.8182 71.3351V71.7602C36.8182 73.0353 37.6683 73.8854 38.9434 74.7355C38.5184 75.1605 38.0933 75.1605 38.0933 75.1605C37.6683 74.7355 37.2432 73.8854 36.8182 73.0353ZM44.894 50.0829V47.9577C45.3191 48.3828 45.7441 48.3828 45.7441 48.8078V49.2329L45.3191 48.8078L44.894 50.0829ZM48.2944 45.8325C44.0439 46.6826 38.5184 46.6826 38.5184 48.3828C38.5184 49.2328 39.3684 50.933 40.6436 51.7831L41.0686 52.2082C41.0686 50.508 41.0686 48.8078 41.0686 47.1076C41.9187 47.1076 42.3438 46.6826 44.0439 46.6826C44.0439 47.9577 44.0439 49.6579 44.0439 50.933C43.1939 51.3581 42.3438 51.7831 41.0686 52.2082C40.6436 52.2082 38.0933 53.4833 37.2432 53.9083C34.2679 52.2082 33.4178 49.6579 33.8429 47.5327C34.2679 44.9824 36.3931 42.4321 41.9187 42.0071C47.4443 42.0071 50.4196 41.157 51.2697 39.8819C52.1198 38.6068 51.6947 36.9066 50.4196 37.7567C49.1445 38.6068 48.2944 39.0318 46.1692 39.0318C44.469 39.0318 44.0439 37.7567 44.894 36.4815C45.7441 35.2064 44.894 34.7814 47.4443 34.3563C49.5695 33.9313 55.0951 34.3563 55.5201 37.7567C56.3702 42.0071 52.9699 44.9824 48.2944 45.8325ZM39.7935 49.2329V48.8078C39.7935 48.8078 40.2185 48.3828 40.6436 48.3828V50.508V48.8078C39.7935 48.8078 39.7935 49.2329 39.7935 49.2329ZM40.2185 35.2064C39.7935 35.2064 39.3685 34.7814 38.9434 34.7814L38.5184 34.3563C38.5184 34.3563 38.0933 34.3563 37.6683 34.7814C37.6683 34.7814 37.2432 34.7814 36.8182 34.7814C37.6683 34.3563 38.5184 34.3563 38.5184 34.3563C38.5184 34.3563 38.5184 34.3563 38.9434 34.7814C39.3685 34.3563 39.7935 34.7814 40.2185 35.2064C40.2185 34.7814 40.6436 34.7814 40.6436 34.7814C40.6436 35.2064 40.6436 35.6314 40.6436 36.4815C40.2185 35.6314 40.2185 35.6314 40.2185 35.2064ZM37.6683 35.2064C39.7935 35.6314 39.3685 36.0565 40.2185 37.3316C41.0686 38.6067 40.6436 39.8819 38.9434 39.8819C36.8182 39.8819 35.9681 39.4568 34.693 38.6068C33.4179 37.7567 32.9928 39.4568 33.8429 40.732C34.693 41.5821 36.8182 42.4321 39.3685 42.8572C37.2432 42.8572 35.5431 44.1323 34.693 45.8325C31.2926 44.5574 29.1674 42.0071 29.5924 39.0318C30.0175 35.2064 35.5431 34.7814 37.6683 35.2064ZM38.9434 41.5821H38.5184C36.3931 41.157 35.118 40.732 35.118 40.3069L34.693 39.8819C35.9681 40.732 36.8182 41.157 38.9434 41.157H39.3685C39.7935 41.157 40.6436 41.157 40.6436 40.732V42.4321V41.5821C39.7935 41.157 39.3685 41.157 38.9434 41.5821ZM44.894 41.5821V40.3069C45.3191 40.3069 45.7441 40.732 46.1692 40.732H46.5942C48.7194 40.732 49.5695 40.3069 50.8446 39.4568C50.8446 39.4568 50.8446 39.8819 50.4196 39.8819C49.9946 40.3069 48.7194 41.157 47.0192 41.157H46.5942C46.1692 41.157 45.3191 41.157 45.3191 40.732L44.894 41.5821ZM44.894 36.0565C44.894 35.6314 44.894 35.2064 44.894 34.7814C45.3191 34.7814 45.7441 34.3563 46.1692 34.3563L46.5942 33.9313C47.0192 33.9313 47.4443 34.3563 48.7194 34.3563C48.2944 34.3563 48.2944 34.3563 47.8693 34.3563C47.4443 34.3563 47.0192 33.9313 46.5942 33.9313C46.5942 33.9313 46.5942 33.9313 46.1692 34.3563C45.7441 34.7814 45.3191 34.7814 44.894 34.7814C44.894 34.7814 44.894 34.7814 44.469 34.7814C44.894 35.2064 44.894 35.6314 44.894 36.0565ZM47.4443 19.9048C47.4443 21.605 46.5942 23.3052 44.894 24.1553C44.894 24.5803 44.894 24.5803 44.894 25.0053C44.894 24.5803 44.894 24.1553 44.894 24.1553C46.1691 23.3052 47.0193 21.605 47.4443 19.9048C47.4443 17.3545 45.3191 15.2293 42.7688 15.2293C45.3191 15.2293 47.4443 17.3545 47.4443 19.9048ZM46.1692 19.9048C46.1692 21.605 45.3191 22.8801 43.6189 23.3052C43.6189 25.4304 43.6189 28.8307 43.6189 33.5062C43.6189 36.0565 43.6189 39.0318 43.6189 41.5821C42.7688 41.5821 41.9187 41.5821 40.6436 41.5821C40.6436 38.6067 40.6436 35.6314 40.6436 33.0812C40.6436 27.9806 40.6436 25.0053 40.6436 22.8801C39.3684 22.4551 38.0933 21.1799 38.0933 19.4798C38.0933 17.3545 39.7935 15.6544 41.9187 15.6544C44.0439 15.6544 46.1692 17.7796 46.1692 19.9048ZM42.3438 15.2293C39.7935 15.2293 38.0933 17.3545 38.0933 19.9048C38.0933 21.605 38.9434 23.3052 40.6436 23.7302C40.6436 24.1553 40.6436 24.1553 40.6436 24.5803C40.6436 24.1553 40.6436 24.1553 40.6436 23.7302C38.9434 22.8801 38.0933 21.1799 38.0933 19.4798C38.0933 17.3545 39.7935 15.6544 42.3438 15.2293ZM33.4178 22.8801C33.8429 22.4551 34.2679 22.4551 34.693 22.03C34.693 22.03 34.2679 22.4551 33.4178 22.8801C33.4178 22.8801 32.9928 23.3052 32.5678 23.3052C32.9928 23.3052 33.4178 22.8801 33.4178 22.8801ZM23.2168 25.0053C29.5924 25.0053 32.5678 24.5803 34.693 23.3052C36.3932 22.03 38.0933 22.4551 38.5184 23.7302C38.5184 25.0053 39.3685 25.8554 40.2185 25.8554C41.0686 25.8554 41.0686 25.4304 41.0686 26.7055C41.0686 27.1306 41.0686 30.5309 41.0686 32.2311C41.0686 33.9313 41.0686 34.3563 40.2185 33.5062C39.3685 32.6561 39.3685 32.6561 36.8182 33.5062C34.2679 34.3563 32.9928 33.0812 32.9928 32.2311C32.9928 31.381 32.1427 30.956 30.4425 31.806C28.7424 32.6561 26.6171 31.806 26.6171 30.5309C26.6171 29.2558 25.767 29.2558 23.6418 29.2558C21.9416 29.2558 22.3667 27.1306 21.9417 27.1306C21.5166 27.1306 18.5413 27.5556 17.6912 25.4304C15.991 24.5803 16.8411 25.0053 23.2168 25.0053ZM27.0422 33.9313C25.342 33.9313 23.6418 33.0812 23.6418 31.381V30.956C23.6418 30.956 23.6418 30.956 23.2168 30.956C22.7917 30.956 22.3667 30.956 21.9417 30.956H21.5166C19.8164 30.956 19.3914 29.2558 19.3914 28.8307C18.5413 28.8307 15.991 28.8307 14.7159 26.7055C14.2908 26.2805 14.2908 25.4304 14.7159 24.5803C15.1409 24.1553 15.566 23.7302 16.4161 23.7302C15.991 23.7302 15.991 24.1553 15.566 24.1553C15.141 25.0053 15.566 25.4304 15.566 26.2805C16.4161 28.4057 18.9664 28.4057 19.8164 28.4057C19.8164 29.2558 20.2415 30.5309 21.9417 30.5309H22.3667C22.7917 30.5309 23.2168 30.5309 23.6418 30.5309C24.0669 30.5309 24.0669 30.5309 24.0669 30.5309C24.0669 30.5309 24.0669 30.5309 24.0669 30.956C24.0669 32.2311 25.342 33.5062 27.4672 33.5062C28.3173 33.5062 28.7423 33.5062 29.5924 33.0812C30.4425 32.6561 30.8676 32.6561 30.8676 32.6561C30.8676 33.5062 31.2926 34.3563 32.1427 34.7814C31.7176 34.7814 31.7177 34.7814 31.2926 35.2064C30.4425 34.7814 30.0175 33.9313 30.0175 33.5062C29.5924 33.5062 29.1674 33.5062 28.7424 33.9313C28.7424 33.9313 27.8923 33.9313 27.0422 33.9313ZM32.5678 48.8078C32.5678 48.3828 32.9928 47.5327 33.4178 46.6826C29.5924 44.9824 27.4672 42.0071 27.8923 39.0318C28.3173 37.7567 28.7423 36.9066 29.5924 36.4815C29.1674 36.9066 28.3173 37.7567 28.3173 38.6068C27.8923 41.5821 30.0175 44.5574 33.4178 46.2575C32.9928 47.1076 32.9928 47.5327 32.5678 48.3828C32.1427 50.508 32.5677 53.0583 35.5431 55.1835C35.118 55.1835 35.118 55.6085 34.693 55.6085C32.5678 53.4833 32.5678 50.508 32.5678 48.8078ZM33.8429 59.4339C33.8429 58.5838 33.8429 58.1588 34.2679 57.3087C34.2679 57.7337 34.2679 58.1588 34.2679 58.1588C34.2679 60.709 35.5431 61.5591 36.8182 61.9842C36.8182 61.9842 37.2432 61.9842 37.2432 62.4092C36.8182 62.8343 36.8182 62.8343 36.3931 63.2593C35.118 62.8343 33.8429 61.9842 33.8429 59.4339ZM35.9681 65.3845C35.9681 67.0847 36.3931 68.7849 37.6683 69.635C37.2432 70.06 37.2432 70.06 37.2432 70.4851C35.9681 69.635 35.5431 67.9348 35.5431 66.6597C35.5431 66.2346 35.9681 65.8096 35.9681 65.3845ZM49.1445 79.411C49.1445 79.411 48.7194 79.836 48.2944 79.836C47.8693 79.836 47.4443 79.411 45.7441 78.9859C45.3191 78.9859 45.3191 78.5609 44.894 78.5609C44.469 84.5115 43.6189 84.9366 42.7688 84.9366C41.4937 84.9366 41.0686 84.0865 40.6436 78.5609C40.2185 78.5609 39.7935 78.9859 39.3685 78.9859C38.0933 79.411 37.2432 79.836 36.8182 79.836C36.3932 79.836 35.9681 79.836 35.9681 79.411L35.5431 78.9859V78.5609C35.5431 78.1358 35.5431 78.1358 35.9681 77.7108C35.9681 77.7108 36.3932 78.1358 36.8182 78.1358C37.2432 78.1358 37.6683 78.1358 39.3685 77.2858C39.7935 77.2858 40.2185 76.8607 40.6436 76.8607C41.0686 81.9612 41.4937 83.2364 42.3438 83.2364C43.1938 83.2364 44.0439 82.8113 44.469 76.8607C44.894 76.8607 45.3191 77.2858 45.3191 77.2858C46.5942 77.7108 47.4443 78.1358 47.8693 78.1358C48.2944 78.1358 48.2944 78.1358 48.7194 77.7108C49.1445 78.1358 49.1445 78.1358 49.1445 78.5609V79.411ZM47.8693 70.4851C47.8693 70.06 47.8694 69.635 47.4443 69.635C48.7194 68.7849 49.1445 67.5098 49.1445 65.8096C49.1445 65.8096 49.1445 65.8096 49.1445 65.3845C49.1445 65.8096 49.5695 66.2346 49.5695 66.6597C49.5695 68.3598 49.1445 69.635 47.8693 70.4851ZM48.7194 63.6843C48.7194 63.2593 48.2944 63.2593 48.2944 62.8343C49.5695 61.9842 50.8446 60.284 50.8446 58.5838C50.8446 58.1588 50.8446 58.1588 50.8446 57.7337C51.2697 58.1588 51.2697 59.0089 51.2697 59.4339C50.8446 61.1341 49.9946 62.4092 48.7194 63.6843ZM51.6947 46.6826C52.1198 47.5327 52.5448 47.9577 52.5448 48.8078C52.9699 51.7831 52.1198 53.9083 49.1445 55.6085C48.7194 55.1835 48.7194 55.1835 48.2944 55.1835C51.2697 53.4833 52.5448 51.3581 51.6947 48.3828C51.6947 47.9577 51.2697 47.1076 50.8446 46.2575C54.245 44.5574 56.3702 41.5821 55.9452 38.6068C55.9452 37.7567 55.5201 36.9066 54.67 36.4815C55.5201 37.3316 56.3702 38.1817 56.3702 39.4568C57.6454 42.0071 55.5201 44.9824 51.6947 46.6826ZM65.7212 29.2558C65.7212 30.1059 65.2961 31.381 63.596 31.381H63.1709C62.7459 31.381 62.3208 31.381 61.8958 31.381C61.4707 31.381 61.4707 31.381 61.4707 31.381C61.4707 31.381 61.4707 31.381 61.4707 31.806C61.4707 33.0812 60.1956 34.3563 58.0704 34.3563C57.2203 34.3563 56.3702 34.3563 55.9452 33.9313C55.0951 33.5062 54.67 33.5062 54.67 33.5062C54.67 34.3563 54.245 34.7814 53.3949 35.2064C52.9699 35.2064 52.9699 35.2064 52.5448 34.7814C53.3949 34.3563 53.82 33.5062 53.82 32.6561C53.82 32.6561 54.245 32.6561 55.0951 33.0812C55.9452 33.5062 56.3702 33.5062 57.2203 33.5062C58.9205 33.5062 60.1956 32.6561 60.6207 30.956V30.5309C60.6207 30.5309 60.6207 30.5309 61.0457 30.5309C61.4707 30.5309 61.8958 30.5309 62.3209 30.5309H62.7459C64.4461 30.5309 64.8711 28.8307 64.8711 28.4057C65.7212 28.4057 68.2715 28.4057 69.1215 26.2805C69.5466 25.8554 69.5466 25.0053 69.1215 24.1553C69.1215 23.7302 68.6965 23.7302 68.2714 23.7302C69.1215 23.7302 69.9716 23.7302 69.9716 24.5803C70.3967 25.4304 69.9716 26.2805 69.9716 26.7055C69.5466 29.2558 66.9963 29.2558 65.7212 29.2558Z" fill="black"/>
</svg>
