<svg width="78" height="73" viewBox="0 0 78 73" fill="none" xmlns="http://www.w3.org/2000/svg">
<path d="M6.83983 55.4337H4.28955C4.28955 60.1092 8.11494 63.9346 12.7904 63.9346V61.3843C9.39006 61.3843 6.83983 58.8341 6.83983 55.4337Z" fill="black"/>
<path d="M69.7465 16.7548L67.1963 17.1799C67.6213 20.5802 65.4962 23.5555 62.0959 24.4056L62.5209 26.9559C67.6213 25.6807 70.5966 21.4303 69.7465 16.7548Z" fill="black"/>
<path d="M66.3459 43.5325L42.1184 40.5572L43.3934 39.7071L66.7708 28.2309C72.7214 25.2556 74.8467 16.7547 71.4463 9.529C67.6209 2.30325 59.9702 -1.09711 53.5946 1.8782L30.2172 13.3544L7.26477 24.8306C1.31416 27.8059 -0.810948 36.3068 2.5894 43.5325C2.5894 43.5325 2.58929 43.9576 3.01434 43.9576C2.16425 45.6577 1.31416 47.783 0.889121 50.3332C0.0390345 58.4091 4.71451 65.6348 11.5152 66.4849L37.0178 69.4602L62.9455 72.8606C69.7462 73.7107 76.1219 67.76 76.972 59.6842C77.8221 51.6084 73.1466 44.3826 66.3459 43.5325ZM54.0195 2.30325C59.9701 -0.672063 67.196 2.72829 70.5963 9.529C73.9967 16.3297 72.2965 24.4055 66.3459 27.3808L45.0937 38.0069C46.7939 35.0316 45.9438 29.5061 42.9685 23.5555C39.9932 17.6048 35.7427 13.7794 32.7674 12.9293L54.0195 2.30325ZM11.0903 26.5308L11.5152 29.081C8.11486 29.9311 5.98974 32.9064 6.83983 36.3068L4.28954 36.7318C3.43946 32.0563 6.41479 27.3808 11.0903 26.5308ZM45.0937 55.8588C44.2436 63.5096 40.4182 69.4602 37.4429 69.0352L11.9403 66.0599C5.56462 65.2098 1.31424 58.4091 2.16433 50.7583C3.01442 43.1075 8.96505 37.5819 15.3407 38.432L40.8433 41.4073C43.8186 41.4073 45.9438 48.208 45.0937 55.8588ZM71.0213 54.5837C71.0213 51.1833 68.046 48.208 64.6456 48.208V45.6577C69.3211 45.6577 73.1465 49.4831 73.1465 54.1586H71.0213V54.5837Z" fill="black"/>
</svg>
