<svg width="77" height="77" viewBox="0 0 77 77" fill="none" xmlns="http://www.w3.org/2000/svg">
<path d="M71.8978 28.7302C77.8484 22.7795 77.8484 13.0035 71.8978 7.05288L70.1976 5.35273C64.247 -0.597884 54.471 -0.597884 48.5203 5.35273L38.3193 15.5538L15.3669 38.5062L5.16584 48.7072C-0.784774 54.6578 -0.784774 64.4339 5.16584 70.3845L6.86603 72.0846C12.8166 78.0353 22.5927 78.0353 28.5433 72.0846L38.7443 61.8836L61.6967 38.9312L71.8978 28.7302ZM36.1941 19.3792C37.4692 18.1041 39.1694 18.1041 40.4445 19.3792C41.7196 20.6543 41.7196 22.3545 40.4445 23.6296C39.1694 24.9048 37.4692 24.9048 36.1941 23.6296C34.9189 22.3545 34.9189 20.6543 36.1941 19.3792ZM41.7196 29.5802C40.4445 28.3051 40.4445 26.6049 41.7196 25.3298C42.9948 24.0547 44.695 24.0547 45.9701 25.3298C47.2452 26.6049 47.2452 28.3051 45.9701 29.5802C44.695 30.4303 42.9948 30.4303 41.7196 29.5802ZM44.6949 36.381C43.4198 37.6561 41.7196 37.6561 40.4445 36.381C39.1694 35.1058 39.1694 33.4057 40.4445 32.1305C41.7196 30.8554 43.4198 30.8554 44.6949 32.1305C45.9701 33.4057 45.9701 35.1058 44.6949 36.381ZM34.9189 26.6049C36.1941 25.3298 37.8942 25.3298 39.1694 26.6049C40.4445 27.8801 40.4445 29.5802 39.1694 30.8554C37.8942 32.1305 36.1941 32.1305 34.9189 30.8554C33.6438 29.5802 33.6438 27.8801 34.9189 26.6049ZM37.4692 33.4056C38.7443 34.6807 38.7443 36.3809 37.4692 37.656C36.1941 38.9312 34.4939 38.9312 33.2188 37.656C31.9436 36.3809 31.9436 34.6807 33.2188 33.4056C34.4939 32.5555 36.6191 32.5555 37.4692 33.4056ZM31.9436 44.8819C30.6685 43.6067 30.6685 41.9065 31.9436 40.6314C33.2188 39.3563 34.9189 39.3563 36.1941 40.6314C37.4692 41.9065 37.4692 43.6067 36.1941 44.8819C35.344 46.157 33.2188 46.157 31.9436 44.8819ZM34.9189 52.1076C33.6438 53.3827 31.9436 53.3827 30.6685 52.1076C29.3934 50.8325 29.3934 49.1323 30.6685 47.8571C31.9436 46.582 33.6438 46.582 34.9189 47.8571C36.1941 48.7072 36.1941 50.8325 34.9189 52.1076ZM27.6932 27.8801C28.9683 26.605 30.6685 26.605 31.9436 27.8801C33.2188 29.1552 33.2188 30.8554 31.9436 32.1305C30.6685 33.4057 28.9683 33.4057 27.6932 32.1305C26.418 30.8554 26.418 29.1552 27.6932 27.8801ZM26.4181 35.1058C27.6932 33.8307 29.3934 33.8307 30.6685 35.1058C31.9436 36.381 31.9436 38.0811 30.6685 39.3563C29.3934 40.6314 27.6932 40.6314 26.4181 39.3563C25.1429 38.0811 25.1429 35.9559 26.4181 35.1058ZM29.3934 41.9065C30.6685 43.1816 30.6685 44.8818 29.3934 46.1569C28.1182 47.4321 26.4181 47.4321 25.1429 46.1569C23.8678 44.8818 23.8678 43.1816 25.1429 41.9065C26.4181 40.6314 28.1182 40.6314 29.3934 41.9065ZM19.1923 36.381C20.4674 35.1058 22.1676 35.1058 23.4427 36.381C24.7179 37.6561 24.7179 39.3563 23.4427 40.6314C22.1676 41.9065 20.4674 41.9065 19.1923 40.6314C18.3422 39.3563 18.3422 37.2311 19.1923 36.381ZM36.1941 61.4585C35.769 61.8836 35.344 61.8836 35.344 61.4585L15.7919 41.9065C15.3669 41.4814 15.3669 41.0564 15.7919 41.0564C16.217 40.6314 16.642 40.6314 16.642 41.0564L36.1941 60.6085C36.6191 60.6085 36.6191 61.0335 36.1941 61.4585ZM40.8696 57.6332C39.5944 58.9083 37.8942 58.9083 36.6191 57.6332C35.344 56.358 35.344 54.6579 36.6191 53.3827C37.8942 52.1076 39.5944 52.1076 40.8696 53.3827C41.7196 54.6579 41.7196 56.358 40.8696 57.6332ZM42.1447 50.4074C40.8696 51.6825 39.1694 51.6825 37.8942 50.4074C36.6191 49.1322 36.6191 47.4321 37.8942 46.1569C39.1694 44.8818 40.8696 44.8818 42.1447 46.1569C42.9948 47.4321 42.9948 49.5573 42.1447 50.4074ZM39.1694 43.6067C37.8942 42.3316 37.8942 40.6314 39.1694 39.3563C40.4445 38.0811 42.1447 38.0811 43.4198 39.3563C44.6949 40.6314 44.6949 42.3316 43.4198 43.6067C42.1447 44.8818 40.4445 44.8818 39.1694 43.6067ZM48.9454 49.1323C47.6703 50.4074 45.9701 50.4074 44.6949 49.1323C43.4198 47.8572 43.4198 46.157 44.6949 44.8819C45.9701 43.6067 47.6703 43.6067 48.9454 44.8819C50.2205 46.157 50.2205 48.2822 48.9454 49.1323ZM50.2205 42.3316C48.9454 43.6067 47.2452 43.6067 45.9701 42.3316C44.695 41.0564 44.695 39.3563 45.9701 38.0811C47.2452 36.806 48.9454 36.806 50.2205 38.0811C51.4957 39.3563 51.4957 41.0564 50.2205 42.3316ZM47.6703 35.1058C46.3951 33.8307 46.3951 32.1305 47.6703 30.8554C48.9454 29.5802 50.6456 29.5802 51.9207 30.8554C53.1958 32.1305 53.1958 33.8307 51.9207 35.1058C50.6456 36.381 48.5203 36.381 47.6703 35.1058ZM57.4463 41.0564C56.1711 42.3315 54.471 42.3315 53.1958 41.0564C51.9207 39.7813 51.9207 38.0811 53.1958 36.806C54.471 35.5308 56.1711 35.5308 57.4463 36.806C58.7214 37.6561 58.7214 39.7813 57.4463 41.0564ZM61.2717 36.381C60.8466 36.806 60.4216 36.806 60.4216 36.381L40.8696 16.8289C40.4445 16.4039 40.4445 15.9788 40.8696 15.9788C41.2946 15.5538 41.7196 15.5538 41.7196 15.9788L61.2717 35.5308C61.2717 35.5308 61.2717 35.9559 61.2717 36.381Z" fill="black"/>
<path d="M13.667 37.2311L15.7922 35.1059L35.3442 15.5538L37.4694 13.4286L28.9686 4.92769C23.0179 -1.02293 13.2419 -1.02293 7.2913 4.92769L5.59114 6.6279C-0.359481 12.5785 -0.359481 22.3545 5.59114 28.3051L13.667 37.2311Z" fill="black"/>
<path d="M62.9719 39.7814L60.8467 41.9066L41.2947 61.4586L39.1694 63.5838L48.5204 72.0847C54.471 78.0353 64.247 78.0353 70.1977 72.0847L71.8978 70.3846C77.8485 64.434 77.8485 54.6579 71.8978 48.7073L62.9719 39.7814Z" fill="black"/>
</svg>
