<svg width="96" height="48" viewBox="0 0 96 48" fill="none" xmlns="http://www.w3.org/2000/svg">
<path d="M35.755 16.8432C30.6545 16.8432 26.829 18.9684 25.5539 22.3688C24.2788 21.0937 23.0036 19.8185 20.4534 19.8185C17.4781 19.8185 15.7779 21.5187 14.5028 23.2189C13.2277 24.494 12.3776 25.3441 11.1024 25.3441C9.40225 25.3441 8.55215 24.494 7.70206 23.2189C6.42692 21.9437 5.15182 19.8185 1.75146 19.8185C0.901376 19.8185 0.476318 20.2436 0.476318 21.0936C0.476318 21.9437 0.901376 22.3688 1.75146 22.3688C3.45164 22.3688 4.30168 23.2189 5.15177 24.494C6.4269 25.7692 7.70207 27.8943 11.1024 27.8943C14.0777 27.8943 15.7779 26.1942 17.053 24.494C18.3281 23.2189 19.1782 22.3688 20.4534 22.3688C22.1536 22.3688 23.0037 23.2189 23.8538 24.494C24.2788 25.3441 25.1289 26.1942 25.979 26.6192C27.6791 29.1695 31.5046 30.8697 35.755 30.8697C41.7056 30.8697 46.3811 27.4693 46.3811 23.6439C45.9561 19.8185 41.2806 16.8432 35.755 16.8432Z" fill="black"/>
<path d="M71.8839 0.266357C59.1326 0.266357 48.5065 10.4674 48.5065 23.6438C48.5065 36.3951 59.1326 47.0212 71.8839 47.0212C84.6352 47.0212 95.2614 36.8202 95.2614 23.6438C94.8363 10.4674 84.6352 0.266357 71.8839 0.266357ZM71.8839 42.7708C61.2578 42.7708 52.3318 34.2699 52.3318 23.2188C52.3318 12.1676 60.8328 3.66673 71.8839 3.66673C82.51 3.66673 91.4359 12.1676 91.4359 23.2188C91.4359 34.2699 82.51 42.7708 71.8839 42.7708Z" fill="black"/>
<path d="M71.8834 37.6703C79.8648 37.6703 86.3349 31.2002 86.3349 23.2188C86.3349 15.2375 79.8648 8.76733 71.8834 8.76733C63.9021 8.76733 57.4319 15.2375 57.4319 23.2188C57.4319 31.2002 63.9021 37.6703 71.8834 37.6703Z" fill="black"/>
</svg>
