<svg width="72" height="71" viewBox="0 0 72 71" fill="none" xmlns="http://www.w3.org/2000/svg">
<path d="M58.3457 10.104C54.0953 7.55371 49.8448 5.4285 45.1693 2.87823C40.4939 0.327964 35.3933 -0.522119 29.4427 0.32797C13.2911 2.45319 0.114746 18.6049 0.114746 36.0317C0.114746 47.0828 5.6403 56.4338 13.7161 60.6843L26.8925 67.91C26.8925 67.91 26.8925 67.91 26.4674 67.91C29.8678 70.0352 34.1182 70.8853 38.3687 70.8853C39.6438 70.8853 40.9189 70.8854 42.194 70.4603C58.3457 68.3351 71.5221 52.1834 71.5221 34.7565C71.9472 23.7054 66.8466 14.3544 58.3457 10.104ZM42.194 66.2099C40.9189 66.2099 40.0688 66.6349 38.7937 66.6349C33.2681 66.6349 28.1676 64.5097 24.3422 60.6843C20.0918 56.4338 17.5415 50.0581 17.5415 43.2574C17.5415 35.6066 20.5168 27.9559 25.6174 22.0052L59.6209 56.0088C55.3704 61.1093 48.9947 65.3598 42.194 66.2099ZM62.5962 52.1834L29.0177 18.6049C33.2682 14.7795 38.3687 12.2292 43.8943 11.3791C45.1694 11.3791 46.0194 10.9541 47.2946 10.9541C52.8201 10.9541 57.9207 13.0793 61.7461 16.9047C65.9965 21.1551 68.5467 27.5308 68.5467 34.3315C67.6967 41.1322 65.5715 47.0828 62.5962 52.1834Z" fill="black"/>
</svg>
