<svg width="90" height="88" viewBox="0 0 90 88" fill="none" xmlns="http://www.w3.org/2000/svg">
<path d="M89.8481 34.8184L74.9716 9.31578L59.67 18.2417V0.389832H30.342V18.2417L15.0404 9.31578L0.163818 34.8184L15.4654 43.7443L0.163818 52.6703L15.0404 78.1729L30.342 69.247V87.0988H59.67V69.247L74.9716 78.1729L89.8481 52.6703L74.5465 43.7443L89.8481 34.8184ZM86.4478 53.5203L74.1215 74.7725L57.1198 64.9965V84.5486H32.8922V64.9965L15.8904 74.7725L3.56418 53.5203L20.5659 43.7443L3.56418 33.9683L15.8904 12.7161L32.8922 22.4921V2.94012H57.1198V22.4921L74.1215 12.7161L86.4478 33.9683L69.446 43.7443L86.4478 53.5203Z" fill="black"/>
<path d="M49.0439 23.3423C49.4689 23.3423 49.8939 23.7673 49.8939 23.7673C49.8939 23.7673 49.4689 23.3423 49.0439 23.3423Z" fill="black"/>
<path d="M49.4687 31.8431C49.0436 31.8431 49.0436 31.8431 49.4687 31.8431C49.4687 31.8431 49.8937 31.8431 50.3187 32.2682C50.7438 32.2682 50.7438 32.2682 51.1688 32.2682C51.5938 32.2682 51.5938 32.2682 52.0189 32.2682C51.5938 32.2682 51.5938 32.2682 51.1688 32.2682C50.3187 31.8431 49.8937 31.8431 49.4687 31.8431Z" fill="black"/>
<path d="M84.3221 33.5433L73.696 14.8414L55.8442 25.0424V4.21527H34.592V25.0424L16.7401 14.8414L6.11401 33.5433L23.9659 43.7444L6.11401 53.9454L16.7401 72.6474L34.592 62.4463V83.2735H55.8442V62.4463L73.696 72.6474L84.3221 53.9454L66.4703 43.7444L84.3221 33.5433ZM45.2181 6.76553C49.0435 6.76553 52.0187 9.74084 52.0187 13.1412C52.0187 15.2664 50.7436 16.9666 49.0435 18.2417V23.3423C51.5937 24.6174 52.8689 26.7426 53.2939 28.0177C53.7189 28.8678 54.144 29.7179 53.719 30.143C53.719 30.568 53.7189 30.9931 53.2939 31.4181C52.8689 31.8431 52.4438 32.2682 51.1687 32.2682C50.7436 32.2682 50.7436 32.2682 50.3186 32.2682C49.8936 32.2682 49.4685 32.2682 48.6184 32.2682H48.1934V32.6932H47.7683V32.2682V31.8431H48.1934C48.6184 31.8431 49.0435 31.8431 49.4685 31.8431C49.8936 31.8431 49.8936 31.8431 50.3186 31.8431C51.5937 31.8431 52.0187 31.4181 52.0187 30.9931C52.0187 30.568 52.4438 30.143 52.4438 30.143C52.4438 29.7179 52.0187 28.8678 52.0187 28.4428C51.5937 27.1677 50.3186 25.0424 48.1934 23.7673V23.3423V18.2417C49.8936 16.9666 50.7437 15.2664 50.7437 13.5663C51.1687 9.74086 48.6184 7.19057 45.2181 6.76553C46.4932 7.19057 47.7684 7.61563 48.6184 8.04067C47.7684 7.19059 46.4932 6.76553 45.2181 6.76553ZM51.5937 39.0689C51.5937 42.4693 49.0435 44.5945 46.0682 44.5945C42.6678 45.0195 43.0928 50.12 42.6678 50.12C42.2427 50.5451 39.2674 48.8449 39.2674 45.4446C39.2674 45.4446 39.2674 45.4445 39.2674 45.0195C39.2674 41.6191 40.9676 40.344 43.9429 39.4939C46.4932 39.0689 47.7683 39.0689 47.7683 36.9437C47.7683 36.0936 47.7683 35.6686 47.7683 34.8185C47.7683 33.5433 47.7684 32.6932 48.6184 32.6932C49.4685 33.1183 51.5937 35.6686 51.5937 39.0689ZM50.3186 52.2453C50.3186 55.2206 48.6184 56.0707 46.4932 56.9207C43.943 57.7708 43.0929 59.046 43.0929 61.1712C43.0929 62.0213 40.9676 60.7461 40.9676 57.7708C40.9676 57.7708 40.9676 57.7708 40.9676 57.3458C40.9676 54.3705 43.5179 53.9454 46.0682 53.5204C47.7683 53.0953 48.1934 52.6703 48.1934 51.3952V50.9701C48.1934 49.695 48.1934 49.2699 48.1934 48.8449C48.1934 48.4199 48.1934 47.9948 48.6184 47.9948C48.1934 47.9948 50.3186 49.27 50.3186 52.2453C50.3186 51.8202 50.3186 52.2453 50.3186 52.2453ZM49.0435 63.7214C49.0435 65.8467 48.1934 66.2717 45.2181 67.5468C43.5179 68.3969 43.5179 68.822 43.0929 69.247C43.0929 69.6721 43.0929 69.6721 43.0929 69.6721V70.0971C42.6678 70.5221 41.8177 70.0971 41.8177 68.3969C41.8177 68.3969 41.8177 68.3969 41.8177 67.9719C41.8177 66.2717 43.9429 64.9966 45.6431 64.1465C46.4932 63.7214 46.9182 62.8714 46.9182 62.0213C46.9182 61.5962 46.9182 61.1712 46.9182 60.7462C46.9182 60.7462 46.9182 60.7462 46.9182 60.3211C46.9182 59.8961 49.0435 61.5962 49.0435 63.7214ZM43.5179 70.5221C43.5179 70.5221 43.9429 70.5221 43.5179 70.5221C43.9429 70.0971 43.9429 70.0971 43.9429 70.0971V69.6721C43.9429 69.247 43.9429 68.822 45.6431 67.9719C46.0681 67.9719 46.4932 67.5468 46.4932 67.5468V67.9719C46.4932 70.0971 46.4932 71.7973 46.4932 73.9225C46.4932 74.3476 46.0681 74.3475 45.6431 74.3475C45.218 74.3475 45.2181 74.3475 44.793 74.3475C44.368 74.3475 43.9429 74.3475 43.5179 74.7726C43.5179 73.4975 43.5179 72.2223 43.5179 70.5221C43.5179 70.9472 43.5179 70.9472 43.5179 70.5221ZM46.0682 76.0477C44.368 76.4728 43.9429 76.4728 43.9429 75.6227C43.9429 75.1976 44.368 75.1976 45.6431 74.7726C46.9182 74.7726 46.4932 73.4975 47.3433 73.4975C47.3433 73.4975 47.7683 73.9225 47.7683 74.3475C47.7683 74.3475 47.3433 75.6227 46.0682 76.0477ZM46.4932 76.0477C46.4932 76.4728 46.4932 77.3229 46.4932 77.7479C46.4932 78.173 46.4932 78.173 46.0682 78.173C45.6431 78.173 44.793 78.173 44.368 78.173L43.9429 77.7479C43.9429 77.3229 43.9429 76.4728 43.9429 76.0477C43.9429 76.4728 44.368 76.4728 44.793 76.4728C45.2181 76.4728 45.6431 76.0477 46.4932 76.0477C46.0682 76.0477 46.4932 76.0477 46.4932 76.0477ZM43.5179 61.1712C43.5179 61.1712 43.5179 60.7461 43.5179 61.1712C43.5179 59.046 44.368 57.7708 46.4932 57.3458V57.7708C46.4932 59.046 46.4932 60.3211 46.4932 61.1712C46.4932 61.1712 46.4932 61.1712 46.4932 61.5962V62.0213C46.4932 62.0213 46.4932 62.0213 46.4932 62.4463C46.4932 62.8714 46.4932 63.7214 46.4932 64.1465C46.4932 64.5715 46.0681 64.9966 45.6431 64.9966C44.793 65.4216 43.9429 65.8467 43.5179 66.2717C43.5179 64.5715 43.5179 62.8714 43.5179 61.1712ZM43.5179 50.12V49.695C43.9429 47.5698 44.368 45.4446 46.0682 45.4446C46.4932 45.4446 46.4932 45.4446 46.9182 45.4446V45.8696C46.9182 48.4199 46.9182 50.5451 46.9182 53.0953C46.9182 53.5204 46.4932 53.5204 45.6431 53.5204C45.218 53.5204 45.2181 53.5204 44.793 53.9454C44.368 53.9454 43.9429 54.3705 43.5179 54.3705C43.5179 52.6703 43.5179 51.8202 43.5179 50.12C43.5179 50.5451 43.5179 50.5451 43.5179 50.12C43.5179 50.5451 43.5179 50.5451 43.5179 50.12ZM46.9182 30.9931C46.9182 32.2682 46.9182 33.5433 46.9182 34.8185C46.9182 34.8185 46.9182 35.2435 46.9182 35.6685V36.0936C46.9182 36.0936 46.9182 36.0936 46.9182 36.5186C46.9182 37.3687 46.9182 38.2188 46.9182 39.0689C46.9182 39.4939 46.4932 39.919 44.793 39.919C44.368 39.919 43.9429 39.919 43.5179 40.344H43.0929C43.0929 39.4939 43.0929 39.0689 43.0929 38.2188C43.0929 38.2188 43.0929 38.2188 43.0929 37.7938C43.0929 37.3687 43.0929 36.9437 43.0929 36.5186C43.0929 35.2435 43.0929 34.3934 43.0929 33.1183C43.0929 31.8432 43.0929 30.993 43.0929 29.7179C43.0929 29.7179 43.0929 29.7179 43.0929 29.2929C43.0929 29.2929 43.0928 29.2929 43.5179 29.2929C43.5179 29.2929 44.368 29.2929 45.2181 30.143C45.6431 30.143 46.4932 30.568 46.9182 30.9931C46.9182 30.568 46.9182 30.9931 46.9182 30.9931ZM45.2181 29.2929C43.5179 28.0177 42.2428 28.0177 42.2428 29.7179V30.143C42.2428 31.8431 42.6678 34.8184 42.6678 36.5186C42.6678 37.3687 42.6678 37.7938 42.6678 38.2188C42.2427 38.6438 37.5673 36.0936 37.5673 30.9931C37.5673 30.568 37.5673 30.143 37.5673 29.7179C37.9923 24.1923 43.9429 23.3422 46.9182 23.7673C49.8935 24.1923 51.1687 26.7426 51.5937 28.0177C52.0188 28.4428 52.0187 29.2929 52.0187 29.7179C52.0187 30.568 52.0188 30.9931 50.7437 30.568C48.6184 30.568 46.9183 30.9931 45.2181 29.2929ZM49.8935 12.7162C49.8935 13.1412 49.8935 13.1412 49.8935 12.7162C49.8935 14.8414 49.0435 16.5415 47.3433 17.3916C47.3433 19.5169 47.3433 21.6421 47.3433 23.7673H46.9182C46.4932 23.7673 45.6431 23.7673 45.2181 23.7673C44.368 23.7673 43.9429 23.7673 43.0929 23.7673C43.0929 21.6421 43.0929 19.5169 43.0929 17.3916C41.3927 16.5415 40.5426 14.8414 40.5426 13.1412C40.5426 10.5909 42.6678 8.46571 45.2181 8.46571C47.7683 8.04067 49.8935 10.1659 49.8935 12.7162ZM37.9923 12.7162C37.9923 9.3158 40.5426 6.76554 44.368 6.34049C43.0929 6.34049 41.8177 7.19059 40.9676 8.04067C41.8177 7.61563 43.0929 7.19057 44.368 6.76553C41.3927 7.19057 38.8424 9.74084 38.8424 12.7162C38.8424 14.8414 39.6925 16.5415 41.3926 17.3916V22.4922V22.9172H40.9676V17.8167C39.2675 16.9666 37.9923 15.2664 37.9923 12.7162C37.9923 13.1412 37.9923 13.1412 37.9923 12.7162C37.9923 13.1412 37.9923 12.7162 37.9923 12.7162ZM35.017 30.143C35.442 26.3176 37.9923 24.1923 40.9676 23.3423C40.1175 23.7673 39.2675 24.1924 38.8424 24.6174C39.6925 24.1924 40.1175 23.7673 40.9676 23.7673C38.4174 24.6174 36.2922 26.7426 35.8671 30.143C35.8671 30.568 35.8671 30.9931 35.8671 30.9931C35.8671 33.5433 37.1422 35.6685 38.4173 36.5186C39.6925 37.7938 40.9676 38.6439 41.8177 39.0689V39.4939V39.919H41.3926V39.4939C40.1175 39.0689 38.4174 38.2188 37.5673 36.9437C36.2921 35.6686 35.017 33.5433 35.017 30.9931C35.017 30.9931 35.017 30.568 35.017 30.143ZM37.1422 45.8696C37.1422 43.3193 38.4173 41.1941 40.5426 40.344C40.1175 40.7691 39.6925 41.1941 39.2674 41.6192C39.6925 41.1941 40.1175 41.1941 40.5426 40.7691C38.8424 42.0442 37.9923 43.7444 37.9923 45.8696C37.9923 47.5698 38.4174 48.8449 39.6925 50.12C40.5426 50.9701 41.3927 51.3952 41.8177 51.3952V53.0953V53.5204H41.3926V51.8202C40.5426 51.8202 39.6925 50.9701 38.8424 50.5451C37.5673 49.27 37.1422 47.9948 37.1422 45.8696C37.1422 46.2947 37.1422 46.2947 37.1422 45.8696ZM38.8424 58.1959C38.8424 57.7708 38.8424 57.7708 38.8424 58.1959C38.8424 56.0707 39.6925 55.2206 40.5426 54.3705C40.5426 54.7955 40.1176 54.7955 40.1176 55.2206L40.5426 54.7955C40.1175 55.6456 39.6925 56.4957 39.6925 57.3458C39.6925 59.896 41.3927 61.5962 42.6678 62.0213V65.8467V66.2717C42.6678 66.2717 42.6678 66.6968 42.2428 66.6968V63.2964C40.5426 62.4463 38.8424 60.7462 38.8424 58.1959ZM49.4685 74.3475C49.4685 75.1976 49.0435 76.4728 48.1934 77.3229V79.023C48.1934 80.2982 47.3433 80.7232 46.4932 80.7232H44.368C43.5179 80.7232 42.6678 79.8731 42.6678 79.023V73.0724V72.6474C42.2427 72.6474 42.2428 72.2223 41.8177 72.2223C41.3927 71.7973 40.9676 70.5222 40.9676 69.6721C40.9676 69.6721 40.9676 69.6721 40.9676 69.247C40.9676 68.3969 41.3927 67.9719 41.8177 67.1218C41.8177 67.5469 41.3926 67.5468 41.3926 67.9719C41.3926 67.9719 41.3927 67.5468 41.8177 67.5468C41.3927 67.9719 41.3926 68.3969 41.3926 68.822C41.3926 69.6721 41.8177 70.5222 42.2428 71.3723C42.2428 71.7973 42.6678 71.7973 43.0929 71.7973V72.2223V77.7479C43.0929 78.598 43.9429 79.4481 44.793 79.4481H46.4932C47.3433 79.4481 48.1934 78.598 48.1934 77.7479V76.0477C49.0435 75.6227 49.4685 74.3476 49.4685 73.4975C49.4685 73.0724 49.4685 73.0724 49.4685 73.0724V72.6474C49.0435 73.0724 49.4685 73.4975 49.4685 74.3475ZM50.7437 64.1465C50.7437 66.2717 49.8936 67.5468 48.1934 68.3969V72.2223H47.7683V71.7973V67.5468C49.4685 66.6968 50.3186 65.8467 50.3186 63.7214C50.3186 62.4463 49.8935 61.5962 49.0435 60.7462L49.4685 61.1712C49.4685 60.7461 49.0435 60.7462 49.0435 60.3211C50.3186 61.1712 50.7437 62.4463 50.7437 64.1465ZM52.4438 52.6703C52.4438 56.0707 50.3186 57.3458 48.1934 58.1959V60.3211C48.1934 60.3211 47.7683 60.3211 47.7683 59.896V59.471V57.3458C49.8935 56.4957 51.5937 55.2206 51.5937 52.2453C51.5937 50.12 50.3186 48.8449 49.4685 47.9948C49.8936 47.9948 49.8936 48.4199 50.3186 48.4199C49.8936 47.9948 49.8936 47.9948 49.4685 47.5698C51.1687 47.9948 52.4438 49.695 52.4438 52.6703C52.4438 52.2453 52.4438 52.2453 52.4438 52.6703ZM54.144 39.4939C54.144 42.8943 52.0188 45.4446 48.6184 46.2946V47.1447H48.1934V46.7197V45.4446C51.1687 44.5945 52.8689 42.0442 53.2939 39.0689C53.2939 36.0936 51.5937 33.5433 49.8935 32.6932C50.3186 32.6932 50.7436 33.1183 51.1687 33.1183C50.7436 32.6932 50.3186 32.2682 49.8935 32.2682C51.5937 33.1183 54.144 35.6685 54.144 39.4939Z" fill="black"/>
<path d="M47.7686 27.1675L48.1936 27.5926C48.6187 27.5926 49.0437 28.0176 49.0437 28.0176L48.6187 27.5926C48.1937 27.1675 47.7686 27.1675 47.7686 27.1675Z" fill="black"/>
</svg>
