<svg width="63" height="89" viewBox="0 0 63 89" fill="none" xmlns="http://www.w3.org/2000/svg">
<path d="M9.96629 65.2839H51.6206C55.021 65.2839 56.2961 62.7337 54.5959 60.1834L36.7441 27.03V4.07759H37.1691C38.0192 4.07759 38.8693 3.22751 38.8693 2.37742V1.95237C38.8693 1.10229 38.0192 0.252197 37.1691 0.252197H23.9927C23.1427 0.252197 22.2925 1.10229 22.2925 1.95237V2.80246C22.2925 3.65255 23.1427 4.50264 23.9927 4.50264H24.4178V27.8801L6.56592 61.0335C5.29079 63.1587 6.99098 65.2839 9.96629 65.2839ZM8.69114 61.0335L26.543 27.8801V27.455V27.03V4.07759V2.37742H24.8428H24.4178V1.95237H37.5941V2.37742H37.1691H35.4689V4.07759V27.455V27.8801V28.3051L53.3208 61.4585C53.7458 62.3086 54.1709 63.1587 53.7458 63.5838C53.3208 64.0088 52.8957 64.4339 51.6206 64.4339H9.96629C9.1162 64.4339 8.26611 64.0088 7.84107 63.5838C7.84107 62.7337 8.2661 61.8836 8.69114 61.0335Z" fill="black"/>
<path d="M31.644 35.1057C32.4941 35.1057 32.9192 34.6807 32.9192 33.8306C32.9192 32.9805 32.4941 32.5555 31.644 32.5555C30.7939 32.5555 30.3689 32.9805 30.3689 33.8306C30.3689 34.2556 30.7939 35.1057 31.644 35.1057Z" fill="black"/>
<path d="M29.5183 29.1553C29.9433 29.1553 30.3684 28.7302 30.3684 28.3052C30.3684 27.8801 29.9433 27.4551 29.5183 27.4551C29.0932 27.4551 28.6682 27.8801 28.6682 28.3052C28.6682 28.7302 29.0932 29.1553 29.5183 29.1553Z" fill="black"/>
<path d="M29.5182 41.4814C31.2184 41.4814 32.4936 40.2063 32.4936 38.5061C32.4936 36.806 31.2184 35.5308 29.5182 35.5308C27.8181 35.5308 26.543 36.806 26.543 38.5061C26.543 40.2063 27.8181 41.4814 29.5182 41.4814Z" fill="black"/>
<path d="M32.0687 40.6314C32.0687 41.9065 32.9188 42.7566 34.1939 42.7566C35.4691 42.7566 36.3192 41.9065 36.3192 40.6314C36.3192 39.3563 35.4691 38.5062 34.1939 38.5062C32.9188 38.5062 32.0687 39.7813 32.0687 40.6314Z" fill="black"/>
<path d="M23.9929 43.1817C25.268 43.1817 26.5431 41.9066 26.5431 40.6314C26.5431 39.3563 25.268 38.0812 23.9929 38.0812C22.7178 38.0812 21.4426 39.3563 21.4426 40.6314C21.8677 42.3316 22.7178 43.1817 23.9929 43.1817Z" fill="black"/>
<path d="M9.96643 63.1586H51.6207C52.4708 63.1586 52.8958 62.7336 52.8958 62.7336C52.8958 62.7336 52.8959 62.3085 52.4708 61.4584L41.8447 41.4814H40.9946C40.9946 42.7565 40.1446 43.6066 38.8694 43.6066C37.5943 43.6066 36.7442 42.7565 36.7442 41.4814C36.3192 42.7565 35.469 43.6066 34.1939 43.6066C32.9188 43.6066 31.6436 42.7565 31.6436 41.4814C31.2186 41.9064 30.3685 41.9064 29.5184 41.9064C28.6683 41.9064 27.8182 41.4814 27.3932 41.0563C26.9681 42.3315 25.6931 43.6066 23.9929 43.6066C22.2927 43.6066 21.0176 42.3315 20.5925 41.0563H19.7424L9.11635 61.0334C8.69131 61.8835 8.69128 62.3085 8.69128 62.3085C8.69128 62.7336 9.11634 63.1586 9.96643 63.1586Z" fill="black"/>
<path d="M38.8696 42.7567C39.7197 42.7567 40.1447 42.3316 40.1447 41.4816C40.1447 40.6315 39.7197 40.2064 38.8696 40.2064C38.0195 40.2064 37.5945 40.6315 37.5945 41.4816C37.5945 41.9066 38.4446 42.7567 38.8696 42.7567Z" fill="black"/>
<path d="M19.7425 66.559H9.96645C9.11637 66.559 8.69131 67.4091 8.69131 67.8341V84.8359H1.46557C0.615487 84.8359 0.19043 85.686 0.19043 86.111C0.19043 86.9611 0.615487 87.3862 1.46557 87.3862H10.3915C11.2415 87.3862 11.6666 86.5361 11.6666 86.111V69.1093H20.1675C21.0176 69.1093 21.4426 68.2592 21.4426 67.8341C21.0176 67.4091 20.5926 66.559 19.7425 66.559Z" fill="black"/>
<path d="M60.9716 84.8359H53.7459V67.8341C53.7459 66.9841 53.3208 66.559 52.4707 66.559H42.6947C41.8446 66.559 41.4196 67.4091 41.4196 67.8341C41.4196 68.6842 41.8446 69.1093 42.6947 69.1093H51.1956V86.111C51.1956 86.9611 52.0457 87.3862 52.4707 87.3862H61.3966C62.2467 87.3862 62.6718 86.5361 62.6718 86.111C62.2467 85.686 61.8217 84.8359 60.9716 84.8359Z" fill="black"/>
<path d="M38.4446 82.2856H23.5681C23.143 82.2856 22.718 82.7107 22.718 83.1357V87.8112C22.718 88.2363 23.143 88.6613 23.5681 88.6613H38.4446C38.8696 88.6613 39.2947 88.2363 39.2947 87.8112V83.1357C39.2947 82.2856 38.8696 82.2856 38.4446 82.2856Z" fill="black"/>
<path d="M26.9685 78.4604C26.5434 78.4604 26.1184 78.8854 26.1184 78.8854V80.5856C26.1184 81.0107 26.5434 81.0107 26.9685 81.0107H34.6193C35.0444 81.0107 35.4694 80.5856 35.4694 80.5856V78.8854C35.4694 78.4604 35.0444 78.4604 34.6193 78.4604H26.9685Z" fill="black"/>
<path d="M32.9191 67.8342C32.9191 67.8342 33.3442 68.6843 33.3442 69.5344C33.3442 70.8095 32.4941 71.2345 32.4941 71.2345C32.4941 71.2345 32.9191 69.9594 31.2189 67.8342C29.5188 65.709 27.3935 66.134 27.3935 66.134C27.3935 66.134 29.0937 67.8342 29.0937 69.1093C28.6687 70.3844 26.1184 70.3844 26.1184 73.3598C26.1184 76.3351 29.0937 77.1851 29.0937 77.1851C29.0937 77.1851 29.0937 74.6349 31.2189 74.6349C33.3442 74.6349 33.3442 77.1851 33.3442 77.1851C33.3442 77.1851 36.3195 76.3351 36.3195 72.9347C35.8944 69.9594 32.9191 67.8342 32.9191 67.8342Z" fill="black"/>
</svg>
