<svg width="57" height="92" viewBox="0 0 57 92" fill="none" xmlns="http://www.w3.org/2000/svg">
<path d="M45.6947 23.9418H43.5695V22.2416C43.5695 19.2663 41.4443 17.1411 39.319 17.1411H37.6189V16.291C37.6189 14.5908 36.3437 13.3157 35.0686 13.3157H30.3931V11.1904C32.5183 10.3403 33.7935 8.64018 33.7935 6.08992C33.7935 3.11461 31.2432 0.564331 28.2679 0.564331C25.2926 0.564331 22.7424 3.11461 22.7424 6.08992C22.7424 8.64018 24.4425 10.3403 26.1427 11.1904V13.3157H21.4673C20.1921 13.3157 18.917 14.5908 18.917 16.291V17.1411H17.6418C15.0915 17.1411 13.3913 19.2663 13.3913 22.2416V23.9418H11.2661C5.31551 23.9418 0.215088 29.0423 0.215088 34.9929V80.4726C0.215088 86.4233 5.31551 91.5238 11.2661 91.5238H45.6947C51.6453 91.5238 56.7459 86.4233 56.7459 80.4726V34.9929C56.7459 28.6173 52.0703 23.9418 45.6947 23.9418ZM25.7177 5.23983C25.7177 3.53965 26.9927 2.68955 28.2679 2.68955C29.968 2.68955 30.8182 3.96469 30.8182 5.23983C30.8182 6.94 29.543 7.79008 28.2679 7.79008C26.9927 8.21513 25.7177 6.94 25.7177 5.23983ZM52.0703 80.4726C52.0703 83.873 49.5201 86.4232 46.1198 86.4232H11.6912C8.29084 86.4232 5.7406 83.873 5.7406 80.4726V34.9929C5.7406 31.5926 8.29084 29.0423 11.6912 29.0423H13.8164V34.5679H43.5695V29.0423H45.6947C49.095 29.0423 51.6453 31.5926 51.6453 34.9929V80.4726H52.0703Z" fill="black"/>
<path d="M43.5695 42.6438H13.8163V46.4692H43.5695V42.6438Z" fill="black"/>
<path d="M43.5695 49.8694H13.8163V53.6948H43.5695V49.8694Z" fill="black"/>
<path d="M43.5695 56.6702H13.8163V60.4956H43.5695V56.6702Z" fill="black"/>
<path d="M43.5695 63.896H13.8163V67.7214H43.5695V63.896Z" fill="black"/>
<path d="M43.5695 70.6966H13.8163V74.522H43.5695V70.6966Z" fill="black"/>
</svg>
