<svg width="70" height="78" viewBox="0 0 70 78" fill="none" xmlns="http://www.w3.org/2000/svg">
<path d="M47.2324 2.59079C47.2324 3.86592 48.5075 5.14104 49.7826 5.14104H61.6839L47.2324 19.5926C44.2571 17.0423 40.4317 15.7671 36.6063 15.7671C33.2059 15.7671 29.8056 16.6173 27.2553 18.3174C24.705 16.6173 21.3047 15.7671 17.9043 15.7671C8.55337 15.7671 0.477539 23.418 0.477539 33.194C0.477539 42.1199 6.8532 49.3457 15.3541 50.1957V60.8218H6.42816C5.15303 60.8218 3.87787 62.097 3.87787 63.3721C3.87787 64.6472 5.15303 65.9224 6.42816 65.9224H15.3541V75.2733C15.3541 76.5485 16.2042 77.8236 17.9043 77.8236C19.1795 77.8236 20.4546 76.9735 20.4546 75.2733V65.9224H28.5304C29.8056 65.9224 31.0807 64.6472 31.0807 63.3721C31.0807 62.097 30.2306 60.8218 28.5304 60.8218H19.6045V50.1957C21.7297 49.7707 23.855 49.3457 25.9802 48.0705C28.9555 50.1957 32.3559 51.0458 36.1812 51.0458C40.8567 51.0458 45.5322 49.3457 48.9326 45.9453C52.3329 42.545 54.0331 38.2945 54.0331 33.194C54.0331 29.3686 52.7579 25.5432 50.2077 22.5679L64.6592 8.11637V20.0176C64.6592 21.2927 65.9343 22.5679 67.2094 22.5679C68.4846 22.5679 69.7597 21.2927 69.7597 20.0176V0.0405273H49.7826C48.0825 0.465571 47.2324 1.31565 47.2324 2.59079ZM22.1548 45.0952C20.4546 45.5202 19.1795 45.9453 17.4793 45.9453C10.6786 45.9453 4.72798 40.4197 4.72798 33.194C4.72798 26.3933 10.2536 20.4427 17.4793 20.4427C19.6045 20.4427 21.3047 20.8677 23.0049 21.7178C16.6292 28.5185 16.6292 38.2945 22.1548 45.0952ZM25.9802 42.5449C21.7297 37.4444 21.7297 29.7936 26.4052 25.1181C28.5304 27.2434 29.8056 30.2187 29.8056 33.619C29.8056 37.0194 28.5304 39.9947 25.9802 42.5449ZM45.1072 42.97C42.5569 45.5202 39.5816 46.7954 35.7562 46.7954C33.631 46.7954 31.5058 46.3703 29.8056 45.0952C32.7809 42.1199 34.4811 37.8695 34.4811 33.194C34.4811 28.9435 32.7809 25.1181 30.2306 21.7178C31.9308 20.8677 33.631 20.4427 35.7562 20.4427C39.1565 20.4427 42.5569 21.7178 45.1072 24.268C47.6574 26.8183 48.9326 29.7936 48.9326 33.619C48.9326 37.4444 47.6574 40.4197 45.1072 42.97Z" fill="black"/>
</svg>
