<svg width="83" height="74" viewBox="0 0 83 74" fill="none" xmlns="http://www.w3.org/2000/svg">
<path d="M41.7809 6.35449C41.7809 6.35449 -6.24908 -15.7478 1.40171 26.7566C1.82676 29.3069 2.67685 31.8571 3.52693 33.9824H11.6028L15.8532 23.7813C15.8532 23.3563 16.2783 23.3563 16.7033 23.3563C17.1284 23.3563 17.5534 23.7813 17.5534 24.2063L20.1037 39.933L28.6045 8.47971C28.6045 8.05467 29.0296 7.62963 29.4547 7.62963C29.8797 7.62963 30.3047 8.05467 30.3047 8.47971L34.1301 53.9594L40.9308 24.6314C40.9308 24.2063 41.3559 23.7813 41.7809 23.7813C42.206 23.7813 42.631 24.2063 42.631 24.6314L45.6063 40.7831L48.1566 33.9824C48.1566 33.5573 48.5816 33.5573 49.0067 33.5573H62.183C62.6081 32.7072 63.4582 31.8571 64.7333 31.8571C66.0085 31.8571 67.2836 33.1323 67.2836 34.4074C67.2836 35.6825 66.0085 36.9577 64.7333 36.9577C63.8833 36.9577 63.0332 36.5326 62.6081 35.6825H49.8568L46.4564 45.0335C46.4564 45.4585 46.0314 45.4585 45.6063 45.4585C45.1813 45.4585 44.7562 45.0335 44.7562 44.6085L42.206 29.7319L35.4053 60.7601C35.4053 61.1852 34.9802 61.6102 34.5552 61.6102C34.1301 61.6102 33.7051 61.1852 33.7051 60.7601L29.8797 14.4303L21.8038 45.4585C21.8038 45.8836 21.3788 46.3086 20.9538 46.3086C20.5287 46.3086 20.1037 45.8836 20.1037 45.4585L17.5534 28.8818L13.303 35.2575C13.303 35.6825 12.8779 35.6825 12.4529 35.6825H4.37704C14.1531 58.2099 41.7809 73.9365 41.7809 73.9365C41.7809 73.9365 77.0596 53.5344 82.1601 26.7566C89.8109 -15.7478 41.7809 6.35449 41.7809 6.35449Z" fill="black"/>
</svg>
