<svg width="84" height="66" viewBox="0 0 84 66" fill="none" xmlns="http://www.w3.org/2000/svg">
<path d="M16.2663 31.4691C17.5414 29.3439 19.2416 27.2186 20.9418 25.0934C18.8166 21.268 16.6913 17.8677 15.8413 14.0423C14.5661 9.36679 15.4162 6.81653 18.8166 6.39149C22.642 5.96644 26.8924 7.24157 30.2928 8.94174C31.9929 9.79183 33.6931 10.6419 34.9682 11.492C35.8183 10.6419 36.6684 10.2169 37.5185 9.3668C35.8183 8.09166 33.6931 6.81653 31.5679 5.54139C27.7425 3.41617 23.9171 1.29095 17.9665 1.29095C14.9912 1.29095 11.1658 2.56609 9.4656 6.39149C7.76543 9.79184 8.19048 13.1922 8.61553 16.1675C10.7407 20.843 13.291 26.3686 16.2663 31.4691Z" fill="black"/>
<path d="M41.7695 41.2452C46.87 41.2452 50.6955 36.9947 50.6955 32.3192C50.6955 27.2187 46.445 23.3933 41.7695 23.3933C37.094 23.3933 32.8436 27.6437 32.8436 32.3192C32.4185 37.4198 36.669 41.2452 41.7695 41.2452Z" fill="black"/>
<path d="M80.4482 26.3685C76.1978 22.1181 71.9473 20.843 67.6969 19.9929C59.196 17.8677 52.3953 17.8677 47.7198 17.8677C47.2948 17.4426 46.8698 17.0176 46.4447 16.5925C46.0197 17.0176 45.5946 17.0176 45.1696 17.4426C45.5946 17.4426 45.5946 17.8677 46.0196 17.8677C43.4694 17.8677 42.1942 18.2927 41.7692 18.2927C47.7198 13.1922 54.0955 9.36676 60.4711 7.66659C65.1466 6.39145 67.6969 7.24155 68.1219 10.6419C68.547 13.1922 67.6969 15.7424 67.2718 18.2927C67.6969 18.2927 68.1219 18.2927 68.1219 18.7177H68.547C69.3971 19.1428 70.2472 19.1428 71.0972 19.5678C72.3724 17.0176 73.2225 14.0423 73.2225 10.2169C73.2225 7.24155 71.9473 3.41616 68.1219 1.71598C64.7216 0.0158024 61.3212 0.440843 58.3459 0.865887C46.4447 3.41615 36.6687 11.0669 27.7428 19.5678C22.2172 25.0934 17.1167 31.4691 13.7163 37.8447C15.8415 38.6948 18.3918 39.5449 20.9421 39.9699C24.3424 34.8694 28.5928 29.7689 33.2683 25.0934C35.8186 22.5431 38.3689 20.4179 41.3442 17.8677C41.7692 17.8677 43.8944 17.8676 46.8698 18.2927C49.8451 20.4179 51.5452 22.1181 51.5452 22.1181C51.5452 22.1181 50.6952 20.843 48.5699 18.7177C52.8204 19.5678 58.771 20.843 65.9967 23.3932C69.3971 24.6684 73.6475 26.7936 75.7727 29.7689C78.323 32.7442 76.6228 34.8694 72.3724 37.4197C64.2966 42.0952 52.3953 43.3703 40.9191 43.3703C40.069 43.3703 39.644 43.3703 38.7939 43.3703C42.1943 46.3456 45.5946 48.8959 48.5699 51.0211C54.9456 50.596 60.8962 49.3209 66.8468 47.1957C67.2718 47.1957 67.6969 46.7706 68.1219 46.7706C68.547 46.7706 68.547 46.7707 68.972 46.3456C69.3971 46.3456 69.8221 45.9206 70.2472 45.9206C71.9473 45.0705 74.0725 44.2204 75.7727 42.9452C78.323 41.2451 80.8732 39.1199 82.1484 35.7195C84.2736 32.3192 82.5734 28.0687 80.4482 26.3685Z" fill="black"/>
<path d="M67.6971 49.321C68.1222 51.4462 68.5472 53.5714 68.1222 55.2716C67.6971 59.097 65.1468 59.5221 60.4714 58.2469C51.5454 55.6967 42.1945 48.4709 33.6936 40.3951C31.5684 38.2699 29.8682 36.1446 27.743 34.0194C26.0428 36.1446 24.3427 38.2699 23.0675 40.3951C24.7677 42.0952 26.4679 44.2205 28.168 45.9206C31.1433 48.4709 33.6936 51.0212 36.6689 53.5714C34.5437 54.8466 32.4185 55.6967 30.2933 56.9718C26.8929 58.2469 22.6425 59.9471 18.8171 59.5221C14.9917 59.097 14.5666 56.5468 15.8418 51.8713C15.8418 51.0212 16.2668 50.5961 16.6919 49.746C14.5666 48.896 12.4414 48.0459 10.3162 47.1958C9.89116 48.0459 9.89114 49.321 9.4661 50.1711C9.04106 53.1464 8.61603 56.5467 10.3162 59.9471C12.0164 63.3474 15.8418 65.0476 18.8171 65.0476C24.7677 65.0476 28.5931 62.4974 32.4185 60.7972C34.9687 59.097 37.519 57.3968 39.6442 55.6967C45.5948 59.9471 51.9705 63.3475 59.1963 65.0476C62.1716 65.4727 65.5719 65.8977 68.9722 64.1975C72.3726 62.4974 74.0728 58.672 74.0728 55.6967C74.0728 52.7213 73.2227 49.746 72.3726 47.6208C70.6724 48.0459 69.3973 48.8959 67.6971 49.321Z" fill="black"/>
<path d="M27.3176 47.1957C25.6174 45.4955 23.9172 43.3703 22.2171 41.6701C17.9666 40.82 13.7162 39.5449 10.3158 37.4196C6.0654 34.8694 4.79026 32.7442 6.91548 29.7688C8.19061 28.0687 9.89078 27.2186 11.591 25.9434C10.7409 24.6683 10.3158 22.9681 9.89078 21.693C7.76555 22.5431 5.2153 24.2433 3.09007 26.3685C0.964853 28.4937 -0.735317 32.3191 0.539816 35.7195C1.81495 39.1198 4.36521 41.245 6.91548 42.9452C14.1412 47.6207 22.6421 49.7459 31.5681 50.596C29.8679 49.7459 28.5927 48.4708 27.3176 47.1957Z" fill="black"/>
<path d="M53.6701 41.245C54.0951 41.245 54.0951 41.245 54.5201 41.245C56.2203 39.9699 58.3455 37.8447 60.8958 34.8694C61.7459 36.1445 62.596 37.8447 63.4461 39.5448C64.7212 39.1198 65.5713 38.6948 66.8464 38.6948C65.5713 36.5695 63.8711 34.8694 62.596 33.1692C64.2962 31.044 65.9964 28.9188 67.6965 26.3685C66.8464 25.9434 66.4214 25.9434 65.9964 25.5184C65.5713 25.5184 65.1462 25.0934 64.7212 25.0934C63.4461 27.2186 62.596 29.3438 61.3209 31.469C56.2203 25.5184 52.3949 22.9681 52.3949 22.9681C51.9699 22.9681 55.7953 26.3685 60.0457 33.5942C57.4955 36.5695 55.3702 39.5448 53.6701 41.245Z" fill="black"/>
<path d="M21.3667 21.6929C22.6418 21.2679 23.9169 20.8429 24.767 20.8429C25.6171 19.9928 26.4672 19.1427 27.3173 18.2926L27.7423 17.8676C25.1921 17.8676 22.6418 18.2926 19.6665 19.1427C20.0915 19.9928 20.9416 20.8429 21.3667 21.6929Z" fill="black"/>
</svg>
