<svg width="91" height="44" viewBox="0 0 91 44" fill="none" xmlns="http://www.w3.org/2000/svg">
<path d="M5.77803 9.00537H29.5805C32.1308 9.00537 33.8309 7.3052 33.8309 4.75494C33.8309 2.20469 32.1308 0.504517 29.5805 0.504517H5.77803C3.22776 0.504517 1.52759 2.20469 1.52759 4.75494C1.52759 7.3052 3.22776 9.00537 5.77803 9.00537Z" fill="black"/>
<path d="M84.836 32.8078C83.9859 32.8078 83.1358 32.8078 82.7108 33.2328L76.7601 27.2822L83.9859 20.0564H86.1111C88.6614 20.0564 90.3615 18.3563 90.3615 15.806C90.3615 13.2557 88.6614 11.5555 86.1111 11.5555H5.77777C3.22751 11.5555 1.52733 13.2557 1.52733 15.806C1.52733 18.3563 3.22751 20.0564 5.77777 20.0564H7.0529L14.2787 27.2822L8.32804 33.2328C7.0529 32.8078 6.62786 32.8078 5.77777 32.8078C2.80246 32.8078 0.252197 35.358 0.252197 38.3334C0.252197 41.3087 2.80246 43.8589 5.77777 43.8589C8.75308 43.8589 11.3033 41.3087 11.3033 38.3334C11.3033 37.4833 11.3033 36.6332 10.8783 36.2081L16.8289 30.2575L22.7795 36.2081C22.3545 37.0582 22.3545 37.4833 22.3545 38.3334C22.3545 41.3087 24.9048 43.8589 27.8801 43.8589C30.8554 43.8589 33.4056 41.3087 33.4056 38.3334C33.4056 35.358 30.8554 32.8078 27.8801 32.8078C27.03 32.8078 26.1799 32.8078 25.7548 33.2328L19.8042 27.2822L27.03 20.0564H63.1587L70.3845 27.2822L64.4339 33.2328C63.5838 32.8078 63.1587 32.8078 62.3086 32.8078C59.3333 32.8078 56.7831 35.358 56.7831 38.3334C56.7831 41.3087 59.3333 43.8589 62.3086 43.8589C65.284 43.8589 67.8342 41.3087 67.8342 38.3334C67.8342 37.4833 67.8342 36.6332 67.4092 36.2081L73.3598 30.2575L79.3104 36.2081C78.8854 37.0582 78.8854 37.4833 78.8854 38.3334C78.8854 41.3087 81.4356 43.8589 84.4109 43.8589C87.3862 43.8589 89.9365 41.3087 89.9365 38.3334C90.7866 35.358 87.8113 32.8078 84.836 32.8078ZM16.8289 23.8818L12.5785 19.6314H20.6543L16.8289 23.8818ZM69.5344 19.6314H77.6102L73.3598 23.8818L69.5344 19.6314Z" fill="black"/>
</svg>
