<svg width="56" height="50" viewBox="0 0 56 50" fill="none" xmlns="http://www.w3.org/2000/svg">
<path d="M27.7708 3.85517C27.7708 3.85517 -4.46294 -10.9781 0.67163 17.5473C0.956884 18.9736 1.24214 20.3999 1.81265 21.8261H6.94723L9.79977 15.5505C10.085 14.98 10.6555 14.6948 11.226 14.6948C11.7966 14.6948 12.3671 15.2653 12.3671 15.8358L13.5081 22.3967L18.0721 5.28144C18.3574 4.71093 18.9279 4.14037 19.4984 4.42562C20.0689 4.42562 20.6394 4.99612 20.6394 5.56662L22.9215 30.669L26.6298 16.1211C26.915 15.5505 27.4855 15.2653 28.056 15.2653C28.6265 15.2653 29.197 15.8358 29.197 16.4063L30.6233 24.1081L31.4791 22.1114C31.7643 21.5409 32.0496 21.2556 32.6201 21.2556H38.8957C39.4662 19.2588 41.1777 18.1179 43.1745 18.1179C45.7418 18.1179 47.7386 20.1146 47.7386 22.6819C47.7386 25.2491 45.7418 27.2459 43.1745 27.2459C41.1777 27.2459 39.4662 25.8197 38.8957 24.1081H33.4758L31.4791 28.9575C31.1938 29.528 30.6233 29.8132 30.0528 29.8132C29.4823 29.8132 28.9118 29.2427 28.9118 28.6722L27.7708 22.3967L23.7772 38.6561C23.492 39.2266 23.2067 39.5119 22.6362 39.5119C22.0657 39.5119 21.4952 38.9413 21.4952 38.3708L19.2131 12.698L14.3638 28.9575C14.0786 29.528 13.7933 29.8132 12.9376 29.8132C12.3671 29.8132 11.7965 29.2427 11.7965 28.6722L10.3703 20.3999L8.944 23.5377C8.65875 24.1082 8.37349 24.3934 7.80298 24.3934H2.95367C9.79977 38.9414 27.7708 49.4958 27.7708 49.4958C27.7708 49.4958 51.4469 35.8036 54.8699 17.8326C60.0045 -10.9781 27.7708 3.85517 27.7708 3.85517Z" fill="#00A099"/>
</svg>
