<svg width="51" height="52" viewBox="0 0 51 52" fill="none" xmlns="http://www.w3.org/2000/svg">
<path d="M28.0654 22.064C27.8088 22.064 27.8088 22.3206 27.8088 22.3206C27.8088 22.3206 28.0654 22.3206 28.322 22.3206C28.5785 22.3206 28.5785 22.064 28.5785 22.064C28.322 22.064 28.0654 22.064 28.0654 22.064Z" fill="#00A099"/>
<path d="M22.6779 22.3206C22.9345 22.3206 23.191 22.3206 23.191 22.3206C23.191 22.3206 23.191 22.064 22.9344 22.064C22.6779 22.064 22.4213 22.064 22.4213 22.064C22.4213 22.064 22.4213 22.3206 22.6779 22.3206Z" fill="#00A099"/>
<path d="M50.3862 32.0699L40.637 26.4256C40.1239 26.169 40.1239 25.6559 40.637 25.3994L50.3862 19.7551C50.8994 19.4985 51.1559 18.7288 50.8993 18.2157L44.9985 7.95333C44.7419 7.44022 43.9722 7.18366 43.4591 7.44022L33.7099 13.0845C33.1968 13.3411 32.6837 13.0845 32.6837 12.5714V1.02624C32.6837 0.513118 32.1705 0 31.6574 0H19.8557C19.3426 0 18.8295 0.513118 18.8295 1.02624V12.3148C18.8295 12.828 18.3163 13.0845 17.8032 12.828L8.05398 7.18366C7.54086 6.9271 6.77119 7.18366 6.51463 7.69677L0.613761 17.9591C0.357202 18.4723 0.613753 19.2419 1.12687 19.4985L10.8761 25.1428C11.3892 25.3994 11.3892 25.9125 10.8761 26.169L0.613761 32.0699C0.100643 32.3265 -0.155908 33.0961 0.100651 33.6092L6.0015 43.8716C6.25806 44.3847 7.02773 44.6413 7.54085 44.3847L17.2901 38.7404C17.8032 38.4839 18.3163 38.7404 18.3163 39.2535V50.5421C18.3163 51.0553 18.8295 51.5684 19.3426 51.5684H31.1443C31.6574 51.5684 32.1705 51.0553 32.1705 50.5421V39.2535C32.1705 38.7404 32.6836 38.4839 33.1968 38.7404L42.946 44.3847C43.4591 44.6413 44.2288 44.3847 44.4854 43.8716L50.3862 33.6092C51.1559 33.0961 50.8994 32.3265 50.3862 32.0699ZM30.8877 13.5976C31.1443 13.5976 31.1443 13.8542 31.4009 13.8542C31.1443 13.5976 30.8877 13.5976 30.8877 13.5976C30.3746 13.3411 30.1181 13.3411 30.1181 13.0845C30.3746 13.0845 30.6312 13.3411 30.8877 13.5976ZM30.3746 13.8542C31.4009 14.6239 33.4533 14.8804 37.3017 14.8804C41.1501 14.8804 41.6632 14.6239 41.1501 15.6501C40.637 16.6763 38.8411 16.4198 38.5845 16.6763C38.328 16.6763 38.5845 18.2157 37.5583 17.9591C36.532 17.9591 36.0189 17.7026 35.7624 18.7288C35.7624 19.4985 34.4796 20.0116 33.4533 19.4985C32.4271 18.9854 31.914 19.2419 31.914 19.7551C31.914 20.2682 31.4009 21.0378 29.605 20.5247C27.809 20.0116 28.0656 20.0116 27.5525 20.5247C27.0394 21.0378 27.0394 20.5247 27.0394 19.7551C27.0394 18.7288 27.0394 16.6763 27.0394 16.4198C27.0394 15.6501 27.0394 15.9067 27.5525 15.9067C28.0656 15.9067 28.5787 15.6501 28.5787 14.6239C28.0656 13.3411 29.0918 13.0845 30.3746 13.8542ZM24.4738 36.1748C24.4738 35.6617 24.4738 35.4052 24.4738 34.892C24.7303 34.6355 27.809 33.6092 28.3222 33.3527C29.0918 33.8658 29.605 34.3789 29.605 35.4052C29.605 36.688 27.809 37.9707 26.2697 38.4839C24.7303 38.997 24.2172 39.2535 24.2172 39.7667C24.2172 40.0232 24.4738 40.2798 24.7303 40.5363C24.7303 40.2798 24.7303 39.7667 24.7303 39.5101C24.9869 39.5101 27.809 38.4839 28.3222 38.2273C28.5787 38.7404 29.0918 39.2535 29.0918 39.7667C29.0918 40.7929 28.5787 41.8191 26.2697 42.3323C24.7303 42.8454 23.9606 43.3585 24.7303 43.8716C24.7303 43.615 24.7303 43.3585 24.7303 43.3585C25.5 42.8454 27.2959 42.5888 28.0656 42.0757C28.3221 42.3323 28.3222 42.8454 28.3222 43.3585C28.0656 44.1282 27.809 44.8978 25.5 45.6675C23.191 46.4372 22.4213 46.9503 22.1647 46.6938C21.9082 46.4372 23.4475 45.6675 24.9869 44.6413C26.0131 43.8716 27.0394 43.3585 26.0131 42.8454C26.0131 43.1019 26.0131 43.1019 26.0131 43.3585C25.7566 43.8716 24.2172 44.6413 23.9606 44.8978C23.191 44.3847 22.6778 43.8716 22.4213 43.3585C22.1647 42.5888 22.6778 42.3323 23.9606 41.5626C25.5 40.7929 26.2697 40.5363 26.2697 40.0232C26.2697 39.7667 26.0131 39.5101 25.7566 39.5101C25.7566 39.7667 25.7566 40.0232 25.7566 40.2798C25.5 40.7929 23.191 41.5626 22.4213 41.8191C21.6516 41.306 21.395 40.5363 21.395 39.7667C21.395 38.7404 22.1647 37.9707 24.2172 37.2011C26.2697 36.4314 26.5262 35.6617 26.5262 35.1486C26.5262 34.892 26.2697 34.892 25.7566 34.6355C25.7566 35.1486 25.7566 35.4052 25.7566 35.9183C25.2434 36.1748 22.9344 37.2011 22.1647 37.4576C21.1385 36.688 20.3688 36.688 20.3688 35.1486C20.3688 33.8658 21.6516 32.8396 23.7041 32.0699C25.7566 31.3002 27.2959 30.274 27.2959 29.2477C27.2959 28.7346 26.7828 28.4781 26.2697 28.2215C27.5525 27.9649 28.5787 27.9649 29.605 27.7084C29.8615 27.9649 30.1181 28.4781 30.1181 28.9912C30.3746 30.5305 30.1181 31.8133 27.5525 33.0961C24.9869 34.3789 23.191 34.6355 23.191 35.1486C23.7041 35.4052 23.9607 35.6617 24.4738 36.1748ZM28.0656 45.411C27.809 45.411 27.809 45.1544 27.5525 44.8978C28.3221 44.3847 28.5787 43.8716 28.8353 43.1019C28.8353 42.8454 28.8353 42.8454 28.8353 42.5888C29.0918 43.1019 29.0918 43.3585 28.8353 43.8716C28.8353 44.3847 28.5787 44.8978 28.0656 45.411ZM28.8353 46.4372C28.5787 46.6938 28.0656 46.1806 26.2697 45.6675C26.0131 48.2331 25.7565 49.7725 25.5 49.7725C25.2434 49.7725 24.9869 48.2331 24.9869 45.9241C25.5 45.9241 26.7828 45.1544 27.0394 45.1544C28.0656 45.6675 28.8353 46.4372 28.8353 46.4372ZM21.9082 43.8716C21.9082 43.3585 21.9082 43.1019 21.9082 42.8454V43.1019C21.9082 43.8716 22.4213 44.3847 23.191 44.8978C22.9344 45.1544 22.6778 45.1544 22.6778 45.1544C22.4213 44.8978 22.1647 44.3847 21.9082 43.8716ZM26.7828 30.0174V28.7346C27.0393 28.9912 27.2959 28.9912 27.2959 29.2477V29.5043L27.0394 29.2477L26.7828 30.0174ZM28.8353 27.4518C26.2697 27.9649 22.9344 27.9649 22.9344 28.9912C22.9344 29.5043 23.4475 30.5305 24.2172 31.0437L24.4738 31.3002C24.4738 30.274 24.4738 29.2477 24.4738 28.2215C24.9869 28.2215 25.2434 27.9649 26.2697 27.9649C26.2697 28.7346 26.2697 29.7609 26.2697 30.5305C25.7566 30.7871 25.2434 31.0437 24.4738 31.3002C24.2172 31.3002 22.6779 32.0699 22.1647 32.3264C20.3688 31.3002 19.8557 29.7609 20.1123 28.4781C20.3688 26.9387 21.6516 25.3994 24.9869 25.1428C28.3221 25.1428 30.1181 24.6297 30.6312 23.86C31.1443 23.0903 30.8877 22.0641 30.1181 22.5772C29.3484 23.0903 28.8353 23.3469 27.5525 23.3469C26.5262 23.3469 26.2697 22.5772 26.7828 21.8075C27.2959 21.0378 26.7828 20.7813 28.3222 20.5247C29.605 20.2682 32.9402 20.5247 33.1968 22.5772C33.7099 25.1428 31.6574 26.9387 28.8353 27.4518ZM23.7041 29.5043V29.2477C23.7041 29.2477 23.9606 28.9912 24.2172 28.9912V30.274V29.2477C23.7041 29.2477 23.7041 29.5043 23.7041 29.5043ZM23.9606 21.0378C23.7041 21.0378 23.4475 20.7813 23.191 20.7813L22.9344 20.5247C22.9344 20.5247 22.6778 20.5247 22.4213 20.7813C22.4213 20.7813 22.1647 20.7813 21.9082 20.7813C22.4213 20.5247 22.9344 20.5247 22.9344 20.5247C22.9344 20.5247 22.9344 20.5247 23.191 20.7813C23.4475 20.5247 23.7041 20.7813 23.9606 21.0378C23.9606 20.7813 24.2172 20.7813 24.2172 20.7813C24.2172 21.0378 24.2172 21.2944 24.2172 21.8075C23.9606 21.2944 23.9606 21.2944 23.9606 21.0378ZM22.4213 21.0378C23.7041 21.2944 23.4475 21.551 23.9606 22.3206C24.4738 23.0903 24.2172 23.86 23.191 23.86C21.9082 23.86 21.3951 23.6034 20.6254 23.0903C19.8557 22.5772 19.5991 23.6034 20.1123 24.3731C20.6254 24.8862 21.9082 25.3994 23.4475 25.6559C22.1647 25.6559 21.1385 26.4256 20.6254 27.4518C18.5729 26.6821 17.2901 25.1428 17.5467 23.3469C17.8032 21.0378 21.1385 20.7813 22.4213 21.0378ZM23.191 24.8862H22.9344C21.6516 24.6297 20.8819 24.3731 20.8819 24.1166L20.6254 23.86C21.3951 24.3731 21.9082 24.6297 23.191 24.6297H23.4475C23.7041 24.6297 24.2172 24.6297 24.2172 24.3731V25.3994V24.8862C23.7041 24.6297 23.4475 24.6297 23.191 24.8862ZM26.7828 24.8862V24.1166C27.0393 24.1166 27.2959 24.3731 27.5525 24.3731H27.809C29.0918 24.3731 29.6049 24.1166 30.3746 23.6034C30.3746 23.6034 30.3746 23.86 30.1181 23.86C29.8615 24.1166 29.0918 24.6297 28.0656 24.6297H27.809C27.5525 24.6297 27.0394 24.6297 27.0394 24.3731L26.7828 24.8862ZM26.7828 21.551C26.7828 21.2944 26.7828 21.0378 26.7828 20.7813C27.0393 20.7813 27.2959 20.5247 27.5525 20.5247L27.809 20.2682C28.0656 20.2682 28.3221 20.5247 29.0918 20.5247C28.8353 20.5247 28.8353 20.5247 28.5787 20.5247C28.3222 20.5247 28.0656 20.2682 27.809 20.2682C27.809 20.2682 27.809 20.2682 27.5525 20.5247C27.2959 20.7813 27.0393 20.7813 26.7828 20.7813C26.7828 20.7813 26.7828 20.7813 26.5262 20.7813C26.7828 21.0378 26.7828 21.2944 26.7828 21.551ZM28.3222 11.8017C28.3222 12.828 27.809 13.8542 26.7828 14.3673C26.7828 14.6239 26.7828 14.6239 26.7828 14.8804C26.7828 14.6239 26.7828 14.3673 26.7828 14.3673C27.5525 13.8542 28.0656 12.828 28.3222 11.8017C28.3222 10.2624 27.0393 8.97957 25.5 8.97957C27.0393 8.97957 28.3222 10.2624 28.3222 11.8017ZM27.5525 11.8017C27.5525 12.828 27.0394 13.5976 26.0131 13.8542C26.0131 15.137 26.0131 17.1895 26.0131 20.0116C26.0131 21.551 26.0131 23.3469 26.0131 24.8862C25.5 24.8862 24.9869 24.8862 24.2172 24.8862C24.2172 23.0903 24.2172 21.2944 24.2172 19.7551C24.2172 16.6763 24.2172 14.8804 24.2172 13.5976C23.4475 13.3411 22.6778 12.5714 22.6778 11.5452C22.6778 10.2624 23.7041 9.23613 24.9869 9.23613C26.2697 9.23613 27.5525 10.5189 27.5525 11.8017ZM25.2434 8.97957C23.7041 8.97957 22.6778 10.2624 22.6778 11.8017C22.6778 12.828 23.191 13.8542 24.2172 14.1108C24.2172 14.3673 24.2172 14.3673 24.2172 14.6239C24.2172 14.3673 24.2172 14.3673 24.2172 14.1108C23.191 13.5976 22.6778 12.5714 22.6778 11.5452C22.6778 10.2624 23.7041 9.23613 25.2434 8.97957ZM19.8557 13.5976C20.1123 13.3411 20.3688 13.3411 20.6254 13.0845C20.6254 13.0845 20.3688 13.3411 19.8557 13.5976C19.8557 13.5976 19.5991 13.8542 19.3426 13.8542C19.5991 13.8542 19.8557 13.5976 19.8557 13.5976ZM13.6983 14.8804C17.5467 14.8804 19.3426 14.6239 20.6254 13.8542C21.6516 13.0845 22.6778 13.3411 22.9344 14.1108C22.9344 14.8804 23.4475 15.3935 23.9606 15.3935C24.4738 15.3935 24.4738 15.137 24.4738 15.9067C24.4738 16.1632 24.4738 18.2157 24.4738 19.2419C24.4738 20.2682 24.4738 20.5247 23.9606 20.0116C23.4475 19.4985 23.4475 19.4985 21.9082 20.0116C20.3688 20.5247 19.5991 19.7551 19.5991 19.2419C19.5991 18.7288 19.086 18.4723 18.0598 18.9854C17.0336 19.4985 15.7508 18.9854 15.7508 18.2157C15.7508 17.446 15.2376 17.446 13.9548 17.446C12.9286 17.446 13.1852 16.1632 12.9286 16.1632C12.672 16.1632 10.8761 16.4198 10.363 15.137C9.33678 14.6239 9.84989 14.8804 13.6983 14.8804ZM16.0073 20.2682C14.9811 20.2682 13.9548 19.7551 13.9548 18.7288V18.4723C13.9548 18.4723 13.9548 18.4723 13.6983 18.4723C13.4417 18.4723 13.1852 18.4723 12.9286 18.4723H12.672C11.6458 18.4723 11.3892 17.446 11.3892 17.1895C10.8761 17.1895 9.33677 17.1895 8.56709 15.9067C8.31053 15.6501 8.31053 15.137 8.56709 14.6239C8.82365 14.3673 9.08021 14.1108 9.59333 14.1108C9.33677 14.1108 9.33678 14.3673 9.08022 14.3673C8.82366 14.8804 9.08022 15.137 9.08022 15.6501C9.59334 16.9329 11.1327 16.9329 11.6458 16.9329C11.6458 17.446 11.9024 18.2157 12.9286 18.2157H13.1852C13.4417 18.2157 13.6983 18.2157 13.9548 18.2157C14.2114 18.2157 14.2114 18.2157 14.2114 18.2157C14.2114 18.2157 14.2114 18.2157 14.2114 18.4723C14.2114 19.2419 14.9811 20.0116 16.2639 20.0116C16.777 20.0116 17.0335 20.0116 17.5467 19.7551C18.0598 19.4985 18.3163 19.4985 18.3163 19.4985C18.3163 20.0116 18.5729 20.5247 19.086 20.7813C18.8295 20.7813 18.8295 20.7813 18.5729 21.0378C18.0598 20.7813 17.8032 20.2682 17.8032 20.0116C17.5467 20.0116 17.2901 20.0116 17.0335 20.2682C17.0335 20.2682 16.5204 20.2682 16.0073 20.2682ZM19.3426 29.2477C19.3426 28.9912 19.5991 28.4781 19.8557 27.9649C17.5467 26.9387 16.2639 25.1428 16.5204 23.3469C16.777 22.5772 17.0335 22.0641 17.5467 21.8075C17.2901 22.0641 16.777 22.5772 16.777 23.0903C16.5204 24.8862 17.8032 26.6821 19.8557 27.7084C19.5991 28.2215 19.5991 28.4781 19.3426 28.9912C19.086 30.274 19.3426 31.8133 21.1385 33.0961C20.8819 33.0961 20.8819 33.3527 20.6254 33.3527C19.3426 32.0699 19.3426 30.274 19.3426 29.2477ZM20.1123 35.6617C20.1123 35.1486 20.1122 34.892 20.3688 34.3789C20.3688 34.6355 20.3688 34.892 20.3688 34.892C20.3688 36.4314 21.1385 36.9445 21.9082 37.2011C21.9082 37.2011 22.1647 37.2011 22.1647 37.4576C21.9082 37.7142 21.9082 37.7142 21.6516 37.9707C20.8819 37.7142 20.1123 37.2011 20.1123 35.6617ZM21.395 39.2535C21.395 40.2798 21.6516 41.306 22.4213 41.8191C22.1647 42.0757 22.1647 42.0757 22.1647 42.3323C21.3951 41.8191 21.1385 40.7929 21.1385 40.0232C21.1385 39.7667 21.395 39.5101 21.395 39.2535ZM29.3484 47.72C29.3484 47.72 29.0918 47.9766 28.8353 47.9766C28.5787 47.9766 28.3222 47.72 27.2959 47.4634C27.0394 47.4634 27.0393 47.2069 26.7828 47.2069C26.5262 50.7987 26.0131 51.0553 25.5 51.0553C24.7303 51.0553 24.4738 50.5421 24.2172 47.2069C23.9606 47.2069 23.7041 47.4634 23.4475 47.4634C22.6779 47.72 22.1647 47.9766 21.9082 47.9766C21.6516 47.9766 21.395 47.9766 21.395 47.72L21.1385 47.4634V47.2069C21.1385 46.9503 21.1385 46.9503 21.395 46.6938C21.395 46.6938 21.6516 46.9503 21.9082 46.9503C22.1647 46.9503 22.4213 46.9503 23.4475 46.4372C23.7041 46.4372 23.9606 46.1806 24.2172 46.1806C24.4738 49.2593 24.7303 50.029 25.2434 50.029C25.7566 50.029 26.2697 49.7725 26.5262 46.1806C26.7828 46.1806 27.0394 46.4372 27.0394 46.4372C27.809 46.6938 28.3222 46.9503 28.5787 46.9503C28.8353 46.9503 28.8353 46.9503 29.0918 46.6938C29.3484 46.9503 29.3484 46.9503 29.3484 47.2069V47.72ZM28.5787 42.3323C28.5787 42.0757 28.5787 41.8191 28.3222 41.8191C29.0918 41.306 29.3484 40.5363 29.3484 39.5101C29.3484 39.5101 29.3484 39.5101 29.3484 39.2535C29.3484 39.5101 29.605 39.7667 29.605 40.0232C29.605 41.0495 29.3484 41.8191 28.5787 42.3323ZM29.0918 38.2273C29.0918 37.9707 28.8353 37.9707 28.8353 37.7142C29.6049 37.2011 30.3746 36.1748 30.3746 35.1486C30.3746 34.892 30.3746 34.892 30.3746 34.6355C30.6312 34.892 30.6312 35.4052 30.6312 35.6617C30.3746 36.688 29.8615 37.4576 29.0918 38.2273ZM30.8877 27.9649C31.1443 28.4781 31.4009 28.7346 31.4009 29.2477C31.6574 31.0437 31.1443 32.3265 29.3484 33.3527C29.0918 33.0961 29.0918 33.0961 28.8353 33.0961C30.6312 32.0699 31.4009 30.7871 30.8877 28.9912C30.8877 28.7346 30.6312 28.2215 30.3746 27.7084C32.4271 26.6821 33.7099 24.8862 33.4533 23.0903C33.4533 22.5772 33.1968 22.0641 32.6837 21.8075C33.1968 22.3206 33.7099 22.8338 33.7099 23.6034C34.4796 25.1428 33.1968 26.9387 30.8877 27.9649ZM39.3542 17.446C39.3542 17.9591 39.0976 18.7288 38.0714 18.7288H37.8148C37.5583 18.7288 37.3017 18.7288 37.0452 18.7288C36.7886 18.7288 36.7886 18.7288 36.7886 18.7288C36.7886 18.7288 36.7886 18.7288 36.7886 18.9854C36.7886 19.7551 36.0189 20.5247 34.7361 20.5247C34.223 20.5247 33.7099 20.5247 33.4533 20.2682C32.9402 20.0116 32.6837 20.0116 32.6837 20.0116C32.6837 20.5247 32.4271 20.7813 31.914 21.0378C31.6574 21.0378 31.6574 21.0378 31.4009 20.7813C31.914 20.5247 32.1705 20.0116 32.1705 19.4985C32.1705 19.4985 32.4271 19.4985 32.9402 19.7551C33.4533 20.0116 33.7099 20.0116 34.223 20.0116C35.2492 20.0116 36.0189 19.4985 36.2755 18.4723V18.2157C36.2755 18.2157 36.2755 18.2157 36.532 18.2157C36.7886 18.2157 37.0452 18.2157 37.3017 18.2157H37.5583C38.5845 18.2157 38.8411 17.1895 38.8411 16.9329C39.3542 16.9329 40.8935 16.9329 41.4067 15.6501C41.6632 15.3935 41.6632 14.8804 41.4067 14.3673C41.4067 14.1108 41.1501 14.1108 40.8935 14.1108C41.4067 14.1108 41.9198 14.1108 41.9198 14.6239C42.1763 15.137 41.9198 15.6501 41.9198 15.9067C41.6632 17.446 40.1239 17.446 39.3542 17.446Z" fill="#00A099"/>
</svg>
