<svg width="41" height="53" viewBox="0 0 41 53" fill="none" xmlns="http://www.w3.org/2000/svg">
<path d="M30.9869 31.9327L34.7267 8.91813C35.3021 8.05508 35.5898 6.90436 35.5898 5.75363C35.5898 2.58913 33.0007 0 29.8362 0C26.6717 0 24.0825 2.58913 24.0825 5.75363C24.0825 8.91813 26.384 11.2196 29.2608 11.5073L28.1101 18.1239H16.6028C15.1644 18.1239 14.0137 19.2747 14.0137 20.7131C14.0137 22.1515 15.1644 23.3022 16.6028 23.3022H27.247L26.6717 26.7544H14.0137L8.26006 43.4399L4.23245 42.2892C2.79404 42.0015 1.3557 42.5769 1.06802 44.0153C0.780338 45.4537 1.35563 46.8921 2.79404 47.1798L11.4245 49.7689L17.4658 31.9327H30.9869Z" fill="#00A099"/>
<path d="M33.5758 24.4529L32.7128 30.2066C34.4389 31.9327 35.3019 34.5218 35.3019 37.1109C35.3019 42.8645 30.699 47.4675 24.9454 47.4675C21.2055 47.4675 17.7534 45.4537 16.0273 42.0015L14.0135 47.7551C16.8904 50.6319 20.9179 52.358 24.9454 52.358C33.2881 52.358 40.1924 45.4537 40.1924 37.1109C40.4801 31.9326 37.891 27.3298 33.5758 24.4529Z" fill="#00A099"/>
</svg>
