<svg width="138" height="52" viewBox="0 0 138 52" fill="none" xmlns="http://www.w3.org/2000/svg">
<path d="M29.7952 21.456C28.8107 24.928 27.9229 28.544 25.5987 28.6401C23.3229 28.7201 22.3868 25.5201 21.3215 22.096C20.1755 18.4001 19.0134 14.4481 19.0134 14.4481C23.2421 12.64 27.5517 12.7041 31.9095 14.384C31.9095 14.384 30.8282 17.856 29.7952 21.456Z" fill="#00A099"/>
<path d="M40.5285 23.184C41.4969 25.6959 41.852 29.504 40.8513 32.384C39.2856 36.88 34.266 37.984 31.0863 36.5119C28.4878 35.328 27.4871 31.8559 27.4871 31.8559C28.2618 31.552 29.311 30.928 29.9565 30.224C31.6029 28.432 32.5068 25.504 33.5559 21.7439C34.0401 19.968 34.4759 18.2559 35.0085 16.1279C35.0085 16.1279 38.7369 18.576 40.5285 23.184Z" fill="#00A099"/>
<path d="M45.3059 0.751953H4.89052C2.17894 0.751953 0 2.92796 0 5.59996V45.648C0 48.3359 2.19509 50.4959 4.89052 50.4959H45.3059C48.0175 50.4959 50.1965 48.32 50.1965 45.648V5.59996C50.1965 2.92796 48.0014 0.751953 45.3059 0.751953ZM44.2245 33.36C43.7887 34.656 42.4975 36.7999 40.6252 38.272C38.6561 39.824 37.4456 40.2239 34.7017 40.4639C31.9417 40.7199 29.6983 40.288 27.1642 38.0479C25.9052 36.944 24.9207 35.424 24.4849 34.0959C24.0491 32.8 23.9523 31.8079 23.9523 31.8079C22.6449 31.712 21.4506 30.8959 20.5144 29.552C18.7874 27.0719 17.7383 23.008 16.9958 20.048C16.3986 17.7119 15.882 16.192 15.882 16.192C15.882 16.192 10.9593 19.6319 9.81333 25.2799C9.24842 28.096 9.65193 33.072 12.0568 36.656C13.4449 38.7199 16.2694 40.976 18.642 42.16C20.1432 42.912 21.7087 43.2479 22.0961 43.3279C22.7741 42.192 24.033 41.408 25.4694 41.408C27.6484 41.408 29.4077 43.152 29.4077 45.312C29.4077 47.4559 27.6484 49.1999 25.4694 49.1999C23.8232 49.1999 22.4028 48.176 21.8217 46.7519C16.447 45.7439 11.7825 42.48 9.08702 38.4C6.60141 34.6399 5.71368 30.128 6.11719 26.304C6.56912 22.048 8.7642 18.3839 10.927 15.9679C12.9768 13.6799 14.9136 12.688 14.9136 12.688C12.6056 2.65594 22.7256 3.02395 22.7256 3.02395L22.661 6.55996C19.4168 6.54396 17.8835 7.80795 18.1417 10.9279C23.4842 9.13595 27.842 9.13595 33.0554 11.0239C33.5881 8.39995 32.2968 6.86396 28.3264 6.49596L28.52 3.11996C33.0877 3.27996 35.5249 5.31196 36.2835 7.85596C36.9614 10.112 36.1544 12.608 36.1544 12.608C38.64 14.56 41.1094 16.816 42.5459 19.184C45.3867 23.936 45.6126 29.1999 44.2245 33.36Z" fill="#00A099"/>
<path d="M68.3463 20.0526H64.1687V29.288H58.9248V4.05941H68.3813C71.3876 4.05941 73.7067 4.72363 75.3379 6.05205C76.9694 7.38048 77.7851 9.25761 77.7851 11.6835C77.7851 13.4046 77.4063 14.8429 76.649 15.9979C75.9032 17.1416 74.7671 18.054 73.2406 18.7357L78.7464 29.0454V29.288H73.1182L68.3463 20.0526ZM64.1687 15.8421H68.3987C69.7154 15.8421 70.7351 15.5128 71.4576 14.8544C72.1801 14.1844 72.5413 13.2661 72.5413 12.0993C72.5413 10.9095 72.1976 9.97381 71.5101 9.29228C70.8342 8.61072 69.7912 8.26996 68.3813 8.26996H64.1687V15.8421ZM103.604 12.5844C104.944 10.9904 106.628 10.1933 108.656 10.1933C112.758 10.1933 114.838 12.5555 114.896 17.2801V29.288H109.845V17.4189C109.845 16.3445 109.611 15.5533 109.145 15.0449C108.679 14.5251 107.904 14.2652 106.82 14.2652C105.34 14.2652 104.268 14.8312 103.604 15.9633V29.288H98.5526V2.67322H103.604V12.5844ZM128.592 29.288C128.359 28.8376 128.19 28.2772 128.085 27.6073C126.861 28.9589 125.271 29.6346 123.313 29.6346C121.461 29.6346 119.922 29.1032 118.699 28.0405C117.487 26.9778 116.88 25.6377 116.88 24.0204C116.88 22.0336 117.621 20.5088 119.1 19.4461C120.592 18.3833 122.742 17.8463 125.55 17.8348H127.876V16.7604C127.876 15.8941 127.648 15.2009 127.193 14.6811C126.751 14.1612 126.045 13.9012 125.078 13.9012C124.228 13.9012 123.558 14.1035 123.069 14.5079C122.591 14.9121 122.352 15.4665 122.352 16.1712H117.3C117.3 15.0854 117.638 14.0805 118.314 13.1563C118.99 12.2321 119.946 11.5101 121.18 10.9904C122.416 10.459 123.802 10.1933 125.341 10.1933C127.672 10.1933 129.518 10.7766 130.882 11.9434C132.256 13.0986 132.944 14.7274 132.944 16.8296V24.9561C132.956 26.7352 133.206 28.081 133.696 28.9934V29.288H128.592ZM124.415 25.8053C125.16 25.8053 125.848 25.6435 126.477 25.32C127.107 24.9851 127.572 24.5403 127.876 23.9859V20.763H125.987C123.458 20.763 122.113 21.6293 121.95 23.362L121.933 23.6567C121.933 24.2804 122.154 24.7944 122.596 25.1987C123.039 25.603 123.646 25.8053 124.415 25.8053Z" fill="#00A099"/>
<path d="M89.0866 29.6346C86.3132 29.6346 84.0525 28.7914 82.3046 27.1049C80.5682 25.4183 79.7002 23.1716 79.7002 20.3646V19.8794C79.7002 17.9963 80.0672 16.3157 80.8012 14.8371C81.5355 13.347 82.5725 12.2033 83.9126 11.4063C85.2643 10.5977 86.8026 10.1934 88.5272 10.1934C91.1141 10.1934 93.1475 11.002 94.6274 12.6192C96.1192 14.2364 96.8648 16.5294 96.8648 19.4981V21.5427H84.8215C84.9847 22.7673 85.4741 23.7492 86.2898 24.4884C87.1172 25.2278 88.1602 25.5973 89.4186 25.5973C91.3646 25.5973 92.8853 24.8984 93.9807 23.5007L96.4627 26.2557C95.7055 27.3186 94.6799 28.1503 93.3864 28.7509C92.0929 29.3401 90.6596 29.6346 89.0866 29.6346ZM88.5098 14.2479C87.5076 14.2479 86.6919 14.5829 86.0626 15.2531C85.4451 15.923 85.0488 16.8817 84.874 18.1293H91.9007V17.7308C91.8774 16.6218 91.5745 15.767 90.9918 15.1663C90.4091 14.5542 89.5818 14.2479 88.5098 14.2479Z" fill="#D33A5C"/>
<path d="M70.0491 35.0336H58.7671V46.2336H70.0491V35.0336Z" fill="#00A099"/>
<path d="M77.9362 35.1002L80.4362 42.0974L82.9227 35.1002H85.5565V44.748H83.5444V42.1107L83.7449 37.5583L81.1181 44.748H79.741L77.1208 37.5651L77.3212 42.1107V44.748H75.3159V35.1002H77.9362ZM94.9429 40.5667H91.0928V43.151H95.6115V44.748H89.0873V35.1002H95.5981V36.7102H91.0928V39.0096H94.9429V40.5667ZM98.5676 44.748V35.1002H101.562C102.418 35.1002 103.182 35.2924 103.855 35.6766C104.532 36.0564 105.06 36.5998 105.439 37.3065C105.818 38.009 106.007 38.8087 106.007 39.7053V40.1493C106.007 41.0461 105.82 41.8434 105.446 42.5414C105.076 43.2393 104.552 43.7804 103.875 44.1648C103.198 44.5491 102.433 44.7435 101.582 44.748H98.5676ZM100.573 36.7102V43.151H101.542C102.326 43.151 102.926 42.897 103.34 42.3889C103.755 41.881 103.966 41.1542 103.975 40.2089V39.6988C103.975 38.7181 103.77 37.9758 103.36 37.4723C102.95 36.9643 102.351 36.7102 101.562 36.7102H100.573ZM111.384 44.748H109.378V35.1002H111.384V44.748ZM122.668 41.5342C122.592 42.5722 122.205 43.3895 121.505 43.9859C120.81 44.5822 119.891 44.8805 118.751 44.8805C117.504 44.8805 116.52 44.4653 115.803 43.6347C115.09 42.7998 114.734 41.6556 114.734 40.2024V39.6127C114.734 38.685 114.898 37.8677 115.228 37.1608C115.558 36.4541 116.028 35.9129 116.639 35.5374C117.254 35.1574 117.967 34.9675 118.778 34.9675C119.901 34.9675 120.805 35.2657 121.492 35.862C122.178 36.4584 122.575 37.2955 122.681 38.3734H120.677C120.627 37.7505 120.451 37.3 120.148 37.0218C119.85 36.7391 119.393 36.5976 118.778 36.5976C118.109 36.5976 117.608 36.8361 117.274 37.3133C116.944 37.7859 116.774 38.5214 116.766 39.5198V40.2486C116.766 41.2912 116.924 42.0532 117.241 42.5347C117.561 43.0164 118.065 43.2571 118.751 43.2571C119.37 43.2571 119.832 43.1179 120.135 42.8396C120.442 42.5568 120.619 42.1217 120.662 41.5342H122.668ZM131.259 42.76H127.743L127.075 44.748H124.943L128.566 35.1002H130.423L134.067 44.748H131.935L131.259 42.76ZM128.284 41.1499H130.718L129.494 37.5385L128.284 41.1499Z" fill="#D33A5C"/>
</svg>
