<svg width="59" height="57" viewBox="0 0 59 57" fill="none" xmlns="http://www.w3.org/2000/svg">
<path d="M53.6465 24.7167C51.3996 24.7167 49.4335 26.1211 48.8717 28.0872C48.5908 28.0872 43.2543 26.6828 39.0412 29.7724C36.2325 32.0194 34.5472 35.9516 34.5472 41.2882C34.5472 45.7821 33.7046 49.1526 32.0194 51.3996C30.3342 53.6465 28.6489 54.2083 27.2446 54.2083C24.4359 54.2083 21.0654 51.6804 21.0654 48.0291C21.0654 44.6586 21.0654 42.1308 20.7845 40.4456C20.7845 40.1647 20.7845 40.1647 20.7845 39.8838C24.4359 39.6029 28.0872 37.9177 31.1768 35.109C32.0194 34.2664 32.3003 33.1429 32.0194 32.0194C35.9516 27.2446 38.7603 20.5037 38.7603 14.8862C38.7603 8.70703 35.6707 4.77482 29.4915 2.80872C29.2107 1.12349 27.8063 0 26.1211 0C24.155 0 22.4698 1.68523 22.4698 3.65134C22.4698 5.61744 24.155 7.30267 26.1211 7.30267C27.2446 7.30267 28.3681 6.74093 28.9298 5.89831C33.7046 7.30267 35.6707 10.1114 35.6707 14.8862C35.6707 19.9419 33.4238 25.8402 29.7724 30.0533C28.9298 29.7724 27.8063 30.0533 26.9637 30.8959C25.2785 32.3003 23.0315 34.2664 19.9419 34.2664C19.661 34.2664 19.3802 34.2664 19.3802 34.2664C19.0993 34.2664 18.8184 34.2664 18.8184 34.2664C16.0097 34.2664 13.4819 32.5811 11.7966 30.8959C10.954 30.0533 10.1114 30.0533 8.9879 30.0533C5.61744 25.8402 3.08959 19.9419 3.08959 14.8862C3.08959 10.1114 5.33657 7.30267 9.83052 5.89831C10.3923 6.74093 11.5157 7.30267 12.6392 7.30267C14.6053 7.30267 16.2906 5.61744 16.2906 3.65134C16.2906 1.68523 14.6053 0 12.6392 0C10.954 0 9.54964 1.12349 9.26877 2.80872C3.08959 4.49395 0 8.42616 0 14.8862C0 20.5037 2.52785 27.2446 6.74093 32.0194C6.46005 33.1429 6.74093 34.2664 7.58354 35.109C10.954 38.1986 14.8862 40.1647 18.8184 40.1647C18.8184 41.0073 19.0993 42.9734 19.0993 48.0291C19.0993 52.523 22.7506 56.4552 27.2446 56.4552C29.7724 56.4552 32.0194 55.0509 33.7046 52.8039C35.6707 50.2761 36.5133 46.3439 36.5133 41.2882C36.5133 36.5133 37.6368 33.4238 40.1647 31.4577C43.5351 28.9298 48.0291 30.0533 48.0291 30.0533H48.31C48.5908 32.5811 50.8378 34.5472 53.3657 34.5472C56.1744 34.5472 58.4214 32.3003 58.4214 29.4916C58.7022 26.9637 56.4552 24.7167 53.6465 24.7167ZM53.6465 33.7046C51.3996 33.7046 49.7143 32.0194 49.7143 29.7724C49.7143 27.5254 51.3996 25.8402 53.6465 25.8402C55.8935 25.8402 57.5787 27.5254 57.5787 29.7724C57.5787 32.0194 55.6126 33.7046 53.6465 33.7046Z" fill="#00A099"/>
<path d="M53.6467 26.9636C51.9615 26.9636 50.838 28.368 50.838 29.7723C50.838 31.4576 52.2424 32.5811 53.6467 32.5811C55.332 32.5811 56.4554 31.1767 56.4554 29.7723C56.4554 28.368 55.0511 26.9636 53.6467 26.9636Z" fill="#00A099"/>
</svg>
