<svg width="23" height="23" viewBox="0 0 23 23" fill="none" xmlns="http://www.w3.org/2000/svg">
<path d="M11.5 0.359375C5.14718 0.359375 0.5 5.10313 0.5 11.2574C0.5 17.4117 5.14718 22.6406 11.5 22.6406C17.8528 22.6406 22.5 17.4117 22.5 11.2574C22.5 5.10313 17.8528 0.359375 11.5 0.359375ZM17.148 7.9916L15.2607 16.6076C15.1216 17.2186 14.746 17.3668 14.222 17.0793L11.347 15.0264L9.96048 16.3201C9.80746 16.4684 9.67762 16.5941 9.38085 16.5941L9.58488 13.7596L14.9129 9.09668C15.1448 8.89902 14.8619 8.78672 14.5558 8.98438L7.97117 13.0004L5.13327 12.1424C4.51653 11.9537 4.50262 11.5449 5.2631 11.2574L16.3504 7.11562C16.8651 6.93594 17.3149 7.23691 17.148 7.9916Z" fill="#131313"/>
</svg>
