<svg width="23" height="23" viewBox="0 0 23 23" fill="none" xmlns="http://www.w3.org/2000/svg">
<path d="M11.5 20.7C13.94 20.7 16.28 19.7307 18.0054 18.0054C19.7307 16.28 20.7 13.94 20.7 11.5C20.7 9.06001 19.7307 6.71995 18.0054 4.99462C16.28 3.26928 13.94 2.3 11.5 2.3C9.06001 2.3 6.71995 3.26928 4.99462 4.99462C3.26928 6.71995 2.3 9.06001 2.3 11.5C2.3 13.94 3.26928 16.28 4.99462 18.0054C6.71995 19.7307 9.06001 20.7 11.5 20.7ZM11.5 23C5.14855 23 0 17.8514 0 11.5C0 5.14855 5.14855 0 11.5 0C17.8514 0 23 5.14855 23 11.5C23 17.8514 17.8514 23 11.5 23Z" fill="#131313"/>
<path d="M14.9922 10.9288C15.0037 9.49895 13.824 8.18795 12.3625 8.00682L12.2667 7.99245C12.1934 7.97789 12.119 7.96956 12.0443 7.96753C11.7444 7.96753 11.6648 8.18411 11.6438 8.31349C11.6318 8.36722 11.6307 8.4228 11.6406 8.47695C11.6505 8.5311 11.6711 8.58273 11.7013 8.62878C11.8009 8.76774 11.9753 8.7917 12.1153 8.81278C12.1565 8.81853 12.1958 8.82332 12.2274 8.83195C13.5413 9.13382 13.984 9.61011 14.1996 10.9547C14.2054 10.9882 14.2073 11.0284 14.2092 11.0716C14.2188 11.2316 14.2389 11.5661 14.5878 11.5661C14.6165 11.5661 14.6472 11.5642 14.6798 11.5584C15.0046 11.5076 14.9941 11.2019 14.9893 11.0553C14.9869 11.0199 14.9869 10.9843 14.9893 10.9489C14.9904 10.9426 14.991 10.9362 14.9912 10.9297L14.9922 10.9288Z" fill="#131313"/>
<path d="M11.96 7.48169C11.9983 7.48456 12.0367 7.48744 12.0664 7.49223C14.2226 7.83531 15.2155 8.88948 15.4905 11.1339C15.4953 11.1722 15.4953 11.2182 15.4962 11.2681C15.4991 11.4434 15.5049 11.8076 15.8844 11.8153H15.8959C15.948 11.818 16.0001 11.8096 16.0487 11.7906C16.0973 11.7716 16.1412 11.7424 16.1776 11.7051C16.2955 11.5776 16.2878 11.3888 16.2811 11.2355C16.2792 11.1991 16.2773 11.1636 16.2782 11.1329C16.3051 8.83773 14.3807 6.75623 12.1593 6.67956L12.1325 6.68052C12.1239 6.68178 12.1153 6.68242 12.1066 6.68244C12.0846 6.68244 12.0568 6.68052 12.028 6.6786C11.9898 6.67511 11.9514 6.67319 11.913 6.67285C11.5594 6.67285 11.4923 6.9316 11.4837 7.08685C11.4645 7.44431 11.799 7.47019 11.96 7.48169ZM15.386 14.0338C15.3399 13.9977 15.2942 13.9609 15.249 13.9236C15.0132 13.7281 14.7622 13.5479 14.5207 13.3735C14.4701 13.3372 14.4197 13.3008 14.3692 13.2643C14.0587 13.04 13.7799 12.9298 13.5163 12.9298C13.1617 12.9298 12.8522 13.133 12.5963 13.5326C12.4832 13.7089 12.3452 13.7952 12.1766 13.7952C12.0588 13.791 11.9434 13.7612 11.8383 13.708C10.8368 13.2384 10.121 12.5196 9.71175 11.5709C9.51433 11.1109 9.57758 10.8119 9.92641 10.5675C10.1238 10.4295 10.4918 10.1717 10.466 9.67819C10.4372 9.11756 9.23833 7.43089 8.73329 7.23923C8.51785 7.15792 8.28028 7.15724 8.06437 7.23731C7.48458 7.43856 7.06771 7.79314 6.85975 8.25985C6.6585 8.71219 6.66808 9.24214 6.88658 9.79414C7.51621 11.3907 8.40075 12.7822 9.51817 13.9303C10.6107 15.0544 11.9542 15.9744 13.5106 16.6664C13.6505 16.7286 13.7981 16.7622 13.9054 16.7871L13.9965 16.8101C14.0089 16.8137 14.0218 16.8156 14.0348 16.8159H14.0472C14.7794 16.8159 15.6582 16.1259 15.9285 15.3381C16.1652 14.6481 15.733 14.3079 15.386 14.0348V14.0338ZM12.2839 9.30539C12.1593 9.30827 11.8977 9.31498 11.8057 9.58906C11.7635 9.71748 11.7683 9.82864 11.821 9.91969C11.8987 10.0539 12.0482 10.0951 12.1833 10.1171C12.674 10.1986 12.927 10.4794 12.9768 10.9988C13.0007 11.2422 13.1589 11.4109 13.362 11.4109C13.3774 11.4112 13.3928 11.4105 13.408 11.4089C13.6524 11.3783 13.7703 11.1933 13.7597 10.8579C13.7636 10.5071 13.5863 10.1104 13.2844 9.79414C12.9816 9.47598 12.6165 9.29677 12.2839 9.30539Z" fill="#131313"/>
</svg>
