<svg width="23" height="23" viewBox="0 0 23 23" fill="none" xmlns="http://www.w3.org/2000/svg">
<path d="M14.7493 12.6589C14.8791 12.6589 15.3658 12.8768 16.2093 13.3127C17.0528 13.7485 17.4996 14.011 17.5495 14.1001C17.5694 14.1497 17.5794 14.2239 17.5794 14.323C17.5794 14.6499 17.4946 15.0263 17.3249 15.4522C17.1651 15.8385 16.8108 16.1629 16.2617 16.4254C15.7127 16.6879 15.2036 16.8191 14.7344 16.8191C14.1654 16.8191 13.217 16.5121 11.8893 15.8979C10.911 15.4522 10.0625 14.8678 9.34375 14.1447C8.625 13.4216 7.88628 12.5054 7.1276 11.396C6.40885 10.3361 6.05447 9.37532 6.06445 8.51357V8.3947C6.0944 7.49332 6.46376 6.71081 7.17253 6.04716C7.41211 5.82924 7.67166 5.72028 7.95117 5.72028C8.01107 5.72028 8.10091 5.72771 8.2207 5.74257C8.34049 5.75743 8.43533 5.76486 8.50521 5.76486C8.69488 5.76486 8.82715 5.79705 8.90202 5.86143C8.97689 5.92582 9.05425 6.06202 9.13411 6.27003C9.21397 6.46813 9.37869 6.90396 9.62825 7.57752C9.87782 8.25108 10.0026 8.62252 10.0026 8.69186C10.0026 8.89987 9.8304 9.18465 9.486 9.54619C9.1416 9.90773 8.9694 10.138 8.9694 10.2371C8.9694 10.3064 8.99436 10.3807 9.04427 10.4599C9.38368 11.183 9.89279 11.8615 10.5716 12.4955C11.1306 13.0205 11.8843 13.5207 12.8327 13.9961C12.9525 14.0655 13.0623 14.1001 13.1621 14.1001C13.3118 14.1001 13.5814 13.8599 13.9707 13.3795C14.36 12.8991 14.6196 12.6589 14.7493 12.6589ZM11.7096 20.5336C12.9774 20.5336 14.1928 20.286 15.3558 19.7907C16.5188 19.2954 17.5195 18.6318 18.3581 17.7997C19.1966 16.9677 19.8654 15.9747 20.3646 14.8207C20.8637 13.6668 21.1133 12.4608 21.1133 11.2028C21.1133 9.94487 20.8637 8.73891 20.3646 7.58495C19.8654 6.43099 19.1966 5.43798 18.3581 4.60594C17.5195 3.7739 16.5188 3.11025 15.3558 2.61499C14.1928 2.11972 12.9774 1.87209 11.7096 1.87209C10.4418 1.87209 9.22645 2.11972 8.06348 2.61499C6.9005 3.11025 5.89974 3.7739 5.0612 4.60594C4.22266 5.43798 3.55382 6.43099 3.05469 7.58495C2.55556 8.73891 2.30599 9.94487 2.30599 11.2028C2.30599 13.2136 2.90495 15.0362 4.10286 16.6705L2.91992 20.1324L6.54362 18.9884C8.12088 20.0185 9.84288 20.5336 11.7096 20.5336ZM11.7096 0C13.237 0 14.6969 0.297158 16.0895 0.891473C17.4821 1.48579 18.6825 2.28316 19.6908 3.28359C20.699 4.28402 21.5026 5.47513 22.1016 6.85691C22.7005 8.23869 23 9.68734 23 11.2028C23 12.7183 22.7005 14.167 22.1016 15.5488C21.5026 16.9306 20.699 18.1217 19.6908 19.1221C18.6825 20.1225 17.4821 20.9199 16.0895 21.5142C14.6969 22.1085 13.237 22.4057 11.7096 22.4057C9.76302 22.4057 7.94119 21.9401 6.24414 21.009L0 23L2.03646 16.9826C0.958333 15.2194 0.419271 13.2929 0.419271 11.2028C0.419271 9.68734 0.71875 8.23869 1.31771 6.85691C1.91667 5.47513 2.72027 4.28402 3.72852 3.28359C4.73676 2.28316 5.93717 1.48579 7.32975 0.891473C8.72233 0.297158 10.1823 0 11.7096 0Z" fill="#131313"/>
</svg>
