<svg xmlns="http://www.w3.org/2000/svg" viewBox="0 0 156.96 106.5"><defs><style>.cls-1{isolation:isolate;}.cls-2{opacity:0.73;mix-blend-mode:overlay;}.cls-3{fill:#fafeff;}.cls-4{opacity:0.38;}</style></defs><g class="cls-1"><g id="Слой_2" data-name="Слой 2"><g id="Layer_1" data-name="Layer 1"><g class="cls-2"><polygon class="cls-3" points="153.25 33.75 156.97 31.66 156.97 30.83 153.25 32.93 147.07 29.44 147.07 22.46 153.25 18.98 156.97 21.07 156.97 20.23 153.25 18.13 146.33 22.04 146.33 29.87 153.25 33.75"/><polygon class="cls-3" points="122.88 0 124.47 1.21 123.61 8.22 117.12 10.92 111.49 6.62 112.29 0 111.56 0 110.7 6.94 117.02 11.75 124.28 8.73 125.25 0.9 124.07 0 122.88 0"/><polygon class="cls-3" points="147.07 22.41 147.31 22.05 124.11 8.12 123.89 8.5 147.07 22.41"/><path class="cls-3" d="M151,62.86l5.2-2.1.72-4.82v-.78l-4.26-3.32-5.22,2.09-.82,5.51ZM148,54.31l4.65-1.89,3.92,3-.74,4.92-4.65,1.88-3.91-3Z"/><polygon class="cls-3" points="153.39 33.18 153.06 33.17 152.37 52.15 152.69 52.16 153.39 33.18"/><path class="cls-3" d="M131.79,40.3,127,37.41,122,40l-.15,5.53,4.81,2.88,5-2.62ZM127,38l4.31,2.56-.12,4.94-4.43,2.35-4.3-2.56.12-4.94Z"/><polygon class="cls-3" points="147.3 29.71 147.13 29.45 131.35 40.23 131.52 40.48 147.3 29.71"/><polygon class="cls-3" points="149.98 93.81 156.97 93.15 156.97 92.33 150.39 92.95 145.79 86.47 149.07 79.26 156.94 78.51 156.97 78.55 156.97 77.68 148.52 78.48 144.84 86.56 149.98 93.81"/><path class="cls-3" d="M136.17,64.23l2.5-5.23-3.27-4.8-5.78.44-2.5,5.22,3.27,4.81Zm1.88-5.18-2.24,4.67-5.15.39-2.92-4.29L130,55.14l5.15-.38Z"/><polygon class="cls-3" points="148.83 79.03 149.08 78.81 136.19 63.77 135.94 63.98 148.83 79.03"/><path class="cls-3" d="M145.29,101.54l-2.92-.4-1.83,2.26,1.08,2.69,2.91.41,1.83-2.28Zm-2.79-.12,2.59.36,1,2.39-1.64,2-2.59-.36-1-2.39Z"/><polygon class="cls-3" points="150.54 93.29 150.39 93.21 145.06 101.6 145.2 101.68 150.54 93.29"/><path class="cls-3" d="M132.89,87.21l-1.81-3.36-3.85-.17-2,3.2L127,90.25l3.85.17Zm-2-3,1.62,3-1.82,2.84-3.44-.15-1.62-3L127.42,84Z"/><polygon class="cls-3" points="145.76 86.38 145.74 86.17 132.65 87.03 132.66 87.23 145.76 86.38"/><path class="cls-3" d="M55.28,21.81l-1.77,8.64,6.6,5.9,8.37-2.72L70.24,25l-6.6-5.9Zm-.87,8.35L56,22.44,63.44,20l5.9,5.28L67.76,33l-7.45,2.42Z"/><path class="cls-3" d="M74.5,38.6,73.76,41l1.72,1.86,2.45-.57.74-2.41L77,38.05ZM74,41l.67-2.14,2.19-.51L78.41,40l-.66,2.15-2.19.5Z"/><polygon class="cls-3" points="68.08 33.05 67.98 33.15 74.51 38.81 74.6 38.7 68.08 33.05"/><path class="cls-3" d="M72.86,50.64l-2.53.26-1.07,2.29,1.47,2L73.26,55l1.06-2.29Zm-2.38.47,2.27-.23,1.3,1.81-1,2L70.84,55l-1.31-1.81Z"/><polygon class="cls-3" points="75.55 42.62 75.4 42.57 72.68 50.72 72.81 50.78 75.55 42.62"/><path class="cls-3" d="M84.39,38.8l1,1.46,1.79-.14L88,38.53l-1-1.46-1.79.14Zm1.11,1.29-.92-1.31.68-1.41,1.61-.13.92,1.29L87.11,40Z"/><polygon class="cls-3" points="78.47 39.91 78.5 40 84.52 38.88 84.5 38.78 78.47 39.91"/><path class="cls-3" d="M82.24,46.08l-.57,1.68,1.19,1.34,1.75-.34.56-1.68L84,45.73Zm-.37,1.65.5-1.51,1.57-.32,1,1.21-.5,1.51-1.57.32Z"/><polygon class="cls-3" points="77.81 42.04 77.76 42.11 82.26 46.22 82.32 46.13 77.81 42.04"/><path class="cls-3" d="M40.13,10.71,41.4,5.09,37.16,1.15,31.65,2.83,30.39,8.44l4.24,4Zm.68-5.45-1.14,5-4.91,1.5L31,8.27l1.13-5L37,1.74Z"/><polygon class="cls-3" points="55.7 22.27 55.89 22.02 40.06 10.26 39.85 10.52 55.7 22.27"/><path class="cls-3" d="M83.86,18.13l3.58,3,4.4-1.52.83-4.52-3.58-3-4.4,1.52Zm3.65,2.51L84.32,18l.75-4L89,12.58l3.2,2.67-.76,4Z"/><polygon class="cls-3" points="69.74 24.85 69.85 25.08 84.21 18.25 84.09 18.02 69.74 24.85"/><path class="cls-3" d="M57.28,44.86l-2.91.26-1.27,2.6,1.65,2.37,2.9-.25,1.27-2.61Zm-2.74.51,2.61-.21,1.47,2.09-1.14,2.34-2.61.21-1.46-2.1Z"/><polygon class="cls-3" points="60.54 35.73 60.38 35.67 57.07 44.98 57.23 45.02 60.54 35.73"/><path class="cls-3" d="M42.07,33.71l-2.5-2.87-3.77.66-1.27,3.55L37,37.93l3.77-.69Zm-2.64-2.5,2.23,2.57L40.54,37l-3.37.61L34.93,35l1.14-3.16Z"/><polygon class="cls-3" points="54.37 30.08 54.3 29.87 41.79 33.56 41.85 33.78 54.37 30.08"/><path class="cls-3" d="M67.15,7.93,71,7.47,72.47,4,70.2,1l-3.8.47L64.88,4.93Zm3.55-.8-3.38.43-2-2.68,1.36-3.12,3.4-.4,2,2.67Z"/><polygon class="cls-3" points="63.37 20.08 63.58 20.13 67.41 7.79 67.21 7.72 63.37 20.08"/><path class="cls-3" d="M13.86,21.79l-1.94,5L15.29,31l5.33-.81,1.94-5L19.19,21Zm-1.37,4.94,1.73-4.49L19,21.52l3,3.76-1.74,4.51-4.75.72Z"/><path class="cls-3" d="M23.74,33.84l-.69,1.38.85,1.3,1.53-.1.7-1.37-.85-1.3Zm-.53,1.37L23.83,34l1.36-.07L26,35.05l-.63,1.24L24,36.36Z"/><polygon class="cls-3" points="20.43 29.84 20.36 29.9 23.73 33.96 23.79 33.91 20.43 29.84"/><path class="cls-3" d="M21.52,40.92,20,40.83l-.87,1.28.68,1.37,1.55.09.87-1.27ZM20,41l1.39.09.6,1.23-.78,1.12-1.39-.07-.6-1.23Z"/><polygon class="cls-3" points="23.96 36.36 23.88 36.32 21.41 40.97 21.48 41 23.96 36.36"/><path class="cls-3" d="M29.69,35l.47,1,1.09.1.62-.88-.47-1-1.09-.1Zm.53.89L29.8,35l.56-.78,1,.08.43.88-.56.79Z"/><polygon class="cls-3" points="26 35.01 26.01 35.09 29.75 35.01 29.76 34.95 26 35.01"/><path class="cls-3" d="M27.65,39.13l-.51,1,.58.91,1.08,0,.51-1-.58-.91Zm-.4,1,.47-.86,1,0,.52.83-.46.86-1,0Z"/><polygon class="cls-3" points="25.39 36.25 25.34 36.29 27.65 39.2 27.69 39.16 25.39 36.25"/><path class="cls-3" d="M5.86,13.57,7.2,10.31,5,7.52,1.55,8,.22,11.24,2.37,14Zm1-3.21L5.63,13.28l-3.11.41L.59,11.18,1.78,8.27,4.9,7.86Z"/><polygon class="cls-3" points="14.07 22.11 14.21 21.97 5.86 13.3 5.71 13.43 14.07 22.11"/><path class="cls-3" d="M31.46,22.44l1.85,2.16,2.83-.49,1-2.64-1.86-2.16-2.81.48Zm2,1.86-1.65-1.92L32.62,20l2.53-.43,1.64,1.92-.86,2.37Z"/><polygon class="cls-3" points="22.28 25.07 22.32 25.22 31.67 22.54 31.62 22.38 22.28 25.07"/><path class="cls-3" d="M12.72,35.89l-1.78-.14-1,1.44.75,1.59,1.78.15,1-1.45Zm-1.7,0,1.6.13.65,1.41-.91,1.29-1.59-.11-.67-1.43Z"/><polygon class="cls-3" points="15.61 30.71 15.53 30.66 12.58 35.93 12.67 35.98 15.61 30.71"/><path class="cls-3" d="M4.69,27.63l-1.23-2-2.33.05L0,27.69l1.22,2,2.34,0ZM3.34,25.87l1.09,1.77-1,1.8-2.09,0L.25,27.69l1-1.79Z"/><polygon class="cls-3" points="12.46 26.68 12.45 26.56 4.54 27.53 4.55 27.65 12.46 26.68"/><path class="cls-3" d="M22.43,14.61l2.34.1,1.28-2-1.06-2-2.35-.1-1.27,2Zm2.23-.12-2.09-.08-.95-1.84,1.15-1.74,2.08.09.95,1.83Z"/><polygon class="cls-3" points="18.92 21.56 19.05 21.62 22.61 14.55 22.5 14.49 18.92 21.56"/><g class="cls-4"><path class="cls-3" d="M97.1,4.17,94,3.8,92.08,6.26,93.29,9.1l3.11.38L98.31,7Zm-3-.06,2.78.33L98,7,96.26,9.17l-2.77-.34L92.41,6.3Z"/><polygon class="cls-3" points="99.45 0 96.86 4.25 97.01 4.33 99.66 0 99.45 0"/><path class="cls-3" d="M109.63,1.25,108.5,3.13l1,1.92,2.2.06,1.14-1.88-1-1.93Zm-.91,1.88,1-1.68,2,.05.94,1.73-1,1.68-2-.06Z"/></g><g class="cls-4"><path class="cls-3" d="M134.36,7.16,123.71,2.41l-9.53,6.67,1.09,11.4,10.63,4.75,9.55-6.65ZM123.83,3.65l9.51,4.25,1,10.17L125.78,24l-9.5-4.25-1-10.16Z"/><path class="cls-3" d="M107.07,26.65,104.16,25l-2.9,1.64V30l2.9,1.62L107.07,30Zm-2.91-1.27,2.6,1.46v2.92l-2.6,1.47-2.58-1.47V26.84Z"/><polygon class="cls-3" points="116.11 20.13 116 19.99 106.8 26.62 106.92 26.77 116.11 20.13"/><path class="cls-3" d="M92,21.07l.4-3.3-2.65-2-3,1.27-.41,3.28,2.65,2Zm.06-3.15-.35,2.93L89,22,86.64,20.2,87,17.25l2.71-1.13Z"/><polygon class="cls-3" points="101.59 26.81 101.68 26.66 91.94 20.82 91.84 20.97 101.59 26.81"/><path class="cls-3" d="M103.94,39.16l-2.19.88-.35,2.31,1.84,1.44,2.18-.88.36-2.31Zm-2,1,2-.8,1.65,1.29-.32,2.07-2,.79-1.65-1.28Z"/><polygon class="cls-3" points="104.23 31.32 104.09 31.32 103.81 39.29 103.93 39.3 104.23 31.32"/><path class="cls-3" d="M95.17,34.31l-2-1.21-2.08,1.1L91,36.54l2,1.19,2.08-1.09Zm-2-1,1.79,1.09-.06,2.06-1.86,1-1.8-1.08.07-2.07Z"/><polygon class="cls-3" points="101.67 29.87 101.59 29.77 94.98 34.28 95.05 34.39 101.67 29.87"/><polygon class="cls-3" points="142.65 0 133.65 7.58 133.93 7.9 143.31 0 142.65 0"/><path class="cls-3" d="M130.77,44.49l-4.89,3.66.69,6.06,5.59,2.36,4.89-3.66-.69-6Zm-4.29,3.92,4.36-3.27,5,2.11.61,5.41-4.37,3.27-5-2.12Z"/><polygon class="cls-3" points="126.22 24.64 125.89 24.71 130.52 44.91 130.86 44.83 126.22 24.64"/><polygon class="cls-3" points="104.06 0 103.68 2.75 100.53 3.98 97.86 1.86 98.12 0 97.76 0 97.47 2.01 100.47 4.39 104 2.99 104.42 0 104.06 0"/><polygon class="cls-3" points="114.85 9.79 114.97 9.61 103.91 2.7 103.81 2.88 114.85 9.79"/><path class="cls-3" d="M152.37,34.19l4.57-2,0-.3v-5l-3.58-2.61-4.55,2-.51,5Zm-3.1-7.6,4-1.79,3.62,2.63-.44,4.43-4.06,1.8L148.81,31Z"/><polygon class="cls-3" points="134.24 17.96 134.11 18.19 148.94 26.67 149.07 26.41 134.24 17.96"/><path class="cls-3" d="M99.47,54.58l-2.73,6,3.81,5.37,6.54-.62,2.72-6L106,54Zm-2,5.91,2.44-5.34,5.83-.55,3.41,4.79-2.43,5.35-5.84.55Z"/><path class="cls-3" d="M110.62,69.92l-.93,1.64.93,1.61h1.89l.93-1.61-.93-1.64Zm-.74,1.64.84-1.47h1.68l.84,1.47L112.4,73h-1.68Z"/><polygon class="cls-3" points="106.9 64.84 106.81 64.89 110.61 70.07 110.69 70 106.9 64.84"/><path class="cls-3" d="M107.43,78.39l-1.88-.24-1.16,1.49.72,1.73,1.9.21,1.14-1.49Zm-1.81,0,1.69.19.64,1.53-1,1.34-1.68-.19-.64-1.56Z"/><polygon class="cls-3" points="110.72 73 110.63 72.94 107.28 78.44 107.38 78.47 110.72 73"/><path class="cls-3" d="M117.79,71.68l.5,1.23,1.33.19.81-1-.5-1.25-1.33-.19Zm.59,1.13-.45-1.11.73-.92,1.18.17L120.3,72l-.73.93Z"/><polygon class="cls-3" points="113.3 71.51 113.3 71.59 117.86 71.75 117.86 71.68 113.3 71.51"/><path class="cls-3" d="M115,76.62l-.69,1.13.63,1.17h1.33l.69-1.1-.63-1.19Zm-.54,1.13.61-1,1.18,0,.57,1-.61,1-1.19,0Z"/><polygon class="cls-3" points="112.46 72.95 112.41 73 115 76.72 115.06 76.68 112.46 72.95"/><path class="cls-3" d="M90.32,44l1.86-3.89-2.42-3.56-4.27.32-1.86,3.88,2.42,3.56Zm1.39-3.86-1.65,3.46-3.81.29-2.17-3.18,1.66-3.45,3.82-.3Z"/><polygon class="cls-3" points="99.7 54.96 99.88 54.81 90.34 43.67 90.16 43.83 99.7 54.96"/><path class="cls-3" d="M120.83,56.58,123,59.34l3.45-.4,1.36-3.13-2.1-2.76-3.45.39ZM123.08,59l-1.87-2.47,1.21-2.8,3.1-.34,1.87,2.46-1.21,2.8Z"/><polygon class="cls-3" points="109.47 59.14 109.52 59.34 121.08 56.74 121.03 56.53 109.47 59.14"/><path class="cls-3" d="M97.07,71.64l-2.15-.31L93.56,73l.81,2,2.15.29,1.35-1.68ZM95,71.56l1.92.26.72,1.77L96.43,75.1l-1.93-.26-.71-1.78Z"/><polygon class="cls-3" points="100.97 65.55 100.86 65.47 96.91 71.69 97.01 71.75 100.97 65.55"/><path class="cls-3" d="M87.9,61l-1.35-2.49-2.84-.14-1.52,2.37,1.34,2.5,2.85.12Zm-1.52-2.23L87.59,61l-1.36,2.11L83.69,63,82.5,60.8l1.34-2.11Z"/><polygon class="cls-3" points="97.43 60.42 97.41 60.26 87.71 60.9 87.73 61.05 97.43 60.42"/><path class="cls-3" d="M110.41,46.44l2.85.26,1.68-2.27-1.15-2.56L111,41.59l-1.69,2.29Zm2.72,0-2.54-.26-1-2.27,1.51-2,2.54.25,1,2.28Z"/><polygon class="cls-3" points="105.64 54.63 105.79 54.72 110.64 46.37 110.5 46.3 105.64 54.63"/><polygon class="cls-3" points="85.09 0 84.57 2.59 79.88 4.13 76.19 0.82 76.36 0 75.82 0 75.62 1 79.76 4.7 85.02 2.99 85.62 0 85.09 0"/><path class="cls-3" d="M88.77,6.12l-.45,1.51L89.4,8.8l1.54-.34.46-1.53L90.32,5.77ZM88.48,7.6l.42-1.35,1.38-.32,1,1-.42,1.37-1.37.31Z"/><polygon class="cls-3" points="84.76 2.64 84.69 2.7 88.8 6.25 88.85 6.18 84.76 2.64"/><path class="cls-3" d="M87.75,13.67l-1.58.16-.68,1.44.93,1.26L88,16.37l.67-1.43ZM86.26,14l1.42-.13L88.51,15l-.6,1.28-1.42.15-.83-1.14Z"/><polygon class="cls-3" points="89.44 8.63 89.36 8.62 87.65 13.73 87.73 13.75 89.44 8.63"/><path class="cls-3" d="M95,6.25l.64.91,1.12-.1.49-1-.65-.93-1.13.1Zm.69.8-.58-.82.43-.89,1-.08.57.82L96.7,7Z"/><polygon class="cls-3" points="91.29 6.93 91.3 6.99 95.07 6.29 95.06 6.23 91.29 6.93"/><path class="cls-3" d="M93.64,10.81l-.35,1,.74.85,1.11-.22.34-1.06-.73-.85Zm-.23,1,.32-1,1-.18.65.75-.31.94-1,.19Z"/><polygon class="cls-3" points="90.87 8.27 90.82 8.33 93.66 10.88 93.7 10.86 90.87 8.27"/><path class="cls-3" d="M78,10.05l-1.82.16-.8,1.62,1,1.49,1.82-.15.8-1.64Zm-1.71.31,1.63-.14.92,1.33L78.1,13l-1.62.14-.93-1.31Z"/><polygon class="cls-3" points="80.03 4.3 79.92 4.27 77.86 10.12 77.95 10.14 80.03 4.3"/><path class="cls-3" d="M68.44,3l-1.57-1.8-2.36.42L63.72,3.9l1.57,1.8,2.36-.44ZM66.78,1.49l1.41,1.6-.71,2-2.11.38L64,3.84l.7-2Z"/><polygon class="cls-3" points="76.15 0.77 76.1 0.65 68.27 2.95 68.3 3.09 76.15 0.77"/><path class="cls-3" d="M63.06,26.56l-.75,3.63,2.77,2.48,3.51-1.15.74-3.63-2.77-2.47Zm-.37,3.5.66-3.23,3.13-1L69,28l-.65,3.22-3.14,1Z"/><path class="cls-3" d="M71.12,33.6l-.31,1,.72.79,1-.24.31-1-.73-.77Zm-.2,1,.27-.91.93-.21.64.7-.28.91-.92.2Z"/><polygon class="cls-3" points="68.43 31.27 68.38 31.32 71.13 33.7 71.16 33.66 68.43 31.27"/><path class="cls-3" d="M70.43,38.65l-1.06.11-.44,1,.61.85,1.07-.11.44-1Zm-1,.2,1-.1.54.77-.39.86-1,.1L69,39.71Z"/><polygon class="cls-3" points="71.56 35.29 71.5 35.27 70.36 38.7 70.42 38.71 71.56 35.29"/><path class="cls-3" d="M75.28,33.69l.42.62.76-.06.32-.67L76.35,33l-.76.06Zm.46.54-.39-.55.29-.6.67,0,.39.54-.29.6Z"/><polygon class="cls-3" points="72.79 34.15 72.8 34.19 75.32 33.72 75.32 33.68 72.79 34.15"/><path class="cls-3" d="M74.36,36.75l-.22.71.49.55.74-.15.23-.7-.5-.56Zm-.15.7.22-.66.64-.11.45.5-.21.63-.65.13Z"/><polygon class="cls-3" points="72.51 35.05 72.48 35.08 74.38 36.79 74.41 36.78 72.51 35.05"/><path class="cls-3" d="M56.7,21.9l.53-2.36L55.45,17.9l-2.31.7-.52,2.34,1.77,1.67ZM57,19.62l-.48,2.1-2.06.63-1.58-1.48.47-2.09,2-.64Z"/><polygon class="cls-3" points="63.23 26.75 63.31 26.64 56.66 21.72 56.59 21.81 63.23 26.75"/><path class="cls-3" d="M75.05,25l1.5,1.27,1.84-.65.36-1.89-1.51-1.26-1.84.65Zm1.53,1.06-1.34-1.13.31-1.68,1.66-.57,1.34,1.12-.32,1.69Z"/><polygon class="cls-3" points="69.12 27.84 69.18 27.93 75.2 25.07 75.15 24.97 69.12 27.84"/><path class="cls-3" d="M63.9,36.24l-1.23.11-.53,1.08.69,1,1.22-.11.53-1.1Zm-1.15.2,1.09-.09.62.89-.48,1-1.09.09-.62-.87Z"/><polygon class="cls-3" points="65.27 32.41 65.2 32.38 63.81 36.29 63.87 36.31 65.27 32.41"/><path class="cls-3" d="M57.51,31.54l-1-1.19-1.58.28-.53,1.48,1,1.21L57,33Zm-1.1-1,.93,1.08-.46,1.33-1.42.24-.94-1.06L55,30.77Z"/><polygon class="cls-3" points="62.67 30.03 62.65 29.95 57.4 31.49 57.43 31.59 62.67 30.03"/><path class="cls-3" d="M68,20.74l1.59-.2.64-1.47-1-1.25-1.6.19-.64,1.46Zm1.49-.34-1.42.18-.86-1.12.58-1.31L69.25,18l.84,1.12Z"/><polygon class="cls-3" points="66.45 25.83 66.54 25.86 68.16 20.68 68.06 20.65 66.45 25.83"/><path class="cls-3" d="M45.67,26.56l-.82,2.11,1.43,1.77,2.24-.34L49.33,28l-1.42-1.77Zm-.57,2.06.73-1.87,2-.32L49.08,28l-.72,1.88-2,.3Z"/><path class="cls-3" d="M49.82,31.61l-.29.58.35.54.65,0,.29-.58-.35-.55Zm-.22.57.26-.51.57,0,.32.48-.26.53-.58,0Z"/><polygon class="cls-3" points="48.44 29.93 48.41 29.96 49.82 31.67 49.84 31.64 48.44 29.93"/><path class="cls-3" d="M48.9,34.58l-.66,0-.37.53.29.58.65,0,.36-.53Zm-.62,0,.57,0,.26.51-.33.48-.58,0-.26-.52Z"/><polygon class="cls-3" points="49.91 32.67 49.88 32.65 48.84 34.6 48.88 34.62 49.91 32.67"/><path class="cls-3" d="M52.32,32.07l.19.42.46,0,.27-.37-.2-.42-.46,0Zm.22.38-.18-.38.24-.33.41,0,.18.38-.23.33Z"/><polygon class="cls-3" points="50.77 32.1 50.77 32.13 52.34 32.1 52.34 32.07 50.77 32.1"/><path class="cls-3" d="M51.46,33.82l-.21.41.24.39.46,0,.21-.41-.24-.37Zm-.17.41.2-.36.41,0,.21.35-.19.36-.41,0Z"/><polygon class="cls-3" points="50.52 32.61 50.5 32.64 51.46 33.85 51.48 33.85 50.52 32.61"/><path class="cls-3" d="M42.32,23.1l.56-1.37L42,20.56l-1.47.19L40,22.12l.9,1.19Zm.41-1.34L42.23,23l-1.31.17-.81-1,.5-1.24,1.3-.17Z"/><polygon class="cls-3" points="45.76 26.69 45.83 26.64 42.32 22.99 42.25 23.04 45.76 26.69"/><path class="cls-3" d="M53.07,26.83l.77.89,1.18-.2.4-1.11-.77-.9-1.18.2Zm.82.78-.7-.8.36-1,1.06-.18.68.8-.35,1Z"/><polygon class="cls-3" points="49.2 27.92 49.22 27.98 53.15 26.86 53.13 26.81 49.2 27.92"/><path class="cls-3" d="M45.2,32.46l-.75-.06L44,33l.32.66.75,0,.43-.6Zm-.72,0,.67,0,.28.59-.39.54-.66,0L44.1,33Z"/><polygon class="cls-3" points="46.41 30.3 46.38 30.27 45.14 32.49 45.18 32.51 46.41 30.3"/><path class="cls-3" d="M41.82,29l-.5-.82h-1l-.47.85.51.83,1,0Zm-.56-.74.45.74-.41.76h-.88L40,29l.41-.75Z"/><polygon class="cls-3" points="45.09 28.6 45.08 28.55 41.76 28.96 41.77 29.01 45.09 28.6"/><path class="cls-3" d="M49.28,23.54l1,0,.54-.81-.45-.87-1,0-.53.81Zm.93-.07-.88,0-.4-.76.48-.73.88,0,.39.77Z"/><polygon class="cls-3" points="47.79 26.46 47.85 26.48 49.35 23.5 49.3 23.47 47.79 26.46"/></g><g class="cls-4"><polygon class="cls-3" points="41.1 0 42.4 1.83 40.85 5.23 37.16 5.57 34.99 2.52 36.14 0 35.72 0 34.55 2.57 36.98 5.98 41.12 5.58 42.84 1.79 41.57 0 41.1 0"/><path class="cls-3" d="M43.37,8.52l-.6,1,.6,1h1.19l.59-1-.59-1Zm-.47,1,.53-.93H44.5l.52.93-.52.92H43.43Z"/><polygon class="cls-3" points="41 5.29 40.95 5.32 43.35 8.62 43.41 8.57 41 5.29"/><path class="cls-3" d="M41.33,13.89l-1.19-.14-.73.94.45,1.09,1.21.15L41.8,15Zm-1.14,0,1.07.14.41,1-.66.84L40,15.68l-.42-1Z"/><polygon class="cls-3" points="43.42 10.48 43.37 10.44 41.24 13.92 41.3 13.96 43.42 10.48"/><path class="cls-3" d="M47.91,9.64l.33.78.83.12.53-.65-.32-.79L48.44,9Zm.38.7L48,9.65l.47-.58.75.11.29.69-.47.58Z"/><polygon class="cls-3" points="45.07 9.54 45.07 9.58 47.96 9.68 47.96 9.64 45.07 9.54"/><path class="cls-3" d="M46.16,12.77l-.45.73.4.73.85,0,.45-.74L47,12.79Zm-.36.72.39-.64.76,0,.36.65-.39.66-.76,0Z"/><polygon class="cls-3" points="44.54 10.44 44.5 10.48 46.15 12.84 46.18 12.8 44.54 10.44"/><polygon class="cls-3" points="53.83 0 53.24 1.37 51.27 1.58 50.08 0.02 50.09 0 49.87 0 49.85 0.05 51.18 1.8 53.39 1.55 54.06 0 53.83 0"/><polygon class="cls-3" points="42.63 1.68 42.66 1.8 50.01 0.13 49.97 0.02 42.63 1.68"/><path class="cls-3" d="M34.76,9.61l-1.37-.2-.86,1.08L33,11.75l1.37.19.87-1.07Zm-1.31,0,1.22.17.46,1.12-.79,1-1.22-.17-.44-1.12Z"/><polygon class="cls-3" points="37.23 5.74 37.17 5.7 34.66 9.64 34.72 9.67 37.23 5.74"/><path class="cls-3" d="M28.94,2.88l-.86-1.59-1.81-.08-1,1.5.84,1.59L28,4.39ZM28,1.45l.76,1.43-.85,1.33-1.61-.07L25.5,2.71l.86-1.32Z"/><polygon class="cls-3" points="34.98 2.49 34.98 2.38 28.82 2.79 28.82 2.89 34.98 2.49"/></g></g></g></g></g></svg>