<svg width="150" height="41" viewBox="0 0 150 41" fill="none" xmlns="http://www.w3.org/2000/svg">
<path d="M40.5 0H0V41H40.5V0Z" fill="#00A099"/>
<path d="M57.5751 15.8217C57.2626 16.3773 56.8876 16.8445 56.4376 17.2107C56.0001 17.5768 55.5126 17.8925 55.0001 18.1324L59.3751 26.3021H55.0001L51.2875 18.9406H49.1876V26.3021H45.3V3.7376C46.125 3.49769 46.9626 3.33353 47.8251 3.23252C48.6876 3.1315 49.7376 3.08099 50.9626 3.08099C52.3001 3.08099 53.45 3.23252 54.4125 3.52294C55.375 3.81336 56.1626 4.28056 56.7751 4.91191C57.3876 5.54327 57.8376 6.3514 58.1376 7.34893C58.4251 8.34647 58.5751 9.53341 58.5751 10.935C58.5751 12.0462 58.4876 13.0058 58.3126 13.8014C58.1376 14.5842 57.8876 15.2661 57.5751 15.8217ZM54.4376 8.3591C54.2751 7.67724 54.0375 7.12165 53.725 6.69233C53.4125 6.26301 53.0251 5.97259 52.5626 5.79581C52.1001 5.61903 51.5626 5.53064 50.9626 5.53064H49.1876V16.3141H50.9626C51.5626 16.3141 52.1001 16.2257 52.5626 16.049C53.0251 15.8722 53.4125 15.5691 53.725 15.1524C54.0375 14.7231 54.2751 14.1675 54.4376 13.4857C54.6001 12.8038 54.675 11.9452 54.675 10.9224C54.675 9.8996 54.6001 9.05358 54.4376 8.3591ZM73.6251 23.6757V26.2895H61.8126V3.4093H73.6251V6.02309H65.6876V13.0564H72.6501V15.6702H65.6876V23.6757H73.6251ZM87.0501 26.3021L85.6251 20.5821H80.0626L78.6376 26.3021H74.5876L80.4126 3.4093H85.2751L91.1001 26.3021H87.0501ZM82.9126 8.64952H82.7876L80.5876 17.9683H85.0876L82.9126 8.64952ZM110.038 26.3021L109.163 10.8087H109.038L104.863 23.5242H101.3L97.1251 10.7961H97.0001L96.1251 26.2895H92.4001L93.6876 3.4093H97.9001L103.013 18.9406H103.138L108.25 3.4093H112.463L113.763 26.3021H110.038ZM128.663 23.6757V26.2895H116.85V3.4093H128.663V6.02309H120.725V13.0564H127.688V15.6702H120.725V23.6757H128.663ZM144.8 20.4053C144.438 21.9079 143.913 23.1201 143.213 24.0293C142.513 24.9384 141.65 25.6076 140.625 26.0117C139.6 26.4158 138.413 26.6178 137.075 26.6178C135.85 26.6178 134.8 26.5673 133.938 26.4663C133.075 26.3653 132.238 26.2011 131.413 25.9612V3.7376C132.238 3.49769 133.075 3.33353 133.938 3.23252C134.8 3.1315 135.85 3.08099 137.075 3.08099C138.413 3.08099 139.6 3.28303 140.625 3.68709C141.65 4.09116 142.513 4.74776 143.213 5.66954C143.913 6.57868 144.438 7.79088 144.8 9.2935C145.15 10.7961 145.338 12.6523 145.338 14.8494C145.338 17.0465 145.163 18.9027 144.8 20.4053ZM141.125 10.291C140.913 9.07884 140.613 8.13181 140.238 7.4247C139.863 6.73021 139.4 6.23775 138.863 5.94733C138.325 5.66954 137.725 5.51801 137.075 5.51801H135.288V24.1555H137.075C137.725 24.1555 138.313 24.0166 138.863 23.7262C139.4 23.4484 139.863 22.956 140.238 22.2615C140.613 21.567 140.913 20.6073 141.125 19.3951C141.338 18.1829 141.45 16.6677 141.45 14.8368C141.45 13.0185 141.338 11.5032 141.125 10.291Z" fill="#00A099"/>
<path d="M49.8251 34.4466C49.7251 34.8254 49.5751 35.1411 49.3751 35.3683C49.1751 35.6083 48.9376 35.785 48.6501 35.8861C48.3626 35.9997 48.0251 36.0502 47.6376 36.0502C47.5876 36.0502 47.5251 36.0502 47.4501 36.0376C47.3751 36.025 47.2876 36.025 47.1876 36.0123C47.1001 35.9997 47.0001 35.9871 46.9126 35.9744C46.8126 35.9618 46.7376 35.9492 46.6626 35.9366V38.361H45.2876V30.4059C45.5751 30.3175 45.8751 30.267 46.1751 30.2291C46.4751 30.1913 46.8501 30.1786 47.2876 30.1786C47.7626 30.1786 48.1626 30.2291 48.5001 30.3428C48.8376 30.4564 49.1126 30.6206 49.3376 30.8479C49.5501 31.0752 49.7126 31.3782 49.8126 31.7444C49.9126 32.1106 49.9626 32.5525 49.9626 33.0702C49.9751 33.6006 49.9251 34.0551 49.8251 34.4466ZM48.5126 32.0727C48.4501 31.8201 48.3751 31.6055 48.2626 31.454C48.1501 31.3024 48.0126 31.1888 47.8501 31.1257C47.6876 31.0625 47.5001 31.0246 47.2876 31.0246H46.6626V35.1158H47.2876C47.5001 35.1158 47.6876 35.0779 47.8501 35.0148C48.0126 34.9517 48.1501 34.838 48.2626 34.6865C48.3751 34.535 48.4626 34.3203 48.5126 34.0551C48.5751 33.79 48.6001 33.449 48.6001 33.045C48.6001 32.6662 48.5751 32.3379 48.5126 32.0727ZM55.2126 34.6612C55.1001 34.8633 54.9751 35.0148 54.8126 35.1537C54.6626 35.28 54.4876 35.3936 54.3001 35.482L55.8376 38.361H54.3001L53.0001 35.7598H52.2501V38.3483H50.8751V30.3933C51.1626 30.3049 51.4626 30.2544 51.7626 30.2165C52.0626 30.1786 52.4376 30.166 52.8751 30.166C53.3501 30.166 53.7501 30.2165 54.0876 30.3175C54.4251 30.4185 54.7001 30.5827 54.9251 30.81C55.1376 31.0373 55.3001 31.3151 55.4001 31.6686C55.5001 32.0222 55.5501 32.4389 55.5501 32.9313C55.5501 33.3228 55.5251 33.6637 55.4626 33.9415C55.4126 34.2193 55.3251 34.4592 55.2126 34.6612ZM54.1126 32.0348C54.0501 31.7949 53.9751 31.5929 53.8626 31.4413C53.7501 31.2898 53.6126 31.1888 53.4501 31.1257C53.2876 31.0625 53.1001 31.0373 52.8876 31.0373H52.2626V34.838H52.8876C53.1001 34.838 53.2876 34.8128 53.4501 34.7496C53.6126 34.6865 53.7501 34.5855 53.8626 34.4339C53.9751 34.2824 54.0626 34.093 54.1126 33.8405C54.1751 33.6006 54.2001 33.2975 54.2001 32.9313C54.2001 32.5778 54.1626 32.2747 54.1126 32.0348ZM61.4876 36.2775C61.3626 36.8078 61.1876 37.2371 60.9626 37.5528C60.7376 37.8811 60.4626 38.1084 60.1376 38.2473C59.8126 38.3862 59.4501 38.462 59.0626 38.462C58.6626 38.462 58.3001 38.3862 57.9751 38.2473C57.6501 38.1084 57.3751 37.8685 57.1501 37.5528C56.9251 37.2245 56.7501 36.8078 56.6251 36.2775C56.5001 35.7472 56.4376 35.0906 56.4376 34.3203C56.4376 33.5501 56.5001 32.8934 56.6251 32.3631C56.7501 31.8328 56.9251 31.4035 57.1501 31.0878C57.3751 30.7595 57.6501 30.5322 57.9751 30.3933C58.3001 30.2544 58.6626 30.1786 59.0626 30.1786C59.4626 30.1786 59.8126 30.2544 60.1376 30.3933C60.4626 30.5322 60.7376 30.7721 60.9626 31.0878C61.1876 31.4161 61.3626 31.8328 61.4876 32.3631C61.6126 32.8934 61.6751 33.5501 61.6751 34.3203C61.6751 35.0906 61.6126 35.7472 61.4876 36.2775ZM60.1876 32.6788C60.1126 32.2495 60.0251 31.9085 59.9001 31.656C59.7876 31.4035 59.6501 31.2267 59.5001 31.1257C59.3501 31.0246 59.2001 30.9741 59.0376 30.9741C58.8751 30.9741 58.7251 31.0246 58.5751 31.1257C58.4251 31.2267 58.2876 31.4035 58.1751 31.656C58.0626 31.9085 57.9626 32.2495 57.8876 32.6788C57.8126 33.1081 57.7751 33.6511 57.7751 34.3203C57.7751 34.9769 57.8126 35.5325 57.8876 35.9618C57.9626 36.3911 58.0501 36.7321 58.1751 36.9846C58.2876 37.2371 58.4251 37.4139 58.5751 37.5149C58.7251 37.616 58.8751 37.6665 59.0376 37.6665C59.2001 37.6665 59.3501 37.616 59.5001 37.5149C59.6501 37.4139 59.7876 37.2371 59.9001 36.9846C60.0126 36.7321 60.1126 36.3911 60.1876 35.9618C60.2626 35.5325 60.3001 34.9895 60.3001 34.3203C60.3001 33.6637 60.2626 33.1081 60.1876 32.6788ZM67.2001 33.9794V38.2473C67.0251 38.3104 66.7751 38.361 66.4501 38.4115C66.1251 38.462 65.7501 38.4746 65.3126 38.4746C64.8126 38.4746 64.3751 38.4115 64.0126 38.2726C63.6501 38.1463 63.3501 37.919 63.1001 37.6033C62.8626 37.2877 62.6876 36.8583 62.5751 36.328C62.4626 35.7977 62.4001 35.1284 62.4001 34.3203C62.4001 33.5122 62.4626 32.8429 62.5751 32.3126C62.6876 31.7823 62.8626 31.3529 63.0876 31.0373C63.3126 30.7216 63.5876 30.4943 63.9251 30.368C64.2626 30.2418 64.6501 30.166 65.0876 30.166C65.4876 30.166 65.8501 30.1913 66.1751 30.2291C66.5001 30.2797 66.7376 30.3302 66.9126 30.3933V31.0246H65.4251C65.1876 31.0246 64.9626 31.0752 64.7626 31.1762C64.5626 31.2772 64.3876 31.454 64.2376 31.6939C64.0876 31.9338 63.9751 32.2747 63.9001 32.704C63.8251 33.1334 63.7751 33.6637 63.7751 34.3077C63.7751 34.9517 63.8126 35.4946 63.9001 35.9113C63.9876 36.3406 64.1001 36.6689 64.2501 36.9215C64.4001 37.1614 64.5876 37.3382 64.8001 37.4392C65.0126 37.5402 65.2626 37.5907 65.5376 37.5907H65.8251V33.9667H67.2001V33.9794ZM72.7376 34.6612C72.6251 34.8633 72.5001 35.0148 72.3376 35.1537C72.1876 35.28 72.0126 35.3936 71.8251 35.482L73.3626 38.361H71.8251L70.5126 35.7724H69.7751V38.361H68.4001V30.4059C68.6876 30.3175 68.9876 30.267 69.2876 30.2291C69.5876 30.1913 69.9626 30.1786 70.4001 30.1786C70.8751 30.1786 71.2751 30.2291 71.6126 30.3302C71.9501 30.4312 72.2251 30.5953 72.4501 30.8226C72.6626 31.0499 72.8251 31.3277 72.9251 31.6813C73.0251 32.0348 73.0751 32.4515 73.0751 32.944C73.0751 33.3354 73.0501 33.6763 72.9876 33.9541C72.9251 34.2193 72.8501 34.4592 72.7376 34.6612ZM71.6251 32.0348C71.5626 31.7949 71.4876 31.5929 71.3751 31.4413C71.2626 31.2898 71.1251 31.1888 70.9626 31.1257C70.8001 31.0625 70.6126 31.0373 70.4001 31.0373H69.7751V34.838H70.4001C70.6126 34.838 70.8001 34.8128 70.9626 34.7496C71.1251 34.6865 71.2626 34.5855 71.3751 34.4339C71.4876 34.2824 71.5751 34.093 71.6251 33.8405C71.6876 33.6006 71.7126 33.2975 71.7126 32.9313C71.7126 32.5778 71.6876 32.2747 71.6251 32.0348ZM78.3876 37.4266V38.3483H74.2251V30.2797H78.3876V31.2014H75.5876V33.6763H78.0376V34.5981H75.5876V37.4266H78.3876ZM81.1126 33.5627C81.3501 33.7016 81.6126 33.8405 81.9001 33.9541C82.1751 34.0804 82.4376 34.2319 82.6876 34.4213C82.9251 34.6107 83.1376 34.8506 83.2876 35.1411C83.4501 35.4315 83.5251 35.8103 83.5251 36.2775C83.5251 36.972 83.3126 37.5023 82.8751 37.8938C82.4501 38.2726 81.7501 38.4746 80.7751 38.4746C80.3751 38.4746 80.0126 38.4493 79.6876 38.4115C79.3626 38.361 79.1251 38.3104 78.9501 38.2473V37.616H80.5501C81.1251 37.616 81.5251 37.5023 81.7751 37.2877C82.0251 37.0604 82.1501 36.7321 82.1501 36.2901C82.1501 35.9744 82.0751 35.7219 81.9126 35.5325C81.7501 35.3431 81.5501 35.1789 81.3126 35.0527C81.0751 34.9138 80.8126 34.7875 80.5251 34.6612C80.2501 34.535 79.9876 34.3834 79.7376 34.1814C79.5001 33.9794 79.2876 33.7395 79.1376 33.4364C78.9751 33.1334 78.9001 32.7419 78.9001 32.2495C78.9001 31.6181 79.1001 31.113 79.4876 30.7342C79.8751 30.3554 80.4626 30.1786 81.2376 30.1786C81.6376 30.1786 82.0001 30.2039 82.3251 30.2418C82.6501 30.2923 82.8876 30.3428 83.0626 30.4059V31.0373H81.4626C81.0876 31.0373 80.8001 31.1509 80.5876 31.3656C80.3751 31.5802 80.2626 31.8707 80.2626 32.2495C80.2626 32.5904 80.3376 32.8556 80.5001 33.0576C80.6751 33.247 80.8751 33.4238 81.1126 33.5627ZM85.9126 33.5627C86.1501 33.7016 86.4126 33.8405 86.7001 33.9541C86.9751 34.0804 87.2376 34.2319 87.4876 34.4213C87.7251 34.6107 87.9376 34.8506 88.0876 35.1411C88.2501 35.4315 88.3251 35.8103 88.3251 36.2775C88.3251 36.972 88.1126 37.5023 87.6751 37.8938C87.2501 38.2726 86.5501 38.4746 85.5751 38.4746C85.1751 38.4746 84.8126 38.4493 84.4876 38.4115C84.1626 38.361 83.9251 38.3104 83.7501 38.2473V37.616H85.3501C85.9251 37.616 86.3251 37.5023 86.5751 37.2877C86.8251 37.0604 86.9501 36.7321 86.9501 36.2901C86.9501 35.9744 86.8751 35.7219 86.7126 35.5325C86.5501 35.3431 86.3501 35.1789 86.1126 35.0527C85.8751 34.9138 85.6126 34.7875 85.3251 34.6612C85.0501 34.535 84.7876 34.3834 84.5376 34.1814C84.3001 33.9794 84.0876 33.7395 83.9376 33.4364C83.7751 33.1334 83.7001 32.7419 83.7001 32.2495C83.7001 31.6181 83.9001 31.113 84.2876 30.7342C84.6751 30.3554 85.2626 30.1786 86.0376 30.1786C86.4376 30.1786 86.8001 30.2039 87.1251 30.2418C87.4501 30.2923 87.6876 30.3428 87.8626 30.4059V31.0373H86.2626C85.8876 31.0373 85.6001 31.1509 85.3876 31.3656C85.1751 31.5802 85.0626 31.8707 85.0626 32.2495C85.0626 32.5904 85.1376 32.8556 85.3001 33.0576C85.4626 33.247 85.6626 33.4238 85.9126 33.5627ZM94.2001 31.2141V38.361H92.8251V31.2141H91.0501V30.2923H95.9626V31.2141H94.2001ZM101.138 36.2775C101.013 36.8078 100.838 37.2371 100.613 37.5528C100.388 37.8811 100.113 38.1084 99.7876 38.2473C99.4626 38.3862 99.1001 38.462 98.7126 38.462C98.3126 38.462 97.9501 38.3862 97.6251 38.2473C97.3001 38.1084 97.0251 37.8685 96.8001 37.5528C96.5751 37.2245 96.4001 36.8078 96.2751 36.2775C96.1501 35.7472 96.0876 35.0906 96.0876 34.3203C96.0876 33.5501 96.1501 32.8934 96.2751 32.3631C96.4001 31.8328 96.5751 31.4035 96.8001 31.0878C97.0251 30.7595 97.3001 30.5322 97.6251 30.3933C97.9501 30.2544 98.3126 30.1786 98.7126 30.1786C99.1126 30.1786 99.4626 30.2544 99.7876 30.3933C100.113 30.5322 100.388 30.7721 100.613 31.0878C100.838 31.4161 101.013 31.8328 101.138 32.3631C101.263 32.8934 101.325 33.5501 101.325 34.3203C101.325 35.0906 101.263 35.7472 101.138 36.2775ZM99.8501 32.6788C99.7751 32.2495 99.6876 31.9085 99.5626 31.656C99.4501 31.4035 99.3126 31.2267 99.1626 31.1257C99.0126 31.0246 98.8626 30.9741 98.7001 30.9741C98.5376 30.9741 98.3876 31.0246 98.2376 31.1257C98.0876 31.2267 97.9501 31.4035 97.8376 31.656C97.7251 31.9085 97.6251 32.2495 97.5501 32.6788C97.4751 33.1081 97.4376 33.6511 97.4376 34.3203C97.4376 34.9769 97.4751 35.5325 97.5501 35.9618C97.6251 36.3911 97.7126 36.7321 97.8376 36.9846C97.9501 37.2371 98.0876 37.4139 98.2376 37.5149C98.3876 37.616 98.5376 37.6665 98.7001 37.6665C98.8626 37.6665 99.0126 37.616 99.1626 37.5149C99.3126 37.4139 99.4501 37.2371 99.5626 36.9846C99.6751 36.7321 99.7751 36.3911 99.8501 35.9618C99.9251 35.5325 99.9626 34.9895 99.9626 34.3203C99.9626 33.6637 99.9251 33.1081 99.8501 32.6788ZM110.913 38.3483L110.6 32.8808H110.55L109.088 37.376H107.838L106.363 32.8934H106.313L106 38.361H104.688L105.15 30.2923H106.638L108.438 35.7724H108.488L110.288 30.2923H111.775L112.238 38.361H110.913V38.3483ZM117.475 37.4266V38.3483H113.313V30.2797H117.475V31.2014H114.675V33.6763H117.125V34.5981H114.675V37.4266H117.475ZM123.163 36.2775C123.038 36.8078 122.85 37.2371 122.6 37.5528C122.35 37.8811 122.05 38.1084 121.688 38.2473C121.325 38.3862 120.913 38.462 120.438 38.462C120 38.462 119.638 38.4493 119.325 38.4115C119.025 38.3736 118.725 38.3231 118.438 38.2347V30.3933C118.725 30.3049 119.025 30.2544 119.325 30.2165C119.625 30.1786 120 30.166 120.438 30.166C120.913 30.166 121.325 30.2418 121.688 30.3807C122.05 30.5196 122.35 30.7595 122.6 31.0752C122.85 31.4035 123.038 31.8202 123.163 32.3505C123.288 32.8808 123.35 33.5374 123.35 34.3077C123.35 35.0906 123.288 35.7472 123.163 36.2775ZM121.875 32.7167C121.8 32.2874 121.7 31.959 121.563 31.7065C121.425 31.4666 121.263 31.2898 121.075 31.1888C120.888 31.0878 120.675 31.0373 120.45 31.0373H119.825V37.6033H120.45C120.675 37.6033 120.888 37.5528 121.075 37.4518C121.263 37.3508 121.425 37.174 121.563 36.9341C121.7 36.6942 121.8 36.3533 121.875 35.9239C121.95 35.4946 121.988 34.9643 121.988 34.3203C121.988 33.6763 121.95 33.1334 121.875 32.7167ZM124.388 38.3483V30.2797H125.763V38.3483H124.388ZM128.625 36.9341C128.775 37.174 128.963 37.3508 129.175 37.4518C129.388 37.5528 129.638 37.6033 129.913 37.6033H131.288V38.2347C131.113 38.2978 130.863 38.3483 130.55 38.3988C130.225 38.4493 129.875 38.462 129.463 38.462C129.025 38.462 128.638 38.3988 128.3 38.2599C127.963 38.1337 127.688 37.9064 127.463 37.5907C127.238 37.275 127.075 36.8457 126.95 36.3154C126.838 35.785 126.775 35.1158 126.775 34.3077C126.775 33.4995 126.838 32.8303 126.95 32.3C127.063 31.7696 127.225 31.3403 127.45 31.0246C127.663 30.709 127.938 30.4817 128.25 30.3554C128.575 30.2291 128.938 30.1534 129.35 30.1534C129.75 30.1534 130.113 30.1786 130.438 30.2165C130.763 30.267 131 30.3175 131.175 30.3807V31.012H129.8C129.563 31.012 129.338 31.0625 129.138 31.1635C128.938 31.2646 128.763 31.4413 128.613 31.6813C128.463 31.9212 128.35 32.2621 128.275 32.6914C128.2 33.1207 128.15 33.6511 128.15 34.295C128.15 34.939 128.188 35.482 128.275 35.8987C128.363 36.3533 128.475 36.6942 128.625 36.9341ZM131.975 38.3483V30.2797H133.35V38.3483H131.975ZM138.188 38.3483L136.025 33.045H135.963V38.3483H134.65V30.2797H136.025L138.188 35.583H138.25V30.2797H139.563V38.3483H138.188ZM145.038 37.4266V38.3483H140.875V30.2797H145.038V31.2014H142.238V33.6763H144.688V34.5981H142.238V37.4266H145.038Z" fill="#6D6D6C"/>
<path d="M15.15 21.4407C14.8875 21.9079 14.575 22.2867 14.2125 22.6024C13.85 22.9054 13.45 23.1706 13.0125 23.36L16.65 30.166H13.0125L9.91255 24.0292H8.16255V30.1786H4.92505V11.3769C5.61255 11.1749 6.31255 11.036 7.02505 10.9603C7.73755 10.8845 8.61255 10.834 9.63755 10.834C10.75 10.834 11.7125 10.9603 12.5125 11.2002C13.3125 11.4401 13.9625 11.8315 14.475 12.3619C14.9875 12.8922 15.3625 13.5614 15.6125 14.3948C15.85 15.2156 15.975 16.2131 15.975 17.3748C15.975 18.2966 15.9 19.0921 15.7625 19.7613C15.6125 20.4179 15.4125 20.9861 15.15 21.4407ZM12.5375 15.2408C12.4 14.6726 12.2 14.2054 11.95 13.8518C11.6875 13.4983 11.3625 13.2457 10.975 13.1069C10.5875 12.968 10.1375 12.8922 9.63755 12.8922H8.16255V21.87H9.65005C10.15 21.87 10.6 21.7943 10.9875 21.6554C11.375 21.5165 11.7 21.2639 11.9625 20.9104C12.225 20.5568 12.425 20.0896 12.55 19.5214C12.6875 18.9532 12.75 18.2334 12.75 17.3874C12.7375 16.5162 12.675 15.809 12.5375 15.2408ZM32.4501 30.1786V20.6452C32.4501 20.178 32.3876 19.7739 32.2626 19.4583C32.1376 19.1426 31.975 18.89 31.7875 18.7006C31.6 18.5112 31.3876 18.3723 31.1376 18.3092C30.9001 18.2334 30.65 18.1956 30.425 18.1956C30.0875 18.1956 29.775 18.2334 29.5 18.3218C29.225 18.3976 29 18.4986 28.8 18.6122C28.875 18.8143 28.9375 19.0921 28.9875 19.4709C29.0375 19.8497 29.0625 20.2411 29.0625 20.6578V30.1786H25.8251V20.6452C25.8251 20.178 25.7625 19.7739 25.65 19.4583C25.5375 19.1426 25.375 18.89 25.1875 18.7006C25 18.5112 24.7875 18.3723 24.5625 18.3092C24.3375 18.2334 24.125 18.1956 23.925 18.1956C23.5875 18.1956 23.2875 18.2461 23.0375 18.3597C22.7875 18.4733 22.5875 18.5996 22.4375 18.7385V30.1786H19.2V16.554H21.4875L21.8876 17.3748H22.025C22.3125 17.097 22.7001 16.8571 23.1875 16.6172C23.675 16.3899 24.3251 16.2762 25.125 16.2762C25.8125 16.2762 26.3875 16.3773 26.8625 16.5667C27.3375 16.7561 27.75 17.0212 28.0875 17.3748C28.5 17.0339 28.9875 16.7561 29.55 16.5667C30.1125 16.3773 30.7875 16.2762 31.6 16.2762C32.1375 16.2762 32.6501 16.3394 33.1376 16.453C33.625 16.5667 34.05 16.7939 34.4375 17.1223C34.8125 17.4506 35.1126 17.8925 35.3251 18.4607C35.5375 19.0289 35.6501 19.7487 35.6501 20.6452V30.1786H32.4501Z" fill="white"/>
</svg>
