<svg xmlns="http://www.w3.org/2000/svg"><path d="M3.824 5.883h16.473c1.765 0 2.942-1.176 2.942-2.941S22.062 0 20.297 0H3.824C2.06 0 .883 1.177.883 2.942c0 1.765 1.176 2.941 2.941 2.941zM58.538 22.356c-.589 0-1.177 0-1.471.294l-4.118-4.118 5-5h1.471c1.765 0 2.941-1.177 2.941-2.942 0-1.765-1.176-2.942-2.941-2.942H3.824C2.06 7.648.882 8.825.882 10.59c0 1.765 1.177 2.941 2.942 2.941h.883l5 5-4.118 4.12c-.882-.295-1.177-.295-1.765-.295C1.765 22.356 0 24.121 0 26.18c0 2.06 1.765 3.824 3.824 3.824 2.06 0 3.824-1.765 3.824-3.824 0-.588 0-1.177-.294-1.47l4.118-4.119 4.118 4.118c-.294.589-.294.883-.294 1.471 0 2.06 1.765 3.824 3.824 3.824 2.06 0 3.824-1.765 3.824-3.824 0-2.06-1.765-3.824-3.824-3.824-.588 0-1.176 0-1.47.294l-4.119-4.118 5.001-5h25.003l5.001 5-4.118 4.118c-.588-.294-.883-.294-1.47-.294-2.06 0-3.825 1.765-3.825 3.824 0 2.06 1.765 3.824 3.824 3.824 2.06 0 3.824-1.765 3.824-3.824 0-.588 0-1.177-.294-1.47l4.118-4.119 4.118 4.118c-.294.589-.294.883-.294 1.471 0 2.06 1.765 3.824 3.824 3.824 2.06 0 3.824-1.765 3.824-3.824.589-2.06-1.47-3.824-3.53-3.824zm-47.066-6.177l-2.941-2.942h5.589l-2.648 2.942zm36.476-2.942h5.589l-2.942 2.942-2.647-2.942z"/></svg>