<svg xmlns="http://www.w3.org/2000/svg"><path d="M17.5 14.615c0-.32-.112-.592-.337-.817l-2.5-2.5a1.112 1.112 0 00-.817-.336c-.336 0-.625.128-.865.384l.228.223c.128.124.215.21.259.258.044.048.104.124.18.228a.968.968 0 01.198.637c0 .32-.112.593-.336.818a1.113 1.113 0 01-.818.336c-.12 0-.23-.014-.33-.042a.965.965 0 01-.307-.156 2.896 2.896 0 01-.228-.18 7.384 7.384 0 01-.258-.259 29.71 29.71 0 00-.223-.228c-.264.248-.396.54-.396.877 0 .32.112.593.336.817l2.476 2.488c.216.217.489.325.817.325.32 0 .593-.104.818-.313l1.766-1.754c.225-.225.337-.493.337-.806zM9.05 6.142c0-.32-.112-.593-.336-.817L6.238 2.837a1.113 1.113 0 00-.817-.337 1.16 1.16 0 00-.818.325L2.837 4.579a1.099 1.099 0 00-.337.806c0 .32.112.593.337.817l2.5 2.5c.216.216.488.324.817.324.336 0 .625-.124.865-.372l-.228-.223a7.417 7.417 0 01-.258-.258 2.863 2.863 0 01-.18-.228.967.967 0 01-.2-.637c0-.32.113-.593.337-.818.225-.224.497-.336.818-.336a.967.967 0 01.637.198c.104.076.18.136.228.18.048.045.134.13.259.259l.222.228c.264-.248.397-.54.397-.877zm10.758 8.473c0 .962-.34 1.775-1.022 2.44L17.02 18.81c-.665.665-1.478.998-2.44.998-.97 0-1.787-.34-2.452-1.022l-2.475-2.488c-.666-.665-.998-1.478-.998-2.44a3.38 3.38 0 011.058-2.512L8.654 10.29c-.69.705-1.523 1.057-2.5 1.057-.962 0-1.779-.336-2.452-1.01l-2.5-2.5C.529 7.164.192 6.347.192 5.386c0-.962.34-1.775 1.022-2.44L2.981 1.19C3.646.525 4.459.192 5.42.192c.97 0 1.787.34 2.452 1.022l2.476 2.488c.665.665.997 1.478.997 2.44a3.38 3.38 0 01-1.057 2.512l1.057 1.058c.69-.706 1.523-1.058 2.5-1.058.962 0 1.78.336 2.452 1.01l2.5 2.5c.673.673 1.01 1.49 1.01 2.451z"/></svg>