<svg xmlns="http://www.w3.org/2000/svg"><path d="M11.5 0C5.152 0 0 5.152 0 11.5S5.152 23 11.5 23h5.75v-2.3H11.5c-4.991 0-9.2-4.209-9.2-9.2s4.209-9.2 9.2-9.2 9.2 4.209 9.2 9.2v1.645c0 .908-.816 1.805-1.725 1.805-.909 0-1.725-.897-1.725-1.805V11.5a5.752 5.752 0 00-5.75-5.75 5.752 5.752 0 00-5.75 5.75 5.752 5.752 0 005.75 5.75 5.717 5.717 0 004.071-1.69c.748 1.023 2.036 1.69 3.404 1.69 2.265 0 4.025-1.84 4.025-4.105V11.5C23 5.152 17.848 0 11.5 0zm0 14.95a3.445 3.445 0 01-3.45-3.45 3.445 3.445 0 013.45-3.45 3.445 3.445 0 013.45 3.45 3.445 3.445 0 01-3.45 3.45z"/></svg>