<svg xmlns="http://www.w3.org/2000/svg"><path d="M5.778 9.005h23.803c2.55 0 4.25-1.7 4.25-4.25s-1.7-4.25-4.25-4.25H5.777c-2.55 0-4.25 1.7-4.25 4.25s1.7 4.25 4.25 4.25zM84.836 32.808c-.85 0-1.7 0-2.125.425l-5.95-5.95 7.225-7.227h2.125c2.55 0 4.25-1.7 4.25-4.25s-1.7-4.25-4.25-4.25H5.778c-2.55 0-4.25 1.7-4.25 4.25s1.7 4.25 4.25 4.25h1.275l7.226 7.226-5.951 5.95c-1.275-.424-1.7-.424-2.55-.424-2.976 0-5.526 2.55-5.526 5.525 0 2.976 2.55 5.526 5.526 5.526 2.975 0 5.525-2.55 5.525-5.526 0-.85 0-1.7-.425-2.125l5.95-5.95 5.951 5.95c-.424.85-.424 1.275-.424 2.125 0 2.976 2.55 5.526 5.525 5.526 2.975 0 5.526-2.55 5.526-5.526 0-2.975-2.55-5.525-5.526-5.525-.85 0-1.7 0-2.125.425l-5.95-5.95 7.225-7.227h36.129l7.226 7.226-5.951 5.95c-.85-.424-1.275-.424-2.125-.424-2.976 0-5.526 2.55-5.526 5.525 0 2.976 2.55 5.526 5.526 5.526 2.975 0 5.525-2.55 5.525-5.526 0-.85 0-1.7-.425-2.125l5.95-5.95 5.951 5.95c-.425.85-.425 1.275-.425 2.125 0 2.976 2.55 5.526 5.526 5.526 2.975 0 5.525-2.55 5.525-5.526.85-2.975-2.125-5.525-5.1-5.525zm-68.007-8.926l-4.25-4.25h8.075l-3.825 4.25zm52.705-4.25h8.076l-4.25 4.25-3.826-4.25z"/></svg>