<svg xmlns="http://www.w3.org/2000/svg"><path d="M73.684 25.855c-3.4-2.125-7.226-3.825-10.626-5.95-2.55-1.275-5.1-2.125-7.65-2.125-2.126-3.4-4.676-6.376-8.077-8.501-3.4-2.125-7.226-3.826-10.626-5.95C32.88 1.202 28.63.352 23.954 1.202 10.777 2.903.15 16.079.15 30.53c0 9.35 4.25 16.577 11.052 20.402l10.626 5.95h-.425c2.55 1.276 5.1 2.126 8.075 2.551 2.126 3.4 4.676 6.376 8.076 8.5l10.626 5.951h-.425c2.976 1.7 6.376 2.55 9.776 2.55.85 0 2.126 0 2.976-.424 13.176-1.7 23.802-14.877 23.802-29.328.425-9.776-3.825-17.427-10.626-20.828zM26.079 47.108c0 2.975.425 5.525 1.275 8.076-2.975-.85-5.95-2.126-8.076-4.25-3.4-3.401-5.525-8.502-5.525-14.452 0-6.376 2.55-12.752 6.375-17.427l11.052 11.05c-2.976 5.101-5.1 10.627-5.1 17.003zm7.65-19.552L22.68 16.504c3.4-2.975 7.65-5.1 11.9-5.95h2.551c4.676 0 8.501 1.7 11.901 4.675.85.85 1.276 1.7 2.126 2.55h-.85c-6.801.85-12.327 4.676-16.577 9.777zM60.509 71.76h-2.55c-4.676 0-8.502-1.7-11.902-4.675-3.4-3.4-5.525-8.501-5.525-14.452 0-6.375 2.55-12.751 6.375-17.427L74.96 63.26c-3.825 4.676-8.926 7.651-14.451 8.501zM49.456 33.081c3.4-2.975 7.651-5.1 11.902-5.95h2.55c4.675 0 8.5 1.7 11.901 4.675 3.4 3.4 5.526 8.5 5.526 14.452 0 5.1-1.7 10.2-4.25 14.451L49.456 33.081z"/></svg>