<svg xmlns="http://www.w3.org/2000/svg"><path d="M44.87.94H2.792C1.516.94.241 2.215.241 3.49v9.776c0 1.275 1.275 2.55 2.55 2.55h42.08c1.275 0 2.55-1.275 2.55-2.55V3.49c0-1.275-1.275-2.55-2.55-2.55zM4.068 14.116c0 .425-.425.85-.85.85-.426 0-.85-.425-.85-.85V3.066c0-.426.424-.85.85-.85.425 0 .85.424.85.85v11.05zm3.825 0c0 .425-.425.85-.85.85s-.85-.425-.85-.85V3.066c0-.426.425-.85.85-.85s.85.424.85.85v11.05zm3.825 0c0 .425-.425.85-.85.85s-.85-.425-.85-.85V3.066c0-.426.425-.85.85-.85s.85.424.85.85v11.05zm3.4 0c0 .425-.424.85-.85.85-.424 0-.85-.425-.85-.85V3.066c0-.426.426-.85.85-.85.426 0 .85.424.85.85v11.05zm3.826 0c0 .425-.425.85-.85.85s-.85-.425-.85-.85V3.066c0-.426.425-.85.85-.85s.85.424.85.85v11.05zm3.825 0c0 .425-.425.85-.85.85s-.85-.425-.85-.85V3.066c0-.426.425-.85.85-.85s.85.424.85.85v11.05zm3.4 0c0 .425-.424.85-.85.85-.424 0-.85-.425-.85-.85V3.066c0-.426.426-.85.85-.85.426 0 .85.424.85.85v11.05zm3.826 0c0 .425-.425.85-.85.85s-.85-.425-.85-.85V3.066c0-.426.425-.85.85-.85s.85.424.85.85v11.05zm3.826 0c0 .425-.425.85-.85.85s-.85-.425-.85-.85V3.066c0-.426.425-.85.85-.85s.85.424.85.85v11.05zm3.4 0c0 .425-.425.85-.85.85s-.85-.425-.85-.85V3.066c0-.426.425-.85.85-.85s.85.424.85.85v11.05zm3.825 0c0 .425-.425.85-.85.85s-.85-.425-.85-.85V3.066c0-.426.425-.85.85-.85s.85.424.85.85v11.05zm3.4 0c0 .425-.424.85-.85.85-.424 0-.85-.425-.85-.85V3.066c0-.426.426-.85.85-.85.426 0 .85.424.85.85v11.05zM41.896 17.942H5.342c-1.275 0-2.55 1.275-2.55 2.55l1.275 49.73c0 1.275 1.275 2.55 2.55 2.55h33.154c1.275 0 2.55-1.275 2.55-2.55l1.275-49.73c.85-1.7-.425-2.55-1.7-2.55zM35.52 54.92c0 1.7-1.275 2.975-2.975 2.975H14.693c-1.7 0-2.975-1.275-2.975-2.975V27.718c0-1.7 1.275-2.976 2.975-2.976h17.852c1.7 0 2.975 1.276 2.975 2.976V54.92z"/></svg>