<svg xmlns="http://www.w3.org/2000/svg"><path d="M37.906 33.667V4.764h.85c.85 0 1.7-.85 1.7-1.7v-.85c0-.85-.85-1.7-1.7-1.7H22.18c-.85 0-1.7.85-1.7 1.7v.85c0 .85.85 1.7 1.7 1.7h.85v28.903L1.352 74.896c-2.125 3.4-.425 6.376 3.826 6.376l51.855-.425c4.25 0 5.95-2.976 3.4-6.376L37.907 33.667zm20.827 44.63c-.425.424-1.275.85-2.55.85l-51.855.424c-1.275 0-2.125-.424-2.55-.85-.426-.425 0-1.7.425-2.55l21.677-41.23.425-.424V3.063h-2.55v-.425h16.151v.425h-2.55v31.454l.425.425 22.102 40.804c.85.85 1.275 1.7.85 2.55z"/><path d="M30.68 43.443c.85 0 1.7-.85 1.7-1.7s-.85-1.7-1.7-1.7-1.7.85-1.7 1.7c.425.85.85 1.7 1.7 1.7zM28.13 36.217c.85 0 1.276-.425 1.276-1.275 0-.85-.425-1.276-1.276-1.276-.85 0-1.275.426-1.275 1.276.425.85.85 1.275 1.275 1.275zM28.555 51.519c2.125 0 3.4-1.7 3.4-3.4 0-2.126-1.7-3.401-3.4-3.401-2.125 0-3.4 1.7-3.4 3.4-.425 1.7 1.275 3.4 3.4 3.4z"/><path d="M31.53 50.669c0 1.275 1.275 2.55 2.55 2.55 1.276 0 2.55-1.275 2.55-2.55 0-1.276-1.274-2.55-2.55-2.55-1.275 0-2.55.85-2.55 2.55zM21.754 53.644c1.7 0 2.976-1.275 2.976-2.975 0-1.7-1.275-2.976-2.976-2.976-1.7 0-2.975 1.275-2.975 2.976 0 1.7 1.275 2.975 2.975 2.975z"/><path d="M57.458 76.171L43.857 51.518h-1.275c0 1.276-1.276 2.55-2.55 2.55-1.276 0-2.55-1.274-2.55-2.55-.426 1.7-1.701 2.55-3.401 2.55-1.7 0-2.976-.85-3.4-2.55-.85.425-1.7.85-2.55.85-.851 0-1.701-.425-2.551-.85-.425 1.7-2.125 2.976-3.825 2.976-2.126 0-3.826-1.275-3.826-3.4h-1.275L3.478 76.17c-.425.85-.426 1.7-.426 1.7s.426.425 1.7.425l51.856-.425c1.275 0 1.7-.425 1.7-.425-.425 0-.425-.425-.85-1.275z"/><path d="M40.456 52.794c.85 0 1.7-.85 1.7-1.7s-.85-1.7-1.7-1.7-1.7.85-1.7 1.7.425 1.7 1.7 1.7z"/></svg>