<svg xmlns="http://www.w3.org/2000/svg"><path d="M93.786 19.669c-.85-.85-20.402-19.127-45.48-19.127-24.652 0-44.629 18.276-45.48 19.127l-2.124 1.7 2.125 1.7c.85.85 20.402 19.127 45.48 19.127 24.652 0 44.63-18.277 45.48-19.127l2.124-1.7-2.125-1.7zM37.256 35.82C24.078 32.845 13.027 24.77 8.776 21.37c4.25-3.4 15.302-11.477 28.478-14.452-4.25 3.4-7.225 8.501-7.225 14.452 0 5.95 2.55 11.05 7.225 14.451zm11.05-6.8c-4.25 0-7.225-3.4-7.225-7.226 0-4.25 3.4-7.226 7.226-7.226 4.25 0 7.225 3.4 7.225 7.226 0 3.825-3.4 7.226-7.225 7.226zm11.052 6.8c4.25-3.4 7.226-8.5 7.226-14.451 0-5.95-2.976-11.051-7.226-14.452C72.534 9.892 83.585 17.968 87.836 21.37c-4.25 3.825-14.877 11.476-28.478 14.451z"/></svg>