<svg xmlns="http://www.w3.org/2000/svg"><path d="M31.67 27.804c0-2.975 0-4.25.85-4.25s.85-.425.85-2.55c0-2.126 0-2.55-.85-2.55s-1.275-1.276 0-1.276c1.276 0 1.276 0 1.276-2.55s-.425-9.776-.425-11.901c0-2.126-1.275-1.7-3.4-1.7h-9.777-9.776c-2.125 0-3.4-.426-3.4 1.7 0 2.125-.425 9.35-.425 11.9 0 2.551 0 2.551 1.275 2.551s.85 1.275 0 1.275-.85.425-.85 2.55c0 2.126 0 2.55.85 2.55s.85 1.276.85 4.251c0 2.976-8.5 2.976-8.5 14.452v39.529c0 7.226 2.125 10.626 7.65 10.626h25.503c5.525 0 7.65-3.4 7.65-10.626v-39.53c-1.275-11.475-9.35-11.475-9.35-14.45zm-.85-25.502c.425 0 .425.425.425.425.425 4.25.425 8.5.85 12.751 0 .425-.424.425-.424.425-.425 0-.425-.425-.425-.425-.425-4.25-.426-8.5-.85-12.751-.426-.425 0-.425.424-.425zm-2.125 0c.425 0 .425.425.425.425.425 4.25.425 8.5.85 12.751 0 .425-.425.425-.425.425-.425 0-.425-.425-.425-.425 0-4.25-.425-8.5-.425-12.751-.85-.425-.425-.425 0-.425zm-2.55 0c.425 0 .425.425.425.425 0 4.25.425 8.5.425 12.751 0 .425-.425.425-.425.425-.425 0-.425-.425-.425-.425 0-4.25-.425-8.5-.425-12.751 0-.425.425-.425.425-.425zm-2.125 0c.425 0 .425.425.425.425 0 4.25.425 8.5.425 12.751 0 .425-.425.425-.425.425-.425 0-.425-.425-.425-.425 0-4.25 0-8.5-.425-12.751 0-.425 0-.425.425-.425zm-2.125 0c.425 0 .425.425.425.425v12.751c0 .425-.425.425-.425.425-.425 0-.425-.425-.425-.425V2.727c0-.425 0-.425.425-.425zm-2.55.425c0-.425.424-.425.424-.425.425 0 .425.425.425.425v12.751c0 .425-.425.425-.425.425-.425 0-.425-.425-.425-.425-.425-4.25-.425-8.5 0-12.751zm-2.551 0c0-.425.425-.425.425-.425.425 0 .425.425.425.425v12.751c0 .425-.425.425-.425.425-.425 0-.425-.425-.425-.425V2.727zm-2.125 0c0-.425.425-.425.425-.425.425 0 .425.425.425.425 0 4.25 0 8.5-.425 12.751 0 .425-.425.425-.425.425-.425 0-.425-.425-.425-.425.425-4.25.425-8.5.425-12.751zm-2.125 0c0-.425.425-.425.425-.425.425 0 .425.425.425.425 0 4.25-.425 8.5-.425 12.751 0 .425-.425.425-.425.425-.426 0-.426-.425-.426-.425 0-4.25 0-8.5.426-12.751zm-2.126 0c0-.425.425-.425.425-.425.425 0 .425.425.425.425 0 4.25-.425 8.5-.425 12.751 0 .425-.425.425-.425.425-.425 0-.425-.425-.425-.425 0-4.25 0-8.5.425-12.751zm-2.55 13.601c-.425 0-.425-.425-.425-.425.425-4.25.425-8.5.85-12.751 0-.425.425-.425.425-.425l.425.425c-.425 4.25-.425 8.5-.85 12.751 0 0 0 .425-.425.425zm29.753 65.457c0 7.65-2.55 8.5-5.1 8.5H7.018c-2.975 0-5.1-.424-5.1-8.5v-39.53c0-6.375 2.975-8.5 5.1-10.2 1.275-.85 2.975-2.125 2.975-4.25v-.85c0-1.701 0-2.551-.425-3.401h19.977c-.425.85-.425 2.125-.425 3.4v.85c0 2.126 1.7 3.4 2.976 4.25 2.125 1.7 5.1 3.826 5.1 10.202v39.529h.425z"/><path d="M3.192 42.256v39.529c0 6.8 1.7 6.8 3.826 6.8H32.52c2.126 0 3.826 0 3.826-6.8v-39.53c0-2.124-.425-3.825-.85-5.1H4.042a15.853 15.853 0 00-.85 5.1zm3.4 2.55c0-1.7 1.276-2.975 2.976-2.975h19.977c1.7 0 2.975 1.275 2.975 2.975v22.528c0 1.7-1.275 2.975-2.975 2.975H9.568c-1.7 0-2.975-1.275-2.975-2.975V44.806z"/></svg>