<svg xmlns="http://www.w3.org/2000/svg"><path d="M74.173 6.554l-1.7-1.7c-6.376-6.376-16.152-6.376-22.528 0L39.32 15.48 15.517 38.857 4.89 49.483c-6.376 6.376-6.376 16.152 0 22.528l1.7 1.7c6.375 6.376 16.151 6.376 22.527 0l10.626-10.626 23.803-23.803 10.626-10.626c5.95-5.95 5.95-16.152 0-22.102zM37.194 19.305c1.275-1.275 2.975-1.275 4.25 0s1.275 2.976 0 4.25c-1.275 1.276-2.975 1.276-4.25 0-1.275-1.274-1.275-2.975 0-4.25zm5.526 10.201c-1.276-1.275-1.276-2.975 0-4.25 1.275-1.275 2.975-1.275 4.25 0s1.275 2.975 0 4.25c-.85 1.275-2.975 1.275-4.25 0zm2.975 7.226c-1.275 1.275-2.976 1.275-4.25 0-1.276-1.275-1.276-2.975 0-4.25 1.274-1.276 2.975-1.276 4.25 0 1.275 1.275 1.275 2.975 0 4.25zM35.494 26.531c1.275-1.275 2.975-1.275 4.25 0s1.275 2.975 0 4.25c-1.275 1.276-2.975 1.276-4.25 0-1.275-1.275-1.275-2.975 0-4.25zm2.975 7.226c1.275 1.275 1.275 2.975 0 4.25s-2.975 1.275-4.25 0c-1.276-1.275-1.276-2.975 0-4.25 1.275-1.276 2.975-1.276 4.25 0zm-5.526 11.9c-1.275-1.274-1.275-2.974 0-4.25 1.276-1.275 2.976-1.275 4.251 0 1.275 1.276 1.275 2.976 0 4.25a3.86 3.86 0 01-4.25 0zm2.976 7.227c-1.275 1.275-2.975 1.275-4.25 0-1.276-1.276-1.276-2.976 0-4.25 1.274-1.276 2.975-1.276 4.25 0 1.275.85 1.275 2.974 0 4.25zm-7.65-25.078c1.274-1.275 2.974-1.275 4.25 0 1.275 1.275 1.275 2.975 0 4.25-1.276 1.276-2.976 1.276-4.25 0-1.276-.85-1.276-2.975 0-4.25zm-1.276 7.226c1.275-1.275 2.975-1.275 4.25 0 1.276 1.275 1.276 2.975 0 4.25-1.275 1.275-2.975 1.275-4.25 0-1.275-.85-1.275-2.975 0-4.25zm2.975 7.65c1.275 1.276 1.275 2.976 0 4.251-1.275 1.275-2.975 1.275-4.25 0s-1.275-2.975 0-4.25c1.275-1.276 2.975-1.276 4.25 0zm-10.2-5.95c1.274-1.275 2.974-1.275 4.25 0 1.275 1.275 1.275 2.975 0 4.25-1.276 1.276-2.976 1.276-4.25 0-1.276-1.275-1.276-3.4 0-4.25zM37.193 62.66c-.425.425-.85.425-.85 0L15.942 42.258c-.425-.425-.425-.85 0-.85.425-.426.85-.426.85 0L37.194 61.81c.425 0 .425.425 0 .85zm4.675-3.826c-1.275 1.275-2.975 1.275-4.25 0s-1.275-2.975 0-4.25 2.975-1.275 4.25 0c1.276.85 1.276 2.975 0 4.25zm1.276-7.226c-1.276 1.276-2.976 1.276-4.25 0-1.276-1.275-1.276-2.975 0-4.25 1.274-1.275 2.974-1.275 4.25 0 1.275.85 1.275 2.975 0 4.25zm-2.976-7.65c-1.275-1.275-1.275-2.976 0-4.25 1.275-1.276 2.976-1.276 4.25 0 1.276 1.274 1.276 2.975 0 4.25-1.274 1.275-2.975 1.275-4.25 0zm10.201 5.95c-1.275 1.276-2.975 1.276-4.25 0-1.275-1.275-1.275-2.975 0-4.25s2.975-1.275 4.25 0c1.276 1.275 1.276 2.975 0 4.25zm1.276-7.225c-1.276 1.275-2.976 1.275-4.251 0-1.275-1.276-1.275-2.976 0-4.25 1.275-1.276 2.975-1.276 4.25 0 1.276 1.274 1.276 2.974 0 4.25zm-2.976-7.226c-1.275-1.275-1.275-2.976 0-4.25 1.275-1.276 2.975-1.276 4.25 0 1.276 1.274 1.276 2.975 0 4.25-.85 1.275-2.975 1.275-4.25 0zm10.201 5.95c-1.275 1.276-2.975 1.276-4.25 0-1.275-1.275-1.275-2.975 0-4.25s2.975-1.275 4.25 0 1.275 2.975 0 4.25zm4.25-4.675c-.424.425-.85.425-.85 0L41.87 16.33c-.426-.425-.426-.85 0-.85.425-.425.85-.425.85 0l20.402 20.402v.85z"/></svg>