<svg xmlns="http://www.w3.org/2000/svg"><path d="M27.845 65.333h-6.8V28.78c0-.426-.426-.85-.851-.85h-1.7c-.425-2.55-.425-5.101-.85-7.651h-2.55V1.577L13.818.302v19.977h-2.55c-.425 2.55-.425 5.1-.85 7.65h-1.7c-.425 0-.85.425-.85.85v36.554H1.067c-.425 0-.85.425-.85.85s.425.85.85.85h7.65v25.928H2.343c-.425 0-.85.425-.85.85s.425.85.85.85H25.72c.425 0 .85-.425.85-.85s-.425-.85-.85-.85h-5.951V67.033h7.65c.426 0 .85-.425.85-.85.426-.425 0-.85-.424-.85zm-17.427 0H9.143V47.056h1.275v18.277zm4.676 27.203c0 .425-.426.425-.426.425-.425 0-.425-.425-.425-.425V68.734c0-.425.425-.425.425-.425.425 0 .426.425.426.425v23.802zm4.25-27.203h-1.275V47.056h1.275v18.277zm0-19.552H9.568V30.055h9.776V45.78z"/></svg>