<svg xmlns="http://www.w3.org/2000/svg"><path d="M58.785 30.555h-10.2l-8.502 14.027-2.55-4.25-3.4-5.526c-2.126-3.4-3.826-5.526-5.1-6.8-1.276-1.276-2.976-2.551-4.676-3.401 3.825-.425 6.8-1.7 8.5-3.826 1.7-2.125 2.976-4.675 2.976-8.075 0-2.55-.425-4.676-1.7-6.801s-2.976-3.4-5.1-4.25C26.906.802 23.506.376 18.83.376H.554v42.93h8.501V25.455h1.7c2.125 0 3.4 0 4.25.425.85.425 1.7.85 2.551 1.7.85.85 2.125 2.975 4.675 5.95l11.477 17.853L19.68 73.91h10.201l9.776-14.877L49.01 73.91h10.626L44.76 51.808l14.026-21.253zM15.855 18.23H9.48V7.178h13.177c1.275.425 2.55.85 3.4 1.7.85.85 1.275 2.125 1.275 3.4 0 1.276-.425 2.55-.85 3.4-.425.851-1.275 1.276-2.55 1.701-1.275.425-4.25.85-8.076.85z"/></svg>