<svg xmlns="http://www.w3.org/2000/svg"><path d="M8.256.29C4.006.29.605 3.69.605 7.94v55.256c0 2.975 1.7 5.525 4.25 6.8V94.65c0 1.7 1.276 3.4 3.4 3.4 1.701 0 3.401-1.275 3.401-3.4V69.996c2.55-1.275 4.25-3.825 4.25-6.8V7.94c0-4.25-3.4-7.65-7.65-7.65zm5.95 62.906c0 2.125-1.275 4.25-3.4 5.1l-.85.425V89.55h-.85V62.77h2.55c.425 0 .425 0 .425-.425s0-.425-.425-.425h-2.55v-5.1h2.55c.425 0 .425 0 .425-.426 0-.425 0-.425-.425-.425h-2.55v-5.1h2.55c.425 0 .425 0 .425-.425 0-.426 0-.426-.425-.426h-2.55v-5.1h2.55c.425 0 .425 0 .425-.425s0-.425-.425-.425h-2.55v-5.1h2.55c.425 0 .425 0 .425-.426 0-.425 0-.425-.425-.425h-2.55v-5.1h2.55c.425 0 .425 0 .425-.425 0-.426 0-.426-.425-.426h-2.55v-5.1h2.55c.425 0 .425 0 .425-.425s0-.425-.425-.425h-2.55V21.54h2.55c.425 0 .425 0 .425-.425s0-.425-.425-.425h-2.55v-5.1h2.55c.425 0 .425 0 .425-.425s0-.425-.425-.425h-2.55v-5.1c1.275-.426 2.125-1.701 2.125-2.976 0-1.7-1.275-2.975-2.975-2.975-1.7 0-2.975 1.275-2.975 2.975 0 1.275.85 2.55 2.125 2.975v5.1h-2.55c-.426 0-.426 0-.426.426 0 .425 0 .425.425.425h2.55v5.1h-2.55c-.425 0-.425 0-.425.425s0 .425.425.425h2.55v5.101h-2.55c-.425 0-.425 0-.425.425s0 .425.425.425h2.55v5.1h-2.55c-.425 0-.425 0-.425.426 0 .425 0 .425.425.425h2.55v5.1h-2.55c-.425 0-.425 0-.425.425s0 .425.425.425h2.55v5.1h-2.55c-.425 0-.425 0-.425.426 0 .425 0 .425.425.425h2.55v5.1h-2.55c-.425 0-.425 0-.425.425s0 .425.425.425h2.55v5.101h-2.55c-.425 0-.425 0-.425.425s0 .425.425.425h2.55v5.1h-2.55c-.425 0-.425 0-.425.426 0 .425 0 .425.425.425h2.55v26.778h-.85V69.145l-.85-.425c-2.125-.85-3.4-2.975-3.4-5.1V8.365c0-2.975 2.55-5.526 5.526-5.526 2.975 0 5.525 2.55 5.525 5.526v54.83h.85z"/></svg>