<svg xmlns="http://www.w3.org/2000/svg"><path d="M28.533 54.732h-.425c-1.7 0-1.7-.425-1.7-1.7v-1.7H6.005v1.7c0 1.275 0 1.7-1.7 1.7H3.88c-1.275 0-2.55 0-2.55 3.825V88.31c0 4.25.425 5.951 4.25 5.951h21.253c3.4 0 4.25-1.275 4.25-5.95V58.556c-.425-3.4-1.275-3.825-2.55-3.825zm.425 33.578c0 3.826 0 3.826-2.125 3.826H5.58c-2.125 0-2.125 0-2.125-3.826V58.557v-1.7H4.73c2.975 0 3.4-1.7 3.4-3.4h17.002c0 1.7.425 3.4 3.4 3.4h1.276V88.31h-.85z"/><path d="M4.73 61.958V90.01h22.527v-2.126-25.927H4.73zM27.257 46.231c-2.975 0-3.4-.425-3.4-2.125-.425-1.7-2.125-22.103-2.55-25.503-.425-3.4-2.976-4.675-2.976-8.926 0-4.25 0-8.926-2.55-8.926 1.7 0 1.7 4.676 1.7 8.926s2.125 5.526 2.55 8.926c.426 3.4 1.7 23.803 2.126 25.503 0 1.7.425 2.125 2.975 2.125 2.55 0 2.55.425 2.55 2.125v1.7h-2.975v-1.7c0-2.125 0-2.125-2.125-2.125-1.7 0-2.125-.425-2.125-2.125s-1.276-22.103-1.7-25.503c0-3.4-1.7-4.675-1.7-8.926 0-4.25 0-8.926-1.276-8.926-2.55 0-2.125 4.676-2.55 8.926 0 4.25-2.976 5.526-2.976 8.926-.425 3.4-2.125 23.803-2.55 25.503-.425 1.7-.425 2.125-3.4 2.125s-3.4.425-3.4 2.125v2.125h29.753v-2.125c0-1.7 0-2.125-3.4-2.125z"/></svg>