<svg xmlns="http://www.w3.org/2000/svg"><path d="M61.459 19.44l5.95-5.95c1.7 1.7 4.25 1.7 5.951 0 1.7-1.7 1.7-4.25 0-5.95-1.7-1.7-4.25-1.7-5.95 0 1.7-1.7 1.7-4.25 0-5.95-1.7-1.701-4.251-1.701-5.951 0-1.7 1.7-1.7 4.25 0 5.95l.425.425-6.376 6.376c2.125 1.7 4.25 3.4 5.95 5.1zM66.984 61.945l-.425.425-7.65-7.65c-1.701 1.275-3.826 2.55-5.951 3.825.425.425.425 1.275.425 1.7l7.65 7.65c-1.7 1.701-1.7 4.251 0 5.952 1.7 1.7 4.25 1.7 5.951 0 1.7-1.7 1.7-4.251 0-5.951 1.7 1.7 4.25 1.7 5.95 0 1.7-1.7 1.7-4.25 0-5.95-1.7-1.7-4.25-1.7-5.95 0zM7.053 13.49l5.95 5.95c1.701-1.7 3.826-3.4 5.951-4.675L12.58 8.39c.425 0 .425-.425.85-.425 1.7-1.7 1.7-4.25 0-5.95-1.7-1.701-4.25-1.701-5.95 0-1.7 1.7-1.7 4.25 0 5.95-1.7-1.7-4.251-1.7-5.951 0-1.7 1.7-1.7 4.25 0 5.95 1.275 1.276 3.825 1.276 5.525-.425zM7.903 62.37c0-.425-.425-.425-.425-.425-1.7-1.7-4.25-1.7-5.95 0-1.7 1.7-1.7 4.25 0 5.95 1.7 1.701 4.25 1.701 5.95 0-1.7 1.701-1.7 4.251 0 5.952 1.7 1.7 4.25 1.7 5.95 0 1.701-1.7 1.701-4.251 0-5.951l7.652-7.65c0-.426.425-1.276.425-1.701-2.125-.85-4.25-2.125-5.951-3.825l-7.65 7.65z"/><path d="M66.984 36.018c0-13.602-13.601-24.653-29.753-24.653-16.577 0-29.753 11.051-29.753 24.653 0 9.35 6.376 17.426 15.727 21.677-.85 2.125-1.7 4.25-1.7 6.376h1.7v-2.55c0-.426.425-.426.425-.426.425 0 .425.425.425.425v2.55h2.975v-2.55c0-.425.425-.425.425-.425.425 0 .425.425.425.425v2.55h2.976v-2.55c0-.425.424-.425.424-.425.425 0 .426.425.426.425v2.55h2.975v-2.55c0-.425.425-.425.425-.425.425 0 .425.425.425.425v2.55h2.975v-2.55c0-.425 0-.425.425-.425s.425.425.425.425v2.55h2.976v-2.55c0-.425.425-.425.425-.425.425 0 .425.425.425.425v2.55h2.975v-2.55c0-.425 0-.425.425-.425s.425.425.425.425v2.55h2.976v-2.55c0-.425 0-.425.425-.425s.425.425.425.425v2.55h1.7c0-2.125-.425-4.675-1.7-6.375 9.776-4.25 16.151-12.326 16.151-21.677zm-42.08 12.326c-5.525 0-10.2-2.125-10.2-5.1 0-2.55 3.825-5.526 9.35-5.951 9.352-1.275 10.627 1.7 10.627 4.25 0 2.976-4.25 6.801-9.776 6.801zm11.902 3.825c-.425 2.55-.85 4.676-1.7 4.676s-1.275-2.125-.85-4.676c0-2.55.85-4.675 1.7-4.675.425 0 .85 2.125.85 4.675zm2.55 4.676c-.85 0-1.7-2.125-1.7-4.676-.425-2.55.425-4.675.85-4.675.85 0 1.7 2.125 1.7 4.675.425 2.126 0 4.25-.85 4.676zm10.201-8.501c-5.525 0-10.2-3.825-10.2-6.376 0-2.55 1.275-5.525 10.626-4.25 5.525.85 9.35 3.4 9.35 5.95.425 2.55-4.25 4.676-9.776 4.676z"/></svg>