<svg xmlns="http://www.w3.org/2000/svg"><path d="M32.157 23.58c-.85-2.975-1.275-2.975-1.275-9.776 0-6.8 0-8.926.85-9.776.85-.85 1.7-1.275 1.7-2.125 0-.85-1.7-1.275-10.201-1.275-8.501 0-10.201.425-10.201 1.275 0 .85.85.85 1.7 2.125.85.85.85 2.976.85 9.776s-.425 6.8-1.275 9.776c-.85 2.976-1.7 5.526-6.376 22.528C3.254 63.109.28 70.335.28 75.01c0 3.4 3.825 8.5 11.476 8.5h22.952c8.076 0 11.476-5.1 11.476-8.5 0-4.676-2.975-11.902-7.65-28.903-4.676-17.002-5.951-19.552-6.376-22.528zM10.904 46.533c2.55-9.351 4.25-14.452 5.101-17.427.85-2.55 1.275-3.826 1.275-5.1 0-.426 0-.85.425-.85.85-2.551.85-3.826.85-9.777 0-5.1 0-7.65-.425-9.35h10.201c-.425 1.7-.425 4.25-.425 9.35 0 5.95.425 7.226.85 9.776 0 .425 0 .425.425.85.425 1.275.85 2.55 1.275 5.1.85 2.976 2.55 8.077 5.101 17.428.425 1.275.85 2.55.85 3.4H9.204c.85-.85 1.275-2.125 1.7-3.4zm31.879 28.052c0 1.7-2.126 5.526-8.501 5.526H11.329c-6.375 0-8.5-3.825-8.5-5.526 0-2.975 1.275-7.65 3.825-15.726.85-2.125 1.275-4.676 2.125-7.65h1.275c-.85 2.974-1.7 5.525-2.125 7.65-2.125 7.226-3.4 11.901-3.4 14.451 0 1.7 2.125 5.1 8.076 5.1h21.252c5.95 0 8.076-3.4 8.076-5.1 0-2.55-1.276-7.225-3.4-14.451-.85-2.125-1.276-5.1-2.126-7.65h1.275c.85 2.55 1.7 5.1 2.125 7.65 1.7 8.076 2.976 13.176 2.976 15.726z"/></svg>