<svg xmlns="http://www.w3.org/2000/svg"><path d="M33.982 70.609h-4.25v-37.83c0-2.55-2.125-4.675-4.676-4.675h-4.25v-2.55c0-1.275-.85-2.125-2.125-2.125V1.75l-1.7-1.7V23.43c-1.276 0-2.126.85-2.126 2.125v2.55h-4.25c-2.55 0-4.676 2.125-4.676 4.676v37.829H1.68c-.425 0-.85.425-.85.85s.425.85.85.85h9.35v21.677H6.78c-.425 0-.85.425-.85.85s.425.85.85.85h20.828c.425 0 .85-.425.85-.85s-.425-.85-.85-.85h-4.25V72.309h9.35c.425 0 .85-.425.85-.85 1.7-.425 1.275-.85.425-.85zm-16.576-44.63h2.125v2.125h-2.125V25.98zm-5.101 44.63h-3.4V50.632h3.4v19.977zm5.1 23.802h-3.4V72.734h3.4V94.41zm0-23.802h-3.4V50.632h3.4v19.977zm5.526 23.802h-3.4V72.734h3.4V94.41zm0-23.802h-3.4V50.632h3.4v19.977zm5.1 0h-3.4V50.632h3.4v19.977zm0-22.103H8.48V32.78c0-1.276 1.275-2.55 2.55-2.55H25.48c1.275 0 2.55 1.274 2.55 2.55v15.726z"/><path d="M25.056 30.654H11.88c-1.275 0-2.55 1.276-2.55 2.55v14.877h18.276V33.205c0-1.275-1.275-2.55-2.55-2.55z"/></svg>