<svg xmlns="http://www.w3.org/2000/svg"><path d="M40.38 45.007c-2.125 0-2.975.425-3.825.85v7.226c1.7-.85 2.976-1.275 3.826-2.125v-5.95zM36.555 11.004V37.78c1.7 0 2.976-.425 3.826-.425V25.455 10.579c2.125-.85 3.4-2.55 3.4-5.101 0-2.975-2.55-5.1-5.1-5.1-2.976 0-5.101 2.55-5.101 5.1-.425 2.975 1.275 4.675 2.975 5.526zM33.58 38.206c-3.825-.425-6.8-1.7-7.65-2.975-1.7-1.7-.85-4.25.85-2.975s2.975 2.125 6.375 2.125c2.55 0 2.975-2.125 1.7-3.4-1.275-1.7-.425-2.126-3.4-2.976-3.4-.85-10.626 0-11.476 4.676-.85 3.825 2.55 7.65 7.226 9.776.85-2.125 3.825-3.826 6.375-4.25zm-2.125-7.65h1.275c.425.425.85.425.85.85h-1.275c-.85-.425-1.275-.85-.85-.85zM41.656 84.961c-.425 0-3.825 1.7-4.675 1.7.425 5.526.85 8.926 1.275 8.926.85 0 1.275-3.825 1.7-9.35 4.25 1.7 5.95 2.55 6.376 2.125.425-.425-1.7-1.7-4.676-3.4z"/><path d="M49.732 43.732c-2.55.425-5.1 1.275-8.076 1.275 1.276.425 2.55 1.275 2.55 2.55 0 2.976-3.825 4.676-8.5 6.801-4.676 2.125-8.076 4.25-8.076 7.226 0 3.4 2.125 3.825 4.25 5.525 1.7-.85 7.651-2.975 8.501-3.825v-3.4c1.275.425 2.126.85 2.126 1.275 0 1.275-.426 2.55-5.526 4.675-5.1 2.126-6.8 3.4-6.8 5.95 0 1.701.85 3.401 2.55 5.101 1.7-1.275 7.225-2.975 7.65-3.825v-2.125c.85.425.85.85.85 1.275 0 1.7-1.7 2.125-5.525 3.825-3.4 1.7-4.25 2.126-3.826 4.25.425 1.276 1.276 2.551 3.4 3.826.85-.425 4.251-2.55 5.101-3.4v-1.275c2.126.85-.425 2.55-2.55 4.25-3.826 2.55-7.226 4.25-6.8 4.676.424.425 2.124-.425 7.65-2.55 5.526-2.126 6.376-3.401 6.8-5.526 0-1.275 0-2.125-.85-2.975-1.7 1.275-5.95 1.7-7.65 2.975v1.275c-2.125-1.275 0-2.55 3.4-3.826 5.526-1.275 6.801-3.825 6.376-6.375 0-1.275-.85-2.55-1.7-3.826-1.275.85-8.076 2.976-8.501 3.4v2.551c-.85-.425-1.275-.85-1.275-1.7 0-1.7 1.275-1.7 5.1-3.4 3.826-1.7 8.501-4.25 8.076-7.651 0-2.126-1.275-3.4-2.975-4.676-1.275.425-8.076 3.4-8.926 3.826v3.4c-1.7-.85-2.125-1.7-2.125-2.55 0-1.275 4.25-2.126 10.2-5.1 5.951-2.551 6.801-6.376 6.376-9.777-.425-.425-.85-1.275-1.275-2.125zM66.309 13.554c-8.926 0-13.602-.425-16.152-2.55-2.55-1.7-5.1-1.276-5.1.85 0 2.125-1.276 2.975-2.55 2.975-1.276 0-1.276-.425-1.276 1.275v7.65c0 2.126.425 3.401 1.275 2.126 1.276-1.275.85-1.275 5.1.425 4.251 1.7 5.526-.425 5.526-1.7s1.276-1.7 3.826-.425 5.525.425 5.95-1.7c0-2.125 1.275-1.7 3.826-1.7 2.55 0 1.7-2.976 2.55-2.976.85 0 4.675.425 6.376-2.125 1.275-2.975-.425-2.125-9.351-2.125zM23.38 24.18c0 1.275 1.274 2.975 5.525 1.7 4.25-1.7 3.825-1.275 5.1-.425 1.275 1.275 1.275 0 1.275-2.125v-7.65c0-1.701 0-1.276-1.275-1.276s-2.125-.85-2.55-2.975c0-2.126-2.55-2.55-5.1-.85-2.55 1.7-7.226 2.55-16.152 2.55-8.926 0-10.626-.85-9.351 1.7 1.275 2.55 5.525 2.125 6.375 2.125.85 0 0 3.4 2.55 2.976 2.551 0 3.826-.425 3.826 1.7s2.975 2.975 5.95 1.7c2.976-.85 3.826-.425 3.826.85z"/><path d="M45.482 28.43c-3.4.85-2.126 1.275-3.4 2.976-1.276 1.7-.85 3.4 1.7 3.4 3.4 0 4.25-.85 6.375-2.125 1.7-1.275 2.55.85.85 2.975-1.7 1.7-5.525 2.975-13.601 2.975-8.076.425-10.626 4.25-11.476 7.651-.425 2.976.425 6.376 4.675 9.351 1.7-.85 5.1-2.55 5.526-2.55l-.85-.85c-1.7-1.275-2.976-3.4-2.55-4.676 0-2.975 7.65-2.55 14.026-3.825 6.376-1.275 11.05-5.95 10.2-10.626-.85-5.1-8.075-5.526-11.475-4.676zm-.425 2.55c-.425.426-.85.426-1.276 0l.85-.85c.426-.425.85-.425 1.276 0 0 .425-.425.85-.85.85z"/></svg>