<svg xmlns="http://www.w3.org/2000/svg"><path d="M63.883.318c-8.925 0-16.151 4.25-18.276 9.775-2.126-2.125-4.676-4.675-9.351-4.675-5.526 0-8.076 3.4-10.201 5.95-2.126 2.55-3.4 4.251-6.376 4.251-2.975 0-4.25-1.275-6.376-4.25-2.125-2.55-5.1-5.951-10.2-5.951-1.276 0-2.551 1.275-2.551 2.55s1.275 2.55 2.55 2.55c2.976 0 4.25 1.276 6.376 4.251 2.125 2.55 5.1 5.95 10.201 5.95 5.526 0 8.076-3.4 10.201-5.95 2.125-2.55 3.4-4.25 6.376-4.25 2.975 0 4.25 1.275 6.375 4.25.85 1.275 2.126 2.55 3.826 3.825 2.975 4.676 9.35 7.651 17.002 7.651 10.2 0 18.701-5.525 18.701-12.751C82.585 5.844 74.51.318 63.884.318z"/></svg>