<svg xmlns="http://www.w3.org/2000/svg"><path d="M76.31 10.63C72.06 2.554 62.71 2.129 55.059 5.954c-5.1 2.55-8.926 6.376-11.476 11.051 0-.425-.425-.85-.425-1.275-2.125-3.825-4.25-7.226-7.65-9.776-7.652-5.95-19.128-8.076-27.204-1.7-7.225 5.95-10.2 16.152-5.1 24.652 1.7 2.55 2.975 4.676 5.1 6.376 1.7 1.7 3.826 2.975 5.526 4.676 3.825 3.4 7.65 7.225 10.626 11.476 3.4 3.825 5.95 8.5 8.076 13.601 2.125 5.1 2.975 10.626 2.55 15.727 0 0 .425.425.425 0 1.275-3.826 2.125-7.65 1.7-11.901-.425-5.526-1.7-11.052-4.25-15.727-2.55-5.1-5.95-9.351-9.776-13.601a39.375 39.375 0 00-5.95-5.951c-1.7-1.7-3.826-2.975-5.526-4.675-2.976-2.976-5.1-5.526-4.25-9.776.424-3.826 2.975-7.651 5.95-9.777 3.825-2.55 8.5-2.975 12.751-1.275 4.25 1.7 6.801 5.1 8.926 8.926 1.275 2.126 2.125 4.25 2.975 6.376.425 1.275.85 2.125 1.276 3.4.425 1.7 1.275 2.55 2.55 3.4 1.7.85 4.25.426 4.675-2.125v-.85c0-1.275.425-2.55.85-3.825 2.126-7.226 8.501-13.602 16.577-13.602 8.926 0 7.65 12.752 5.526 18.702-1.7 4.676-3.826 8.926-6.376 12.752-2.55 4.25-5.95 8.5-9.35 12.326-2.976 4.25-6.377 8.076-8.927 12.751-2.55 4.676-4.25 9.351-5.95 14.027 0 0 .425.425.425 0 3.4-6.8 7.225-13.177 12.75-18.277 7.227-7.226 15.303-14.027 19.553-23.378 5.1-8.5 9.35-19.552 4.675-28.052z"/></svg>