<svg xmlns="http://www.w3.org/2000/svg"><path d="M67.284 36.506c-11.052 0-19.978 8.926-19.978 19.977S56.232 76.46 67.284 76.46c11.05 0 19.976-8.926 19.976-19.977 0-11.05-8.925-19.977-19.977-19.977zm5.95 14.877c-2.55 0-4.675-2.126-4.675-4.676 0-2.55 2.125-4.675 4.675-4.675s4.676 2.125 4.676 4.675-2.126 4.676-4.676 4.676zM15.853 25.03C7.778 25.03.977 31.83.977 39.907c0 8.075 6.375 14.876 14.876 14.876 8.076 0 14.877-6.8 14.877-14.876-.425-8.501-6.8-14.877-14.877-14.877zm5.526 11.476c-1.7 0-2.975-1.275-2.975-2.975 0-1.7 1.275-2.975 2.975-2.975 1.7 0 2.975 1.275 2.975 2.975 0 1.7-1.275 2.975-2.975 2.975zM52.407 19.504c5.1 0 9.35-4.25 9.35-9.35 0-5.101-4.25-9.352-9.35-9.352s-9.351 4.25-9.351 9.351c0 5.1 4.25 9.351 9.35 9.351zm2.975-16.576c1.275 0 2.55.85 2.55 2.55 0 1.7-.85 2.55-2.55 2.55-1.275 0-2.55-.85-2.55-2.55 0-1.7 1.275-2.55 2.55-2.55zM31.154 43.732l-.85 2.55 15.727 6.376 2.125-6.376-17.002-2.55z"/><path d="M43.907 16.104l-.85-1.275L25.63 27.155l3.4 3.825 14.877-14.876zM54.957 19.93l2.55 17.426 7.226-2.125-8.076-15.727-1.7.425z"/></svg>