<svg xmlns="http://www.w3.org/2000/svg"><path d="M14.066 50.243c1.275 0 2.55-.85 2.975-1.7l3.4-7.65 3.4 20.402c.426 1.275 1.276 2.55 2.976 2.55s2.975-.85 3.4-2.55l10.626-39.53 5.95 63.332c0 1.7 1.276 2.975 2.976 2.975h.425c1.275 0 2.55-.85 2.976-2.55l10.2-40.38 2.976 15.728c.425 1.275 1.275 2.55 2.975 2.55 1.275 0 2.55-.85 3.4-2.125l5.101-12.752h22.953c0-1.275.425-2.975.425-4.25v-2.125H75.697c-1.275 0-2.55.85-2.975 2.125l-1.7 4.675-3.826-19.127c-.425-1.275-1.7-2.55-2.975-2.55-1.275 0-2.976.85-2.976 2.55l-8.925 36.13-5.526-62.057c0-1.7-1.275-2.55-2.975-2.976-1.7 0-2.976.85-3.4 2.126L28.941 45.568l-2.55-16.152c-.425-1.275-1.275-2.55-2.55-2.55-1.276 0-2.55.425-3.4 1.7L13.64 43.868H.464v.85c0 1.7 0 3.825.425 5.525h13.177z"/></svg>