<svg xmlns="http://www.w3.org/2000/svg"><path d="M16.266 31.47c1.275-2.126 2.976-4.251 4.676-6.377-2.125-3.825-4.25-7.225-5.1-11.05-1.276-4.676-.426-7.226 2.975-7.652 3.825-.425 8.075.85 11.476 2.55 1.7.85 3.4 1.7 4.675 2.551.85-.85 1.7-1.275 2.55-2.125-1.7-1.275-3.825-2.55-5.95-3.826-3.826-2.125-7.65-4.25-13.602-4.25-2.975 0-6.8 1.275-8.5 5.1-1.7 3.4-1.276 6.801-.85 9.776 2.125 4.676 4.675 10.202 7.65 15.302zM41.77 41.245c5.1 0 8.925-4.25 8.925-8.926 0-5.1-4.25-8.926-8.925-8.926-4.676 0-8.926 4.25-8.926 8.926-.425 5.1 3.825 8.926 8.925 8.926z"/><path d="M80.448 26.369c-4.25-4.25-8.5-5.526-12.751-6.376-8.501-2.125-15.302-2.125-19.977-2.125l-1.275-1.275c-.425.425-.85.425-1.275.85.425 0 .425.425.85.425-2.55 0-3.826.425-4.25.425 5.95-5.1 12.325-8.926 18.701-10.626 4.676-1.276 7.226-.425 7.65 2.975.426 2.55-.424 5.1-.85 7.65.426 0 .85 0 .85.426h.426c.85.425 1.7.425 2.55.85 1.275-2.55 2.126-5.526 2.126-9.351 0-2.975-1.276-6.8-5.101-8.501-3.4-1.7-6.8-1.275-9.776-.85-11.901 2.55-21.677 10.2-30.603 18.702-5.526 5.525-10.626 11.901-14.027 18.277 2.126.85 4.676 1.7 7.226 2.125 3.4-5.1 7.65-10.201 12.326-14.877 2.55-2.55 5.1-4.675 8.076-7.225.425 0 2.55 0 5.526.425 2.975 2.125 4.675 3.825 4.675 3.825s-.85-1.275-2.975-3.4c4.25.85 10.201 2.125 17.427 4.675 3.4 1.275 7.65 3.4 9.776 6.376 2.55 2.975.85 5.1-3.4 7.65-8.076 4.676-19.978 5.951-31.454 5.951h-2.125c3.4 2.976 6.8 5.526 9.776 7.651 6.376-.425 12.326-1.7 18.277-3.825.425 0 .85-.425 1.275-.425.425 0 .425 0 .85-.425.425 0 .85-.425 1.275-.425 1.7-.85 3.826-1.7 5.526-2.976 2.55-1.7 5.1-3.825 6.375-7.226 2.126-3.4.425-7.65-1.7-9.35z"/><path d="M67.697 49.321c.425 2.125.85 4.25.425 5.95-.425 3.826-2.975 4.251-7.65 2.976-8.927-2.55-18.278-9.776-26.778-17.852-2.126-2.125-3.826-4.25-5.951-6.376-1.7 2.126-3.4 4.25-4.675 6.376 1.7 1.7 3.4 3.825 5.1 5.526 2.975 2.55 5.526 5.1 8.5 7.65-2.124 1.276-4.25 2.126-6.375 3.4-3.4 1.276-7.65 2.976-11.476 2.551-3.825-.425-4.25-2.975-2.975-7.65 0-.85.425-1.276.85-2.126l-6.376-2.55c-.425.85-.425 2.125-.85 2.975-.425 2.975-.85 6.376.85 9.776 1.7 3.4 5.526 5.1 8.501 5.1 5.95 0 9.776-2.55 13.602-4.25 2.55-1.7 5.1-3.4 7.225-5.1 5.95 4.25 12.327 7.65 19.552 9.35 2.976.426 6.376.85 9.776-.85 3.4-1.7 5.1-5.525 5.1-8.5 0-2.976-.85-5.951-1.7-8.076-1.7.425-2.975 1.275-4.675 1.7z"/><path d="M27.318 47.196c-1.7-1.7-3.4-3.826-5.1-5.526-4.251-.85-8.502-2.125-11.902-4.25-4.25-2.55-5.526-4.676-3.4-7.651 1.275-1.7 2.975-2.55 4.675-3.826-.85-1.275-1.275-2.975-1.7-4.25-2.125.85-4.676 2.55-6.8 4.675C.964 28.495-.736 32.32.54 35.72c1.275 3.4 3.825 5.526 6.375 7.226 7.226 4.676 15.727 6.8 24.653 7.651-1.7-.85-2.975-2.125-4.25-3.4zM53.67 41.245h.85c1.7-1.275 3.825-3.4 6.376-6.376.85 1.276 1.7 2.976 2.55 4.676 1.275-.425 2.125-.85 3.4-.85-1.275-2.126-2.975-3.826-4.25-5.526 1.7-2.125 3.4-4.25 5.1-6.8-.85-.426-1.275-.426-1.7-.85-.425 0-.85-.426-1.275-.426-1.275 2.126-2.125 4.25-3.4 6.376-5.1-5.95-8.926-8.5-8.926-8.5-.425 0 3.4 3.4 7.65 10.625-2.55 2.975-4.675 5.95-6.375 7.651zM21.367 21.693c1.275-.425 2.55-.85 3.4-.85l2.55-2.55.425-.425c-2.55 0-5.1.425-8.076 1.275.425.85 1.276 1.7 1.7 2.55z"/></svg>