<svg xmlns="http://www.w3.org/2000/svg"><path d="M41.78 6.215S-6.25-15.887 1.403 26.617c.425 2.125.85 4.25 1.7 6.376h7.65l4.251-9.351c.425-.85 1.275-1.275 2.125-1.275.85 0 1.7.85 1.7 1.7l1.7 9.776L27.33 8.34c.425-.85 1.276-1.7 2.126-1.275.85 0 1.7.85 1.7 1.7l3.4 37.404 5.526-21.677c.425-.85 1.275-1.275 2.125-1.275.85 0 1.7.85 1.7 1.7l2.125 11.476 1.276-2.975c.424-.85.85-1.275 1.7-1.275h9.35c.85-2.976 3.401-4.676 6.376-4.676 3.826 0 6.801 2.976 6.801 6.8 0 3.826-2.975 6.802-6.8 6.802-2.976 0-5.526-2.126-6.376-4.676h-8.076l-2.975 7.226c-.425.85-1.276 1.275-2.126 1.275-.85 0-1.7-.85-1.7-1.7l-1.7-9.351-5.95 24.227c-.426.85-.85 1.276-1.7 1.276-.851 0-1.701-.85-1.701-1.7l-3.4-38.255-7.226 24.228c-.425.85-.85 1.275-2.125 1.275-.85 0-1.7-.85-1.7-1.7l-2.126-12.326-2.125 4.675c-.425.85-.85 1.275-1.7 1.275H4.802c10.201 21.678 36.979 37.404 36.979 37.404S77.06 53.82 82.16 27.042c7.65-42.93-40.38-20.827-40.38-20.827z"/></svg>