<svg xmlns="http://www.w3.org/2000/svg"><path d="M20.47 53.857c-1.276 3.4-1.7 3.4 0 4.676 1.274 1.275.85-2.55.85-4.676 0-2.125-.426-2.125-.85 0zM21.744 53.857c0 2.125-.424 5.95.85 4.676 1.276-1.275 1.276-1.276 0-4.676-.85-2.125-.85-2.125-.85 0zM18.77 48.757c-.85-.85-1.276-1.275-3.826-.425-2.55.85-2.975.85-2.55 3.825.425 2.125 1.7 2.55 3.825 2.125 2.125-.425 3.4-1.7 3.4-2.975 0-1.7.425-1.7-.85-2.55zM27.695 48.332c-2.55-.85-2.55-.425-3.825.425-.85.85-.85.85-.85 2.125s1.275 2.55 3.4 2.975c2.125.425 3.4.425 3.825-2.125.425-2.55-.425-2.55-2.55-3.4z"/><path d="M35.771 30.055c-3.825-.85-6.8-3.4-6.8-5.526 0-2.125 1.7-3.825 3.4-3.825s3.4-2.55 3.4-5.95c0-3.401-3.4-5.952-7.65-5.952H14.518c-4.25 0-7.65 2.55-7.65 5.951 0 3.4 1.7 5.95 3.4 5.95s3.4 1.701 3.4 3.826-2.976 4.676-6.8 5.526c-3.826.85-6.802 5.1-6.802 9.35v32.73c0 4.25 3.4 7.65 7.651 7.65h27.628c4.25 0 7.65-3.4 7.65-7.65v-32.73c-.424-4.25-3.4-8.5-7.225-9.35zm-5.1 34.003c.425 2.125.425 2.55-2.976 4.676-3.4 2.55-3.4 2.55-4.25 2.55h-1.7-1.7c-.85 0-.85 0-4.251-2.55-3.4-2.55-3.4-2.55-2.975-4.676.425-2.125-.425-4.25-.425-5.525 0 0 .425.425 1.275.425.85 0 1.275-.425 1.275-.425s0 .85.425 2.125l.85 1.7v.425c0 .425 0 .85.425.85 0 .425 0 .85.425.85h.425c0 .425.425.425.425.425h.425c0 .425.425.425.425.425h.425c0 .425.425.425.425.425h.425c0 .425.425.425.425.425.426 0 .426 0 .426-.425l.425.425c.425 0 .425-.425.425-.425h.425c.425 0 .425 0 .425-.425h.425c.425 0 .425-.425.425-.425h.425c.425 0 .425-.425.425-.425h.425c.425 0 .425-.425.425-.85.425 0 .425-.425.425-.85v-.425c.425-.425.85-.85.85-1.7.425-1.275.425-2.125.425-2.125s.425.425 1.275.425c.85 0 1.275-.425 1.275-.425 1.7 1.275.85 3.4 1.276 5.525zm-12.752-1.275c0 .85 0 .85-.425.85s-.425 0-.425-.85 0-.85.425-.85.425.425.425.85zm0 1.7c0 .425 0 .85-.425.85s-.425-.425-.425-.85 0-.85.425-.85c.425.425.425.425.425.85zm-.85-1.7c0 .85 0 .85-.425.85s-.425-.425-.425-.85 0-.85.425-.85c.85 0 .425 0 .425.85zm0 1.275c0 .425 0 .425-.425.425s-.425-.425-.425-.85 0-.85.425-.425.425.425.425.85zm-.425-1.7c0 .85 0 .85-.425.425-.425 0-.425-.425 0-.85 0-.425 0-.85.425-.85v1.275zm-.425 1.275v.425s-.425-.425-.425-.85 0-.85.425-.425 0 .425 0 .85zm0-1.275c0 .425 0 .425 0 0-.425 0-.425 0 0 0-.425-.85-.425-.85 0-.85v.85zm2.125 1.7c-.425 0-.425-.425-.425-1.275 0-.425 0-1.275.425-.85.425 0 .425.425.425 1.275 0 .85 0 1.275-.425.85zm.425 1.7c-.425 0-.425-.425-.425-.85s0-.85.425-.425c.425 0 .425 0 .425.85-.425.425 0 .425-.425.425zm.85-1.275c.425 0 .425 0 .425.85s0 .85-.425.85-.425-.425-.425-.85-.425-.85.425-.85zm-.425-1.275c0-.85 0-1.275.425-1.275s.425.85.425 1.275c0 .85 0 1.275-.425.85-.85 0-.425 0-.425-.85zm2.126.85c0 .85 0 .85-.425.85-.85 0-.425 0-.425-.85s0-1.7.425-1.7.425.85.425 1.7zm0 1.7c0 .85 0 .85-.425.85s-.425-.425-.425-.85 0-.425.425-.425c.425-.425.425-.425.425.425zm.85-.85c.425 0 .425 0 .425.425 0 .85 0 .85-.425.85s-.425 0-.425-.85c-.425-.425-.425-.425.425-.425zm0-2.55c.85 0 .425.85.425 1.7s0 .85-.425.85-.425 0-.425-.85c-.425-.85-.425-1.7.425-1.7zm1.275 2.125c.425 0 .425 0 .425.85 0 .425 0 .85-.425.85s-.425 0-.425-.85c-.425-.425-.425-.425.425-.85zm-.425-2.55c.425 0 .425.425.425 1.275 0 .85.425.85-.425 1.275-.425.425-.425-.425-.425-.85 0-.85 0-1.7.425-1.7zm1.275 2.125c-.425 0-.425 0-.425-.85s0-1.275.425-1.275.425.425.425.85c0 .85 0 1.275-.425 1.275zm.425.85c0 .425 0 .85-.425.85s-.425 0-.425-.85c0-.425 0-.85.425-.85s.425 0 .425.85zm2.125-2.125c-.425-.85-.425-1.275 0-1.275 0 0 .425 0 .425.425s0 .425-.425.85zm0 .85c0 .425 0 .85-.425.85 0 0-.425 0-.425-.425s0-.425.425-.85.425 0 .425.425zm-.425-.85c-.425 0-.425 0-.425-.425v-.85c.425 0 .425.425.425.85.425.425.425.425 0 .425zm0 1.275c0 .425 0 .85-.425.85s-.425 0-.425-.425 0-.425.425-.85.425 0 .425.425zm-.425-.85c-.425 0-.425 0-.425-.85v-.85c.425 0 .425 0 .425.85s.425.85 0 .85zm-.425 1.275c0 .425 0 .85-.425.85s-.425 0-.425-.85c0-.425 0-.85.425-.85s.425.425.425.85zm-.425-.85c-.425 0-.425 0-.425-.85v-.85c.425 0 .425 0 .425.85.425.85.425.85 0 .85zm6.8-25.077c-.85-1.276-1.274-1.275-1.7-1.7l1.7 1.7c.426 1.7-.424 3.4-.85 5.95-.424 2.55 0 3.4.85 5.1.85 1.7 0 2.551.85 3.401 0 0 0 .425.426.425 1.275 1.275 0 2.975-1.7 4.25-1.7 1.7-2.976-.85-4.25.426-.85.85-.426 1.7-.426 2.125 0 0-.425 0-.425.425h-.425s-.425 0-.425.425h-.425s-.425 0-.425.425l-.425-.425c-.425 0-.425 0-.425.425l-.425-.425h-.425v.425s-.425-.425-.85-.425h-.425v.425-.425h-.425c-.425 0-.425 0-.85.425v-.425h-.425c-.426 0-.426 0-.426.425 0-.425 0-.425-.425-.425 0 0-.425 0-.425.425l-.425-.425h-.425s0-.425-.425-.425h-.425s0-.425-.425-.425c.425-.425.425-1.275-.425-2.125-1.275-1.275-2.55.85-4.25-.425-1.7-1.7-2.976-2.976-1.7-4.25l.425-.426c.424-1.275 0-2.125.85-3.4.85-1.7 1.275-2.55.85-5.1-.425-2.551-1.276-4.676-.425-5.951.425-1.276 1.275-1.7 1.275-1.7-.425 0-.85.424-1.7 1.7-.85 1.275 0 3.825.425 6.375.425 2.126.425 2.976-.85 5.1-.425.426-.425.85-.85 1.276-.426-1.275-1.276-2.975-1.7-6.8-.426-7.226 6.8-12.752 13.6-12.752 6.801 0 14.027 5.526 13.602 12.751 0 3.4-.85 5.526-1.7 6.8 0-.424-.425-.85-.85-1.274-1.275-2.125-1.275-2.55-.85-5.1 0-2.551.425-5.101-.425-6.376zM28.97 6.677s0-.425 0 0V.302H13.67v6.375H28.97z"/></svg>