<svg xmlns="http://www.w3.org/2000/svg"><path d="M60.196 12.23L49.144 6.278l-.425.425L37.67.754l-17.002 2.55v14.45L9.19 12.23.69 29.231l11.05 5.95L.69 43.684l8.5 14.876 11.051 5.95.425-.424 11.052 5.95 17.001-2.55V53.034l11.477 5.525 8.5-17.002-11.05-5.95 11.05-8.501-8.5-14.877zM56.37 38.156l9.351 4.25-6.376 12.752-9.35-4.676-3.4-1.7v16.152l-12.327 1.7V50.059l-3.826 2.975-9.35 7.225-5.951-10.626 9.776-7.65 3.4-2.55-3.825-1.701-9.351-4.25 6.376-12.752 9.35 4.676 3.4 1.7V10.954l12.327-1.7V25.83l3.826-2.974 9.35-7.226 5.951 10.626-9.35 7.226-.426.425-3.4 2.55 3.825 1.7z"/></svg>