<svg xmlns="http://www.w3.org/2000/svg"><path d="M45.695 23.942h-2.126v-1.7c0-2.976-2.125-5.1-4.25-5.1h-1.7v-.851c0-1.7-1.275-2.975-2.55-2.975h-4.676V11.19c2.125-.85 3.4-2.55 3.4-5.1 0-2.975-2.55-5.526-5.525-5.526-2.975 0-5.526 2.55-5.526 5.526 0 2.55 1.7 4.25 3.4 5.1v2.126h-4.675c-1.275 0-2.55 1.275-2.55 2.975v.85h-1.275c-2.55 0-4.25 2.125-4.25 5.1v1.7h-2.126c-5.95 0-11.05 5.101-11.05 11.052v45.48c0 5.95 5.1 11.05 11.05 11.05h34.429c5.95 0 11.05-5.1 11.05-11.05v-45.48c0-6.376-4.675-11.051-11.05-11.051zM25.718 5.24c0-1.7 1.275-2.55 2.55-2.55 1.7 0 2.55 1.275 2.55 2.55 0 1.7-1.275 2.55-2.55 2.55-1.275.425-2.55-.85-2.55-2.55zM52.07 80.473c0 3.4-2.55 5.95-5.95 5.95H11.69c-3.4 0-5.95-2.55-5.95-5.95v-45.48c0-3.4 2.55-5.95 5.95-5.95h2.125v5.525H43.57v-5.526h2.126c3.4 0 5.95 2.55 5.95 5.95v45.48h.425z"/><path d="M43.57 42.644H13.815v3.825H43.57v-3.825zM43.57 49.87H13.815v3.825H43.57v-3.826zM43.57 56.67H13.815v3.826H43.57V56.67zM43.57 63.896H13.815v3.825H43.57v-3.825zM43.57 70.697H13.815v3.825H43.57v-3.825z"/></svg>