<svg xmlns="http://www.w3.org/2000/svg"><path d="M16.005 6.002h19.552c1.7 0 3.4-1.275 3.4-2.55 0-1.276-1.275-2.55-3.4-2.55H16.005c-1.7 0-3.4 1.274-3.4 2.55 0 1.7 1.7 2.55 3.4 2.55zM48.734 29.804l-4.676-2.55c-1.7-.85-2.975-2.976-2.975-4.676v-6.375c0-1.7.85-3.4 1.7-3.4s1.7-1.276 1.7-2.55c0-1.276-1.7-2.551-3.4-2.551H10.905c-1.7 0-3.4 1.275-3.4 2.55s.85 2.55 1.7 2.55 1.7 1.275 1.7 3.4v6.376c0 1.7-1.275 3.826-2.976 4.676l-4.675 2.55c-1.7.85-2.975 2.975-2.975 4.676v46.33c0 1.7 1.275 3.4 3.4 3.4h44.63c1.7 0 3.4-1.275 3.4-3.4V34.48c0-1.7-1.7-3.826-2.975-4.676zm-1.276 50.58H3.678v-45.48c0-.424.426-1.275.851-1.275l4.676-2.55c2.975-1.7 5.1-5.1 5.1-8.076v-6.375c0-1.7-.425-3.4-1.275-4.676h25.078c-.85 1.275-1.276 2.55-1.276 4.676v6.375c0 3.4 2.126 6.801 5.1 8.076l4.676 2.55c.425 0 .85.85.85 1.276v45.48z"/><path d="M20.256 23.854h11.051c1.7 0 2.55-1.276 2.55-2.55v-3.826c0-1.7-1.275-2.55-2.55-2.55H20.256c-1.7 0-2.55 1.275-2.55 2.55v3.825c0 1.275 1.275 2.55 2.55 2.55zM38.958 41.28c0-1.7-1.275-2.55-2.55-2.55H15.58c-1.7 0-2.55 1.275-2.55 2.55v4.676H7.08v31.453h38.254V45.956h-5.951V41.28h-.425zm-3.825 20.828H16.43V42.556h18.703v19.552z"/></svg>