<svg xmlns="http://www.w3.org/2000/svg"><path d="M54.722 34.894l13.176-7.65c.85-.426.85-1.276.425-2.126l-8.076-13.601c-.425-.85-1.275-.85-2.125-.425l-13.176 7.65c-.85.425-1.275 0-1.275-.85V2.591c0-.85-.85-1.7-1.7-1.7H26.243c-.85 0-1.7.85-1.7 1.7v15.301c0 .85-.425 1.276-1.276.85l-12.75-7.65c-.851-.425-1.701 0-2.126.425L.316 25.118c-.425.85 0 1.7.425 2.125l13.177 7.651c.85.425.85 1.275 0 1.7L.74 44.245c-.85.425-.85 1.275-.425 2.125l8.076 13.602c.425.85 1.275.85 2.125.425l13.177-7.651c.85-.425 1.275 0 1.275.85v15.302c0 .85.85 1.7 1.7 1.7h15.726c.85 0 1.7-.85 1.7-1.7V53.596c0-.85.426-1.275 1.276-.85l13.176 7.65c.85.426 1.7 0 2.125-.424l7.651-13.602c.425-.85 0-1.7-.425-2.125l-13.176-7.65c-.85-.426-.85-1.276 0-1.7z"/></svg>