<svg xmlns="http://www.w3.org/2000/svg"><path d="M38.17 3.841c0 1.7 1.275 2.976 2.975 2.976h14.877L37.32 25.518c-3.826-2.975-8.501-4.675-13.602-4.675-5.95 0-11.901 2.55-16.151 6.8-8.926 8.927-8.926 23.378 0 31.879 4.25 4.25 9.776 6.8 16.151 6.8 5.95 0 11.901-2.55 16.152-6.8 4.25-4.25 6.8-9.776 6.8-16.152 0-5.1-1.7-9.776-4.675-13.601l18.702-18.702v14.877c0 1.7 1.275 2.975 2.975 2.975 1.7 0 2.976-1.275 2.976-2.976V.442H41.145c-1.7.425-2.975 1.7-2.975 3.4zm-2.55 51.43c-2.976 2.976-7.226 4.676-11.477 4.676-4.25 0-8.5-1.7-11.476-4.675-6.376-6.376-6.376-17.002 0-23.378 2.975-2.975 7.226-4.675 11.476-4.675 4.25 0 8.501 1.7 11.476 4.675 2.976 2.975 4.676 7.226 4.676 11.476 0 4.676-1.7 8.926-4.676 11.902z"/></svg>