<svg xmlns="http://www.w3.org/2000/svg"><path d="M16.556 5.277h19.977c1.7 0 3.4-1.275 3.4-2.55s-1.7-2.55-3.4-2.55H16.981c-1.7 0-3.4 1.275-3.4 2.55s1.275 2.55 2.975 2.55zM49.284 29.08l-4.675-2.55c-1.7-.85-2.976-2.976-2.976-4.676v-6.376c0-1.7.85-3.4 1.7-3.4s1.7-1.275 1.7-2.55c0-1.276-1.274-2.55-3.4-2.55H11.455c-1.7 0-3.4 1.274-3.4 2.55 0 1.274.85 2.55 1.7 2.55s1.7 1.7 1.7 3.4v6.376c0 1.7-1.275 3.825-2.975 4.675l-4.675 2.55c-1.7.85-2.976 2.976-2.976 4.676v46.33c0 1.7 1.7 3.4 3.4 3.4h44.63c1.7 0 3.4-1.275 3.4-3.4v-46.33c0-1.7-1.275-3.826-2.975-4.676zm-9.776 29.327c0 1.7-1.7 3.4-3.4 3.4H16.556c-1.7 0-3.4-1.274-3.4-3.4V40.131c0-1.7 1.7-3.4 3.4-3.4h19.977c1.7 0 3.4 1.7 3.4 3.4v18.276h-.425z"/></svg>