<svg xmlns="http://www.w3.org/2000/svg"><path d="M47.019 36.907c-.425 0-.425.425-.425.425h.85c.425 0 .425-.425.425-.425h-.85zM38.093 37.331h.85s0-.425-.424-.425h-.85s0 .425.425.425z"/><path d="M83.998 53.483l-16.152-9.35c-.85-.426-.85-1.276 0-1.7l16.152-9.352c.85-.425 1.275-1.7.85-2.55l-9.776-17.002c-.425-.85-1.7-1.275-2.55-.85L56.37 22.03c-.85.425-1.7 0-1.7-.85V2.053c0-.85-.85-1.7-1.7-1.7H33.418c-.85 0-1.7.85-1.7 1.7v18.702c0 .85-.85 1.275-1.7.85l-16.152-9.351c-.85-.425-2.125 0-2.55.85L1.54 30.106c-.426.85 0 2.125.85 2.55l16.151 9.351c.85.425.85 1.275 0 1.7L1.54 53.483c-.85.425-1.276 1.7-.85 2.55l9.775 17.002c.425.85 1.7 1.275 2.55.85l16.152-9.35c.85-.426 1.7 0 1.7.85v18.701c0 .85.85 1.7 1.7 1.7H52.12c.85 0 1.7-.85 1.7-1.7V65.386c0-.85.85-1.276 1.7-.85l16.152 9.35c.85.425 2.125 0 2.55-.85l9.776-17.001c1.275-.85.85-2.126 0-2.55zM51.695 22.88c.425 0 .425.425.85.425-.425-.425-.85-.425-.85-.425-.85-.425-1.275-.425-1.275-.85.425 0 .85.425 1.275.85zm-.85.425c1.7 1.275 5.1 1.7 11.476 1.7 6.376 0 7.226-.425 6.376 1.276-.85 1.7-3.826 1.275-4.25 1.7-.426 0 0 2.55-1.701 2.125-1.7 0-2.55-.425-2.975 1.275 0 1.275-2.126 2.125-3.826 1.275-1.7-.85-2.55-.425-2.55.425s-.85 2.125-3.826 1.275c-2.975-.85-2.55-.85-3.4 0-.85.85-.85 0-.85-1.275v-5.525c0-1.276 0-.85.85-.85s1.7-.425 1.7-2.126c-.85-2.125.85-2.55 2.976-1.275zm-9.776 36.979v-2.125c.425-.425 5.525-2.125 6.375-2.55 1.275.85 2.125 1.7 2.125 3.4 0 2.125-2.975 4.25-5.525 5.1-2.55.85-3.4 1.276-3.4 2.126 0 .425.425.85.85 1.275v-1.7c.425 0 5.1-1.7 5.95-2.126.425.85 1.275 1.7 1.275 2.55 0 1.7-.85 3.401-4.675 4.251-2.55.85-3.825 1.7-2.55 2.55v-.85c1.275-.85 4.25-1.275 5.525-2.125.425.425.425 1.275.425 2.125-.425 1.275-.85 2.55-4.675 3.826-3.826 1.275-5.1 2.125-5.526 1.7-.425-.425 2.125-1.7 4.676-3.4 1.7-1.276 3.4-2.126 1.7-2.976v.85c-.425.85-2.975 2.125-3.4 2.55-1.276-.85-2.126-1.7-2.55-2.55-.426-1.275.424-1.7 2.55-2.975 2.55-1.275 3.825-1.7 3.825-2.55 0-.425-.425-.85-.85-.85v1.275c-.425.85-4.25 2.125-5.526 2.55-1.275-.85-1.7-2.125-1.7-3.4 0-1.7 1.275-2.976 4.676-4.25 3.4-1.276 3.825-2.551 3.825-3.401 0-.425-.425-.425-1.275-.85v2.125c-.85.425-4.676 2.125-5.95 2.55-1.7-1.275-2.976-1.275-2.976-3.825 0-2.125 2.125-3.826 5.526-5.1 3.4-1.276 5.95-2.976 5.95-4.676 0-.85-.85-1.275-1.7-1.7 2.125-.425 3.825-.425 5.526-.85.425.425.85 1.275.85 2.125.425 2.55 0 4.675-4.25 6.8-4.251 2.126-7.227 2.55-7.227 3.4.85.426 1.276.85 2.126 1.701zm5.95 15.302c-.425 0-.425-.425-.85-.85 1.275-.85 1.7-1.7 2.125-2.976v-.85c.425.85.425 1.275 0 2.125 0 .85-.425 1.7-1.275 2.55zm1.275 1.7c-.425.425-1.275-.425-4.25-1.275-.425 4.25-.85 6.8-1.275 6.8-.425 0-.85-2.55-.85-6.375.85 0 2.975-1.276 3.4-1.276 1.7.85 2.975 2.126 2.975 2.126zm-11.476-4.25v-1.7.424c0 1.275.85 2.125 2.125 2.975-.425.425-.85.425-.85.425-.425-.424-.85-1.275-1.275-2.125zm8.076-22.953v-2.125c.425.425.85.425.85.85v.425l-.425-.425-.425 1.275zm3.4-4.25c-4.25.85-9.776.85-9.776 2.55 0 .85.85 2.55 2.126 3.4l.425.425v-5.1c.85 0 1.275-.425 2.975-.425v4.25c-.85.425-1.7.85-2.975 1.275-.425 0-2.976 1.275-3.826 1.7-2.975-1.7-3.825-4.25-3.4-6.375.425-2.55 2.55-5.1 8.076-5.526 5.525 0 8.5-.85 9.35-2.125.85-1.275.426-2.975-.85-2.125-1.274.85-2.125 1.275-4.25 1.275-1.7 0-2.125-1.275-1.275-2.55.85-1.276 0-1.7 2.55-2.126 2.125-.425 7.651 0 8.076 3.4.85 4.251-2.55 7.226-7.226 8.077zm-8.5 3.4v-.425s.425-.425.85-.425v2.125-1.7c-.85 0-.85.425-.85.425zm.425-14.027c-.425 0-.85-.425-1.276-.425l-.425-.425s-.425 0-.85.425h-.85c.85-.425 1.7-.425 1.7-.425l.425.425c.425-.425.85 0 1.276.425 0-.425.425-.425.425-.425v1.7c-.425-.85-.425-.85-.425-1.275zm-2.55 0c2.125.425 1.7.85 2.55 2.126.85 1.275.425 2.55-1.276 2.55-2.125 0-2.975-.425-4.25-1.275-1.275-.85-1.7.85-.85 2.125.85.85 2.975 1.7 5.525 2.125-2.125 0-3.825 1.275-4.675 2.976-3.4-1.276-5.526-3.826-5.1-6.801.424-3.826 5.95-4.25 8.075-3.826zm1.274 6.376h-.425c-2.125-.425-3.4-.85-3.4-1.275l-.425-.425c1.275.85 2.125 1.275 4.25 1.275h.425c.425 0 1.276 0 1.276-.425v1.7-.85c-.85-.425-1.276-.425-1.7 0zm5.951 0v-1.275c.425 0 .85.425 1.275.425h.425c2.125 0 2.975-.425 4.25-1.275 0 0 0 .425-.424.425-.425.425-1.7 1.275-3.4 1.275h-.426c-.425 0-1.275 0-1.275-.425l-.425.85zm0-5.526v-1.275c.425 0 .85-.425 1.275-.425l.425-.425c.425 0 .85.425 2.125.425h-.85c-.425 0-.85-.425-1.275-.425l-.425.425c-.425.425-.85.425-1.275.425h-.425c.425.425.425.85.425 1.276zm2.55-16.151c0 1.7-.85 3.4-2.55 4.25v0c1.275-.85 2.125-2.55 2.55-4.25 0-2.55-2.125-4.676-4.675-4.676 2.55 0 4.675 2.126 4.675 4.676zm-1.275 0c0 1.7-.85 2.975-2.55 3.4v18.277h-2.975v-8.5V22.88c-1.276-.425-2.55-1.7-2.55-3.4a3.81 3.81 0 013.825-3.826c2.125 0 4.25 2.126 4.25 4.25zm-3.825-4.676c-2.55 0-4.25 2.126-4.25 4.676 0 1.7.85 3.4 2.55 3.825v0c-1.7-.85-2.55-2.55-2.55-4.25 0-2.125 1.7-3.826 4.25-4.25zm-8.926 7.651c.425-.425.85-.425 1.275-.85 0 0-.425.425-1.275.85 0 0-.425.425-.85.425.425 0 .85-.425.85-.425zm-10.201 2.125c6.375 0 9.35-.425 11.476-1.7 1.7-1.275 3.4-.85 3.825.425 0 1.275.85 2.125 1.7 2.125s.85-.425.85.85v5.526c0 1.7 0 2.125-.85 1.275-.85-.85-.85-.85-3.4 0s-3.825-.425-3.825-1.275c0-.85-.85-1.275-2.55-.425-1.7.85-3.826 0-3.826-1.275s-.85-1.275-2.975-1.275c-1.7 0-1.275-2.125-1.7-2.125-.425 0-3.4.425-4.25-1.7-1.701-.85-.85-.426 5.525-.426zm3.825 8.926c-1.7 0-3.4-.85-3.4-2.55v-.425h-2.125c-1.7 0-2.126-1.7-2.126-2.125-.85 0-3.4 0-4.675-2.125-.425-.425-.425-1.276 0-2.126.425-.425.85-.85 1.7-.85-.425 0-.425.425-.85.425-.425.85 0 1.275 0 2.125.85 2.126 3.4 2.126 4.25 2.126 0 .85.425 2.125 2.126 2.125h2.125v.425c0 1.275 1.275 2.55 3.4 2.55.85 0 1.275 0 2.125-.425.85-.425 1.276-.425 1.276-.425 0 .85.425 1.7 1.275 2.125-.425 0-.425 0-.85.425-.85-.425-1.276-1.275-1.276-1.7-.425 0-.85 0-1.275.425h-1.7zm5.526 14.877c0-.425.425-1.275.85-2.125-3.826-1.7-5.95-4.676-5.526-7.651.425-1.275.85-2.125 1.7-2.55-.425.425-1.275 1.275-1.275 2.125-.425 2.975 1.7 5.95 5.1 7.65-.424.85-.424 1.276-.85 2.126-.424 2.125 0 4.675 2.976 6.8-.425 0-.425.425-.85.425-2.125-2.125-2.125-5.1-2.125-6.8zm1.275 10.626c0-.85 0-1.275.425-2.125v.85c0 2.55 1.275 3.4 2.55 3.825 0 0 .425 0 .425.425l-.85.85c-1.275-.425-2.55-1.275-2.55-3.825zm2.125 5.95c0 1.7.425 3.4 1.7 4.251-.425.425-.425.425-.425.85-1.275-.85-1.7-2.55-1.7-3.825 0-.425.425-.85.425-1.275zm13.176 14.027s-.425.425-.85.425-.85-.425-2.55-.85c-.425 0-.425-.425-.85-.425-.425 5.95-1.275 6.376-2.125 6.376-1.275 0-1.7-.85-2.125-6.376-.425 0-.85.425-1.276.425-1.275.425-2.125.85-2.55.85-.425 0-.85 0-.85-.425l-.425-.425v-.425c0-.425 0-.425.425-.85 0 0 .425.425.85.425s.85 0 2.55-.85c.425 0 .85-.425 1.276-.425.425 5.1.85 6.375 1.7 6.375s1.7-.425 2.125-6.375c.425 0 .85.425.85.425 1.275.425 2.125.85 2.55.85.425 0 .425 0 .85-.425.425.425.425.425.425.85v.85zm-1.275-8.926c0-.425 0-.85-.425-.85 1.275-.85 1.7-2.125 1.7-3.825v-.425c0 .425.425.85.425 1.275 0 1.7-.425 2.975-1.7 3.825zm.85-6.8c0-.426-.425-.426-.425-.85 1.276-.85 2.55-2.551 2.55-4.251v-.85c.426.425.426 1.275.426 1.7-.425 1.7-1.275 2.975-2.55 4.25zm2.976-17.002c.425.85.85 1.275.85 2.125.425 2.975-.425 5.1-3.4 6.8-.426-.424-.426-.424-.85-.424 2.975-1.7 4.25-3.826 3.4-6.801 0-.425-.425-1.275-.85-2.126 3.4-1.7 5.525-4.675 5.1-7.65 0-.85-.425-1.7-1.275-2.126.85.85 1.7 1.7 1.7 2.976 1.275 2.55-.85 5.525-4.675 7.226zM65.72 29.256c0 .85-.425 2.125-2.125 2.125h-2.125v.425c0 1.275-1.275 2.55-3.4 2.55-.85 0-1.7 0-2.126-.425-.85-.425-1.275-.425-1.275-.425 0 .85-.425 1.275-1.275 1.7-.425 0-.425 0-.85-.425.85-.425 1.275-1.275 1.275-2.125 0 0 .425 0 1.275.425.85.425 1.275.425 2.125.425 1.7 0 2.976-.85 3.4-2.55v-.425h2.126c1.7 0 2.125-1.7 2.125-2.125.85 0 3.4 0 4.25-2.125.426-.426.426-1.276 0-2.126 0-.425-.424-.425-.85-.425.85 0 1.7 0 1.7.85.426.85 0 1.7 0 2.126-.424 2.55-2.975 2.55-4.25 2.55z"/></svg>