<svg xmlns="http://www.w3.org/2000/svg"><path d="M44.883 22.743C44.883 10.416 35.108.64 22.781.64S.68 10.416.68 22.743c0 11.05 8.5 20.402 19.127 21.677V58.02H8.755c-1.7 0-2.976 1.275-2.976 2.975 0 1.7 1.276 2.976 2.976 2.976h11.051v11.901c0 1.7 1.275 2.975 2.975 2.975 1.7 0 2.976-1.275 2.976-2.975V63.972h11.05c1.7 0 2.976-1.275 2.976-2.976 0-1.7-1.275-2.975-2.975-2.975H25.756V44.42c11.052-1.275 19.127-10.626 19.127-21.677zM22.781 38.469c-8.926 0-16.151-7.226-16.151-16.152 0-8.925 7.225-16.151 16.151-16.151s16.152 7.226 16.152 16.151c0 9.352-7.226 16.152-16.152 16.152z"/></svg>