<svg xmlns="http://www.w3.org/2000/svg"><path d="M31.707 27.23c0-2.976 0-4.251.85-4.251s.85-.425.85-2.55c0-2.126 0-2.55-.85-2.55s-1.275-.85 0-.85 1.275 0 .85-2.551c0-2.55-.425-9.776-.425-11.901s-1.275-1.7-3.4-1.7H20.23 10.88c-2.125 0-3.4-.425-3.4 1.7s-.425 9.35-.425 11.901c0 2.55 0 2.55.85 2.55 1.275 0 .85.85 0 .85s-.85.425-.85 2.55c0 2.126 0 2.55.85 2.55s.85 1.276.85 4.251c0 2.976-8.076 2.976-8.076 14.027v38.679c0 7.226 2.125 10.2 7.226 10.2h24.652c5.1 0 7.226-3.4 7.226-10.2v-38.68c0-11.05-8.076-11.05-8.076-14.026zm-.85-25.078c.425 0 .425.425.425.425.425 4.25.425 8.5.85 12.751 0 .425-.425.425-.425.425-.425 0-.425-.425-.425-.425-.425-4.25-.425-8.5-.85-12.751 0 0 0-.425.425-.425zm-2.125 0c.425 0 .425.425.425.425.425 4.25.425 8.5.85 12.751 0 .425-.425.425-.425.425-.425 0-.425-.425-.425-.425 0-4.25-.425-8.5-.425-12.751-.425 0-.425-.425 0-.425zm-2.125 0c.425 0 .425.425.425.425 0 4.25.425 8.5.425 12.751 0 .425-.425.425-.425.425-.425 0-.425-.425-.425-.425 0-4.25-.425-8.5-.425-12.751 0 0 0-.425.425-.425zm-2.126 0c.425 0 .425.425.425.425 0 4.25.425 8.5.425 12.751 0 .425-.425.425-.425.425-.425 0-.425-.425-.425-.425 0-4.25 0-8.5-.425-12.751 0 0 0-.425.425-.425zm-2.125 0c.425 0 .425.425.425.425v12.751c0 .425-.425.425-.425.425-.425 0-.425-.425-.425-.425V2.577s0-.425.425-.425zm-2.55.425c0-.425.425-.425.425-.425.425 0 .425.425.425.425v12.751c0 .425-.425.425-.425.425l-.425-.425c-.425-4.25-.425-8.5 0-12.751zm-2.55 0c0-.425.425-.425.425-.425.425 0 .425.425.425.425v12.751c0 .425-.425.425-.425.425-.425 0-.425-.425-.425-.425V2.577zm-2.126 0c0-.425.425-.425.425-.425.425 0 .426.425.426.425 0 4.25 0 8.5-.425 12.751 0 .425-.425.425-.425.425-.426 0-.426-.425-.426-.425.425-4.25.425-8.5.425-12.751zm-2.125 0c0-.425.425-.425.425-.425.425 0 .425.425.425.425 0 4.25-.425 8.5-.425 12.751 0 .425-.425.425-.425.425-.425 0-.425-.425-.425-.425 0-4.25.425-8.5.425-12.751zm-2.125 0c0-.425.425-.425.425-.425.425 0 .425.425.425.425 0 4.25-.425 8.5-.425 12.751 0 .425-.425.425-.425.425-.425 0-.425-.425-.425-.425 0-4.25.425-8.5.425-12.751zM8.33 15.753c-.425 0-.425-.425-.425-.425.425-4.25.425-8.5.85-12.751 0-.425.425-.425.425-.425.425 0 .425.425.425.425-.425 4.25-.425 8.5-.85 12.751.425.425 0 .425-.425.425zm29.328 64.182c0 7.65-2.55 8.076-5.1 8.076H7.904c-2.976 0-5.1-.425-5.1-8.076v-38.68c0-6.375 2.974-8.5 5.1-9.775 1.275-.85 2.975-2.125 2.975-4.25v-.85c0-1.276 0-2.551-.425-3.401h19.127c-.425.85-.425 2.125-.425 3.4v.85c0 2.126 1.7 3.4 2.975 4.25 2.125 1.701 5.1 3.401 5.1 9.777v38.679h.426z"/><path d="M13.005 59.958s-1.275.85-2.125 4.25c-.85 3.4.425 6.376.425 6.376 0-5.95 3.4-9.776 3.4-9.776l-1.7-.85z"/><path d="M4.08 41.256v38.679c0 6.8 1.7 6.8 3.825 6.8h24.652c2.126 0 3.826 0 3.826-6.8v-38.68c0-2.124-.425-3.825-.85-5.1H4.93a15.853 15.853 0 00-.85 5.1zm16.151-.85c2.55 11.05 11.476 19.977 11.476 26.777 0 6.376-5.1 11.902-11.476 11.902-6.376 0-11.476-5.1-11.476-11.901 0-6.376 8.926-15.727 11.476-26.778z"/></svg>