<svg xmlns="http://www.w3.org/2000/svg"><path d="M41.921.314c-1.275 0-2.55 0-3.825.425-2.976.85-6.376 1.7-9.776 2.125-3.4-.425-6.801-1.275-9.776-2.125-1.276-.425-2.55-.425-3.826-.425-4.675 0-9.35 1.7-12.326 8.5-3.4 8.502-1.275 19.128.425 27.204 1.7 8.5 3.4 18.277 3.4 25.927 0 7.651 2.55 17.427 8.076 17.427 5.526 0 6.376-8.5 8.501-19.552 2.125-11.05 5.526-11.476 5.526-11.476s3.4 0 5.525 11.476c2.125 11.476 2.975 19.552 8.501 19.552s8.076-9.776 8.076-17.427c0-7.65 1.7-17.426 3.4-25.927 1.7-8.501 3.826-18.702.425-27.203-2.55-6.8-7.65-8.501-12.326-8.501zm8.5 32.303c0 .85-.424 1.276-.424 2.126-1.7 8.5-3.4 18.277-3.4 26.352 0 8.076-2.55 13.602-4.251 13.602-2.125 0-3.4-8.076-4.25-14.452l-.425-2.125C35.544 45.37 30.87 43.67 28.32 43.67c-2.55 0-7.226 1.7-9.351 14.451l-.425 2.125c-.85 5.95-2.55 14.452-4.25 14.452-1.276 0-4.251-5.526-4.251-13.602 0-8.075-1.7-17.852-3.4-26.352 0-.85-.426-1.276-.426-2.126-1.275-7.65-2.975-16.151-.425-22.952 1.7-3.825 4.676-5.95 8.501-5.95.85 0 2.125 0 2.975.424.85.425 2.126.425 2.976.85 2.125.426 4.25.85 6.8 1.276h1.7c2.126-.425 4.676-.85 6.801-1.276 1.275-.425 2.125-.425 2.976-.85 1.275-.425 2.125-.425 2.975-.425 4.25 0 6.8 2.126 8.5 5.951 3.401 6.8 1.701 15.302.426 22.952z"/></svg>