<svg xmlns="http://www.w3.org/2000/svg"><path d="M19.404 39.093v2.126c0 8.5 5.1 15.726 11.901 18.702.425-.425.425-1.276.85-2.126v-.85c-5.95-2.975-10.2-8.926-10.2-16.151v-1.275c-.425 0-1.7 0-2.55-.426zM30.03 26.342c2.976-2.125 6.376-3.4 10.201-3.4 3.826 0 7.226 1.275 10.201 3.4l2.126-2.125c-3.4-2.55-7.651-3.825-12.327-3.825-4.675 0-8.926 1.275-12.326 3.825.85.85 1.275 1.7 2.125 2.125zM47.882 57.37v.85c0 .85.425 1.276.85 2.126 7.226-3.4 11.901-10.626 11.901-18.702v-2.125c-.85 0-2.125.425-2.975.85v1.275c.425 6.8-3.825 12.751-9.776 15.727z"/><path d="M68.284 31.443c-2.125-1.275-4.25-2.125-6.8-2.55.85-2.126 1.275-4.676 1.275-6.801 0-10.201-6.801-18.702-16.152-21.677 5.95 2.55 9.776 8.5 9.776 15.301 0 8.926-7.226 16.577-16.577 16.577-8.926 0-16.576-7.226-16.576-16.577 0-6.8 4.25-12.751 9.776-15.301C23.655 3.39 16.854 11.89 16.854 22.092c0 2.55.425 4.675 1.275 6.8-2.125.426-4.675 1.276-6.8 2.55C2.401 36.544-1.424 46.745.701 56.096c-.85-6.375 2.125-12.751 8.076-16.151 7.65-4.676 17.852-1.7 22.527 5.95 4.676 7.651 1.7 17.852-5.95 22.528-5.95 3.4-12.752 2.55-17.852-1.275 7.226 6.8 17.852 8.5 26.778 2.975 2.125-1.275 4.25-2.975 5.525-4.676 1.7 1.7 3.4 3.4 5.526 4.676 8.926 5.1 19.977 3.4 26.778-2.975-5.1 3.825-12.327 4.675-18.277 1.275-7.651-4.676-10.626-14.452-5.95-22.528 4.675-7.65 14.45-10.626 22.526-5.95 5.951 3.4 8.926 9.776 8.076 16.151 2.976-9.35-1.275-19.552-10.2-24.652zM40.231 46.744c-2.975 0-5.525-2.55-5.525-5.525 0-2.976 2.55-5.526 5.525-5.526 2.976 0 5.526 2.55 5.526 5.526 0 2.975-2.55 5.525-5.526 5.525z"/></svg>