<svg xmlns="http://www.w3.org/2000/svg"><path d="M11.192 31.878c-2.975 0-5.1 2.125-5.1 5.1v43.78H1.416c-.425 0-1.275.425-1.275 1.275 0 .425.425 1.275 1.275 1.275h11.051v25.078H7.792c-.425 0-1.275.425-1.275 1.275 0 .425.425 1.275 1.275 1.275h23.803c.425 0 1.275-.425 1.275-1.275 0-.425-.425-1.275-1.275-1.275h-4.676V83.308H37.97c.425 0 1.275-.425 1.275-1.275 0-.425-.425-1.275-1.275-1.275h-5.1v-43.78c0-2.975-2.126-5.1-5.1-5.1h-4.676v-2.55c0-1.275-.85-2.125-2.126-2.125V2.125L18.843 0v27.203c-1.275 0-2.125.85-2.125 2.125v2.55h-5.526zm1.275 48.88H8.642V57.381h3.825v23.377zm5.951 27.628h-3.825V83.308h3.825v25.078zm0-27.628h-3.825V57.381h3.825v23.377zm6.376 27.628h-3.826V83.308h3.826v25.078zm0-27.628h-3.826V57.381h3.826v23.377zm5.95 0H26.92V57.381h3.825v23.377zm-12.326-51.43h2.55v2.125h-2.125v-2.125h-.425zm9.351 4.675c1.7 0 2.976 1.276 2.976 2.976v18.277H8.216V36.979c0-1.7 1.275-2.976 2.975-2.976H27.77z"/><path d="M9.068 37.829V54.83H30.32V37.829c0-1.7-1.275-2.975-2.976-2.975H12.043c-1.7 0-2.975 1.275-2.975 2.975z"/></svg>