<svg xmlns="http://www.w3.org/2000/svg"><path d="M9.966 65.284h41.655c3.4 0 4.675-2.55 2.975-5.1L36.744 27.03V4.078h.425c.85 0 1.7-.85 1.7-1.7v-.426c0-.85-.85-1.7-1.7-1.7H23.993c-.85 0-1.7.85-1.7 1.7v.85c0 .85.85 1.7 1.7 1.7h.425V27.88L6.566 61.033c-1.275 2.126.425 4.25 3.4 4.25zm-1.275-4.25L26.543 27.88V2.378h-2.125v-.426h13.176v.425H35.47v25.928L53.32 61.46c.425.85.85 1.7.425 2.125-.425.425-.85.85-2.125.85H9.966c-.85 0-1.7-.425-2.125-.85 0-.85.425-1.7.85-2.55z"/><path d="M31.644 35.106c.85 0 1.275-.425 1.275-1.275 0-.85-.425-1.276-1.275-1.276-.85 0-1.275.425-1.275 1.276 0 .425.425 1.275 1.275 1.275zM29.518 29.155c.425 0 .85-.425.85-.85s-.425-.85-.85-.85-.85.425-.85.85.425.85.85.85zM29.518 41.481c1.7 0 2.976-1.275 2.976-2.975 0-1.7-1.276-2.975-2.976-2.975s-2.975 1.275-2.975 2.975c0 1.7 1.275 2.975 2.975 2.975z"/><path d="M32.069 40.631c0 1.276.85 2.126 2.125 2.126s2.125-.85 2.125-2.126c0-1.275-.85-2.125-2.125-2.125s-2.125 1.275-2.125 2.125zM23.993 43.182c1.275 0 2.55-1.275 2.55-2.55 0-1.276-1.275-2.55-2.55-2.55s-2.55 1.274-2.55 2.55c.425 1.7 1.275 2.55 2.55 2.55z"/><path d="M9.966 63.159h41.655c.85 0 1.275-.425 1.275-.425s0-.425-.425-1.276L41.845 41.481h-.85c0 1.276-.85 2.126-2.126 2.126-1.275 0-2.125-.85-2.125-2.126-.425 1.276-1.275 2.126-2.55 2.126s-2.55-.85-2.55-2.126c-.425.425-1.275.425-2.126.425-.85 0-1.7-.425-2.125-.85-.425 1.276-1.7 2.55-3.4 2.55s-2.975-1.275-3.4-2.55h-.85L9.115 61.033c-.425.85-.425 1.276-.425 1.276 0 .425.425.85 1.275.85z"/><path d="M38.87 42.757c.85 0 1.275-.425 1.275-1.275 0-.85-.425-1.276-1.275-1.276-.85 0-1.276.425-1.276 1.276 0 .425.85 1.275 1.276 1.275zM19.742 66.559H9.966c-.85 0-1.275.85-1.275 1.275v17.002H1.466c-.85 0-1.276.85-1.276 1.275 0 .85.425 1.275 1.276 1.275h8.926c.85 0 1.275-.85 1.275-1.275V69.109h8.5c.85 0 1.276-.85 1.276-1.275-.425-.425-.85-1.275-1.7-1.275zM60.972 84.836h-7.226V67.834c0-.85-.425-1.275-1.275-1.275h-9.776c-.85 0-1.275.85-1.275 1.275 0 .85.425 1.275 1.275 1.275h8.5v17.002c0 .85.85 1.275 1.276 1.275h8.926c.85 0 1.275-.85 1.275-1.275-.425-.425-.85-1.275-1.7-1.275zM38.445 82.286H23.568c-.425 0-.85.425-.85.85v4.675c0 .425.425.85.85.85h14.877c.425 0 .85-.425.85-.85v-4.675c0-.85-.425-.85-.85-.85zM26.968 78.46c-.425 0-.85.425-.85.425v1.7c0 .426.425.426.85.426h7.651c.425 0 .85-.425.85-.425v-1.7c0-.426-.425-.426-.85-.426h-7.65zM32.92 67.834s.424.85.424 1.7c0 1.275-.85 1.7-.85 1.7s.425-1.275-1.275-3.4-3.826-1.7-3.826-1.7 1.7 1.7 1.7 2.975c-.424 1.275-2.975 1.275-2.975 4.25 0 2.976 2.976 3.826 2.976 3.826s0-2.55 2.125-2.55 2.125 2.55 2.125 2.55 2.975-.85 2.975-4.25c-.425-2.976-3.4-5.1-3.4-5.1z"/></svg>