<svg xmlns="http://www.w3.org/2000/svg"><path d="M83.185 49.695l-10.626-5.95 10.626-5.951c2.55-1.7 3.825-5.1 2.125-7.651l-8.926-15.727c-.85-1.7-2.975-2.975-5.1-2.975-.85 0-2.126.425-2.976.85l-10.626 5.95V5.916c0-2.975-2.55-5.525-5.525-5.525H34.305c-2.976 0-5.526 2.55-5.526 5.525v12.327l-10.626-5.95c-.85-.426-1.7-.851-2.975-.851-2.125 0-3.826 1.275-5.1 2.975L1.15 30.143c-1.7 2.55-.425 6.376 2.126 7.65l10.626 5.951-10.626 5.951c-1.276.85-2.126 2.125-2.55 3.4-.426 1.275 0 2.976.424 4.25l8.926 15.727c.85 1.7 2.976 2.976 5.1 2.976.85 0 2.126-.425 2.976-.85l10.626-5.951v12.326c0 2.976 2.55 5.526 5.526 5.526h17.852c2.975 0 5.525-2.55 5.525-5.526V69.247l10.626 5.95c.85.426 1.7.85 2.976.85 2.125 0 3.825-1.274 5.1-2.975l8.926-15.726c1.275-2.55.425-5.95-2.125-7.651zm0 6.8l-9.351 15.302c-.425.85-1.7 1.7-2.975 1.7-.425 0-1.276 0-1.7-.425l-14.452-8.076v16.577c0 1.7-1.275 3.4-3.4 3.4H33.455c-1.7 0-3.4-1.275-3.4-3.4V64.997l-14.452 8.075c-.425.425-.85.425-1.7.425-1.276 0-2.126-.425-2.976-1.7L2.001 56.071c-.425-.85-.425-1.7-.425-2.55.425-.85.85-1.7 1.7-2.126l14.452-8.076-14.451-8.076c-.85-.425-1.276-1.275-1.7-2.125-.426-.85 0-1.7.424-2.55l8.926-15.727c.425-.85 1.7-1.7 2.976-1.7.425 0 1.275 0 1.7.425l14.451 8.076V5.065c0-1.7 1.276-3.4 3.4-3.4h17.853c1.7 0 3.4 1.275 3.4 3.4v16.577l14.451-8.076c.425-.425.85-.425 1.7-.425 1.276 0 2.126.425 2.976 1.7l8.926 15.727c.85 1.7.425 3.4-1.275 4.25l-14.452 8.076 14.452 8.076c1.7 2.125 2.55 3.825 1.7 5.526z"/><path d="M38.555 38.644h.85s0-.425-.425-.425h-.85l.425.425zM47.056 38.219c-.425 0-.425.425-.425.425h.85c.425 0 .425-.425.425-.425h-.85z"/><path d="M81.06 53.52l-14.877-8.5c-.85-.426-.85-1.276 0-1.7l14.877-8.502c.85-.425 1.275-1.7.85-2.55l-8.926-15.726c-.425-.85-1.7-1.276-2.55-.85l-14.877 8.5c-.85.425-1.7 0-1.7-.85V5.915c0-.85-.85-1.7-1.7-1.7H34.305c-.85 0-1.7.85-1.7 1.7v17.427c0 .85-.85 1.275-1.7.85l-14.877-8.5c-.85-.426-1.7 0-2.55.85L4.552 32.268c-.425.85 0 1.7.425 2.55l14.877 8.501c.85.425.85 1.275 0 1.7L4.977 53.52c-.85.425-1.275 1.7-.85 2.55l8.926 15.727c.425.85 1.7 1.275 2.55.85l14.877-8.5c.85-.426 1.7 0 1.7.85v17.426c0 .85.85 1.7 1.7 1.7h17.852c.85 0 1.7-.85 1.7-1.7V64.997c0-.85.85-1.276 1.7-.85l14.877 8.5c.85.425 1.7 0 2.55-.85l8.926-15.726c.85-1.275.425-2.126-.425-2.55zM43.231 18.242c2.125 0 3.4 1.7 3.4 3.4s-.85 2.975-2.55 3.4V43.32h-2.55v-8.076-10.2c-1.275-.426-2.55-1.7-2.55-3.4.425-1.701 2.125-3.401 4.25-3.401zM26.654 32.693c0-1.275-.85-1.275-2.55-1.275-1.7 0-1.275-2.125-1.7-2.125-.425 0-3.4.425-4.25-1.7-.85-1.7 0-1.275 6.375-1.275 5.95 0 8.926-.426 11.051-1.7 1.7-1.276 3.4-.85 3.4.424 0 1.276.85 1.7 1.7 1.7s.85 0 .85.85v5.101c0 1.7 0 2.126-.85 1.275-.85-.85-.85-.85-3.4 0-2.975.85-3.825-.425-3.825-.85 0-.85-.85-1.275-2.55 0-2.125 1.7-4.25.85-4.25-.425zm3.826 7.226c.425-3.4 5.525-3.825 7.65-2.975 2.126.425 1.7.85 2.55 2.125.85 1.275.426 2.125-1.274 2.55-2.125 0-2.976-.425-4.25-1.275-1.276-.85-1.7.85-.85 1.7s2.55 1.7 5.1 1.7c-1.7 0-3.826 1.276-4.676 2.55-2.55-1.274-4.675-3.825-4.25-6.375zM44.08 76.048c-.425 3.825-.425 6.375-1.275 6.375-.425 0-.85-2.55-.85-5.95.85 0 2.975-.85 3.4-1.275 1.7 1.275 3.4 2.125 2.976 2.125 0 0-1.276-.425-4.25-1.275zm-2.125-15.302v-2.125c.425-.425 5.526-2.125 5.95-2.55 1.276.85 2.126 1.7 2.126 2.975 0 2.125-2.975 4.25-5.526 5.1-2.55.85-3.4 1.276-3.4 2.126 0 .425.425.85.85 1.275v-1.7c.425 0 5.1-1.7 5.95-2.125.426.425.85 1.7 1.276 2.55 0 1.7-.85 3.4-4.25 4.25-2.551.85-3.826 1.7-2.55 2.55v-.85c.85-.85 3.825-1.275 5.1-2.125.425.425.425 1.275.425 2.125-.425 1.276-.85 2.126-4.676 3.826-3.825 1.275-5.1 2.125-5.1 1.7-.425-.425 2.125-1.7 4.675-2.975 1.7-.85 2.975-2.126 1.7-2.55v.85c-.425.85-2.975 2.125-3.4 2.125-1.275-.85-2.125-1.7-2.125-2.55-.425-1.276.425-1.7 2.55-2.976 2.55-1.275 3.825-1.275 3.825-2.55 0-.425 0-.85-.85-.85v1.275c-.425.85-4.25 1.7-5.1 2.55-1.275-.85-1.7-2.125-1.7-3.4 0-1.7 1.275-2.976 4.675-4.25 3.4-1.276 3.825-2.126 3.825-2.976 0-.425-.425-.425-1.275-.85v2.125c-.85.425-4.675 1.7-5.525 2.55-1.275-.85-2.976-1.275-2.976-3.825 0-2.125 2.126-3.4 5.526-5.1 3.4-1.276 5.95-2.55 5.95-4.676 0-.85-.85-1.275-1.7-1.7 2.126 0 3.826-.425 5.526-.85.425.425.85 1.275.85 2.125.425 2.125 0 4.675-4.25 6.376-3.826 1.7-6.801 2.55-6.801 3.4-1.275.425-.85.85.425 1.7zm6.8-13.601c-4.25.85-9.35.85-9.35 2.55 0 .85.85 2.55 1.7 3.4l.425.425v-4.675c.425 0 1.275-.425 2.55-.425v3.825l-2.55 1.275c-.425 0-2.975 1.275-3.825 1.7-2.976-1.7-3.4-4.25-2.976-6.375.425-2.125 2.126-5.1 7.651-5.1 5.526 0 8.076-.85 8.926-2.126.85-1.275.425-2.975-.85-1.7-1.275.85-2.125 1.275-4.25 1.275-1.7 0-2.126-1.275-1.276-2.55.85-1.275 0-1.7 2.55-2.125 2.126-.425 7.226 0 7.651 2.975 1.276 3.4-2.125 6.8-6.375 7.65zm15.302-17.852c-.425 0 0 2.125-1.7 2.125s-2.55-.425-2.55 1.275c0 1.275-2.125 2.126-3.825 1.275-1.7-.85-2.55-.425-2.55 0 0 .85-.85 2.126-3.826.85-2.975-.85-2.55-.85-3.4 0-.85.85-.85 0-.85-1.275v-5.1c0-1.275 0-.85.85-.85s1.275-.425 1.7-1.7c0-1.276 1.7-1.7 3.4-.425s4.675 1.7 11.051 1.7 7.226-.425 6.376 1.275c-1.7 1.275-4.25.85-4.676.85z"/></svg>