<svg xmlns="http://www.w3.org/2000/svg"><path d="M45.295 47.245l5.525-34.003c.85-1.276 1.276-2.976 1.276-4.676 0-4.675-3.826-8.5-8.501-8.5-4.676 0-8.501 3.825-8.501 8.5 0 4.676 3.4 8.076 7.65 8.501l-1.7 9.776H24.043a3.81 3.81 0 00-3.826 3.825 3.81 3.81 0 003.826 3.826h15.726l-.85 5.1H20.217l-8.5 24.653-5.951-1.7c-2.126-.425-4.25.425-4.676 2.55-.425 2.125.425 4.25 2.55 4.675l12.752 3.826 8.926-26.353h19.977z"/><path d="M49.12 36.194l-1.275 8.5c2.55 2.551 3.825 6.377 3.825 10.202 0 8.5-6.8 15.302-15.302 15.302-5.525 0-10.626-2.976-13.176-8.076l-2.975 8.5c4.25 4.251 10.2 6.801 16.151 6.801 12.327 0 22.528-10.2 22.528-22.527.425-7.65-3.4-14.452-9.776-18.702z"/></svg>