<svg xmlns="http://www.w3.org/2000/svg"><path d="M35.32.478A35.192 35.192 0 00.04 35.757a35.192 35.192 0 0035.28 35.278 35.192 35.192 0 0035.278-35.278A35.192 35.192 0 0035.32.478zm0 64.182c-15.727 0-28.904-12.752-28.904-28.903 0-6.801 2.55-13.177 6.376-17.852L25.968 31.08H11.517v9.351h23.802l17.852 17.852c-4.675 3.825-11.05 6.376-17.852 6.376zm22.527-11.051L44.67 40.431h4.676v-9.35H35.319L17.468 13.228c5.1-3.825 11.05-6.375 17.851-6.375 15.727 0 28.903 12.751 28.903 28.903 0 6.8-2.55 13.176-6.375 17.852z"/><path d="M59.122 31.081h-7.65v9.351h7.65v-9.35zM47.646 21.73c-3.4.425-6.376 0-7.651-1.7-.85-.85-.85-2.125-.425-3.4.425-1.7 0-2.975-.425-3.826-1.7-2.55-5.526-2.975-5.95-2.975-.426 0-1.276.425-1.276.85s.425 1.275.85 1.275c.85 0 3.4.85 4.25 2.125.426.425.426 1.276 0 2.126-.85 2.125-.424 3.825.85 5.525 1.701 2.125 5.526 2.976 9.777 2.55 5.1-.85 6.376 4.676 6.376 4.676 0 .425.425.85.85.85h.425c.425 0 .85-.85.85-1.275 0-2.975-2.55-7.65-8.501-6.8z"/></svg>