<svg xmlns="http://www.w3.org/2000/svg"><path d="M25.417 71.945c-.85 0-1.275.85-1.275 2.55 0 1.276-.425 2.126.85 2.551 1.275.425 1.275 0 1.275-2.125 0-2.55 0-2.976-.85-2.976zM19.467 70.67c-.425 0-.425.425-.85 1.275 0 .85 0 1.275.425 1.7.425.425.425 0 .425-.85.425-1.7.425-2.125 0-2.125z"/><path d="M24.993 77.046c-.85 0-.85 0-.85 1.275s.425 2.125 1.275 2.125c.85 0 .85-.425.85-2.125 0-.85-.425-.85-1.275-1.275zM30.518 78.32c1.276 0 1.276 0 1.276-1.7s.425-4.25-1.276-4.25c-1.7 0-1.275 1.7-1.275 3.4 0 2.55-.425 2.55 1.275 2.55zM19.467 74.07c-.85-.424-.85.426-.425 1.276 0 .85.425 1.7.85 1.7s.425 0 .425-1.275c0-.85 0-1.275-.85-1.7z"/><path d="M26.693 79.596c0 1.275.425 1.7 1.275 1.7.85 0 1.275 0 1.275-1.7s0-1.275-1.275-1.7c-1.7 0-1.7.425-1.275 1.7z"/><path d="M27.968 72.37c-1.275 0-1.275 1.275-1.275 2.976 0 1.7-.425 2.125.85 2.55 1.275.425 1.275-.85 1.275-2.55 0-1.7 0-2.976-.85-2.976zM30.093 78.321c-1.275 0-1.275 0-1.275 1.275 0 1.7.425 2.126 1.275 2.126.85 0 1.276-.425 1.276-2.126.425-.85.425-1.275-1.276-1.275zM23.718 71.52c-.85 0-.85.425-1.276 2.126-.425 1.7 0 2.125.85 2.125.85.425.85-.425.85-2.126-.424-1.275 0-1.7-.424-2.125zM20.317 70.67c-.425 0-.85.85-.85 1.7 0 1.275-.425 1.275.425 1.7.85.425.425 0 .425-1.275.425-1.275.85-1.7 0-2.125zM22.867 76.196c-.85-.425-.85.425-.85 1.7s.425 2.125.85 2.125.85 0 .425-1.7c.425-1.275.85-1.7-.425-2.125z"/><path d="M52.195 65.57c-2.125 0-2.975-.85-2.975-.85s0 1.7-1.275 5.1c-.85 2.125-1.7 3.825-2.55 4.25v1.276c0 .85-.425 1.7-1.275 1.7h-.425c0 .85-.425 1.7-1.276 1.7h-.425c0 .85-.425 1.275-1.275 1.275 0 0-.425 0-.85-.425 0 .85-.425 1.275-1.275 1.275h-.425c-.425 0-.425 0-.425-.425 0 .85-.425 1.275-1.275 1.275-.425 0-.85 0-1.275-.425 0 .425-.425.85-1.276 1.275h-.425c-.425 0-.85 0-1.275-.425v-.425.425c-.425.425-.85.425-1.275.425h-.425c-.85 0-1.275-.425-1.275-1.275-.425.425-.85.425-1.275.425-.85 0-1.275-.425-1.275-1.275l-.425.425h-.425c-.85 0-1.275-.425-1.275-1.275 0 0-.425.425-.85.425-.85 0-.85-.85-1.276-1.275h-.425c-.85 0-.85-.85-1.275-1.7h-.425c-.85 0-.85-.85-1.275-1.7V74.07c-.425-.85-1.7-2.125-2.55-4.25-1.275-3.4-1.275-5.1-1.275-5.1s-.85.425-2.976.85c-2.125 0-2.975-.85-2.975-.85.85 2.125 2.125 7.225 1.275 12.326-.85 5.1-.85 5.525 7.226 11.051s7.65 5.95 9.776 5.95h8.5c2.126 0 1.701-.424 9.777-5.95 8.076-5.526 8.076-5.95 7.225-11.051-.85-5.1.85-10.201 1.276-12.326.85 0 0 .85-2.126.85z"/><path d="M22.017 71.095c-.85 0-.85.425-.85 1.7 0 1.276-.425 1.7.425 2.126.85.425.85 0 .85-1.7 0-1.276 0-1.7-.425-2.126zM21.168 75.346c-.85-.425-.85.425-.85 1.275 0 1.275.424 1.7.85 1.7.425 0 .425 0 .425-1.275.425-1.275.425-1.275-.425-1.7zM39.869 74.07c0-1.275-.425-2.55-1.275-2.55-.85 0-.85.85-.85 2.976 0 2.125.425 2.55 1.275 2.125 1.275-.425.85-.85.85-2.55zM42.844 75.346c-.85.425-.85.85-.85 1.7 0 1.275 0 1.275.425 1.275s.85-.85.85-1.7c.425-.85.425-1.7-.425-1.275zM43.695 70.67c-.425 0-.425.85-.425 2.125 0 1.7 0 1.7.425 1.275.85-.425.425-.425.425-1.7 0-.85 0-1.7-.425-1.7zM33.494 72.37c-1.7 0-1.276 2.55-1.276 4.25 0 1.7 0 1.7 1.276 1.7 1.7 0 1.275 0 1.275-2.124 0-2.126.425-3.826-1.275-3.826z"/><path d="M41.145 76.196c-.85.425-.85.85-.85 2.125s0 1.7.424 1.7c.425 0 .85-.85.85-2.125.426-1.275.426-2.125-.425-1.7zM40.294 71.52c-.85 0-.425.85-.425 2.55 0 1.7 0 2.126.85 2.126.85-.425.85-.425.85-2.126 0-2.125-.425-2.55-1.275-2.55zM44.545 74.07c-.85.426-.85.426-.85 1.7 0 .85 0 1.276.425 1.276s.425-.425.85-1.7c0-.85 0-1.275-.425-1.275z"/><path d="M41.994 71.095c-.85 0-.425.85-.425 2.126 0 1.7 0 1.7.85 1.7.85-.425.85-.425.425-2.126 0-1.275 0-1.7-.85-1.7zM45.395 71.52c0-.85-.426-1.275-.85-1.275-.425 0-.425.425-.425 1.7 0 1.276 0 1.276.425.85.85 0 .85 0 .85-1.275zM36.469 77.896c1.275-.425.85-1.275.85-2.55 0-1.7 0-2.976-1.275-2.976s-.85 1.7-.85 2.976c0 1.7 0 2.975 1.275 2.55zM33.494 82.146c.85 0 1.275-.85 1.275-2.125s0-1.275-1.275-1.275c-1.7 0-1.7.425-1.7 1.7.424 1.275.85 2.125 1.7 1.7zM36.47 81.722c.85 0 .85-.426 1.274-1.7 0-1.276.425-2.126-.85-1.7-1.275.424-1.275 0-1.275 1.7-.425 1.274 0 1.7.85 1.7zM39.02 77.046c-.85 0-.85.425-.85 1.7 0 1.7 0 2.125.85 2.125s1.274-.85 1.274-2.125c-.425-1.7-.425-1.7-1.275-1.7z"/><path d="M58.146 43.467c.85 1.276 1.275 2.55 1.7 3.4 1.275-2.975 3.4-7.65 3.826-15.726C64.522 14.564 47.945.963 32.218.963 16.067.963-.085 14.564.765 31.141 1.19 39.217 2.89 43.892 4.59 46.868c.426-.85.85-2.126 1.7-3.4 3.401-4.676 2.976-6.376 1.7-11.902-.85-5.525-2.124-11.476-.424-14.451 1.7-2.976 2.975-3.4 3.825-3.826-.425.425-1.7.85-2.975 4.25-1.275 2.976 0 7.651 1.275 13.602 1.275 5.95 0 7.65-2.125 11.901-1.7 3.4-.425 5.526-1.7 8.501 0 .425-.425.85-.85 1.275l-.426.425c-2.975 2.976.426 6.801 4.25 10.201 3.826 3.826 6.802-1.7 9.777 1.276 2.125 2.125 1.275 4.25.85 5.1h.425c.425 0 .425 0 .425.425h.425c.425 0 .425.425.425.85l.425-.425h.425c.425 0 .425.425.85.85l.425-.425h.425c.425 0 .425.425.85.425.426-.425.426-.425.85-.425.85 0 .85.425 1.276 1.275.425-.425.85-.85 1.275-.85.425 0 .425 0 .85.425 0 0 .425.425.425.85.425-.425.85-.85 1.7-.85.425 0 .85 0 .85.425 0 0 .425.425.425.85 0-.425.425-.425.425-.85.425-.425.425-.425.85-.425.85 0 1.276.425 1.7.85 0-.425 0-.85.426-.85 0-.425.425-.425.85-.425s.85.425 1.275.85c0-.85.425-.85 1.275-1.275.425 0 .85.425.85.425 0-.425.425-.425.85-.425h.425c.425 0 .425 0 .425.425 0-.425.425-.425.85-.85h.425c.425 0 .425 0 .425.425 0-.425.426-.425.426-.85h.425l.425-.425h.425c-.425-.85-1.275-2.975.85-5.1 2.975-2.976 5.95 2.55 9.776-1.276 3.825-3.825 7.226-7.225 4.25-10.2l-.425-.426c-.425-.425-.425-.85-.85-1.275-1.275-2.55 0-5.1-1.7-8.5-1.7-4.251-3.4-5.526-2.125-11.902 1.275-5.95 2.55-10.626 1.275-13.601-1.275-2.976-2.55-3.4-2.976-4.25.85.424 2.126.85 3.826 3.825 1.7 2.975.425 9.35-.425 14.451-.85 5.526-1.275 7.226 1.7 11.901zm-37.829 9.776c-5.526 1.276-8.5.425-8.926-4.675-.85-6.376.85-6.8 6.376-8.926 5.525-2.125 6.375-1.275 8.926.85 2.125 2.125 1.7 2.125 1.7 5.526-.425 3.4-2.975 5.95-8.076 7.225zm8.926 10.626c-3.4-3.4-2.975-2.975.425-11.476 1.7-4.25 2.125-4.25 2.125.85-.425 5.1.425 14.027-2.55 10.626zm5.526 0c-3.4 3.4-2.126-5.525-2.126-10.626 0-5.1.425-4.675 2.126-.85 3.4 8.501 3.4 8.076 0 11.476zm18.276-15.301c-.425 5.1-3.825 5.95-8.925 4.675-5.526-1.275-8.076-3.825-8.076-7.225 0-3.4-.425-2.976 1.7-5.526 2.125-2.125 3.4-2.975 8.926-.85 5.525 2.125 7.226 2.125 6.375 8.926z"/></svg>