<svg xmlns="http://www.w3.org/2000/svg"><path d="M4.242 17.428l3.4-.425c-.425-4.25 2.55-8.5 6.801-8.925l-.425-3.4c-5.95.424-10.626 6.375-9.776 12.75z"/><path d="M18.693.002C8.493.002.417 6.802.417 15.303v63.332c0 8.5 8.075 15.302 18.276 15.302S36.97 87.136 36.97 78.635V15.303c0-8.5-8.076-15.301-18.277-15.301zm5.1 89.259l-.424-3.4c4.25-.425 7.226-4.676 6.8-8.926l3.4-.425c.851 6.375-3.4 11.901-9.775 12.751zm11.902-42.504c0 3.825-8.076 7.225-17.427 7.225-9.35 0-17.426-3.4-17.426-7.65V14.878C.842 6.803 8.492.427 18.268.427c9.351 0 17.427 6.376 17.427 14.451v31.879z"/></svg>