<svg xmlns="http://www.w3.org/2000/svg"><path d="M71.898 28.73c5.95-5.95 5.95-15.726 0-21.677l-1.7-1.7c-5.951-5.95-15.727-5.95-21.678 0l-10.2 10.2-22.953 22.953L5.166 48.707c-5.95 5.95-5.95 15.727 0 21.678l1.7 1.7c5.95 5.95 15.727 5.95 21.677 0l10.201-10.201L61.697 38.93l10.2-10.2zm-35.704-9.35c1.275-1.276 2.975-1.276 4.25 0 1.276 1.274 1.276 2.975 0 4.25-1.275 1.275-2.975 1.275-4.25 0s-1.275-2.976 0-4.25zm5.526 10.2c-1.276-1.275-1.276-2.975 0-4.25 1.275-1.275 2.975-1.275 4.25 0s1.275 2.975 0 4.25a3.86 3.86 0 01-4.25 0zm2.975 6.801c-1.275 1.275-2.975 1.275-4.25 0-1.276-1.275-1.276-2.975 0-4.25 1.275-1.276 2.975-1.276 4.25 0 1.275 1.275 1.275 2.975 0 4.25zm-9.776-9.776c1.275-1.275 2.975-1.275 4.25 0 1.276 1.275 1.276 2.975 0 4.25-1.275 1.275-2.975 1.275-4.25 0s-1.275-2.975 0-4.25zm2.55 6.8c1.275 1.276 1.275 2.976 0 4.251-1.275 1.275-2.975 1.275-4.25 0s-1.275-2.975 0-4.25c1.275-.85 3.4-.85 4.25 0zm-5.525 11.477c-1.275-1.275-1.275-2.975 0-4.25 1.275-1.276 2.975-1.276 4.25 0 1.275 1.275 1.275 2.975 0 4.25-.85 1.275-2.975 1.275-4.25 0zm2.975 7.226c-1.275 1.275-2.975 1.275-4.25 0-1.276-1.275-1.276-2.976 0-4.25 1.275-1.276 2.975-1.276 4.25 0 1.275.85 1.275 2.975 0 4.25zM27.693 27.88c1.275-1.275 2.976-1.275 4.25 0 1.276 1.275 1.276 2.975 0 4.25-1.274 1.276-2.975 1.276-4.25 0-1.275-1.275-1.275-2.975 0-4.25zm-1.275 7.226c1.275-1.275 2.975-1.275 4.25 0 1.276 1.275 1.276 2.975 0 4.25-1.275 1.275-2.975 1.275-4.25 0s-1.275-3.4 0-4.25zm2.975 6.8c1.276 1.276 1.276 2.976 0 4.25-1.275 1.276-2.975 1.276-4.25 0-1.275-1.274-1.275-2.974 0-4.25 1.275-1.275 2.975-1.275 4.25 0zm-10.2-5.525c1.274-1.275 2.975-1.275 4.25 0s1.275 2.975 0 4.25c-1.275 1.276-2.976 1.276-4.25 0-.85-1.275-.85-3.4 0-4.25zm17.001 25.078c-.425.425-.85.425-.85 0L15.792 41.906c-.425-.425-.425-.85 0-.85.425-.425.85-.425.85 0L36.194 60.61c.425 0 .425.424 0 .85zm4.676-3.826c-1.276 1.275-2.976 1.275-4.25 0-1.276-1.275-1.276-2.975 0-4.25 1.274-1.275 2.974-1.275 4.25 0a3.861 3.861 0 010 4.25zm1.275-7.226c-1.275 1.276-2.976 1.276-4.25 0-1.276-1.275-1.276-2.975 0-4.25 1.274-1.275 2.975-1.275 4.25 0 .85 1.275.85 3.4 0 4.25zm-2.976-6.8c-1.275-1.275-1.275-2.976 0-4.25 1.276-1.276 2.976-1.276 4.25 0 1.276 1.274 1.276 2.975 0 4.25-1.274 1.275-2.974 1.275-4.25 0zm9.776 5.525c-1.275 1.275-2.975 1.275-4.25 0s-1.275-2.975 0-4.25 2.975-1.275 4.25 0c1.276 1.275 1.276 3.4 0 4.25zm1.276-6.8c-1.276 1.275-2.976 1.275-4.25 0-1.276-1.276-1.276-2.976 0-4.25 1.274-1.276 2.974-1.276 4.25 0 1.275 1.274 1.275 2.974 0 4.25zm-2.55-7.226c-1.276-1.275-1.276-2.976 0-4.25 1.274-1.276 2.975-1.276 4.25 0 1.275 1.274 1.275 2.975 0 4.25s-3.4 1.275-4.25 0zm9.775 5.95c-1.275 1.276-2.975 1.276-4.25 0-1.275-1.275-1.275-2.975 0-4.25s2.975-1.275 4.25 0c1.275.85 1.275 2.975 0 4.25zm3.826-4.675c-.425.425-.85.425-.85 0L40.87 16.829c-.425-.425-.425-.85 0-.85.425-.425.85-.425.85 0L61.272 35.53v.85zM13.667 37.231l2.125-2.125 19.552-19.552 2.125-2.125-8.5-8.501c-5.951-5.95-15.727-5.95-21.678 0l-1.7 1.7c-5.95 5.95-5.95 15.727 0 21.677l8.076 8.926zM62.972 39.781l-2.125 2.126-19.552 19.552-2.126 2.125 9.351 8.5c5.951 5.951 15.727 5.951 21.678 0l1.7-1.7c5.95-5.95 5.95-15.726 0-21.677l-8.926-8.926z"/></svg>