<svg xmlns="http://www.w3.org/2000/svg"><path d="M47.533 47.369c0-1.276-.85-2.126-2.125-2.126H13.529c-1.275 0-2.125.85-2.125 2.126 0 1.275.85 2.125 2.125 2.125h31.879c1.275.425 2.125-.85 2.125-2.125zM47.533 2.739c0-1.275-.85-2.125-2.125-2.125H13.529c-1.275 0-2.125.85-2.125 2.125s.85 2.125 2.125 2.125h31.879c1.275.425 2.125-.85 2.125-2.125zM11.404 91.998c0 1.275.85 2.125 2.125 2.125h31.879c1.275 0 2.125-.85 2.125-2.125s-.85-2.125-2.125-2.125H13.529c-1.275 0-2.125.85-2.125 2.125zM20.755 41.843h17.427c1.275 0 2.125-.85 2.125-2.125s-.85-2.125-2.125-2.125H20.755c-1.275 0-2.125.85-2.125 2.125s.85 2.125 2.125 2.125zM40.307 9.965c0-1.275-.85-2.126-2.125-2.126H20.755c-1.275 0-2.125.85-2.125 2.126 0 1.275.85 2.125 2.125 2.125h17.427c1.275 0 2.125-1.275 2.125-2.125zM40.307 55.02c0-1.276-.85-2.126-2.125-2.126H20.755c-1.275 0-2.125.85-2.125 2.125 0 1.276.85 2.126 2.125 2.126h17.427c1.275 0 2.125-.85 2.125-2.126zM18.63 83.922c0 1.275.85 2.126 2.125 2.126h17.427c1.275 0 2.125-.85 2.125-2.126 0-1.275-.85-2.125-2.125-2.125H20.755c-1.275 0-2.125.85-2.125 2.125z"/><path d="M25.856 75.847c-2.975-1.276-5.95-2.55-8.926-4.25-8.076 4.25-14.451 9.775-15.727 18.276 2.126 1.7 4.676 2.975 7.226 3.825.425-.425.425-1.275.425-1.7 0-7.226 7.651-11.901 17.002-16.151zM27.981 28.666c11.476 5.101 22.102 10.202 22.102 18.702 0 7.226-7.65 11.902-16.576 16.152 2.975 1.275 5.95 2.55 8.926 4.25 8.5-4.675 15.726-10.625 15.726-20.401 0-13.602-14.026-19.978-26.352-25.928C20.33 16.34 9.703 11.24 9.703 2.739c0-.85 0-1.275-.425-1.7-2.55 1.275-5.1 2.55-7.226 3.825.85 12.326 14.027 18.277 25.928 23.803z"/><path d="M33.082 19.316c2.975 1.275 5.95 2.55 8.926 4.25 8.075-4.25 14.451-9.776 15.726-18.277-2.125-1.7-4.675-2.975-7.226-3.825-.425.425-.425 1.275-.425 1.7-.425 6.8-7.65 11.476-17.001 16.152zM30.956 66.07C19.48 60.97 8.854 55.87 8.854 47.37c0-7.226 7.65-11.902 16.577-16.152-2.976-1.275-5.951-2.55-8.926-4.25C8.004 31.642.778 37.593.778 47.368c0 13.601 14.027 19.977 26.353 25.927 11.476 5.1 22.102 10.201 22.102 18.702 0 .85 0 1.275.425 1.7 2.55-1.275 5.1-2.55 7.226-3.825-.85-12.326-14.027-18.277-25.928-23.803z"/></svg>