<svg xmlns="http://www.w3.org/2000/svg"><path d="M78.347 8.605c-10.2-10.201-27.202-10.201-37.404 0-10.2 10.201-10.2 27.203 0 37.404 10.202 10.2 27.203 10.2 37.404 0 10.626-10.201 10.626-26.778 0-37.404zm-2.55 8.5L49.444 43.46c-1.275 1.275-3.825 1.275-5.525 0-1.275-1.276-1.275-3.826 0-5.526L70.27 11.58c1.276-1.275 3.826-1.275 5.526 0 1.275 1.7 1.275 3.826 0 5.526z"/><path d="M32.018 37.933L9.915 15.83c-1.275-1.276-1.275-3.4 0-4.676 1.275-1.275 3.4-1.275 4.25 0l15.727 15.727c0-6.801 2.55-14.027 7.226-19.552C28.618.104 15.441.104 6.94 8.605c-8.5 8.5-8.5 22.527 0 31.453 7.65 7.65 18.702 8.501 27.628 2.975-.85-1.275-1.7-2.975-2.55-5.1 0 .425 0 .425 0 0z"/></svg>