<svg xmlns="http://www.w3.org/2000/svg"><path d="M8.73 21.153h11.052c1.7 0 2.975-1.275 3.4-2.975v-.425H4.905v.425c.85 1.7 2.55 2.975 3.825 2.975zM4.48 12.227h19.977l1.275-8.5c.425-1.7-.85-2.976-2.55-2.976H5.754c-1.7 0-2.55 1.275-2.55 2.976l1.274 8.5z"/><path d="M27.432 13.503H1.504c-.85 0-1.275.425-1.275 1.275v58.23c0 8.077 6.376 14.452 14.452 14.452s14.451-6.375 14.451-14.451V14.778c-.425-.425-.85-1.275-1.7-1.275zm-1.275 59.506c0 6.375-5.1 11.901-11.901 11.901-6.376 0-11.902-5.1-11.902-11.901V16.053h23.378v56.956h.425z"/><path d="M14.255 83.21c5.526 0 10.201-4.676 10.201-10.201V47.506H4.054V73.01c.425 5.95 4.676 10.2 10.201 10.2z"/></svg>