<svg xmlns="http://www.w3.org/2000/svg"><path d="M28.318 22.155c-6.376-6.376-17.002-6.376-23.378 0-6.375 6.376-6.375 17.002 0 23.377l30.178 30.179c6.376 6.375 17.002 6.375 23.378 0 6.375-6.376 6.375-17.002 0-23.378L28.318 22.155zm-7.226 34.004L7.49 42.557c-5.1-5.1-5.1-13.176 0-17.852 5.101-5.1 13.177-5.1 17.852 0l13.602 13.602-17.852 17.852zM57.645.478a19.047 19.047 0 00-19.127 19.127c0 10.626 8.501 19.127 19.127 19.127s19.127-8.501 19.127-19.127C77.197 9.404 68.272.478 57.645.478zm12.327 31.878c-.425.425-.85.425-1.276.425-.425 0-.85 0-1.275-.425L45.744 10.68c-.85-.85-.85-2.125 0-2.55.85-.85 2.125-.85 2.55 0l21.678 21.677c.85.425.85 1.7 0 2.55z"/></svg>