<svg xmlns="http://www.w3.org/2000/svg"><path d="M58.346 10.104c-4.25-2.55-8.501-4.675-13.177-7.226-4.675-2.55-9.776-3.4-15.726-2.55C13.29 2.453.115 18.605.115 36.032c0 11.05 5.525 20.402 13.601 24.652l13.176 7.226h-.425c3.4 2.125 7.651 2.975 11.902 2.975 1.275 0 2.55 0 3.825-.425 16.152-2.125 29.328-18.277 29.328-35.703.425-11.052-4.675-20.403-13.176-24.653zM42.194 66.21c-1.275 0-2.125.425-3.4.425-5.526 0-10.626-2.125-14.452-5.95-4.25-4.251-6.8-10.627-6.8-17.428 0-7.65 2.975-15.301 8.075-21.252L59.621 56.01c-4.25 5.1-10.626 9.35-17.427 10.2zm20.402-14.027L29.018 18.605c4.25-3.825 9.35-6.376 14.876-7.226 1.275 0 2.125-.425 3.4-.425 5.526 0 10.627 2.125 14.452 5.95 4.25 4.251 6.8 10.627 6.8 17.427-.85 6.801-2.975 12.752-5.95 17.852z"/></svg>