<svg xmlns="http://www.w3.org/2000/svg"><path d="M71.31.291c-1.275 0-2.55 1.275-2.55 2.55V31.32H5.854V2.841c0-1.275-1.275-2.55-2.55-2.55-1.276 0-2.55 1.275-2.55 2.55v48.455c0 1.276 1.274 2.55 2.55 2.55 1.275 0 2.55-1.274 2.55-2.55V36.42h62.481v14.876c0 1.276 1.275 2.55 2.55 2.55 1.276 0 2.55-1.274 2.55-2.55V2.841c.426-1.7-.85-2.55-2.124-2.55z"/><path d="M14.354 23.669c2.976 0 5.526-2.55 5.526-5.526 0-2.975-2.55-5.526-5.526-5.526-2.975 0-5.525 2.55-5.525 5.526.425 2.975 2.55 5.526 5.525 5.526zM14.78 30.044c4.25 0 7.65-1.275 7.65-2.975 0-1.7-3.4-2.975-7.65-2.975s-7.651 1.275-7.651 2.975c0 1.7 3.4 2.975 7.65 2.975zM65.36 14.743H23.705v14.026H65.36V14.743z"/></svg>