<svg xmlns="http://www.w3.org/2000/svg"><path d="M61.945 11.59H5.415c-2.55 0-4.676 2.126-4.676 4.676v43.355c0 2.55 2.125 4.675 4.676 4.675h5.95c0-5.95 4.676-10.626 10.626-10.626 5.95 0 10.626 4.676 10.626 10.626h19.127c0-5.95 4.676-10.626 10.626-10.626 5.951 0 10.627 4.676 10.627 10.626h3.825c2.55 0 4.675-2.125 4.675-4.675V31.568c0-11.051-8.925-19.977-19.552-19.977zM39.843 34.119l3.825 2.125c.426 0 .426.425 0 .85l-2.55 4.25c0 .426-.425.426-.85 0l-3.825-2.124c-.425 0-.425 0-.425.425v4.675c0 .425 0 .425-.425.425h-4.676c-.425 0-.425 0-.425-.425v-4.675c0-.425 0-.425-.425-.425l-3.825 2.125h-.85l-2.55-4.25v-.85l3.825-2.126c.425 0 .425-.425 0-.425l-3.826-2.125c-.425 0-.425-.425 0-.425l2.55-4.25c0-.426.426-.426.85 0l3.826 2.124c.425 0 .425 0 .425-.424v-4.676c0-.425 0-.425.425-.425h4.676c.425 0 .425 0 .425.425v4.675c0 .426 0 .425.425.425l3.825-2.125h.85l2.55 4.25v.426l-3.825 2.125c-.425.425-.425.425 0 .425zm38.254 3.825H58.97V14.991h2.55c8.926 0 16.577 7.226 16.577 16.577v6.375z"/><path d="M21.991 54.945c-5.1 0-9.35 4.25-9.35 9.351 0 5.1 4.25 9.351 9.35 9.351s9.351-4.25 9.351-9.35c0-5.101-4.25-9.352-9.35-9.352zm0 14.027c-2.55 0-4.675-2.125-4.675-4.676 0-2.55 2.125-4.675 4.675-4.675s4.676 2.125 4.676 4.675-2.125 4.676-4.676 4.676zM62.37 54.945c-5.1 0-9.35 4.25-9.35 9.351 0 5.1 4.25 9.351 9.35 9.351 5.101 0 9.352-4.25 9.352-9.35 0-5.101-4.25-9.352-9.351-9.352zm0 14.027c-2.55 0-4.675-2.125-4.675-4.676 0-2.55 2.125-4.675 4.676-4.675 2.55 0 4.675 2.125 4.675 4.675s-2.125 4.676-4.675 4.676zM60.67 4.79A3.81 3.81 0 0056.845.965 3.81 3.81 0 0053.02 4.79v5.1h7.65v-5.1z"/></svg>