<svg xmlns="http://www.w3.org/2000/svg"><path d="M6.84 55.434H4.29c0 4.675 3.825 8.5 8.5 8.5v-2.55c-3.4 0-5.95-2.55-5.95-5.95zM69.746 16.755l-2.55.425c.425 3.4-1.7 6.375-5.1 7.226l.425 2.55c5.1-1.275 8.076-5.526 7.225-10.201z"/><path d="M66.346 43.532l-24.228-2.975 1.275-.85 23.378-11.476c5.95-2.975 8.076-11.476 4.675-18.702-3.825-7.226-11.476-10.626-17.851-7.65L30.217 13.353 7.265 24.831c-5.95 2.975-8.076 11.476-4.676 18.701 0 0 0 .426.425.426-.85 1.7-1.7 3.825-2.125 6.375-.85 8.076 3.826 15.302 10.626 16.152l25.503 2.975 25.928 3.4c6.8.85 13.176-5.1 14.026-13.176.85-8.076-3.825-15.301-10.626-16.151zM54.019 2.303c5.951-2.975 13.177.425 16.577 7.226 3.4 6.8 1.7 14.877-4.25 17.852L45.094 38.007c1.7-2.975.85-8.5-2.126-14.451-2.975-5.951-7.225-9.777-10.2-10.627L54.02 2.303zM11.09 26.531l.425 2.55c-3.4.85-5.525 3.825-4.675 7.226l-2.55.425c-.85-4.676 2.125-9.351 6.8-10.201zm34.004 29.328c-.85 7.65-4.676 13.601-7.651 13.176L11.94 66.06c-6.375-.85-10.626-7.65-9.776-15.302.85-7.65 6.801-13.176 13.177-12.326l25.502 2.975c2.976 0 5.1 6.801 4.25 14.452zm25.927-1.275c0-3.4-2.975-6.376-6.375-6.376v-2.55c4.675 0 8.5 3.825 8.5 8.5h-2.125v.426z"/></svg>