<svg xmlns="http://www.w3.org/2000/svg"><path d="M20.703 51.27c-5.95 0-10.626 4.675-10.626 10.626 0 5.95 4.676 10.626 10.626 10.626 5.951 0 10.627-4.675 10.627-10.626 0-5.95-4.676-10.626-10.627-10.626zm0 16.152c-2.975 0-5.525-2.55-5.525-5.526 0-2.975 2.55-5.526 5.525-5.526 2.976 0 5.526 2.55 5.526 5.526 0 2.975-2.55 5.526-5.526 5.526zM61.933 51.27c-5.95 0-10.626 4.675-10.626 10.626 0 5.95 4.675 10.626 10.626 10.626 5.95 0 10.626-4.675 10.626-10.626 0-5.95-4.676-10.626-10.626-10.626zm0 16.152c-2.976 0-5.526-2.55-5.526-5.526 0-2.975 2.55-5.526 5.526-5.526 2.975 0 5.525 2.55 5.525 5.526 0 2.975-2.55 5.526-5.525 5.526z"/><path d="M80.635 33.418l-11.901-2.125c-.85 0-2.126-.85-2.126-2.125l-3.825-16.152c0-.85-.85-2.125-2.125-2.125H2.852c-.85 0-2.125.85-2.125 2.125v46.755c0 .85.85 2.125 2.125 2.125h4.675c0-6.8 5.526-12.326 12.327-12.326 6.8 0 12.326 5.525 12.326 12.326H48.33c0-6.8 5.526-12.326 12.327-12.326 6.8 0 12.326 5.525 12.326 12.326h5.95c.85 0 2.126-.85 2.126-2.125V34.693c1.7-.425.85-1.275-.425-1.275zM34.73 29.593l3.826 2.125s.425.425 0 .425l-2.126 3.825s-.425.425-.425 0l-3.825-2.125h-.425v4.25c0 .426 0 .426-.425.426h-4.25c-.426 0-.426 0-.426-.425v-4.25c0-.426 0-.426-.425 0l-3.825 2.124h-.425l-2.125-3.825v-.425l3.825-2.125v-.425l-3.825-2.126s-.425-.425 0-.425l2.125-3.825s.425-.425.425 0l3.825 2.125h.425v-4.25c0-.425 0-.425.425-.425h4.25c.426 0 .426 0 .426.425v4.25c0 .425 0 .425.425 0l3.825-2.125h.425l2.126 3.825v.425l-3.826 2.126v.425zm27.628 1.7h-7.226c-.85 0-2.125-.85-2.125-2.125V15.566c0-.85.85-2.125 2.125-2.125h2.55c.85 0 2.126.85 2.55 1.7l3.401 13.602c.425 1.7-.425 2.55-1.275 2.55zM55.132 4.515A3.81 3.81 0 0051.307.69a3.81 3.81 0 00-3.826 3.825v5.1h7.651v-5.1z"/></svg>