<svg xmlns="http://www.w3.org/2000/svg"><path d="M31.933 55.982c0-1.275-1.7-2.55-4.25-2.975-4.25-.425-5.1.85-5.1 2.125 0 1.276 2.125 2.976 4.675 2.976 2.55.425 4.675-.85 4.675-2.126zM20.457 58.108c-.425 0-.85.85-.85 2.125s0 2.125.425 2.125.85-.85.85-2.125c.425-1.275 0-2.125-.425-2.125zM14.932 53.432c-2.55.425-4.25 1.7-4.25 2.975 0 1.276 2.124 2.126 4.675 2.126 2.55 0 4.675-1.7 4.675-2.976 0-1.275-.425-2.55-5.1-2.125zM21.732 58.108c-.425 0-.425.85-.425 2.125s.425 2.125.85 2.125.425-.85.425-2.125-.425-2.55-.85-2.125z"/><path d="M35.759 30.055c-3.826-.85-6.801-3.4-6.801-5.526 0-2.125 1.7-3.825 3.4-3.825s3.4-2.55 3.4-5.95c0-3.401-3.4-5.952-7.65-5.952H14.506c-4.25 0-7.65 2.55-7.65 5.951 0 3.4 1.7 5.95 3.4 5.95s3.4 1.701 3.4 3.826-2.975 4.676-6.8 5.526c-3.826.85-6.801 5.1-6.801 9.35v32.73c0 4.25 3.4 7.65 7.65 7.65h27.629c4.25 0 7.65-3.4 7.65-7.65v-32.73c-.425-4.25-3.4-8.5-7.225-9.35zm-31.454 9.35c.85-.85 2.126-.85 2.55 0-.85-.85-.85-2.125 0-2.975.85-.85 2.126-.85 2.55 0 .851.85.851 2.126 0 2.976l-.424.425 2.975 2.975c-.85.425-2.125 1.275-2.975 2.125l-2.55-2.55c-.85.85-2.126.85-2.55 0 0-.85 0-2.125.424-2.975zm9.351 24.228l-3.4 3.4c.85.85.85 2.126 0 2.55-.85.85-2.125.85-2.55 0-.85-.85-.85-2.124 0-2.55-.85.85-2.126.85-2.55 0-.85-.85-.85-2.125 0-2.55.85-.85 2.125-.85 2.55 0l.425.425 3.4-3.4c.85.85 1.7 1.275 2.55 1.7-.425 0-.425.425-.425.425zm14.027 2.125v-1.275s0-.425-.425-.425c0 0-.425 0-.425.425v1.275h-1.275v-1.275s0-.425-.425-.425c0 0-.425 0-.425.425v1.275h-1.276v-1.275s0-.425-.425-.425c0 0-.425 0-.425.425v1.275h-1.275v-1.275s0-.425-.425-.425-.425 0-.425.425v1.275h-1.275v-1.275s0-.425-.425-.425c0 0-.425 0-.425.425v1.275h.425v-1.275s0-.425-.425-.425-.425 0-.425.425v1.275h-1.275v-1.275s0-.425-.425-.425c0 0-.425 0-.425.425v1.275h-1.276v-1.275s0-.425-.425-.425c0 0-.425 0-.425.425v1.275h-.85c0-1.275.425-2.125.85-2.975-4.25-2.125-7.225-5.95-7.225-10.2 0-6.377 6.375-11.477 14.026-11.477 7.65 0 14.026 5.1 14.026 11.476 0 4.25-2.975 8.076-7.65 10.201.425.85.85 2.125.85 2.975zm10.2 1.7c-.85.85-2.124.85-2.975 0 .85.85.85 2.126 0 2.55-.85.851-2.125.851-2.55 0-.85-.85-.85-2.124 0-2.55l-3.4-3.4c0-.425 0-.425-.425-.85.85-.425 2.125-1.275 2.55-1.7l3.4 3.4.425-.425c.85-.85 2.126-.85 2.976 0 .85.85.85 2.126 0 2.976zm0-25.502c-.85.85-2.124.85-2.975 0l-2.55 2.55c-.85-.85-1.7-1.7-2.975-2.125l2.975-2.975-.425-.425c-.85-.85-.85-2.126 0-2.976.85-.85 2.126-.85 2.55 0 .85.85.85 2.126 0 2.976.85-.85 2.126-.85 2.976 0 1.275 1.275 1.275 2.55.425 2.975zM28.958 6.677s0-.425 0 0V.302H13.656v6.375h15.302z"/></svg>