<svg xmlns="http://www.w3.org/2000/svg"><path d="M30.244 2.113h6.8c.425 0 .425-.425.425-.425v-.85c0-.425-.425-.425-.425-.425h-6.8c-.425 0-.425.425-.425.425v.85c-.425.425 0 .425.425.425zM25.143 30.166c3.4 0 5.951-2.55 5.951-5.951 0-3.4-2.55-5.95-5.95-5.95-3.4 0-5.951 2.55-5.951 5.95 0 3.4 2.55 5.95 5.95 5.95zm0-7.651c.85 0 1.7.85 1.7 1.7s-.85 1.7-1.7 1.7-1.7-.85-1.7-1.7.425-1.7 1.7-1.7z"/><path d="M25.994 25.49c-.425 0-.85-.425-.85-.85l-.85-.85c-.426.425-.426 1.275 0 1.7.424.425.85.425 1.7 0z"/><path d="M25.993 25.065c.425-.425.425-1.275-.425-1.7-.425-.425-1.275-.425-1.7 0 .425 0 .85.425.85.85.85.425 1.275.425 1.275.85zM20.468 40.367a3.81 3.81 0 003.825-3.826 3.81 3.81 0 00-3.825-3.825 3.81 3.81 0 00-3.826 3.825 3.81 3.81 0 003.826 3.826zm0-5.526c.85 0 1.7.85 1.7 1.7s-.85 1.7-1.7 1.7-1.7-.85-1.7-1.7.85-1.7 1.7-1.7z"/><path d="M21.318 37.391c-.425 0-.85-.425-.85-.85l-.85-.85c-.425.425-.425 1.275 0 1.7.425.425.85.425 1.7 0zM21.318 37.391c.425-.425.425-1.275 0-1.7-.425-.425-1.276-.425-1.7 0 .425 0 .85.425.85.85.425 0 .85.425.85.85zM19.192 73.095c0-1.275-1.275-2.55-2.55-2.55s-2.55 1.275-2.55 2.55 1.275 2.55 2.55 2.55c1.7 0 2.55-.85 2.55-2.55zM17.918 70.545c.425-1.275.85-2.125 1.275-2.55h-.425c-.425.425-.85 1.275-.85 2.55z"/><path d="M15.367 70.97c-.425-1.275-1.275-2.125-1.275-2.55 0 0-.425 0-.425.425 0 0 .85.85 1.7 2.125zM17.918 70.545c.85-1.275 1.275-2.125 1.7-2.55 0 0-.425 0-.425-.425-.425.85-.85 2.125-1.275 2.975zM18.342 70.97c.85-.85 1.275-1.7 1.7-2.125 0 0-.425 0-.425-.425-.425.425-.85 1.275-1.275 2.55zM18.768 71.395c.85-.85 1.7-1.275 2.55-1.7 0 0 0-.425-.425-.425l-2.125 2.125zM17.068 70.545c.425-1.275.425-2.126.85-2.975h-.425c0 .425-.425 1.7-.425 2.975z"/><path d="M18.342 70.97l2.126-2.125s-.426 0-.426-.425c-.425.85-.85 1.7-1.7 2.55zM15.792 70.545c-.425-1.275-.85-2.125-.85-2.55h-.425c0 .425.85 1.275 1.275 2.55zM17.067 70.545c0-1.275.425-2.126.425-2.975h-.425c-.425.425-.425 1.7 0 2.975zM19.193 71.82c1.275-.425 2.125-1.275 2.55-1.275 0 0 0-.425-.425-.425s-1.275.85-2.125 1.7zM15.367 70.545c-.425-1.275-.85-2.125-1.275-2.55 0 0-.425 0-.425.425.425.425 1.275 1.275 1.7 2.125z"/><path d="M16.217 70.545c-.425-1.275-.425-2.126-.425-2.975h-.425c0 .85 0 1.7.85 2.975-.425 0-.425 0 0 0zM16.642 70.545V67.57h-.425c0 .425 0 1.7.425 2.975z"/><path d="M16.217 70.545c0-1.275 0-2.126-.425-2.975h-.425c.425.85.425 1.7.85 2.975zM17.492 70.545c.425-1.275.85-2.125.85-2.55h-.425c0 .425-.425 1.275-.425 2.55zM14.092 74.37c-1.275.425-2.125.85-2.55.85v.425c.425-.425 1.275-.85 2.55-1.275zM14.092 73.945c-1.275.425-2.125.425-2.975.425v.425c.85 0 1.7-.425 2.975-.85zM14.092 72.245c-1.275-.425-2.125-.85-2.55-1.275v.425c.425 0 1.275.425 2.55.85z"/><path d="M14.092 72.245c-1.275-.425-2.125-.85-2.55-.85v.425c.425.425 1.275.425 2.55.425 0 .425 0 .425 0 0zM19.617 73.945c1.276.425 2.126.85 2.55.85v-.425c-.424 0-1.274 0-2.55-.425zM18.768 75.22c.85.85 1.275 1.7 1.7 2.126l.425-.426c-.425-.425-1.275-.85-2.125-1.7zM14.517 75.22c-.85.85-1.7 1.7-2.125 1.7l.425.425c.425-.424 1.275-1.275 1.7-2.124zM19.617 72.67c1.276-.425 2.126-.425 2.976-.425v-.425c-.85 0-2.125.425-2.976.85zM19.193 71.82c1.275-.425 2.125-.85 2.55-1.275 0 0 0-.425-.425-.425 0 .425-.85 1.275-2.125 1.7zM19.617 73.095h2.976v-.425c-.85 0-1.7.425-2.976.425z"/><path d="M19.617 72.67c1.276 0 2.126 0 2.976-.425v-.425c-.85.425-1.7.85-2.976.85zM19.193 72.245c1.275-.425 2.125-.85 2.55-.85v-.425c-.425.425-1.275.85-2.55 1.275zM14.943 71.395c-.85-.85-1.7-1.7-1.7-2.126l-.426.426s.85.85 2.126 1.7c-.425 0 0 0 0 0zM18.768 71.395c.85-.85 1.7-1.7 2.125-1.7l-.425-.425c-.425.425-.85.85-1.7 2.125zM19.193 74.37c1.275.425 2.125.85 2.55 1.275v-.424c0-.425-1.275-.85-2.55-.85zM17.918 75.645c.425 1.275.85 2.126 1.275 2.55 0 0 .425 0 .425-.424-.425 0-.85-.85-1.7-2.126zM17.068 76.07c0 1.276 0 2.126.425 2.976h.425c-.425-.85-.425-1.7-.85-2.976z"/><path d="M17.492 76.07c.425 1.276.85 2.126.85 2.55h.425c0-.85-.425-1.7-1.275-2.55.425-.425.425-.425 0 0z"/><path d="M17.492 76.07c.425 1.276.425 2.126.425 2.976h.425c0-.85-.425-2.126-.85-2.976zM16.217 76.07c-.425 1.276-.425 2.126-.85 2.976h.425c.425-.85.425-1.7.425-2.976zM16.642 76.07c0 1.276-.425 2.126-.425 2.976h.425V76.07z"/><path d="M15.793 76.07c-.425 1.276-.85 2.126-.85 2.55h.425c.425-.424.425-1.274.425-2.55zM16.642 76.07v2.976h.425c0-.85 0-1.7-.425-2.976.425 0 .425 0 0 0zM18.342 75.645c.425 1.275 1.275 2.126 1.275 2.55 0 0 .425 0 .425-.424-.425-.426-.85-1.276-1.7-2.126zM19.617 73.52c1.276.425 2.126.425 2.976.85v-.425c-.85 0-1.7 0-2.976-.425z"/><path d="M19.617 73.52c1.276 0 2.126.425 2.976.425v-.425c-.85-.425-1.7 0-2.976 0zM19.193 74.37c1.275.85 2.125 1.275 2.55 1.275 0 0 0-.424.425-.424-.85 0-1.7-.426-2.975-.85zM18.342 75.22c.85.85 1.275 1.7 1.7 2.55 0 0 .425 0 .425-.424-.425-.425-1.275-.85-2.125-2.126zM18.768 74.795l2.125 2.126s0-.425.425-.425c-.425-.426-1.275-.85-2.55-1.7z"/><path d="M19.193 74.795c.85.85 1.7 1.275 2.125 1.7 0 0 0-.425.425-.425l-2.55-1.275zM14.092 72.67c-1.275-.425-2.125-.425-2.975-.85v.425c.425.425 1.7.425 2.975.425zM14.943 70.97c-.85-.85-1.275-1.7-1.7-2.55 0 0-.426 0-.426.425l2.126 2.125zM14.092 73.095c-1.275 0-2.125-.425-2.975-.425v.425h2.975zM14.092 73.52c-1.275 0-2.125 0-2.975.425v.425c.425 0 1.7-.425 2.975-.85z"/><path d="M14.092 73.52h-2.975v.425c.425-.425 1.7-.425 2.975-.425zM14.517 71.395l-2.125-2.126s0 .426-.425.426c.85.425 1.7.85 2.55 1.7zM14.517 71.82c-.85-.85-1.7-1.275-2.125-1.7 0 0 0 .425-.425.425.425 0 1.275.425 2.55 1.275zM14.092 71.82c-1.275-.85-2.125-1.275-2.55-1.275 0 0 0 .425-.425.425.85 0 2.125.425 2.975.85zM14.942 75.645c-.85.85-1.275 1.7-1.7 2.126 0 0 .425 0 .425.425.425-.425.85-1.7 1.275-2.55.425 0 .425 0 0 0zM15.792 75.645c-.425 1.275-.85 2.126-1.275 2.55h.425l.85-2.55z"/><path d="M15.367 75.645c-.85 1.275-1.275 2.126-1.275 2.55 0 0 .425 0 .425.426 0-.85.425-1.7.85-2.976zM14.943 75.22l-2.126 2.126s.425 0 .425.424c.425-.424.85-1.274 1.7-2.55zM14.517 74.795c-1.275.425-2.125 1.275-2.55 1.275 0 0 0 .426.425.426 0-.426.85-.85 2.125-1.7z"/><path d="M14.517 74.795c-.85.85-1.7 1.275-2.55 1.7 0 0 0 .425.425.425.425-.424 1.275-.85 2.125-2.125zM14.092 74.37c-1.275.425-2.125.85-2.55 1.275 0 0 0 .426.425.426.425-.425 1.275-.85 2.125-1.7zM31.094 24.215c0 2.125-1.275 4.25-2.976 5.1v13.177c0 .425.425.425.425.425h9.776c.425 0 .425-.425.425-.425V20.815c0-.426-.425-.426-.425-.426h-8.5c.85 1.276 1.275 2.55 1.275 3.826zM36.194 19.965c.425 0 .425-.425.425-.425V2.963c0-.425-.425-.425-.425-.425h-5.1c-.425 0-.425.425-.425.425V19.54c0 .425.425.425.425.425h5.1zM16.217 60.344v1.7c0 .425.425.425.425.425h35.704c.425 0 .425-.425.425-.425v-1.7c0-.425-.425-.425-.425-.425H16.642s-.425 0-.425.425zM39.17 66.72c.425 0 .425-.426.425-.426v-2.55c0-.425-.425-.425-.425-.425H26.417c-.425 0-.425.425-.425.425v2.55c0 .425.425.425.425.425H39.17zM41.72 67.995c0-.425-.425-.425-.425-.425H25.142c-.425 0-.425.425-.425.425v1.275c0 .425.425.425.425.425h16.151c.426 0 .426-.425.426-.425v-1.275zM28.968 48.017l.425 1.276c0 .425.425.425.85.425l16.577-5.526c.425 0 .425-.425.425-.85l-.425-1.275c0-.425-.425-.425-.85-.425l-16.577 5.525c-.425 0-.425.425-.425.85z"/><path d="M36.194 43.767h-5.1c-.425 0-.425.425-.425.425v2.55l6.376-2.125v-.425c-.425-.425-.425-.425-.85-.425zM38.32 49.293c-.425 0-.425.425-.425.425s.424.425.424 0l2.126-.85c.425 0 .425-.425.425-.425s-.425-.425-.85 0l-1.7.85z"/><path d="M42.145 47.593l4.675-3.4c.425 0 0-.426 0 0l-16.576 5.525c-.425 0-.425 0 0 0h6.801l4.25-1.275.85-.85zM54.046 87.122H5.591c-.425 0-.425.425-.425.425v4.25c0 .425.425.425.425.425h48.88c.426 0 .426-.425.426-.425v-4.25c0-.425-.426-.425-.85-.425zM31.094 55.668h4.675c.425 0 .425-.425.425-.425v-2.125c0-.425-.425-.425-.425-.425h-4.675c-.425 0-.425.425-.425.425v2.125l.425.425zM35.77 57.369h-4.676c-.425 0-.425 0-.425.425l.425.425h4.675c.425 0 .425 0 .425-.425s0-.425-.425-.425zM37.045 56.518c0-.425-.425-.85-.425-.85h-5.526c-.425 0-.425.425-.425.425 0 .425.425.425.425.425h5.526c0 .425.425.425.425 0zM29.82 51.418c0 .425.424.425.424.425h6.376c.425 0 .425-.425.425-.425v-.85c0-.425-.425-.425-.425-.425h-6.376c-.425 0-.425.425-.425.425v.85zm6.8-1.275c.425 0 .425 0 0 0l.425 1.275v-1.275h-.425zm-.425 0s.425 0 0 0l.425 1.275v-1.275h-.425zm-.85 0s.425 0 0 0c.425 0 .425 0 0 0l.425 1.275v-1.275h-.425zm-.425 0c.425 0 .425 0 0 0l.425 1.275v-1.275h-.425zm-.425 0c.425 0 .425 0 0 0l.425 1.275v-1.275h-.425zm-.425 0s.425 0 0 0l.425 1.275v-1.275h-.425zm-.85 0s.425 0 0 0c.425 0 .425 0 0 0l.425 1.275v-1.275h-.426zm-.426 0c.425 0 .425 0 0 0l.425 1.275v-1.275h-.425zm-.425 0s.425 0 0 0l.425 1.275v-1.275h-.425zm-.425 0l.425 1.275v-1.275h-.425zm-.85 0c.425 0 .425 0 0 0l.425 1.275v-1.275h-.425zm-.425 0c.425 0 .425 0 0 0l.425 1.275v-1.275h-.425zm-.425 0s.425 0 0 0l.425 1.275v-1.275h-.425zM47.67 46.742l-3.4 2.55c-.425 0-.425.426 0 .85l1.275 1.7c0 .426.426.426.85 0l3.401-2.55c.425 0 .425-.425 0-.85l-1.275-1.7c-.425-.425-.85-.425-.85 0zM50.646 50.568l-3.4 2.55c-.425 0-.425.425-.425.425h.425l3.4-2.55c.425 0 .425-.425.425-.425h-.425z"/><path d="M45.545 53.118c.425.425.425.425.85.425l4.251-3.4c.425 0 .425-.425 0-.85 0-.425-.425-.425-.85 0l-4.25 3.4v.425zM41.72 48.868l.425.85c0 .425.425.425.85 0l5.1-3.826c.425 0 .425-.425 0-.85l-.425-.85c0-.425-.425-.425-.85 0l-5.1 3.825v.85zm5.525-4.676l.85 1.275v.425h-.425l-.425-1.7c0 .425 0 0 0 0zm-.425.425l.85 1.275v.425h-.425l-.425-1.7zm-.425.425l.85 1.275v.425h-.425l-.425-1.7zm-.425.425c0-.425 0-.425 0 0l.85 1.275v.425h-.425l-.425-1.7zm-.425 0l.85 1.275v.425h-.425l-.425-1.7c0 .425 0 .425 0 0zm-.425.425l.85 1.275v.425h-.425l-.425-1.7c0 .425 0 0 0 0zm-.425.425l.85 1.276v.424h-.425l-.425-1.7zm-.425.425l.85 1.275v.425h-.425l-.425-1.7c-.425 0 0 0 0 0zm-.425 0l.85 1.275v.425h-.425l-.425-1.7c-.425.425 0 .425 0 0zm-.425.425l.85 1.276v.425h-.425l-.425-1.7c-.425.425-.425 0 0 0zm-.425.425l.85 1.276v.425h-.425l-.425-1.7c-.425 0-.425 0 0 0zm-.425.425l.85 1.276v.425h-.425l-.425-1.7c-.425 0-.425 0 0 0zm-.425.425l.85.85v.426h-.425l-.425-1.276c-.425 0-.425 0 0 0 0-.425 0-.425 0 0zM25.569 86.697h15.726v-7.651H25.57v7.65zm14.876-7.226s.425 0 0 0c.425 0 .425 0 0 0l.425 6.376V79.47h-.425zm-.425 0s.425 0 0 0l.425 6.376V79.47h-.425zm-.85 0c.425 0 .425 0 0 0l.425 6.376V79.47h-.425zm-.85 0c.425 0 .425 0 0 0l.425 6.376V79.47h-.425zm-.425 0s.425 0 0 0l.425 6.376V79.47h-.425zm-.85 0c.425 0 .425 0 0 0l.425 6.376V79.47h-.425zm-.85 0c.425 0 .425 0 0 0l.425 6.376V79.47h-.425zm-.85 0s.425 0 0 0c.425 0 .425 0 0 0l.425 6.376V79.47h-.425zm-.425 0s.425 0 0 0l.425 6.376V79.47h-.425zm-.85 0c.425 0 .425 0 0 0l.425 6.376V79.47h-.425zm-.85 0s.425 0 0 0c.425 0 .425 0 0 0l.425 6.376V79.47h-.426zm-.426 0s.425 0 0 0l.425 6.376V79.47h-.425zm-.85 0c.425 0 .425 0 0 0l.425 6.376V79.47h-.425zm-.85 0c.425 0 .425 0 0 0l.425 6.376V79.47h-.425zm-.85 0s.425 0 0 0c.425 0 .425 0 0 0l.425 6.376V79.47h-.425zm-.425 0s.425 0 0 0l.425 6.376V79.47h-.425zm-.85 0c.425 0 .425 0 0 0l.425 6.376V79.47h-.425zm-.85 0s.425 0 0 0c.425 0 .425 0 0 0l.425 6.376V79.47h-.425zm-.425 0s.425 0 0 0l.425 6.376V79.47h-.425zm-.85 0c.425 0 .425 0 0 0l.425 6.376V79.47h-.425zm-.85 0c.425 0 .425 0 0 0l.425 6.376V79.47h-.425zM33.645 77.346c-2.976 0-5.951.424-5.951 1.275H40.02c-.85-.85-3.4-1.275-6.376-1.275zM23.443 58.644c-.425 0-.425 0-.425.425s.425.425.425.425h.85c.425 0 .425 0 .425-.425s-.425-.425-.425-.425h-.85zM25.143 56.518h-2.125c-.425 0-.425.425-.425.425v1.276c0 .425.425.425.425.425h2.125c.425 0 .425-.425.425-.425v-1.276c0-.425 0-.425-.425-.425zm-2.125 1.7c-.425 0-.425 0 0 0l-.425-1.7v1.7h.425zm.425 0c-.425 0-.425 0 0 0l-.425-1.7v1.7h.425zm.425 0c-.425 0-.425 0 0 0l-.425-1.7v1.7h.425zm.425 0c-.425 0-.425 0 0 0l-.425-1.7v1.7h.425zm.425 0c-.425 0-.425 0 0 0l-.425-1.7v1.7h.425zm.425 0c-.425 0-.425 0 0 0l-.425-1.7v1.7h.425zm.425 0c-.425 0-.425 0 0 0l-.425-1.7v1.7h.425z"/><path d="M26.843 57.794l-1.7.85v.425h.425l1.275-1.275c.425.425 2.976.85 5.951 1.275h.85c.85 0 1.275.425 1.7.425.85 0 1.276-.425 2.126-.85 0 0 .425-.425.85-.425v-.425h-.425c-.425 0-.426.425-.85.425-1.7.85-1.7.85-3.826.425h-.85c-2.975-.425-5.526-.85-5.526-.85z"/><path d="M23.868 86.696V62.894h-6.8c-1.276 0-1.276-.425-1.276-1.275v-.425s-4.675-1.7-5.525-8.501c-.85-6.8 2.975-10.626 6.8-10.626H27.27V29.74c-.85.425-1.7.85-2.976.85-3.4 0-6.375-2.976-6.375-6.376 0-.85 0-1.7.425-2.125-3.826 2.125-8.501 5.525-12.752 13.176-10.2 17.002-5.1 34.003 11.051 51.43h7.226zm-3.4-54.405c2.125 0 4.25 1.7 4.25 4.25 0 2.126-1.7 4.25-4.25 4.25-2.125 0-4.25-1.7-4.25-4.25 0-2.125 1.7-4.25 4.25-4.25zm-9.776 40.804c0-3.4 2.55-5.95 5.95-5.95 3.4 0 5.951 2.55 5.951 5.95 0 3.4-2.55 5.95-5.95 5.95-3.4.426-5.951-2.55-5.951-5.95z"/><path d="M11.117 79.896c-1.275 3.825-.85 6.8-.85 6.8h6.376l-2.55-2.55c-1.276-2.125-2.976-4.25-2.976-4.25z"/></svg>