<svg xmlns="http://www.w3.org/2000/svg"><path d="M59.296 4.116c-4.25-4.25-11.476-4.25-16.152 0l-11.9 11.902L19.341 4.116c-4.25-4.25-11.476-4.25-16.152 0-4.25 4.25-4.25 11.477 0 16.152L15.092 32.17 3.19 44.071c-4.25 4.25-4.25 11.476 0 16.151 4.25 4.25 11.476 4.25 16.152 0l11.901-11.901 11.901 11.901c4.25 4.25 11.477 4.25 16.152 0 4.25-4.25 4.25-11.476 0-16.151L47.395 32.169l11.901-11.9c4.25-4.676 4.25-11.902 0-16.153zM29.968 16.868L16.792 30.044c-.425.425-.85.425-1.275 0-.425-.425-.425-.85 0-1.275l13.176-13.176c.425-.425.85-.425 1.275 0 .425.425.425 1.275 0 1.275zM46.97 34.295L33.793 47.47c-.425.425-.85.425-1.275 0-.425-.425-.425-.85 0-1.275l13.177-13.177c.425-.425.85-.425 1.275 0 .425.425.425.85 0 1.276z"/></svg>