<svg xmlns="http://www.w3.org/2000/svg"><path d="M31.233 27.23c0-2.976 0-4.251.85-4.251s.85-.425.85-2.55c0-2.126 0-2.55-.85-2.55s-1.275-.85 0-.85 1.275 0 .85-2.551c0-2.55-.425-9.776-.425-11.901s-1.275-1.7-3.4-1.7h-9.351-9.351c-2.125 0-3.4-.425-3.4 1.7s-.426 9.35-.426 11.901c0 2.55 0 2.55.85 2.55 1.276 0 .85.85 0 .85s-.85.425-.85 2.55c0 2.126 0 2.55.85 2.55s.85 1.276.85 4.251c0 2.976-8.075 2.976-8.075 14.027v38.679c0 7.226 2.125 10.2 7.226 10.2h24.652c5.1 0 7.226-3.4 7.226-10.2v-38.68c0-11.05-8.076-11.05-8.076-14.026zm-.85-25.078c.425 0 .425.425.425.425.425 4.25.425 8.5.85 12.751 0 .425-.425.425-.425.425-.425 0-.425-.425-.425-.425-.425-4.25-.425-8.5-.85-12.751 0 0 0-.425.425-.425zm-2.125 0c.425 0 .425.425.425.425.425 4.25.425 8.5.85 12.751 0 .425-.425.425-.425.425l-.425-.425c0-4.25-.425-8.5-.425-12.751-.85 0-.425-.425 0-.425zm-2.125 0c.425 0 .425.425.425.425 0 4.25.425 8.5.425 12.751 0 .425-.425.425-.425.425-.425 0-.425-.425-.425-.425 0-4.25-.425-8.5-.425-12.751-.426 0 0-.425.425-.425zm-2.126 0c.425 0 .425.425.425.425 0 4.25.425 8.5.425 12.751 0 .425-.425.425-.425.425-.425 0-.425-.425-.425-.425 0-4.25 0-8.5-.425-12.751-.425 0 0-.425.425-.425zm-2.125 0c.425 0 .425.425.425.425v12.751c0 .425-.425.425-.425.425l-.425-.425V2.577c-.425 0 0-.425.425-.425zm-2.975.425c0-.425.425-.425.425-.425.425 0 .425.425.425.425v12.751c0 .425-.425.425-.425.425-.425 0-.425-.425-.425-.425V2.577zm-2.125 0c0-.425.425-.425.425-.425.425 0 .425.425.425.425v12.751c0 .425-.425.425-.425.425-.425 0-.425-.425-.425-.425V2.577zm-2.126 0c0-.425.425-.425.425-.425.425 0 .425.425.425.425 0 4.25 0 8.5-.425 12.751 0 .425-.425.425-.425.425-.425 0-.425-.425-.425-.425.425-4.25.425-8.5.425-12.751zm-2.125 0c0-.425.425-.425.425-.425.425 0 .425.425.425.425 0 4.25-.425 8.5-.425 12.751 0 .425-.425.425-.425.425-.425 0-.425-.425-.425-.425 0-4.25.425-8.5.425-12.751zm-2.125 0c0-.425.425-.425.425-.425.425 0 .425.425.425.425 0 4.25-.425 8.5-.425 12.751 0 .425-.425.425-.425.425-.425 0-.425-.425-.425-.425 0-4.25 0-8.5.425-12.751zm-2.55 13.176c-.425 0-.425-.425-.425-.425.425-4.25.425-8.5.85-12.751 0-.425.425-.425.425-.425.425 0 .425.425.425.425-.425 4.25-.425 8.5-.85 12.751.425.425 0 .425-.425.425zm29.328 64.182c0 7.65-2.55 8.076-5.1 8.076H7.43c-2.976 0-5.101-.425-5.101-8.076v-38.68c0-6.375 2.975-8.5 5.1-9.775 1.276-.85 2.976-2.125 2.976-4.25v-.85c0-1.276 0-2.551-.425-3.401h19.127c-.425.85-.425 2.125-.425 3.4v.85c0 2.126 1.7 3.4 2.975 4.25 2.125 1.701 5.1 3.401 5.1 9.777v38.679h.426z"/><path d="M3.605 41.256v38.679c0 6.8 1.7 6.8 3.826 6.8h24.652c2.125 0 3.826 0 3.826-6.8v-38.68c0-2.124-.425-3.825-.85-5.1H4.455c-.85 1.275-.85 2.976-.85 5.1z"/></svg>