<svg xmlns="http://www.w3.org/2000/svg"><path d="M68.547 23.605H4.365c-2.55 0-4.25 2.125-4.25 4.25 0 2.126 2.125 4.25 4.25 4.25h3.4C9.892 46.133 21.793 57.184 36.67 57.184c14.876 0 26.777-11.05 28.903-25.077h3.4c2.55 0 4.25-2.125 4.25-4.25 0-2.126-2.55-4.251-4.675-4.251zM58.345 58.883h-43.78c-2.55 0-4.25 2.126-4.25 4.251 0 2.55 2.126 4.25 4.25 4.25h43.78c2.55 0 4.25-2.125 4.25-4.25 0-2.55-2.124-4.25-4.25-4.25zM74.497 1.928c-1.7-1.7-4.25-1.7-5.95 0L49.845 20.63H62.17L74.922 7.877c1.275-1.7 1.276-4.25-.425-5.95z"/></svg>