<svg xmlns="http://www.w3.org/2000/svg"><path d="M89.848 34.818L74.972 9.316 59.67 18.242V.39H30.342v17.852L15.04 9.316.164 34.818l15.301 8.926L.164 52.67 15.04 78.173l15.302-8.926v17.852H59.67V69.247l15.302 8.926L89.848 52.67l-15.302-8.926 15.302-8.926zm-3.4 18.702L74.122 74.772 57.12 64.996V84.55H32.892V64.996L15.89 74.772 3.564 53.52l17.002-9.776-17.002-9.776L15.89 12.716l17.002 9.776V2.94H57.12v19.552l17.002-9.776 12.326 21.252-17.002 9.776 17.002 9.776z"/><path d="M49.044 23.342c.425 0 .85.425.85.425s-.425-.425-.85-.425zM49.469 31.843c-.425 0-.425 0 0 0 0 0 .425 0 .85.425h1.7-.85c-.85-.425-1.275-.425-1.7-.425z"/><path d="M84.322 33.543L73.696 14.841 55.844 25.042V4.215H34.592v20.827l-17.852-10.2L6.114 33.542l17.852 10.201L6.114 53.945 16.74 72.647l17.852-10.2v20.826h21.252V62.447l17.852 10.201 10.626-18.702-17.852-10.2 17.852-10.202zM45.218 6.766c3.825 0 6.8 2.975 6.8 6.375 0 2.125-1.274 3.826-2.974 5.1v5.101c2.55 1.275 3.825 3.4 4.25 4.676.425.85.85 1.7.425 2.125 0 .425 0 .85-.425 1.275-.425.425-.85.85-2.125.85h-2.976v.425h-.425v-.85h2.551c1.275 0 1.7-.425 1.7-.85s.425-.85.425-.85c0-.425-.425-1.275-.425-1.7-.425-1.275-1.7-3.4-3.826-4.676V18.242c1.7-1.275 2.55-2.976 2.55-4.676.426-3.825-2.125-6.375-5.525-6.8 1.275.425 2.55.85 3.4 1.275-.85-.85-2.125-1.275-3.4-1.275zm6.376 32.303c0 3.4-2.55 5.525-5.526 5.525-3.4.425-2.975 5.526-3.4 5.526-.425.425-3.4-1.275-3.4-4.675v-.425c0-3.4 1.7-4.676 4.675-5.526 2.55-.425 3.825-.425 3.825-2.55v-2.126c0-1.275 0-2.125.85-2.125.85.425 2.976 2.976 2.976 6.376zm-1.275 13.176c0 2.976-1.7 3.826-3.826 4.676-2.55.85-3.4 2.125-3.4 4.25 0 .85-2.125-.425-2.125-3.4v-.425c0-2.975 2.55-3.4 5.1-3.826 1.7-.425 2.125-.85 2.125-2.125v-.425-2.125c0-.425 0-.85.425-.85-.425 0 1.7 1.275 1.7 4.25 0-.425 0 0 0 0zm-1.276 11.476c0 2.126-.85 2.55-3.825 3.826-1.7.85-1.7 1.275-2.125 1.7v.85c-.425.425-1.275 0-1.275-1.7v-.425c0-1.7 2.125-2.975 3.825-3.825.85-.426 1.275-1.276 1.275-2.126v-1.275-.425c0-.425 2.126 1.275 2.126 3.4zm-5.525 6.801s.425 0 0 0l.425-.425v-.425c0-.425 0-.85 1.7-1.7.425 0 .85-.425.85-.425v6.375c0 .426-.425.425-.85.425h-.85c-.425 0-.85 0-1.275.426v-4.25c0 .424 0 .424 0 0zm2.55 5.526c-1.7.425-2.125.425-2.125-.425 0-.425.425-.425 1.7-.85 1.275 0 .85-1.275 1.7-1.275 0 0 .425.424.425.85 0 0-.425 1.275-1.7 1.7zm.425 0v1.7c0 .425 0 .425-.425.425h-1.7l-.425-.425v-1.7c0 .425.425.425.85.425s.85-.425 1.7-.425c-.425 0 0 0 0 0zM43.518 61.17s0-.425 0 0c0-2.125.85-3.4 2.975-3.825v6.8c0 .425-.425.85-.85.85-.85.426-1.7.85-2.125 1.276v-5.1zm0-11.051v-.425c.425-2.125.85-4.25 2.55-4.25h.85V53.095c0 .425-.425.425-1.275.425-.425 0-.425 0-.85.425-.425 0-.85.425-1.275.425v-4.25c0 .425 0 .425 0 0 0 .425 0 .425 0 0zm3.4-19.127v8.076c0 .425-.425.85-2.125.85-.425 0-.85 0-1.275.425h-.425v-2.125-.425-1.275-3.4-3.401-.425h.425s.85 0 1.7.85c.425 0 1.275.425 1.7.85 0-.425 0 0 0 0zm-1.7-1.7c-1.7-1.275-2.975-1.275-2.975.425v.425c0 1.7.425 4.675.425 6.376v1.7c-.425.425-5.1-2.125-5.1-7.226v-1.275c.424-5.526 6.375-6.376 9.35-5.95 2.976.424 4.25 2.975 4.676 4.25.425.425.425 1.275.425 1.7 0 .85 0 1.275-1.275.85-2.126 0-3.826.425-5.526-1.275zm4.675-16.577c0 .425 0 .425 0 0 0 2.125-.85 3.825-2.55 4.676v6.375h-4.25v-6.375c-1.7-.85-2.55-2.55-2.55-4.25 0-2.551 2.125-4.676 4.675-4.676 2.55-.425 4.675 1.7 4.675 4.25zm-11.9 0c0-3.4 2.55-5.95 6.375-6.376-1.275 0-2.55.85-3.4 1.7.85-.424 2.125-.85 3.4-1.274-2.975.425-5.526 2.975-5.526 5.95 0 2.125.85 3.825 2.55 4.676V22.917h-.424v-5.1c-1.7-.85-2.976-2.55-2.976-5.1 0 .424 0 .424 0 0 0 .424 0 0 0 0zm-2.976 17.427c.425-3.825 2.975-5.95 5.95-6.8-.85.424-1.7.85-2.125 1.274.85-.425 1.276-.85 2.126-.85-2.55.85-4.676 2.976-5.1 6.376v.85c0 2.55 1.274 4.676 2.55 5.526 1.275 1.275 2.55 2.125 3.4 2.55v.85h-.425v-.425c-1.276-.425-2.976-1.275-3.826-2.55-1.275-1.275-2.55-3.4-2.55-5.95v-.851zm2.125 15.727c0-2.55 1.275-4.676 3.4-5.526l-1.275 1.275c.425-.425.85-.425 1.276-.85-1.7 1.275-2.55 2.975-2.55 5.1 0 1.7.424 2.976 1.7 4.251.85.85 1.7 1.275 2.125 1.275v2.125h-.425v-1.7c-.85 0-1.7-.85-2.55-1.275-1.276-1.275-1.7-2.55-1.7-4.675 0 .425 0 .425 0 0zm1.7 12.326c0-.425 0-.425 0 0 0-2.125.85-2.975 1.7-3.825 0 .424-.424.424-.424.85l.425-.425c-.425.85-.85 1.7-.85 2.55 0 2.55 1.7 4.25 2.975 4.675v4.251s0 .425-.425.425v-3.4c-1.7-.85-3.4-2.55-3.4-5.101zM49.47 74.347c0 .85-.425 2.126-1.276 2.976v1.7c0 1.275-.85 1.7-1.7 1.7h-2.125c-.85 0-1.7-.85-1.7-1.7v-6.376c-.425 0-.425-.425-.85-.425-.425-.425-.85-1.7-.85-2.55v-.425c0-.85.425-1.275.85-2.125 0 .425-.425.425-.425.85 0 0 0-.425.425-.425-.425.425-.425.85-.425 1.275 0 .85.425 1.7.85 2.55 0 .425.425.425.85.425v5.951c0 .85.85 1.7 1.7 1.7h1.7c.85 0 1.7-.85 1.7-1.7v-1.7c.85-.425 1.276-1.7 1.276-2.55v-.851c-.425.425 0 .85 0 1.7zm1.275-10.2c0 2.125-.85 3.4-2.55 4.25v3.825h-.426v-4.675c1.7-.85 2.55-1.7 2.55-3.826 0-1.275-.424-2.125-1.274-2.975l.425.425c0-.425-.425-.425-.425-.85 1.275.85 1.7 2.125 1.7 3.826zm1.7-11.477c0 3.4-2.125 4.676-4.25 5.526v2.125s-.426 0-.426-.425v-2.55c2.126-.85 3.826-2.125 3.826-5.1 0-2.126-1.275-3.401-2.126-4.251.426 0 .426.425.85.425l-.85-.85c1.7.425 2.976 2.125 2.976 5.1 0-.425 0-.425 0 0zm1.7-13.176c0 3.4-2.125 5.95-5.526 6.8v.85h-.425V45.446c2.976-.85 4.676-3.4 5.1-6.376 0-2.975-1.7-5.526-3.4-6.376.426 0 .85.425 1.276.425-.425-.425-.85-.85-1.275-.85 1.7.85 4.25 3.4 4.25 7.226z"/><path d="M47.769 27.168l.425.425c.425 0 .85.425.85.425l-.425-.425c-.425-.425-.85-.425-.85-.425z"/></svg>