<svg xmlns="http://www.w3.org/2000/svg"><path d="M70.335 27.442H53.333c-.85 0-1.7.426-2.125 1.276l-1.275 2.975-2.55-12.326c0-.85-.85-1.7-2.126-1.7-.85 0-1.7.425-2.125 1.7l-5.95 23.802-3.826-40.804c0-.85-.85-1.7-1.7-1.7s-2.125.425-2.125 1.7L21.88 29.993l-1.7-10.626c0-.85-.85-1.7-1.7-1.7s-1.7.425-2.126 1.275l-4.675 10.2H2.753c-1.275 0-2.125.85-2.125 2.126 0 1.275.85 2.125 2.125 2.125h10.626c.85 0 1.7-.425 2.125-1.275l2.125-5.1 2.126 13.176c0 .85.85 1.7 2.125 1.7.85 0 1.7-.425 2.125-1.7l7.226-25.928 3.825 41.655c0 .85.85 1.7 2.126 1.7.85 0 1.7-.85 2.125-1.7l6.8-26.353 2.126 10.2c0 .85.85 1.701 1.7 1.701s1.7-.425 2.125-1.275l3.4-8.076h15.727c1.275 0 2.125-.85 2.125-2.125-.85-1.7-1.7-2.55-2.975-2.55z"/></svg>