<svg xmlns="http://www.w3.org/2000/svg"><path d="M38.083.739c-2.975.85-6.375 1.7-9.776 2.125-3.4-.425-6.8-1.275-9.776-2.125C13.006-.536 5.78.314 2.38 8.389c-3.4 8.502-1.275 19.128.425 27.204 1.7 8.5 3.4 18.276 3.4 25.927s2.551 17.427 8.077 17.427c5.525 0 6.375-8.5 8.5-19.552 2.126-11.476 5.526-11.476 5.526-11.476s3.4 0 5.526 11.476c2.125 11.476 2.975 19.552 8.5 19.552 5.526 0 8.076-9.776 8.076-17.427 0-7.65 1.7-17.426 3.4-25.927 1.7-8.501 3.826-18.702.426-27.203C50.409-.111 43.184-.536 38.083.739z"/></svg>