<svg xmlns="http://www.w3.org/2000/svg"><path d="M73.922 51.707c-1.7-1.7-3.825-3.825-5.95-5.525 2.125-1.7 4.25-3.826 5.95-5.526 6.376-7.226 8.501-13.176 6.376-17.002-1.7-2.55-4.676-4.25-9.776-4.25-4.25 0-10.201 1.275-16.152 3.4C51.82 10.053 47.144.702 40.77.702c-6.376 0-11.051 9.35-13.602 22.102-6.375-2.125-11.901-3.4-16.151-3.4-5.951 0-8.501 2.125-9.776 4.25-2.126 3.826 0 9.776 6.375 17.002 1.7 1.7 3.826 3.825 5.95 5.526-2.124 1.7-4.25 3.825-5.95 5.525C1.24 58.933-.885 64.884 1.24 68.71c1.7 2.55 4.675 4.25 9.776 4.25 4.25 0 10.2-1.275 16.151-3.4 2.55 12.751 7.226 22.102 13.602 22.102 6.375 0 11.05-9.35 13.601-22.102 6.376 2.125 11.901 3.4 16.152 3.4 4.675 0 8.076-1.275 9.776-4.25 2.125-4.25 0-10.201-6.376-17.002zM11.016 69.134c-3.4 0-5.951-.85-6.801-2.125-1.275-2.55.85-7.226 5.95-13.177l5.951-5.95c2.975 2.125 5.95 4.675 8.926 6.8.425 3.826.85 7.651 1.275 11.052-5.95 2.125-11.476 3.4-15.301 3.4zm14.026-18.702c-2.125-1.7-4.25-2.975-5.95-4.675 1.7-1.7 3.825-2.976 5.95-4.676V50.432zm0-13.601c-3.4 2.125-6.376 4.25-8.926 6.8-2.125-2.125-4.25-3.825-5.95-5.95-5.101-5.526-7.226-10.626-5.951-13.177.85-1.275 3.4-2.125 6.8-2.125 4.251 0 9.777 1.275 15.727 3.4-.85 3.4-1.275 7.226-1.7 11.052zm27.628-2.55l-3.826-2.55c-1.275-.851-2.55-1.701-3.825-2.126 2.55-1.275 4.676-2.125 7.226-2.975-.425 2.55 0 5.1.425 7.65zM40.769 3.676c3.825 0 8.075 7.651 10.2 19.552-3.4 1.275-6.8 2.976-10.2 4.676-3.4-1.7-6.801-3.4-10.201-4.676 2.125-11.901 6.375-19.552 10.2-19.552zM29.718 27.055c2.125.85 4.675 1.7 7.225 2.975-1.275.85-2.55 1.275-3.825 2.125l-3.826 2.55c0-2.975 0-5.525.425-7.65zm-.85 30.178l3.825 2.55c1.275.85 2.55 1.7 3.825 2.125-2.55 1.275-4.675 2.126-7.226 2.976 0-2.55 0-5.101-.425-7.651zm11.9 30.603c-3.825 0-8.075-7.65-10.2-19.552 3.4-1.275 6.8-2.975 10.2-4.676 3.401 1.7 6.801 3.4 10.202 4.676-2.126 12.326-6.376 19.552-10.201 19.552zM51.82 64.884c-2.125-.85-4.676-1.7-7.226-2.976 1.275-.85 2.55-1.275 3.825-2.125l3.826-2.55c0 2.55-.425 5.1-.425 7.65zm.85-11.902c-2.125 1.276-3.826 2.55-5.95 3.826-2.126 1.275-4.251 2.125-5.951 3.4-2.125-.85-4.25-2.125-5.95-3.4-2.126-1.275-4.251-2.55-5.952-3.826v-6.8-6.801c2.126-1.275 3.826-2.55 5.951-3.825 2.125-1.276 4.25-2.126 5.95-3.4 2.126.85 4.251 2.124 5.951 3.4 2.125 1.275 4.25 2.55 5.95 3.825v6.8c.426 2.126.426 4.251 0 6.801zM70.522 22.38c3.4 0 5.95.85 6.8 2.125 1.276 2.55-.85 7.226-5.95 13.177l-5.95 5.95c-2.976-2.125-5.951-4.675-8.927-6.8-.425-3.826-.85-7.651-1.275-11.052 5.526-2.125 11.051-3.4 15.302-3.4zM56.495 41.081c2.126 1.7 4.25 2.975 5.951 4.676-1.7 1.7-3.825 2.975-5.95 4.675v-4.675-4.676zM77.323 67.01c-.85 1.275-3.4 2.125-6.801 2.125-4.25 0-9.776-1.275-15.727-3.4.425-3.4.85-7.226 1.275-11.051 3.4-2.126 6.376-4.25 8.926-6.801 2.125 2.125 4.25 3.825 5.95 5.95 5.526 5.951 7.652 10.627 6.377 13.177z"/><path d="M40.769 37.256c-4.675 0-8.5 3.825-8.5 8.5 0 4.676 3.825 8.501 8.5 8.501s8.5-3.825 8.5-8.5c0-4.676-3.825-8.501-8.5-8.501z"/></svg>