<svg xmlns="http://www.w3.org/2000/svg"><path d="M1.806 103.099c0 4.675 3.825 8.501 8.5 8.501 4.676 0 8.501-3.826 8.501-8.501V39.767c0-3.4-2.125-6.375-5.1-7.65V4.064A3.81 3.81 0 009.882.238a3.81 3.81 0 00-3.826 3.826v28.053c-2.975 1.275-5.1 4.25-5.1 7.65V103.1h.85zM3.93 39.767c0-2.55 1.275-4.675 3.825-5.95l.85-.425V10.014h.85v30.603H6.481c-.425 0-.425.425-.425.425 0 .425.425.425.425.425h2.975v5.526H6.481c-.425 0-.425.425-.425.425 0 .425.425.425.425.425h2.975v5.95H6.481c-.425 0-.425.426-.425.426 0 .425.425.425.425.425h2.975v5.525H6.481c-.425 0-.425.425-.425.425 0 .425.425.425.425.425h2.975v5.526H6.481c-.425 0-.425.425-.425.425 0 .425.425.425.425.425h2.975v5.526H6.481c-.425 0-.425.425-.425.425 0 .425.425.425.425.425h2.975v5.525H6.481c-.425 0-.425.425-.425.425 0 .425.425.425.425.425h2.975v5.526H6.481c-.425 0-.425.425-.425.425 0 .425.425.425.425.425h2.975v5.526H6.481c-.425 0-.425.425-.425.425 0 .425.425.425.425.425h2.975v5.525c-1.275.425-2.55 1.701-2.55 3.401 0 2.125 1.7 3.4 3.4 3.4 2.126 0 3.4-1.7 3.4-3.4s-.85-2.976-2.55-3.4v-5.526h2.976c.425 0 .425-.425.425-.425 0-.425-.425-.425-.425-.425h-2.975v-5.526h2.975c.425 0 .425-.425.425-.425 0-.425-.425-.425-.425-.425h-2.975v-5.526h2.975c.425 0 .425-.425.425-.425 0-.425-.425-.425-.425-.425h-2.975v-4.25h2.975c.425 0 .425-.425.425-.425 0-.425-.425-.425-.425-.425h-2.975V68.67h2.975c.425 0 .425-.425.425-.425 0-.425-.425-.425-.425-.425h-2.975v-5.525h2.975c.425 0 .425-.425.425-.425 0-.425-.425-.425-.425-.425h-2.975v-5.526h2.975c.425 0 .425-.425.425-.425 0-.425-.425-.425-.425-.425h-2.975v-5.526h2.975c.425 0 .425-.425.425-.425 0-.425-.425-.425-.425-.425h-2.975v-5.525h2.975c.425 0 .425-.425.425-.425 0-.425-.425-.425-.425-.425h-2.975V11.714h.85v23.378l.85.425c2.125 1.275 3.825 3.4 3.825 5.95V104.8c0 3.4-2.975 6.376-6.375 6.376s-6.376-2.976-6.376-6.376V39.767z"/></svg>