<svg xmlns="http://www.w3.org/2000/svg"><path d="M8.605 32.404v41.654H.955c-.426 0-.851.425-.851.85s.425.85.85.85h8.5v29.753h-6.8c-.425 0-.85.426-.85.851s.425.85.85.85h26.778c.425 0 .85-.425.85-.85s-.425-.851-.85-.851h-6.8V75.758h8.5c.425 0 .85-.425.85-.85s-.425-.85-.85-.85h-7.65V32.404c0-.425-.426-.85-.85-.85h-1.276c-.425-2.976-.85-5.95-.85-8.926h-2.975V1.376L16.256.1v22.527H13.28c-.425 2.975-.85 5.95-.85 8.926h-2.125c-1.275-.425-1.7 0-1.7.85zm8.5 72.257c0 .425-.424.85-.85.85-.424 0-.85-.425-.85-.85V77.459c0-.425.426-.85.85-.85.426 0 .85.425.85.85v27.202zm5.101-31.028h-1.275V53.231h1.275v20.402zM10.73 33.254h11.051v17.852h-11.05V33.254zm0 19.977h1.275v20.402H10.73V53.231z"/></svg>