<svg xmlns="http://www.w3.org/2000/svg"><path d="M59.183 16.593h-8.925C50.258 7.242 42.606.016 33.68.016c-9.351 0-16.577 7.65-16.577 16.577H8.178c-4.25 0-8.076 3.4-8.076 8.075v28.053c0 4.25 3.4 8.076 8.076 8.076h51.43c4.251 0 8.076-3.4 8.076-8.076V24.668c-.425-4.675-4.25-8.075-8.5-8.075zM33.256 4.266c6.8 0 11.901 5.526 11.901 11.902H21.355c0-6.376 5.525-11.902 11.9-11.902zm13.601 38.68c0 .424-.425.85-.85.85h-7.226c-.425 0-.85.425-.85.85v7.225c0 .425-.425.85-.85.85h-6.8c-.426 0-.85-.425-.85-.85v-7.226c0-.425-.426-.85-.85-.85h-7.226c-.425 0-.85-.425-.85-.85v-6.8c0-.425.425-.85.85-.85h7.225c.425 0 .85-.425.85-.85v-7.226c0-.425.425-.85.85-.85h6.801c.425 0 .85.425.85.85v6.8c0 .425.425.85.85.85h7.226c.425 0 .85.425.85.85v7.226z"/></svg>