<svg xmlns="http://www.w3.org/2000/svg"><path d="M45.095.14c-1.7 0-3.4 1.274-3.4 3.4 0 5.95-6.376 10.2-14.027 13.601 2.55 1.275 5.1 2.125 7.65 3.825 7.227-3.825 13.177-9.35 13.177-17.426 0-1.7-1.7-3.4-3.4-3.4z"/><path d="M25.968 19.691c-9.776-4.25-18.702-8.5-18.702-15.726 0-1.7-1.275-3.4-3.4-3.4s-3.4 1.274-3.4 3.4c0 11.476 11.9 17.001 22.527 21.677 9.776 4.25 18.702 8.5 18.702 15.726 0 5.951-6.376 10.201-14.027 13.602 2.55 1.275 5.1 2.125 7.651 3.4 7.226-3.825 13.176-9.35 13.176-17.427 0-11.05-11.9-16.576-22.527-21.252zM21.293 65.596c-2.55-1.275-5.1-2.125-7.651-3.4C6.416 66.02.466 71.546.466 79.623c0 1.7 1.7 3.4 3.4 3.4s3.4-1.275 3.4-3.4c0-6.376 6.376-10.627 14.027-14.027z"/><path d="M25.968 57.095c-9.776-4.25-18.702-8.5-18.702-15.726 0-5.951 6.376-10.201 14.027-13.602-2.55-1.275-5.1-2.125-7.651-3.4C6.416 28.192.466 33.717.466 41.794c0 11.476 11.9 17.001 22.527 22.102 9.776 4.25 18.702 8.5 18.702 15.727 0 1.7 1.275 3.4 3.4 3.4 1.7 0 3.4-1.275 3.4-3.4 0-11.902-11.9-17.427-22.527-22.528z"/><path d="M39.994 41.368c0-.85-.85-1.7-1.7-1.7H11.091c-.85 0-1.7.85-1.7 1.7s.85 1.7 1.7 1.7h27.203c.85.426 1.7-.424 1.7-1.7zM11.092 5.665h27.203c.85 0 1.7-.85 1.7-1.7s-.85-1.7-1.7-1.7H11.091c-.85 0-1.7.85-1.7 1.7-.426.85.424 1.7 1.7 1.7zM38.294 77.497H11.091c-.85 0-1.7.85-1.7 1.7s.85 1.7 1.7 1.7h27.203c.85 0 1.7-.85 1.7-1.7s-.85-1.7-1.7-1.7zM31.919 32.868H17.042c-.85 0-1.7.85-1.7 1.7s.85 1.7 1.7 1.7H31.92c.85 0 1.7-.85 1.7-1.7s-.85-1.7-1.7-1.7zM17.042 7.79c-.85 0-1.7.85-1.7 1.7s.85 1.7 1.7 1.7H31.92c.85 0 1.7-.85 1.7-1.7s-.85-1.7-1.7-1.7H17.042zM17.042 46.044c-.85 0-1.7.85-1.7 1.7s.85 1.7 1.7 1.7H31.92c.85 0 1.7-.85 1.7-1.7s-.85-1.7-1.7-1.7H17.042zM15.342 72.397c0 .85.85 1.7 1.7 1.7H31.92c.85 0 1.7-.85 1.7-1.7s-.85-1.7-1.7-1.7H17.042c-.85 0-1.7.85-1.7 1.7z"/></svg>