<svg xmlns="http://www.w3.org/2000/svg"><path d="M41.78 6.354S-6.25-15.748 1.403 26.757c.425 2.55 1.275 5.1 2.125 7.225h8.076l4.25-10.2c0-.426.425-.426.85-.426s.85.425.85.85l2.55 15.727L28.606 8.48c0-.425.425-.85.85-.85s.85.425.85.85l3.825 45.48 6.8-29.329c0-.425.426-.85.85-.85.426 0 .851.425.851.85l2.975 16.152 2.55-6.8c0-.426.426-.426.85-.426h13.177c.425-.85 1.275-1.7 2.55-1.7s2.55 1.275 2.55 2.55c0 1.276-1.275 2.55-2.55 2.55-.85 0-1.7-.424-2.125-1.275H49.857l-3.4 9.351c0 .425-.426.425-.85.425-.426 0-.85-.425-.85-.85l-2.551-14.876-6.8 31.028c0 .425-.426.85-.85.85-.426 0-.85-.425-.85-.85L29.88 14.43 21.804 45.46c0 .425-.425.85-.85.85s-.85-.425-.85-.85l-2.55-16.577-4.251 6.375c0 .425-.425.425-.85.425H4.377c9.776 22.528 37.404 38.254 37.404 38.254s35.279-20.402 40.38-47.18C89.81-15.747 41.78 6.355 41.78 6.355z"/></svg>