<svg xmlns="http://www.w3.org/2000/svg"><path d="M77.085 4.718l.425 3.4c4.25-.425 8.5 2.55 8.926 6.801l3.4-.425c-.85-6.376-6.375-10.626-12.751-9.776z"/><path d="M79.21.467H15.88C7.378.467.577 8.543.577 18.744s6.8 18.277 15.302 18.277H79.21c8.501 0 15.302-8.076 15.302-18.277 0-9.776-6.8-18.277-15.302-18.277zM5.253 23.845l3.4-.425c.425 4.25 4.675 7.226 8.926 6.8l.425 3.4c-6.376.85-12.326-3.4-12.751-9.775zM79.21 36.17H47.757c-3.825 0-7.226-8.076-7.226-17.427 0-9.35 3.4-17.427 7.651-17.427h31.453c8.076 0 14.452 7.651 14.452 17.427-.425 9.776-7.226 17.427-14.877 17.427z"/></svg>