<svg xmlns="http://www.w3.org/2000/svg"><path d="M48.67 13.34H13.816c-7.65 0-13.6 5.951-13.6 13.602v41.23h62.48v-41.23c-.424-7.226-6.375-13.601-14.026-13.601zM5.74 26.943c0-4.25 3.401-8.076 8.076-8.076H48.67c4.25 0 8.076 3.4 8.076 8.076v13.601H5.741V26.942zM9.567 59.67c-2.55 0-4.675-2.125-4.675-4.675s2.125-4.676 4.675-4.676 4.676 2.126 4.676 4.676c-.426 2.55-2.126 4.675-4.676 4.675zm27.203-5.1l3.825 2.125s.425.425 0 .425l-2.125 3.826s-.425.425-.425 0l-3.825-2.126s-.425 0-.425.425v4.25c0 .426 0 .426-.425.426h-4.25c-.426 0-.426 0-.426-.425v-4.25c0-.426 0-.426-.425-.426l-3.825 2.126h-.425l-2.126-3.826v-.425l3.826-2.125v-.425l-3.826-2.126s-.425-.425 0-.425l2.126-3.825s.425-.425.425 0l3.825 2.125h.425v-4.25c0-.425 0-.425.425-.425h4.25c.426 0 .426 0 .426.425v4.25c0 .425 0 .425.425 0l3.825-2.125h.425l2.125 3.825v.425l-3.825 2.126v.425zm16.152 5.1c-2.55 0-4.676-2.125-4.676-4.675s2.125-4.676 4.676-4.676c2.55 0 4.675 2.126 4.675 4.676 0 2.55-2.125 4.675-4.675 4.675zM35.919 4.84c0-2.55-2.126-4.676-4.676-4.676-2.55 0-4.675 2.125-4.675 4.676v6.375h9.35V4.84zM3.19 79.222c0 2.55 2.126 4.676 4.676 4.676 2.55 0 4.675-2.125 4.675-4.676v-9.35h-9.35v9.35zM49.52 79.222c0 2.55 2.126 4.676 4.676 4.676 2.55 0 4.675-2.125 4.675-4.676v-9.35h-9.35v9.35z"/></svg>