<svg xmlns="http://www.w3.org/2000/svg"><path d="M31.907 23.055c-.85-2.976-1.276-2.976-1.276-9.776s0-8.926.85-9.776c.85-.85 1.7-1.275 1.7-2.125 0-.85-1.7-1.276-10.2-1.276-8.501 0-10.201.425-10.201 1.276 0 .85.85.85 1.7 2.125.85.85.85 2.975.85 9.776 0 6.8-.425 6.8-1.275 9.776-.85 2.975-1.7 5.525-6.376 22.527C3.004 62.584.03 69.81.03 74.485c0 3.4 3.825 8.501 11.475 8.501H34.458c8.076 0 11.476-5.1 11.476-8.5 0-4.676-2.975-11.902-7.65-28.904-4.676-17.002-5.951-19.552-6.376-22.527zM10.654 46.432c2.55-9.35 4.25-14.451 5.101-17.427.85-2.55 1.275-3.825 1.275-5.1 0-.425 0-.85.425-.85.85-2.55.85-3.826.85-9.776 0-5.1 0-7.651-.425-9.351h10.201c-.425 1.7-.425 4.25-.425 9.35 0 5.951.425 7.226.85 9.777 0 .425 0 .425.425.85.425 1.275.85 2.55 1.275 5.1.85 2.976 2.55 8.076 5.101 17.427.425 1.275.85 2.55.85 3.4H8.954c.85-.85 1.275-2.125 1.7-3.4zm31.879 28.053c0 1.7-2.126 5.526-8.501 5.526H11.079c-6.375 0-8.5-3.826-8.5-5.526 0-2.975 1.275-7.65 3.825-15.727.85-2.125 1.275-4.675 2.125-7.65h1.275c-.85 2.975-1.7 5.525-2.125 7.65-2.125 7.226-3.4 11.902-3.4 14.452 0 1.7 2.125 5.1 8.076 5.1h21.252c5.95 0 8.076-3.4 8.076-5.1 0-2.55-1.276-7.226-3.4-14.451-.85-2.126-1.276-5.101-2.126-7.651h1.275c.85 2.55 1.7 5.1 2.125 7.65 1.7 8.076 2.976 12.752 2.976 15.727zM63.785 6.053H43.383c-.85 0-1.7.85-1.7 1.7s.85 1.7 1.7 1.7h.425v38.68c0 4.675 3.825 8.5 8.501 8.5h2.125c4.676 0 8.501-3.825 8.501-8.5V9.028h.85c.85 0 1.7-.85 1.7-1.7-.425-.85-.85-1.275-1.7-1.275zM47.208 9.028H59.96v18.277H47.208V9.028zm13.177 37.83c0 3.825-2.975 6.8-6.8 6.8-3.826 0-6.802-2.975-6.802-6.8V29.43c0-.425 0-.425.425-.425s.425 0 .425.425v17.426c0 3.4 2.55 5.951 5.951 5.951 3.4 0 5.95-2.55 5.95-5.95V29.43c0-.425 0-.425.426-.425.425 0 .425 0 .425.425v17.426z"/></svg>