<svg xmlns="http://www.w3.org/2000/svg"><path d="M34.958.64H3.504C2.23.64.954 1.915.954 3.19c0 1.276 1.275 2.55 2.55 2.55h.85v59.507c0 7.226 5.951 13.176 13.177 13.176h2.975c7.226 0 13.177-5.95 13.177-13.176V5.74h.85c1.275 0 2.55-1.275 2.55-2.55.425-1.276-.85-2.55-2.125-2.55zM9.455 5.74h19.552V34.22H9.455V5.74zm19.977 58.657c0 5.95-4.675 10.626-10.626 10.626-5.95 0-10.626-4.676-10.626-10.626V37.619c0-.425.425-.85.85-.85s.85.425.85.85v26.778c0 5.1 4.25 9.35 9.351 9.35 5.1 0 9.351-4.25 9.351-9.35V37.619c0-.425.425-.85.85-.85s.85.425.85.85v26.778h-.85z"/></svg>