<svg xmlns="http://www.w3.org/2000/svg"><path d="M35.755 16.843c-5.1 0-8.926 2.125-10.201 5.526-1.275-1.275-2.55-2.55-5.1-2.55-2.976 0-4.676 1.7-5.951 3.4-1.275 1.275-2.125 2.125-3.4 2.125-1.7 0-2.55-.85-3.4-2.125-1.276-1.275-2.551-3.4-5.952-3.4-.85 0-1.275.425-1.275 1.275 0 .85.425 1.275 1.275 1.275 1.7 0 2.55.85 3.4 2.125 1.276 1.275 2.551 3.4 5.951 3.4 2.976 0 4.676-1.7 5.951-3.4 1.275-1.275 2.125-2.125 3.4-2.125 1.7 0 2.55.85 3.4 2.125.426.85 1.276 1.7 2.126 2.125 1.7 2.55 5.526 4.25 9.776 4.25 5.95 0 10.626-3.4 10.626-7.225-.425-3.825-5.1-6.8-10.626-6.8zM71.884.266c-12.751 0-23.377 10.201-23.377 23.378 0 12.751 10.626 23.377 23.377 23.377s23.377-10.2 23.377-23.377C94.836 10.467 84.635.266 71.884.266zm0 42.505c-10.626 0-19.552-8.501-19.552-19.552s8.5-19.552 19.552-19.552c10.626 0 19.552 8.5 19.552 19.552 0 11.05-8.926 19.552-19.552 19.552z"/><path d="M71.883 37.67c7.982 0 14.452-6.47 14.452-14.451 0-7.982-6.47-14.452-14.452-14.452-7.98 0-14.451 6.47-14.451 14.452 0 7.981 6.47 14.451 14.451 14.451z"/></svg>