<svg xmlns="http://www.w3.org/2000/svg"><path d="M44.27 37.092c-3.825-1.7-8.076.425-9.776 4.25-1.7 3.826.425 8.076 4.25 9.776.85.425 1.276.425 2.126.425 3.4 7.651-.425 17.002-8.076 20.402-7.65 3.4-17.002-.425-20.402-8.075-.425-1.276-2.125-2.126-3.825-1.7-1.276.424-2.126 2.124-1.7 3.825 2.125 5.525 6.375 9.35 11.476 11.476 5.1 2.125 11.05 2.125 16.151 0 10.626-4.676 15.727-16.577 11.477-27.628.85-.85 1.7-1.7 2.125-2.975 2.125-3.826 0-8.076-3.826-9.776zm.425 8.5c-.85 1.7-2.55 2.55-4.675 1.7-1.7-.85-2.55-2.55-1.7-4.675.85-1.7 2.55-2.55 4.675-2.125 1.7 1.275 2.55 2.975 1.7 5.1zM28.543 80.021c-6.376 0-11.476 5.1-11.476 11.476h22.952c0-6.375-5.1-11.476-11.476-11.476z"/><path d="M17.917 38.792l12.326 6.376c.425.425.85 0 1.275-.425l9.776-19.553c.426-.425 0-.85-.424-1.274L28.543 17.54c-.425-.425-.85 0-1.275.425l-9.776 19.552c0 .425 0 .85.425 1.275zm1.7-1.7l8.926-17.427c0-.425.425-.425.85-.425l1.7.85c.426 0 .425.425.425.425h-.85c-.425 0-.425 0-.85.425l-8.076 16.577c0 .425 0 .425.426.85.425 0 .425.425.425.425h-.425l-1.7-.85c-.85-.425-1.276-.425-.85-.85zM31.518 17.115l7.651 3.825c.425.425.85 0 1.275-.425L47.67 5.638c.425-.425 0-.85-.425-1.275L39.595.538c-.426-.425-.85 0-1.276.425L31.093 15.84c0 .425 0 .85.425 1.275zm.85-1.275l7.226-14.027s.425-.425.425 0l1.275.85.425.425h-.85l-6.8 13.177v.425l.425.425h-.425l-1.276-.85c-.425 0-.425 0-.425-.425zM20.042 54.944h.425l1.7-3.4v-.426l-4.675-2.125h-.425l-1.7 3.4v.425l4.675 2.126zM35.769 60.47c0-.85-.425-1.276-.85-1.276H1.34c-.425 0-.85.425-.85.85v.425c0 .425.425.85.85.85H34.92c.85-.425.85-.425.85-.85zM42.57 92.347H14.092c-.425 0-.85.425-.85.85v.85c0 .426.425.85.85.85H42.57c.425 0 .85-.424.85-.85v-.85c0-.425-.425-.85-.85-.85zM16.642 46.868l7.65 3.825c.426.425.85 0 1.276-.425l2.125-4.25c.425-.425 0-.85-.425-1.275l-7.65-3.826c-.426-.425-.85 0-1.276.425l-2.125 4.25c0 .426 0 .85.425 1.276zm9.776-1.7c.425 0 .425.425 0 .425l-1.7 3.825c0 .425-.425.425-.425 0-.425 0-.425-.425 0-.425l1.7-3.825h.425zm-1.275-.425c.425 0 .425.425 0 .425l-1.7 3.825c0 .425-.426.425-.426 0-.425 0-.425-.425 0-.425l1.7-3.825s.426-.425.426 0zm-1.275-.85c.425 0 .425.425 0 .425l-1.7 3.825c0 .425-.426.425-.426 0-.425 0-.425-.425 0-.425l1.7-3.826h.426zm-1.275-.85c.424 0 .424.425 0 .425l-1.7 3.825c0 .425-.426.425-.426 0-.425 0-.425-.425-.425-.425l1.7-3.826h.85zm-1.276-.426c.425 0 .425.425 0 .425l-1.7 3.826c0 .425-.425.425-.425.425-.425 0-.425-.425 0-.425l1.7-3.826c0-.425 0-.425.425-.425zm-3.825 2.976l1.7-3.826c0-.425.425-.425.425 0 .425 0 .425.425 0 .425l-1.7 3.826c0 .425-.425.425-.425.425v-.85z"/></svg>