<svg xmlns="http://www.w3.org/2000/svg"><path d="M29.092 4.99c0-.426 0-1.276-.425-1.7-3.825 1.7-7.225 3.825-10.626 6.375.85.425 2.125.425 3.4.425 4.251.425 7.651-2.125 7.651-5.1zM34.192 4.14c1.276 0 1.7.424 2.55 1.7.85 1.275 2.126 2.55 4.251 2.55 2.125 0 3.4-1.275 4.25-2.55.85-1.276 1.276-1.7 2.55-1.7 1.276 0 1.701.424 2.551 1.7.425.425.85 1.275 1.7 1.7 1.275 1.7 3.826 2.975 7.226 2.975 4.25 0 7.65-2.125 7.65-5.1 0-.85-.424-1.7-.85-2.126-2.975-1.275-5.95-2.125-9.35-2.975-2.55.425-4.25 2.125-5.1 3.825-.85-.85-2.126-1.7-3.826-1.7-2.125 0-3.4 1.275-4.25 2.55-.85 1.276-1.276 1.7-2.55 1.7-1.276 0-1.701-.424-2.551-1.7-.85-1.275-2.125-2.55-4.25-2.55-.426 0-.85.425-.85.85s.424.85.85.85zM13.366 16.04c1.275 0 1.7.426 2.55 1.7.85 1.276 2.125 2.551 4.25 2.551s3.4-1.275 4.25-2.55c.85-1.275 1.276-1.7 2.55-1.7 1.276 0 1.701.425 2.551 1.7.425.425.85 1.275 1.7 1.7 1.276 1.7 3.826 2.975 7.226 2.975 4.25 0 7.65-2.125 7.65-5.1 0-2.976-3.4-5.1-7.65-5.1-3.4 0-6.375 1.7-7.226 3.825-.85-.85-2.125-1.7-3.825-1.7-2.125 0-3.4 1.275-4.25 2.55-.85 1.275-1.276 1.7-2.55 1.7-1.276 0-1.7-.425-2.551-1.7-.85-.85-2.125-2.126-3.825-2.55l-1.275 1.275c-.426 0 0 .425.425.425zM60.545 16.466c-.85 1.275-1.275 1.7-2.55 1.7s-1.7-.425-2.55-1.7c-.85-1.276-2.126-2.55-4.25-2.55-.426 0-.851.424-.851.85 0 .425.425.85.85.85 1.275 0 1.7.425 2.55 1.7.85 1.275 2.126 2.55 4.25 2.55 2.126 0 3.401-1.275 4.251-2.55.85-1.275 1.275-1.7 2.55-1.7 1.276 0 1.7.425 2.55 1.7.426.425.85 1.275 1.7 1.7 1.276 1.7 3.826 2.975 7.227 2.975 4.25 0 7.65-2.125 7.65-5.1 0-2.976-3.4-5.1-7.65-5.1-3.4 0-6.376 1.7-7.226 3.825-.85-.85-1.7-1.7-3.825-1.7-2.55 0-3.826 1.274-4.676 2.55zM7.84 29.642c.85-1.275 1.275-1.7 2.55-1.7s1.7.425 2.55 1.7c.426.425.85 1.275 1.7 1.7 1.276 1.7 3.826 2.975 7.227 2.975 4.25 0 7.65-2.125 7.65-5.1 0-2.976-3.4-5.1-7.65-5.1-3.4 0-6.376 1.7-7.226 3.825-.85-.85-1.7-1.7-3.825-1.7-2.126 0-3.4 1.275-4.251 2.55-.85.85-1.275 1.7-2.55 1.7-.425.85-.425 1.275-.85 2.125h.425c2.125-.85 3.4-2.125 4.25-2.975zM37.168 29.642c.85 1.275 2.125 2.55 4.25 2.55s3.4-1.275 4.25-2.55c.85-1.275 1.276-1.7 2.55-1.7 1.276 0 1.7.425 2.55 1.7.426.425.851 1.275 1.701 1.7 1.275 1.7 3.825 2.975 7.226 2.975 4.25 0 7.65-2.125 7.65-5.1 0-2.976-3.4-5.1-7.65-5.1-3.4 0-6.376 1.7-7.226 3.825-.85-.85-2.125-1.7-3.825-1.7-2.125 0-3.4 1.275-4.25 2.55-.85 1.275-1.276 1.7-2.55 1.7-1.276 0-1.701-.425-2.551-1.7-.85-1.275-2.125-2.55-4.25-2.55-.426 0-.85.425-.85.85s.424.85.85.85c.424 0 1.275.425 2.125 1.7zM81.373 28.367c-.85 1.275-1.275 1.7-2.55 1.7-1.276 0-1.7-.425-2.55-1.7-.85-1.275-2.126-2.55-4.251-2.55-.425 0-.85.425-.85.85s.425.85.85.85c1.275 0 1.7.425 2.55 1.7.85 1.275 2.125 2.55 4.25 2.55 2.126 0 3.4-1.275 4.25-2.55.851-1.275 1.276-1.7 2.551-1.7 1.275 0 1.7.425 2.55 1.7.425.425.85 1.275 1.7 1.7.85 1.275 2.126 2.125 3.826 2.55-.85-2.55-1.7-5.1-2.975-7.65-.425.425-.85 1.275-1.276 1.7-.85-.85-1.7-1.7-3.825-1.7s-3.4 1.275-4.25 2.55zM8.265 41.118c0-2.55-2.976-4.675-6.376-5.1a41.92 41.92 0 00-1.275 10.2c4.25 0 7.65-2.55 7.65-5.1zM30.792 39.843c-.85-.85-2.125-1.7-3.825-1.7-2.125 0-3.4 1.275-4.25 2.55-.85 1.275-1.276 1.7-2.55 1.7-1.276 0-1.7-.425-2.551-1.7-.85-1.275-2.125-2.55-4.25-2.55-.425 0-.85.425-.85.85s.425.85.85.85c1.275 0 1.7.425 2.55 1.7.85 1.275 2.125 2.55 4.25 2.55s3.4-1.275 4.25-2.55c.85-1.275 1.276-1.7 2.551-1.7 1.275 0 1.7.425 2.55 1.7.425.425.85 1.275 1.7 1.7 1.276 1.7 3.826 2.976 7.226 2.976 4.25 0 7.651-2.55 7.651-5.1 0-2.976-3.4-5.102-7.65-5.102-3.826-.425-6.802 1.276-7.652 3.826zM83.497 41.118c0-2.975-3.4-5.1-7.65-5.1-3.4 0-6.376 1.7-7.226 3.825-.85-.85-1.7-1.7-3.825-1.7-2.126 0-3.4 1.275-4.251 2.55-.85 1.275-1.275 1.7-2.55 1.7s-1.7-.425-2.55-1.7c-.85-1.275-2.126-2.55-4.25-2.55-.426 0-.851.425-.851.85s.425.85.85.85c1.275 0 1.7.425 2.55 1.7.85 1.275 2.126 2.55 4.25 2.55 2.126 0 3.401-1.275 4.251-2.55.85-1.275 1.275-1.7 2.55-1.7 1.276 0 1.7.425 2.55 1.7.426.425.85 1.275 1.7 1.7 1.276 1.7 3.826 2.976 7.227 2.976 3.825 0 7.225-2.55 7.225-5.1zM92.849 40.268c-.85-1.275-2.126-2.55-4.25-2.55-.426 0-.85.425-.85.85s.424.85.85.85c1.274 0 1.7.425 2.55 1.7.85.85 2.125 2.125 3.825 2.55v-2.125c-.85 0-1.275-.425-2.125-1.275zM12.94 53.444c.425.426.85 1.276 1.7 1.7 1.276 1.7 3.826 2.976 7.226 2.976 4.25 0 7.651-2.125 7.651-5.1 0-2.976-3.4-5.101-7.65-5.101-3.401 0-6.377 1.7-7.227 3.825-.85-.85-1.7-1.7-3.825-1.7s-3.4 1.275-4.25 2.55c-.85 1.276-1.276 1.7-2.55 1.7-1.276 0-1.7-.424-2.55-1.7 0 1.276.424 2.126.424 3.4.425.426 1.275.85 2.125.85 2.126 0 3.4-1.274 4.25-2.55.85-1.274 1.276-1.7 2.551-1.7.85-.85 1.275-.425 2.125.85zM47.794 51.744c1.275 0 1.7.425 2.55 1.7.425.426.85 1.276 1.7 1.7 1.276 1.7 3.826 2.976 7.226 2.976 4.25 0 7.651-2.125 7.651-5.1 0-2.976-3.4-5.101-7.65-5.101-3.401 0-6.376 1.7-7.226 3.825-.85-.85-2.126-1.7-3.826-1.7-2.125 0-3.4 1.275-4.25 2.55-.85 1.276-1.275 1.7-2.55 1.7-1.276 0-1.7-.424-2.55-1.7-.85-1.275-2.126-2.55-4.251-2.55-.425 0-.85.425-.85.85s.425.85.85.85c1.275 0 1.7.425 2.55 1.7.85 1.276 2.125 2.55 4.25 2.55 2.126 0 3.4-1.274 4.25-2.55.426-1.275 1.276-1.7 2.126-1.7zM89.448 51.32c-.85-.85-1.7-1.701-3.825-1.701s-3.4 1.275-4.25 2.55c-.85 1.275-1.275 1.7-2.55 1.7-1.276 0-1.7-.425-2.55-1.7-.85-1.275-2.126-2.55-4.251-2.55-.425 0-.85.425-.85.85s.425.85.85.85c1.275 0 1.7.425 2.55 1.7.85 1.275 2.125 2.55 4.25 2.55 2.126 0 3.4-1.275 4.25-2.55.851-1.275 1.276-1.7 2.551-1.7 1.275 0 1.7.425 2.55 1.7.425.425.85 1.276 1.7 1.7.85 1.276 2.55 2.126 4.251 2.976.85-3.4 1.275-6.8 1.275-10.201-2.975.425-5.1 2.125-5.95 3.825zM2.314 59.82c.85 2.975 2.125 5.95 3.4 8.926 1.7-.85 2.55-2.125 2.55-3.825 0-2.55-2.55-4.676-5.95-5.1zM22.716 64.07c-.85 1.276-1.275 1.7-2.55 1.7s-1.7-.424-2.55-1.7c-.85-1.274-2.125-2.55-4.25-2.55-.425 0-.85.425-.85.85s.425.85.85.85c1.275 0 1.7.426 2.55 1.7.85 1.276 2.125 2.551 4.25 2.551s3.4-1.275 4.25-2.55c.85-1.275 1.276-1.7 2.551-1.7 1.275 0 1.7.425 2.55 1.7.425.425.85 1.275 1.7 1.7 1.276 1.7 3.826 2.975 7.226 2.975 4.25 0 7.651-2.125 7.651-5.1 0-2.976-3.4-5.1-7.65-5.1-3.401 0-6.377 1.7-7.227 3.825-.85-.85-2.125-1.7-3.825-1.7-2.55 0-3.825 1.274-4.675 2.55zM51.194 63.645c1.275 0 1.7.426 2.55 1.7.85 1.276 2.126 2.55 4.25 2.55 2.126 0 3.401-1.274 4.251-2.55.85-1.274 1.275-1.7 2.55-1.7 1.276 0 1.7.426 2.55 1.7.426.426.85 1.276 1.701 1.7 1.275 1.701 3.825 2.976 7.226 2.976 4.25 0 7.65-2.125 7.65-5.1 0-2.976-3.4-5.1-7.65-5.1-3.4 0-6.376 1.7-7.226 3.825-.85-.85-1.7-1.7-3.825-1.7-2.126 0-3.4 1.275-4.25 2.55-.85 1.275-1.276 1.7-2.551 1.7-1.275 0-1.7-.425-2.55-1.7-.85-1.275-2.126-2.55-4.25-2.55-.426 0-.851.424-.851.85-.85.425-.425.85.425.85zM88.598 61.52c-.425 0-.85.425-.85.85s.425.85.85.85c1.275 0 1.7.426 2.55 1.7l.425.426c.426-.85.426-1.275.85-2.126-.85-.85-1.7-1.7-3.825-1.7zM29.092 76.397c0-2.975-3.4-5.1-7.651-5.1-3.4 0-6.376 1.7-7.226 3.825-.85-.85-1.7-1.7-3.825-1.7-.425 0-1.275 0-1.7.425.425.425.85 1.275 1.275 1.7h.425c1.275 0 1.7.425 2.55 1.7.425.425.85 1.275 1.7 1.7 1.275 1.7 3.826 2.975 7.226 2.975 3.826 0 7.226-2.55 7.226-5.525zM52.045 78.522c1.275 1.7 3.825 2.975 7.225 2.975 4.25 0 7.651-2.125 7.651-5.1 0-2.975-3.4-5.1-7.65-5.1-3.401 0-6.376 1.7-7.226 3.825-.85-.85-2.126-1.7-3.826-1.7-2.125 0-3.4 1.275-4.25 2.55-.85 1.275-1.275 1.7-2.55 1.7-1.276 0-1.7-.425-2.55-1.7-.85-1.275-2.126-2.55-4.251-2.55-.425 0-.85.425-.85.85s.425.85.85.85c1.275 0 1.7.425 2.55 1.7.85 1.275 2.125 2.55 4.25 2.55 2.126 0 3.4-1.275 4.25-2.55.851-1.275 1.276-1.7 2.551-1.7 1.275 0 1.7.425 2.55 1.7.425.85.85 1.275 1.276 1.7zM81.373 75.972c-.85 1.275-1.275 1.7-2.55 1.7-1.276 0-1.7-.425-2.55-1.7-.85-1.275-2.126-2.55-4.251-2.55-.425 0-.85.424-.85.85 0 .424.425.85.85.85 1.275 0 1.7.425 2.55 1.7.85 1.275 2.125 2.55 4.25 2.55 2.126 0 3.4-1.275 4.25-2.55.851-1.275 1.276-1.7 2.551-1.7h.425c.425-.425.85-1.276 1.275-1.7-.425 0-.85-.426-1.7-.426-2.125.425-3.4 1.7-4.25 2.976zM38.018 83.198c-3.4 0-6.376 1.7-7.226 3.825-.85-.85-2.125-1.7-3.825-1.7-1.7 0-2.975.85-3.825 2.125.425.425 1.275.85 1.7.85.425-.425 1.275-.85 2.125-.85 1.275 0 1.7.425 2.55 1.7.425.425.85 1.275 1.7 1.7 0 .425.425.425.85.85 2.55.85 5.101 1.7 8.076 2.126 3.4-.425 5.951-2.55 5.951-5.1 0-2.976-3.825-5.526-8.076-5.526zM68.62 87.448c-.85-.85-1.7-1.7-3.825-1.7s-3.4 1.275-4.25 2.55c-.85 1.275-1.275 1.7-2.55 1.7s-1.7-.425-2.55-1.7c-.85-1.275-2.126-2.55-4.25-2.55-.426 0-.851.425-.851.85s.425.85.85.85c1.275 0 1.7.425 2.55 1.7.85 1.275 2.126 2.55 4.25 2.55 2.126 0 3.401-1.275 4.251-2.55.85-1.275 1.275-1.7 2.55-1.7 1.276 0 1.7.425 2.55 1.7 0 .425.426.425.85.85 3.401-1.7 6.802-3.825 10.202-6.375-.85 0-1.275-.425-2.125-.425-3.826 0-6.801 1.7-7.651 4.25z"/></svg>