<svg xmlns="http://www.w3.org/2000/svg"><path d="M31.993 51.832C19.242 49.282 3.09 40.356 3.09 24.63c0-10.626 5.95-15.726 9.776-17.426 5.526-2.976 12.751-3.4 17.427-.425 2.55 1.7 3.825 2.975 5.1 4.675-.425 1.275-.425 3.4.425 5.526 1.276 3.4 3.826 5.525 5.951 5.1 2.125-.85 2.55-4.25 1.7-7.65-.85-2.55-2.55-4.251-3.825-4.676-1.275-2.125-3.4-4.25-6.376-6.376-5.95-3.825-14.451-3.4-21.252.425C4.366 8.052.115 15.704.115 25.055c0 18.276 18.702 28.903 33.153 31.453v-4.676h-1.275z"/><path d="M34.119 48.432v12.326c1.275-.425 2.975-.425 4.25-.85 1.275 0 2.55-.425 3.825-.425v-11.05c11.477-2.126 20.403-11.902 20.403-24.228H13.29c.425 12.326 9.351 22.527 20.828 24.227zM48.57 73.085h-5.951v-4.676c-.85 0-1.7.425-2.975.425-2.126.425-3.826.425-5.526.85v3.4h-5.95a3.81 3.81 0 00-3.826 3.826v.425a3.81 3.81 0 003.825 3.825H48.57c2.125 0 4.25-1.7 4.25-4.25-.425-1.7-2.125-3.825-4.25-3.825z"/><path d="M44.32 52.682v4.25c3.4.426 5.1 1.701 5.525 2.126-.425.425-2.55 2.125-11.901 3.4-10.202 1.276-16.577 4.25-19.553 8.501-2.125 3.4-1.275 6.376-1.275 6.801.425.85 1.276 1.275 2.126 1.275h.425c.85-.425 1.7-1.275 1.275-2.55 0 0-.425-1.7.85-3.4 1.7-2.126 5.95-5.526 16.577-6.801 10.626-1.275 15.726-3.826 15.726-7.65 0-2.976-4.675-5.102-9.776-5.952z"/></svg>