<svg xmlns="http://www.w3.org/2000/svg"><path d="M31.258 26.092c0-2.976 0-4.25.85-4.25s.85-.426.85-2.126 0-2.55-.85-2.55-1.275-.85 0-.85 1.275 0 .85-2.55c0-2.55-.425-9.352-.425-11.477s-1.275-1.7-3.4-1.7h-9.351-9.351c-2.126 0-3.4-.425-3.4 1.7s-.426 8.926-.426 11.476c0 2.55 0 2.55.85 2.55 1.275 0 .85.85 0 .85s-.85.426-.85 2.551c0 1.7 0 2.125.85 2.125s.85 1.275.85 4.25c0 2.976-8.076 2.976-8.076 14.027v37.829c0 6.8 2.126 10.201 7.226 10.201h23.802c5.101 0 7.226-2.975 7.226-10.201V40.118c.425-11.051-7.225-11.051-7.225-14.026zM9.155 14.615c0 .425-.425.425-.425.425-.425 0-.425-.425-.425-.425.425-4.25.425-8.075.85-12.326 0-.425.425-.425.425-.425.425 0 .425.425.425.425-.425 4.25-.85 8.501-.85 12.326zm2.126 0c0 .425-.425.425-.425.425-.425 0-.425-.425-.425-.425.425-4.25.425-8.075.85-12.326 0-.425.425-.425.425-.425.425 0 .425.425.425.425-.425 4.25-.425 8.501-.85 12.326zm2.125 0c0 .425-.425.425-.425.425-.425 0-.425-.425-.425-.425 0-4.25.425-8.075.425-12.326 0-.425.425-.425.425-.425.425 0 .425.425.425.425 0 4.25 0 8.501-.425 12.326zm2.55 0c0 .425-.425.425-.425.425-.425 0-.425-.425-.425-.425 0-4.25.425-8.075.425-12.326 0-.425.425-.425.425-.425.425 0 .425.425.425.425-.425 4.25-.425 8.501-.425 12.326zm2.125 0c0 .425-.425.425-.425.425-.425 0-.425-.425-.425-.425V2.29c0-.425.425-.425.425-.425.425 0 .425.425.425.425v12.326zm1.7.85c-.424 0-.424-.425-.424-.425V2.714c0-.425.425-.425.425-.425.424 0 .425.425.425.425V15.04s0 .426-.425.426zm2.55 0c-.424 0-.424-.425-.424-.425V2.714c0-.425.425-.425.425-.425.425 0 .425.425.425.425V15.04l-.425.426zm2.126 0c-.425 0-.425-.425-.425-.425 0-4.25 0-8.075-.425-12.326 0-.425.425-.425.425-.425.425 0 .425.425.425.425 0 4.25.425 8.076.425 12.326 0 0 0 .426-.425.426zm2.125 0c-.425 0-.425-.425-.425-.425 0-4.25-.425-8.075-.425-12.326 0-.425.425-.425.425-.425.425 0 .425.425.425.425 0 4.25.425 8.076.425 12.326.425 0 0 .426-.425.426zm2.55 0c-.425 0-.425-.425-.425-.425 0-4.25-.425-8.075-.425-12.326 0-.425 0-.425.425-.425s.425.425.425.425c.425 4.25.426 8.076.85 12.326-.424 0-.85.426-.85.426zm1.7-.85c-.424-4.25-.424-8.075-.85-12.326 0-.425 0-.425.426-.425.425 0 .425.425.425.425.425 4.25.425 8.076.85 12.326 0 .425-.425.425-.425.425-.425.426-.425 0-.425-.425z"/></svg>