<svg xmlns="http://www.w3.org/2000/svg"><path d="M22.42 79.998h-8.501V64.697h3.825c3.4 0 5.95-2.55 5.95-5.95v-33.58c0-3.4-2.55-5.95-5.95-5.95H13.92V3.49l-3.4-3.4v19.552H6.692c-3.4 0-5.95 2.55-5.95 5.95v33.58c0 3.4 2.55 5.95 5.95 5.95h3.825v15.301h-8.5c-.85 0-1.7.85-1.7 1.7s.85 1.7 1.7 1.7h20.827c.85 0 1.7-.85 1.7-1.7-.425-1.275-1.275-2.125-2.125-2.125zm-8.501-37.404h6.375v16.577c0 1.275-1.274 2.55-2.55 2.55H13.92V42.594zm-3.825 18.702H6.268c-1.275 0-2.55-1.275-2.55-2.55V42.17h6.376v19.127z"/></svg>