<svg xmlns="http://www.w3.org/2000/svg"><path d="M49.358.242c-8.076 0-16.577 3.825-16.577 3.825S24.705.242 16.205.242C8.553.242.902 3.642.902 17.669c0 28.052 31.878 45.054 31.878 45.054S64.66 46.146 64.66 17.67C64.66 3.642 57.01.242 49.358.242zM32.78 52.522c-7.65-5.1-23.377-17.427-23.377-34.853 0-3.826.85-6.376 2.125-7.651 1.275-.85 3.4-1.275 5.1-1.275 5.101 0 11.052 2.125 12.752 2.975l3.4 1.7 3.4-1.7c1.7-.85 7.651-2.975 12.752-2.975 1.7 0 3.825.425 5.1 1.275 1.276 1.275 2.126 3.825 2.126 7.65 0 17.002-15.727 29.754-23.378 34.854z"/></svg>