<svg xmlns="http://www.w3.org/2000/svg"><path d="M16.017 5.277h19.552c1.7 0 3.4-1.275 3.4-2.55s-1.7-2.55-3.4-2.55H16.017c-1.7 0-3.4 1.275-3.4 2.55.425 1.275 1.7 2.55 3.4 2.55zM25.368 55.857c-.425 0-.85.85-.85 2.125 0 1.276 0 2.126.425 2.126s.85-.85.85-2.126c0-1.275 0-2.125-.425-2.125zM36.42 53.732c0-1.275-1.7-2.55-4.25-2.975-4.251-.425-5.101.85-5.101 2.125s2.125 2.975 4.675 2.975 4.676-.85 4.676-2.125zM26.644 55.857c-.425 0-.425.85-.425 2.125 0 1.276.425 2.126.85 2.126s.425-.85.425-2.126c0-1.275-.425-2.55-.85-2.125z"/><path d="M48.746 29.08l-4.676-2.55c-1.7-.85-2.975-2.976-2.975-4.676v-6.376c0-1.7.85-3.4 1.7-3.4s1.7-1.275 1.7-2.55c0-1.276-1.275-2.55-3.4-2.55H10.917c-1.7 0-3.4 1.274-3.4 2.55 0 1.274.85 2.55 1.7 2.55s1.7 1.7 1.7 3.4v6.376c0 1.7-1.275 3.825-2.975 4.675l-4.676 2.55c-1.7.85-2.975 2.976-2.975 4.676v46.33c0 1.7 1.275 3.4 3.4 3.4h44.63c1.7 0 3.4-1.275 3.4-3.4v-46.33c0-1.7-1.275-3.826-2.975-4.676zm-39.53 7.65c.85-.85 2.126-.85 2.976 0-.85-.85-.85-2.125 0-2.975.85-.85 2.125-.85 2.975 0 .85.85.85 2.125 0 2.975l-.425.425 2.976 2.975c-.85.426-2.126 1.276-2.976 2.126l-2.55-2.55c-.85.85-2.125.85-2.975 0-.85-.85-.85-2.126 0-2.976zm8.927 25.078l-3.4 3.4c.85.85.85 2.125 0 2.975-.85.85-2.126.85-2.976 0-.85-.85-.85-2.125 0-2.975-.85.85-2.125.85-2.975 0-.85-.85-.85-2.125 0-2.975.85-.85 2.125-.85 2.975 0l.425.425 3.825-3.826c.85.85 1.7 1.276 2.976 1.7-.425.426-.85.85-.85 1.276zm14.451 1.7v-1.275s0-.425-.425-.425c0 0-.425 0-.425.425v1.275H30.47v-1.275s0-.425-.425-.425c0 0-.425 0-.425.425v1.275h-1.275v-1.275s0-.425-.425-.425-.425 0-.425.425v1.275h-.425v-1.275s0-.425-.425-.425c0 0-.425 0-.425.425v1.275h-1.276v-1.275s0-.425-.425-.425c0 0-.425 0-.425.425v1.275h-1.275v-1.275s0-.425-.425-.425c0 0-.425 0-.425.425v1.275h-1.275v-1.275s0-.425-.425-.425c0 0-.425 0-.425.425v1.275h-1.275v-1.275s0-.425-.425-.425c0 0-.425 0-.425.425v1.275h.85c0-1.275.425-2.125.85-2.975-4.676-2.126-7.651-5.951-7.651-10.201 0-6.376 6.376-11.477 14.026-11.477 7.651 0 14.027 5.1 14.027 11.477 0 4.25-2.975 8.5-7.65 10.2.424.85.85 2.126.85 2.976h-.426zm10.201 1.7c-.85.85-2.125.85-2.975 0 .85.85.85 2.125 0 2.975-.85.85-2.125.85-2.975 0-.85-.85-.85-2.125 0-2.975l-3.4-3.4c0-.425 0-.425-.426-.85.85-.425 2.125-1.276 2.976-1.7l3.825 3.825.425-.425c.85-.85 2.125-.85 2.975 0 .425.425.425 1.7-.425 2.55zm0-25.502c-.85.85-2.125.85-2.975 0l-2.55 2.55c-.85-.85-1.7-1.7-2.976-2.126l2.976-2.975-.425-.425c-.85-.85-.85-2.125 0-2.975.85-.85 2.125-.85 2.975 0 .85.85.85 2.125 0 2.975.85-.85 2.125-.85 2.975 0 .85.85.85 2.125 0 2.976z"/><path d="M19.843 51.182c-2.55.425-4.25 1.7-4.25 2.975 0 1.275 2.125 2.125 4.675 2.125s4.676-1.7 4.676-2.975c0-1.275-.85-2.975-5.1-2.125z"/></svg>