<svg xmlns="http://www.w3.org/2000/svg"><path d="M82.111 38.007c-3.4 0-6.375 2.125-7.225 5.1-.425 0-8.501-2.125-14.877 2.55-4.25 3.401-6.8 9.352-6.8 17.428 0 6.8-1.276 11.9-3.826 15.301-2.55 3.4-5.1 4.25-7.226 4.25-4.25 0-9.35-3.825-9.35-9.35 0-5.1 0-8.926-.426-11.476v-.85c5.526-.426 11.051-2.976 15.727-7.226 1.275-1.275 1.7-2.976 1.275-4.676 5.95-7.225 10.201-17.427 10.201-25.927 0-9.351-4.675-15.302-14.026-18.277-.425-2.55-2.55-4.25-5.1-4.25-2.976 0-5.526 2.55-5.526 5.525 0 2.975 2.55 5.525 5.525 5.525 1.7 0 3.4-.85 4.25-2.125 7.226 2.125 10.202 6.376 10.202 13.602 0 7.65-3.4 16.576-8.926 22.952-1.275-.425-2.976 0-4.25 1.275-2.551 2.125-5.951 5.1-10.627 5.1h-1.7c-4.25 0-8.076-2.55-10.626-5.1-1.275-1.275-2.55-1.275-4.25-1.275C9.428 39.707 5.602 30.78 5.602 23.13c0-7.226 3.4-11.477 10.202-13.602.85 1.275 2.55 2.125 4.25 2.125 2.975 0 5.526-2.55 5.526-5.525 0-2.976-2.55-5.526-5.526-5.526-2.55 0-4.675 1.7-5.1 4.25C5.602 7.404.927 13.356.927 23.132c0 8.5 3.825 18.702 10.201 25.927-.425 1.7 0 3.4 1.275 4.676 5.1 4.675 11.051 7.65 17.002 7.65 0 1.276.425 4.25.425 11.902 0 6.8 5.526 12.751 12.326 12.751 3.826 0 7.226-2.125 9.776-5.526 2.976-3.825 4.25-9.775 4.25-17.426 0-7.226 1.7-11.901 5.526-14.877 5.1-3.825 11.901-2.125 11.901-2.125h.426c.425 3.825 3.825 6.8 7.65 6.8 4.25 0 7.651-3.4 7.651-7.65.425-3.826-2.975-7.226-7.226-7.226zm0 13.602c-3.4 0-5.95-2.55-5.95-5.951 0-3.4 2.55-5.95 5.95-5.95 3.4 0 5.951 2.55 5.951 5.95 0 3.4-2.975 5.95-5.95 5.95z"/><path d="M82.112 41.407c-2.55 0-4.25 2.126-4.25 4.25 0 2.551 2.125 4.251 4.25 4.251 2.55 0 4.25-2.125 4.25-4.25s-2.125-4.25-4.25-4.25z"/></svg>