<svg xmlns="http://www.w3.org/2000/svg"><path d="M19.19 14.979h7.652c1.275 0 2.125-.85 2.125-2.125v-.425H16.64v.425c.425.85 1.276 2.125 2.55 2.125zM29.392 8.603l.85-5.525c0-1.276-.425-2.126-1.7-2.126H16.641c-1.275 0-1.7.85-1.7 2.126l.85 5.525h13.601z"/><path d="M23.016 59.609c5.526 0 9.776-4.25 9.776-9.776V10.728c0-.425-.425-.85-.85-.85H14.515c-.425 0-.85.425-.85.85v39.105c-.425 5.525 3.826 9.776 9.351 9.776zm-8.075-48.03h15.726v38.254c0 4.25-3.4 8.075-8.076 8.075-4.25 0-8.076-3.4-8.076-8.075V11.579h.425z"/><path d="M23.016 56.633c3.826 0 6.801-2.975 6.801-6.8V25.18H16.216v24.653c0 3.825 2.975 6.8 6.8 6.8zM40.868 14.979h7.651c1.275 0 2.125-.85 2.125-2.125v-.425H38.318v.425c.425.85 1.275 2.125 2.55 2.125zM51.069 8.603l.85-5.525c0-1.276-.425-2.126-1.7-2.126H38.318c-1.276 0-1.7.85-1.7 2.126l.85 5.525h13.6z"/><path d="M44.693 59.609c5.526 0 9.776-4.25 9.776-9.776V10.728c0-.425-.425-.85-.85-.85H36.192c-.425 0-.85.425-.85.85v39.105c-.425 5.525 3.825 9.776 9.351 9.776zm-8.076-48.03h15.727v38.254c0 4.25-3.4 8.075-8.076 8.075-4.25 0-8.076-3.4-8.076-8.075V11.579h.425z"/><path d="M44.693 56.633c3.826 0 6.8-2.975 6.8-6.8V32.406h-13.6v17.427c0 3.825 2.975 6.8 6.8 6.8zM62.545 14.979h7.65c1.276 0 2.126-.85 2.126-2.125v-.425H59.995v.425c.425.85 1.7 2.125 2.55 2.125zM73.172 8.603l.85-5.525c0-1.276-.425-2.126-1.7-2.126H60.42c-1.275 0-1.7.85-1.7 2.126l.85 5.525h13.602z"/><path d="M66.37 59.609c5.526 0 9.777-4.25 9.777-9.776V10.728c0-.425-.425-.85-.85-.85H57.87c-.425 0-.85.425-.85.85v39.105c-.425 5.525 3.825 9.776 9.35 9.776zm-8.075-48.03h15.727v38.254c0 4.25-3.4 8.075-8.076 8.075-4.25 0-8.076-3.4-8.076-8.075V11.579h.425z"/><path d="M66.37 56.633c3.826 0 6.802-2.975 6.802-6.8V29.43H59.57v20.403c0 3.825 2.975 6.8 6.8 6.8z"/><path d="M86.773 30.706h-3.4c-2.976 0-5.101 2.55-5.101 5.95v22.102c0 1.276-1.275 2.55-2.55 2.55H13.24c-1.275 0-2.55-1.274-2.55-2.55V36.656c0-3.4-2.125-5.95-5.1-5.95H2.613c-.85 0-1.7.85-1.7 1.7s.85 1.7 1.7 1.7h3.4c.85 0 1.7 1.275 1.7 2.55v22.102c0 3.4 2.55 5.951 5.951 5.951h62.482c3.4 0 5.95-2.55 5.95-5.95V36.655c0-1.275.85-2.55 1.7-2.55h3.4c.85 0 1.7-.85 1.7-1.7-.424-.85-1.274-1.7-2.124-1.7z"/></svg>