<svg xmlns="http://www.w3.org/2000/svg"><path d="M33.607 38.781l-1.7-22.952C31.482 7.328 23.83.527 14.905.952 6.405 1.377-.397 9.028.028 17.954l2.976 40.804c.425 4.676 2.55 8.926 6.375 11.476.425-4.675 2.126-9.35 5.526-12.75L33.607 38.78zm-28.053-2.55L4.279 17.529c-.425-6.8 4.675-12.326 11.476-13.176 6.8-.425 12.326 4.675 13.176 11.476l1.276 18.702-24.653 1.7z"/><path d="M71.436 29.005c-6.376-6.375-17.002-6.375-23.378 0L17.456 59.608c-6.375 6.376-6.375 17.002 0 23.378 6.376 6.376 17.002 6.376 23.378 0l30.603-30.603c6.376-6.376 6.376-17.002 0-23.378zm-2.975 20.827L54.434 63.86 36.157 45.582l14.027-14.027c5.1-5.1 13.176-5.1 18.277 0 5.1 5.101 5.1 13.177 0 18.277z"/></svg>