<svg xmlns="http://www.w3.org/2000/svg"><path d="M42.609 17.942H6.48c-1.275 0-2.55 1.275-2.55 2.55l1.275 49.73c0 1.275 1.275 2.55 2.55 2.55h33.153c1.276 0 2.55-1.275 2.55-2.55l1.276-49.73c.425-1.7-.425-2.55-2.125-2.55zM45.584.94H3.504C2.23.94.955 2.215.955 3.49v9.776c0 1.275 1.276 2.55 2.55 2.55h42.08c1.275 0 2.55-1.275 2.55-2.55V3.49c0-1.275-1.275-2.55-2.55-2.55zM5.205 14.116c0 .425-.425.85-.85.85s-.85-.425-.85-.85V3.066c0-.426.425-.85.85-.85s.85.424.85.85v11.05zm3.825 0c0 .425-.425.85-.85.85s-.85-.425-.85-.85V3.066c0-.426.425-.85.85-.85s.85.424.85.85v11.05zm3.4 0c0 .425-.424.85-.85.85-.424 0-.85-.425-.85-.85V3.066c0-.426.426-.85.85-.85.426 0 .85.424.85.85v11.05zm3.826 0c0 .425-.425.85-.85.85s-.85-.425-.85-.85V3.066c0-.426.425-.85.85-.85s.85.424.85.85v11.05zm3.4 0c0 .425-.424.85-.85.85-.425 0-.85-.425-.85-.85V3.066c0-.426.425-.85.85-.85s.85.424.85.85v11.05zm3.826 0c0 .425-.425.85-.85.85s-.85-.425-.85-.85V3.066c0-.426.425-.85.85-.85s.85.424.85.85v11.05zm3.825 0c0 .425-.425.85-.85.85s-.85-.425-.85-.85V3.066c0-.426.425-.85.85-.85s.85.424.85.85v11.05zm3.4 0c0 .425-.424.85-.85.85-.424 0-.85-.425-.85-.85V3.066c0-.426.425-.85.85-.85.426 0 .85.424.85.85v11.05zm3.826 0c0 .425-.425.85-.85.85s-.85-.425-.85-.85V3.066c0-.426.425-.85.85-.85s.85.424.85.85v11.05zm3.825 0c0 .425-.425.85-.85.85s-.85-.425-.85-.85V3.066c0-.426.425-.85.85-.85s.85.424.85.85v11.05zm3.4 0c0 .425-.424.85-.85.85-.424 0-.85-.425-.85-.85V3.066c0-.426.426-.85.85-.85.426 0 .85.424.85.85v11.05zm3.826 0c0 .425-.425.85-.85.85s-.85-.425-.85-.85V3.066c0-.426.425-.85.85-.85s.85.424.85.85v11.05z"/></svg>