<svg xmlns="http://www.w3.org/2000/svg"><path d="M16.455 5.277h19.552c1.7 0 3.4-1.275 3.4-2.55s-1.275-2.55-3.4-2.55H16.455c-1.7 0-3.4 1.275-3.4 2.55s1.275 2.55 3.4 2.55zM24.956 54.157c-1.7 4.25-1.7 4.25 0 5.95 1.7 1.7 1.275-2.975 1.275-5.525-.425-2.975-.425-2.55-1.275-.425zM26.656 54.582c0 2.55-.425 7.226 1.275 5.526 1.7-1.7 1.7-1.7 0-5.951-1.275-2.125-1.7-2.55-1.275.425zM23.256 47.782c-1.276-1.276-1.7-1.276-4.676-.426-2.975.85-3.825 1.276-3.4 4.676.425 2.55 1.7 2.975 4.675 2.55 2.55-.425 4.25-2.125 4.25-3.825 0-1.7.426-1.7-.85-2.975z"/><path d="M48.758 29.08l-4.675-2.55c-1.7-.85-2.975-2.976-2.975-4.676v-6.376c0-1.7.85-3.4 1.7-3.4s1.7-1.275 1.7-2.55c0-1.276-1.7-2.55-3.4-2.55H10.929c-1.7 0-3.4 1.274-3.4 2.55 0 1.274.85 2.55 1.7 2.55s1.7 1.7 1.7 3.4v6.376c0 1.7-1.275 3.825-2.975 4.675l-4.675 2.55c-1.7.85-2.976 2.976-2.976 4.676v46.33c0 1.7 1.7 3.4 3.4 3.4h44.63c1.7 0 3.4-1.275 3.4-3.4v-46.33c0-1.7-1.274-3.826-2.975-4.676zM37.282 66.482c.425 2.55.425 2.976-3.825 5.526-4.25 2.975-3.826 2.975-5.1 2.975H26.23h-2.125c-1.275 0-.85-.425-5.1-2.975-4.251-2.975-4.251-2.975-3.826-5.526.425-2.55-.425-5.1-.85-6.375 0 0 .425.425 1.7.425s1.7-.425 1.7-.425 0 .85.85 2.55c.425 1.275.85 1.7 1.275 2.125v.85c0 .425 0 .85.425.85h.425c0 .425.425.85.425.85h.425c0 .425.425.85.425.85h.425c0 .425.426.425.85.85h.426c0 .426.425.425.85.425h.425c0 .426.425.426.85.426s.425 0 .425-.425l.425.425c.425 0 .425-.425.85-.425h.425c.425 0 .425-.425.85-.425h.425c.425 0 .425-.426.85-.85h.425c.425 0 .425-.426.425-.85h.425c.425 0 .425-.426.425-.85h.425c.426 0 .426-.426.426-.85v-.85c.425-.426.85-.851 1.275-2.126.425-1.7.85-2.55.85-2.55s.425.425 1.7.425 1.7-.425 1.7-.425c-.425 1.275-1.275 3.825-.85 6.375zm-15.301-1.275c0 .85 0 1.275-.426.85-.425 0-.425-.425-.425-1.275 0-.85 0-1.275.425-1.275.425.425.425.85.425 1.7zm0 2.125c0 .85 0 .85-.426.85-.425 0-.425-.425-.425-.85s0-.85.425-.85.425 0 .425.85zm-.85-2.55c0 .85 0 .85-.426.85-.425 0-.425-.425-.425-.85 0-.85 0-.85.425-.85.425-.425.425 0 .425.85zm0 1.7c0 .425 0 .85-.426.85-.425 0-.425-.425-.425-.85s0-.85.425-.85c.425.425.425.425.425.85zm-.85-2.125c0 .85 0 .85-.426.85-.425 0-.425-.425-.425-.85s0-.85.425-.85c.85 0 .425.425.425.85zm0 1.7c0 .425 0 .425-.426.425-.425 0-.425-.425-.425-.85s0-.85.425-.85c.425.425.425.425.425 1.275zm-.426-1.7c0 .425 0 .85-.425.425s0-.425 0-.85 0-.85.425-.85v1.275zm2.55 2.125c-.425-.425-.425-.425-.425-1.275 0-.85 0-1.275.85-1.275.426 0 .426.425.426 1.275 0 1.275 0 1.7-.85 1.275zm.426 2.126c-.425 0-.425-.426-.85-1.276 0-.85 0-.85.424-.85.425 0 .426 0 .426.85.425.85.425 1.276 0 1.276zm.85-1.276c.425 0 .85 0 .85.85s0 .85-.425.85-.425-.425-.425-.85c-.425-.85-.425-1.275 0-.85zm-.425-1.7c0-.85 0-1.7.425-1.7s.425.85.425 1.7 0 1.7-.85 1.275v-1.275zm2.975.85c0 .85 0 .85-.85.85s-.85 0-.85-.85 0-1.7.85-1.7c.85-.425.85.85.85 1.7zm0 1.7c0 .85-.425 1.276-.85.85-.425 0-.85-.424-.85-1.275 0-.85 0-.85.425-.85 1.275.425 1.275.425 1.275 1.275zm.85-.85c.425 0 .425 0 .425.85s0 1.275-.85 1.275c-.425 0-.85 0-.85-.85.425-1.275.425-1.275 1.275-1.275zm0-2.975c.85 0 .85.85.85 1.7s0 .85-.85.85-.85 0-.85-.85c0-.425 0-1.7.85-1.7zm1.275 2.975c.425 0 .425 0 .425.85s0 .85-.425.85-.425 0-.425-.85 0-.85.425-.85zm0-3.4c.425 0 .425.85.425 1.7s.425 1.275-.425 1.275c-.85.425-.85-.425-.85-1.275.425-.85.425-1.7.85-1.7zm1.275 2.55c-.425.425-.85 0-.85-1.275s0-1.275.425-1.275.425.425.85 1.275c0 .85.425.85-.425 1.275zm.425.85c0 .85 0 .85-.85 1.276-.425 0-.425 0-.425-.85s0-.85.425-.85c.85-.426.85-.426.85.424zm2.55-2.55c-.424.425-.425 0-.425-.425v-.85s.426 0 .426.85c.425 0 .425 0 0 .425zm0 .85c0 .425 0 .85-.425.85-.424 0-.424 0-.424-.425s0-.425.424-.85c.85-.425.85 0 .426.425zm-.425-.425c-.424 0-.424 0-.424-.85v-.85c.425 0 .424.425.424.85.426.425.426.425 0 .85zm0 1.275c0 .425-.424.85-.424.85-.426 0-.426 0-.426-.85 0-.425 0-.85.425-.85.426 0 .425 0 .425.85zm-.85-.85c-.425 0-.425 0-.425-.85v-1.275c.425 0 .425.425.425.85.425.85.425.85 0 1.275zm-.425 1.275c0 .425-.425.85-.425.85-.425 0-.425 0-.425-.85s0-.85.425-.85c.85 0 .85.425.425.85zm-.425-.85c-.425 0-.425-.425-.425-.85v-1.275c.425 0 .425 0 .425 1.275.85.425.425.85 0 .85zm8.501-30.178c-.85-1.275-1.7-1.7-2.125-1.7.425 0 1.275.425 2.125 1.7.425 1.7-.425 4.25-1.275 7.226-.85 2.975 0 3.825.85 5.95.85 1.7.425 2.976.85 4.25 0 0 0 .426.425.851 1.7 1.7-.425 3.4-2.125 5.1-1.7 1.7-3.4-.85-5.1.85-1.276 1.276-.85 2.126-.425 2.55h-.426s-.425 0-.425.426h-.425c-.425 0-.425 0-.425.425h-.425s-.425 0-.425.425l-.425-.425c-.425 0-.425.425-.425.425 0-.425-.425-.425-.425-.425h-.425v.425c0-.425-.425-.425-.85-.425h-.425s0 .425-.425.425c0 0 0-.425-.425-.425h-.425c-.425 0-.425 0-.85.425v-.425h-.425c-.425 0-.425 0-.425.425 0-.425 0-.425-.425-.425s-.425 0-.425.425c0 0 0-.425-.425-.425h-.425s0-.425-.426-.425h-.425s0-.425-.425-.425h-.425c.425-.425.85-1.7-.425-2.55-1.275-1.276-2.975 1.275-5.1-.85-1.7-1.7-3.826-3.826-2.126-5.101 0-.425.426-.425.426-.85.425-1.275 0-2.55.85-4.25.85-2.126 1.7-2.976.85-5.951-.85-2.976-1.275-5.526-.85-7.226.85-1.7 1.275-1.7 1.7-2.125-.425 0-1.275.425-2.125 1.7-.85 1.275 0 4.675.425 7.226.425 2.55.85 3.825-.85 5.95-.425.85-.85 1.276-.85 1.7-.85-1.7-1.7-3.825-1.7-8.075-.426-8.501 8.075-15.302 16.15-15.302 8.077 0 16.578 6.8 16.153 15.302 0 4.25-1.276 6.375-1.7 8.076 0-.425-.426-1.276-.85-1.7-1.7-2.55-1.276-3.401-.85-5.951-.426-2.125.424-5.1-.426-6.8z"/><path d="M33.456 47.356c-2.975-.85-3.4-.85-4.675.425-1.275 1.276-.85 1.276-.85 2.976s1.275 2.975 4.25 3.825c2.55.425 4.25.425 4.676-2.55.425-3.4-.425-3.4-3.4-4.676z"/></svg>