<svg xmlns="http://www.w3.org/2000/svg"><path d="M41.459 24.667c-.85 0-.85 0-.85-2.55s.424-2.55 1.7-2.55c1.275 0 1.7-2.126-.425-2.126H23.181 4.48c-2.55 0-1.7 2.125-.425 2.125s1.7 0 1.7 2.55 0 2.55-.85 2.55-4.25-.424-4.25 5.101v47.605c0 5.1 0 9.351 4.25 9.351h37.404c4.25 0 4.25-4.25 4.25-9.35V29.766c-1.275-5.525-4.25-5.1-5.1-5.1zM36.782 62.92c0 1.7-1.275 2.975-2.975 2.975H11.28c-1.7 0-2.975-1.275-2.975-2.975V37.843c0-1.7 1.275-2.975 2.975-2.975h22.528c1.7 0 2.975 1.275 2.975 2.975v25.078zM4.48 16.59h36.128c.85 0 1.7-.85 1.7-2.124V2.139c0-.85-.85-1.7-1.7-1.7H4.479c-.85 0-1.7.85-1.7 1.7v12.327c-.425 1.275.425 2.125 1.7 2.125zM40.182 1.715c0-.425.425-.425 0 0 .85-.425.85-.425.85 0v12.752c0 .425 0 .425-.425.425s-.425 0-.425-.425V1.714zm-1.275 0c0-.425 0-.425 0 0 .85-.425.85-.425.85 0v12.752c0 .425 0 .425-.425.425s-.425 0-.425-.425V1.714zm-1.7 0c0-.425.425-.425 0 0 .85-.425.85-.425.85 0v12.752c0 .425 0 .425-.425.425s-.425 0-.425-.425V1.714zm-1.276 0c0-.425 0-.425 0 0 .85-.425.85-.425.85 0v12.752c0 .425 0 .425-.424.425-.425 0-.425 0-.425-.425V1.714zm-1.7 0c0-.425.425-.425 0 0 .85-.425.85-.425.85 0v12.752c0 .425 0 .425-.425.425s-.425 0-.425-.425V1.714zm-1.275 0c0-.425 0-.425.425-.425s.425 0 .425.425v12.752c0 .425 0 .425-.425.425s-.425 0-.425-.425V1.714zm-1.7 0c0-.425 0-.425.425-.425s.425 0 .425.425v12.752c0 .425 0 .425-.425.425s-.425 0-.425-.425V1.714zm-1.7 0c0-.425.425-.425 0 0 .85-.425.85-.425.85 0v12.752c0 .425 0 .425-.425.425s-.425 0-.425-.425V1.714zm-1.275 0c0-.425 0-.425 0 0 .85-.425.85-.425.85 0v12.752c0 .425 0 .425-.425.425s-.425 0-.425-.425V1.714zm-1.7 0c0-.425.424-.425 0 0 .85-.425.85-.425.85 0v12.752c0 .425 0 .425-.425.425-.426 0-.426 0-.426-.425V1.714zm-1.276 0c0-.425 0-.425 0 0 .85-.425.85-.425.85 0v12.752c0 .425 0 .425-.425.425s-.425 0-.425-.425V1.714zm-1.7 0c0-.425.425-.425 0 0 .85-.425.85-.425.85 0v12.752c0 .425 0 .425-.425.425s-.425 0-.425-.425V1.714zm-1.275 0c0-.425 0-.425 0 0 .85-.425.85-.425.85 0v12.752c0 .425 0 .425-.425.425s-.425 0-.425-.425V1.714zm-1.7 0c0-.425 0-.425.425-.425s.425 0 .425.425v12.752c0 .425 0 .425-.425.425s-.425 0-.425-.425V1.714zm-1.7 0c0-.425.425-.425 0 0 .85-.425.85-.425.85 0v12.752c0 .425 0 .425-.425.425s-.425 0-.425-.425V1.714zm-1.275 0c0-.425 0-.425 0 0 .85-.425.85-.425.85 0v12.752c0 .425 0 .425-.425.425s-.425 0-.425-.425V1.714zm-1.7 0c0-.425.424-.425 0 0 .85-.425.85-.425.85 0v12.752c0 .425 0 .425-.426.425-.425 0-.425 0-.425-.425V1.714zm-1.276 0c0-.425 0-.425.425-.425s.425 0 .425.425v12.752c0 .425 0 .425-.425.425s-.425 0-.425-.425V1.714zm-1.7 0c0-.425.425-.425 0 0 .85-.425.85-.425.85 0v12.752c0 .425 0 .425-.425.425s-.425 0-.425-.425V1.714zm-1.7 0c0-.425 0-.425.425-.425s.425 0 .425.425v12.752c0 .425 0 .425-.425.425s-.425 0-.425-.425V1.714zm-1.275 0c0-.425 0-.425 0 0 .85-.425.85-.425.85 0v12.752c0 .425 0 .425-.425.425s-.425 0-.425-.425V1.714zm-1.7 0c0-.425.425-.425 0 0 .85-.425.85-.425.85 0v12.752c0 .425 0 .425-.425.425s-.425 0-.425-.425V1.714zm-1.276 0c0-.425 0-.425 0 0 .85-.425.85-.425.85 0v12.752c0 .425 0 .425-.424.425-.426 0-.426 0-.426-.425V1.714zm-1.7 0c0-.425.425-.425 0 0 .85-.425.85-.425.85 0v12.752c0 .425 0 .425-.425.425s-.425 0-.425-.425V1.714zm-1.275 0c0-.425 0-.425 0 0 .85-.425.85-.425.85 0v12.752c0 .425 0 .425-.425.425s-.425 0-.425-.425V1.714z"/></svg>