<svg xmlns="http://www.w3.org/2000/svg"><path d="M76.972 35.843c-6.8-3.826-14.451-3.826-20.827-.425 5.95-3.825 10.2-10.626 10.2-18.277 0-6.8-2.974-13.176-8.075-17.002 3.4 3.4 5.1 8.076 5.1 13.177 0 10.626-8.5 19.127-19.126 19.127a19.047 19.047 0 01-19.127-19.127c0-5.1 2.125-9.776 5.1-13.177-5.1 3.826-8.076 10.201-8.076 17.002 0 7.65 3.826 14.452 10.201 18.277-6.375-3.4-14.451-3.4-20.827.425-5.95 3.4-9.776 9.35-10.626 15.726 1.275-4.675 4.25-8.5 8.501-11.05 8.926-5.101 20.827-2.126 25.928 6.8 5.1 8.926 2.125 20.827-6.801 25.928-4.25 2.55-9.351 2.975-14.026 2.125 5.95 2.125 12.75 2.125 18.702-1.275 6.8-3.825 10.626-11.051 11.05-18.277.426 7.226 4.251 14.452 11.052 18.277 5.95 3.4 12.751 3.825 18.702 1.275-4.676 1.275-9.351.425-14.027-2.125-8.926-5.1-12.326-17.002-6.8-25.928 5.1-8.926 17.001-12.326 25.927-6.8 4.25 2.55 7.226 6.375 8.501 11.05-.85-6.375-4.675-12.326-10.626-15.726zM44.244 46.469c-2.55 0-4.676-2.125-4.676-4.675s2.125-4.676 4.676-4.676c2.55 0 4.675 2.125 4.675 4.675s-2.125 4.676-4.675 4.676z"/><path d="M22.141 39.668v2.976c0 9.35 5.526 17.001 13.602 20.402 0-.85.425-1.7.425-2.125-6.801-2.976-11.476-10.202-11.476-18.277v-2.125c-.85-.426-1.7-.85-2.55-.85zM44.244 22.666c4.25 0 8.076 1.276 11.476 3.4.85-.424 1.275-.85 1.7-1.274-3.825-2.55-8.076-4.25-13.176-4.25s-9.351 1.7-13.176 4.25c.425.425 1.275.85 1.7 1.275 3.4-2.125 7.226-3.4 11.476-3.4zM52.744 60.92c0 .85 0 1.7.425 2.126 8.076-3.4 13.602-11.051 13.602-20.402v-2.976c-.85.425-1.275.425-2.125.85v2.126c-.425 8.075-5.1 14.876-11.902 18.277z"/></svg>