<svg xmlns="http://www.w3.org/2000/svg"><path d="M14.069 89.511c-.85 0-.425 1.276-2.125 1.7-1.7.426-2.126 0-2.126.85 0 1.276.425.85 2.55.85 2.126-.424 2.55-3.4 1.7-3.4zM14.069 72.935c0 1.275.85 3.825-1.276 5.1-2.125 1.275-5.1 2.976-5.1 5.1 0 2.126.85 2.976 1.7 2.126.425-.85-1.275-2.125 2.55-3.825 3.826-1.7 5.101-2.55 5.101-5.526-.85-2.55-3.4-4.25-2.975-2.975zM14.494 55.083c-.85 0-.425 1.275-.425 3.825 0 2.55.425 2.976-2.55 3.826-2.976.85-6.801 1.275-6.801 5.525 0 3.826 2.975 5.526 2.975 4.676 0-2.975 1.275-4.676 4.676-5.526 3.4-.85 5.525-2.55 5.525-6.375.425-4.25-2.55-5.951-3.4-5.951zM15.344 35.106c-1.276 0-.85 2.975-.85 5.95 0 2.976-1.276 2.55-5.101 3.4-3.825.85-5.95 2.976-6.376 7.227 0 4.675 4.25 6.8 4.676 6.375.425-.425 0-7.225 4.675-7.65 4.25-.426 7.651-2.976 7.651-7.651 0-4.676-3.4-7.651-4.675-7.651z"/><path d="M13.219 67.41c-2.976.85-4.25 2.55-4.25 5.1v6.8c.85-.425 1.7-1.275 2.975-1.7l1.275-1.275V74.21v-.85-.425-5.526zM13.643 31.705c-.85-.425-2.125-.425-2.975-1.275-1.275-.85-2.125-1.275-2.125-1.275h-.425v4.676c0 2.55.425 5.525 0 6.8v2.976h.85c.85 0 1.275-.425 1.7-.425 1.7-.425 2.55-.425 2.55-1.276v-3.4-2.125c.425-1.275.425-2.975.425-4.676zM11.943 90.362c.425 0 .85-.425.85-.85V81.86c-.425.425-.85.425-1.275.85-2.125 1.275-2.125 1.7-2.125 2.125V90.787c.425-.425 1.275-.425 1.7-.85 0 .425.425.425.85.425zM11.518 61.884c1.275-.425 1.7-.425 1.7-.85v-9.776h-1.275c-2.55 0-3.4 3.4-3.4 5.95v5.1c.425 0 1.275-.424 1.7-.424.425.425.85 0 1.275 0zM8.118 13.429v8.5c.85 0 2.125-.425 2.976-.425h2.55v-8.5c2.125-1.276 3.4-3.4 3.4-5.951 0-3.825-2.975-6.8-6.8-6.8-3.826 0-6.801 2.975-6.801 6.8.85 2.975 2.55 5.1 4.675 6.376z"/><path d="M7.693 41.481c.425-.425 0-6.8-.425-10.2-.425-3.401 1.7-3.401 4.25-1.7 2.55 1.7 4.25 1.274 6.8 1.7 2.551.424 2.126-1.276 1.276-2.976-.85-1.7-2.125-5.1-6.376-5.95-4.25-.85-11.9.424-12.751 8.075-.85 8.076 6.8 11.476 7.226 11.051zm8.076-14.876l.85.85h-1.275l-.85-.85c0-.425.425 0 1.275 0z"/></svg>