<svg xmlns="http://www.w3.org/2000/svg"><path d="M48.319 12.868c-4.676 0-8.501 3.825-8.501 8.5 0 4.676 3.825 8.502 8.5 8.502 4.676 0 8.502-3.826 8.502-8.501 0-4.676-3.826-8.501-8.501-8.501z"/><path d="M93.799 19.669c-.85-.85-20.403-19.127-45.48-19.127-24.653 0-44.63 18.276-45.48 19.127l-2.125 1.7 2.125 1.7c.85.85 20.402 19.127 45.48 19.127 24.652 0 44.63-18.277 45.48-19.127l2.125-1.7-2.126-1.7zm-85.01 1.7c4.251-3.4 15.302-11.477 28.479-14.452-4.25 3.4-7.226 8.501-7.226 14.452 0 5.95 2.975 11.05 7.226 14.451C24.09 32.845 13.04 25.194 8.79 21.37zm23.378 0c0-8.926 7.226-16.152 16.152-16.152 8.926 0 16.151 7.226 16.151 16.152 0 8.926-7.225 16.151-16.151 16.151S32.167 30.295 32.167 21.37zM59.795 35.82c4.25-3.4 7.226-8.5 7.226-14.451 0-5.95-2.975-11.051-7.226-14.452C72.971 9.892 84.022 17.968 88.273 21.37c-4.675 3.825-15.302 11.476-28.478 14.451z"/></svg>