<svg xmlns="http://www.w3.org/2000/svg"><path d="M28.545 55.157h-.425c-1.7 0-1.7-.425-1.7-1.7v-1.7H6.018v1.7c0 1.275 0 1.7-1.7 1.7h-.425c-1.276 0-2.55 0-2.55 3.825V89.16c0 4.25.424 5.951 4.25 5.951h22.102c3.825 0 4.25-1.275 4.25-5.95V58.981c-.85-3.825-1.7-3.825-3.4-3.825zm.85 34.003c0 4.25 0 4.25-2.125 4.25H5.168c-2.126 0-2.126 0-2.126-4.25V58.982v-1.7h1.276c2.975 0 3.825-1.7 3.825-3.4H25.145c0 1.7.425 3.4 3.825 3.4h1.275V89.16h-.85zM27.695 46.231c-2.976 0-3.4-.425-3.4-2.125-.426-1.7-2.126-22.528-2.55-25.928-.426-3.4-2.976-4.675-3.401-8.926 0-4.25 0-8.926-2.55-8.926 2.125 0 1.7 4.676 2.125 8.926 0 4.25 2.125 5.526 2.55 8.926.425 3.4 1.7 24.228 2.125 25.928 0 1.7.425 2.125 2.976 2.125 2.55 0 2.55.425 2.55 2.55v1.7h-2.976v-1.7c0-2.125 0-2.55-2.125-2.55s-2.125-.425-2.125-2.125-1.275-22.528-1.7-25.928c0-3.4-1.7-4.675-1.7-8.926 0-4.25 0-8.926-1.275-8.926-2.55 0-2.55 4.676-2.55 8.926s-2.976 5.526-3.401 8.926c-.425 3.4-2.55 24.228-2.55 25.928-.425 1.7-.425 2.125-3.4 2.125-2.976 0-3.401.425-3.401 2.55v2.55H31.52v-2.55c0-2.125-.425-2.55-3.825-2.55z"/><path d="M24.72 62.383v-1.7c0-1.276-.85-2.126-2.126-2.126H9.418c-1.275 0-2.125.85-2.125 2.126v1.7H4.317V91.286H27.27V89.16 62.383h-2.55zm-.85 17.002c0 .85-.426 1.275-1.276 1.275H9.418c-.85 0-1.275-.425-1.275-1.275V61.108c0-.85.425-1.275 1.275-1.275h13.176c.85 0 1.275.425 1.275 1.275v18.277z"/></svg>