<svg xmlns="http://www.w3.org/2000/svg"><path d="M47.232 2.59c0 1.276 1.276 2.551 2.55 2.551h11.902L47.232 19.593c-2.975-2.55-6.8-3.826-10.626-3.826-3.4 0-6.8.85-9.35 2.55-2.551-1.7-5.951-2.55-9.352-2.55-9.35 0-17.426 7.651-17.426 17.427 0 8.926 6.375 16.152 14.876 17.002v10.626H6.428c-1.275 0-2.55 1.275-2.55 2.55s1.275 2.55 2.55 2.55h8.926v9.351c0 1.276.85 2.55 2.55 2.55 1.276 0 2.55-.85 2.55-2.55v-9.35h8.076c1.276 0 2.55-1.276 2.55-2.55 0-1.276-.85-2.551-2.55-2.551h-8.925V50.196c2.125-.425 4.25-.85 6.375-2.125 2.976 2.125 6.376 2.975 10.201 2.975 4.676 0 9.351-1.7 12.752-5.1 3.4-3.401 5.1-7.651 5.1-12.752 0-3.825-1.275-7.65-3.825-10.626L64.659 8.116v11.902c0 1.275 1.275 2.55 2.55 2.55 1.276 0 2.55-1.275 2.55-2.55V.04H49.784c-1.7.425-2.55 1.275-2.55 2.55zM22.155 45.096c-1.7.425-2.976.85-4.676.85-6.8 0-12.751-5.525-12.751-12.751 0-6.8 5.526-12.751 12.751-12.751 2.126 0 3.826.425 5.526 1.275-6.376 6.8-6.376 16.576-.85 23.377zm3.825-2.55c-4.25-5.1-4.25-12.751.425-17.427 2.125 2.125 3.4 5.1 3.4 8.501 0 3.4-1.275 6.376-3.825 8.926zm19.127.425c-2.55 2.55-5.525 3.825-9.35 3.825-2.126 0-4.251-.425-5.951-1.7 2.975-2.975 4.675-7.225 4.675-11.901 0-4.25-1.7-8.076-4.25-11.476 1.7-.85 3.4-1.275 5.525-1.275 3.4 0 6.8 1.275 9.351 3.825 2.55 2.55 3.826 5.526 3.826 9.351 0 3.825-1.276 6.8-3.826 9.351z"/></svg>