<svg xmlns="http://www.w3.org/2000/svg"><path d="M68.71 11.104l-17.427-9.35C48.733.477 46.181.477 43.206.902c-7.226.85-14.027 5.526-14.452 5.526-.425 0-7.226-2.55-14.451-1.7C7.503 5.578.702 10.253.277 23.43c0 21.253 17.002 33.154 24.653 37.404l17.426 9.351c2.126 1.275 3.4 1.7 3.826 1.7 1.275-.85 28.478-19.977 28.478-47.18 0-7.65-2.55-11.476-5.95-13.6zm-22.953 56.53C39.38 64.66 21.954 53.609 21.954 33.207c0-11.9 5.951-14.026 10.627-14.876h2.975c5.1 0 9.35 1.275 9.776 1.7l1.7.425 1.7-.85c.85-.425 6.8-4.25 13.177-5.1h2.125c2.125 0 3.825.425 4.675 1.7 1.7 1.7 2.55 5.1 2.55 9.35-.424 20.828-19.126 37.404-25.502 42.08z"/></svg>