<svg xmlns="http://www.w3.org/2000/svg"><path d="M31.695 27.667c0-2.976 0-4.25.85-4.25s.85-.426.85-2.55c0-2.126 0-2.551-.85-2.551s-1.275-1.275 0-1.275 1.275 0 1.275-2.55-.425-9.777-.425-11.902-1.275-1.7-3.4-1.7h-9.777-9.775c-2.126 0-3.4-.425-3.4 1.7s-.426 9.351-.426 11.901c0 2.55 0 2.55 1.275 2.55s.85 1.276 0 1.276-.85.425-.85 2.55 0 2.55.85 2.55.85 1.275.85 4.25c0 2.976-8.075 2.976-8.075 14.452v39.53c0 7.225 2.125 10.625 7.225 10.625H33.394c5.526 0 7.227-3.4 7.227-10.626V42.118c-.85-11.476-8.926-11.476-8.926-14.451zm-.85-25.503c.425 0 .425.425.425.425.425 4.25.425 8.501.85 12.752 0 .425-.425.425-.425.425-.425 0-.425-.425-.425-.425-.425-4.251-.425-8.501-.85-12.752 0 0 0-.425.425-.425zm-2.126 0c.425 0 .425.425.425.425.426 4.25.426 8.501.85 12.752 0 .425-.424.425-.424.425-.425 0-.426-.425-.426-.425 0-4.251-.425-8.501-.425-12.752-.425 0-.425-.425 0-.425zm-2.125 0c.425 0 .425.425.425.425 0 4.25.425 8.501.425 12.752 0 .425-.425.425-.425.425-.425 0-.425-.425-.425-.425 0-4.251-.425-8.501-.425-12.752 0 0 0-.425.425-.425zm-2.125 0c.425 0 .425.425.425.425 0 4.25.425 8.501.425 12.752 0 .425-.425.425-.425.425-.425 0-.425-.425-.425-.425 0-4.251 0-8.501-.425-12.752-.425 0 0-.425.425-.425zm-2.125 0c.425 0 .425.425.425.425v12.752c0 .425-.425.425-.425.425-.425 0-.425-.425-.425-.425V2.588c-.425 0 0-.425.425-.425zm-2.976.425c0-.425.426-.425.426-.425.424 0 .424.425.424.425v12.752c0 .425-.424.425-.424.425-.426 0-.425-.425-.425-.425V2.588zm-2.125 0c0-.425.425-.425.425-.425.425 0 .425.425.425.425v12.752c0 .425-.425.425-.425.425-.425 0-.425-.425-.425-.425V2.588zm-2.125 0c0-.425.425-.425.425-.425.425 0 .425.425.425.425 0 4.25 0 8.501-.425 12.752 0 .425-.425.425-.425.425-.425 0-.425-.425-.425-.425 0-3.826.425-8.076.425-12.752zm-2.125 0c0-.425.425-.425.425-.425.425 0 .425.425.425.425 0 4.25-.425 8.501-.425 12.752 0 .425-.425.425-.425.425-.425 0-.425-.425-.425-.425 0-3.826 0-8.076.425-12.752zm-2.125 0c0-.425.425-.425.425-.425.425 0 .425.425.425.425 0 4.25-.425 8.501-.425 12.752 0 .425-.425.425-.425.425-.425 0-.425-.425-.425-.425-.425-3.826 0-8.076.425-12.752zm-2.55 13.602c-.426 0-.426-.425-.426-.425.425-4.25.425-8.501.85-12.752 0-.425.425-.425.425-.425.425 0 .425.425.425.425-.425 4.25-.425 8.501-.85 12.752l-.425.425zM32.97 68.046c0 1.7-1.275 2.975-2.975 2.975H10.017c-1.7 0-2.975-1.275-2.975-2.975V46.369c0-1.7 1.275-2.976 2.976-2.976h19.977c1.7 0 2.975 1.276 2.975 2.976v21.677z"/></svg>