<svg xmlns="http://www.w3.org/2000/svg"><path d="M27.77 3.855S-4.462-10.978.673 17.547c.285 1.427.57 2.853 1.14 4.28h5.135L9.8 15.55c.285-.57.855-.855 1.426-.855.57 0 1.141.57 1.141 1.14l1.141 6.562L18.072 5.28c.285-.57.856-1.14 1.426-.855.57 0 1.141.57 1.141 1.14l2.283 25.103 3.708-14.548c.285-.57.855-.856 1.426-.856.57 0 1.141.57 1.141 1.141l1.426 7.702.856-1.997c.285-.57.57-.855 1.141-.855h6.276c.57-1.997 2.282-3.138 4.279-3.138 2.567 0 4.564 1.997 4.564 4.564s-1.997 4.564-4.564 4.564c-1.997 0-3.709-1.426-4.28-3.138h-5.42l-1.996 4.85c-.285.57-.856.855-1.426.855s-1.141-.57-1.141-1.14l-1.141-6.276-3.994 16.26c-.285.57-.57.855-1.14.855-.571 0-1.142-.57-1.142-1.141l-2.282-25.673-4.85 16.26c-.284.57-.57.855-1.425.855-.57 0-1.142-.57-1.142-1.14L10.37 20.4l-1.426 3.138c-.285.57-.57.855-1.141.855h-4.85C9.8 38.941 27.772 49.496 27.772 49.496S51.447 35.804 54.87 17.833c5.135-28.811-27.1-13.978-27.1-13.978z"/></svg>