<svg xmlns="http://www.w3.org/2000/svg"><path d="M28.065 22.064c-.256 0-.256.257-.256.257h.513c.256 0 .256-.257.256-.257h-.513zM22.678 22.32h.513s0-.256-.257-.256h-.513s0 .257.257.257z"/><path d="M50.386 32.07l-9.749-5.644c-.513-.257-.513-.77 0-1.027l9.75-5.644c.512-.256.769-1.026.512-1.54L45 7.954c-.257-.513-1.027-.77-1.54-.513l-9.75 5.644c-.512.257-1.025 0-1.025-.513V1.026C32.684.513 32.17 0 31.657 0H19.856c-.513 0-1.027.513-1.027 1.026v11.289c0 .513-.513.77-1.026.513L8.054 7.184c-.513-.257-1.283 0-1.54.513l-5.9 10.262c-.257.513 0 1.283.513 1.54l9.75 5.644c.512.256.512.77 0 1.026l-10.263 5.9c-.513.258-.77 1.027-.513 1.54L6 43.872c.257.513 1.027.77 1.54.513l9.75-5.645c.512-.256 1.025 0 1.025.514v11.288c0 .513.514 1.026 1.027 1.026h11.801c.513 0 1.026-.513 1.026-1.026V39.254c0-.514.514-.77 1.027-.514l9.749 5.645c.513.256 1.283 0 1.54-.513l5.9-10.263c.77-.513.513-1.282 0-1.54zM30.888 13.598c.256 0 .256.256.513.256-.257-.256-.513-.256-.513-.256-.513-.257-.77-.257-.77-.514.257 0 .513.257.77.514zm-.513.256c1.026.77 3.078 1.026 6.927 1.026 3.848 0 4.361-.256 3.848.77-.513 1.026-2.309.77-2.566 1.026-.256 0 0 1.54-1.026 1.283-1.026 0-1.54-.256-1.796.77 0 .77-1.282 1.283-2.309.77-1.026-.514-1.539-.257-1.539.256s-.513 1.283-2.309.77c-1.796-.513-1.54-.513-2.053 0-.513.513-.513 0-.513-.77V16.42c0-.77 0-.513.513-.513.514 0 1.027-.257 1.027-1.283-.513-1.283.513-1.54 1.796-.77zm-5.901 22.32v-1.282c.256-.257 3.335-1.283 3.848-1.54.77.514 1.283 1.027 1.283 2.053 0 1.283-1.796 2.566-3.335 3.079-1.54.513-2.053.77-2.053 1.283 0 .256.257.513.513.77V39.51c.257 0 3.079-1.026 3.592-1.283.257.513.77 1.027.77 1.54 0 1.026-.513 2.052-2.822 2.565-1.54.513-2.31 1.026-1.54 1.54v-.514c.77-.513 2.566-.77 3.336-1.282.256.256.256.77.256 1.282-.256.77-.513 1.54-2.822 2.31s-3.079 1.282-3.335 1.026c-.257-.257 1.283-1.027 2.822-2.053 1.026-.77 2.052-1.282 1.026-1.796v.514c-.256.513-1.796 1.282-2.052 1.539-.77-.513-1.283-1.026-1.54-1.54-.256-.77.257-1.026 1.54-1.795 1.539-.77 2.309-1.027 2.309-1.54 0-.256-.257-.513-.513-.513v.77c-.257.513-2.566 1.283-3.336 1.54-.77-.514-1.026-1.284-1.026-2.053 0-1.027.77-1.796 2.822-2.566 2.053-.77 2.31-1.54 2.31-2.052 0-.257-.257-.257-.77-.514v1.283c-.514.257-2.823 1.283-3.592 1.54-1.026-.77-1.796-.77-1.796-2.31 0-1.282 1.283-2.308 3.335-3.078 2.053-.77 3.592-1.796 3.592-2.822 0-.513-.513-.77-1.026-1.027 1.282-.256 2.309-.256 3.335-.513.256.257.513.77.513 1.283.257 1.54 0 2.822-2.566 4.105-2.565 1.283-4.361 1.54-4.361 2.053.513.256.77.513 1.283 1.026zm3.592 9.237c-.257 0-.257-.257-.514-.513.77-.513 1.027-1.026 1.283-1.796v-.513c.257.513.257.77 0 1.283 0 .513-.256 1.026-.77 1.539zm.77 1.026c-.257.257-.77-.256-2.566-.77-.257 2.566-.514 4.105-.77 4.105-.257 0-.513-1.539-.513-3.848.513 0 1.796-.77 2.052-.77a7.773 7.773 0 011.796 1.283zm-6.928-2.565v-1.027.257c0 .77.513 1.283 1.283 1.796-.257.256-.513.256-.513.256-.257-.256-.513-.77-.77-1.282zm4.875-13.855v-1.282c.256.256.513.256.513.513v.256l-.257-.256-.256.77zm2.052-2.565c-2.565.513-5.9.513-5.9 1.54 0 .512.513 1.538 1.282 2.052l.257.256v-3.079c.513 0 .77-.256 1.796-.256v2.566c-.513.256-1.027.513-1.796.77-.257 0-1.796.769-2.31 1.025-1.795-1.026-2.308-2.565-2.052-3.848.257-1.54 1.54-3.079 4.875-3.335 3.335 0 5.131-.513 5.644-1.283.513-.77.257-1.796-.513-1.283-.77.513-1.283.77-2.566.77-1.026 0-1.282-.77-.77-1.54.514-.77 0-1.026 1.54-1.282 1.283-.257 4.618 0 4.875 2.052.513 2.566-1.54 4.362-4.362 4.875zm-5.13 2.052v-.256s.256-.257.512-.257v1.283-1.026c-.513 0-.513.256-.513.256zm.256-8.466c-.257 0-.513-.257-.77-.257l-.257-.256s-.256 0-.513.256h-.513c.513-.256 1.026-.256 1.026-.256l.257.256c.257-.256.513 0 .77.257 0-.257.256-.257.256-.257v1.027c-.256-.514-.256-.514-.256-.77zm-1.54 0c1.283.256 1.027.513 1.54 1.283.513.77.256 1.539-.77 1.539-1.283 0-1.796-.257-2.566-.77-.77-.513-1.026.513-.513 1.283.513.513 1.796 1.026 3.336 1.283-1.283 0-2.31.77-2.823 1.796-2.052-.77-3.335-2.31-3.078-4.105.256-2.31 3.591-2.566 4.874-2.31zm.77 3.848h-.257c-1.282-.256-2.052-.513-2.052-.77l-.257-.256c.77.513 1.283.77 2.566.77h.257c.256 0 .77 0 .77-.257V25.4v-.513c-.514-.256-.77-.256-1.027 0zm3.592 0v-.77c.256 0 .513.257.77.257h.256c1.283 0 1.796-.256 2.566-.77 0 0 0 .257-.257.257-.256.257-1.026.77-2.052.77h-.257c-.257 0-.77 0-.77-.257l-.256.513zm0-3.335v-.77c.256 0 .513-.256.77-.256l.256-.257c.257 0 .513.257 1.283.257h-.513c-.257 0-.513-.257-.77-.257l-.257.257c-.256.256-.513.256-.77.256h-.256c.257.257.257.513.257.77zm1.54-9.75c0 1.027-.514 2.053-1.54 2.566v0c.77-.513 1.283-1.539 1.54-2.565 0-1.54-1.284-2.822-2.823-2.822 1.54 0 2.822 1.282 2.822 2.822zm-.77 0c0 1.027-.514 1.797-1.54 2.053v11.032h-1.796v-5.13-6.158c-.77-.257-1.54-1.027-1.54-2.053a2.3 2.3 0 012.31-2.309c1.283 0 2.566 1.283 2.566 2.566zm-2.31-2.821c-1.539 0-2.565 1.282-2.565 2.822 0 1.026.513 2.052 1.54 2.309v0c-1.027-.513-1.54-1.54-1.54-2.566 0-1.283 1.026-2.309 2.565-2.565zm-5.387 4.618c.256-.257.513-.257.77-.514 0 0-.257.257-.77.514 0 0-.257.256-.513.256.256 0 .513-.256.513-.256zm-6.158 1.282c3.849 0 5.645-.256 6.927-1.026 1.027-.77 2.053-.513 2.31.257 0 .77.513 1.282 1.026 1.282s.513-.256.513.514v3.335c0 1.026 0 1.283-.513.77-.513-.514-.513-.514-2.053 0-1.54.513-2.309-.257-2.309-.77s-.513-.77-1.54-.257c-1.025.514-2.308 0-2.308-.77 0-.769-.513-.769-1.796-.769-1.026 0-.77-1.283-1.026-1.283-.257 0-2.053.257-2.566-1.026-1.026-.513-.513-.257 3.335-.257zm2.31 5.388c-1.027 0-2.053-.513-2.053-1.54v-.256H12.672c-1.026 0-1.283-1.026-1.283-1.283-.513 0-2.052 0-2.822-1.282-.256-.257-.256-.77 0-1.283.257-.257.513-.513 1.026-.513-.256 0-.256.256-.513.256-.256.513 0 .77 0 1.283.513 1.283 2.053 1.283 2.566 1.283 0 .513.256 1.283 1.283 1.283h1.282v.256c0 .77.77 1.54 2.053 1.54.513 0 .77 0 1.283-.257.513-.256.77-.256.77-.256 0 .513.256 1.026.769 1.282-.256 0-.256 0-.513.257-.513-.257-.77-.77-.77-1.026-.256 0-.513 0-.77.256h-1.026zm3.335 8.98c0-.257.256-.77.513-1.283-2.31-1.026-3.592-2.822-3.336-4.618.257-.77.514-1.283 1.027-1.54-.257.257-.77.77-.77 1.283-.257 1.796 1.026 3.592 3.079 4.618-.257.514-.257.77-.513 1.283-.257 1.283 0 2.822 1.796 4.105-.257 0-.257.257-.514.257-1.282-1.283-1.282-3.079-1.282-4.105zm.77 6.414c0-.513 0-.77.256-1.283v.513c0 1.54.77 2.052 1.54 2.31 0 0 .256 0 .256.256l-.513.513c-.77-.257-1.54-.77-1.54-2.31zm1.282 3.592c0 1.026.257 2.052 1.026 2.565-.256.257-.256.257-.256.513-.77-.513-1.026-1.54-1.026-2.309 0-.256.256-.513.256-.77zm7.953 8.466s-.256.257-.513.257c-.256 0-.513-.257-1.54-.514-.256 0-.256-.256-.512-.256-.257 3.592-.77 3.848-1.283 3.848-.77 0-1.026-.513-1.283-3.848-.256 0-.513.256-.77.256-.77.257-1.282.514-1.539.514-.256 0-.513 0-.513-.257l-.256-.257v-.256c0-.257 0-.257.256-.513 0 0 .257.256.513.256.257 0 .513 0 1.54-.513.256 0 .513-.256.77-.256.256 3.078.512 3.848 1.025 3.848.514 0 1.027-.257 1.283-3.848.257 0 .513.256.513.256.77.257 1.283.513 1.54.513.256 0 .256 0 .513-.256.256.256.256.256.256.513v.513zm-.77-5.388c0-.256 0-.513-.256-.513.77-.513 1.026-1.283 1.026-2.309v-.256c0 .256.257.513.257.77 0 1.026-.257 1.795-1.026 2.308zm.514-4.105c0-.256-.257-.256-.257-.513.77-.513 1.54-1.54 1.54-2.565v-.514c.256.257.256.77.256 1.027-.256 1.026-.77 1.796-1.54 2.565zm1.796-10.262c.256.513.513.77.513 1.283.256 1.796-.257 3.079-2.053 4.105-.256-.257-.256-.257-.513-.257 1.796-1.026 2.566-2.309 2.053-4.105 0-.256-.257-.77-.513-1.283 2.052-1.026 3.335-2.822 3.078-4.618 0-.513-.256-1.026-.77-1.282.514.513 1.027 1.026 1.027 1.795.77 1.54-.513 3.336-2.822 4.362zm8.466-10.519c0 .513-.256 1.283-1.283 1.283H36.79v.256c0 .77-.77 1.54-2.053 1.54-.513 0-1.026 0-1.283-.257-.513-.256-.77-.256-.77-.256 0 .513-.256.77-.769 1.026-.257 0-.257 0-.513-.257.513-.256.77-.77.77-1.282 0 0 .256 0 .77.256.512.257.769.257 1.282.257 1.026 0 1.796-.514 2.053-1.54v-.256h1.282c1.026 0 1.283-1.027 1.283-1.283.513 0 2.053 0 2.566-1.283.256-.257.256-.77 0-1.283 0-.256-.257-.256-.513-.256.513 0 1.026 0 1.026.513.256.513 0 1.026 0 1.283-.257 1.539-1.796 1.539-2.566 1.539z"/></svg>