<svg xmlns="http://www.w3.org/2000/svg"><path d="M30.987 31.933l3.74-23.015c.575-.863.863-2.014.863-3.164C35.59 2.589 33 0 29.836 0c-3.164 0-5.753 2.59-5.753 5.754 0 3.164 2.301 5.466 5.178 5.753l-1.15 6.617H16.602a2.578 2.578 0 00-2.59 2.59c0 1.438 1.151 2.588 2.59 2.588h10.644l-.575 3.452H14.014L8.26 43.44l-4.028-1.15c-1.438-.288-2.876.287-3.164 1.725-.288 1.439.288 2.877 1.726 3.165l8.63 2.589 6.042-17.836h13.52z"/><path d="M33.576 24.453l-.863 5.754c1.726 1.726 2.589 4.315 2.589 6.904a10.314 10.314 0 01-10.357 10.357c-3.74 0-7.192-2.014-8.918-5.467l-2.014 5.754c2.877 2.877 6.905 4.603 10.932 4.603 8.343 0 15.247-6.904 15.247-15.247.288-5.178-2.301-9.781-6.616-12.658z"/></svg>