<svg xmlns="http://www.w3.org/2000/svg"><path d="M29.795 21.456c-.984 3.472-1.872 7.088-4.196 7.184-2.276.08-3.212-3.12-4.277-6.544-1.146-3.696-2.309-7.648-2.309-7.648 4.23-1.808 8.539-1.744 12.896-.064 0 0-1.08 3.472-2.114 7.072zM40.529 23.184c.968 2.512 1.323 6.32.322 9.2-1.565 4.496-6.585 5.6-9.765 4.128-2.598-1.184-3.599-4.656-3.599-4.656.775-.304 1.824-.928 2.47-1.632 1.646-1.792 2.55-4.72 3.599-8.48.484-1.776.92-3.488 1.453-5.616 0 0 3.728 2.448 5.52 7.056z"/><path d="M45.306.752H4.89C2.179.752 0 2.928 0 5.6v40.048c0 2.688 2.195 4.848 4.89 4.848h40.416c2.712 0 4.89-2.176 4.89-4.848V5.6c0-2.672-2.195-4.848-4.89-4.848zM44.225 33.36c-.436 1.296-1.727 3.44-3.6 4.912-1.969 1.552-3.18 1.952-5.923 2.192-2.76.256-5.004-.176-7.538-2.416-1.259-1.104-2.243-2.624-2.68-3.952-.435-1.296-.532-2.288-.532-2.288-1.307-.096-2.501-.912-3.438-2.256-1.727-2.48-2.776-6.544-3.518-9.504-.597-2.336-1.114-3.856-1.114-3.856s-4.923 3.44-6.069 9.088c-.565 2.816-.161 7.792 2.244 11.376 1.388 2.064 4.212 4.32 6.585 5.504 1.501.752 3.067 1.088 3.454 1.168a3.94 3.94 0 013.373-1.92c2.18 0 3.939 1.744 3.939 3.904 0 2.144-1.76 3.888-3.939 3.888a3.954 3.954 0 01-3.647-2.448c-5.375-1.008-10.04-4.272-12.735-8.352-2.486-3.76-3.373-8.272-2.97-12.096.452-4.256 2.647-7.92 4.81-10.336 2.05-2.288 3.987-3.28 3.987-3.28-2.308-10.032 7.812-9.664 7.812-9.664L22.66 6.56c-3.244-.016-4.777 1.248-4.52 4.368 5.343-1.792 9.701-1.792 14.914.096.533-2.624-.758-4.16-4.729-4.528l.194-3.376c4.568.16 7.005 2.192 7.763 4.736.678 2.256-.129 4.752-.129 4.752 2.486 1.952 4.955 4.208 6.392 6.576 2.84 4.752 3.067 10.016 1.678 14.176zM68.346 20.053H64.17v9.235h-5.244V4.059h9.456c3.007 0 5.326.665 6.957 1.993 1.631 1.328 2.447 3.206 2.447 5.632 0 1.72-.379 3.159-1.136 4.314-.746 1.144-1.882 2.056-3.408 2.738l5.505 10.31v.242h-5.628l-4.772-9.235zm-4.177-4.21h4.23c1.316 0 2.336-.33 3.059-.989.722-.67 1.083-1.588 1.083-2.755 0-1.19-.343-2.125-1.03-2.807-.677-.681-1.72-1.022-3.13-1.022H64.17v7.572zm39.435-3.259c1.34-1.594 3.024-2.39 5.052-2.39 4.102 0 6.182 2.361 6.24 7.086v12.008h-5.051v-11.87c0-1.073-.234-1.865-.7-2.373-.466-.52-1.241-.78-2.325-.78-1.48 0-2.552.566-3.216 1.698v13.325h-5.051V2.673h5.051v9.911zm24.988 16.704c-.233-.45-.402-1.01-.507-1.68-1.224 1.35-2.814 2.027-4.772 2.027-1.852 0-3.391-.532-4.614-1.595-1.212-1.062-1.819-2.402-1.819-4.02 0-1.986.741-3.511 2.22-4.574 1.492-1.063 3.642-1.6 6.45-1.611h2.326V16.76c0-.866-.228-1.56-.683-2.079-.442-.52-1.148-.78-2.115-.78-.85 0-1.52.203-2.009.607-.478.404-.717.959-.717 1.663H117.3c0-1.086.338-2.09 1.014-3.015.676-.924 1.632-1.646 2.866-2.166 1.236-.531 2.622-.797 4.161-.797 2.331 0 4.177.584 5.541 1.75 1.374 1.156 2.062 2.784 2.062 4.887v8.126c.012 1.78.262 3.125.752 4.037v.295h-5.104zm-4.177-3.483c.745 0 1.433-.162 2.062-.485.63-.335 1.095-.78 1.399-1.334v-3.223h-1.889c-2.529 0-3.874.866-4.037 2.599l-.017.295c0 .623.221 1.137.663 1.542.443.404 1.05.606 1.819.606z"/><path d="M89.087 29.635c-2.774 0-5.035-.844-6.782-2.53-1.737-1.687-2.605-3.933-2.605-6.74v-.486c0-1.883.367-3.563 1.101-5.042.734-1.49 1.772-2.634 3.112-3.43 1.351-.81 2.89-1.214 4.614-1.214 2.587 0 4.62.809 6.1 2.426 1.492 1.617 2.238 3.91 2.238 6.88v2.044H84.822c.163 1.224.652 2.206 1.468 2.945.827.74 1.87 1.11 3.129 1.11 1.946 0 3.466-.7 4.562-2.097l2.482 2.755c-.757 1.063-1.783 1.894-3.077 2.495-1.293.59-2.726.884-4.3.884zm-.577-15.387c-1.002 0-1.818.335-2.447 1.005-.618.67-1.014 1.629-1.189 2.876h7.027v-.398c-.024-1.11-.326-1.964-.91-2.565-.582-.612-1.41-.918-2.481-.918z"/><path d="M70.05 35.034H58.766v11.2H70.05v-11.2z"/><path d="M77.936 35.1l2.5 6.997 2.487-6.997h2.633v9.648h-2.012v-2.637l.2-4.553-2.626 7.19h-1.377l-2.62-7.183.2 4.546v2.637h-2.005V35.1h2.62zm17.007 5.467h-3.85v2.584h4.519v1.597h-6.525V35.1h6.511v1.61h-4.505v2.3h3.85v1.557zm3.625 4.181V35.1h2.994c.856 0 1.62.192 2.293.577.677.38 1.205.923 1.584 1.63.379.702.568 1.502.568 2.398v.444c0 .897-.187 1.694-.561 2.392a3.96 3.96 0 01-1.571 1.624c-.677.384-1.442.578-2.293.583h-3.014zm2.005-8.038v6.441h.969c.784 0 1.384-.254 1.798-.762.415-.508.626-1.235.635-2.18v-.51c0-.98-.205-1.723-.615-2.227-.41-.508-1.009-.762-1.798-.762h-.989zm10.811 8.038h-2.006V35.1h2.006v9.648zm11.284-3.214c-.076 1.038-.463 1.855-1.163 2.452-.695.596-1.614.895-2.754.895-1.247 0-2.231-.416-2.948-1.246-.713-.835-1.069-1.98-1.069-3.433v-.59c0-.927.164-1.744.494-2.451.33-.707.8-1.248 1.411-1.624.615-.38 1.328-.57 2.139-.57 1.123 0 2.027.299 2.714.895.686.596 1.083 1.433 1.189 2.511h-2.004c-.05-.622-.226-1.073-.529-1.351-.298-.283-.755-.424-1.37-.424-.669 0-1.17.238-1.504.715-.33.473-.5 1.208-.508 2.207v.729c0 1.042.158 1.804.475 2.286.32.481.824.722 1.51.722.619 0 1.081-.14 1.384-.417.307-.283.484-.718.527-1.306h2.006zm8.591 1.226h-3.516l-.668 1.988h-2.132l3.623-9.648h1.857l3.644 9.648h-2.132l-.676-1.988zm-2.975-1.61h2.434l-1.224-3.611-1.21 3.61z"/></svg>