<svg xmlns="http://www.w3.org/2000/svg"><path d="M53.647 24.717c-2.247 0-4.213 1.404-4.775 3.37-.281 0-5.618-1.404-9.83 1.685-2.81 2.247-4.495 6.18-4.495 11.516 0 4.494-.842 7.865-2.528 10.112-1.685 2.247-3.37 2.808-4.774 2.808-2.81 0-6.18-2.528-6.18-6.179 0-3.37 0-5.898-.28-7.583v-.562c3.65-.281 7.302-1.966 10.392-4.775.842-.843 1.123-1.966.842-3.09 3.933-4.774 6.741-11.515 6.741-17.133 0-6.179-3.09-10.111-9.268-12.077C29.21 1.123 27.805 0 26.121 0c-1.967 0-3.652 1.685-3.652 3.651 0 1.966 1.685 3.652 3.651 3.652 1.124 0 2.247-.562 2.809-1.405 4.775 1.405 6.74 4.213 6.74 8.988 0 5.056-2.246 10.954-5.898 15.167-.842-.28-1.966 0-2.808.843-1.685 1.404-3.932 3.37-7.022 3.37h-1.124c-2.808 0-5.336-1.685-7.021-3.37-.843-.843-1.686-.843-2.81-.843C5.618 25.84 3.09 19.942 3.09 14.886c0-4.775 2.247-7.583 6.74-8.988.562.843 1.686 1.405 2.81 1.405 1.965 0 3.65-1.686 3.65-3.652C16.29 1.685 14.606 0 12.64 0c-1.686 0-3.09 1.123-3.371 2.809C3.089 4.494 0 8.426 0 14.886c0 5.618 2.528 12.359 6.74 17.133-.28 1.124 0 2.247.844 3.09 3.37 3.09 7.302 5.056 11.234 5.056 0 .842.281 2.808.281 7.864 0 4.494 3.652 8.426 8.146 8.426 2.527 0 4.774-1.404 6.46-3.651 1.966-2.528 2.808-6.46 2.808-11.516 0-4.775 1.124-7.864 3.652-9.83 3.37-2.528 7.864-1.405 7.864-1.405h.281c.28 2.528 2.528 4.494 5.056 4.494a5.035 5.035 0 005.055-5.055c.281-2.528-1.966-4.775-4.774-4.775zm0 8.988c-2.247 0-3.933-1.686-3.933-3.933s1.686-3.932 3.933-3.932 3.932 1.685 3.932 3.932-1.966 3.933-3.932 3.933z"/><path d="M53.647 26.964c-1.685 0-2.809 1.404-2.809 2.808 0 1.686 1.404 2.81 2.809 2.81 1.685 0 2.808-1.405 2.808-2.81 0-1.404-1.404-2.808-2.808-2.808z"/></svg>