<svg xmlns="http://www.w3.org/2000/svg"><path d="M11.5 20.7a9.2 9.2 0 100-18.4 9.2 9.2 0 000 18.4zm0 2.3C5.149 23 0 17.851 0 11.5S5.149 0 11.5 0 23 5.149 23 11.5 17.851 23 11.5 23z"/><path d="M14.992 10.929c.012-1.43-1.168-2.741-2.63-2.922l-.095-.015a1.326 1.326 0 00-.223-.024c-.3 0-.38.216-.4.345a.41.41 0 00.057.316c.1.139.274.163.414.184.041.006.08.01.112.019 1.314.302 1.757.778 1.973 2.123a.977.977 0 01.01.117c.009.16.029.494.378.494.029 0 .06-.002.092-.008.325-.05.314-.356.31-.503a.787.787 0 01.001-.125l.001-.001z"/><path d="M11.96 7.482c.038.003.077.005.106.01 2.157.343 3.15 1.397 3.425 3.642.004.038.004.084.005.134.003.175.009.54.388.547h.012a.367.367 0 00.282-.11c.117-.127.11-.316.103-.47-.002-.036-.004-.071-.003-.102.027-2.295-1.897-4.377-4.119-4.453h-.027a.181.181 0 01-.025.002l-.079-.003a1.4 1.4 0 00-.115-.006c-.354 0-.42.259-.43.414-.019.357.316.383.477.395zm3.426 6.552a6.874 6.874 0 01-.137-.11c-.236-.196-.487-.376-.728-.55l-.152-.11c-.31-.224-.59-.334-.853-.334-.354 0-.664.203-.92.603-.113.176-.25.262-.42.262a.813.813 0 01-.338-.087c-1.001-.47-1.717-1.188-2.126-2.137-.198-.46-.134-.76.214-1.003.198-.138.566-.396.54-.89-.029-.56-1.228-2.247-1.733-2.439a.954.954 0 00-.669-.002c-.58.202-.996.556-1.204 1.023-.202.452-.192.982.027 1.534.63 1.597 1.514 2.988 2.631 4.136 1.093 1.124 2.436 2.044 3.993 2.736.14.063.287.096.394.121l.091.023a.15.15 0 00.039.006h.012c.732 0 1.611-.69 1.881-1.478.237-.69-.195-1.03-.542-1.303v-.001zm-3.102-4.729c-.125.003-.386.01-.478.284-.042.128-.038.24.015.33.078.135.227.176.362.198.491.082.744.362.794.882.024.243.182.412.385.412.015 0 .03 0 .046-.002.244-.03.362-.216.352-.551.004-.35-.174-.748-.476-1.064-.302-.318-.668-.497-1-.489z"/></svg>