<svg xmlns="http://www.w3.org/2000/svg"><path d="M14.75 12.659c.13 0 .616.218 1.46.654.843.435 1.29.698 1.34.787.02.05.03.124.03.223 0 .327-.085.703-.255 1.13-.16.386-.514.71-1.063.972-.55.263-1.058.394-1.528.394-.569 0-1.517-.307-2.845-.921a8.546 8.546 0 01-2.545-1.753c-.719-.723-1.458-1.64-2.216-2.749-.72-1.06-1.074-2.02-1.064-2.882v-.12c.03-.9.4-1.683 1.109-2.347.24-.218.499-.327.778-.327.06 0 .15.008.27.023.12.014.214.022.284.022.19 0 .322.032.397.096.075.065.152.201.232.409.08.198.245.634.494 1.308.25.673.375 1.045.375 1.114 0 .208-.173.493-.517.854-.344.362-.517.592-.517.691 0 .07.025.144.075.223.34.723.849 1.401 1.528 2.035.559.526 1.312 1.026 2.26 1.501.12.07.23.104.33.104.15 0 .42-.24.809-.72.389-.48.649-.721.778-.721zm-3.04 7.875a9.212 9.212 0 003.646-.743c1.163-.496 2.164-1.16 3.002-1.991a9.406 9.406 0 002.007-2.98 9.02 9.02 0 00.748-3.617 9.02 9.02 0 00-.748-3.618 9.407 9.407 0 00-2.007-2.98c-.838-.831-1.84-1.495-3.002-1.99a9.213 9.213 0 00-3.646-.743 9.212 9.212 0 00-3.647.743C6.9 3.11 5.9 3.774 5.061 4.605a9.405 9.405 0 00-2.006 2.98 9.02 9.02 0 00-.749 3.618c0 2.01.599 3.833 1.797 5.468L2.92 20.131l3.624-1.144a9.26 9.26 0 005.166 1.546zM11.71 0c1.527 0 2.987.297 4.38.891 1.392.595 2.593 1.392 3.6 2.393 1.009 1 1.813 2.191 2.412 3.573.599 1.382.898 2.83.898 4.346 0 1.515-.3 2.964-.898 4.346-.6 1.382-1.403 2.573-2.411 3.573s-2.209 1.798-3.601 2.392a11.045 11.045 0 01-4.38.892c-1.947 0-3.769-.466-5.466-1.397L0 23l2.036-6.017a10.871 10.871 0 01-1.617-5.78c0-1.516.3-2.964.899-4.346.599-1.382 1.402-2.573 2.41-3.573 1.009-1 2.21-1.798 3.602-2.393A11.045 11.045 0 0111.71 0z"/></svg>